<svg width="24" height="24" viewBox="0 0 24 24" fill="none" xmlns="http://www.w3.org/2000/svg">
<path d="M20.893 22.4931C21.2835 22.8836 21.9167 22.8836 22.3072 22.4931L22.493 22.3073C22.8835 21.9168 22.8835 21.2836 22.493 20.8931L7.20008 5.60022L5.60008 7.20021L20.893 22.4931Z" fill="#990000"/>
<rect width="4.52548" height="10.1823" rx="1" transform="matrix(0.707105 0.707108 0.707105 -0.707108 1.6001 20.7998)" fill="#990000"/>
<path d="M8.8 15.2004L10.4 16.8004L20 7.20039H21.6L23.2 4.00039L21.6 2.40039L18.4 4.00039L18.4 5.60039L8.8 15.2004Z" fill="#990000"/>
<path d="M9.17168 2.77208C7.98723 1.58763 6.30956 1.19699 4.79978 1.60018C5.17168 1.97208 7.57168 4.37208 7.57168 4.37208L5.97168 5.97207L4.37168 7.57207C4.37168 7.57207 1.97168 5.17208 1.59978 4.80018C1.19659 6.30995 1.58723 7.98762 2.77168 9.17207C4.53899 10.9394 7.40437 10.9394 9.17168 9.17207C10.939 7.40476 10.939 4.53939 9.17168 2.77208Z" fill="#990000"/>
</svg>
