<svg width="23" height="23" viewBox="0 0 23 23" fill="none" xmlns="http://www.w3.org/2000/svg">
<path d="M7.24765 10.8706C7.31235 10.8018 7.38997 10.7465 7.47606 10.7078C7.56215 10.669 7.65502 10.6476 7.74938 10.6448C7.84374 10.642 7.93774 10.6578 8.026 10.6913C8.11426 10.7247 8.19506 10.7753 8.26378 10.84C11.5714 13.9558 14.8902 15.8515 18.7957 16.8178C19.3226 15.3803 19.3694 13.7981 18.9143 12.2546C18.3106 10.2066 16.9045 8.42233 14.8493 7.09489C13.0147 5.90985 11.181 5.60124 9.40704 5.30295C7.16903 4.92651 5.05501 4.57073 3.03757 2.43469C2.81296 2.1984 2.50704 2.10362 2.2146 2.18043C1.88038 2.27028 1.65622 2.53442 1.54886 2.97106C1.29729 3.99303 1.45901 6.85725 2.16653 9.88094C3.30261 14.7388 5.11565 17.1969 6.43681 18.404C8.14384 19.9623 10.3729 20.8253 12.588 20.8253C13.0055 20.8259 13.4225 20.7953 13.8354 20.7336C15.7091 20.4497 17.2688 19.5086 18.1479 18.1394C14.1279 17.0936 10.6936 15.1049 7.27684 11.8881C7.208 11.8232 7.15262 11.7455 7.11388 11.6592C7.07515 11.5729 7.05381 11.4799 7.0511 11.3854C7.04839 11.2909 7.06435 11.1967 7.09808 11.1084C7.1318 11.02 7.18263 10.9392 7.24765 10.8706V10.8706ZM20.9973 17.258C20.2413 17.1417 19.5091 16.9957 18.7962 16.8191C18.6496 17.2193 18.4672 17.6054 18.2513 17.9727C18.2185 18.0289 18.1839 18.0846 18.1484 18.1394C19.0155 18.3638 19.8935 18.5438 20.779 18.6784C20.8732 18.695 20.9698 18.6926 21.0631 18.6713C21.1564 18.6501 21.2445 18.6104 21.3222 18.5547C21.4 18.4989 21.4658 18.4282 21.5159 18.3467C21.566 18.2652 21.5992 18.1745 21.6138 18.08C21.6284 17.9854 21.6239 17.8889 21.6007 17.7961C21.5775 17.7033 21.536 17.616 21.4786 17.5395C21.4212 17.4629 21.3491 17.3986 21.2666 17.3503C21.184 17.3019 21.0926 17.2706 20.9978 17.258H20.9973Z" fill="#990000"/>
</svg>
