<svg width="176" height="56" viewBox="0 0 176 56" fill="none" xmlns="http://www.w3.org/2000/svg">
<g filter="url(#filter0_d_2665_9682)">
<rect x="8" y="6" width="160" height="40" rx="8" fill="#222222"/>
</g>
<g clip-path="url(#clip0_2665_9682)">
<path fill-rule="evenodd" clip-rule="evenodd" d="M148.616 22.2033C148.547 22.1736 148.474 22.1572 148.399 22.1549L148.674 21.4579L148.716 21.2776C148.719 21.2664 148.719 21.2549 148.717 21.2436C148.715 21.2323 148.711 21.2215 148.705 21.2118L148.657 21.1466C148.65 21.1374 148.641 21.1302 148.631 21.1258L148.527 21.0774C148.517 21.0727 148.506 21.0699 148.495 21.0692L148.321 21.0591C148.309 21.0578 148.296 21.0593 148.285 21.0634L148.147 21.0977C148.113 21.1078 148.083 21.1281 148.062 21.1558L147.936 21.3124C147.927 21.3238 147.92 21.3363 147.914 21.3496L147.73 21.8083L147.3 23.0516L147.223 23.3828C147.219 23.3955 147.219 23.4089 147.222 23.4217C147.225 23.4346 147.231 23.4466 147.239 23.4567L147.325 23.5442C147.09 23.4959 146.849 23.4379 146.677 23.3992L146.448 23.346C146.343 23.3243 146.227 23.302 146.109 23.2837C146.165 23.2518 146.22 23.2179 146.277 23.1788C146.348 23.1287 146.402 23.0585 146.433 22.9772C146.448 22.945 146.452 22.9085 146.443 22.874C146.434 22.8395 146.413 22.8092 146.385 22.7882C146.203 22.704 146.005 22.6629 145.805 22.6683L145.735 22.6635L146.033 21.919L146.082 21.7412C146.085 21.7253 146.085 21.7087 146.082 21.6928L146.06 21.6256C146.057 21.6166 146.052 21.6081 146.046 21.6005L146.016 21.5681C146.003 21.556 145.986 21.5485 145.968 21.5468L145.864 21.5357C145.844 21.5331 145.824 21.5363 145.806 21.5449L145.717 21.5821C145.684 21.5954 145.657 21.6183 145.638 21.6478L145.542 21.803L145.259 22.5315C145.256 22.5088 145.253 22.4856 145.249 22.4624C145.141 21.8543 145.019 21.2529 144.882 20.6583C144.767 20.1662 144.631 19.6833 144.492 19.2038C144.426 18.9815 144.322 18.7784 144.263 18.5527C144.25 18.5077 144.296 18.4444 144.281 18.4004C144.259 18.3323 144.215 18.2737 144.155 18.2341C143.993 18.1271 143.816 18.0456 143.629 17.9924C142.412 17.7523 141.173 17.6456 139.933 17.6744C139.093 17.6652 138.252 17.6584 137.405 17.6744C136.901 17.6614 136.397 17.6864 135.897 17.7493C135.749 17.8015 135.614 17.8838 135.501 17.991C135.414 18.0522 135.335 18.1234 135.265 18.2032C135.172 18.3066 135.108 18.4265 135.02 18.5363C134.943 18.6119 134.871 18.6926 134.805 18.778C134.597 19.141 134.425 19.5132 134.249 19.8849C134.187 20.0176 134.132 20.1537 134.086 20.2924C133.824 21.0402 133.554 21.788 133.3 22.5359H133.141L133.241 22.1835L133.379 21.9282L133.486 21.7151L133.558 21.4937L133.72 20.9107L134.102 19.5954L134.177 19.302L134.085 19.0955L133.94 19.0661L133.767 19.0728L133.509 19.1028L133.333 19.2299L133.156 19.6355L132.788 20.8483L132.568 21.615L132.52 21.9954L132.482 22.4788L132.166 23.3683L131.698 25.0036L131.345 25.9559L130.829 27.4752L130.644 28.12L130.293 29.3435L129.634 29.3561L129.655 29.2898L132.686 19.9637L134.619 14.0078H99.6411L92.6057 15.6514L99.2036 15.4861L90.0674 17.9581L98.5853 17.6565L87.53 20.2668L97.8636 20.1025L97.8602 20.1136L84.9922 22.5736L97.1022 22.4106L97.0925 22.4396L82.455 24.8798L96.3414 24.7179L96.3268 24.7609L79.9172 27.1866L95.6849 26.7075L95.6695 26.7559L77.3803 29.4948L94.8187 29.3348L94.7975 29.3991L74.8425 31.8015L94.0564 31.6459L94.0148 31.7716L72.3047 34.1078L101.502 34.102L101.514 34.0851H103.119C104.098 31.8431 106.567 30.0971 108.876 30.0971C111.25 30.0971 112.593 31.9422 111.998 34.2746L129.026 34.219C129.326 33.5041 129.755 32.8506 130.292 32.2912C130.325 32.2288 130.359 32.167 130.395 32.1061C130.837 31.3451 131.388 30.6536 132.032 30.0541C132.3 29.789 132.589 29.5472 132.898 29.3314H131.236L131.01 29.3358L131.171 28.7557L131.461 27.8058L131.703 26.9584L131.956 26.3199L132.428 24.9528L132.525 24.6391H132.724C132.68 24.789 132.632 24.9388 132.585 25.0887C132.471 25.4623 132.326 25.8379 132.221 26.2116C132.164 26.419 132.104 26.6249 132.05 26.8313C132.022 26.941 131.996 27.0517 131.97 27.1614C132.767 27.1614 134.882 27.1759 136 27.2842C138.241 27.5008 140.748 29.1975 142.119 30.2571L142.798 28.2554C142.81 28.2247 142.83 28.1981 142.857 28.179C142.884 28.1635 142.914 28.1537 142.945 28.1505L144.818 28.2733C144.894 28.0799 144.972 27.8894 145.043 27.6961C145.15 27.4123 145.241 27.1291 145.35 26.8477C145.399 26.7162 145.473 26.5847 145.522 26.4537C145.555 26.3705 145.579 26.2838 145.592 26.1951C145.6 26.1352 145.563 26.0878 145.571 26.0293C145.581 25.9389 145.631 25.8456 145.644 25.7562C145.688 25.5262 145.713 25.2931 145.719 25.0592C145.711 24.8989 145.681 24.7406 145.63 24.5883C145.615 24.54 145.556 24.5197 145.547 24.4685C145.533 24.3766 145.521 24.2843 145.507 24.1919C145.797 24.2456 146.128 24.3138 146.435 24.3786C146.777 24.4501 147.075 24.51 147.231 24.5327C147.272 24.5385 147.313 24.5416 147.354 24.5419C147.505 24.5373 147.651 24.4847 147.77 24.3917C147.889 24.2986 147.975 24.1701 148.016 24.0247C148.125 24.0121 148.227 23.9707 148.314 23.9048C148.469 23.77 148.579 23.5905 148.627 23.391C148.653 23.3102 148.68 23.2305 148.707 23.1546C148.843 22.7582 148.982 22.3614 148.616 22.2033ZM145.619 22.997L145.818 23.0004C145.843 23.0004 145.866 23.0004 145.887 23.0004C145.88 23.0043 145.873 23.0062 145.867 23.0105C145.839 23.0246 145.812 23.0371 145.786 23.0521C145.711 23.0889 145.636 23.1328 145.562 23.1744L145.619 22.997ZM133.016 23.3934C132.934 23.6481 132.924 23.8971 132.86 24.1509C132.851 24.1886 132.84 24.2263 132.83 24.264H132.636L132.761 23.8575L133.039 22.8781H133.184C133.126 23.0497 133.069 23.2218 133.014 23.3934H133.016ZM135.373 26.8076C135.337 26.8635 135.289 26.9112 135.234 26.9479C135.178 26.9846 135.116 27.0095 135.051 27.0208C134.823 27.0481 134.593 27.0605 134.364 27.058C133.704 27.058 133.328 26.9816 133.256 26.8443C133.185 26.7742 133.327 26.2836 133.433 26.1091C133.456 26.0599 133.491 26.0169 133.534 25.9839C133.578 25.9509 133.628 25.9286 133.682 25.9191C133.824 25.9051 134.039 25.8892 134.268 25.8892C134.897 25.8892 135.281 26.0032 135.415 26.2275C135.455 26.3205 135.472 26.4219 135.464 26.5229C135.457 26.6239 135.425 26.7216 135.372 26.8076H135.373ZM143.09 25.5803C143.074 25.6369 143.04 25.687 142.994 25.7234C142.948 25.7598 142.891 25.7805 142.832 25.7828C142.349 25.7828 136.851 23.9604 136.216 23.6622C135.245 23.202 134.872 23.0023 135.163 21.9219C135.341 21.1786 135.557 20.4447 135.81 19.723C136.144 18.8925 136.457 18.979 137.453 18.9979C138.725 19.0279 140.006 19.0337 141.278 19.0627C142.033 19.081 142.583 19.1076 143 19.6287C143.234 20.2909 143.393 20.977 143.475 21.6745C143.697 22.9875 143.563 24.336 143.089 25.5803H143.09ZM144.951 23.653C144.891 23.7786 144.828 23.9362 144.781 24.059C144.749 24.0454 144.718 24.0292 144.688 24.0107C144.615 23.9722 144.55 23.9205 144.495 23.8584C144.433 23.7643 144.385 23.6624 144.35 23.5553C144.298 23.4167 144.257 23.2743 144.226 23.1294C144.172 22.8587 144.14 22.5774 144.101 22.2999C143.956 21.3435 143.754 20.3966 143.495 19.4644C143.445 19.2698 143.406 19.0723 143.379 18.8732C143.385 18.8028 143.408 18.7349 143.445 18.675C143.483 18.6152 143.534 18.5651 143.595 18.529C143.681 18.4947 143.888 18.4067 144.044 18.3632C144.081 18.3972 144.108 18.4404 144.123 18.4884C144.137 18.529 144.094 18.588 144.106 18.63C144.162 18.8408 144.258 19.0298 144.319 19.2372C144.449 19.6848 144.576 20.1348 144.683 20.594C144.812 21.1474 144.926 21.7081 145.025 22.2763C145.087 22.6287 145.14 22.9844 145.191 23.3397C145.084 23.42 145 23.5284 144.95 23.653H144.951ZM145.188 24.3191L145.099 24.2533L145.147 24.1185C145.196 24.1252 145.253 24.1349 145.307 24.1441C145.316 24.1924 145.369 24.2098 145.383 24.2543L145.402 24.3273C145.368 24.3444 145.331 24.3527 145.293 24.3512C145.256 24.3498 145.219 24.3387 145.187 24.3191H145.188ZM147.605 24.0774C147.595 24.1064 147.579 24.118 147.525 24.148C147.516 24.1547 147.503 24.1586 147.461 24.1586C147.005 24.1064 146.553 24.0213 146.11 23.9039C146.011 23.8792 145.932 23.8594 145.881 23.8492C145.763 23.8241 145.608 23.7956 145.453 23.7724C145.445 23.7115 145.435 23.6496 145.427 23.5887C145.435 23.5866 145.443 23.5855 145.451 23.5853H145.486C146.006 23.6398 146.522 23.7296 147.03 23.8541C147.264 23.9024 147.481 23.9508 147.641 23.9807C147.627 24.0146 147.615 24.0484 147.602 24.0779L147.605 24.0774ZM148.475 22.6586L148.438 22.7785C148.362 23.0202 148.267 23.3248 148.172 23.5669C148.161 23.5969 148.146 23.6085 148.093 23.6385C148.084 23.6452 148.069 23.6486 148.03 23.6486C147.852 23.6386 147.676 23.6142 147.503 23.5756L147.67 23.5785C147.688 23.5787 147.707 23.5747 147.724 23.5669L147.866 23.5012C147.891 23.491 147.913 23.4743 147.93 23.4528L148.01 23.348C148.021 23.3335 148.029 23.3171 148.034 23.2996L148.094 23.0831L148.27 22.5194C148.327 22.5136 148.391 22.4943 148.445 22.5711C148.457 22.5876 148.484 22.6292 148.474 22.6591L148.475 22.6586Z" fill="white"/>
<path d="M104.019 15.7711L103.09 15.9862C103.095 15.9413 103.088 15.8958 103.069 15.8548C103.05 15.8138 103.02 15.7789 102.982 15.7542C102.895 15.6955 102.792 15.6658 102.687 15.6696C102.467 15.6696 102.333 15.7421 102.285 15.8871C102.278 15.9065 102.274 15.9275 102.275 15.9484C102.277 15.9693 102.283 15.9896 102.293 16.008C102.354 16.0679 102.43 16.1113 102.513 16.1342L102.982 16.3212C103.103 16.3683 103.211 16.4417 103.3 16.5359C103.383 16.6199 103.437 16.7282 103.455 16.8452C103.47 16.9661 103.457 17.0889 103.417 17.2039C103.298 17.5494 103.062 17.8423 102.749 18.031C102.4 18.2522 101.994 18.3658 101.582 18.3573C101.26 18.3726 100.941 18.2932 100.663 18.1291C100.549 18.0539 100.456 17.9507 100.392 17.8293C100.329 17.7079 100.298 17.5723 100.302 17.4354L101.326 17.2488C101.333 17.4828 101.501 17.5998 101.829 17.5998C101.941 17.606 102.052 17.5806 102.151 17.5263C102.217 17.4884 102.268 17.4291 102.296 17.3581C102.309 17.3239 102.309 17.2859 102.296 17.2517C102.285 17.2245 102.266 17.2012 102.241 17.185C102.219 17.1715 102.108 17.1232 101.908 17.04C101.716 16.9658 101.529 16.8769 101.35 16.7742C101.246 16.7065 101.17 16.6035 101.136 16.4841C101.097 16.3338 101.106 16.175 101.161 16.0297C101.268 15.7175 101.474 15.4488 101.748 15.2645C102.083 15.0435 102.478 14.9339 102.879 14.9513C103.173 14.9353 103.465 15.0124 103.713 15.1717C103.81 15.2376 103.89 15.3272 103.943 15.432C103.997 15.5368 104.023 15.6535 104.019 15.7711Z" fill="#222222"/>
<path d="M104.814 17.0948L104.211 18.3072H103.241L104.878 15.0051H105.982C106.167 15 106.353 15.011 106.537 15.038C106.654 15.0625 106.763 15.1166 106.853 15.1951C106.954 15.2806 107.023 15.3987 107.046 15.5291C107.074 15.6792 107.062 15.8339 107.011 15.9777C106.907 16.292 106.71 16.5675 106.447 16.7686C106.167 16.988 105.82 17.1034 105.465 17.0948H104.814ZM105.164 16.3886H105.394C105.745 16.3886 105.959 16.2713 106.036 16.0367C106.104 15.826 105.991 15.7205 105.697 15.7205H105.494L105.164 16.3886Z" fill="#222222"/>
<path d="M108.041 17.6336H107.147L106.615 18.3104H105.788L108.413 15.0078H109.46L108.9 18.3099H107.915L108.041 17.6336ZM108.205 16.9515L108.384 15.9959L107.632 16.9515H108.205Z" fill="#222222"/>
<path d="M112.125 16.9239L112.034 18.3083H111.046L111.162 17.0515H110.767L110.144 18.3083H109.191L110.828 15.0062H112.286C112.43 14.9875 112.576 15.0009 112.713 15.0455C112.851 15.09 112.977 15.1647 113.083 15.2639C113.151 15.3662 113.192 15.4842 113.202 15.6067C113.212 15.7292 113.191 15.8523 113.14 15.9643C113.065 16.1965 112.932 16.406 112.755 16.5737C112.577 16.7413 112.361 16.8617 112.125 16.9239ZM111.11 16.3656H111.486C111.847 16.3656 112.066 16.2445 112.145 16.0025C112.212 15.7992 112.093 15.6975 111.791 15.6975H111.442L111.11 16.3656Z" fill="#222222"/>
<path d="M115.358 17.5485L114.98 18.3079H112.519L114.155 15.0059H116.556L116.197 15.7309H114.764L114.508 16.2487H115.712L115.356 16.9646H114.154L113.864 17.5504L115.358 17.5485Z" fill="#222222"/>
<path d="M118.497 17.0929L117.895 18.3052H116.925L118.562 15.0032H119.665C119.851 14.9981 120.037 15.0091 120.222 15.036C120.338 15.0607 120.447 15.1148 120.537 15.1931C120.638 15.2786 120.707 15.3967 120.73 15.5272C120.758 15.6772 120.746 15.8319 120.695 15.9758C120.591 16.2901 120.394 16.5656 120.131 16.7666C119.851 16.9861 119.504 17.1017 119.149 17.0934L118.497 17.0929ZM118.848 16.3866H119.078C119.429 16.3866 119.643 16.2695 119.72 16.0352C119.788 15.8245 119.676 15.7191 119.381 15.7191H119.178L118.848 16.3866Z" fill="#222222"/>
<path d="M121.724 17.6317H120.831L120.299 18.3084H119.472L122.096 15.0059H123.144L122.584 18.3084H121.598L121.724 17.6317ZM121.888 16.9491L122.067 15.9934L121.315 16.9491H121.888Z" fill="#222222"/>
<path d="M125.808 16.924L125.717 18.3085H124.729L124.845 17.0516H124.45L123.827 18.3085H122.874L124.511 15.0064H125.969C126.113 14.9875 126.259 15.0008 126.397 15.0453C126.534 15.0899 126.66 15.1646 126.766 15.2641C126.834 15.3664 126.875 15.4843 126.885 15.6068C126.895 15.7294 126.874 15.8524 126.823 15.9645C126.748 16.1967 126.615 16.4062 126.438 16.5738C126.26 16.7415 126.044 16.8619 125.808 16.924ZM124.793 16.3657H125.169C125.53 16.3657 125.75 16.2447 125.828 16.0027C125.895 15.7996 125.776 15.698 125.474 15.6977H125.124L124.793 16.3657Z" fill="#222222"/>
<path d="M128.862 15.7555L127.595 18.3078H126.625L127.891 15.7555H127.177L127.555 14.9961H129.972L129.596 15.7555H128.862Z" fill="#222222"/>
<path d="M132.553 15.7726L131.624 15.9877C131.629 15.9429 131.621 15.8974 131.602 15.8565C131.583 15.8155 131.553 15.7807 131.516 15.7557C131.429 15.6969 131.325 15.6673 131.22 15.6711C131 15.6711 130.866 15.7431 130.819 15.8886C130.811 15.9081 130.808 15.929 130.809 15.9498C130.81 15.9707 130.816 15.991 130.826 16.0095C130.888 16.0692 130.964 16.1128 131.046 16.1361L131.516 16.3232C131.636 16.3701 131.745 16.4432 131.833 16.5373C131.916 16.6215 131.971 16.7298 131.989 16.8467C132.004 16.9677 131.99 17.0904 131.95 17.2054C131.832 17.5511 131.595 17.844 131.282 18.0325C130.934 18.2538 130.528 18.3672 130.115 18.3588C129.794 18.374 129.476 18.2948 129.199 18.1311C129.085 18.0559 128.991 17.9526 128.928 17.8311C128.865 17.7096 128.834 17.5739 128.838 17.4369L129.862 17.2508C129.869 17.4848 130.037 17.6016 130.365 17.6013C130.477 17.6075 130.588 17.5821 130.686 17.5278C130.753 17.4903 130.804 17.4306 130.831 17.3591C130.845 17.3252 130.845 17.2872 130.831 17.2533C130.82 17.2262 130.801 17.203 130.777 17.1866C130.755 17.1724 130.644 17.124 130.444 17.0415C130.251 16.9672 130.065 16.8783 129.886 16.7757C129.782 16.7077 129.706 16.6048 129.673 16.4856C129.633 16.3353 129.641 16.1763 129.697 16.0312C129.804 15.719 130.01 15.4503 130.284 15.2665C130.618 15.0454 131.014 14.9358 131.415 14.9532C131.709 14.9372 132.001 15.0142 132.249 15.1732C132.346 15.2393 132.425 15.3289 132.478 15.4338C132.531 15.5386 132.557 15.6551 132.553 15.7726Z" fill="#222222"/>
<path d="M144.554 31.2551C144.56 31.1855 144.554 31.1681 144.554 31.1681L144.03 31.1077C144.02 31.1063 144.01 31.1027 144.001 31.097L143.107 31.0173L142.129 30.8398L141.884 31.5243L141.589 32.2949L141.205 33.0785H143L143.395 33.1084C143.441 33.098 143.488 33.091 143.535 33.0876C143.613 33.086 143.689 33.062 143.754 33.0185C143.911 32.8907 144.04 32.7323 144.134 32.553C144.261 32.304 144.365 32.0438 144.444 31.7757C144.502 31.6073 144.539 31.4324 144.554 31.2551Z" fill="white"/>
<path d="M141.1 29.8044C139.769 28.8743 137.727 27.661 135.913 27.4841C134.812 27.3773 132.728 27.3628 131.919 27.3613C131.911 27.3956 131.902 27.4309 131.893 27.4652C133.008 27.4681 134.884 27.5015 135.898 27.5866C137.799 27.7485 139.548 28.7269 141.1 29.8044Z" fill="white"/>
<path d="M144.659 29.1357L144.822 29.0341L144.863 28.6445L144.853 28.4995L144.74 28.4681L142.975 28.3555L142.204 30.624L143.202 30.8063L144.042 30.8812L144.161 30.699L144.099 30.5143C144.092 30.4902 144.094 30.4642 144.105 30.4418C144.291 30.0438 144.454 29.6353 144.593 29.2183C144.605 29.1841 144.629 29.1551 144.659 29.1357Z" fill="white"/>
<path d="M138.179 32.0844H141.143L141.519 31.9191L141.674 31.5135L141.956 30.729C140.181 29.4074 138.099 27.9944 135.811 27.801C134.807 27.7164 132.947 27.6826 131.835 27.6797C131.707 28.0033 131.613 28.3393 131.554 28.6823L131.521 29.1347H133.04L133.081 29.3319L133.012 29.5441C133.739 29.3851 134.482 29.3041 135.227 29.3024C137.916 29.3232 138.11 31.0345 138.141 32.0926C138.153 32.0879 138.166 32.0852 138.179 32.0844Z" fill="white"/>
<path d="M141.426 32.1641L141.152 32.284C141.136 32.2915 141.118 32.2955 141.1 32.2956H138.259C138.245 32.4663 138.265 32.6382 138.32 32.8007L138.486 32.9873H140.795C140.804 32.9867 140.814 32.9878 140.823 32.9907L141.004 33.0477L141.386 32.2704L141.426 32.1641Z" fill="white"/>
<path fill-rule="evenodd" clip-rule="evenodd" d="M108.788 31.1543C106.898 31.1543 104.867 32.6891 104.253 34.5786C103.639 36.4682 104.673 38.0016 106.563 38.0016C108.454 38.0016 110.484 36.4692 111.099 34.5786C111.713 32.6881 110.678 31.1543 108.788 31.1543ZM109.157 34.5777C109.011 34.9896 108.747 35.3495 108.398 35.6128C108.049 35.8761 107.631 36.0312 107.195 36.0588C107.015 36.0689 106.835 36.0322 106.674 35.9521C106.513 35.8721 106.375 35.7515 106.274 35.6022C106.173 35.4529 106.113 35.2799 106.099 35.1003C106.086 34.9207 106.119 34.7407 106.195 34.5777C106.341 34.1661 106.605 33.8065 106.954 33.5436C107.303 33.2806 107.721 33.1258 108.157 33.0985C108.336 33.088 108.516 33.1245 108.677 33.2042C108.838 33.2839 108.976 33.4042 109.077 33.5532C109.178 33.7023 109.238 33.875 109.252 34.0544C109.266 34.2339 109.233 34.4138 109.157 34.5767V34.5777Z" fill="white"/>
<path fill-rule="evenodd" clip-rule="evenodd" d="M134.877 31.1543C132.987 31.1543 130.956 32.6891 130.342 34.5786C129.728 36.4682 130.762 38.0016 132.652 38.0016C134.542 38.0016 136.573 36.4692 137.187 34.5786C137.802 32.6881 136.768 31.1543 134.877 31.1543ZM135.246 34.5777C135.1 34.9896 134.836 35.3495 134.487 35.6127C134.138 35.876 133.72 36.0311 133.284 36.0588C133.104 36.0689 132.924 36.0322 132.763 35.9521C132.602 35.8721 132.464 35.7515 132.363 35.6022C132.262 35.4529 132.202 35.2799 132.188 35.1003C132.175 34.9207 132.208 34.7407 132.284 34.5777C132.43 34.1662 132.694 33.8066 133.043 33.5436C133.391 33.2807 133.81 33.1259 134.245 33.0985C134.425 33.0881 134.604 33.1245 134.766 33.2042C134.927 33.284 135.065 33.4042 135.166 33.5533C135.267 33.7023 135.327 33.875 135.341 34.0544C135.355 34.2338 135.323 34.4138 135.246 34.5767V34.5777Z" fill="white"/>
<path d="M134.198 26.1016C133.978 26.1016 133.77 26.1161 133.65 26.1243C133.545 26.2974 133.476 26.4904 133.448 26.6913C133.491 26.7687 133.811 26.847 134.431 26.847C134.648 26.8501 134.865 26.8382 135.081 26.8112C135.103 26.8088 135.125 26.8013 135.144 26.7893C135.164 26.7774 135.18 26.7612 135.192 26.7421C135.223 26.6856 135.24 26.6231 135.244 26.5591C135.248 26.495 135.237 26.4309 135.214 26.3713C135.107 26.1949 134.756 26.1016 134.198 26.1016Z" fill="white"/>
<path d="M138.409 33.1061L138.114 32.803L137.997 32.0924C138.035 31.5173 137.884 30.9455 137.568 30.4638C137.207 29.9649 136.665 29.6257 136.059 29.5178C135.101 29.3612 134.121 29.4138 133.185 29.672C132.681 29.8685 132.228 30.1756 131.859 30.5706C131.515 30.9227 131.197 31.3004 130.91 31.7004C131.955 30.7907 133.28 30.2669 134.664 30.2163C136.995 30.2163 138.302 32.0474 137.675 34.3464L140.501 33.7422L140.887 33.1061H138.409Z" fill="white"/>
<path fill-rule="evenodd" clip-rule="evenodd" d="M105.739 37.8711H96.5542L105.855 37.0585H98.3287L105.855 36.3528L100.274 36.2832L105.858 35.8438" fill="white"/>
<path fill-rule="evenodd" clip-rule="evenodd" d="M132.129 37.8706H122.945L132.246 37.058H124.719L132.246 36.3522L126.664 36.2826L132.246 35.8418" fill="white"/>
<path d="M98.3853 27.216V26.252H98.5129V26.6478H99.0139V26.252H99.1415V27.216H99.0139V26.7616H98.5129V27.216" fill="#231F20"/>
<path d="M99.3501 27.216V26.252H99.5421L99.7703 26.9345C99.7913 26.998 99.8067 27.0456 99.8163 27.0772C99.8273 27.0421 99.8443 26.9906 99.8676 26.9227L100.098 26.252H100.27V27.216H100.147V26.4091L99.867 27.216H99.7519L99.4731 26.3954V27.216" fill="#231F20"/>
<path d="M100.432 26.907L100.553 26.8965C100.558 26.9447 100.571 26.9843 100.592 27.0151C100.613 27.0461 100.645 27.0711 100.689 27.0902C100.733 27.1092 100.782 27.1188 100.837 27.1188C100.886 27.1188 100.929 27.1115 100.966 27.0971C101.003 27.0826 101.031 27.0627 101.049 27.0375C101.067 27.0123 101.077 26.9849 101.077 26.955C101.077 26.9248 101.068 26.8984 101.05 26.8758C101.033 26.8532 101.004 26.8343 100.963 26.8189C100.938 26.8088 100.88 26.7931 100.792 26.7719C100.703 26.7506 100.641 26.7306 100.606 26.7117C100.56 26.6876 100.525 26.6577 100.503 26.622C100.48 26.5863 100.469 26.5463 100.469 26.5019C100.469 26.4533 100.483 26.4078 100.51 26.3655C100.538 26.3233 100.578 26.2911 100.631 26.2692C100.684 26.2473 100.743 26.2363 100.808 26.2363C100.88 26.2363 100.943 26.2478 100.997 26.2709C101.052 26.2938 101.094 26.3277 101.123 26.3724C101.153 26.4171 101.168 26.4678 101.171 26.5243L101.048 26.5335C101.042 26.4726 101.019 26.4266 100.982 26.3954C100.944 26.3643 100.888 26.3487 100.814 26.3487C100.736 26.3487 100.68 26.3629 100.645 26.3912C100.61 26.4195 100.592 26.4535 100.592 26.4934C100.592 26.5281 100.604 26.5565 100.629 26.5789C100.654 26.6013 100.718 26.6241 100.822 26.6476C100.925 26.671 100.997 26.6916 101.035 26.7091C101.091 26.735 101.133 26.7677 101.159 26.8074C101.186 26.8471 101.2 26.8928 101.2 26.9445C101.2 26.9957 101.185 27.0441 101.155 27.0895C101.126 27.1348 101.084 27.1702 101.029 27.1954C100.974 27.2206 100.912 27.2332 100.843 27.2332C100.756 27.2332 100.683 27.2205 100.624 27.195C100.565 27.1696 100.519 27.1314 100.485 27.0803C100.452 27.0292 100.434 26.9714 100.432 26.907Z" fill="#231F20"/>
<path d="M101.396 27.216H101.523V26.252H101.396V27.216Z" fill="#231F20"/>
<path d="M102.215 26.7499C102.215 26.8661 102.246 26.9576 102.309 27.0245C102.371 27.0913 102.449 27.1247 102.544 27.1247C102.64 27.1247 102.719 27.091 102.781 27.0235C102.843 26.9559 102.874 26.8601 102.874 26.7361C102.874 26.6577 102.861 26.5892 102.834 26.5307C102.808 26.4721 102.769 26.4267 102.718 26.3945C102.667 26.3623 102.609 26.3462 102.546 26.3462C102.455 26.3462 102.378 26.3772 102.313 26.4392C102.247 26.5013 102.215 26.6048 102.215 26.7499ZM102.083 26.748C102.083 26.588 102.126 26.4627 102.212 26.3721C102.298 26.2817 102.409 26.2363 102.545 26.2363C102.634 26.2363 102.714 26.2576 102.786 26.3001C102.857 26.3427 102.912 26.402 102.949 26.478C102.987 26.5541 103.005 26.6404 103.005 26.7367C103.005 26.8346 102.986 26.922 102.946 26.9991C102.907 27.0763 102.851 27.1347 102.778 27.1744C102.706 27.214 102.628 27.2339 102.544 27.2339C102.454 27.2339 102.373 27.212 102.301 27.1682C102.23 27.1243 102.176 27.0645 102.139 26.9887C102.102 26.9128 102.083 26.8326 102.083 26.748Z" fill="#231F20"/>
<path d="M103.153 27.2161V26.5177H103.26V26.6236C103.287 26.5741 103.312 26.5415 103.335 26.5257C103.358 26.5099 103.383 26.502 103.411 26.502C103.451 26.502 103.491 26.5147 103.533 26.5401L103.492 26.6499C103.463 26.6329 103.434 26.6242 103.405 26.6242C103.379 26.6242 103.356 26.632 103.335 26.6476C103.315 26.6632 103.3 26.6848 103.291 26.7124C103.278 26.7545 103.272 26.8005 103.272 26.8505V27.2161" fill="#231F20"/>
<path d="M103.604 26.5176H103.722V27.216H103.604V26.5176ZM103.604 26.252H103.722V26.3881H103.604V26.252Z" fill="#231F20"/>
<path d="M103.979 26.8544C103.979 26.9461 103.997 27.013 104.033 27.055C104.07 27.0971 104.115 27.1181 104.17 27.1181C104.224 27.1181 104.27 27.0972 104.307 27.0553C104.343 27.0135 104.362 26.9478 104.362 26.8584C104.362 26.7729 104.343 26.7085 104.305 26.6651C104.267 26.6217 104.221 26.6 104.168 26.6C104.115 26.6 104.071 26.6213 104.034 26.664C103.997 26.7068 103.979 26.7703 103.979 26.8544ZM103.881 27.274L103.996 27.2911C104.001 27.3266 104.014 27.3524 104.036 27.3687C104.065 27.3906 104.105 27.4015 104.156 27.4015C104.211 27.4015 104.253 27.3906 104.283 27.3687C104.313 27.3468 104.333 27.316 104.343 27.2766C104.35 27.2525 104.353 27.2019 104.352 27.1247C104.3 27.1856 104.236 27.2161 104.159 27.2161C104.063 27.2161 103.988 27.1815 103.936 27.1122C103.883 27.043 103.857 26.9599 103.857 26.863C103.857 26.7964 103.869 26.7348 103.893 26.6785C103.917 26.6223 103.952 26.5787 103.998 26.548C104.044 26.5174 104.098 26.502 104.159 26.502C104.242 26.502 104.31 26.5353 104.363 26.6019V26.5177H104.472V27.1214C104.472 27.2301 104.461 27.3072 104.439 27.3526C104.417 27.3979 104.382 27.4338 104.334 27.4601C104.286 27.4864 104.227 27.4995 104.157 27.4995C104.074 27.4995 104.006 27.4808 103.955 27.4433C103.904 27.4058 103.879 27.3494 103.881 27.274Z" fill="#231F20"/>
<path d="M104.651 26.5176H104.77V27.216H104.651V26.5176ZM104.651 26.252H104.77V26.3881H104.651V26.252Z" fill="#231F20"/>
<path d="M104.95 27.2161V26.5177H105.057V26.6171C105.108 26.5404 105.182 26.502 105.279 26.502C105.321 26.502 105.36 26.5096 105.395 26.5247C105.43 26.5398 105.457 26.5596 105.474 26.5842C105.492 26.6087 105.504 26.6378 105.511 26.6717C105.515 26.6936 105.518 26.7319 105.518 26.7867V27.2161H105.399V26.7913C105.399 26.7431 105.395 26.7071 105.385 26.6832C105.376 26.6592 105.36 26.6402 105.336 26.626C105.313 26.6117 105.286 26.6046 105.254 26.6046C105.203 26.6046 105.16 26.6206 105.123 26.6525C105.087 26.6846 105.069 26.7453 105.069 26.8347V27.2161" fill="#231F20"/>
<path d="M106.145 26.8656C106.102 26.8832 106.038 26.898 105.952 26.9104C105.903 26.9173 105.869 26.9253 105.849 26.934C105.828 26.9428 105.813 26.9556 105.802 26.9725C105.791 26.9893 105.785 27.0081 105.785 27.0287C105.785 27.0603 105.797 27.0866 105.821 27.1076C105.845 27.1287 105.88 27.1392 105.926 27.1392C105.972 27.1392 106.012 27.1292 106.048 27.1093C106.083 27.0893 106.109 27.062 106.126 27.0274C106.139 27.0006 106.145 26.9612 106.145 26.909V26.8656ZM106.155 27.13C106.111 27.1672 106.069 27.1936 106.028 27.2089C105.988 27.2242 105.944 27.2319 105.898 27.2319C105.821 27.2319 105.762 27.2131 105.721 27.1757C105.68 27.1382 105.659 27.0903 105.659 27.0319C105.659 26.9977 105.667 26.9666 105.682 26.9383C105.698 26.91 105.718 26.8873 105.744 26.8702C105.769 26.8532 105.797 26.8402 105.829 26.8315C105.852 26.8253 105.887 26.8193 105.934 26.8137C106.03 26.8023 106.1 26.7887 106.145 26.7729C106.146 26.7567 106.146 26.7464 106.146 26.742C106.146 26.6938 106.135 26.6598 106.112 26.6401C106.082 26.6134 106.037 26.6 105.977 26.6C105.922 26.6 105.881 26.6097 105.854 26.6292C105.828 26.6487 105.808 26.6833 105.795 26.7328L105.679 26.7171C105.69 26.6675 105.707 26.6275 105.732 26.597C105.756 26.5665 105.79 26.5431 105.836 26.5267C105.882 26.5102 105.934 26.502 105.995 26.502C106.054 26.502 106.103 26.509 106.14 26.5231C106.177 26.5371 106.204 26.5547 106.222 26.576C106.24 26.5972 106.252 26.6241 106.259 26.6565C106.263 26.6766 106.265 26.7131 106.265 26.7657V26.9235C106.265 27.0336 106.267 27.1031 106.272 27.1323C106.277 27.1615 106.287 27.1894 106.302 27.2161H106.179C106.166 27.1916 106.158 27.1628 106.155 27.13Z" fill="#231F20"/>
<path d="M106.445 27.216H106.564V26.252H106.445V27.216Z" fill="#231F20"/>
<path d="M107.264 26.7103H107.513C107.595 26.7103 107.654 26.695 107.689 26.6643C107.723 26.6336 107.741 26.5904 107.741 26.5347C107.741 26.4944 107.73 26.4598 107.71 26.4311C107.69 26.4024 107.663 26.3835 107.629 26.3742C107.608 26.3686 107.568 26.3657 107.51 26.3657H107.264V26.7103ZM107.136 27.216V26.252H107.5C107.564 26.252 107.613 26.255 107.647 26.2612C107.694 26.2691 107.734 26.284 107.766 26.3062C107.798 26.3284 107.823 26.3594 107.843 26.3993C107.862 26.4392 107.872 26.4829 107.872 26.5308C107.872 26.6128 107.846 26.6821 107.794 26.7389C107.742 26.7957 107.647 26.8241 107.511 26.8241H107.264V27.216" fill="#231F20"/>
<path d="M108.466 26.8656C108.423 26.8832 108.359 26.898 108.273 26.9104C108.224 26.9173 108.189 26.9253 108.169 26.934C108.149 26.9428 108.134 26.9556 108.123 26.9725C108.112 26.9893 108.106 27.0081 108.106 27.0287C108.106 27.0603 108.118 27.0866 108.142 27.1076C108.166 27.1287 108.201 27.1392 108.247 27.1392C108.293 27.1392 108.333 27.1292 108.369 27.1093C108.404 27.0893 108.43 27.062 108.447 27.0274C108.46 27.0006 108.466 26.9612 108.466 26.909V26.8656ZM108.476 27.13C108.432 27.1672 108.39 27.1936 108.349 27.2089C108.309 27.2242 108.265 27.2319 108.219 27.2319C108.142 27.2319 108.083 27.2131 108.042 27.1757C108.001 27.1382 107.98 27.0903 107.98 27.0319C107.98 26.9977 107.988 26.9666 108.003 26.9383C108.019 26.91 108.039 26.8873 108.064 26.8702C108.09 26.8532 108.118 26.8402 108.15 26.8315C108.173 26.8253 108.208 26.8193 108.255 26.8137C108.35 26.8023 108.421 26.7887 108.466 26.7729C108.466 26.7567 108.467 26.7464 108.467 26.742C108.467 26.6938 108.455 26.6598 108.433 26.6401C108.403 26.6134 108.358 26.6 108.298 26.6C108.243 26.6 108.201 26.6097 108.175 26.6292C108.148 26.6487 108.129 26.6833 108.116 26.7328L108 26.7171C108.011 26.6675 108.028 26.6275 108.052 26.597C108.076 26.5665 108.111 26.5431 108.157 26.5267C108.202 26.5102 108.255 26.502 108.315 26.502C108.375 26.502 108.423 26.509 108.461 26.5231C108.498 26.5371 108.525 26.5547 108.543 26.576C108.56 26.5972 108.573 26.6241 108.58 26.6565C108.584 26.6766 108.586 26.7131 108.586 26.7657V26.9235C108.586 27.0336 108.588 27.1031 108.593 27.1323C108.598 27.1615 108.608 27.1894 108.623 27.2161H108.499C108.487 27.1916 108.479 27.1628 108.476 27.13Z" fill="#231F20"/>
<path d="M108.768 27.2161V26.5177H108.874V26.6236C108.901 26.5741 108.926 26.5415 108.949 26.5257C108.972 26.5099 108.998 26.502 109.025 26.502C109.065 26.502 109.106 26.5147 109.147 26.5401L109.106 26.6499C109.077 26.6329 109.048 26.6242 109.019 26.6242C108.993 26.6242 108.97 26.632 108.95 26.6476C108.929 26.6632 108.914 26.6848 108.906 26.7124C108.893 26.7545 108.886 26.8005 108.886 26.8505V27.2161" fill="#231F20"/>
<path d="M109.475 27.1118L109.492 27.2163C109.459 27.2233 109.429 27.2268 109.403 27.2268C109.36 27.2268 109.327 27.22 109.303 27.2065C109.279 27.1929 109.263 27.1751 109.253 27.1528C109.243 27.1307 109.239 27.0841 109.239 27.0131V26.6114H109.152V26.5193H109.239V26.3464L109.356 26.2754V26.5193H109.475V26.6114H109.356V27.0197C109.356 27.0535 109.358 27.0751 109.363 27.0848C109.367 27.0945 109.374 27.1022 109.383 27.1078C109.392 27.1135 109.406 27.1164 109.423 27.1164C109.437 27.1164 109.454 27.1149 109.475 27.1118Z" fill="#231F20"/>
<path d="M109.544 27.0075L109.661 26.9891C109.668 27.0361 109.686 27.072 109.716 27.097C109.746 27.1219 109.788 27.1345 109.842 27.1345C109.896 27.1345 109.936 27.1234 109.963 27.1013C109.989 27.0792 110.002 27.0531 110.002 27.0233C110.002 26.9966 109.991 26.9755 109.967 26.9602C109.951 26.9497 109.911 26.9364 109.846 26.9201C109.76 26.8982 109.699 26.8793 109.666 26.8632C109.632 26.8473 109.607 26.8251 109.59 26.7969C109.572 26.7686 109.564 26.7373 109.564 26.7031C109.564 26.672 109.571 26.6432 109.585 26.6166C109.599 26.5902 109.619 26.5681 109.643 26.5505C109.662 26.5369 109.687 26.5255 109.719 26.516C109.75 26.5067 109.784 26.502 109.821 26.502C109.876 26.502 109.924 26.5098 109.965 26.5256C110.007 26.5413 110.037 26.5627 110.057 26.5897C110.077 26.6166 110.09 26.6527 110.098 26.6979L109.982 26.7136C109.977 26.6777 109.961 26.6496 109.936 26.6295C109.911 26.6093 109.875 26.5992 109.829 26.5992C109.775 26.5992 109.736 26.6082 109.713 26.6262C109.69 26.6442 109.678 26.6652 109.678 26.6893C109.678 26.7047 109.683 26.7184 109.693 26.7308C109.702 26.7435 109.717 26.754 109.738 26.7623C109.75 26.7667 109.785 26.7767 109.842 26.7926C109.926 26.8149 109.985 26.8332 110.018 26.8474C110.051 26.8617 110.077 26.8824 110.096 26.9096C110.114 26.9367 110.124 26.9705 110.124 27.0109C110.124 27.0503 110.112 27.0874 110.089 27.1223C110.066 27.1571 110.033 27.1841 109.99 27.2032C109.946 27.2222 109.897 27.2318 109.842 27.2318C109.752 27.2318 109.683 27.213 109.635 27.1752C109.587 27.1375 109.557 27.0817 109.544 27.0075Z" fill="#231F20"/>
<path fill-rule="evenodd" clip-rule="evenodd" d="M107.166 23.0636C107.429 23.0491 107.692 23.0443 107.956 23.0482C108.053 23.0496 108.134 23.1277 108.132 23.2249L108.129 23.4175C108.127 23.5147 108.053 23.5596 107.956 23.5599L107.169 23.5629C107.068 23.5634 106.998 23.4978 106.999 23.3893L107.001 23.2249C107.003 23.1277 107.069 23.0688 107.166 23.0636Z" fill="white"/>
<path fill-rule="evenodd" clip-rule="evenodd" d="M98.7585 21.5H109.65C109.9 21.5 110.105 21.7046 110.105 21.9548V25.1141C110.105 25.3643 109.9 25.569 109.65 25.569H98.7585C98.5083 25.569 98.3037 25.3643 98.3037 25.1141V21.9548C98.3037 21.7046 98.5083 21.5 98.7585 21.5Z" fill="#222222"/>
<path fill-rule="evenodd" clip-rule="evenodd" d="M98.7553 21.6953H109.653C109.807 21.6953 109.932 21.8212 109.932 21.975V25.0913C109.932 25.2451 109.807 25.3709 109.653 25.3709H98.7553C98.6014 25.3709 98.4756 25.2451 98.4756 25.0913V21.975C98.4756 21.8212 98.6014 21.6953 98.7553 21.6953Z" fill="#FCFFFF"/>
<path fill-rule="evenodd" clip-rule="evenodd" d="M100.431 23.8198C100.718 23.8081 101.003 23.8086 101.288 23.8213C101.372 23.8356 101.418 23.8906 101.425 23.9888L101.444 24.3196C101.449 24.3451 101.466 24.3735 101.489 24.3761C101.735 24.3842 101.973 24.3803 102.219 24.3739C102.256 24.368 102.275 24.3458 102.274 24.3039C102.282 23.7963 102.285 23.2851 102.276 22.7673C102.271 22.7217 102.248 22.7023 102.2 22.7046C101.964 22.7004 101.728 22.6999 101.491 22.7039C101.463 22.7057 101.448 22.7296 101.444 22.7684L101.428 23.0658C101.411 23.1693 101.35 23.2153 101.257 23.2163C100.98 23.2266 100.707 23.2261 100.437 23.2179C100.347 23.1982 100.303 23.1456 100.289 23.0727L100.27 22.7561C100.265 22.7191 100.235 22.7023 100.178 22.7062L99.4967 22.707C99.46 22.7067 99.4422 22.7283 99.4444 22.7731L99.4414 24.3181L99.4875 24.3765L100.225 24.3749C100.252 24.3737 100.269 24.3553 100.273 24.315L100.293 23.9615C100.311 23.8789 100.356 23.8332 100.431 23.8198Z" fill="#222222"/>
<path fill-rule="evenodd" clip-rule="evenodd" d="M108.129 23.4176C108.128 23.5148 108.053 23.5597 107.956 23.56L107.169 23.563C107.068 23.5635 106.998 23.498 107 23.3894L107.002 23.225C107.003 23.1278 107.069 23.069 107.166 23.0637C107.43 23.0492 107.693 23.0444 107.956 23.0483C108.053 23.0498 108.135 23.1278 108.133 23.225L108.129 23.4176ZM108.991 23.1219C108.949 22.7704 108.656 22.617 108.183 22.6055C107.73 22.5686 107.278 22.577 106.826 22.6179C106.467 22.6453 106.235 22.7769 106.15 23.0297C106.132 23.462 106.138 23.8831 106.153 24.3155C106.154 24.3528 106.17 24.3794 106.202 24.3788C106.447 24.3839 106.693 24.3834 106.94 24.3773C106.957 24.3769 106.971 24.3603 106.978 24.3377L107.004 24.1361C107.024 24.0503 107.078 24.0112 107.153 24.0024C107.492 24.011 107.831 24.0152 108.171 24.0116C108.653 23.9869 108.929 23.8381 108.982 23.5552C108.991 23.4145 108.996 23.2709 108.991 23.1219Z" fill="#222222"/>
<path fill-rule="evenodd" clip-rule="evenodd" d="M103.317 22.6355C103.929 22.5638 104.537 22.5654 105.141 22.6331C105.459 22.6902 105.635 22.8263 105.694 23.1003C105.753 23.4104 105.741 23.7122 105.694 24.01C105.668 24.2299 105.484 24.3637 105.196 24.4402C104.524 24.5089 103.852 24.4984 103.18 24.4279C102.925 24.3649 102.772 24.2189 102.73 23.9838C102.689 23.6279 102.683 23.2729 102.763 23.0089C102.848 22.7786 103.046 22.6689 103.317 22.6355Z" fill="#222222"/>
<path fill-rule="evenodd" clip-rule="evenodd" d="M103.762 23.0752C104.071 23.0394 104.373 23.0509 104.671 23.0783C104.834 23.0931 104.908 23.1679 104.908 23.3133V23.6914C104.908 23.8182 104.845 23.9077 104.708 23.9264C104.42 23.966 104.001 23.9598 103.788 23.9433C103.575 23.9268 103.519 23.8362 103.519 23.6914V23.3133C103.519 23.1679 103.617 23.0918 103.762 23.0752Z" fill="white"/>
<path fill-rule="evenodd" clip-rule="evenodd" d="M112.358 26.4991H128.782V25.5488H112.358V26.4991Z" fill="#222222"/>
<path d="M116.436 26.1318V25.9844H116.775V26.2864C116.71 26.3305 116.653 26.3605 116.603 26.3765C116.553 26.3925 116.494 26.4005 116.426 26.4005C116.342 26.4005 116.273 26.386 116.22 26.3574C116.167 26.3287 116.126 26.2861 116.097 26.2294C116.068 26.1726 116.053 26.1076 116.053 26.0341C116.053 25.9569 116.069 25.8897 116.101 25.8325C116.133 25.7753 116.18 25.7318 116.241 25.7022C116.289 25.6794 116.354 25.668 116.435 25.668C116.513 25.668 116.572 25.6751 116.611 25.6892C116.649 25.7034 116.682 25.7254 116.707 25.7552C116.733 25.785 116.752 25.8228 116.765 25.8684L116.554 25.9061C116.545 25.8794 116.53 25.859 116.51 25.8448C116.489 25.8306 116.462 25.8235 116.43 25.8235C116.382 25.8235 116.344 25.8402 116.315 25.8735C116.287 25.9069 116.273 25.9596 116.273 26.0317C116.273 26.1084 116.287 26.1632 116.316 26.196C116.345 26.2289 116.385 26.2453 116.436 26.2453C116.461 26.2453 116.484 26.2418 116.506 26.2347C116.529 26.2276 116.554 26.2155 116.583 26.1985V26.1318" fill="white"/>
<path d="M116.904 25.6797H117.49V25.8309H117.123V25.9435H117.464V26.0879H117.123V26.2275H117.501V26.3879H116.904" fill="white"/>
<path d="M117.621 25.6797H117.825L118.092 26.0716V25.6797H118.298V26.3879H118.092L117.826 25.9991V26.3879H117.621" fill="white"/>
<path d="M118.904 25.6797H119.123V26.1016C119.123 26.1435 119.116 26.1831 119.103 26.2202C119.09 26.2574 119.07 26.2899 119.042 26.3177C119.014 26.3456 118.985 26.3651 118.954 26.3764C118.912 26.3921 118.861 26.4001 118.801 26.4001C118.766 26.4001 118.729 26.3976 118.688 26.3928C118.647 26.3879 118.613 26.3785 118.586 26.364C118.559 26.3498 118.533 26.3294 118.511 26.3029C118.488 26.2766 118.473 26.2494 118.464 26.2214C118.451 26.1764 118.444 26.1364 118.444 26.1016V25.6797H118.662V26.1117C118.662 26.1503 118.673 26.1805 118.694 26.2022C118.716 26.224 118.745 26.2348 118.784 26.2348C118.821 26.2348 118.851 26.2241 118.872 26.2027C118.894 26.1813 118.904 26.151 118.904 26.1117" fill="white"/>
<path d="M119.276 26.3879H119.496V25.6797H119.276V26.3879Z" fill="white"/>
<path d="M119.654 25.6797H119.859L120.125 26.0716V25.6797H120.332V26.3879H120.125L119.86 25.9991V26.3879H119.654" fill="white"/>
<path d="M120.477 25.6797H121.063V25.8309H120.696V25.9435H121.037V26.0879H120.696V26.2275H121.074V26.3879H120.477" fill="white"/>
<path d="M121.74 25.9816H121.794C121.836 25.9816 121.866 25.9743 121.883 25.9596C121.9 25.945 121.909 25.9263 121.909 25.9034C121.909 25.8811 121.901 25.8623 121.886 25.8469C121.871 25.8314 121.844 25.8236 121.803 25.8236H121.74V25.9816ZM121.521 25.6797H121.884C121.964 25.6797 122.023 25.6984 122.062 25.7362C122.102 25.7738 122.121 25.8275 122.121 25.8971C122.121 25.9686 122.1 26.0245 122.057 26.0648C122.014 26.1051 121.948 26.1252 121.86 26.1252H121.74V26.3879H121.521" fill="white"/>
<path d="M122.626 26.1179L122.548 25.8632L122.471 26.1179H122.626ZM122.672 26.2711H122.423L122.389 26.3879H122.165L122.431 25.6797H122.67L122.936 26.3879H122.707" fill="white"/>
<path d="M123.228 25.9667H123.32C123.33 25.9667 123.35 25.9634 123.378 25.957C123.393 25.954 123.405 25.9467 123.414 25.9348C123.423 25.9229 123.428 25.9091 123.428 25.8937C123.428 25.8708 123.42 25.8533 123.406 25.8411C123.391 25.8288 123.364 25.8227 123.324 25.8227H123.228V25.9667ZM123.008 26.3879V25.6797H123.373C123.441 25.6797 123.492 25.6855 123.528 25.697C123.564 25.7087 123.593 25.7302 123.615 25.7616C123.637 25.793 123.648 25.8312 123.648 25.8763C123.648 25.9156 123.639 25.9495 123.622 25.9781C123.606 26.0065 123.583 26.0297 123.553 26.0473C123.535 26.0586 123.509 26.068 123.476 26.0753C123.502 26.0841 123.521 26.0928 123.533 26.1015C123.541 26.1073 123.553 26.1197 123.568 26.1388C123.584 26.1577 123.594 26.1724 123.599 26.1827L123.705 26.3879H123.458L123.341 26.1715C123.326 26.1435 123.313 26.1253 123.301 26.1169C123.285 26.1059 123.267 26.1005 123.247 26.1005H123.228V26.3879" fill="white"/>
<path d="M123.726 25.6797H124.391V25.8546H124.168V26.3879H123.949V25.8546H123.726" fill="white"/>
<path d="M124.452 26.154L124.66 26.141C124.664 26.1748 124.674 26.2005 124.687 26.2182C124.71 26.247 124.742 26.2613 124.784 26.2613C124.815 26.2613 124.839 26.254 124.856 26.2392C124.873 26.2247 124.882 26.2076 124.882 26.1883C124.882 26.1699 124.874 26.1535 124.858 26.139C124.841 26.1245 124.804 26.1108 124.745 26.098C124.649 26.0763 124.581 26.0477 124.54 26.0119C124.499 25.9762 124.478 25.9306 124.478 25.8752C124.478 25.8388 124.489 25.8044 124.51 25.772C124.531 25.7397 124.563 25.7143 124.605 25.6958C124.647 25.6772 124.706 25.668 124.779 25.668C124.87 25.668 124.939 25.6848 124.986 25.7185C125.034 25.7521 125.062 25.8056 125.071 25.8791L124.865 25.8912C124.859 25.8593 124.848 25.8361 124.83 25.8216C124.813 25.8071 124.788 25.7998 124.758 25.7998C124.732 25.7998 124.713 25.8052 124.7 25.816C124.687 25.8269 124.681 25.8399 124.681 25.8554C124.681 25.8667 124.686 25.8768 124.697 25.8859C124.707 25.8951 124.732 25.9039 124.77 25.912C124.866 25.9325 124.934 25.9534 124.976 25.9745C125.017 25.9957 125.047 26.0218 125.066 26.0531C125.085 26.0843 125.094 26.1192 125.094 26.1579C125.094 26.2032 125.082 26.2451 125.057 26.2835C125.032 26.3218 124.996 26.3509 124.951 26.3707C124.906 26.3904 124.849 26.4005 124.781 26.4005C124.66 26.4005 124.577 26.3772 124.53 26.3309C124.484 26.2844 124.458 26.2255 124.452 26.154Z" fill="white"/>
<path fill-rule="evenodd" clip-rule="evenodd" d="M119.114 23.2677L119.113 23.1145C119.117 23.0883 119.156 23.0654 119.186 23.0654L119.52 23.0665L119.855 23.0654C119.884 23.0654 119.923 23.0883 119.927 23.1145L119.923 23.8858L119.927 24.6544C119.923 24.6812 119.884 24.7035 119.855 24.7049L119.52 24.703L119.186 24.7049C119.156 24.7035 119.117 24.6812 119.113 24.6544L119.115 24.4507C119.11 24.3993 119.104 24.3474 119.102 24.2894C119.1 24.2174 119.048 24.1638 118.966 24.1506C118.827 24.1506 118.685 24.1506 118.544 24.1486C118.402 24.1506 118.261 24.1506 118.122 24.1506C118.041 24.1638 117.989 24.2174 117.986 24.2894C117.984 24.335 117.981 24.375 117.977 24.4156V24.6544C117.974 24.6812 117.936 24.7035 117.907 24.7049L117.571 24.703L117.235 24.7049C117.207 24.7035 117.169 24.6812 117.165 24.6544L117.169 23.8858L117.165 23.1145C117.169 23.0883 117.207 23.0654 117.235 23.0654L117.571 23.0665L117.907 23.0654C117.936 23.0654 117.974 23.0883 117.977 23.1145L117.976 23.4083C117.988 23.5189 118.095 23.5807 118.209 23.5777H118.878C119.003 23.5828 119.12 23.5071 119.112 23.3776C119.113 23.3241 119.113 23.2954 119.114 23.2677ZM127.009 22.9453H127.7C127.832 22.9453 128.176 22.9734 128.335 23.0165C128.611 23.0907 128.836 23.2385 128.836 23.7856V24.1342C128.836 24.5412 128.622 24.6892 128.344 24.7499C128.183 24.7869 127.66 24.8162 127.609 24.8162H127.1C127.05 24.8162 126.528 24.7869 126.365 24.7499C126.088 24.6892 125.874 24.5412 125.874 24.1342V23.7856C125.874 23.2385 126.099 23.0907 126.374 23.0165C126.533 22.9734 126.878 22.9453 127.009 22.9453ZM127.267 23.4083H127.19C127.13 23.4083 126.935 23.4102 126.864 23.4309C126.738 23.4657 126.671 23.5146 126.671 23.7619V23.9518L126.672 23.9607V23.972C126.678 24.19 126.743 24.237 126.864 24.2707C126.935 24.2905 127.13 24.2919 127.19 24.2919H127.521C127.58 24.2919 127.773 24.2905 127.846 24.2707C127.967 24.237 128.032 24.19 128.038 23.972V23.7619C128.038 23.5146 127.972 23.4657 127.846 23.4309C127.773 23.4102 127.58 23.4083 127.521 23.4083H127.267ZM122.324 23.8858L122.32 23.1145C122.323 23.0883 122.362 23.0654 122.392 23.0654L122.731 23.0665L123.072 23.0654H123.073C123.152 23.0665 123.296 23.1322 123.469 23.2128C123.633 23.2909 123.82 23.3839 123.941 23.4606C124.253 23.6613 124.347 23.6777 124.391 23.459L124.39 23.1145C124.393 23.0883 124.431 23.0654 124.46 23.0654L124.793 23.0665L125.123 23.0654C125.152 23.0654 125.191 23.0883 125.193 23.1145L125.189 23.8858L125.193 24.6544C125.191 24.6812 125.152 24.7035 125.123 24.7049L124.767 24.703L124.413 24.7049C124.382 24.7035 124.343 24.6812 124.342 24.6544V24.6138C124.342 24.4587 124.051 24.2919 123.813 24.1396C123.445 23.9056 123.163 23.7583 123.14 24.0819V24.0651L123.142 24.6544C123.14 24.6812 123.1 24.7035 123.072 24.7049L122.731 24.703L122.392 24.7049C122.362 24.7035 122.323 24.6812 122.32 24.6544L122.324 23.8858ZM124.342 24.5931V24.6111V24.5931ZM120.707 23.8858L120.702 23.1145C120.706 23.0883 120.744 23.0654 120.773 23.0654L121.134 23.0665L121.496 23.0654C121.525 23.0654 121.564 23.0883 121.567 23.1145L121.563 23.8858L121.567 24.6544C121.564 24.6812 121.525 24.7035 121.496 24.7049L121.134 24.703L120.773 24.7049C120.744 24.7035 120.706 24.6812 120.702 24.6544" fill="#222222"/>
<path fill-rule="evenodd" clip-rule="evenodd" d="M114.427 23.8233H115.403C115.488 23.8233 115.571 23.824 115.657 23.824C115.776 23.8309 115.914 23.8207 116.011 23.8696C116.065 23.8964 116.084 23.9339 116.093 23.9932C116.093 23.9971 116.093 24.0015 116.094 24.0033C116.09 24.0888 116.038 24.1856 116 24.2647C115.945 24.3781 115.85 24.4788 115.755 24.57C115.59 24.727 115.269 24.9076 114.931 24.9957C114.885 25.0075 114.831 25.0268 114.78 25.0382C114.742 25.048 114.756 25.0663 114.78 25.0644C114.834 25.06 114.895 25.0467 114.942 25.0362C115.335 24.9407 115.606 24.7864 115.794 24.6357C115.905 24.5476 116.023 24.42 116.1 24.2875C116.153 24.1983 116.207 24.0508 116.214 23.9971C116.224 23.9259 116.234 23.8895 116.23 23.7777H116.229C116.222 23.5878 116.162 23.4364 116.053 23.2628C116.045 23.2504 116.034 23.2396 116.027 23.2272C116.023 23.2209 116.019 23.2124 116.023 23.2024L116.026 23.201C116.035 23.1971 116.051 23.2098 116.059 23.2184C116.149 23.3211 116.2 23.4041 116.248 23.5085C116.312 23.6471 116.327 23.7465 116.338 23.8671C116.339 23.8895 116.363 23.9028 116.366 23.8632C116.372 23.7341 116.344 23.5961 116.293 23.4746C116.233 23.3341 116.166 23.2559 116.081 23.1515C116.081 23.1515 116.08 23.1511 116.08 23.1496C115.978 23.0442 115.857 22.9423 115.733 22.8623C115.542 22.7406 115.346 22.6574 115.136 22.5986C115.05 22.5744 114.96 22.5562 114.869 22.5437C114.842 22.5399 114.811 22.5417 114.783 22.5399C114.763 22.5399 114.742 22.5606 114.783 22.571C114.838 22.5843 114.892 22.5973 114.948 22.6143C115.155 22.6762 115.36 22.7568 115.542 22.8766C115.695 22.9754 115.769 23.0248 115.949 23.2523C115.97 23.2855 116.018 23.3622 116.045 23.423C116.063 23.4661 116.088 23.5348 116.089 23.5858V23.5871C116.084 23.6366 116.072 23.6708 116.033 23.6935C115.951 23.741 115.88 23.7434 115.767 23.7484C115.689 23.7514 115.609 23.7521 115.53 23.7521C115.413 23.7553 115.3 23.7553 115.181 23.7578C114.93 23.7589 114.678 23.7589 114.426 23.7602H114.345C114.089 23.7589 113.831 23.7589 113.574 23.7578C113.455 23.7553 113.342 23.7553 113.225 23.7521C113.147 23.7521 113.067 23.7514 112.989 23.7484C112.877 23.7434 112.805 23.741 112.722 23.6935C112.684 23.6708 112.673 23.6366 112.667 23.5871V23.5858C112.668 23.5348 112.693 23.4661 112.711 23.423C112.737 23.3622 112.787 23.2855 112.807 23.2523C112.985 23.0248 113.061 22.9754 113.213 22.8766C113.396 22.7568 113.6 22.6762 113.808 22.6143C113.864 22.5973 113.917 22.5843 113.973 22.571C114.014 22.5606 113.993 22.5399 113.972 22.5399C113.945 22.5417 113.914 22.5399 113.886 22.5437C113.796 22.5562 113.706 22.5744 113.62 22.5986C113.409 22.6574 113.213 22.7406 113.023 22.8623C112.9 22.9423 112.777 23.0442 112.676 23.1496C112.675 23.1511 112.675 23.1511 112.674 23.1515C112.589 23.2559 112.524 23.3341 112.463 23.4746C112.411 23.5961 112.382 23.7341 112.39 23.8632C112.392 23.9028 112.416 23.8895 112.419 23.8671C112.428 23.7465 112.444 23.6471 112.508 23.5085C112.557 23.4041 112.606 23.3211 112.698 23.2184C112.705 23.2098 112.72 23.1971 112.729 23.201L112.733 23.2024C112.737 23.2124 112.733 23.2209 112.729 23.2272C112.722 23.2396 112.711 23.2504 112.703 23.2628C112.594 23.4364 112.535 23.5878 112.527 23.7777H112.525C112.523 23.8895 112.533 23.9259 112.542 23.9971C112.548 24.0508 112.604 24.1983 112.655 24.2875C112.732 24.42 112.85 24.5476 112.962 24.6357C113.151 24.7864 113.421 24.9407 113.814 25.0362C113.861 25.0467 113.923 25.06 113.976 25.0644C114 25.0663 114.015 25.048 113.976 25.0382C113.926 25.0268 113.87 25.0075 113.824 24.9957C113.488 24.9076 113.166 24.727 113.001 24.57C112.905 24.4788 112.811 24.3781 112.757 24.2647C112.717 24.1856 112.665 24.0888 112.662 24.0033C112.663 24.0015 112.663 23.9971 112.663 23.9932C112.673 23.9339 112.691 23.8964 112.744 23.8696C112.842 23.8207 112.98 23.8309 113.098 23.824C113.183 23.824 113.268 23.8233 113.353 23.8233H114.427ZM114.425 23.7351C114.594 23.7351 114.762 23.7365 114.927 23.7351C115.048 23.7335 115.169 23.7316 115.29 23.7282C115.398 23.7252 115.505 23.7208 115.613 23.7139C115.716 23.7065 115.856 23.691 115.88 23.6738C115.897 23.6629 115.89 23.6452 115.876 23.6341C115.854 23.6159 115.826 23.6016 115.799 23.5903C115.788 23.5858 115.771 23.5892 115.761 23.5965C115.74 23.614 115.728 23.6178 115.704 23.6247C115.603 23.6521 115.531 23.6629 115.398 23.6733C115.3 23.6807 115.199 23.6866 115.1 23.689C114.875 23.6959 114.739 23.6984 114.425 23.6984H114.342C114.02 23.6984 113.882 23.6959 113.655 23.689C113.557 23.6866 113.455 23.6807 113.359 23.6733C113.225 23.6629 113.153 23.6521 113.051 23.6247C113.027 23.6178 113.014 23.614 112.995 23.5965C112.985 23.5892 112.968 23.5858 112.956 23.5903C112.93 23.6016 112.901 23.6159 112.879 23.6341C112.864 23.6452 112.859 23.6629 112.877 23.6738C112.9 23.691 113.04 23.7065 113.142 23.7139C113.251 23.7208 113.359 23.7252 113.467 23.7282C113.587 23.7316 113.708 23.7335 113.828 23.7351C113.997 23.7365 114.169 23.7351 114.342 23.7365C114.37 23.7365 114.398 23.7365 114.425 23.7351ZM114.422 23.6452C114.767 23.6452 115.133 23.6509 115.472 23.6145C115.643 23.5965 115.691 23.5071 115.698 23.4479C115.72 23.2523 115.431 22.9967 115.279 22.9141C115.074 22.801 114.887 22.7129 114.642 22.6475C114.61 22.6397 114.59 22.603 114.59 22.5744C114.59 22.5486 114.628 22.5175 114.654 22.5125C114.73 22.4938 114.811 22.4987 114.892 22.5101C115.021 22.5286 115.145 22.5537 115.272 22.5917C115.438 22.6411 115.621 22.7273 115.779 22.8272C115.986 22.9567 116.164 23.1198 116.293 23.3253C116.384 23.4705 116.452 23.659 116.452 23.8178C116.452 24.0151 116.378 24.2084 116.267 24.3764C116.162 24.5368 116.019 24.6682 115.861 24.7825C115.718 24.8855 115.555 24.966 115.391 25.0307C115.248 25.0862 115.096 25.1199 114.944 25.1436C114.847 25.1588 114.753 25.1644 114.659 25.148C114.633 25.1444 114.59 25.1149 114.588 25.09C114.586 25.0605 114.606 25.0282 114.633 25.0199C114.714 24.9957 114.849 24.9531 114.947 24.9111C115.07 24.8576 115.197 24.8019 115.311 24.7276C115.423 24.6539 115.532 24.5669 115.607 24.4615C115.648 24.4052 115.691 24.3245 115.695 24.2663C115.697 24.2282 115.698 24.1826 115.68 24.152C115.606 24.0314 115.4 24.0372 115.246 24.0289C115.105 24.0229 114.968 24.022 114.829 24.017C114.687 24.0135 114.521 24.0121 114.378 24.0095C114.235 24.0121 114.069 24.0135 113.927 24.017C113.787 24.022 113.65 24.0229 113.509 24.0289C113.356 24.0372 113.151 24.0314 113.077 24.152C113.058 24.1826 113.058 24.2282 113.061 24.2663C113.065 24.3245 113.108 24.4052 113.148 24.4615C113.223 24.5669 113.333 24.6539 113.446 24.7276C113.558 24.8019 113.685 24.8576 113.809 24.9111C113.907 24.9531 114.04 24.9957 114.122 25.0199C114.149 25.0282 114.171 25.0605 114.167 25.09C114.165 25.1149 114.123 25.1444 114.098 25.148C114.001 25.1644 113.909 25.1588 113.812 25.1436C113.66 25.1199 113.509 25.0862 113.365 25.0307C113.2 24.966 113.039 24.8855 112.895 24.7825C112.737 24.6682 112.594 24.5368 112.488 24.3764C112.38 24.2084 112.303 24.0151 112.304 23.8178C112.304 23.659 112.371 23.4705 112.463 23.3253C112.591 23.1198 112.77 22.9567 112.976 22.8272C113.135 22.7273 113.317 22.6411 113.485 22.5917C113.611 22.5537 113.735 22.5286 113.864 22.5101C113.945 22.4987 114.025 22.4938 114.102 22.5125C114.128 22.5175 114.166 22.5486 114.166 22.5744C114.166 22.603 114.146 22.6397 114.115 22.6475C113.868 22.7129 113.684 22.801 113.477 22.9141C113.324 22.9967 113.034 23.2523 113.057 23.4479C113.065 23.5071 113.113 23.5965 113.285 23.6145C113.626 23.6509 113.996 23.6452 114.342 23.6452H114.422Z" fill="#222222"/>
</g>
<g clip-path="url(#clip1_2665_9682)">
<path fill-rule="evenodd" clip-rule="evenodd" d="M54.8023 14.457C60.0755 15.2277 63.8157 17.2049 64.2599 19.8872C64.9515 24.0629 57.3921 28.3663 47.376 29.4993C45.6404 29.697 43.8942 29.7879 42.1475 29.7716C43.829 29.6611 45.4995 29.4218 47.1444 29.0559C55.6659 27.1743 61.7702 22.4623 60.779 18.5312C60.2735 16.5263 58.0193 15.1119 54.8015 14.457" fill="white"/>
<path fill-rule="evenodd" clip-rule="evenodd" d="M44.9279 14.3579C46.0602 14.2299 47.1755 14.1481 48.2643 14.1094C46.6995 14.2297 45.1452 14.4608 43.6131 14.801C35.0921 16.6826 28.9874 21.3946 29.9785 25.3257C30.3109 26.4385 31.0617 27.3792 32.0731 27.9502C29.7853 26.9551 28.3119 25.5913 28.042 23.9701C27.3504 19.794 34.9095 15.4906 44.926 14.3579" fill="white"/>
<path d="M40.2415 19.0309V18.2855L39.7779 18.3215L39.4345 20.4951L39.9321 20.5797L39.7901 21.4768L37.5162 21.6538L37.658 20.7563L38.1884 20.5982L38.533 18.4175L38.0698 18.4535L37.8303 19.2174L36.9399 19.2865L37.2111 17.5694L41.4002 17.2441L41.1287 18.9613L40.2415 19.0309Z" fill="white"/>
<path d="M44.3237 20.7592C44.1514 20.8956 43.9794 21.0312 43.8076 21.1658L42.0873 21.2998L41.2969 20.628L41.7226 17.9362L42.7157 17.143L44.5024 17.0039L45.2659 17.6608L44.8403 20.3525C44.6677 20.4871 44.4955 20.6227 44.3237 20.7592ZM43.0765 18.1239L42.8943 18.2619L42.6015 20.115L42.7481 20.2387L43.4761 20.1822L43.6662 20.0324L43.959 18.1789L43.8163 18.0666L43.0765 18.1239Z" fill="white"/>
<path d="M48.8556 18.3625V17.6171L48.3925 17.6531L48.0482 19.8267L48.5462 19.9113L48.4044 20.8084L46.1303 20.9855L46.2722 20.088L46.8022 19.9299L47.1472 17.7495L46.684 17.7855L46.4442 18.5494L45.5537 18.6186L45.8252 16.9014L50.0124 16.5762L49.7409 18.2933L48.8556 18.3625Z" fill="white"/>
<path d="M53.9596 19.4905L53.8178 20.3876L51.6836 20.5536L51.8263 19.6506L52.1642 19.5071L52.114 19.1471L51.205 19.2174L51.0446 19.594L51.3212 19.6897L51.1786 20.5931L49.374 20.7334L49.5167 19.8304L49.9985 19.6754L50.9469 17.518L50.5747 17.4299L50.7185 16.5209L53.1486 16.332L53.4648 19.4122L53.9596 19.4905ZM51.4916 18.491L52.0271 18.4491L51.9034 17.5374L51.4916 18.491Z" fill="white"/>
<path d="M56.3887 17.094L56.0551 19.2036L57.0535 19.1246L57.2629 18.5508L58.1533 18.4816L57.9027 20.0679L54.1909 20.3565L54.3336 19.4534L54.8078 19.2989L55.1414 17.1893L54.7032 17.1063L54.847 16.1973L57.0601 16.0254L56.9166 16.9344L56.3887 17.094Z" fill="white"/>
<path d="M34.4062 24.1782L33.4182 24.2549L33.3728 23.8826L32.6397 23.9395L32.4863 24.0545L32.4524 24.2687L32.5544 24.3477L33.7925 24.4576L34.3347 24.8844L34.1695 25.9285L33.3178 26.6028L31.7303 26.7265L31.0786 26.17L31.1829 25.508L32.1709 25.4314L32.2165 25.8037L32.9863 25.7436L33.1353 25.625L33.1748 25.38L33.0886 25.301L31.856 25.1911L31.309 24.7291L31.4671 23.734L32.2785 23.0847L33.8925 22.959L34.5161 23.4937L34.4062 24.1782Z" fill="white"/>
<path d="M38.2685 23.5089L37.9243 25.686L37.1433 26.3077L35.4835 26.4369L34.8772 25.9232L35.2214 23.7456L34.8369 23.6725L34.9634 22.8757L36.6983 22.7406L36.5723 23.5377L36.313 23.6606L36.0395 25.3904L36.1632 25.4991L36.775 25.4513L36.9331 25.3213L37.2066 23.5915L36.9856 23.5057L37.1118 22.7086L38.8154 22.5762L38.6894 23.3733L38.2685 23.5089Z" fill="white"/>
<path d="M42.3412 24.0396L41.4765 24.7296L40.2581 24.8245L40.2008 25.1893L40.5849 25.262L40.4608 26.0488L38.5674 26.1959L38.6927 25.4055L39.1096 25.2699L39.4021 23.4207L39.018 23.3476L39.144 22.5505L41.8547 22.3398L42.519 22.9161L42.3412 24.0396ZM40.4948 23.3282L40.3999 23.9274L41.1541 23.8685L41.3097 23.7412L41.3687 23.3701L41.2501 23.2694L40.4948 23.3282Z" fill="white"/>
<path d="M46.1961 23.7404L45.3318 24.4304L44.1134 24.5249L44.0557 24.8897L44.4403 24.9628L44.3158 25.7492L42.4224 25.8967L42.5476 25.1062L42.965 24.9707L43.257 23.1215L42.8729 23.0484L42.999 22.2517L45.7096 22.041L46.374 22.6168L46.1961 23.7404ZM44.3498 23.029L44.2549 23.6282L45.0093 23.5697L45.1651 23.4424L45.2235 23.0713L45.1049 22.9705L44.3498 23.029Z" fill="white"/>
<path d="M49.0351 25.0616C48.8841 25.1812 48.7333 25.2998 48.5826 25.4173L47.0745 25.5358L46.3809 24.9466L46.754 22.5864L47.6234 21.8912L49.1896 21.7695L49.8591 22.3454L49.486 24.7051C49.3353 24.8226 49.185 24.9415 49.0351 25.0616ZM47.9415 22.7512L47.7835 22.8698L47.5266 24.4949L47.6554 24.6031L48.2933 24.5537L48.4604 24.4221L48.717 22.7975L48.592 22.6987L47.9415 22.7512Z" fill="white"/>
<path d="M49.8486 25.3193L49.9739 24.5289L50.3912 24.3934L50.6836 22.5442L50.2991 22.4711L50.4252 21.6739L53.1679 21.4609L53.786 21.9992L53.6137 23.088L53.0209 23.5662L53.322 24.1653L53.5935 24.1957L53.46 25.0399L52.4577 25.1189L51.8388 23.7622L51.5645 23.7835L51.4812 24.3096L51.8658 24.3827L51.7404 25.1731L49.8486 25.3193ZM51.6816 23.052L52.4324 22.9935L52.5755 22.8785L52.6372 22.4896L52.5273 22.3944L51.7764 22.4529L51.6816 23.052Z" fill="white"/>
<path d="M56.9273 22.6552V22.0016L56.5214 22.0332L56.2199 23.9401L56.6546 24.0144L56.5321 24.7992L54.5383 24.9542L54.6628 24.1677L55.1275 24.0282L55.4298 22.1166L55.024 22.1482L54.8138 22.82L54.0332 22.8805L54.2704 21.3752L57.9413 21.0898L57.7043 22.5952L56.9273 22.6552Z" fill="white"/>
<path fill-rule="evenodd" clip-rule="evenodd" d="M34.3066 14.62C38.9358 14.0492 43.6056 13.8784 48.2641 14.1094C42.5534 14.848 41.2192 15.0946 37.6853 16.7142C38.0848 15.9728 37.6177 16.5616 37.6719 15.84C36.7265 15.3847 35.484 15.0551 34.3066 14.62Z" fill="white"/>
<path fill-rule="evenodd" clip-rule="evenodd" d="M56.7325 29.7196C51.88 30.126 47.0027 30.1427 42.1475 29.7694C47.8345 28.7783 51.8398 27.5986 55.3998 26.0371C54.9884 26.7722 52.831 27.4927 52.7666 28.2131C53.704 28.6838 55.5623 29.2655 56.7325 29.7196Z" fill="white"/>
<path d="M50.2709 32.4121H50.9965L51.3234 33.4847C51.3369 33.5319 51.3472 33.5799 51.3541 33.6286C51.362 33.6819 51.368 33.7388 51.3724 33.8001C51.3783 33.7341 51.3858 33.6732 51.3949 33.6171C51.4024 33.5691 51.4129 33.5216 51.4261 33.4748L51.7529 32.4121H52.4675V34.1969H52.0205V32.9986C52.0205 32.9417 52.0205 32.8828 52.0252 32.8215C52.0299 32.7603 52.0339 32.6951 52.0406 32.6239C52.0288 32.6766 52.0165 32.728 52.0039 32.7781C51.9912 32.8281 51.9781 32.8744 51.9644 32.9168L51.5625 34.1953H51.1352L50.742 32.9381C50.7286 32.8947 50.7159 32.8461 50.7025 32.7931C50.689 32.7401 50.6783 32.6836 50.6673 32.6239C50.6732 32.7085 50.678 32.7848 50.6819 32.852C50.6859 32.9192 50.6874 32.9705 50.6874 33.0045V34.1953H50.2705L50.2709 32.4121Z" fill="white"/>
<path d="M52.8091 32.4121H53.2833V34.1969H52.8091V32.4121Z" fill="white"/>
<path d="M53.6296 32.4121H54.2224L54.7401 33.4823C54.7575 33.5183 54.7797 33.5685 54.8014 33.6325C54.8231 33.6965 54.8512 33.7748 54.8804 33.8696C54.8658 33.7815 54.8543 33.7009 54.8472 33.627C54.8401 33.5531 54.8365 33.4859 54.8365 33.425V32.4137H55.2662V34.1984H54.6734L54.1358 33.0895C54.1095 33.0355 54.0863 32.9799 54.0667 32.9231C54.0457 32.863 54.0271 32.7982 54.009 32.7279C54.0256 32.8342 54.0382 32.9318 54.0461 33.0211C54.054 33.1104 54.058 33.1887 54.058 33.2583V34.2H53.6284L53.6296 32.4121Z" fill="white"/>
<path d="M55.6079 32.4121H56.0821V34.1969H55.6079V32.4121Z" fill="white"/>
<path d="M56.4278 32.4121H57.1537L57.4802 33.4847C57.4937 33.5319 57.5041 33.5799 57.511 33.6286C57.5189 33.6819 57.5252 33.7388 57.5292 33.8001C57.5351 33.7341 57.5426 33.6732 57.5521 33.6171C57.5595 33.5691 57.5699 33.5215 57.5833 33.4748L57.9098 32.4121H58.6247V34.1969H58.1774V32.9986C58.1774 32.9417 58.1773 32.8828 58.1825 32.8215C58.1876 32.7603 58.1908 32.6951 58.1975 32.6239C58.1857 32.6777 58.1738 32.7291 58.1611 32.7781C58.1485 32.8271 58.135 32.8733 58.1216 32.9168L57.7173 34.1969H57.2905L56.8953 32.9397C56.8818 32.8962 56.8688 32.8476 56.8558 32.7947C56.8428 32.7417 56.8316 32.6852 56.8206 32.6255C56.8265 32.7101 56.8313 32.7864 56.8352 32.8536C56.8392 32.9207 56.8407 32.9721 56.8407 33.0061V34.1969H56.4238L56.4278 32.4121Z" fill="white"/>
<path d="M58.9663 32.4121H59.4426V34.1969H58.9663V32.4121Z" fill="white"/>
<path d="M59.759 32.4121H61.1142V32.7903L60.2159 33.8526H61.1142V34.1969H59.731V33.7989L60.6166 32.7563H59.7575L59.759 32.4121Z" fill="white"/>
<path d="M61.3579 32.4121H62.5976V32.7461H61.8341V33.1069H62.555V33.446H61.8341V33.8526H62.6245V34.1969H61.356L61.3579 32.4121Z" fill="white"/>
<path d="M54.7185 35.0498L54.6791 35.4229C54.5503 35.3449 54.4024 35.3039 54.2518 35.3044C54.1741 35.3004 54.0963 35.3122 54.0232 35.3389C53.95 35.3657 53.8831 35.4069 53.8262 35.4601C53.7236 35.5757 53.6671 35.7252 53.6677 35.8798C53.6683 36.0344 53.7258 36.1834 53.8293 36.2983C53.8869 36.3518 53.9547 36.3934 54.0285 36.4206C54.1023 36.4477 54.1808 36.4599 54.2594 36.4564C54.3319 36.4561 54.4041 36.4474 54.4747 36.4307C54.5511 36.4118 54.6253 36.3853 54.6964 36.3516L54.7253 36.7524C54.6412 36.7757 54.5557 36.7934 54.4692 36.8053C54.3834 36.8169 54.2969 36.8227 54.2104 36.8227C53.9353 36.8396 53.6643 36.7504 53.4531 36.5734C53.3606 36.4838 53.2885 36.3753 53.2416 36.2554C53.1948 36.1354 53.1743 36.0068 53.1816 35.8782C53.1756 35.753 53.1964 35.6279 53.2425 35.5114C53.2887 35.3949 53.3591 35.2895 53.4492 35.2024C53.6496 35.028 53.9099 34.9385 54.1751 34.9526C54.2726 34.9521 54.37 34.9603 54.466 34.9771C54.5527 34.9919 54.6373 35.0163 54.7185 35.0498Z" fill="white"/>
<path d="M55.8251 34.9527C55.9448 34.9459 56.0646 34.9645 56.1765 35.0072C56.2885 35.05 56.3902 35.116 56.4749 35.2009C56.6268 35.3979 56.7092 35.6397 56.7092 35.8885C56.7092 36.1373 56.6268 36.3791 56.4749 36.5762C56.295 36.7354 56.0631 36.8234 55.8228 36.8234C55.5826 36.8234 55.3506 36.7354 55.1707 36.5762C55.0183 36.3793 54.9355 36.1374 54.9355 35.8885C54.9355 35.6396 55.0183 35.3977 55.1707 35.2009C55.2561 35.1157 55.3586 35.0495 55.4714 35.0067C55.5842 34.964 55.7047 34.9455 55.8251 34.9527ZM55.8251 35.2993C55.7663 35.2983 55.7081 35.3122 55.6561 35.3399C55.6041 35.3675 55.56 35.408 55.528 35.4573C55.4472 35.584 55.408 35.7326 55.4158 35.8826C55.4081 36.0329 55.447 36.182 55.5272 36.3094C55.5596 36.3583 55.6037 36.3984 55.6554 36.4262C55.7071 36.4539 55.7649 36.4685 55.8236 36.4685C55.8823 36.4685 55.9401 36.4539 55.9918 36.4262C56.0435 36.3984 56.0876 36.3583 56.12 36.3094C56.1996 36.1815 56.238 36.0322 56.2303 35.8818C56.2378 35.7323 56.199 35.584 56.1192 35.4573C56.0877 35.4082 56.0441 35.3678 55.9926 35.3402C55.9412 35.3125 55.8836 35.2984 55.8251 35.2993Z" fill="white"/>
<path d="M58.1753 35.0172L58.1402 35.3851C58.0724 35.3558 58.0022 35.3326 57.9303 35.3155C57.8666 35.3004 57.8013 35.2926 57.7358 35.2922C57.6579 35.2882 57.5804 35.304 57.5102 35.3381C57.4862 35.3493 57.4658 35.3671 57.4515 35.3894C57.4371 35.4117 57.4294 35.4376 57.4292 35.4641C57.4288 35.4824 57.432 35.5006 57.4388 35.5175C57.4456 35.5345 57.4558 35.55 57.4687 35.5629C57.5041 35.5955 57.5468 35.6194 57.5932 35.6325L57.6722 35.6578C57.8155 35.6964 57.9526 35.7552 58.0793 35.8325C58.1379 35.8761 58.1851 35.9332 58.2172 35.9988C58.248 36.0677 58.2631 36.1424 58.2615 36.2178C58.2664 36.3032 58.2511 36.3885 58.2168 36.4668C58.1825 36.5451 58.13 36.6142 58.0639 36.6683C57.8972 36.7821 57.6973 36.8366 57.496 36.8232C57.4058 36.8231 57.3158 36.8169 57.2265 36.8047C57.136 36.7919 57.0464 36.773 56.9584 36.7481L56.998 36.3498C57.0768 36.3857 57.1588 36.4145 57.2427 36.4359C57.3159 36.4546 57.3911 36.4644 57.4667 36.4652C57.5444 36.4693 57.6216 36.451 57.6892 36.4126C57.7142 36.3981 57.7349 36.3772 57.7492 36.3521C57.7635 36.327 57.771 36.2985 57.7707 36.2696C57.7707 36.195 57.6835 36.1275 57.5094 36.0672C57.4675 36.053 57.4355 36.0415 57.4126 36.0332C57.276 35.9923 57.1511 35.9192 57.0486 35.8202C56.974 35.7348 56.9349 35.6241 56.9391 35.5108C56.935 35.4314 56.9504 35.3522 56.9839 35.2801C57.0175 35.208 57.0682 35.1453 57.1316 35.0974C57.2957 34.9909 57.4897 34.9403 57.6849 34.9531C57.7697 34.9529 57.8545 34.9582 57.9386 34.9689C58.0187 34.9788 58.0978 34.995 58.1753 35.0172Z" fill="white"/>
<path d="M58.3926 34.9961H59.7528V35.3518H59.3106V36.7797H58.8364V35.3518H58.3941L58.3926 34.9961Z" fill="white"/>
<path d="M29.8502 32.4121H30.5761L30.9029 33.4847C30.9162 33.532 30.9264 33.58 30.9334 33.6286C30.9417 33.6819 30.9476 33.7388 30.9519 33.8001C30.9575 33.7341 30.9654 33.6732 30.9745 33.6171C30.9819 33.569 30.9922 33.5215 31.0057 33.4748L31.3326 32.4121H32.0471V34.1969H31.5997V32.9986C31.5997 32.9417 31.5997 32.8828 31.6049 32.8215C31.61 32.7603 31.6132 32.6951 31.6199 32.6239C31.6081 32.6777 31.5962 32.7291 31.5835 32.7781C31.5709 32.8271 31.5574 32.8733 31.544 32.9168L31.142 34.1953H30.7153L30.3201 32.9381C30.3066 32.8947 30.2935 32.8461 30.2805 32.7931C30.2675 32.7401 30.256 32.6836 30.2454 32.6239C30.2509 32.7085 30.256 32.7848 30.2596 32.852C30.2631 32.9192 30.2655 32.9705 30.2655 33.0045V34.1953H29.8481L29.8502 32.4121Z" fill="white"/>
<path d="M32.8498 32.4121H33.4237L34.0995 34.1969H33.5908L33.4639 33.819H32.7768L32.6439 34.1969H32.1729L32.8498 32.4121ZM33.1264 32.8105L32.8956 33.48H33.3502L33.1264 32.8105Z" fill="white"/>
<path d="M34.097 32.4121H34.6448L34.9459 33.0413L35.2336 32.4121H35.7474L35.2123 33.2614L35.8115 34.1969H35.2511L34.9084 33.5049L34.559 34.1969H34.0366L34.6381 33.2614L34.097 32.4121Z" fill="white"/>
<path d="M35.9814 32.4121H36.4557V34.1969H35.9814V32.4121Z" fill="white"/>
<path d="M36.8001 32.4121H37.526L37.8525 33.4847C37.8661 33.5319 37.8764 33.5799 37.8833 33.6286C37.8912 33.6819 37.8975 33.7388 37.9015 33.8001C37.9074 33.7341 37.9149 33.6732 37.9244 33.6171C37.9318 33.569 37.9422 33.5215 37.9557 33.4748L38.2821 32.4121H38.997V34.1969H38.5504V32.9986C38.5504 32.9417 38.5504 32.8828 38.5555 32.8215C38.5607 32.7603 38.5639 32.6951 38.5706 32.6239C38.5591 32.6777 38.5469 32.7291 38.5342 32.7781C38.5216 32.8271 38.5081 32.8733 38.4947 32.9168L38.0928 34.1953H37.6659L37.2707 32.9381C37.2573 32.8947 37.2443 32.8461 37.2313 32.7931C37.2182 32.7401 37.2071 32.6836 37.1961 32.6239C37.202 32.7085 37.2072 32.7848 37.2107 32.852C37.2143 32.9192 37.2162 32.9705 37.2162 33.0045V34.1953H36.7993L36.8001 32.4121Z" fill="white"/>
<path d="M39.3384 32.4121H39.8146V34.1969H39.3384V32.4121Z" fill="white"/>
<path d="M40.1311 32.4121H41.4862V32.7903L40.5884 33.8526H41.4862V34.1969H40.103V33.7989L40.9887 32.7563H40.1311V32.4121Z" fill="white"/>
<path d="M41.7295 32.4121H42.9692V32.7461H42.2057V33.1069H42.9266V33.446H42.2057V33.8526H42.9961V34.1969H41.7275L41.7295 32.4121Z" fill="white"/>
<path d="M31.6644 34.9941H32.1386V36.0327C32.13 36.147 32.1536 36.2615 32.2066 36.3631C32.2308 36.3976 32.2636 36.4251 32.3017 36.443C32.3399 36.4609 32.382 36.4685 32.424 36.4651C32.4686 36.4677 32.5132 36.4591 32.5536 36.4399C32.594 36.4208 32.6289 36.3918 32.6552 36.3556C32.714 36.2586 32.7416 36.1459 32.7342 36.0327V34.9941H33.1875V36.0327C33.2044 36.2477 33.136 36.4607 32.997 36.6255C32.8341 36.7532 32.6331 36.8226 32.4261 36.8226C32.2191 36.8226 32.0182 36.7532 31.8553 36.6255C31.7165 36.4616 31.6477 36.2497 31.664 36.0355L31.6644 34.9941Z" fill="white"/>
<path d="M33.5269 34.9948H34.1651C34.3597 34.98 34.5538 35.0287 34.7184 35.1335C34.7803 35.1855 34.829 35.2516 34.8603 35.3263C34.8916 35.401 34.9046 35.482 34.8982 35.5627C34.9037 35.645 34.8906 35.7275 34.86 35.8041C34.8294 35.8808 34.7819 35.9495 34.7212 36.0053C34.5734 36.1153 34.3912 36.169 34.2074 36.1567H34.0039V36.7795H33.5296L33.5269 34.9948ZM34.0011 35.3165V35.835H34.1272C34.2043 35.8406 34.2809 35.8183 34.3429 35.7721C34.3681 35.7486 34.3878 35.7197 34.4003 35.6875C34.4129 35.6554 34.4182 35.6208 34.4157 35.5864C34.4184 35.5496 34.4134 35.5126 34.4008 35.4779C34.3883 35.4431 34.3685 35.4114 34.3429 35.3848C34.2833 35.3353 34.2068 35.3108 34.1295 35.3165H34.0011Z" fill="white"/>
<path d="M34.9888 34.9941H36.3494V35.3498H35.9072V36.7777H35.431V35.3498H34.9888V34.9941Z" fill="white"/>
<path d="M36.5527 34.9941H37.027V36.7789H36.5527V34.9941Z" fill="white"/>
<path d="M37.373 34.9941H38.0986L38.4255 36.0667C38.4391 36.1139 38.4493 36.162 38.4563 36.2106C38.4642 36.2639 38.4702 36.3208 38.4745 36.3821C38.4803 36.3162 38.4878 36.2554 38.497 36.1995C38.5045 36.1514 38.5149 36.1037 38.5282 36.0568L38.855 34.9941H39.5696V36.7789H39.1226V35.5806C39.1226 35.5237 39.1226 35.4648 39.1273 35.4036C39.1321 35.3423 39.136 35.2771 39.1428 35.206C39.1309 35.2586 39.1186 35.31 39.106 35.3601C39.0934 35.4101 39.0801 35.4564 39.0664 35.4988L38.6646 36.7773H38.2373L37.8421 35.5202C37.8287 35.4767 37.816 35.4281 37.8026 35.3751C37.7891 35.3222 37.7785 35.2656 37.7675 35.206C37.7734 35.2905 37.7781 35.3668 37.782 35.434C37.786 35.5012 37.7876 35.5525 37.7876 35.5865V36.7773H37.3706L37.373 34.9941Z" fill="white"/>
<path d="M39.9116 34.9941H41.1514V35.3281H40.3874V35.6889H41.1086V36.028H40.3874V36.4346H41.1802V36.7789H39.9116V34.9941Z" fill="white"/>
<path d="M45.2471 34.4007H46.1133V33.5312H46.7026V34.4007H47.5748V34.99H46.7026V35.8547H46.1133V34.99H45.2471V34.4007Z" fill="white"/>
<path d="M64.2651 31.2969H28.0391V31.5411H64.2651V31.2969Z" fill="white"/>
<path d="M64.2651 37.7559H28.0391V38.0001H64.2651V37.7559Z" fill="white"/>
</g>
<defs>
<filter id="filter0_d_2665_9682" x="0" y="0" width="176" height="56" filterUnits="userSpaceOnUse" color-interpolation-filters="sRGB">
<feFlood flood-opacity="0" result="BackgroundImageFix"/>
<feColorMatrix in="SourceAlpha" type="matrix" values="0 0 0 0 0 0 0 0 0 0 0 0 0 0 0 0 0 0 127 0" result="hardAlpha"/>
<feOffset dy="2"/>
<feGaussianBlur stdDeviation="4"/>
<feComposite in2="hardAlpha" operator="out"/>
<feColorMatrix type="matrix" values="0 0 0 0 0.0666667 0 0 0 0 0.0666667 0 0 0 0 0.0666667 0 0 0 0.2 0"/>
<feBlend mode="normal" in2="BackgroundImageFix" result="effect1_dropShadow_2665_9682"/>
<feBlend mode="normal" in="SourceGraphic" in2="effect1_dropShadow_2665_9682" result="shape"/>
</filter>
<clipPath id="clip0_2665_9682">
<rect width="76.5463" height="24" fill="white" transform="translate(72.3037 14)"/>
</clipPath>
<clipPath id="clip1_2665_9682">
<rect width="36.3039" height="24" fill="white" transform="translate(28 14)"/>
</clipPath>
</defs>
</svg>
