<svg width="176" height="56" viewBox="0 0 176 56" fill="none" xmlns="http://www.w3.org/2000/svg">
<g filter="url(#filter0_d_2665_9408)">
<rect x="8" y="6" width="160" height="40" rx="8" fill="#222222"/>
</g>
<g clip-path="url(#clip0_2665_9408)">
<path fill-rule="evenodd" clip-rule="evenodd" d="M109.967 32.4316L108.476 37.9996H145.151L146.643 32.4316H109.967ZM116.407 36.9175L116.324 36.4179H114.939L114.585 36.9175H113.027L113.155 35.3578L111.787 37.0429H111.734L111.206 35.3333L110.483 36.9175H109.756L111.409 33.3904H111.468L112.161 35.6145L113.972 33.3904H114.033L113.805 36.8635L116.449 33.3954H116.498L117.258 36.9175H116.407ZM117.527 36.9175L118.442 33.5018H119.257L118.341 36.9175H117.527ZM122.059 37.0464H121.988L120.389 35.055L119.89 36.9175H119.135L120.081 33.3904H120.159L121.751 35.3837L122.255 33.5018H123.004L122.059 37.0464ZM124.386 36.9175H123.57L124.295 34.2157H123.208L123.399 33.5018H126.381L126.191 34.2157H125.11L124.386 36.9175ZM128.172 36.1966L127.98 36.9175H125.857L126.773 33.5018H128.876L128.688 34.2062H127.375L127.209 34.8227H128.333L128.146 35.5221H127.021L126.841 36.1961L128.172 36.1966ZM131.451 37.0459L129.853 35.0545L129.353 36.917H128.604L129.549 33.3899H129.626L131.22 35.3832L131.724 33.5013H132.473L131.524 37.0459H131.451ZM134.449 36.917L134.366 36.4174H132.981L132.626 36.917H131.806L134.49 33.3948H134.54L135.299 36.917H134.449ZM138.48 37.0459H138.409L136.81 35.0545L136.311 36.917H135.561L136.506 33.3899H136.584L138.177 35.3832L138.681 33.5013H139.43L138.48 37.0459ZM142.086 34.2437C141.949 34.1675 141.794 34.1291 141.637 34.1323C141.346 34.133 141.066 34.2396 140.848 34.432C140.611 34.6315 140.442 34.9004 140.366 35.2009C140.321 35.3248 140.304 35.457 140.316 35.5881C140.328 35.7193 140.369 35.8462 140.436 35.9598C140.508 36.059 140.604 36.138 140.715 36.1891C140.826 36.2403 140.948 36.2618 141.07 36.2515C141.257 36.248 141.442 36.2113 141.616 36.1431C141.828 36.0591 142.029 35.9499 142.216 35.8179L141.922 36.7241C141.752 36.8216 141.57 36.8977 141.381 36.9505C141.199 37.0023 141.01 37.0284 140.82 37.0279C140.631 37.0302 140.444 36.9987 140.267 36.935C140.104 36.8741 139.955 36.7792 139.831 36.6567C139.658 36.484 139.541 36.2633 139.495 36.0232C139.446 35.7527 139.461 35.4743 139.538 35.2104C139.605 34.9575 139.714 34.7172 139.859 34.499C140.005 34.2763 140.185 34.078 140.393 33.9114C140.598 33.7459 140.828 33.6141 141.074 33.5208C141.306 33.4332 141.552 33.3879 141.8 33.3869C141.979 33.3849 142.158 33.4122 142.328 33.4678C142.487 33.5197 142.634 33.6013 142.762 33.7081L142.441 34.5829C142.35 34.4441 142.228 34.3282 142.084 34.2442L142.086 34.2437ZM143.973 34.2057L143.808 34.8222H144.931L144.744 35.5216H143.615L143.434 36.1956H144.766L144.573 36.9165H142.45L143.366 33.5008H145.469L145.281 34.2052L143.973 34.2057Z" fill="white"/>
<path fill-rule="evenodd" clip-rule="evenodd" d="M133.374 35.8328H134.273L134.117 34.7617L133.374 35.8328Z" fill="white"/>
<path fill-rule="evenodd" clip-rule="evenodd" d="M115.333 35.8328H116.232L116.076 34.7617L115.333 35.8328Z" fill="white"/>
<path d="M139.557 28.0815C140.09 28.4924 140.674 28.8338 141.294 29.0977C141.782 29.2918 142.304 29.3911 142.83 29.3905C143.31 29.4036 143.784 29.2825 144.199 29.0408C144.373 28.9467 144.526 28.8191 144.651 28.6653C144.775 28.5115 144.867 28.3347 144.923 28.145C145.063 27.6204 144.65 27.0299 143.684 26.3734C143.528 26.268 143.407 26.1876 143.324 26.1266L142.587 25.6415C141.957 25.258 141.456 24.6942 141.149 24.0228C140.9 23.3683 140.878 22.6495 141.086 21.981C141.371 20.9373 142.029 20.0342 142.935 19.4431C143.899 18.7805 145.045 18.4348 146.214 18.4539C146.696 18.4575 147.176 18.5111 147.647 18.6138C148.204 18.7365 148.75 18.9019 149.282 19.1083L148.477 22.1134C148.009 21.7538 147.5 21.4518 146.959 21.2141C146.541 21.0212 146.089 20.9134 145.629 20.8969C145.246 20.885 144.868 20.9813 144.538 21.1747C144.255 21.3422 144.049 21.6141 143.964 21.932C143.902 22.1401 143.919 22.364 144.014 22.5595C144.135 22.7805 144.316 22.9633 144.535 23.0876L145.815 23.9204C146.885 24.6145 147.558 25.2573 147.834 25.8489C148.112 26.5137 148.143 27.2565 147.921 27.9422C147.604 29.1666 146.864 30.2396 145.833 30.9717C144.756 31.7448 143.458 32.148 142.133 32.1208C141.624 32.1174 141.116 32.0672 140.616 31.9709C140.032 31.8557 139.457 31.6991 138.895 31.5023L139.557 28.0815ZM130.532 28.0815C131.065 28.492 131.649 28.8335 132.268 29.0977C132.757 29.2916 133.278 29.3909 133.804 29.3905C134.285 29.4036 134.759 29.2825 135.174 29.0408C135.348 28.9468 135.502 28.8192 135.626 28.6655C135.75 28.5117 135.842 28.3348 135.897 28.145C136.038 27.6204 135.627 27.0289 134.658 26.3734C134.502 26.268 134.383 26.1876 134.299 26.1266L133.563 25.6415C132.932 25.2585 132.43 24.6945 132.123 24.0228C131.875 23.3683 131.853 22.6496 132.061 21.981C132.346 20.9375 133.003 20.0346 133.909 19.4431C134.873 18.7806 136.019 18.4349 137.188 18.4539C137.67 18.4574 138.15 18.511 138.621 18.6138C139.178 18.7364 139.725 18.9017 140.257 19.1083L139.452 22.1134C138.984 21.7537 138.475 21.4517 137.935 21.2141C137.517 21.0212 137.064 20.9134 136.604 20.8969C136.222 20.8848 135.843 20.9811 135.513 21.1747C135.23 21.3422 135.024 21.6142 134.939 21.932C134.876 22.14 134.894 22.3641 134.989 22.5595C135.11 22.7806 135.291 22.9635 135.511 23.0876L136.791 23.9204C137.859 24.6145 138.532 25.2573 138.808 25.8489C139.087 26.5136 139.118 27.2563 138.896 27.9422C138.579 29.1666 137.839 30.2395 136.808 30.9717C135.732 31.7442 134.435 32.1474 133.111 32.1208C132.601 32.1174 132.093 32.0672 131.593 31.9709C131.009 31.8559 130.434 31.6993 129.872 31.5023L130.532 28.0815ZM120.79 31.7041L124.224 18.888H132.118L131.41 21.5304H126.483L125.861 23.848H130.08L129.376 26.4724H125.158L124.479 29.0078H129.475L128.752 31.7056L120.79 31.7041ZM110.201 31.7041L113.64 18.888H116.934C117.739 18.8642 118.544 18.9339 119.332 19.0958C119.834 19.2127 120.3 19.451 120.688 19.7898C121.07 20.1227 121.339 20.5654 121.459 21.0573C121.586 21.5832 121.573 22.1332 121.423 22.6529C121.214 23.4485 120.807 24.1783 120.24 24.7742C119.636 25.4021 118.901 25.8884 118.087 26.1981L120.519 31.7041H117.028L114.954 26.6747H114.519L113.17 31.7041H110.201ZM116.484 21.2196H115.98L115.028 24.7742H115.673C116.336 24.8015 116.993 24.6393 117.567 24.3066C118.052 24.0009 118.4 23.5185 118.537 22.9612C118.703 22.3477 118.625 21.9041 118.302 21.6303C117.979 21.3565 117.374 21.2196 116.488 21.2196H116.484ZM100.452 31.7041L103.887 18.888H107.184C107.975 18.8647 108.767 18.9385 109.54 19.1078C110.056 19.2345 110.531 19.4897 110.922 19.8497C111.303 20.1962 111.569 20.6513 111.683 21.1537C111.805 21.7022 111.788 22.2726 111.633 22.8128C111.306 24.0796 110.519 25.179 109.425 25.8963C108.219 26.6802 106.803 27.0781 105.366 27.0369C105.203 27.0369 105.079 27.0369 104.996 27.0344C104.913 27.0319 104.838 27.0259 104.77 27.0184L103.515 31.7041H100.452ZM106.732 21.2381H106.317L105.4 24.6598H105.955C106.613 24.6886 107.267 24.534 107.843 24.2132C108.079 24.0721 108.285 23.8859 108.448 23.6653C108.612 23.4446 108.73 23.1938 108.797 22.9272C108.889 22.7128 108.914 22.4752 108.869 22.2462C108.823 22.0171 108.708 21.8075 108.54 21.6453C107.998 21.3188 107.364 21.1761 106.734 21.2381H106.732ZM87.0371 31.7041L93.4179 25.076L90.5357 18.888H94.2733L95.9328 22.5475L99.4001 18.888H102.731L97.016 24.8102L100.216 31.7046H96.454L94.5055 27.3581L90.3874 31.7046L87.0371 31.7041ZM81.9153 20.8629H73.0129L81.6559 21.8446L81.2064 23.5238H84.1754L84.709 21.5299H89.6365L90.3449 18.8875H70.3052L82.1835 19.8772H72.0633L81.9193 20.8629H81.9153ZM79.0106 31.7041L80.5924 25.8014L73.9722 24.8272H80.8536L73.02 23.848H88.303L87.5996 26.4724H83.3816L82.7026 29.0078H87.6985L86.9761 31.7056L79.0106 31.7041Z" fill="white"/>
<path fill-rule="evenodd" clip-rule="evenodd" d="M90.0225 15.9264L90.0145 14.3472C90.021 14.2928 90.1009 14.2473 90.1599 14.2448L90.9018 14.2473L91.6427 14.2448C91.7026 14.2448 91.7826 14.2948 91.7881 14.3472L91.7801 15.9264L91.7881 17.5066C91.7826 17.5626 91.7026 17.6066 91.6427 17.6066L90.9018 17.6035L90.1599 17.6066C90.1009 17.6066 90.021 17.5606 90.0145 17.5066L90.0225 15.9264ZM93.3433 15.9264L93.3348 14.3472C93.3408 14.2918 93.4207 14.2473 93.4807 14.2448L94.1802 14.2478L94.8796 14.2448H94.8841C95.1684 14.3028 95.4419 14.4051 95.6944 14.548C96.0268 14.6983 96.3501 14.8677 96.6626 15.0556C97.3031 15.4678 97.497 15.5023 97.5884 15.0526L97.5849 14.3467C97.5909 14.2912 97.6698 14.2468 97.7303 14.2443L98.4087 14.2473L99.0882 14.2443C99.1471 14.2443 99.2271 14.2912 99.2331 14.3467L99.2255 15.9259L99.2331 17.5062C99.2271 17.5621 99.1471 17.606 99.0882 17.606L98.3588 17.6031L97.6304 17.606C97.5709 17.606 97.491 17.5601 97.4855 17.5062V17.4207C97.4855 17.102 96.8904 16.7612 96.4008 16.4495C95.6464 15.9684 95.0669 15.6656 95.0185 16.3321V16.2966L95.0245 17.5062C95.0185 17.5621 94.939 17.606 94.8796 17.606L94.1802 17.6031L93.4807 17.606C93.4207 17.606 93.3408 17.5601 93.3348 17.5062L93.3433 15.9264ZM103.485 14.9512H103.325C103.101 14.946 102.878 14.9607 102.657 14.9952C102.399 15.0681 102.264 15.1675 102.264 15.6736V16.0418V16.0618V16.0808V16.0853V16.0918V16.0963C102.276 16.5459 102.41 16.6398 102.656 16.7093C102.877 16.7435 103.101 16.7581 103.324 16.7528H104.005C104.229 16.7582 104.452 16.7436 104.674 16.7093C104.92 16.6398 105.054 16.5459 105.066 16.0963C105.066 16.0863 105.066 16.0763 105.066 16.0668V16.0588V16.0508V16.0438V15.6731C105.066 15.1671 104.931 15.0676 104.673 14.9947C104.452 14.9602 104.228 14.9455 104.004 14.9507H103.484L103.485 14.9512ZM102.957 14.002H104.374C104.812 14.0098 105.249 14.0582 105.678 14.1464C106.243 14.2992 106.704 14.6 106.704 15.7251V16.4385C106.721 16.5879 106.709 16.7392 106.668 16.8838C106.626 17.0284 106.556 17.1634 106.463 17.2809C106.369 17.3984 106.253 17.4963 106.121 17.5687C105.989 17.6411 105.844 17.6868 105.695 17.703C105.195 17.7747 104.692 17.8199 104.188 17.8384H103.143C102.639 17.8199 102.135 17.7747 101.636 17.703C101.486 17.6867 101.341 17.641 101.21 17.5686C101.078 17.4961 100.962 17.3983 100.868 17.2807C100.774 17.1632 100.705 17.0283 100.663 16.8837C100.622 16.7392 100.609 16.5879 100.627 16.4385V15.7236C100.627 14.5985 101.088 14.2977 101.653 14.1449C102.082 14.0565 102.518 14.0081 102.956 14L102.957 14.002ZM86.7576 14.6614V14.3492C86.7626 14.2937 86.8431 14.2493 86.9025 14.2468L87.5904 14.2498L88.2794 14.2468C88.3389 14.2468 88.4189 14.2937 88.4243 14.3492L88.4163 15.9284L88.4243 17.5087C88.4189 17.5646 88.3389 17.6085 88.2794 17.6085L87.5904 17.6056L86.9025 17.6085C86.8431 17.6085 86.7626 17.5626 86.7576 17.5087V17.089C86.7476 16.9831 86.7357 16.8792 86.7322 16.7572C86.727 16.6843 86.6959 16.6155 86.6445 16.5634C86.5932 16.5113 86.5249 16.4792 86.452 16.473C86.1662 16.473 85.8763 16.473 85.5861 16.4705C85.2958 16.468 85.0061 16.473 84.7203 16.473C84.6474 16.479 84.5791 16.5111 84.5279 16.5633C84.4766 16.6154 84.4458 16.6843 84.441 16.7572C84.438 16.8512 84.4306 16.9351 84.4221 17.018V17.5087C84.4166 17.5646 84.3367 17.6085 84.2767 17.6085L83.5888 17.6056L82.9008 17.6085C82.8408 17.6085 82.7609 17.5626 82.7549 17.5087L82.7629 15.9284L82.7549 14.3492C82.7609 14.2937 82.8408 14.2493 82.9008 14.2468L83.5888 14.2498L84.2767 14.2468C84.3367 14.2468 84.4166 14.2937 84.4221 14.3492L84.4191 14.9527C84.4396 15.0605 84.5004 15.1564 84.5893 15.2208C84.6782 15.2851 84.7884 15.3131 84.8972 15.2989H86.2711C86.3302 15.3078 86.3906 15.3039 86.448 15.2874C86.5055 15.2709 86.5588 15.2422 86.6042 15.2033C86.6496 15.1644 86.686 15.1162 86.7111 15.0619C86.7363 15.0076 86.7494 14.9486 86.7497 14.8888C86.7542 14.7754 86.7561 14.7179 86.7571 14.6595L86.7576 14.6614Z" fill="white"/>
</g>
<g clip-path="url(#clip1_2665_9408)">
<path fill-rule="evenodd" clip-rule="evenodd" d="M52.8023 14.457C58.0755 15.2277 61.8157 17.2049 62.2599 19.8872C62.9515 24.0629 55.3921 28.3663 45.376 29.4993C43.6404 29.697 41.8942 29.7879 40.1475 29.7716C41.829 29.6611 43.4995 29.4218 45.1444 29.0559C53.6659 27.1743 59.7702 22.4623 58.779 18.5312C58.2735 16.5263 56.0193 15.1119 52.8015 14.457" fill="white"/>
<path fill-rule="evenodd" clip-rule="evenodd" d="M42.9279 14.3579C44.0602 14.2299 45.1755 14.1481 46.2643 14.1094C44.6995 14.2297 43.1452 14.4608 41.6131 14.801C33.0921 16.6826 26.9874 21.3946 27.9785 25.3257C28.3109 26.4385 29.0617 27.3792 30.0731 27.9502C27.7853 26.9551 26.3119 25.5913 26.042 23.9701C25.3504 19.794 32.9095 15.4906 42.926 14.3579" fill="white"/>
<path d="M38.2415 19.0309V18.2855L37.7779 18.3215L37.4345 20.4951L37.9321 20.5797L37.7901 21.4768L35.5162 21.6538L35.658 20.7563L36.1884 20.5982L36.533 18.4175L36.0698 18.4535L35.8303 19.2174L34.9399 19.2865L35.2111 17.5694L39.4002 17.2441L39.1287 18.9613L38.2415 19.0309Z" fill="white"/>
<path d="M42.3237 20.7592C42.1514 20.8956 41.9794 21.0312 41.8076 21.1658L40.0873 21.2998L39.2969 20.628L39.7226 17.9362L40.7157 17.143L42.5024 17.0039L43.2659 17.6608L42.8403 20.3525C42.6677 20.4871 42.4955 20.6227 42.3237 20.7592ZM41.0765 18.1239L40.8943 18.2619L40.6015 20.115L40.7481 20.2387L41.4761 20.1822L41.6662 20.0324L41.959 18.1789L41.8163 18.0666L41.0765 18.1239Z" fill="white"/>
<path d="M46.8556 18.3625V17.6171L46.3925 17.6531L46.0482 19.8267L46.5462 19.9113L46.4044 20.8084L44.1303 20.9855L44.2722 20.088L44.8022 19.9299L45.1472 17.7495L44.684 17.7855L44.4442 18.5494L43.5537 18.6186L43.8252 16.9014L48.0124 16.5762L47.7409 18.2933L46.8556 18.3625Z" fill="white"/>
<path d="M51.9596 19.4905L51.8178 20.3876L49.6836 20.5536L49.8263 19.6506L50.1642 19.5071L50.114 19.1471L49.205 19.2174L49.0446 19.594L49.3212 19.6897L49.1786 20.5931L47.374 20.7334L47.5167 19.8304L47.9985 19.6754L48.9469 17.518L48.5747 17.4299L48.7185 16.5209L51.1486 16.332L51.4648 19.4122L51.9596 19.4905ZM49.4916 18.491L50.0271 18.4491L49.9034 17.5374L49.4916 18.491Z" fill="white"/>
<path d="M54.3887 17.094L54.0551 19.2036L55.0535 19.1246L55.2629 18.5508L56.1533 18.4816L55.9027 20.0679L52.1909 20.3565L52.3336 19.4534L52.8078 19.2989L53.1414 17.1893L52.7032 17.1063L52.847 16.1973L55.0601 16.0254L54.9166 16.9344L54.3887 17.094Z" fill="white"/>
<path d="M32.4062 24.1782L31.4182 24.2549L31.3728 23.8826L30.6397 23.9395L30.4863 24.0545L30.4524 24.2687L30.5544 24.3477L31.7925 24.4576L32.3347 24.8844L32.1695 25.9285L31.3178 26.6028L29.7303 26.7265L29.0786 26.17L29.1829 25.508L30.1709 25.4314L30.2165 25.8037L30.9863 25.7436L31.1353 25.625L31.1748 25.38L31.0886 25.301L29.856 25.1911L29.309 24.7291L29.4671 23.734L30.2785 23.0847L31.8925 22.959L32.5161 23.4937L32.4062 24.1782Z" fill="white"/>
<path d="M36.2685 23.5089L35.9243 25.686L35.1433 26.3077L33.4835 26.4369L32.8772 25.9232L33.2214 23.7456L32.8369 23.6725L32.9634 22.8757L34.6983 22.7406L34.5723 23.5377L34.313 23.6606L34.0395 25.3904L34.1632 25.4991L34.775 25.4513L34.9331 25.3213L35.2066 23.5915L34.9856 23.5057L35.1118 22.7086L36.8154 22.5762L36.6894 23.3733L36.2685 23.5089Z" fill="white"/>
<path d="M40.3412 24.0396L39.4765 24.7296L38.2581 24.8245L38.2008 25.1893L38.5849 25.262L38.4608 26.0488L36.5674 26.1959L36.6927 25.4055L37.1096 25.2699L37.4021 23.4207L37.018 23.3476L37.144 22.5505L39.8547 22.3398L40.519 22.9161L40.3412 24.0396ZM38.4948 23.3282L38.3999 23.9274L39.1541 23.8685L39.3097 23.7412L39.3687 23.3701L39.2501 23.2694L38.4948 23.3282Z" fill="white"/>
<path d="M44.1961 23.7404L43.3318 24.4304L42.1134 24.5249L42.0557 24.8897L42.4403 24.9628L42.3158 25.7492L40.4224 25.8967L40.5476 25.1062L40.965 24.9707L41.257 23.1215L40.8729 23.0484L40.999 22.2517L43.7096 22.041L44.374 22.6168L44.1961 23.7404ZM42.3498 23.029L42.2549 23.6282L43.0093 23.5697L43.1651 23.4424L43.2235 23.0713L43.1049 22.9705L42.3498 23.029Z" fill="white"/>
<path d="M47.0351 25.0616C46.8841 25.1812 46.7333 25.2998 46.5826 25.4173L45.0745 25.5358L44.3809 24.9466L44.754 22.5864L45.6234 21.8912L47.1896 21.7695L47.8591 22.3454L47.486 24.7051C47.3353 24.8226 47.185 24.9415 47.0351 25.0616ZM45.9415 22.7512L45.7835 22.8698L45.5266 24.4949L45.6554 24.6031L46.2933 24.5537L46.4604 24.4221L46.717 22.7975L46.592 22.6987L45.9415 22.7512Z" fill="white"/>
<path d="M47.8486 25.3193L47.9739 24.5289L48.3912 24.3934L48.6836 22.5442L48.2991 22.4711L48.4252 21.6739L51.1679 21.4609L51.786 21.9992L51.6137 23.088L51.0209 23.5662L51.322 24.1653L51.5935 24.1957L51.46 25.0399L50.4577 25.1189L49.8388 23.7622L49.5645 23.7835L49.4812 24.3096L49.8658 24.3827L49.7404 25.1731L47.8486 25.3193ZM49.6816 23.052L50.4324 22.9935L50.5755 22.8785L50.6372 22.4896L50.5273 22.3944L49.7764 22.4529L49.6816 23.052Z" fill="white"/>
<path d="M54.9273 22.6552V22.0016L54.5214 22.0332L54.2199 23.9401L54.6546 24.0144L54.5321 24.7992L52.5383 24.9542L52.6628 24.1677L53.1275 24.0282L53.4298 22.1166L53.024 22.1482L52.8138 22.82L52.0332 22.8805L52.2704 21.3752L55.9413 21.0898L55.7043 22.5952L54.9273 22.6552Z" fill="white"/>
<path fill-rule="evenodd" clip-rule="evenodd" d="M32.3066 14.62C36.9358 14.0492 41.6056 13.8784 46.2641 14.1094C40.5534 14.848 39.2192 15.0946 35.6853 16.7142C36.0848 15.9728 35.6177 16.5616 35.6719 15.84C34.7265 15.3847 33.484 15.0551 32.3066 14.62Z" fill="white"/>
<path fill-rule="evenodd" clip-rule="evenodd" d="M54.7325 29.7196C49.88 30.126 45.0027 30.1427 40.1475 29.7694C45.8345 28.7783 49.8398 27.5986 53.3998 26.0371C52.9884 26.7722 50.831 27.4927 50.7666 28.2131C51.704 28.6838 53.5623 29.2655 54.7325 29.7196Z" fill="white"/>
<path d="M48.2709 32.4121H48.9965L49.3234 33.4847C49.3369 33.5319 49.3472 33.5799 49.3541 33.6286C49.362 33.6819 49.368 33.7388 49.3724 33.8001C49.3783 33.7341 49.3858 33.6732 49.3949 33.6171C49.4024 33.5691 49.4129 33.5216 49.4261 33.4748L49.7529 32.4121H50.4675V34.1969H50.0205V32.9986C50.0205 32.9417 50.0205 32.8828 50.0252 32.8215C50.0299 32.7603 50.0339 32.6951 50.0406 32.6239C50.0288 32.6766 50.0165 32.728 50.0039 32.7781C49.9912 32.8281 49.9781 32.8744 49.9644 32.9168L49.5625 34.1953H49.1352L48.742 32.9381C48.7286 32.8947 48.7159 32.8461 48.7025 32.7931C48.689 32.7401 48.6783 32.6836 48.6673 32.6239C48.6732 32.7085 48.678 32.7848 48.6819 32.852C48.6859 32.9192 48.6874 32.9705 48.6874 33.0045V34.1953H48.2705L48.2709 32.4121Z" fill="white"/>
<path d="M50.8091 32.4121H51.2833V34.1969H50.8091V32.4121Z" fill="white"/>
<path d="M51.6296 32.4121H52.2224L52.7401 33.4823C52.7575 33.5183 52.7797 33.5685 52.8014 33.6325C52.8231 33.6965 52.8512 33.7748 52.8804 33.8696C52.8658 33.7815 52.8543 33.7009 52.8472 33.627C52.8401 33.5531 52.8365 33.4859 52.8365 33.425V32.4137H53.2662V34.1984H52.6734L52.1358 33.0895C52.1095 33.0355 52.0863 32.9799 52.0667 32.9231C52.0457 32.863 52.0271 32.7982 52.009 32.7279C52.0256 32.8342 52.0382 32.9318 52.0461 33.0211C52.054 33.1104 52.058 33.1887 52.058 33.2583V34.2H51.6284L51.6296 32.4121Z" fill="white"/>
<path d="M53.6079 32.4121H54.0821V34.1969H53.6079V32.4121Z" fill="white"/>
<path d="M54.4278 32.4121H55.1537L55.4802 33.4847C55.4937 33.5319 55.5041 33.5799 55.511 33.6286C55.5189 33.6819 55.5252 33.7388 55.5292 33.8001C55.5351 33.7341 55.5426 33.6732 55.5521 33.6171C55.5595 33.5691 55.5699 33.5215 55.5833 33.4748L55.9098 32.4121H56.6247V34.1969H56.1774V32.9986C56.1774 32.9417 56.1773 32.8828 56.1825 32.8215C56.1876 32.7603 56.1908 32.6951 56.1975 32.6239C56.1857 32.6777 56.1738 32.7291 56.1611 32.7781C56.1485 32.8271 56.135 32.8733 56.1216 32.9168L55.7173 34.1969H55.2905L54.8953 32.9397C54.8818 32.8962 54.8688 32.8476 54.8558 32.7947C54.8428 32.7417 54.8316 32.6852 54.8206 32.6255C54.8265 32.7101 54.8313 32.7864 54.8352 32.8536C54.8392 32.9207 54.8407 32.9721 54.8407 33.0061V34.1969H54.4238L54.4278 32.4121Z" fill="white"/>
<path d="M56.9663 32.4121H57.4426V34.1969H56.9663V32.4121Z" fill="white"/>
<path d="M57.759 32.4121H59.1142V32.7903L58.2159 33.8526H59.1142V34.1969H57.731V33.7989L58.6166 32.7563H57.7575L57.759 32.4121Z" fill="white"/>
<path d="M59.3579 32.4121H60.5976V32.7461H59.8341V33.1069H60.555V33.446H59.8341V33.8526H60.6245V34.1969H59.356L59.3579 32.4121Z" fill="white"/>
<path d="M52.7185 35.0498L52.6791 35.4229C52.5503 35.3449 52.4024 35.3039 52.2518 35.3044C52.1741 35.3004 52.0963 35.3122 52.0232 35.3389C51.95 35.3657 51.8831 35.4069 51.8262 35.4601C51.7236 35.5757 51.6671 35.7252 51.6677 35.8798C51.6683 36.0344 51.7258 36.1834 51.8293 36.2983C51.8869 36.3518 51.9547 36.3934 52.0285 36.4206C52.1023 36.4477 52.1808 36.4599 52.2594 36.4564C52.3319 36.4561 52.4041 36.4474 52.4747 36.4307C52.5511 36.4118 52.6253 36.3853 52.6964 36.3516L52.7253 36.7524C52.6412 36.7757 52.5557 36.7934 52.4692 36.8053C52.3834 36.8169 52.2969 36.8227 52.2104 36.8227C51.9353 36.8396 51.6643 36.7504 51.4531 36.5734C51.3606 36.4838 51.2885 36.3753 51.2416 36.2554C51.1948 36.1354 51.1743 36.0068 51.1816 35.8782C51.1756 35.753 51.1964 35.6279 51.2425 35.5114C51.2887 35.3949 51.3591 35.2895 51.4492 35.2024C51.6496 35.028 51.9099 34.9385 52.1751 34.9526C52.2726 34.9521 52.37 34.9603 52.466 34.9771C52.5527 34.9919 52.6373 35.0163 52.7185 35.0498Z" fill="white"/>
<path d="M53.8251 34.9527C53.9448 34.9459 54.0646 34.9645 54.1765 35.0072C54.2885 35.05 54.3902 35.116 54.4749 35.2009C54.6268 35.3979 54.7092 35.6397 54.7092 35.8885C54.7092 36.1373 54.6268 36.3791 54.4749 36.5762C54.295 36.7354 54.0631 36.8234 53.8228 36.8234C53.5826 36.8234 53.3506 36.7354 53.1707 36.5762C53.0183 36.3793 52.9355 36.1374 52.9355 35.8885C52.9355 35.6396 53.0183 35.3977 53.1707 35.2009C53.2561 35.1157 53.3586 35.0495 53.4714 35.0067C53.5842 34.964 53.7047 34.9455 53.8251 34.9527ZM53.8251 35.2993C53.7663 35.2983 53.7081 35.3122 53.6561 35.3399C53.6041 35.3675 53.56 35.408 53.528 35.4573C53.4472 35.584 53.408 35.7326 53.4158 35.8826C53.4081 36.0329 53.447 36.182 53.5272 36.3094C53.5596 36.3583 53.6037 36.3984 53.6554 36.4262C53.7071 36.4539 53.7649 36.4685 53.8236 36.4685C53.8823 36.4685 53.9401 36.4539 53.9918 36.4262C54.0435 36.3984 54.0876 36.3583 54.12 36.3094C54.1996 36.1815 54.238 36.0322 54.2303 35.8818C54.2378 35.7323 54.199 35.584 54.1192 35.4573C54.0877 35.4082 54.0441 35.3678 53.9926 35.3402C53.9412 35.3125 53.8836 35.2984 53.8251 35.2993Z" fill="white"/>
<path d="M56.1753 35.0172L56.1402 35.3851C56.0724 35.3558 56.0022 35.3326 55.9303 35.3155C55.8666 35.3004 55.8013 35.2926 55.7358 35.2922C55.6579 35.2882 55.5804 35.304 55.5102 35.3381C55.4862 35.3493 55.4658 35.3671 55.4515 35.3894C55.4371 35.4117 55.4294 35.4376 55.4292 35.4641C55.4288 35.4824 55.432 35.5006 55.4388 35.5175C55.4456 35.5345 55.4558 35.55 55.4687 35.5629C55.5041 35.5955 55.5468 35.6194 55.5932 35.6325L55.6722 35.6578C55.8155 35.6964 55.9526 35.7552 56.0793 35.8325C56.1379 35.8761 56.1851 35.9332 56.2172 35.9988C56.248 36.0677 56.2631 36.1424 56.2615 36.2178C56.2664 36.3032 56.2511 36.3885 56.2168 36.4668C56.1825 36.5451 56.13 36.6142 56.0639 36.6683C55.8972 36.7821 55.6973 36.8366 55.496 36.8232C55.4058 36.8231 55.3158 36.8169 55.2265 36.8047C55.136 36.7919 55.0464 36.773 54.9584 36.7481L54.998 36.3498C55.0768 36.3857 55.1588 36.4145 55.2427 36.4359C55.3159 36.4546 55.3911 36.4644 55.4667 36.4652C55.5444 36.4693 55.6216 36.451 55.6892 36.4126C55.7142 36.3981 55.7349 36.3772 55.7492 36.3521C55.7635 36.327 55.771 36.2985 55.7707 36.2696C55.7707 36.195 55.6835 36.1275 55.5094 36.0672C55.4675 36.053 55.4355 36.0415 55.4126 36.0332C55.276 35.9923 55.1511 35.9192 55.0486 35.8202C54.974 35.7348 54.9349 35.6241 54.9391 35.5108C54.935 35.4314 54.9504 35.3522 54.9839 35.2801C55.0175 35.208 55.0682 35.1453 55.1316 35.0974C55.2957 34.9909 55.4897 34.9403 55.6849 34.9531C55.7697 34.9529 55.8545 34.9582 55.9386 34.9689C56.0187 34.9788 56.0978 34.995 56.1753 35.0172Z" fill="white"/>
<path d="M56.3926 34.9961H57.7528V35.3518H57.3106V36.7797H56.8364V35.3518H56.3941L56.3926 34.9961Z" fill="white"/>
<path d="M27.8502 32.4121H28.5761L28.9029 33.4847C28.9162 33.532 28.9264 33.58 28.9334 33.6286C28.9417 33.6819 28.9476 33.7388 28.9519 33.8001C28.9575 33.7341 28.9654 33.6732 28.9745 33.6171C28.9819 33.569 28.9922 33.5215 29.0057 33.4748L29.3326 32.4121H30.0471V34.1969H29.5997V32.9986C29.5997 32.9417 29.5997 32.8828 29.6049 32.8215C29.61 32.7603 29.6132 32.6951 29.6199 32.6239C29.6081 32.6777 29.5962 32.7291 29.5835 32.7781C29.5709 32.8271 29.5574 32.8733 29.544 32.9168L29.142 34.1953H28.7153L28.3201 32.9381C28.3066 32.8947 28.2935 32.8461 28.2805 32.7931C28.2675 32.7401 28.256 32.6836 28.2454 32.6239C28.2509 32.7085 28.256 32.7848 28.2596 32.852C28.2631 32.9192 28.2655 32.9705 28.2655 33.0045V34.1953H27.8481L27.8502 32.4121Z" fill="white"/>
<path d="M30.8498 32.4121H31.4237L32.0995 34.1969H31.5908L31.4639 33.819H30.7768L30.6439 34.1969H30.1729L30.8498 32.4121ZM31.1264 32.8105L30.8956 33.48H31.3502L31.1264 32.8105Z" fill="white"/>
<path d="M32.097 32.4121H32.6448L32.9459 33.0413L33.2336 32.4121H33.7474L33.2123 33.2614L33.8115 34.1969H33.2511L32.9084 33.5049L32.559 34.1969H32.0366L32.6381 33.2614L32.097 32.4121Z" fill="white"/>
<path d="M33.9814 32.4121H34.4557V34.1969H33.9814V32.4121Z" fill="white"/>
<path d="M34.8001 32.4121H35.526L35.8525 33.4847C35.8661 33.5319 35.8764 33.5799 35.8833 33.6286C35.8912 33.6819 35.8975 33.7388 35.9015 33.8001C35.9074 33.7341 35.9149 33.6732 35.9244 33.6171C35.9318 33.569 35.9422 33.5215 35.9557 33.4748L36.2821 32.4121H36.997V34.1969H36.5504V32.9986C36.5504 32.9417 36.5504 32.8828 36.5555 32.8215C36.5607 32.7603 36.5639 32.6951 36.5706 32.6239C36.5591 32.6777 36.5469 32.7291 36.5342 32.7781C36.5216 32.8271 36.5081 32.8733 36.4947 32.9168L36.0928 34.1953H35.6659L35.2707 32.9381C35.2573 32.8947 35.2443 32.8461 35.2313 32.7931C35.2182 32.7401 35.2071 32.6836 35.1961 32.6239C35.202 32.7085 35.2072 32.7848 35.2107 32.852C35.2143 32.9192 35.2162 32.9705 35.2162 33.0045V34.1953H34.7993L34.8001 32.4121Z" fill="white"/>
<path d="M37.3384 32.4121H37.8146V34.1969H37.3384V32.4121Z" fill="white"/>
<path d="M38.1311 32.4121H39.4862V32.7903L38.5884 33.8526H39.4862V34.1969H38.103V33.7989L38.9887 32.7563H38.1311V32.4121Z" fill="white"/>
<path d="M39.7295 32.4121H40.9692V32.7461H40.2057V33.1069H40.9266V33.446H40.2057V33.8526H40.9961V34.1969H39.7275L39.7295 32.4121Z" fill="white"/>
<path d="M29.6644 34.9941H30.1386V36.0327C30.13 36.147 30.1536 36.2615 30.2066 36.3631C30.2308 36.3976 30.2636 36.4251 30.3017 36.443C30.3399 36.4609 30.382 36.4685 30.424 36.4651C30.4686 36.4677 30.5132 36.4591 30.5536 36.4399C30.594 36.4208 30.6289 36.3918 30.6552 36.3556C30.714 36.2586 30.7416 36.1459 30.7342 36.0327V34.9941H31.1875V36.0327C31.2044 36.2477 31.136 36.4607 30.997 36.6255C30.8341 36.7532 30.6331 36.8226 30.4261 36.8226C30.2191 36.8226 30.0182 36.7532 29.8553 36.6255C29.7165 36.4616 29.6477 36.2497 29.664 36.0355L29.6644 34.9941Z" fill="white"/>
<path d="M31.5269 34.9948H32.1651C32.3597 34.98 32.5538 35.0287 32.7184 35.1335C32.7803 35.1855 32.829 35.2516 32.8603 35.3263C32.8916 35.401 32.9046 35.482 32.8982 35.5627C32.9037 35.645 32.8906 35.7275 32.86 35.8041C32.8294 35.8808 32.7819 35.9495 32.7212 36.0053C32.5734 36.1153 32.3912 36.169 32.2074 36.1567H32.0039V36.7795H31.5296L31.5269 34.9948ZM32.0011 35.3165V35.835H32.1272C32.2043 35.8406 32.2809 35.8183 32.3429 35.7721C32.3681 35.7486 32.3878 35.7197 32.4003 35.6875C32.4129 35.6554 32.4182 35.6208 32.4157 35.5864C32.4184 35.5496 32.4134 35.5126 32.4008 35.4779C32.3883 35.4431 32.3685 35.4114 32.3429 35.3848C32.2833 35.3353 32.2068 35.3108 32.1295 35.3165H32.0011Z" fill="white"/>
<path d="M32.9888 34.9941H34.3494V35.3498H33.9072V36.7777H33.431V35.3498H32.9888V34.9941Z" fill="white"/>
<path d="M34.5527 34.9941H35.027V36.7789H34.5527V34.9941Z" fill="white"/>
<path d="M35.373 34.9941H36.0986L36.4255 36.0667C36.4391 36.1139 36.4493 36.162 36.4563 36.2106C36.4642 36.2639 36.4702 36.3208 36.4745 36.3821C36.4803 36.3162 36.4878 36.2554 36.497 36.1995C36.5045 36.1514 36.5149 36.1037 36.5282 36.0568L36.855 34.9941H37.5696V36.7789H37.1226V35.5806C37.1226 35.5237 37.1226 35.4648 37.1273 35.4036C37.1321 35.3423 37.136 35.2771 37.1428 35.206C37.1309 35.2586 37.1186 35.31 37.106 35.3601C37.0934 35.4101 37.0801 35.4564 37.0664 35.4988L36.6646 36.7773H36.2373L35.8421 35.5202C35.8287 35.4767 35.816 35.4281 35.8026 35.3751C35.7891 35.3222 35.7785 35.2656 35.7675 35.206C35.7734 35.2905 35.7781 35.3668 35.782 35.434C35.786 35.5012 35.7876 35.5525 35.7876 35.5865V36.7773H35.3706L35.373 34.9941Z" fill="white"/>
<path d="M37.9116 34.9941H39.1514V35.3281H38.3874V35.6889H39.1086V36.028H38.3874V36.4346H39.1802V36.7789H37.9116V34.9941Z" fill="white"/>
<path d="M43.2471 34.4007H44.1133V33.5312H44.7026V34.4007H45.5748V34.99H44.7026V35.8547H44.1133V34.99H43.2471V34.4007Z" fill="white"/>
<path d="M62.2651 31.2969H26.0391V31.5411H62.2651V31.2969Z" fill="white"/>
<path d="M62.2651 37.7559H26.0391V38.0001H62.2651V37.7559Z" fill="white"/>
</g>
<defs>
<filter id="filter0_d_2665_9408" x="0" y="0" width="176" height="56" filterUnits="userSpaceOnUse" color-interpolation-filters="sRGB">
<feFlood flood-opacity="0" result="BackgroundImageFix"/>
<feColorMatrix in="SourceAlpha" type="matrix" values="0 0 0 0 0 0 0 0 0 0 0 0 0 0 0 0 0 0 127 0" result="hardAlpha"/>
<feOffset dy="2"/>
<feGaussianBlur stdDeviation="4"/>
<feComposite in2="hardAlpha" operator="out"/>
<feColorMatrix type="matrix" values="0 0 0 0 0.0666667 0 0 0 0 0.0666667 0 0 0 0 0.0666667 0 0 0 0.2 0"/>
<feBlend mode="normal" in2="BackgroundImageFix" result="effect1_dropShadow_2665_9408"/>
<feBlend mode="normal" in="SourceGraphic" in2="effect1_dropShadow_2665_9408" result="shape"/>
</filter>
<clipPath id="clip0_2665_9408">
<rect width="78.9773" height="24" fill="white" transform="translate(70.3037 14)"/>
</clipPath>
<clipPath id="clip1_2665_9408">
<rect width="36.3039" height="24" fill="white" transform="translate(26 14)"/>
</clipPath>
</defs>
</svg>
