<svg width="48" height="48" viewBox="0 0 48 48" fill="none" xmlns="http://www.w3.org/2000/svg">
<path d="M24 48C37.2548 48 48 37.2548 48 24C48 10.7452 37.2548 0 24 0C10.7452 0 0 10.7452 0 24C0 37.2548 10.7452 48 24 48Z" fill="#99B8D1"/>
<path d="M39.3503 21.3412L27.7459 28.8442L23.8114 31.3901L19.8769 28.8442L8.27246 21.3412C8.36934 20.0709 9.43505 19.0752 10.7322 19.0752H36.8852C38.1877 19.0752 39.2534 20.0709 39.3503 21.3412Z" fill="#CDD1D1"/>
<path fill-rule="evenodd" clip-rule="evenodd" d="M11.0713 19.0753V21.7234V23.1498L11.5826 23.4781L12.5461 24.1024L19.4732 28.5806L19.8769 28.8443L23.8114 31.3902L23.9513 31.2987L27.7459 28.8443L28.3164 28.4729L35.0767 24.1024L36.32 23.3059L37.2135 22.7246V21.7234V19.0968V10.1675H11.0713V19.0753Z" fill="white"/>
<path d="M19.1128 12.4285H12.9446V21.121H19.1128V12.4285Z" fill="#CCCCCC"/>
<path d="M35.8517 12.4285H20.8726V13.9248H35.8517V12.4285Z" fill="#CCCCCC"/>
<path d="M35.8517 15.1897H20.8726V16.686H35.8517V15.1897Z" fill="#CCCCCC"/>
<path d="M35.8517 17.9502H20.8726V19.4465H35.8517V17.9502Z" fill="#CCCCCC"/>
<path d="M35.8517 20.7114H20.8726V22.2077H35.8517V20.7114Z" fill="#CCCCCC"/>
<path d="M35.8517 23.4727H20.8726V24.969H35.8517V23.4727Z" fill="#CCCCCC"/>
<path d="M35.8517 26.2339H20.8726V27.7302H35.8517V26.2339Z" fill="#CCCCCC"/>
<path d="M35.8517 28.9951H20.8726V30.4914H35.8517V28.9951Z" fill="#CCCCCC"/>
<path d="M39.3665 21.5566V36.1105C39.3665 36.1913 39.3665 36.2666 39.3503 36.3366C39.2427 37.5961 38.177 38.5918 36.8852 38.5918H10.7323C9.44048 38.5918 8.37477 37.5961 8.27251 36.3366C8.25098 36.2666 8.25098 36.1913 8.25098 36.1105V21.5566C8.25098 21.4812 8.25098 21.4113 8.27251 21.3413L19.8769 28.8443L23.8114 31.3902L27.7459 28.8443L39.3503 21.3413C39.3665 21.4113 39.3665 21.4812 39.3665 21.5566Z" fill="#292827"/>
<path d="M35.9702 40.4383C38.7437 40.4383 40.992 38.19 40.992 35.4165C40.992 32.6431 38.7437 30.3948 35.9702 30.3948C33.1968 30.3948 30.9485 32.6431 30.9485 35.4165C30.9485 38.19 33.1968 40.4383 35.9702 40.4383Z" fill="white"/>
<path d="M35.4158 31.8478C35.4158 31.541 35.6634 31.2935 35.9702 31.2935C36.2769 31.2935 36.5245 31.541 36.5245 31.8478V36.256C36.5245 36.5628 36.2769 36.8104 35.9702 36.8104C35.6634 36.8104 35.4158 36.5628 35.4158 36.256V31.8478Z" fill="#292827"/>
<path d="M35.4158 38.0859C35.4158 37.7791 35.6634 37.5315 35.9702 37.5315C36.2769 37.5315 36.5245 37.7791 36.5245 38.0859V38.7318C36.5245 39.0386 36.2769 39.2861 35.9702 39.2861C35.6634 39.2861 35.4158 39.0386 35.4158 38.7318V38.0859Z" fill="#292827"/>
</svg>
