<svg width="16" height="17" viewBox="0 0 16 17" fill="none" xmlns="http://www.w3.org/2000/svg">
<path d="M14.3383 10.3363C13.7814 10.2692 13.2275 10.1477 12.6916 9.97496C12.0233 9.75749 11.3008 9.94618 10.8102 10.4675L9.78664 11.5548C7.82992 10.4163 6.1953 8.68291 5.12361 6.60093L6.14713 5.51357C6.63782 4.99228 6.81543 4.22473 6.61072 3.51474C6.44817 2.94548 6.33076 2.35702 6.27055 1.76537C6.16519 0.757956 5.36143 0 4.40414 0H1.88147C1.35466 0 0.848918 0.236661 0.493697 0.649219C0.17761 1.0202 0 1.50312 0 2.00203C0 2.06279 0.00300998 2.12356 0.00903067 2.18432C0.1746 4.10959 0.656257 5.96451 1.43594 7.70429C2.19454 9.3961 3.21204 10.928 4.46435 12.2584C5.71665 13.5888 7.15861 14.6698 8.74807 15.4757C10.3857 16.3041 12.1347 16.8158 13.9439 16.9916C14.4707 17.0428 14.9976 16.8573 15.3889 16.4768C15.7772 16.0994 16 15.5621 16 15.0024V12.3224C16 11.3054 15.2865 10.4515 14.3383 10.3395V10.3363Z" fill="white"/>
</svg>
