<svg width="21" height="21" viewBox="0 0 21 21" fill="none" xmlns="http://www.w3.org/2000/svg">
<path fill-rule="evenodd" clip-rule="evenodd" d="M1.3125 5.25V18.375C1.3125 18.7231 1.45078 19.0569 1.69692 19.3031C1.94306 19.5492 2.2769 19.6875 2.625 19.6875H18.375C18.7231 19.6875 19.0569 19.5492 19.3031 19.3031C19.5492 19.0569 19.6875 18.7231 19.6875 18.375V5.25H1.3125ZM2.625 1.3125C1.92881 1.3125 1.26113 1.58906 0.768845 2.08134C0.276562 2.57363 0 3.24131 0 3.9375L0 18.375C0 19.0712 0.276562 19.7389 0.768845 20.2312C1.26113 20.7234 1.92881 21 2.625 21H18.375C19.0712 21 19.7389 20.7234 20.2312 20.2312C20.7234 19.7389 21 19.0712 21 18.375V3.9375C21 3.24131 20.7234 2.57363 20.2312 2.08134C19.7389 1.58906 19.0712 1.3125 18.375 1.3125H2.625Z" fill="white"/>
<path fill-rule="evenodd" clip-rule="evenodd" d="M4.59375 0C4.7678 0 4.93472 0.0691404 5.05779 0.192211C5.18086 0.315282 5.25 0.482202 5.25 0.65625V1.3125C5.25 1.48655 5.18086 1.65347 5.05779 1.77654C4.93472 1.89961 4.7678 1.96875 4.59375 1.96875C4.4197 1.96875 4.25278 1.89961 4.12971 1.77654C4.00664 1.65347 3.9375 1.48655 3.9375 1.3125V0.65625C3.9375 0.482202 4.00664 0.315282 4.12971 0.192211C4.25278 0.0691404 4.4197 0 4.59375 0V0ZM16.4062 0C16.5803 0 16.7472 0.0691404 16.8703 0.192211C16.9934 0.315282 17.0625 0.482202 17.0625 0.65625V1.3125C17.0625 1.48655 16.9934 1.65347 16.8703 1.77654C16.7472 1.89961 16.5803 1.96875 16.4062 1.96875C16.2322 1.96875 16.0653 1.89961 15.9422 1.77654C15.8191 1.65347 15.75 1.48655 15.75 1.3125V0.65625C15.75 0.482202 15.8191 0.315282 15.9422 0.192211C16.0653 0.0691404 16.2322 0 16.4062 0V0Z" fill="white"/>
<path d="M16.4062 7.875H15.0938C14.7313 7.875 14.4375 8.16881 14.4375 8.53125V9.84375C14.4375 10.2062 14.7313 10.5 15.0938 10.5H16.4062C16.7687 10.5 17.0625 10.2062 17.0625 9.84375V8.53125C17.0625 8.16881 16.7687 7.875 16.4062 7.875Z" fill="white"/>
</svg>
