<svg width="33" height="33" viewBox="0 0 33 33" fill="none" xmlns="http://www.w3.org/2000/svg">
<path d="M16.5 33C25.6127 33 33 25.6127 33 16.5C33 7.3873 25.6127 0 16.5 0C7.3873 0 0 7.3873 0 16.5C0 25.6127 7.3873 33 16.5 33Z" fill="#C80000"/>
<path d="M27.0821 5.50316C26.0378 5.50316 25.1863 6.35065 25.1863 7.40299V25.5458C25.1863 26.5901 24.3388 27.4376 23.2905 27.4376H7.56168V7.39897C7.56168 6.35065 8.41319 5.49915 9.45749 5.49915H27.0821V5.50316Z" fill="white"/>
<path d="M23.1198 27.4336V27.4376H7.39499C6.86882 27.4376 6.4029 27.2287 6.05346 26.8833C5.70804 26.5379 5.49918 26.0679 5.49918 25.5418V24.6541H21.3445V25.5418C21.3445 26.0679 21.5533 26.5379 21.8988 26.8833C22.2161 27.2046 22.6458 27.4055 23.1198 27.4336Z" fill="#B3B3B3"/>
<path d="M9.9613 11.444H22.5211V10.705H9.9613V11.444Z" fill="#B3B3B3"/>
<path d="M9.9613 13.6118H22.5211V12.8728H9.9613V13.6118Z" fill="#B3B3B3"/>
<path d="M9.9613 15.7811H13.4682V15.0419H9.9613V15.7811Z" fill="#B3B3B3"/>
<path d="M9.9613 16.5251H13.4682V15.7819H9.9613V16.5251Z" fill="#E6E6E6"/>
<path d="M14.4879 15.7811H17.9948V15.0419H14.4879V15.7811Z" fill="#B3B3B3"/>
<path d="M14.4879 16.5251H17.9948V15.7819H14.4879V16.5251Z" fill="#E6E6E6"/>
<path d="M19.0195 15.7811H22.5223V15.0419H19.0195V15.7811Z" fill="#B3B3B3"/>
<path d="M19.0195 16.5251H22.5223V15.7819H19.0195V16.5251Z" fill="#E6E6E6"/>
<path d="M9.9613 17.9464H13.4682V17.2073H9.9613V17.9464Z" fill="#E6E6E6"/>
<path d="M14.4879 17.9464H17.9948V17.2073H14.4879V17.9464Z" fill="#E6E6E6"/>
<path d="M19.0195 17.9464H22.5223V17.2073H19.0195V17.9464Z" fill="#E6E6E6"/>
<path d="M9.9613 19.3721H13.4682V18.629H9.9613V19.3721Z" fill="#E6E6E6"/>
<path d="M14.4879 19.3721H17.9948V18.629H14.4879V19.3721Z" fill="#E6E6E6"/>
<path d="M19.0195 19.3721H22.5223V18.629H19.0195V19.3721Z" fill="#E6E6E6"/>
<path d="M9.9613 20.7951H13.4682V20.0519H9.9613V20.7951Z" fill="#E6E6E6"/>
<path d="M14.4879 20.7951H17.9948V20.0519H14.4879V20.7951Z" fill="#E6E6E6"/>
<path d="M19.0195 20.7951H22.5223V20.0519H19.0195V20.7951Z" fill="#E6E6E6"/>
<path d="M9.9613 22.2164H13.4682V21.4773H9.9613V22.2164Z" fill="#E6E6E6"/>
<path d="M14.4879 22.2164H17.9948V21.4773H14.4879V22.2164Z" fill="#E6E6E6"/>
<path d="M19.0195 22.2164H22.5223V21.4773H19.0195V22.2164Z" fill="#E6E6E6"/>
<path d="M9.62418 7.92348C9.62418 7.58325 9.70337 7.32103 9.86176 7.13682C9.99949 6.9764 10.1747 6.89619 10.3874 6.89619C10.6721 6.89619 10.8802 7.00373 11.0118 7.21879C11.0845 7.33954 11.1235 7.46074 11.1289 7.58237H10.7754C10.7524 7.48894 10.723 7.41843 10.687 7.37083C10.6227 7.28622 10.5275 7.24391 10.4012 7.24391C10.2727 7.24391 10.1713 7.30385 10.097 7.42372C10.0228 7.54271 9.98572 7.7115 9.98572 7.93009C9.98572 8.14868 10.0247 8.31262 10.1028 8.42192C10.1816 8.53033 10.2815 8.58454 10.4023 8.58454C10.5263 8.58454 10.6208 8.53782 10.6858 8.44439C10.7218 8.39415 10.7516 8.31879 10.7754 8.21831H11.1254C11.0948 8.43073 11.0164 8.60349 10.8901 8.73658C10.7647 8.86967 10.6036 8.93622 10.4069 8.93622C10.1636 8.93622 9.97233 8.84631 9.83307 8.66651C9.69381 8.48582 9.62418 8.23814 9.62418 7.92348Z" fill="#444444"/>
<path d="M12.1446 8.59115C12.2847 8.59115 12.3956 8.53165 12.4775 8.41266C12.5601 8.29367 12.6014 8.12444 12.6014 7.90497C12.6014 7.68638 12.5601 7.51759 12.4775 7.3986C12.3956 7.27873 12.2847 7.21879 12.1446 7.21879C12.0046 7.21879 11.8929 7.27829 11.8095 7.39728C11.7261 7.51627 11.6844 7.6855 11.6844 7.90497C11.6844 8.12444 11.7261 8.29367 11.8095 8.41266C11.8929 8.53165 12.0046 8.59115 12.1446 8.59115ZM12.9549 7.90497C12.9549 8.25489 12.8696 8.52284 12.699 8.70881C12.5712 8.86042 12.3864 8.93622 12.1446 8.93622C11.9028 8.93622 11.718 8.86042 11.5903 8.70881C11.4189 8.52284 11.3332 8.25489 11.3332 7.90497C11.3332 7.548 11.4189 7.28005 11.5903 7.10112C11.718 6.94952 11.9028 6.87372 12.1446 6.87372C12.3864 6.87372 12.5712 6.94952 12.699 7.10112C12.8696 7.28005 12.9549 7.548 12.9549 7.90497Z" fill="#444444"/>
<path d="M13.2201 6.93321H13.5908L14.2645 8.29367V6.93321H14.5939V8.88201H14.2404L13.5495 7.49776V8.88201H13.2201V6.93321Z" fill="#444444"/>
<path d="M16.1537 6.93321V7.27829H15.6475V8.88201H15.2917V7.27829H14.7833V6.93321H16.1537Z" fill="#444444"/>
<path d="M16.715 7.27167V7.79523H17.1155C17.1951 7.79523 17.2548 7.78466 17.2946 7.7635C17.365 7.72648 17.4002 7.65333 17.4002 7.54403C17.4002 7.42592 17.3661 7.34659 17.298 7.30605C17.2597 7.28313 17.2024 7.27167 17.1258 7.27167H16.715ZM17.1993 6.93321C17.3179 6.93586 17.409 6.9526 17.4725 6.98345C17.5367 7.0143 17.5911 7.0597 17.6354 7.11963C17.6722 7.16899 17.7012 7.22364 17.7227 7.28357C17.7441 7.34351 17.7548 7.41182 17.7548 7.4885C17.7548 7.58105 17.7345 7.67228 17.694 7.76218C17.6534 7.8512 17.5865 7.91422 17.4931 7.95124C17.5712 7.98738 17.6263 8.03894 17.6584 8.10593C17.6913 8.17204 17.7078 8.2734 17.7078 8.41002V8.54091C17.7078 8.62993 17.7108 8.6903 17.7169 8.72204C17.7261 8.77228 17.7475 8.8093 17.7812 8.83309V8.88201H17.3921C17.3814 8.83882 17.3738 8.80401 17.3692 8.77756C17.36 8.72292 17.355 8.66695 17.3542 8.60966L17.352 8.42853C17.3504 8.30425 17.3305 8.22139 17.2923 8.17997C17.2548 8.13854 17.184 8.11783 17.0799 8.11783H16.715V8.88201H16.3695V6.93321H17.1993Z" fill="#444444"/>
<path d="M18.5227 8.14559H18.9519L18.7407 7.37877L18.5227 8.14559ZM18.5445 6.93321H18.9439L19.543 8.88201H19.1597L19.0506 8.48141H18.4274L18.3103 8.88201H17.9407L18.5445 6.93321Z" fill="#444444"/>
<path d="M19.6853 7.92348C19.6853 7.58325 19.7645 7.32103 19.9229 7.13682C20.0606 6.9764 20.2359 6.89619 20.4486 6.89619C20.7332 6.89619 20.9413 7.00373 21.0729 7.21879C21.1456 7.33954 21.1847 7.46074 21.19 7.58237H20.8365C20.8136 7.48894 20.7841 7.41843 20.7481 7.37083C20.6839 7.28622 20.5886 7.24391 20.4623 7.24391C20.3338 7.24391 20.2324 7.30385 20.1582 7.42372C20.084 7.54271 20.0469 7.7115 20.0469 7.93009C20.0469 8.14868 20.0859 8.31262 20.1639 8.42192C20.2427 8.53033 20.3426 8.58454 20.4635 8.58454C20.5874 8.58454 20.6819 8.53782 20.747 8.44439C20.7829 8.39415 20.8128 8.31879 20.8365 8.21831H21.1866C21.156 8.43073 21.0775 8.60349 20.9513 8.73658C20.8258 8.86967 20.6647 8.93622 20.4681 8.93622C20.2248 8.93622 20.0335 8.84631 19.8942 8.66651C19.7549 8.48582 19.6853 8.23814 19.6853 7.92348Z" fill="#444444"/>
<path d="M22.6867 6.93321V7.27829H22.1805V8.88201H21.8247V7.27829H21.3163V6.93321H22.6867Z" fill="#444444"/>
</svg>
