<svg width="35" height="35" viewBox="0 0 35 35" fill="none" xmlns="http://www.w3.org/2000/svg">
<path d="M17.5 35C27.165 35 35 27.165 35 17.5C35 7.83502 27.165 0 17.5 0C7.83502 0 0 7.83502 0 17.5C0 27.165 7.83502 35 17.5 35Z" fill="#C80000"/>
<path fill-rule="evenodd" clip-rule="evenodd" d="M22.2786 19.9426C23.822 19.9616 24.7119 19.9818 24.947 20.0046C24.9722 21.3078 24.9849 21.96 24.9849 21.96C23.2317 22.0472 22.4025 22.0902 22.496 22.0877C22.1926 20.9046 22.1206 20.1904 22.2786 19.9426Z" fill="#E8E9E9"/>
<path fill-rule="evenodd" clip-rule="evenodd" d="M12.4204 19.9426C10.877 19.9616 9.9871 19.9818 9.75199 20.0046C9.7267 21.3078 9.71407 21.96 9.71407 21.96C11.4673 22.0472 12.2965 22.0902 12.2029 22.0877C12.5063 20.9046 12.5796 20.1904 12.4204 19.9426Z" fill="#E8E9E9"/>
<path fill-rule="evenodd" clip-rule="evenodd" d="M24.9532 20.447C24.9102 17.7015 24.89 16.3224 24.8913 16.3085C24.8837 15.8383 24.8811 15.6032 24.8811 15.6032C24.8799 15.4919 24.8786 15.4363 24.8786 15.4363C24.9178 15.2707 24.9406 15.0912 24.9481 14.8978C24.9772 14.3733 24.9317 14.0787 24.8129 14.0143C24.6612 11.2511 24.4425 9.54339 24.1556 8.89115C23.5097 8.56629 23.0951 8.40323 22.9143 8.40323C22.6577 8.21489 22.4428 8.11882 22.2671 8.11629C18.9895 8.03792 17.35 8 17.35 8C17.35 8 15.7068 8.03918 12.4291 8.11629C12.2534 8.11882 12.0385 8.21362 11.7819 8.40323C11.6012 8.40323 11.1879 8.56629 10.5407 8.89115C10.2537 9.54339 10.0338 11.2511 9.88337 14.0143C9.76328 14.0787 9.71904 14.372 9.74811 14.8978C9.7557 15.0912 9.77845 15.2707 9.81764 15.4363C9.81764 15.4363 9.81637 15.4919 9.81511 15.6032C9.81511 15.6032 9.81132 15.8383 9.80499 16.3085C9.80626 16.3224 9.78604 17.7027 9.74306 20.447H24.9545H24.9532Z" fill="#E8E9E9"/>
<path d="M11.8553 24.5336H9.97951V27.269H11.8553V24.5336Z" fill="#404040"/>
<path fill-rule="evenodd" clip-rule="evenodd" d="M9.78864 24.3806C9.79496 24.6941 9.79748 25.0088 9.79748 25.3223C11.2713 25.3312 12.0083 25.335 12.0083 25.335C12.0083 24.7801 12.0083 24.5032 12.0083 24.5032L9.7899 24.3806H9.78864Z" fill="#292827"/>
<path d="M24.7156 24.5336H22.8398V27.269H24.7156V24.5336Z" fill="#404040"/>
<path fill-rule="evenodd" clip-rule="evenodd" d="M24.9064 24.3806C24.9001 24.6941 24.8976 25.0088 24.8976 25.3223C23.4237 25.3312 22.6868 25.335 22.6868 25.335C22.6868 24.7801 22.6868 24.5032 22.6868 24.5032L24.9064 24.3806Z" fill="#292827"/>
<path fill-rule="evenodd" clip-rule="evenodd" d="M9.74186 20.4471H24.9533C24.9507 20.3106 24.9495 20.1791 24.9469 20.0489C24.7927 20.0515 24.6461 20.0552 24.5071 20.0578C24.1076 20.0654 23.7739 20.0717 23.5047 20.0767C22.9586 20.0868 22.6843 20.0919 22.6843 20.0919C22.6982 18.3488 22.7058 17.4766 22.7058 17.4766C22.702 17.1568 22.5832 16.9925 22.3506 16.9836C21.0866 17.014 19.7985 17.0329 18.5042 17.0405C18.5863 17.1644 18.6571 17.2971 18.7165 17.44C19.5811 17.4261 20.8553 17.4046 22.5377 17.378C22.5478 18.01 22.3974 18.3197 22.0839 18.3071C21.5265 18.3298 21.2484 18.3412 21.2484 18.3412C21.2383 18.1592 21.1157 18.0707 20.8793 18.0783C19.9262 18.096 19.1665 18.1086 18.599 18.1187C18.5067 18.2666 18.3879 18.4006 18.2438 18.522C17.9455 18.5409 17.6471 18.5523 17.3488 18.5536C17.0505 18.551 16.7484 18.5409 16.4501 18.522C16.306 18.4006 16.1872 18.2666 16.0949 18.1187C15.5274 18.1086 14.7664 18.0947 13.8146 18.0783C13.5782 18.0707 13.4556 18.1592 13.4455 18.3412C13.4455 18.3412 13.1674 18.3298 12.61 18.3071C12.2965 18.3197 12.1461 18.01 12.1562 17.378C13.8386 17.4058 15.1128 17.4261 15.9774 17.44C16.0368 17.2971 16.1075 17.1644 16.1897 17.0405C14.8953 17.0329 13.606 17.014 12.3432 16.9836C12.1107 16.9925 11.9918 17.1581 11.9881 17.4766C11.9881 17.4766 11.9956 18.3488 12.0095 20.0919C12.0095 20.0919 11.7365 20.0868 11.1892 20.0767C10.9212 20.0717 10.5875 20.0654 10.1868 20.0578C10.0478 20.0552 9.90113 20.0527 9.74692 20.0489C9.74439 20.1779 9.74313 20.3106 9.7406 20.4471H9.74186Z" fill="#6D6E6E"/>
<path fill-rule="evenodd" clip-rule="evenodd" d="M22.7425 21.261C22.7425 21.261 22.7437 21.0739 22.7463 20.701C23.65 20.6694 24.3857 20.5847 24.952 20.447H9.7406C10.3069 20.5847 11.0426 20.6694 11.9463 20.701C11.9489 21.0739 11.9501 21.261 11.9501 21.261C12.0449 21.4215 12.0816 21.6326 12.0588 21.8968C12.9652 21.9309 13.8209 21.9398 14.6236 21.9234C16.4147 21.9777 18.2766 21.9777 20.0678 21.9234C20.8704 21.9398 21.7262 21.9309 22.6325 21.8968C22.6097 21.6339 22.6451 21.4215 22.7412 21.261H22.7425Z" fill="#6D6E6E"/>
<path fill-rule="evenodd" clip-rule="evenodd" d="M22.0206 24.6852C23.5084 24.7649 24.4703 24.6625 24.9064 24.3793C24.9506 24.2226 24.962 24.0697 24.9405 23.9205C25.3539 23.736 25.1946 22.1344 25.1946 21.7438C23.3011 21.893 21.5921 21.9524 20.0689 21.9221C18.2778 21.9764 16.4159 21.9764 14.6247 21.9221C13.1016 21.9524 11.3939 21.893 9.49906 21.7438C9.49906 22.1344 9.34106 23.736 9.75314 23.9205C9.73038 24.0684 9.74176 24.2213 9.78726 24.3793C10.2221 24.6625 11.184 24.7636 12.6718 24.6852C15.6853 24.8003 19.0059 24.8003 22.0193 24.6852H22.0206Z" fill="#7C8785"/>
<path fill-rule="evenodd" clip-rule="evenodd" d="M17.3488 14.3958C15.746 14.4072 13.544 14.3541 10.7518 14.2366C10.5774 14.2252 10.4775 14.1013 10.4547 13.8649C10.2335 12.2596 10.3738 10.6252 10.8681 9.08182C10.9604 8.99334 11.0994 8.94531 11.2814 8.93899C15.3238 8.89348 17.3475 8.87073 17.3475 8.87073C17.3475 8.87073 19.3687 8.89348 23.4099 8.93899C23.5931 8.94531 23.7309 8.99334 23.8232 9.08182C24.3174 10.6252 24.459 12.2596 24.2365 13.8649C24.2138 14.1013 24.1139 14.2239 23.9395 14.2366C21.1472 14.3541 18.9491 14.4072 17.3463 14.3958H17.3488Z" fill="#353043"/>
<path fill-rule="evenodd" clip-rule="evenodd" d="M11.1892 20.0765C11.1829 19.7478 10.7569 19.0096 9.91126 17.8594C9.82404 18.8605 9.85944 19.5443 10.0174 19.9122C10.1021 19.9867 10.1577 20.036 10.1868 20.0588L11.1892 20.0778V20.0765Z" fill="#FEC900"/>
<path fill-rule="evenodd" clip-rule="evenodd" d="M12.7983 24.69C13.0448 25.3422 13.8146 25.6292 15.109 25.5483C16.5588 25.5483 17.3084 25.5483 17.3488 25.5483C17.3906 25.5483 18.1351 25.5483 19.5849 25.5483C20.8793 25.6279 21.6504 25.3422 21.8956 24.69H12.7971H12.7983Z" fill="#404040"/>
<path fill-rule="evenodd" clip-rule="evenodd" d="M15.0091 24.7308H17.2262H17.345H19.8086V25.6763H17.345H17.2262H15.0091V24.7308Z" fill="#292827"/>
<path fill-rule="evenodd" clip-rule="evenodd" d="M11.7099 17.79C11.7099 17.79 11.715 18.4814 11.7263 19.8643C11.7263 19.8643 11.6379 19.777 11.4609 19.6039C11.4609 19.6039 11.4344 18.7089 11.3813 16.9203C11.3813 16.1935 10.7872 16.0039 10.2512 15.6639C10.7189 15.8067 11.1474 15.9799 11.5342 16.1834C11.6783 16.4059 11.7478 16.6688 11.7301 16.9342L11.7087 17.7913L11.7099 17.79Z" fill="#D3D5D5"/>
<path d="M9.05547 9.86322H8V12.4836H9.05547V9.86322Z" fill="black"/>
<path d="M9.05547 12.6479H8V13.5176H9.05547V12.6479Z" fill="black"/>
<path d="M10.2475 9.73055C10.183 9.62816 10.0806 9.54347 9.93907 9.47648C9.79244 9.40696 9.60536 9.35766 9.37784 9.32859C9.25143 9.32353 9.12629 9.32227 9.00242 9.32227C8.88486 9.32353 8.76478 9.32606 8.64343 9.33238C8.60425 9.35892 8.58529 9.4019 8.58781 9.46258L8.48795 13.711C8.50439 13.7502 8.53852 13.783 8.59034 13.8096C8.65607 13.845 8.74708 13.869 8.86464 13.8829L10.2209 13.8728L10.2222 14.0321L8.852 14.0434H8.84947C8.71169 14.027 8.60045 13.9967 8.51576 13.9524C8.42222 13.9031 8.36029 13.8349 8.33248 13.7514L8.32742 13.7388L8.42854 9.4689C8.42349 9.33491 8.47405 9.24011 8.58276 9.18449L8.59793 9.1769L8.61562 9.17564C8.74203 9.16932 8.87096 9.16553 9.00115 9.16426C9.13008 9.163 9.25902 9.16553 9.38668 9.17058L9.393 9.17185C9.63949 9.20345 9.84426 9.2578 10.0061 9.33491C10.1754 9.41454 10.3006 9.51946 10.3815 9.64839L10.2462 9.73308L10.2475 9.73055Z" fill="black"/>
<path fill-rule="evenodd" clip-rule="evenodd" d="M17.3488 23.1028C17.3488 23.1028 18.9263 23.0826 22.0801 23.0434C23.3201 23.0598 23.8737 22.7653 23.7435 22.1611C21.4809 22.266 19.346 22.3165 17.345 22.314C15.344 22.3165 13.2129 22.266 10.9502 22.1611C10.8188 22.7653 11.3737 23.0598 12.6137 23.0434C15.7675 23.0826 17.3488 23.1028 17.3488 23.1028Z" fill="#353043"/>
<path fill-rule="evenodd" clip-rule="evenodd" d="M17.3487 18.1415C17.3487 18.1415 18.5256 18.12 20.8792 18.0783C21.1156 18.0707 21.2382 18.1592 21.2483 18.3412C21.2483 18.3412 21.5264 18.3298 22.0838 18.3071C22.3973 18.3197 22.5477 18.01 22.5376 17.378C19.0779 17.4349 17.3487 17.4627 17.3487 17.4627C17.3487 17.4627 15.6145 17.4349 12.1548 17.378C12.1447 18.01 12.2951 18.3197 12.6086 18.3071C13.166 18.3298 13.4441 18.3412 13.4441 18.3412C13.4542 18.1592 13.5769 18.0707 13.8132 18.0783C16.1669 18.12 17.3475 18.1415 17.3475 18.1415H17.3487Z" fill="#E8E9E9"/>
<path fill-rule="evenodd" clip-rule="evenodd" d="M23.5058 20.0765C23.5122 19.7478 23.9381 19.0096 24.7838 17.8594C24.871 18.8605 24.8356 19.5443 24.6776 19.9122C24.5929 19.9867 24.5373 20.036 24.5082 20.0588L23.5058 20.0778V20.0765Z" fill="#FEC900"/>
<path fill-rule="evenodd" clip-rule="evenodd" d="M22.9852 17.79C22.9852 17.79 22.9801 18.4814 22.9687 19.8643C22.9687 19.8643 23.0572 19.777 23.2342 19.6039C23.2342 19.6039 23.2607 18.7089 23.3138 16.9203C23.3138 16.1935 23.9079 16.0039 24.4439 15.6639C23.9762 15.8067 23.5477 15.9799 23.1609 16.1834C23.0168 16.4059 22.9485 16.6688 22.965 16.9342L22.9864 17.7913L22.9852 17.79Z" fill="#D3D5D5"/>
<path d="M26.6951 9.86322H25.6396V12.4836H26.6951V9.86322Z" fill="black"/>
<path d="M26.6951 12.6479H25.6396V13.5176H26.6951V12.6479Z" fill="black"/>
<path d="M24.4476 9.73055C24.5121 9.62816 24.6144 9.54347 24.756 9.47648C24.9026 9.40696 25.0897 9.35766 25.3172 9.32859C25.4436 9.32353 25.5688 9.32227 25.6927 9.32227C25.8102 9.32353 25.9303 9.32606 26.0516 9.33238C26.0908 9.35892 26.1098 9.4019 26.1073 9.46258L26.2071 13.711C26.1907 13.7502 26.1566 13.783 26.1047 13.8096C26.039 13.845 25.948 13.869 25.8304 13.8829L24.4741 13.8728L24.4729 14.0321L25.8431 14.0434H25.8456C25.9834 14.027 26.0946 13.9967 26.1793 13.9524C26.2728 13.9031 26.3348 13.8349 26.3626 13.7514L26.3664 13.7388L26.2653 9.4689C26.2703 9.33491 26.2198 9.24011 26.1111 9.18449L26.0959 9.1769L26.0782 9.17564C25.9518 9.16932 25.8229 9.16553 25.6927 9.16426C25.5637 9.163 25.4348 9.16553 25.3071 9.17058L25.3008 9.17185C25.0543 9.20345 24.8495 9.2578 24.6878 9.33491C24.5184 9.41454 24.3932 9.51946 24.3123 9.64839L24.4476 9.73308V9.73055Z" fill="black"/>
<path fill-rule="evenodd" clip-rule="evenodd" d="M17.3487 19.8215C17.3487 19.8215 18.5256 19.8 20.8792 19.7583C21.1156 19.7507 21.2382 19.8392 21.2483 20.0212C21.2483 20.0212 21.5264 20.0098 22.0838 19.987C22.3973 19.9997 22.5477 19.69 22.5376 19.058C19.0779 19.1149 17.3487 19.1427 17.3487 19.1427C17.3487 19.1427 15.6145 19.1149 12.1548 19.058C12.1447 19.69 12.2951 19.9997 12.6086 19.987C13.166 20.0098 13.4441 20.0212 13.4441 20.0212C13.4542 19.8392 13.5769 19.7507 13.8132 19.7583C16.1669 19.8012 17.3475 19.8215 17.3475 19.8215H17.3487Z" fill="#E8E9E9"/>
<path fill-rule="evenodd" clip-rule="evenodd" d="M17.3487 21.4188C17.3487 21.4188 18.5256 21.3973 20.8792 21.3556C21.1156 21.3493 21.2382 21.4365 21.2483 21.6185C21.2483 21.6185 21.5264 21.6072 22.0838 21.5844C22.3973 21.597 22.5477 21.2874 22.5376 20.6553C19.0779 20.7122 17.3487 20.74 17.3487 20.74C17.3487 20.74 15.6145 20.7122 12.1548 20.6553C12.1447 21.2874 12.2951 21.597 12.6086 21.5844C13.166 21.6072 13.4441 21.6185 13.4441 21.6185C13.4542 21.4365 13.5769 21.348 13.8132 21.3556C16.1669 21.3986 17.3475 21.4188 17.3475 21.4188H17.3487Z" fill="#E8E9E9"/>
<path fill-rule="evenodd" clip-rule="evenodd" d="M17.3488 18.5533C17.0504 18.5508 16.7483 18.5407 16.45 18.5217C16.1656 18.2828 15.9811 17.9921 15.8989 17.6521C16.0392 17.216 16.2731 16.8582 16.5992 16.5776C16.5992 16.5776 16.852 16.5764 17.3488 16.5726C17.8455 16.5764 18.0945 16.5776 18.0945 16.5776C18.4207 16.857 18.6545 17.216 18.7948 17.6521C18.7114 17.9921 18.5281 18.2828 18.2437 18.5217C17.9454 18.5407 17.6471 18.552 17.3488 18.5533Z" fill="#353043"/>
<path fill-rule="evenodd" clip-rule="evenodd" d="M11.9653 23.3704C10.6343 23.4753 9.5194 23.603 9.75451 22.0292C10.0111 22.0596 10.2677 22.0975 10.5218 22.1392C12.452 22.4135 12.2864 23.4045 11.964 23.3691L11.9653 23.3704Z" fill="#FEFEFE"/>
<path fill-rule="evenodd" clip-rule="evenodd" d="M22.7298 23.3704C24.0608 23.4753 25.1757 23.603 24.9406 22.0292C24.684 22.0596 24.4274 22.0975 24.1733 22.1392C22.2431 22.4135 22.4087 23.4045 22.731 23.3691L22.7298 23.3704Z" fill="#FEFEFE"/>
<path fill-rule="evenodd" clip-rule="evenodd" d="M17.3854 17.5673C17.5156 17.566 17.6471 17.5647 17.7773 17.5635C17.8253 17.5635 17.8746 17.5622 17.9226 17.5622C17.9694 17.5622 18.0149 17.5622 18.063 17.5622C18.1287 17.5647 18.2045 17.5584 18.2589 17.585C18.288 17.5989 18.2981 17.6203 18.3044 17.6532C18.3044 17.6557 18.3044 17.6583 18.3056 17.6595C18.3044 17.705 18.2753 17.7594 18.2551 17.8036C18.2247 17.8656 18.1742 17.9224 18.1211 17.973C18.0314 18.0602 17.8557 18.1614 17.6698 18.2119C17.6446 18.2182 17.6142 18.2296 17.5864 18.2359C17.5649 18.241 17.5725 18.2511 17.5864 18.2498C17.6167 18.2473 17.6496 18.2397 17.6762 18.2334C17.8923 18.179 18.0402 18.0931 18.1426 18.0097C18.2045 17.9604 18.2677 17.8896 18.3094 17.815C18.3372 17.7644 18.3663 17.6835 18.3701 17.6545C18.3752 17.6153 18.3802 17.5951 18.3777 17.5331C18.3726 17.4282 18.3398 17.3448 18.2778 17.25C18.274 17.2437 18.2677 17.2373 18.2627 17.231C18.2614 17.2285 18.2589 17.2222 18.2614 17.2171L18.2627 17.2159C18.2677 17.2133 18.2766 17.2209 18.2804 17.226C18.3309 17.2816 18.3587 17.3271 18.3865 17.3852C18.4219 17.4611 18.4321 17.5154 18.4371 17.5824C18.4384 17.5951 18.4523 17.6014 18.4523 17.5799C18.4561 17.5078 18.4396 17.4333 18.4106 17.3663C18.3764 17.2892 18.3398 17.2462 18.293 17.1893C18.293 17.1893 18.293 17.188 18.2917 17.188C18.2349 17.1299 18.1679 17.0755 18.0996 17.0313C17.9934 16.9643 17.886 16.9201 17.7697 16.8885C17.7217 16.8758 17.6724 16.8657 17.6231 16.8594C17.6079 16.8581 17.5902 16.8581 17.575 16.8581C17.5637 16.8581 17.5523 16.8695 17.575 16.8746C17.6054 16.8809 17.6357 16.8885 17.666 16.8973C17.7811 16.9302 17.8936 16.9744 17.9947 17.0389C18.0794 17.092 18.1198 17.1198 18.221 17.2449C18.2323 17.2626 18.2601 17.3043 18.2753 17.3385C18.2854 17.3625 18.2993 17.3991 18.3006 17.4269V17.4282C18.2981 17.456 18.2917 17.4737 18.2703 17.4876C18.226 17.5142 18.1856 17.5167 18.1236 17.5192C18.0806 17.5217 18.0364 17.5218 17.9934 17.523C17.929 17.5243 17.8658 17.5255 17.8013 17.5268C17.6635 17.5293 17.5232 17.5306 17.3854 17.5319C17.3703 17.5319 17.3564 17.5319 17.3412 17.5319C17.1996 17.5331 17.058 17.5331 16.9165 17.5344C16.8507 17.5344 16.7888 17.5344 16.7243 17.5344C16.6814 17.5344 16.6371 17.5344 16.5941 17.5331C16.5322 17.5319 16.4918 17.5293 16.4475 17.5041C16.426 17.4914 16.4197 17.4737 16.4159 17.4459V17.4446C16.4159 17.4168 16.4298 17.3789 16.4399 17.3562C16.4538 17.322 16.4804 17.2791 16.4918 17.2614C16.5891 17.135 16.6308 17.1071 16.713 17.0515C16.8128 16.9858 16.9253 16.939 17.0391 16.9049C17.0694 16.8961 17.0998 16.8872 17.1301 16.8796C17.1528 16.8746 17.1415 16.8619 17.1301 16.8632C17.1149 16.8645 17.0985 16.8632 17.0833 16.8657C17.0328 16.872 16.9835 16.8834 16.9367 16.8973C16.8204 16.9314 16.713 16.977 16.6093 17.0465C16.5411 17.0907 16.4753 17.1476 16.4197 17.2057C16.4197 17.2057 16.4197 17.207 16.4184 17.207C16.3717 17.2652 16.3363 17.3081 16.3034 17.3865C16.2756 17.4535 16.2604 17.5293 16.2655 17.6014C16.2668 17.6229 16.2807 17.6153 16.2819 17.6039C16.287 17.5369 16.2946 17.4826 16.33 17.4055C16.3565 17.3473 16.3831 17.3018 16.4323 17.2449C16.4361 17.2399 16.445 17.2335 16.45 17.2348L16.4513 17.2361C16.4538 17.2411 16.4513 17.2462 16.45 17.25C16.4463 17.2563 16.4399 17.2626 16.4361 17.2702C16.3767 17.3663 16.3451 17.4497 16.3413 17.5546C16.3401 17.6166 16.3464 17.6368 16.3514 17.6747C16.3552 17.7038 16.3856 17.7847 16.4159 17.834C16.4589 17.9073 16.5246 17.9755 16.5866 18.0248C16.6902 18.107 16.8406 18.1904 17.058 18.2397C17.0846 18.246 17.1175 18.2536 17.1478 18.2549C17.1617 18.2562 17.1693 18.2448 17.1478 18.241C17.12 18.2347 17.0896 18.2246 17.0644 18.2182C16.8773 18.1715 16.7003 18.0729 16.608 17.9869C16.555 17.9364 16.5019 17.882 16.4715 17.8201C16.45 17.7771 16.421 17.7227 16.4184 17.6772C16.4184 17.676 16.4184 17.6734 16.4184 17.6709C16.4235 17.638 16.4336 17.6178 16.4627 17.6026C16.5158 17.5748 16.5929 17.5799 16.6586 17.5761C16.7054 17.5761 16.7509 17.5748 16.7989 17.5736C16.847 17.5736 16.8962 17.5736 16.9443 17.5723C17.0783 17.571 17.2123 17.5698 17.3462 17.5685C17.3614 17.5685 17.3766 17.5685 17.3905 17.5685L17.3854 17.5673ZM17.3842 17.5192C17.4764 17.518 17.57 17.518 17.661 17.5154C17.7267 17.5142 17.7937 17.5129 17.8607 17.5104C17.9201 17.5078 17.9795 17.5053 18.0389 17.5015C18.0958 17.4977 18.1729 17.4876 18.1856 17.4775C18.1944 17.4712 18.1919 17.4623 18.183 17.456C18.1704 17.4459 18.1552 17.4383 18.1401 17.432C18.1337 17.4295 18.1249 17.4307 18.1198 17.4358C18.1085 17.4446 18.1021 17.4472 18.0882 17.4522C18.0326 17.4674 17.9934 17.4737 17.9201 17.48C17.8658 17.4851 17.8101 17.4889 17.7558 17.4901C17.6319 17.4952 17.5561 17.4965 17.3842 17.499C17.369 17.499 17.3538 17.499 17.3374 17.499C17.1604 17.5003 17.0846 17.5003 16.9594 17.4977C16.9051 17.4965 16.8495 17.4939 16.7951 17.4901C16.7218 17.4851 16.6814 17.48 16.627 17.4649C16.6131 17.4611 16.6068 17.4585 16.5954 17.4497C16.5904 17.4459 16.5802 17.4446 16.5739 17.4459C16.5588 17.4522 16.5436 17.4598 16.5309 17.4699C16.5234 17.4762 16.5196 17.4851 16.5297 17.4914C16.5423 17.5003 16.6194 17.5091 16.6763 17.5116C16.737 17.5154 16.7951 17.5167 16.8558 17.518C16.9215 17.5192 16.9885 17.5192 17.0555 17.5192C17.1491 17.5192 17.2439 17.518 17.3387 17.518C17.3538 17.518 17.369 17.518 17.3842 17.518V17.5192ZM17.3816 17.4699C17.5712 17.4674 17.7735 17.4687 17.9593 17.4484C18.0528 17.4383 18.0794 17.3878 18.0832 17.3549C18.0946 17.2475 17.934 17.1071 17.8493 17.0629C17.7356 17.0022 17.6319 16.9542 17.4967 16.9188C17.479 16.9137 17.4676 16.8948 17.4676 16.8784C17.4676 16.8645 17.4891 16.8468 17.503 16.8442C17.5447 16.8341 17.5902 16.8354 17.6344 16.8417C17.7052 16.8518 17.7748 16.8645 17.8443 16.8847C17.9365 16.9112 18.0377 16.958 18.1249 17.0123C18.2399 17.0831 18.3385 17.1716 18.4106 17.2841C18.4611 17.3637 18.5003 17.4674 18.5003 17.5546C18.5016 17.6633 18.4599 17.7695 18.4004 17.863C18.3436 17.9528 18.2652 18.0248 18.178 18.0893C18.0996 18.1474 18.0111 18.1917 17.9201 18.2283C17.8417 18.2599 17.7583 18.2789 17.6749 18.2928C17.6218 18.3017 17.57 18.3055 17.5169 18.2979C17.503 18.2953 17.4802 18.2802 17.479 18.2663C17.4777 18.2511 17.4891 18.2321 17.503 18.2271C17.5472 18.2132 17.6218 18.1892 17.6749 18.1664C17.7432 18.1361 17.8127 18.1045 17.8746 18.064C17.9365 18.0223 17.996 17.9743 18.0364 17.9161C18.0592 17.8845 18.0819 17.8403 18.0844 17.8074C18.0857 17.7872 18.0857 17.7619 18.0756 17.7455C18.0351 17.6798 17.9214 17.6835 17.8367 17.6798C17.7596 17.676 17.6837 17.6772 17.6066 17.6747C17.5283 17.6734 17.4373 17.6734 17.3589 17.6734C17.2805 17.6747 17.1882 17.676 17.1111 17.6798C17.034 17.6823 16.9582 17.6835 16.8811 17.6886C16.7964 17.6937 16.6826 17.6911 16.6434 17.7581C16.6333 17.7758 16.6333 17.7998 16.6346 17.8213C16.6371 17.8542 16.6611 17.8972 16.6839 17.9288C16.7256 17.9869 16.7863 18.0337 16.8482 18.0741C16.9102 18.1146 16.9809 18.1449 17.0492 18.174C17.1036 18.1967 17.1781 18.2195 17.2224 18.2321C17.2375 18.2359 17.2489 18.2549 17.2476 18.2701C17.2464 18.284 17.2236 18.3004 17.2097 18.3029C17.1566 18.3118 17.1048 18.3092 17.0517 18.3017C16.9683 18.289 16.8849 18.2713 16.8052 18.241C16.7142 18.2069 16.6245 18.1639 16.5448 18.107C16.4576 18.0451 16.378 17.973 16.3186 17.8845C16.2579 17.7923 16.2149 17.6861 16.2137 17.5774C16.2124 17.4889 16.2491 17.3852 16.2996 17.3043C16.3704 17.1906 16.4665 17.0996 16.5802 17.0275C16.6675 16.9719 16.7673 16.9239 16.8596 16.8948C16.9291 16.8733 16.9974 16.8594 17.0682 16.848C17.1124 16.8417 17.1566 16.8379 17.1996 16.848C17.2135 16.8518 17.235 16.8682 17.235 16.8821C17.235 16.8986 17.2236 16.9175 17.2072 16.9226C17.0719 16.9605 16.9708 17.0098 16.8571 17.073C16.7736 17.1198 16.6144 17.2626 16.6283 17.3701C16.6321 17.4029 16.6599 17.4522 16.7534 17.4611C16.9418 17.4788 17.1453 17.4737 17.3374 17.4725C17.3526 17.4725 17.3665 17.4725 17.3816 17.4725V17.4699Z" fill="#D3D5D5"/>
</svg>
