<svg width="33" height="33" viewBox="0 0 33 33" fill="none" xmlns="http://www.w3.org/2000/svg">
<path d="M16.5 33C25.6127 33 33 25.6127 33 16.5C33 7.3873 25.6127 0 16.5 0C7.3873 0 0 7.3873 0 16.5C0 25.6127 7.3873 33 16.5 33Z" fill="#C80000"/>
<path d="M8.91286 9.29974L18.4395 18.8247L17.8247 19.4395L8.29982 9.91454L8.91286 9.29974Z" fill="#999999"/>
<path d="M8.95494 9.34008L8.4119 8.54129L7.46246 8L7.23123 8.23123L7 8.46071L7.53954 9.4119L8.33833 9.95494C8.33833 9.95494 9.44718 10.7467 9.59607 10.5978C9.74497 10.4489 8.95319 9.34008 8.95319 9.34008H8.95494Z" fill="#5E9EA7"/>
<path d="M7.46246 8L7.23123 8.23123L7 8.46071L7.54129 9.4119L8.4119 8.54129L7.46246 8Z" fill="#1A1A1A"/>
<path d="M24.3868 22.7137C23.9489 22.2758 22.5126 20.8396 21.8435 20.1705C21.1744 19.5031 20.4861 19.4996 19.2162 18.5188C17.9568 17.5466 17.5295 16.5413 17.5295 16.5413L16.5363 17.5344L15.5432 18.5275C15.5432 18.5275 16.5486 18.9566 17.5207 20.216C18.5016 21.4859 18.5033 22.1742 19.1724 22.8433C19.8415 23.5124 21.2778 24.9487 21.7157 25.3866C22.1535 25.8245 23.2062 26.5233 24.3658 25.3638C25.5253 24.2043 24.8264 23.1516 24.3885 22.7137H24.3868Z" fill="#1A1A1A"/>
<path d="M24.087 23.4105C23.6823 22.8447 19.5255 19.3062 18.9159 19.9141C18.3063 20.5237 21.8465 24.6805 22.4106 25.0852C22.9852 25.4951 23.5352 25.0659 23.8015 24.7996C24.0677 24.5334 24.4952 23.9816 24.0852 23.4088L24.087 23.4105Z" fill="#CCCCCC"/>
<path d="M17.5297 16.5413L17.3142 16.3258L16.4121 16.1822L16.1037 16.4905L15.4468 15.8318L14.832 16.4467L15.4906 17.1054L15.1823 17.4119L15.326 18.3141L15.5414 18.5295C15.5414 18.5295 15.8095 18.6451 16.2018 18.9289L17.9273 17.2035C17.6435 16.8111 17.5279 16.5431 17.5279 16.5431L17.5297 16.5413Z" fill="#CCCCCC"/>
<path d="M8.18408 22.7712C8.80588 22.1494 9.81302 22.1494 10.4331 22.7712C11.0549 23.393 11.0549 24.3983 10.4331 25.0201C9.81127 25.6419 8.80413 25.6419 8.18408 25.0201C7.56228 24.3983 7.56228 23.3912 8.18408 22.7712ZM7.83202 25.3722C8.64824 26.1884 9.96891 26.1884 10.7851 25.3722C11.7205 24.4369 11.5541 22.9165 13.1515 21.3209L19.4676 15.0048C21.065 13.4074 22.4942 13.3828 23.7081 12.8276C24.7187 12.0744 25.055 9.97958 24.449 9.32801L23.2614 11.4246C22.2928 11.3703 21.678 10.9692 21.0632 10.202L22.2245 8.04237C21.5957 7.93903 20.5921 8.26832 19.7285 9.68532C19.2486 11.0253 19.7969 12.1392 18.1994 13.7367L11.8833 20.0527C10.2859 21.6502 8.76734 21.482 7.83202 22.4191C7.01579 23.2353 7.01579 24.556 7.83202 25.3722Z" fill="#999999"/>
<path d="M11.9416 20.7682C11.84 20.6666 11.84 20.5019 11.9416 20.4003L18.5474 13.7945C18.649 13.6929 18.8137 13.6929 18.9153 13.7945L19.411 14.2903C19.5127 14.3919 19.5127 14.5565 19.411 14.6581L12.8053 21.2639C12.7037 21.3655 12.539 21.3655 12.4374 21.2639L11.9416 20.7682Z" fill="#CCCCCC"/>
<path d="M7.87932 23.9516C7.87757 23.9148 7.87757 23.878 7.87932 23.8412L8.1596 23.589L8.04224 23.2281C8.05975 23.1966 8.07902 23.1651 8.09829 23.1353L8.46791 23.0565L8.54674 22.6868C8.57827 22.6676 8.60805 22.6483 8.63958 22.6308L9.00044 22.7481L9.25269 22.4679C9.28947 22.4661 9.32626 22.4661 9.36304 22.4679L9.61529 22.7481L9.97615 22.6308C10.0077 22.6483 10.0392 22.6676 10.069 22.6868L10.1478 23.0565L10.5174 23.1353C10.5367 23.1651 10.556 23.1966 10.5735 23.2281L10.4561 23.589L10.7364 23.8412C10.7382 23.878 10.7382 23.9148 10.7364 23.9516L10.4561 24.2038L10.5735 24.5647C10.556 24.5962 10.5367 24.6278 10.5174 24.6575L10.1478 24.7364L10.069 25.106C10.0375 25.1253 10.0077 25.1445 9.97615 25.1603L9.61529 25.0429L9.36304 25.3232C9.32626 25.325 9.28947 25.325 9.25269 25.3232L9.00044 25.0429L8.63958 25.1603C8.60805 25.1428 8.57652 25.1253 8.54674 25.106L8.46791 24.7364L8.09829 24.6575C8.07902 24.626 8.05975 24.5962 8.04224 24.5647L8.1596 24.2038L7.87932 23.9516ZM10.4334 25.0219C11.0552 24.4 11.0552 23.3928 10.4334 22.7727C9.81149 22.1508 8.80424 22.1508 8.18413 22.7727C7.56226 23.3945 7.56226 24.4 8.18413 25.0219C8.80599 25.6438 9.81324 25.6438 10.4334 25.0219Z" fill="#353F48"/>
</svg>
