<svg width="21" height="13" viewBox="0 0 21 13" fill="none" xmlns="http://www.w3.org/2000/svg">
<path d="M18.1563 9.67004H20.3438C20.706 9.67004 21 9.37604 21 9.01379V1.57629C21 1.21404 20.706 0.920044 20.3438 0.920044H18.1563C17.794 0.920044 17.5 1.21404 17.5 1.57629V9.01379C17.5 9.37604 17.794 9.67004 18.1563 9.67004Z" fill="#940000"/>
<path d="M0.656248 9.67004H2.84376C3.20601 9.67004 3.50002 9.37604 3.50002 9.01379V1.57629C3.50002 1.21404 3.20601 0.920044 2.84376 0.920044H0.656248C0.293996 0.920044 -5.72205e-06 1.21404 -5.72205e-06 1.57629V9.01379C-5.72205e-06 9.37604 0.293996 9.67004 0.656248 9.67004Z" fill="#940000"/>
<path d="M4.375 2.4863V8.23505C4.80375 8.5588 5.3725 8.6463 5.88 8.4713L6.04625 8.41005C5.53 7.39505 5.7225 6.15255 6.53625 5.3213L9.485 2.37255L7.14 1.55005L4.375 2.4863Z" fill="black"/>
<path d="M11.4888 6.40629L8.40005 9.44254V9.45129C8.4788 9.73129 8.62755 9.98504 8.83755 10.195C9.21381 10.5625 9.71255 10.7463 10.2026 10.72L13.4926 7.43004C13.5713 7.50004 13.6063 7.59629 13.6063 7.69254C13.6063 7.80629 13.5538 7.92879 13.4401 7.99879L10.3163 11.0613C10.4038 11.2713 10.5263 11.4638 10.6926 11.63C11.0513 11.9888 11.5238 12.1638 11.9963 12.1638C12.4513 12.1638 12.9063 11.9975 13.2563 11.6563L15.1813 9.91504C15.6013 9.53004 16.0913 9.25879 16.6338 9.09254C16.6251 9.06629 16.6251 9.04004 16.6251 9.01379V1.66379L14.3763 0.736286C13.7288 0.465036 13.0026 0.517536 12.4076 0.841286L12.5476 0.911286C13.3001 1.28754 13.8338 2.00504 13.9826 2.86254C14.1138 3.69379 13.8338 4.55129 13.2388 5.15504C12.8013 5.59254 12.2151 5.86379 11.5938 5.91629C11.6376 5.97754 11.6551 6.03879 11.6551 6.10004C11.6551 6.22254 11.6026 6.33629 11.4888 6.40629Z" fill="black"/>
<path d="M6.87757 8.13006C6.94757 8.27006 7.03507 8.39256 7.14882 8.50631C7.49007 8.84755 7.89257 9.04005 8.31257 9.07505L11.4713 5.92506H11.3663C10.9463 5.92506 10.5263 5.82006 10.1588 5.63632L9.87882 5.48757L8.37382 4.72632L7.15757 5.94256C7.15757 5.94256 7.15757 5.94256 7.14882 5.95131C6.57132 6.53756 6.47507 7.43881 6.87757 8.13006Z" fill="black"/>
<path d="M5.30244 1.00753C5.31119 1.00753 5.31994 0.998783 5.33744 0.998783L7.34119 0.176283C7.96244 -0.0774672 8.66244 -0.0599673 9.26619 0.246283L11.6549 1.44503L12.1537 1.69003C12.6612 1.94378 13.0199 2.43378 13.1162 2.99378C13.2037 3.55378 13.0199 4.13128 12.6174 4.53378C12.2762 4.87503 11.8212 5.05003 11.3662 5.05003C11.0949 5.05003 10.8149 4.98878 10.5612 4.85753L10.2724 4.70878L9.02119 4.07878L5.53869 2.32878L4.37494 2.81003V1.57628C4.37494 1.51503 4.37494 1.45378 4.35744 1.40128L5.30244 1.00753Z" fill="black"/>
</svg>
