<svg width="33" height="33" viewBox="0 0 33 33" fill="none" xmlns="http://www.w3.org/2000/svg">
<path d="M16.5 33C25.6127 33 33 25.6127 33 16.5C33 7.3873 25.6127 0 16.5 0C7.3873 0 0 7.3873 0 16.5C0 25.6127 7.3873 33 16.5 33Z" fill="#C80000"/>
<path d="M5 15.0707V16.9238C5 17.0911 5.12035 17.2359 5.28812 17.2619L7.34625 17.5898C7.45793 18.2333 7.62111 18.8545 7.84905 19.446L6.22488 20.7632C6.09587 20.8636 6.0617 21.0498 6.14329 21.1951L7.07139 22.8019C7.15757 22.9473 7.32942 23.0105 7.48393 22.9508L9.43906 22.1992C9.84752 22.6974 10.3029 23.1512 10.797 23.5607L10.0495 25.5107C9.98928 25.6668 10.0535 25.8417 10.1999 25.9274L11.8072 26.8539C11.949 26.936 12.1336 26.9059 12.2371 26.7718L13.5517 25.1538C14.1448 25.3766 14.768 25.5449 15.4079 25.6489L15.7389 27.7096C15.7603 27.8774 15.9067 28.0003 16.0739 28.0003H17.9306C18.0984 28.0003 18.2402 27.8774 18.2616 27.7096L18.5925 25.6489C19.233 25.5449 19.8516 25.3766 20.4487 25.1538L21.7593 26.7718C21.871 26.9059 22.0515 26.936 22.1932 26.8539L23.8047 25.9274C23.9464 25.8417 24.0066 25.6668 23.951 25.5107L23.2034 23.5607C23.6976 23.1517 24.153 22.6979 24.5614 22.1992L26.5125 22.9508C26.6716 23.01 26.8434 22.9467 26.925 22.8019L27.8572 21.1951C27.9388 21.0498 27.9046 20.8636 27.7756 20.7632L26.1514 19.446C26.3748 18.8545 26.5425 18.2333 26.6496 17.5898L28.7164 17.2619C28.8796 17.2359 29 17.0911 29 16.9238V15.0707C29 14.9029 28.8796 14.7616 28.7164 14.7356L26.6496 14.4083C26.542 13.7688 26.3748 13.1472 26.1514 12.5516L27.7756 11.239C27.9046 11.1309 27.9388 10.9452 27.8572 10.7999L26.925 9.19664C26.8434 9.05488 26.6716 8.98756 26.5125 9.05131L24.5614 9.79531C24.1535 9.30016 23.6976 8.84274 23.2034 8.43682L23.951 6.48782C24.0066 6.33127 23.9469 6.15279 23.8047 6.0712L22.1932 5.14463C22.0515 5.05896 21.871 5.09619 21.7593 5.22316L20.4487 6.84886C19.8516 6.62194 19.2325 6.45824 18.5925 6.35065L18.2616 4.28589C18.2402 4.1222 18.0984 4.00287 17.9306 4.00287H16.0739C15.9062 4.00287 15.7603 4.12169 15.7389 4.28589L15.4079 6.35065C14.768 6.45824 14.1448 6.62245 13.5517 6.84886L12.2371 5.22316C12.1341 5.09619 11.949 5.05947 11.8072 5.14463L10.1999 6.0712C10.0535 6.15279 9.98928 6.33178 10.0495 6.48782L10.797 8.43682C10.3029 8.84274 9.84752 9.30016 9.43906 9.79531L7.48393 9.05131C7.32942 8.98756 7.15706 9.05488 7.07139 9.19664L6.14329 10.7999C6.0617 10.9452 6.09587 11.1309 6.22488 11.239L7.84905 12.5516C7.62111 13.1472 7.45793 13.7688 7.34625 14.4083L5.28812 14.7356C5.12035 14.7616 5 14.9034 5 15.0707Z" fill="black"/>
<path d="M8.67828 15.998C8.67828 20.5931 12.4039 24.3188 17.0016 24.3188C21.5951 24.3188 25.3167 20.5937 25.3167 15.998C25.3167 11.403 21.5951 7.67731 17.0016 7.67731C12.4034 7.67731 8.67828 11.4024 8.67828 15.998Z" fill="white"/>
<path d="M17.002 27.9974H16.0739C15.9062 27.9974 15.7603 27.8745 15.7389 27.7067L15.4079 25.6461C14.768 25.542 14.1448 25.3738 13.5517 25.1509L12.2371 26.769C12.1729 26.8531 12.078 26.8964 11.975 26.8964C11.9189 26.8964 11.8592 26.8811 11.8072 26.8511L10.1999 25.9245C10.0882 25.8602 10.028 25.7455 10.028 25.6267C10.028 25.5874 10.0367 25.5466 10.0495 25.5079L10.797 23.5578C10.3029 23.1489 9.84752 22.695 9.43906 22.1963L7.48393 22.948C7.44518 22.9633 7.40642 22.9699 7.36818 22.9699C7.25242 22.9699 7.13615 22.9077 7.07139 22.7991L6.14329 21.1922C6.11321 21.1387 6.09587 21.08 6.09587 21.0214C6.09995 20.922 6.14329 20.824 6.22488 20.7603L7.84905 19.4431C7.62111 18.8516 7.45793 18.2305 7.34625 17.5869L5.28812 17.259C5.12035 17.233 5 17.0882 5 16.9209V15.0678C5 14.9 5.12035 14.7588 5.28812 14.7328L7.34625 14.4054C7.45793 13.7659 7.62111 13.1443 7.84905 12.5487L6.22488 11.2361C6.14329 11.1673 6.10046 11.0683 6.09587 10.9679C6.09587 10.9092 6.11321 10.8506 6.14329 10.797L7.07139 9.19377C7.13615 9.08821 7.24783 9.02447 7.36359 9.02447C7.40693 9.02447 7.44518 9.03212 7.48393 9.04844L9.43906 9.79244C9.84752 9.29729 10.3029 8.83987 10.797 8.43396L10.0495 6.48495C10.0367 6.44569 10.028 6.4054 10.028 6.36512C10.028 6.24528 10.0882 6.12952 10.1999 6.06833L11.8072 5.14176C11.8587 5.11066 11.9189 5.09587 11.975 5.09587C12.0739 5.09587 12.1729 5.14023 12.2371 5.22029L13.5517 6.84599C14.1448 6.61907 14.768 6.45538 15.4079 6.34778L15.7389 4.28302C15.7603 4.11933 15.9067 4 16.0739 4H17.002V7.67669C12.4039 7.67669 8.67873 11.4018 8.67873 15.9974C8.67873 20.5925 12.4044 24.3182 17.002 24.3182V27.9969V27.9974Z" fill="black"/>
<path d="M17.0021 24.3188C12.4039 24.3188 8.67877 20.5937 8.67877 15.998C8.67877 11.403 12.4044 7.67731 17.0021 7.67731V8.23314C12.7094 8.23314 9.23257 11.7094 9.23257 15.9975C9.23257 20.2862 12.7089 23.7619 17.0021 23.7619V24.3178V24.3188Z" fill="white"/>
<path d="M16.9999 10.1996C13.7965 10.1996 11.1999 12.7962 11.1999 15.9997C11.1999 19.2032 13.7965 21.7998 16.9999 21.7998C20.2034 21.7998 22.8 19.2032 22.8 15.9997C22.8 12.7962 20.2034 10.1996 16.9999 10.1996ZM23.874 15.9997C23.874 19.7962 20.7965 22.8737 16.9999 22.8737C13.2034 22.8737 10.1259 19.7962 10.1259 15.9997C10.1259 12.2032 13.2034 9.12567 16.9999 9.12567C20.7965 9.12567 23.874 12.2032 23.874 15.9997Z" fill="#292827"/>
<path d="M17.0001 19.8862C17.5631 19.8862 18.096 19.7506 18.5718 19.5084C18.2051 20.4507 18.1159 21.4359 18.0985 21.694C17.7426 21.7623 17.3759 21.799 17.0001 21.799C16.6243 21.799 16.2576 21.7618 15.9017 21.694C15.8838 21.4359 15.7951 20.4507 15.4285 19.5084C15.9042 19.7501 16.4376 19.8862 17.0001 19.8862Z" fill="#B3B3B3"/>
<path d="M20.2831 14.2969C19.3575 14.1067 18.2301 13.9532 17.0001 13.9532C15.7701 13.9532 14.6426 14.1067 13.7171 14.2969C13.4815 14.811 13.3489 15.3887 13.3489 15.9991C13.3489 16.5866 13.4718 17.144 13.691 17.6437C13.7624 17.6687 13.8349 17.6952 13.9088 17.7253C14.6635 18.0282 15.1347 18.7544 15.4279 19.5086C15.9037 19.7503 16.4371 19.8864 16.9996 19.8864C17.5625 19.8864 18.0954 19.7508 18.5712 19.5086C18.8644 18.7544 19.3356 18.0282 20.0903 17.7253C20.1648 17.6952 20.2372 17.6687 20.3086 17.6437C20.5279 17.144 20.6508 16.5871 20.6508 15.9991C20.6508 15.3887 20.5182 14.811 20.2826 14.2969H20.2831ZM18.3101 15.9701C18.3101 16.6937 17.7237 17.2801 17.0001 17.2801C16.2765 17.2801 15.69 16.6937 15.69 15.9701C15.69 15.2465 16.2765 14.66 17.0001 14.66C17.7237 14.66 18.3101 15.2465 18.3101 15.9701Z" fill="black"/>
<path d="M20.3086 17.6436C20.5278 17.1439 20.6507 16.587 20.6507 15.9991C20.6507 15.3887 20.5182 14.8109 20.2826 14.2969C21.4723 14.5416 22.3259 14.8461 22.6375 14.9654C22.6987 15.301 22.7313 15.6462 22.7313 15.9996C22.7313 16.5223 22.6604 17.0286 22.5284 17.5105C22.3081 17.431 21.5222 17.2153 20.3086 17.6436Z" fill="#B3B3B3"/>
<path d="M11.4713 17.5105C11.3392 17.0286 11.2683 16.5223 11.2683 15.9996C11.2683 15.6467 11.3009 15.3015 11.3626 14.9654C11.6737 14.8461 12.5274 14.5416 13.7176 14.2969C13.482 14.8109 13.3494 15.3887 13.3494 15.9991C13.3494 16.5865 13.4723 17.1439 13.6916 17.6436C12.4779 17.2153 11.6916 17.4305 11.4713 17.5105Z" fill="#B3B3B3"/>
</svg>
