<svg width="20" height="20" viewBox="0 0 20 20" fill="none" xmlns="http://www.w3.org/2000/svg">
<path d="M10 1.6904C7.70675 1.6904 5.6286 2.62042 4.12299 4.12299C2.9688 5.27719 2.15389 6.77068 1.83581 8.43987C2.05998 8.35504 2.48106 8.20054 3.05968 8.02484C3.64132 7.84914 4.38049 7.6492 5.24386 7.47349C5.91335 7.33717 6.65859 7.20994 7.45532 7.12208C8.25507 7.0312 9.10936 6.97667 10 6.97667C10.8906 6.97667 11.7449 7.0312 12.5447 7.12208C13.3414 7.21297 14.0866 7.33717 14.7561 7.47349C15.6165 7.6492 16.3587 7.84914 16.9373 8.02484C17.5159 8.20054 17.937 8.35201 18.1612 8.43987C17.8431 6.77068 17.0282 5.27719 15.874 4.12602C14.3714 2.62345 12.2932 1.69343 9.99697 1.69343L10 1.6904ZM2.00242 12.2599C2.35989 13.5262 3.00818 14.6683 3.87155 15.6104C5.03484 16.8797 6.58588 17.7855 8.33687 18.14C8.31263 17.8582 8.25204 17.2736 8.1036 16.5798C8.00363 16.1133 7.86125 15.5983 7.66434 15.0924C7.43714 14.5077 7.1342 13.9352 6.73432 13.4656C6.40109 13.0718 5.99516 12.7507 5.50742 12.5568L5.34989 12.4962L5.19539 12.4417C4.32898 12.1357 3.61405 12.06 3.07785 12.0751C2.54468 12.0903 2.19024 12.1933 2.03271 12.2508L1.99939 12.2629L2.00242 12.2599ZM17.9976 12.2599L17.9643 12.2478C17.8098 12.1902 17.4523 12.0872 16.9221 12.0721C16.3859 12.057 15.674 12.1327 14.8046 12.4387L14.6501 12.4932L14.4926 12.5538C13.9594 12.7658 13.5262 13.1324 13.1748 13.5747C12.8204 14.023 12.5477 14.5501 12.3387 15.0894C12.1418 15.5953 11.9994 16.1103 11.8994 16.5768C11.7479 17.2705 11.6874 17.8552 11.6662 18.1369C13.4171 17.7825 14.9682 16.8737 16.1315 15.6074C16.9948 14.6653 17.6431 13.5201 18.0006 12.2569L17.9976 12.2599ZM11.2905 11.2481C11.6207 10.9179 11.8237 10.4635 11.8237 9.95759C11.8237 9.45471 11.6207 8.99727 11.2905 8.66707C10.9603 8.33687 10.5059 8.1339 10 8.1339C9.49712 8.1339 9.03968 8.33687 8.70948 8.66707C8.37927 8.99727 8.17631 9.45168 8.17631 9.95759C8.17631 10.4605 8.37927 10.9179 8.70948 11.2481C9.03968 11.5783 9.49409 11.7813 10 11.7813C10.5029 11.7813 10.9603 11.5783 11.2905 11.2481ZM20 10C20 12.7598 18.8791 15.262 17.0706 17.0706C15.262 18.8791 12.7598 20 10 20C7.24023 20 4.73796 18.8791 2.92941 17.0706C1.12087 15.262 0 12.7598 0 10C0 7.24023 1.12087 4.73796 2.92941 2.92941C4.73796 1.12087 7.24023 0 10 0C12.7598 0 15.262 1.11784 17.0706 2.92941C18.8791 4.73796 20 7.24023 20 10Z" fill="white"/>
</svg>
