<svg width="20" height="14" viewBox="0 0 20 14" fill="none" xmlns="http://www.w3.org/2000/svg">
<path d="M19.9998 13.049V0.912109L13.1797 6.85821L19.9998 13.049Z" fill="white"/>
<path d="M0.00291617 0.661133C0.00291617 0.666959 0 0.675699 0 0.681526V12.9583L6.81428 6.7733L0.00583235 0.661133H0.00291617Z" fill="white"/>
<path d="M11.2457 7.08522L19.3651 0.00873963C19.3476 0.00873963 19.3331 0 19.3185 0H0.90918L8.78391 7.06774C9.48311 7.6941 10.5407 7.70284 11.2486 7.08522H11.2457Z" fill="white"/>
<path d="M11.968 7.91278C11.4115 8.39639 10.7182 8.6382 10.0248 8.6382C9.31684 8.6382 8.6089 8.38474 8.04954 7.88365L7.63586 7.51074L0.611816 13.8851C0.635123 13.888 0.65843 13.8997 0.68465 13.8997H19.3096L12.3467 7.58066L11.968 7.90987V7.91278Z" fill="white"/>
</svg>
