<svg width="48" height="49" viewBox="0 0 48 49" fill="none" xmlns="http://www.w3.org/2000/svg">
<path d="M23.9993 47.9986C37.2538 47.9986 47.9986 37.2538 47.9986 23.9993C47.9986 10.7449 37.2538 0 23.9993 0C10.7449 0 0 10.7449 0 23.9993C0 37.2538 10.7449 47.9986 23.9993 47.9986Z" fill="#E28057"/>
<path d="M34.2998 13.6246V19.405C34.2998 25.0827 29.6961 29.7051 23.9997 29.7051C18.3034 29.7051 13.6996 25.092 13.6996 19.405V13.4005C13.8304 7.82556 18.3781 3.33386 23.9997 3.33386C26.8479 3.33386 29.4253 4.50114 31.2929 6.35012C33.1512 8.21777 34.2998 10.7858 34.2998 13.634V13.6246Z" fill="white"/>
<path d="M34.2998 13.6246V13.886C25.0362 14.493 19.1625 8.56322 19.1625 8.56322C16.8746 12.4106 15.4085 12.8682 13.7089 13.3911C13.8397 7.81616 18.3874 3.32446 24.009 3.32446C26.8572 3.32446 29.4345 4.49174 31.3022 6.34072C33.1605 8.20837 34.3091 10.7764 34.3091 13.6246H34.2998Z" fill="black"/>
<path fill-rule="evenodd" clip-rule="evenodd" d="M23.9998 32.1423C32.4509 32.1423 39.7721 38.5951 43.3393 47.9987H7.02281C4.44545 47.9987 4.23067 48.587 5.77149 45.3933C9.62818 37.4278 16.3424 32.1423 23.9904 32.1423H23.9998Z" fill="#B3B3B3"/>
</svg>
