<svg width="24" height="24" viewBox="0 0 24 24" fill="none" xmlns="http://www.w3.org/2000/svg">
<mask id="mask0" mask-type="alpha" maskUnits="userSpaceOnUse" x="0" y="0" width="24" height="24">
<circle cx="12" cy="12" r="12" fill="#C4C4C4"/>
</mask>
<g mask="url(#mask0)">
<circle cx="12" cy="12" r="12" fill="#C80000"/>
<circle cx="12" cy="12" r="12" fill="black" fill-opacity="0.2"/>
<path d="M-0.65541 31.7534C-0.65541 31.7534 1.34109 28.4668 1.79 26.2977C2.23891 24.1287 4.55761 20.687 5.31118 19.7892C6.06476 18.8914 9.0521 17.8453 9.0521 17.8453L10.1548 17.2494L18.7003 16.4985C18.7003 16.4985 24.3851 17.0971 26.1066 18.6676C27.8281 20.2381 29.1722 23.8294 29.1722 25.6237C29.1722 27.418 30.8976 42.8822 30.8976 42.8822H9.81336L10.3233 35.2732C10.3233 35.2732 7.77951 33.5531 7.10682 32.0567C6.43413 30.5603 6.80755 31.3085 6.80755 31.3085C6.80755 31.3085 4.4201 36.384 3.59778 36.9826C2.77545 37.5811 -6.78916 40.5159 -6.78916 40.5159L-8.09814 35.497L-0.65541 31.7534Z" fill="white"/>
<path d="M24.2078 19.2946C23.9773 19.366 21.1248 26.7333 20.9239 27.4033C20.723 28.0733 20.9239 32.2954 20.9239 32.2954L21.8676 34.0385C21.8676 34.0385 21.5979 35.3111 21.8002 35.915L17.578 36.7239C17.578 36.7239 16.5062 35.9865 15.5006 36.7239L10.5127 37.1458C10.5127 37.1458 11.9754 37.162 11.5399 39.4052C11.1139 41.6026 10.7891 42.0852 10.7891 42.0852L28.2938 41.6808C28.2938 41.6808 30.2391 41.5837 29.9425 37.8441C29.646 34.1046 28.8115 23.7891 28.8115 23.7891C28.8115 23.7891 27.5362 18.262 24.2078 19.2946Z" fill="white"/>
<path d="M20.8844 31.7063C20.8666 31.6781 20.8526 31.6478 20.8426 31.616L20.7361 31.3464C20.6903 31.2318 20.635 31.0903 20.5811 30.9218C20.5271 30.7532 20.4557 30.5659 20.3991 30.3515C20.3425 30.1372 20.2643 29.904 20.2117 29.6492C20.1591 29.3944 20.0957 29.1221 20.0418 28.8403C19.9325 28.2122 19.8636 27.5778 19.8356 26.9409C19.815 26.3036 19.8344 25.6656 19.8935 25.0307C19.9286 24.7395 19.9569 24.4618 20.0041 24.2043C20.0256 24.0695 20.0432 23.9508 20.0674 23.8309C20.0917 23.7109 20.116 23.599 20.1389 23.4898C20.182 23.2728 20.2373 23.0854 20.2818 22.9074C20.3263 22.7295 20.3681 22.592 20.4072 22.4734C20.4463 22.3547 20.4732 22.2711 20.4948 22.2037C20.5048 22.1717 20.5165 22.1402 20.5298 22.1094C20.5268 22.1429 20.5195 22.176 20.5083 22.2078C20.4894 22.2765 20.4638 22.3682 20.4328 22.4774C20.4018 22.5866 20.3573 22.747 20.3195 22.9142C20.2818 23.0813 20.2265 23.2782 20.1847 23.4965C20.1632 23.6057 20.1416 23.719 20.1187 23.8376C20.0957 23.9562 20.0796 24.0803 20.0594 24.2083C20.0149 24.4658 19.9879 24.7476 19.9556 25.0334C19.8362 26.2979 19.8856 27.5727 20.1025 28.8241C20.1551 29.1126 20.2036 29.3863 20.2656 29.633C20.3276 29.8797 20.3856 30.121 20.4436 30.3353C20.5015 30.5497 20.5649 30.7398 20.6161 30.9069C20.6673 31.0741 20.7172 31.2183 20.759 31.3343L20.8534 31.6039C20.866 31.6373 20.8763 31.6715 20.8844 31.7063Z" fill="#263238"/>
<path d="M13.6574 36.7156C13.6528 36.703 13.6501 36.6898 13.6493 36.6765C13.6493 36.6468 13.6385 36.6091 13.6305 36.5619C13.6156 36.4554 13.5941 36.3071 13.5671 36.1184C13.5118 35.7328 13.4404 35.1747 13.3568 34.4818C13.191 33.1 12.9928 31.1858 12.8378 29.0666C12.6828 26.9474 12.6019 25.0223 12.5682 23.6325C12.5493 22.9369 12.5399 22.3734 12.5372 21.9838C12.5372 21.7937 12.5372 21.6427 12.5372 21.5362V21.4189C12.5323 21.4179 12.5279 21.4151 12.5249 21.4111C12.522 21.4071 12.5206 21.4021 12.5211 21.3971C12.5216 21.3921 12.5239 21.3875 12.5277 21.3841C12.5314 21.3808 12.5362 21.3789 12.5412 21.3789C12.5462 21.3789 12.5511 21.3808 12.5548 21.3841C12.5585 21.3875 12.5608 21.3921 12.5613 21.3971C12.5618 21.4021 12.5605 21.4071 12.5575 21.4111C12.5545 21.4151 12.5502 21.4179 12.5453 21.4189C12.5453 21.4499 12.5453 21.4877 12.5453 21.5362C12.5453 21.6427 12.5533 21.7924 12.5601 21.9838C12.5722 22.3774 12.5897 22.9396 12.6113 23.6311C12.6612 25.0224 12.7461 26.9434 12.9038 29.0625C13.0616 31.1817 13.249 33.0933 13.4026 34.4764C13.4808 35.1639 13.5455 35.722 13.59 36.1143C13.6116 36.3044 13.6278 36.4527 13.6399 36.5606C13.6399 36.6077 13.6493 36.6455 13.652 36.6765C13.655 36.6893 13.6568 36.7024 13.6574 36.7156Z" fill="#263238"/>
<path d="M18.4722 16.5112C18.4713 16.5477 18.4686 16.5842 18.4641 16.6204C18.4547 16.6986 18.4425 16.8024 18.4277 16.9332C18.3926 17.2028 18.3441 17.5964 18.2619 18.079C18.1693 18.645 18.0432 19.205 17.8844 19.7561C17.6906 20.4329 17.4063 21.0804 17.0392 21.6811C16.8347 22.0033 16.5995 22.3049 16.3368 22.5816L16.3099 22.6113L16.2843 22.5776C15.9473 22.1281 15.509 21.7646 15.0049 21.5166C14.7896 21.4104 14.5637 21.3272 14.3309 21.2686C14.1298 21.22 13.9243 21.1924 13.7175 21.1864C13.4214 21.1758 13.1257 21.2173 12.844 21.309C12.6485 21.3778 12.5447 21.429 12.542 21.4223C12.5655 21.4071 12.5903 21.3941 12.6161 21.3832C12.6872 21.346 12.7606 21.3136 12.8359 21.2861C13.1188 21.1842 13.4182 21.1353 13.7189 21.1419C13.9294 21.1449 14.1391 21.1702 14.3444 21.2174C14.5816 21.2745 14.8121 21.3568 15.0319 21.4627C15.5475 21.7128 15.9959 22.0825 16.3395 22.5412H16.287C16.5454 22.267 16.7774 21.9691 16.9799 21.6515C17.3442 21.056 17.6284 20.415 17.8251 19.7453C17.9854 19.1973 18.1159 18.6411 18.2161 18.079C18.305 17.5991 18.3603 17.2068 18.4034 16.9372C18.4237 16.8024 18.4412 16.704 18.4533 16.6272C18.4548 16.5879 18.4612 16.549 18.4722 16.5112Z" fill="#263238"/>
<path d="M18.5873 16.596L17.2891 14.8745L15.8777 14.919L11.2915 17.3415L18.5873 16.596Z" fill="white"/>
<path d="M12.5396 21.4218C12.5149 21.4248 12.4901 21.4248 12.4654 21.4218C12.3942 21.4148 12.3235 21.4031 12.2538 21.3868C11.9983 21.3204 11.7542 21.2159 11.5299 21.0767C11.3785 20.9817 11.2121 20.9128 11.0378 20.8732C10.837 20.83 10.6293 20.83 10.4285 20.8732C10.1989 20.9252 9.98573 21.0334 9.80812 21.1879C9.63051 21.3425 9.49396 21.5386 9.41069 21.7589L9.33789 21.9557V21.7454C9.33789 21.6928 9.33789 21.6375 9.33789 21.5809C9.35407 20.5186 9.35542 19.5588 9.39856 18.8591C9.41878 18.5113 9.44574 18.2296 9.4754 18.0368C9.48753 17.9398 9.50236 17.8656 9.51314 17.8157C9.51731 17.7901 9.52362 17.7648 9.53201 17.7402C9.53875 17.7402 9.51988 17.8467 9.50236 18.0409C9.48483 18.235 9.46191 18.514 9.44843 18.8618C9.41743 19.5574 9.42552 20.5186 9.40799 21.5823C9.40799 21.6389 9.40799 21.6955 9.40799 21.7481L9.34059 21.7346C9.42804 21.5037 9.57174 21.2984 9.75865 21.1371C9.94557 20.9759 10.1698 20.8638 10.411 20.8112C10.6061 20.772 10.807 20.7717 11.0023 20.8103C11.1975 20.849 11.3832 20.9257 11.5487 21.0363C11.7682 21.1768 12.0059 21.2866 12.2551 21.3625C12.4371 21.4084 12.5409 21.4151 12.5396 21.4218Z" fill="#263238"/>
<path d="M17.289 6.53783V16.8776C17.2897 17.4694 17.081 18.0425 16.6999 18.4953C16.1156 19.1872 15.4126 19.7692 14.6238 20.2141L12.5397 21.3883L10.8142 19.8434C10.5634 19.6189 10.3603 19.3463 10.2169 19.0417C10.0736 18.7372 9.99291 18.407 9.97971 18.0706C9.95005 17.3184 9.95005 16.5594 9.95005 16.5594C9.95005 16.5594 7.02877 16.3491 6.75376 13.4683C6.61895 12.1121 6.5839 9.33375 6.57716 6.7724C6.57406 5.36369 7.10148 4.00546 8.05448 2.96803C9.00748 1.9306 10.3162 1.29003 11.7201 1.17383L11.8023 1.16709C12.5178 1.1498 13.2295 1.27604 13.8954 1.53836C14.5612 1.80068 15.1678 2.19377 15.6792 2.6944C16.1907 3.19503 16.5966 3.79307 16.8731 4.45319C17.1496 5.11332 17.291 5.82215 17.289 6.53783Z" fill="#FFBE9D"/>
<path d="M9.94189 16.5162C9.94189 16.5162 11.7766 16.5162 13.6141 15.1357C13.6141 15.1357 12.8969 17.2846 9.99717 17.263L9.94189 16.5162Z" fill="#EB996E"/>
<path d="M7.54796 8.70709C7.55592 8.81449 7.60543 8.91455 7.68598 8.98604C7.76653 9.05752 7.87177 9.0948 7.97935 9.08994C8.03191 9.08978 8.08391 9.07912 8.1323 9.05861C8.18069 9.03809 8.2245 9.00812 8.26116 8.97046C8.29782 8.93279 8.3266 8.88819 8.3458 8.83926C8.365 8.79033 8.37424 8.73806 8.37299 8.68552C8.36536 8.57824 8.31614 8.47817 8.23581 8.40666C8.15548 8.33514 8.05039 8.29782 7.94295 8.30266C7.89028 8.30265 7.83813 8.31317 7.78958 8.33361C7.74104 8.35405 7.69707 8.38399 7.66026 8.42167C7.62346 8.45935 7.59456 8.50402 7.57528 8.55303C7.55599 8.60205 7.54671 8.65443 7.54796 8.70709Z" fill="#263238"/>
<path d="M7.31342 7.93319C7.36869 7.98172 7.66122 7.72559 8.10474 7.69054C8.54825 7.65549 8.89201 7.84961 8.93515 7.79164C8.95672 7.76468 8.89741 7.67301 8.74642 7.58134C8.54259 7.46319 8.30689 7.41181 8.07238 7.4344C7.84182 7.45197 7.623 7.54318 7.44822 7.69458C7.3242 7.81051 7.28645 7.91027 7.31342 7.93319Z" fill="#263238"/>
<path d="M11.7647 8.5274C11.7727 8.6348 11.8222 8.73487 11.9027 8.80636C11.9833 8.87784 12.0885 8.91511 12.1961 8.91026C12.2487 8.91009 12.3008 8.89944 12.3493 8.87894C12.3977 8.85844 12.4416 8.82849 12.4784 8.79085C12.5152 8.7532 12.5441 8.70861 12.5634 8.65968C12.5828 8.61074 12.5922 8.55844 12.5911 8.50583C12.5831 8.39843 12.5336 8.29837 12.4531 8.22688C12.3725 8.1554 12.2673 8.11812 12.1597 8.12298C12.1071 8.12315 12.055 8.13379 12.0066 8.1543C11.9581 8.1748 11.9142 8.20474 11.8774 8.24239C11.8407 8.28003 11.8118 8.32463 11.7924 8.37356C11.7731 8.42249 11.7637 8.47479 11.7647 8.5274Z" fill="#263238"/>
<path d="M11.6768 7.6553C11.732 7.70383 12.0259 7.44769 12.4681 7.41264C12.9103 7.37759 13.2554 7.57172 13.2985 7.5124C13.3201 7.48679 13.2608 7.39377 13.1098 7.30345C12.9059 7.18542 12.6703 7.13361 12.4357 7.15516C12.2053 7.17329 11.9867 7.26443 11.8116 7.41534C11.6876 7.53127 11.6471 7.63238 11.6768 7.6553Z" fill="#263238"/>
<path d="M10.3394 11.0806C10.3394 11.055 10.0603 11.0294 9.60872 11.0092C9.49548 11.0092 9.38628 10.9944 9.36067 10.9189C9.34138 10.8026 9.35784 10.6832 9.40785 10.5765C9.49278 10.2934 9.58041 9.99814 9.67747 9.68674C10.0401 8.42089 10.2935 7.38422 10.2423 7.37074C10.1911 7.35726 9.85541 8.37101 9.49278 9.63551C9.40516 9.94826 9.32158 10.2448 9.24339 10.5293C9.18315 10.6716 9.1755 10.8307 9.22182 10.9782C9.24128 11.017 9.26939 11.0507 9.30399 11.0769C9.33858 11.1031 9.37873 11.121 9.42133 11.1292C9.48531 11.1411 9.55055 11.1447 9.61546 11.14C10.0617 11.1211 10.3407 11.0995 10.3394 11.0806Z" fill="#263238"/>
<path d="M11.6702 11.2736C11.5974 11.2736 11.6365 11.7562 11.2523 12.1323C10.8681 12.5085 10.3531 12.4977 10.3545 12.5651C10.3545 12.5947 10.4772 12.6487 10.6942 12.6365C10.9761 12.6171 11.242 12.4987 11.4451 12.3022C11.6411 12.114 11.7558 11.8566 11.7646 11.585C11.7659 11.3828 11.7026 11.2682 11.6702 11.2736Z" fill="#263238"/>
<path d="M11.4176 5.92725C11.4716 6.04454 11.9097 5.95017 12.4341 5.97039C12.9585 5.99061 13.3926 6.09711 13.4519 5.98252C13.4789 5.9286 13.3966 5.8221 13.2173 5.71291C12.979 5.58882 12.7156 5.52058 12.447 5.51334C12.1784 5.5061 11.9117 5.56005 11.667 5.67112C11.4823 5.76953 11.3947 5.87198 11.4176 5.92725Z" fill="#263238"/>
<path d="M7.37005 6.63236C7.45633 6.72673 7.75291 6.59731 8.11958 6.56226C8.48626 6.52721 8.80306 6.57305 8.86642 6.46251C8.89338 6.40858 8.83676 6.31152 8.69252 6.22794C8.50135 6.12604 8.28326 6.086 8.06836 6.11335C7.85302 6.13427 7.64973 6.22247 7.48734 6.36545C7.36601 6.48273 7.33366 6.59057 7.37005 6.63236Z" fill="#263238"/>
<path d="M13.8955 3.63377L13.9117 3.64455C14.4034 3.96797 14.7511 4.46882 14.8823 5.04251L14.8944 5.10048C15.0751 5.90933 15.125 6.75187 15.3137 7.56342C15.5024 8.37496 15.4674 8.99508 16.2803 9.18111C16.4932 9.22775 16.7152 9.20878 16.9171 9.12672C17.119 9.04466 17.2913 8.90335 17.4113 8.72142C17.4717 8.60246 17.4965 8.46858 17.4827 8.33587C17.4733 6.33801 17.875 5.56152 17.6984 3.48279C17.6765 3.20463 17.5885 2.93572 17.4417 2.69843C17.295 2.46114 17.0936 2.26233 16.8545 2.11853C16.3935 1.84218 15.8354 1.56312 15.3717 1.83139C14.9079 2.09966 14.3565 3.05679 14.0128 3.472" fill="#263238"/>
<path d="M16.4233 7.92247C16.4719 7.8982 18.3565 7.17294 18.4576 9.15057C18.5587 11.1282 16.5514 10.8195 16.546 10.7683C16.5406 10.717 16.4233 7.92247 16.4233 7.92247Z" fill="#FFBE9D"/>
<path d="M17.113 9.98372C17.1211 9.97698 17.148 10.0066 17.2073 10.0296C17.2909 10.0605 17.3833 10.0576 17.4648 10.0215C17.6697 9.93519 17.8288 9.59412 17.8207 9.23688C17.8173 9.06718 17.7758 8.90041 17.6994 8.74888C17.6781 8.68839 17.6424 8.63397 17.5955 8.5903C17.5485 8.54663 17.4916 8.515 17.4298 8.49813C17.3896 8.48945 17.3477 8.49524 17.3115 8.51448C17.2752 8.53373 17.2469 8.56518 17.2316 8.60328C17.2073 8.6599 17.2222 8.69765 17.2114 8.7017C17.2006 8.70574 17.1682 8.67069 17.179 8.58846C17.188 8.53902 17.2131 8.49397 17.2505 8.46039C17.3036 8.41742 17.3711 8.39622 17.4392 8.40107C17.5211 8.41321 17.5985 8.44608 17.6641 8.49658C17.7297 8.54707 17.7813 8.6135 17.814 8.68956C17.906 8.8547 17.9565 9.03978 17.9609 9.22879C17.969 9.63322 17.7843 10.0107 17.5026 10.1077C17.4502 10.126 17.3944 10.1323 17.3393 10.126C17.2842 10.1197 17.2313 10.101 17.1844 10.0713C17.1184 10.0309 17.1062 9.98776 17.113 9.98372Z" fill="#EB996E"/>
<path d="M15.4581 2.12952C15.8787 1.30046 14.4551 0.277263 13.4562 0.0507861C12.4573 -0.175691 11.2143 0.405331 10.2734 0.807058C9.67887 1.0605 9.0938 1.39347 8.44807 1.41909C8.01534 1.43796 7.5907 1.31528 7.17144 1.20474C6.75219 1.0942 6.31811 0.994441 5.88943 1.0605C5.46074 1.12655 5.03609 1.39078 4.90668 1.80464C4.77726 2.2185 5.05496 2.74829 5.4877 2.76986C4.91746 2.51507 4.15984 2.97342 4.12344 3.59758C4.08705 4.22174 4.7813 4.76771 5.3785 4.58572C5.08058 4.39564 4.67885 4.78254 4.74356 5.12495C4.80827 5.46736 5.14798 5.70193 5.47826 5.81651C6.33159 6.10905 7.28064 5.91492 8.10836 5.55768C8.93608 5.20044 9.68696 4.68952 10.5052 4.31206C11.3235 3.9346 12.6918 3.26595 13.5627 3.49378C14.2044 3.66229 14.7005 4.37812 15.0456 4.18265C15.2046 4.0793 15.3372 3.9401 15.4328 3.77621C15.5283 3.61233 15.5841 3.42833 15.5956 3.23899C15.612 2.86117 15.5665 2.4832 15.4608 2.12009" fill="#263238"/>
<path d="M5.24548 2.73495C5.26166 2.72417 5.35872 2.86976 5.59059 3.08545C5.91978 3.3805 6.31582 3.59101 6.74454 3.69883C7.37532 3.86919 8.04769 3.78648 8.61837 3.4683C9.2641 3.11241 9.7885 2.46264 10.4019 1.84252C11.0153 1.22241 11.7567 0.729012 12.5305 0.594204C13.3043 0.459396 14.0376 0.68048 14.469 1.0903C14.6398 1.24871 14.777 1.43996 14.8722 1.6526C14.9674 1.86524 15.0187 2.0949 15.0231 2.32783C15.0217 2.45335 15.0031 2.57809 14.9678 2.69855C14.9382 2.77809 14.9193 2.81853 14.9125 2.81584C14.9366 2.65521 14.9478 2.49293 14.9462 2.33053C14.9107 1.89201 14.7069 1.48427 14.3774 1.19275C13.9729 0.828768 13.28 0.633298 12.5628 0.770802C11.8457 0.908306 11.1379 1.36935 10.5407 1.98407C9.94353 2.5988 9.3989 3.258 8.70734 3.63007C8.19656 3.89889 7.61299 3.99669 7.04247 3.90909C6.47195 3.82149 5.94461 3.5531 5.53801 3.14342C5.45206 3.05442 5.37486 2.95736 5.30749 2.85358C5.26031 2.77809 5.24009 2.73899 5.24548 2.73495Z" fill="#455A64"/>
<path d="M16.9198 7.79509C16.9131 7.80183 16.8295 7.74791 16.7419 7.59692C16.6253 7.3805 16.5712 7.13593 16.5855 6.89053C16.5761 6.25154 17.0816 5.52358 17.0803 4.64059C17.0971 4.23087 16.9869 3.82595 16.7648 3.48124C16.5726 3.20938 16.2965 3.0081 15.9789 2.90831C15.7638 2.83827 15.5341 2.82618 15.3129 2.87326C15.1566 2.91235 15.0757 2.95549 15.0662 2.94066C15.0568 2.92583 15.1309 2.86517 15.2914 2.80585C15.5252 2.72552 15.7777 2.7166 16.0166 2.78024C16.3757 2.87162 16.692 3.08455 16.9117 3.38283C17.1655 3.75442 17.2931 4.19771 17.2757 4.64733C17.2614 5.08533 17.1673 5.51705 16.998 5.92126C16.864 6.2351 16.7733 6.56572 16.7284 6.90401C16.6664 7.48503 16.9468 7.78296 16.9198 7.79509Z" fill="#455A64"/>
<path d="M18.0662 8.98021L17.7448 8.68241C17.6279 8.57412 17.4454 8.58107 17.3371 8.69793L16.1322 9.99822C16.0239 10.1151 16.0309 10.2976 16.1477 10.4059L16.4691 10.7037C16.586 10.812 16.7685 10.805 16.8768 10.6882L18.0817 9.3879C18.19 9.27103 18.183 9.0885 18.0662 8.98021Z" fill="#263238"/>
<path d="M25.3625 18.7217C25.2853 18.7759 25.2052 18.8259 25.1225 18.8713C24.9045 19.0061 24.6959 19.1556 24.4983 19.3189C23.8514 19.8649 23.3041 20.519 22.8807 21.252C22.4611 21.9862 22.1004 22.7525 21.8022 23.5438L21.5218 24.2609L21.4436 24.4564C21.4361 24.4797 21.4257 24.5019 21.4126 24.5225C21.4151 24.498 21.421 24.4739 21.4301 24.451C21.4476 24.3984 21.4706 24.3324 21.4962 24.2515C21.5555 24.0789 21.6418 23.8309 21.7564 23.5249C22.0422 22.7244 22.3981 21.9508 22.82 21.2129C23.2459 20.473 23.8033 19.817 24.4646 19.2771C24.6665 19.1162 24.8811 18.9719 25.1063 18.8457C25.1845 18.7985 25.2506 18.7702 25.2924 18.7486C25.3146 18.7371 25.3382 18.728 25.3625 18.7217Z" fill="#263238"/>
<g opacity="0.3">
<path opacity="0.3" d="M20.086 23.8702C19.5256 25.1376 19.2671 26.5179 19.3311 27.9023C19.3823 29.2719 19.5468 30.6456 19.412 32.0112C19.2772 33.3768 18.804 34.7694 17.7862 35.6874C17.6547 35.7876 17.5431 35.9115 17.4573 36.0527C17.416 36.1243 17.3998 36.2076 17.4113 36.2894C17.4228 36.3713 17.4613 36.4469 17.5206 36.5043C17.5845 36.5401 17.6549 36.5625 17.7277 36.5701C17.8005 36.5778 17.8741 36.5705 17.9439 36.5488C18.9186 36.379 19.9054 36.2576 20.8814 36.0891C21.0904 36.0527 21.7927 35.9152 21.7927 35.9152C21.7442 35.6485 21.7243 35.3773 21.7334 35.1064C21.7644 34.8624 21.8601 34.0279 21.8601 34.0279C21.814 33.9039 21.7509 33.7869 21.6727 33.6801C21.3074 33.0298 21.0351 32.3314 20.8639 31.6054C20.5309 30.9246 20.3813 30.2398 20.2262 29.6035C19.7989 27.8362 19.811 26.0985 20.0833 23.8594" fill="black"/>
</g>
<g opacity="0.3">
<path opacity="0.3" d="M9.40022 21.8573C9.47976 22.0595 9.56064 22.2618 9.64018 22.4653C9.64831 22.4972 9.66276 22.5271 9.68267 22.5533C9.70259 22.5794 9.72757 22.6013 9.75611 22.6176C9.87609 22.6635 9.97181 22.5165 10.0257 22.4006C10.1411 22.1735 10.3105 21.9781 10.519 21.8317C10.7274 21.6853 10.9687 21.5922 11.2215 21.5608C11.6259 21.5136 12.0519 21.6322 12.455 21.5486C12.1061 21.3222 11.7325 21.1363 11.3415 20.9946C10.9471 20.8518 10.5159 20.8475 10.1187 20.9824C9.92285 21.0529 9.75029 21.1763 9.62015 21.3388C9.49 21.5013 9.40735 21.6966 9.38135 21.9032" fill="black"/>
</g>
<g opacity="0.3">
<path opacity="0.3" d="M12.7326 21.3464C13.212 21.3391 13.6907 21.3844 14.1602 21.4813C14.6333 21.5771 15.0624 21.8241 15.3829 22.185C15.7092 22.5826 15.8305 23.1043 15.9626 23.6004C15.9882 23.6961 16.034 23.8094 16.1311 23.8202C16.1911 23.82 16.2488 23.7974 16.2929 23.7568C17.1017 23.1637 17.6329 22.2564 17.924 21.2993C18.2152 20.3421 18.2826 19.3338 18.2988 18.3335C17.9133 19.0224 17.7461 19.8069 17.49 20.5538C17.2338 21.3006 16.8604 22.0528 16.1999 22.4842C16.2072 22.3993 16.1977 22.3137 16.1718 22.2325C16.1459 22.1513 16.1041 22.076 16.0489 22.0111C15.9385 21.8813 15.8056 21.7726 15.6566 21.6902C15.2094 21.4238 14.7116 21.2535 14.1949 21.1902C13.6783 21.1268 13.1541 21.1718 12.6558 21.3222" fill="black"/>
</g>
</g>
</svg>
