<svg width="20" height="21" viewBox="0 0 20 21" fill="none" xmlns="http://www.w3.org/2000/svg">
<path d="M10.0464 0C10.0409 0 10.03 0 10.0136 0C4.49113 0 0 4.49113 0 10.0136C0 12.2674 0.76944 14.4556 2.17735 16.2183L0.720327 19.6071C0.600272 19.8854 0.731241 20.2073 1.00409 20.3219C1.10232 20.3656 1.21146 20.3765 1.31514 20.3601L6.65757 19.4215C7.72714 19.809 8.85129 20.0054 9.98635 20C15.5089 20 20 15.5088 20 9.98634C20.0109 4.48021 15.5525 0.00545702 10.0464 0ZM6.61937 7.99999H9.56616C9.86629 7.99999 10.1119 8.24556 10.1119 8.54569C10.1119 8.84583 9.86629 9.09139 9.56616 9.09139H6.61937C6.31923 9.09139 6.07366 8.84583 6.07366 8.54569C6.07366 8.24556 6.31923 7.99999 6.61937 7.99999ZM13.3861 11.8199H6.61937C6.31923 11.8199 6.07366 11.5743 6.07366 11.2742C6.07366 10.9741 6.31923 10.7285 6.61937 10.7285H13.3861C13.6862 10.7285 13.9318 10.9741 13.9318 11.2742C13.9318 11.5743 13.6862 11.8199 13.3861 11.8199Z" fill="white"/>
</svg>
