<svg width="23" height="25" viewBox="0 0 23 25" fill="none" xmlns="http://www.w3.org/2000/svg">
<path d="M20.0223 11.264H14.375V6.37882H12.5268C13.0989 5.62183 13.4063 4.70055 13.4023 3.75474C13.4023 2.34822 12.7309 1.02664 11.65 0.30583L11.1914 0L10.7329 0.30583C9.65179 1.02674 8.98053 2.34828 8.98053 3.75474C8.97667 4.70056 9.28415 5.62182 9.85632 6.37877H7.80357V11.2639H2.97768C2.18822 11.2648 1.43136 11.576 0.873132 12.1293C0.314904 12.6827 0.000896815 13.4328 0 14.2153V23.3716C0.000489183 23.8033 0.173732 24.2172 0.481722 24.5225C0.789711 24.8278 1.20729 24.9995 1.64286 25H21.3571C21.7927 24.9995 22.2103 24.8278 22.5183 24.5225C22.8263 24.2172 22.9995 23.8033 23 23.3716V14.2154C22.9991 13.4329 22.6851 12.6827 22.1269 12.1294C21.5686 11.5761 20.8118 11.2648 20.0223 11.264ZM11.1914 2.07761C11.5503 2.51951 11.7595 3.11906 11.7595 3.75479C11.7595 4.39052 11.5503 4.99012 11.1914 5.43197C10.8326 4.99012 10.6234 4.39052 10.6234 3.75474C10.6234 3.11896 10.8326 2.51951 11.1914 2.07761ZM9.44643 8.0072H12.7321V11.264H9.44643V8.0072ZM1.64286 14.2154C1.64326 13.8646 1.78403 13.5283 2.03427 13.2803C2.28451 13.0323 2.62379 12.8927 2.97768 12.8923H20.0223C20.3762 12.8927 20.7155 13.0323 20.9657 13.2803C21.216 13.5283 21.3567 13.8646 21.3571 14.2154V15.8223L20.2482 16.3073C20.0313 16.4018 19.797 16.4507 19.56 16.4507C19.3231 16.4507 19.0887 16.4018 18.8719 16.3073L16.942 15.4632L15.0116 16.3072C14.7947 16.4018 14.5604 16.4506 14.3234 16.4506C14.0865 16.4506 13.8521 16.4018 13.6352 16.3072L11.7054 15.4631L9.775 16.3072C9.55812 16.4018 9.32375 16.4506 9.0868 16.4506C8.84984 16.4506 8.61548 16.4018 8.39859 16.3072L6.46875 15.4632L4.53875 16.3072C4.32187 16.4018 4.0875 16.4506 3.85055 16.4506C3.61359 16.4506 3.37923 16.4018 3.16235 16.3072L1.64286 15.6428V14.2154ZM21.3571 23.3716H1.64286V17.4226L2.49909 17.797C2.92497 17.9828 3.38517 18.0787 3.85045 18.0787C4.31573 18.0787 4.77592 17.9828 5.2018 17.797L6.46875 17.243L7.73575 17.797C8.16162 17.9828 8.62181 18.0787 9.08708 18.0787C9.55235 18.0787 10.0125 17.9828 10.4384 17.797L11.7054 17.243L12.9723 17.797C13.3981 17.9828 13.8583 18.0787 14.3236 18.0787C14.7888 18.0787 15.249 17.9828 15.6749 17.797L16.942 17.243L18.2089 17.7971C18.6348 17.9828 19.0949 18.0787 19.5602 18.0787C20.0254 18.0787 20.4856 17.9828 20.9115 17.7971L21.3578 17.6019L21.3582 23.3716H21.3571Z" fill="white"/>
</svg>
