<svg width="13" height="16" viewBox="0 0 13 16" fill="none" xmlns="http://www.w3.org/2000/svg">
<path d="M1.6001 4H6.0001H10.4001V2.4H1.6001V4Z" fill="#C80000"/>
<path d="M11.1988 16C12.0827 16 12.8 15.2832 12.8 14.4V1.6C12.8 0.7168 12.0827 0 11.1988 0H1.6012C0.717338 0 0 0.7168 0 1.6V14.4C0 15.2832 0.717338 16 1.6012 16H11.1988ZM4.003 2.4H8.80661V4H4.003V2.4ZM8.20615 7.4C8.20615 8.3888 7.39435 9.2008 6.4048 9.2008C5.41606 9.2008 4.60345 8.3888 4.60345 7.4C4.60345 6.4112 5.41606 5.6 6.4048 5.6C7.39435 5.6 8.20615 6.4112 8.20615 7.4ZM2.8021 12.9504C2.8021 11.6192 4.42572 10.2504 6.4048 10.2504C8.38389 10.2504 10.0075 11.6192 10.0075 12.9504V13.4008H2.8021V12.9504Z" fill="black"/>
</svg>
