<svg width="48" height="48" viewBox="0 0 48 48" fill="none" xmlns="http://www.w3.org/2000/svg">
<g clip-path="url(#clip0)">
<path d="M24 48C37.2548 48 48 37.2548 48 24C48 10.7452 37.2548 0 24 0C10.7452 0 0 10.7452 0 24C0 37.2548 10.7452 48 24 48Z" fill="#E91500"/>
<path fill-rule="evenodd" clip-rule="evenodd" d="M14 11C12.8954 11 12 11.8954 12 13V32C12 33.1046 12.8954 34 14 34H20.2628L23.8491 37.4428C24.2475 37.8253 24.8935 37.8253 25.2919 37.4428L28.8782 34H35C36.1046 34 37 33.1046 37 32V13C37 11.8954 36.1046 11 35 11H14Z" fill="white"/>
<path d="M23 16.5C23 15.6716 23.6716 15 24.5 15C25.3284 15 26 15.6716 26 16.5V24.5C26 25.3284 25.3284 26 24.5 26C23.6716 26 23 25.3284 23 24.5V16.5Z" fill="black"/>
<path d="M23 16.1786C23 15.5277 23.6716 15 24.5 15C25.3284 15 26 15.5277 26 16.1786V24.8214C26 25.4723 25.3284 26 24.5 26C23.6716 26 23 25.4723 23 24.8214V16.1786Z" fill="black"/>
<circle cx="24.5" cy="29.5" r="1.5" fill="black"/>
</g>
<defs>
<clipPath id="clip0">
<rect width="48" height="48" fill="white"/>
</clipPath>
</defs>
</svg>
