<svg width="16" height="17" viewBox="0 0 16 17" fill="none" xmlns="http://www.w3.org/2000/svg">
<path fill-rule="evenodd" clip-rule="evenodd" d="M2 0C0.895431 0 0 0.895431 0 2V12.72C0 13.8246 0.895431 14.72 2 14.72H5.28783L7.32381 16.6745C7.72223 17.057 8.36818 17.057 8.76659 16.6745L10.8026 14.72H14C15.1046 14.72 16 13.8246 16 12.72V2C16 0.895431 15.1046 0 14 0H2Z" fill="black"/>
<path d="M7.04004 3.51957C7.04004 2.98938 7.46985 2.55957 8.00004 2.55957C8.53023 2.55957 8.96004 2.98938 8.96004 3.51957V8.63957C8.96004 9.16976 8.53023 9.59957 8.00004 9.59957C7.46985 9.59957 7.04004 9.16976 7.04004 8.63957V3.51957Z" fill="white"/>
<path d="M7.04004 3.31386C7.04004 2.89728 7.46985 2.55957 8.00004 2.55957C8.53023 2.55957 8.96004 2.89728 8.96004 3.31386V8.84528C8.96004 9.26187 8.53023 9.59957 8.00004 9.59957C7.46985 9.59957 7.04004 9.26187 7.04004 8.84528V3.31386Z" fill="white"/>
<circle cx="8.00004" cy="11.8389" r="0.96" fill="white"/>
</svg>
