<svg width="23" height="23" viewBox="0 0 23 23" fill="none" xmlns="http://www.w3.org/2000/svg">
<g opacity="0.8" clip-path="url(#clip0)">
<path d="M7.0713 3.87436V0.642687C7.07119 0.287631 6.78329 -0.00011297 6.42824 3.32727e-08C6.24615 3.7701e-05 6.07265 0.077332 5.95076 0.212597L0.165026 6.64124C-0.046554 6.87689 -0.0550293 7.2315 0.1451 7.47698L5.93087 14.5485C6.15567 14.8232 6.56068 14.8638 6.8355 14.639C6.98436 14.5172 7.07089 14.3351 7.0713 14.1428V10.9394C12.1499 11.1046 15.3192 13.2756 16.7477 17.5609C16.8353 17.8231 17.0807 17.9999 17.3571 18C17.3918 18.0001 17.4264 17.9973 17.4606 17.9916C17.7716 17.9409 18 17.6722 18 17.3571C18 9.78677 13.4427 4.22534 7.0713 3.87436Z" fill="black"/>
</g>
<defs>
<clipPath id="clip0">
<rect width="23" height="23" fill="white"/>
</clipPath>
</defs>
</svg>
