<svg width="32" height="32" viewBox="0 0 32 32" fill="none" xmlns="http://www.w3.org/2000/svg">
<path d="M15.9998 31.9997C24.8363 31.9997 31.9997 24.8363 31.9997 15.9998C31.9997 7.16338 24.8363 0 15.9998 0C7.16338 0 0 7.16338 0 15.9998C0 24.8363 7.16338 31.9997 15.9998 31.9997Z" fill="#C80000"/>
<path d="M13.7778 15.9239V18.6239C13.7778 21.2759 11.6274 23.435 8.96667 23.435C6.30592 23.435 4.15552 21.2802 4.15552 18.6239V15.8192C4.21658 13.2151 6.34082 11.1171 8.96667 11.1171C10.297 11.1171 11.5009 11.6623 12.3733 12.526C13.2413 13.3983 13.7778 14.5978 13.7778 15.9282V15.9239Z" fill="white"/>
<path d="M13.7776 15.924V16.0461C9.45063 16.3297 6.70701 13.5599 6.70701 13.5599C5.63834 15.357 4.95353 15.5707 4.15967 15.815C4.22073 13.2109 6.34497 11.1129 8.97082 11.1129C10.3012 11.1129 11.5051 11.6581 12.3774 12.5217C13.2455 13.3941 13.782 14.5936 13.782 15.924H13.7776Z" fill="black"/>
<path fill-rule="evenodd" clip-rule="evenodd" d="M8.96655 24.5736C12.914 24.5736 16.3338 27.5877 18 31.9801H1.03665C-0.167227 31.9801 -0.26755 32.2549 0.45216 30.7631C2.25362 27.0424 5.38981 24.5736 8.96219 24.5736H8.96655Z" fill="#B3B3B3"/>
<rect x="15.3333" y="4" width="16.6667" height="15.3333" rx="2" fill="#C4C4C4"/>
<rect width="5.84106" height="5.84106" rx="1" transform="matrix(0.721387 0.692532 -0.721387 0.692532 23.7136 14)" fill="#C4C4C4"/>
<path d="M22.6667 7.66669C22.6667 7.1144 23.1145 6.66669 23.6667 6.66669C24.219 6.66669 24.6667 7.1144 24.6667 7.66669V13C24.6667 13.5523 24.219 14 23.6667 14C23.1145 14 22.6667 13.5523 22.6667 13V7.66669Z" fill="white"/>
<path d="M22.6667 7.4524C22.6667 7.01846 23.1145 6.66669 23.6667 6.66669C24.219 6.66669 24.6667 7.01846 24.6667 7.4524V13.2143C24.6667 13.6482 24.219 14 23.6667 14C23.1145 14 22.6667 13.6482 22.6667 13.2143V7.4524Z" fill="white"/>
<circle cx="23.6667" cy="16.3333" r="1" fill="white"/>
</svg>
