<svg width="18" height="18" viewBox="0 0 18 18" fill="none" xmlns="http://www.w3.org/2000/svg">
<circle cx="9" cy="9" r="9" fill="black"/>
<path d="M9.82813 12.636C9.82813 13.1132 9.4413 13.5 8.96412 13.5C8.48695 13.5 8.10012 13.1132 8.10012 12.636L8.10013 8.028C8.10013 7.55083 8.48695 7.164 8.96413 7.164C9.4413 7.164 9.82813 7.55083 9.82813 8.028L9.82813 12.636Z" fill="white"/>
<path d="M9.82813 12.8211C9.82813 13.1961 9.4413 13.5 8.96412 13.5C8.48695 13.5 8.10012 13.1961 8.10012 12.8211L8.10013 7.84286C8.10013 7.46793 8.48695 7.164 8.96413 7.164C9.4413 7.164 9.82813 7.46793 9.82813 7.84286L9.82813 12.8211Z" fill="white"/>
<circle cx="8.96412" cy="5.14869" r="0.864" transform="rotate(-180 8.96412 5.14869)" fill="white"/>
</svg>
