<svg width="140" height="35" viewBox="0 0 140 35" fill="none" xmlns="http://www.w3.org/2000/svg">
<rect width="140" height="35" rx="8" fill="#DC0921"/>
<path d="M58.836 13.146H62.092C62.6933 13.146 63.214 13.2487 63.654 13.454C64.094 13.6593 64.4533 13.9417 64.732 14.301C65.0107 14.653 65.216 15.0673 65.348 15.544C65.4873 16.0207 65.557 16.5303 65.557 17.073C65.557 17.6157 65.4873 18.1253 65.348 18.602C65.216 19.0787 65.0107 19.4967 64.732 19.856C64.4533 20.208 64.094 20.4867 63.654 20.692C63.214 20.8973 62.6933 21 62.092 21H58.836V13.146ZM60.211 19.878H61.564C62.0993 19.878 62.5357 19.8083 62.873 19.669C63.2177 19.5223 63.4853 19.3243 63.676 19.075C63.874 18.8183 64.006 18.5213 64.072 18.184C64.1453 17.8393 64.182 17.469 64.182 17.073C64.182 16.677 64.1453 16.3103 64.072 15.973C64.006 15.6283 63.874 15.3313 63.676 15.082C63.4853 14.8253 63.2177 14.6273 62.873 14.488C62.5357 14.3413 62.0993 14.268 61.564 14.268H60.211V19.878ZM66.6315 13.146H67.8855V14.334H66.6315V13.146ZM66.6315 15.313H67.8855V21H66.6315V15.313ZM69.2518 15.313H70.4288V16.413H70.4508C70.4875 16.259 70.5571 16.1087 70.6598 15.962C70.7698 15.8153 70.8981 15.6833 71.0448 15.566C71.1988 15.4413 71.3675 15.3423 71.5508 15.269C71.7341 15.1957 71.9211 15.159 72.1118 15.159C72.2585 15.159 72.3575 15.1627 72.4088 15.17C72.4675 15.1773 72.5261 15.1847 72.5848 15.192V16.402C72.4968 16.3873 72.4051 16.3763 72.3098 16.369C72.2218 16.3543 72.1338 16.347 72.0458 16.347C71.8331 16.347 71.6315 16.391 71.4408 16.479C71.2575 16.5597 71.0961 16.6843 70.9568 16.853C70.8175 17.0143 70.7075 17.216 70.6268 17.458C70.5461 17.7 70.5058 17.9787 70.5058 18.294V21H69.2518V15.313ZM76.8306 17.656C76.816 17.458 76.772 17.2673 76.6986 17.084C76.6326 16.9007 76.5373 16.743 76.4126 16.611C76.2953 16.4717 76.1486 16.3617 75.9726 16.281C75.804 16.193 75.6133 16.149 75.4006 16.149C75.1806 16.149 74.979 16.1893 74.7956 16.27C74.6196 16.3433 74.4656 16.4497 74.3336 16.589C74.209 16.721 74.1063 16.8787 74.0256 17.062C73.9523 17.2453 73.912 17.4433 73.9046 17.656H76.8306ZM73.9046 18.481C73.9046 18.701 73.934 18.9137 73.9926 19.119C74.0586 19.3243 74.154 19.504 74.2786 19.658C74.4033 19.812 74.561 19.9367 74.7516 20.032C74.9423 20.12 75.1696 20.164 75.4336 20.164C75.8003 20.164 76.0936 20.087 76.3136 19.933C76.541 19.7717 76.7096 19.5333 76.8196 19.218H78.0076C77.9416 19.526 77.828 19.801 77.6666 20.043C77.5053 20.285 77.311 20.4903 77.0836 20.659C76.8563 20.8203 76.5996 20.9413 76.3136 21.022C76.035 21.11 75.7416 21.154 75.4336 21.154C74.9863 21.154 74.5903 21.0807 74.2456 20.934C73.901 20.7873 73.6076 20.582 73.3656 20.318C73.131 20.054 72.9513 19.7387 72.8266 19.372C72.7093 19.0053 72.6506 18.602 72.6506 18.162C72.6506 17.7587 72.713 17.3773 72.8376 17.018C72.9696 16.6513 73.153 16.3323 73.3876 16.061C73.6296 15.7823 73.9193 15.5623 74.2566 15.401C74.594 15.2397 74.9753 15.159 75.4006 15.159C75.848 15.159 76.2476 15.2543 76.5996 15.445C76.959 15.6283 77.256 15.874 77.4906 16.182C77.7253 16.49 77.894 16.8457 77.9966 17.249C78.1066 17.645 78.136 18.0557 78.0846 18.481H73.9046ZM82.8769 17.216C82.8256 16.864 82.6826 16.6 82.4479 16.424C82.2206 16.2407 81.9309 16.149 81.5789 16.149C81.4176 16.149 81.2453 16.1783 81.0619 16.237C80.8786 16.2883 80.7099 16.391 80.5559 16.545C80.4019 16.6917 80.2736 16.9007 80.1709 17.172C80.0683 17.436 80.0169 17.7843 80.0169 18.217C80.0169 18.4517 80.0426 18.6863 80.0939 18.921C80.1526 19.1557 80.2406 19.3647 80.3579 19.548C80.4826 19.7313 80.6403 19.8817 80.8309 19.999C81.0216 20.109 81.2526 20.164 81.5239 20.164C81.8906 20.164 82.1913 20.0503 82.4259 19.823C82.6679 19.5957 82.8183 19.2767 82.8769 18.866H84.1309C84.0136 19.6067 83.7313 20.175 83.2839 20.571C82.8439 20.9597 82.2573 21.154 81.5239 21.154C81.0766 21.154 80.6806 21.0807 80.3359 20.934C79.9986 20.78 79.7126 20.5747 79.4779 20.318C79.2433 20.054 79.0636 19.7423 78.9389 19.383C78.8216 19.0237 78.7629 18.635 78.7629 18.217C78.7629 17.7917 78.8216 17.392 78.9389 17.018C79.0563 16.644 79.2323 16.3213 79.4669 16.05C79.7016 15.7713 79.9913 15.555 80.3359 15.401C80.6879 15.2397 81.0986 15.159 81.5679 15.159C81.8979 15.159 82.2096 15.203 82.5029 15.291C82.8036 15.3717 83.0676 15.4963 83.2949 15.665C83.5296 15.8337 83.7203 16.0463 83.8669 16.303C84.0136 16.5597 84.1016 16.864 84.1309 17.216H82.8769ZM84.5782 15.313H85.5242V13.608H86.7782V15.313H87.9112V16.248H86.7782V19.284C86.7782 19.416 86.7819 19.5297 86.7892 19.625C86.8039 19.7203 86.8296 19.801 86.8662 19.867C86.9102 19.933 86.9726 19.9843 87.0532 20.021C87.1339 20.0503 87.2439 20.065 87.3832 20.065C87.4712 20.065 87.5592 20.065 87.6472 20.065C87.7352 20.0577 87.8232 20.043 87.9112 20.021V20.989C87.7719 21.0037 87.6362 21.0183 87.5042 21.033C87.3722 21.0477 87.2366 21.055 87.0972 21.055C86.7672 21.055 86.4996 21.0257 86.2942 20.967C86.0962 20.901 85.9386 20.8093 85.8212 20.692C85.7112 20.5673 85.6342 20.4133 85.5902 20.23C85.5536 20.0467 85.5316 19.8377 85.5242 19.603V16.248H84.5782V15.313ZM88.8463 13.146H90.1003V14.334H88.8463V13.146ZM88.8463 15.313H90.1003V21H88.8463V15.313ZM94.0736 21.154C93.619 21.154 93.212 21.0807 92.8526 20.934C92.5006 20.78 92.2 20.571 91.9506 20.307C91.7086 20.043 91.5216 19.7277 91.3896 19.361C91.265 18.9943 91.2026 18.591 91.2026 18.151C91.2026 17.7183 91.265 17.3187 91.3896 16.952C91.5216 16.5853 91.7086 16.27 91.9506 16.006C92.2 15.742 92.5006 15.5367 92.8526 15.39C93.212 15.236 93.619 15.159 94.0736 15.159C94.5283 15.159 94.9316 15.236 95.2836 15.39C95.643 15.5367 95.9436 15.742 96.1856 16.006C96.435 16.27 96.622 16.5853 96.7466 16.952C96.8786 17.3187 96.9446 17.7183 96.9446 18.151C96.9446 18.591 96.8786 18.9943 96.7466 19.361C96.622 19.7277 96.435 20.043 96.1856 20.307C95.9436 20.571 95.643 20.78 95.2836 20.934C94.9316 21.0807 94.5283 21.154 94.0736 21.154ZM94.0736 20.164C94.3523 20.164 94.5943 20.1053 94.7996 19.988C95.005 19.8707 95.1736 19.7167 95.3056 19.526C95.4376 19.3353 95.533 19.1227 95.5916 18.888C95.6576 18.646 95.6906 18.4003 95.6906 18.151C95.6906 17.909 95.6576 17.667 95.5916 17.425C95.533 17.183 95.4376 16.9703 95.3056 16.787C95.1736 16.5963 95.005 16.4423 94.7996 16.325C94.5943 16.2077 94.3523 16.149 94.0736 16.149C93.795 16.149 93.553 16.2077 93.3476 16.325C93.1423 16.4423 92.9736 16.5963 92.8416 16.787C92.7096 16.9703 92.6106 17.183 92.5446 17.425C92.486 17.667 92.4566 17.909 92.4566 18.151C92.4566 18.4003 92.486 18.646 92.5446 18.888C92.6106 19.1227 92.7096 19.3353 92.8416 19.526C92.9736 19.7167 93.1423 19.8707 93.3476 19.988C93.553 20.1053 93.795 20.164 94.0736 20.164ZM97.9871 15.313H99.1751V16.149L99.1971 16.171C99.3878 15.8557 99.6371 15.61 99.9451 15.434C100.253 15.2507 100.594 15.159 100.968 15.159C101.591 15.159 102.083 15.3203 102.442 15.643C102.801 15.9657 102.981 16.4497 102.981 17.095V21H101.727V17.425C101.712 16.9777 101.617 16.655 101.441 16.457C101.265 16.2517 100.99 16.149 100.616 16.149C100.403 16.149 100.213 16.1893 100.044 16.27C99.8755 16.3433 99.7325 16.4497 99.6151 16.589C99.4978 16.721 99.4061 16.8787 99.3401 17.062C99.2741 17.2453 99.2411 17.4397 99.2411 17.645V21H97.9871V15.313Z" fill="white"/>
<path d="M36.0012 15.1528C35.9831 15.4767 36.1644 15.7786 36.4591 15.9142L42.373 18.627L45.0857 24.5405C45.2149 24.8211 45.4955 25 45.8021 25C45.817 25 45.8312 24.9992 45.847 24.9984C46.1701 24.9811 46.4499 24.7659 46.5515 24.4578L50.961 11.0339C51.0532 10.7518 50.9791 10.4404 50.7695 10.23C50.5598 10.0196 50.2493 9.94784 49.9656 10.0385L36.5419 14.4482C36.2337 14.5499 36.0186 14.8297 36.0012 15.1528ZM48.9765 12.0231L45.6807 22.0562L43.6836 17.7041C43.6041 17.5322 43.4677 17.3943 43.2959 17.3163L38.9424 15.3191L48.9765 12.0231Z" fill="white"/>
</svg>
