<svg width="22" height="20" viewBox="0 0 22 20" fill="none" xmlns="http://www.w3.org/2000/svg">
<path d="M21.1357 6.84C20.5835 5.50927 19.783 4.30027 18.7786 3.28C17.7765 2.25727 16.5891 1.44221 15.2821 0.88C13.9243 0.295 12.4855 0 11 0C9.51451 0 8.07567 0.295 6.71786 0.88C5.41089 1.44221 4.22348 2.25727 3.22143 3.28C2.21696 4.30027 1.41646 5.50927 0.864286 6.84C0.289732 8.2225 0 9.6875 0 11.2C0 14.5175 1.43147 17.6425 3.92612 19.7775L3.96786 19.8125C4.11027 19.9325 4.28951 20 4.47366 20H17.5288C17.7129 20 17.8922 19.9325 18.0346 19.8125L18.0763 19.7775C20.5685 17.6425 22 14.5175 22 11.2C22 9.6875 21.7078 8.2225 21.1357 6.84ZM17.1237 18.1H4.87634C3.92758 17.229 3.1693 16.1646 2.6507 14.9759C2.1321 13.7872 1.86477 12.5007 1.86607 11.2C1.86607 8.715 2.81629 6.38 4.54241 4.625C6.26853 2.8675 8.56183 1.9 11 1.9C13.4406 1.9 15.7339 2.8675 17.4576 4.625C19.1837 6.3825 20.1339 8.7175 20.1339 11.2C20.1339 13.84 19.0413 16.3375 17.1237 18.1ZM13.7377 7.7375C13.7008 7.70028 13.6509 7.6794 13.599 7.6794C13.547 7.6794 13.4972 7.70028 13.4603 7.7375L11.3855 9.85C10.9263 9.725 10.4181 9.845 10.0571 10.2125C9.9293 10.3424 9.82788 10.4967 9.75868 10.6666C9.68948 10.8365 9.65386 11.0186 9.65386 11.2025C9.65386 11.3864 9.68948 11.5685 9.75868 11.7384C9.82788 11.9083 9.9293 12.0626 10.0571 12.1925C10.1847 12.3227 10.3363 12.4259 10.5031 12.4964C10.67 12.5669 10.8488 12.6031 11.0295 12.6031C11.2101 12.6031 11.3889 12.5669 11.5558 12.4964C11.7226 12.4259 11.8742 12.3227 12.0018 12.1925C12.1728 12.0189 12.2958 11.8024 12.3583 11.565C12.4208 11.3275 12.4206 11.0774 12.3578 10.84L14.4326 8.7275C14.5087 8.65 14.5087 8.5225 14.4326 8.445L13.7377 7.7375ZM10.4598 5.2H11.5402C11.6482 5.2 11.7366 5.11 11.7366 5V3C11.7366 2.89 11.6482 2.8 11.5402 2.8H10.4598C10.3518 2.8 10.2634 2.89 10.2634 3V5C10.2634 5.11 10.3518 5.2 10.4598 5.2ZM16.8438 10.65V11.75C16.8438 11.86 16.9321 11.95 17.0402 11.95H19.0045C19.1125 11.95 19.2009 11.86 19.2009 11.75V10.65C19.2009 10.54 19.1125 10.45 19.0045 10.45H17.0402C16.9321 10.45 16.8438 10.54 16.8438 10.65ZM17.1556 5.72L16.392 4.9425C16.355 4.90528 16.3052 4.8844 16.2532 4.8844C16.2013 4.8844 16.1514 4.90528 16.1145 4.9425L14.7248 6.3575C14.6882 6.39509 14.6677 6.44585 14.6677 6.49875C14.6677 6.55165 14.6882 6.60241 14.7248 6.64L15.4884 7.4175C15.5645 7.495 15.6897 7.495 15.7658 7.4175L17.1556 6.0025C17.2317 5.925 17.2317 5.7975 17.1556 5.72ZM5.89531 4.9425C5.85839 4.90528 5.80854 4.8844 5.75659 4.8844C5.70463 4.8844 5.65478 4.90528 5.61786 4.9425L4.85424 5.72C4.81769 5.75759 4.79718 5.80835 4.79718 5.86125C4.79718 5.91415 4.81769 5.96491 4.85424 6.0025L6.24397 7.4175C6.32009 7.495 6.44531 7.495 6.52143 7.4175L7.28504 6.64C7.36116 6.5625 7.36116 6.435 7.28504 6.3575L5.89531 4.9425ZM4.86161 10.45H2.89732C2.78929 10.45 2.70089 10.54 2.70089 10.65V11.75C2.70089 11.86 2.78929 11.95 2.89732 11.95H4.86161C4.96964 11.95 5.05804 11.86 5.05804 11.75V10.65C5.05804 10.54 4.96964 10.45 4.86161 10.45Z" fill="white"/>
</svg>
