<svg width="35" height="43" viewBox="0 0 35 43" fill="none" xmlns="http://www.w3.org/2000/svg">
<path d="M17.0195 40.0784V2.19629C34.588 2.19629 32.1175 20.3138 30.4704 25.804C29.1528 30.1961 20.9541 37.1503 17.0195 40.0784Z" fill="#BE071C"/>
<path d="M17.2364 41.176L17.5686 3.29395C-0.266796 3.29395 2.24131 21.4115 3.91338 26.9016C5.25103 31.2937 13.2421 38.2479 17.2364 41.176Z" fill="#DC0921"/>
<path d="M17.0195 0C7.63547 0 0.000187292 7.5861 0.000187292 16.8991C-0.0615076 30.522 15.1388 41.4266 15.7856 41.881C16.1558 42.1431 16.5876 42.2742 17.0195 42.2742C17.4513 42.2742 17.8832 42.1431 18.2534 41.881C18.9001 41.4266 34.1005 30.522 34.0388 16.9097C34.0388 7.5861 26.4035 0 17.0195 0ZM17.0195 37.4866C13.5922 34.7219 4.21033 26.2967 4.25501 16.9097C4.25501 9.91541 9.97987 4.22742 17.0195 4.22742C24.0591 4.22742 29.7839 9.91541 29.7839 16.9202C29.8286 26.2988 20.4489 34.724 17.0195 37.4866Z" fill="#DC0921"/>
<mask id="mask0" mask-type="alpha" maskUnits="userSpaceOnUse" x="0" y="0" width="35" height="43">
<path d="M17.0195 0C7.63547 0 0.000187292 7.5861 0.000187292 16.8991C-0.0615076 30.522 15.1388 41.4266 15.7856 41.881C16.1558 42.1431 16.5876 42.2742 17.0195 42.2742C17.4513 42.2742 17.8832 42.1431 18.2534 41.881C18.9001 41.4266 34.1005 30.522 34.0388 16.9097C34.0388 7.5861 26.4035 0 17.0195 0ZM17.0195 37.4866C13.5922 34.7219 4.21033 26.2967 4.25501 16.9097C4.25501 9.91541 9.97987 4.22742 17.0195 4.22742C24.0591 4.22742 29.7839 9.91541 29.7839 16.9202C29.8286 26.2988 20.4489 34.724 17.0195 37.4866Z" fill="#DC0921"/>
</mask>
<g mask="url(#mask0)">
<rect x="17.0195" y="-2.19629" width="19.2155" height="46.6663" fill="#BE071C"/>
</g>
<circle cx="17.0194" cy="15.9215" r="13.1764" fill="white"/>
<path fill-rule="evenodd" clip-rule="evenodd" d="M17.2932 15.6097C18.6095 15.5982 19.9289 15.5899 21.2447 15.5785C21.7352 15.5739 22.2257 15.5652 22.7162 15.5606C23.1888 15.5565 23.6528 15.5611 24.1258 15.5565C24.789 15.5817 25.5534 15.524 26.1002 15.7916C26.3965 15.9364 26.5014 16.1508 26.5582 16.4748C26.5586 16.4995 26.5614 16.5197 26.5655 16.5367C26.5527 17.0036 26.2655 17.5507 26.0567 17.9888C25.7562 18.6193 25.2364 19.1848 24.7079 19.6985C23.803 20.5778 22.0255 21.6015 20.1538 22.1088C19.9005 22.1775 19.5914 22.2834 19.3143 22.3535C19.1027 22.4071 19.1778 22.5106 19.3157 22.4997C19.6152 22.4763 19.9514 22.3943 20.2179 22.3274C22.3919 21.7811 23.8923 20.91 24.9282 20.0687C25.5465 19.5665 26.1941 18.8549 26.6159 18.1125C26.9026 17.608 27.1925 16.7887 27.23 16.489C27.2795 16.0954 27.3308 15.8928 27.312 15.2696H27.307C27.2529 14.2143 26.9186 13.3744 26.298 12.4167C26.2536 12.3479 26.1932 12.2875 26.151 12.2201C26.1309 12.188 26.1075 12.1367 26.1313 12.0831L26.1455 12.0739C26.1987 12.0533 26.2843 12.1225 26.3287 12.172C26.8394 12.737 27.1219 13.1971 27.3954 13.7753C27.7553 14.5374 27.8483 15.0896 27.9092 15.765C27.9207 15.8896 28.059 15.9565 28.0686 15.7416C28.0997 15.0199 27.9376 14.2551 27.6418 13.5824C27.2973 12.8002 26.9278 12.3718 26.4519 11.7939L26.4515 11.7944C26.4487 11.7916 26.4464 11.7884 26.4437 11.7857C25.8753 11.2014 25.1929 10.6465 24.5023 10.2098C23.4348 9.53485 22.3438 9.08944 21.1696 8.76776C20.691 8.63671 20.1881 8.53361 19.6844 8.47724C19.53 8.45983 19.3587 8.46533 19.2058 8.46166C19.0936 8.45892 18.9795 8.58081 19.2049 8.63259C19.514 8.70361 19.8144 8.77785 20.1245 8.86583C21.2804 9.19484 22.424 9.6407 23.4439 10.2905C24.2921 10.8312 24.7098 11.1084 25.7192 12.3663C25.835 12.5445 26.1121 12.967 26.2623 13.3116C26.3654 13.5471 26.5105 13.9266 26.5183 14.2065V14.2166C26.489 14.4934 26.4299 14.6813 26.2106 14.8114C25.7604 15.0786 25.3596 15.1019 24.7331 15.1308C24.2962 15.151 23.8588 15.1606 23.4215 15.1693C22.7716 15.1821 22.1368 15.1949 21.4806 15.2069C20.0846 15.2316 18.6814 15.2458 17.2841 15.2637C17.1348 15.2655 16.9855 15.2674 16.8362 15.2678C15.4096 15.2756 13.9761 15.2875 12.55 15.2875C11.8932 15.2875 11.2589 15.2861 10.6086 15.2852C10.1712 15.2843 9.73384 15.2829 9.29647 15.2706C8.6695 15.2531 8.26831 15.2371 7.81354 14.9782C7.59187 14.8522 7.52959 14.6652 7.49524 14.3889V14.3788C7.49799 14.0989 7.63676 13.7171 7.73522 13.4798C7.87948 13.1324 8.14832 12.7054 8.26098 12.5248C9.24747 11.2491 9.65965 10.9641 10.4982 10.4082C11.5062 9.74014 12.6416 9.27365 13.7911 8.92402C14.0998 8.83008 14.3988 8.75081 14.7061 8.67383C14.931 8.61792 14.8147 8.49878 14.7025 8.50336C14.5495 8.50978 14.3782 8.50749 14.2243 8.52765C13.7215 8.59318 13.2204 8.70544 12.7446 8.84475C11.5763 9.18751 10.4936 9.65261 9.43845 10.3468C8.7556 10.7959 8.08329 11.3632 7.52592 11.9575C7.52318 11.9603 7.52089 11.9635 7.51814 11.9662L7.51768 11.9658C7.05192 12.5519 6.69057 12.9872 6.36037 13.7758C6.07642 14.4535 5.92849 15.2211 5.97246 15.9423C5.98574 16.1572 6.12313 16.0876 6.13229 15.9629C6.1813 15.2866 6.26419 14.7326 6.61042 13.9641C6.8733 13.3808 7.14763 12.9157 7.64775 12.3415C7.69126 12.2916 7.77552 12.2206 7.82911 12.2403L7.84376 12.249C7.86849 12.3026 7.84605 12.3539 7.82636 12.3864C7.7856 12.4547 7.72652 12.5161 7.68301 12.5858C7.07985 13.5549 6.7611 14.4004 6.72583 15.4566H6.72125C6.71347 16.0803 6.76843 16.2819 6.82522 16.6746C6.86827 16.9734 7.17282 17.7872 7.46868 18.2867C7.90376 19.0212 8.56416 19.7214 9.1916 20.2121C10.2427 21.0342 11.7586 21.8783 13.9422 22.3851C14.2097 22.447 14.5472 22.523 14.8472 22.5409C14.985 22.5491 15.0583 22.4447 14.8458 22.3947C14.5674 22.3296 14.2564 22.2293 14.0022 22.1651C12.1217 21.6922 10.3265 20.7006 9.40547 19.8378C8.86735 19.3337 8.33792 18.7779 8.02604 18.1528C7.80941 17.7189 7.51219 17.1768 7.49066 16.7103C7.49432 16.6934 7.49661 16.6732 7.49661 16.6485C7.54791 16.3236 7.64866 16.1073 7.94223 15.957C8.48448 15.6798 9.2493 15.7233 9.912 15.6862C10.3846 15.6821 10.8486 15.6688 11.3212 15.6646C11.8117 15.6601 12.3022 15.6601 12.7927 15.6559C14.141 15.6436 15.4929 15.6275 16.8417 15.6151C16.9919 15.6138 17.1426 15.6124 17.2928 15.611L17.2932 15.6097ZM17.2781 15.1271C18.2129 15.1152 19.1485 15.1143 20.0681 15.0951C20.7354 15.0813 21.4119 15.0653 22.0787 15.0414C22.68 15.0204 23.2754 14.991 23.8808 14.9452C24.4519 14.9021 25.2273 14.8013 25.3583 14.7101C25.4544 14.6432 25.4183 14.5525 25.3386 14.4888C25.2145 14.3894 25.0537 14.306 24.9044 14.251C24.8403 14.2276 24.7464 14.2423 24.6942 14.2863C24.5811 14.3811 24.5165 14.4082 24.3768 14.4467C23.8199 14.6002 23.4192 14.6643 22.6805 14.728C22.1309 14.7752 21.5735 14.8123 21.0272 14.8339C19.7824 14.8829 19.018 14.8998 17.2768 14.9163C17.1215 14.9177 16.9658 14.9191 16.8101 14.9205C15.0253 14.936 14.2573 14.9328 12.9974 14.9063C12.4506 14.8943 11.8923 14.8673 11.3423 14.8302C10.6026 14.7802 10.201 14.7234 9.64133 14.5795C9.50119 14.5433 9.4357 14.5177 9.32075 14.4251C9.26762 14.3825 9.17373 14.3692 9.11007 14.394C8.96169 14.4512 8.80277 14.5378 8.68049 14.6396C8.60218 14.7046 8.56737 14.7958 8.66492 14.8614C8.79728 14.9498 9.57447 15.0369 10.1465 15.0694C10.7524 15.1042 11.3482 15.1225 11.95 15.1331C12.6173 15.1445 13.2937 15.1487 13.961 15.1505C14.9017 15.1533 15.8584 15.1363 16.8142 15.1317C16.969 15.1308 17.1238 15.1294 17.2786 15.1271H17.2781ZM17.258 14.6263C19.1728 14.6052 21.2035 14.6171 23.0867 14.404C24.0356 14.2968 24.3003 13.7923 24.337 13.4615C24.4565 12.3764 22.8293 10.9645 21.9788 10.5118C20.8284 9.89914 19.7915 9.41479 18.4245 9.06287C18.2486 9.0175 18.1341 8.81634 18.1327 8.65733C18.1314 8.51482 18.3461 8.34252 18.4845 8.30861C18.9099 8.20276 19.3597 8.22613 19.8094 8.28754C20.5289 8.38606 21.2172 8.51849 21.9225 8.72286C22.8527 8.9923 23.8703 9.46199 24.7583 10.0082C25.9115 10.7171 26.9094 11.6157 27.6376 12.7494C28.151 13.549 28.5398 14.5942 28.5485 15.4818C28.5595 16.5774 28.1469 17.6552 27.5483 18.595C26.9736 19.4978 26.1808 20.2328 25.3083 20.877C24.5174 21.4613 23.6189 21.9104 22.7061 22.2756C21.9129 22.5927 21.0771 22.7888 20.2344 22.9276C19.6981 23.0161 19.176 23.0578 18.6393 22.973C18.4987 22.951 18.2655 22.7902 18.2509 22.6486C18.2344 22.4909 18.3484 22.3022 18.5 22.2559C18.9507 22.1189 19.6963 21.8765 20.2362 21.6373C20.9223 21.333 21.6244 21.0173 22.2481 20.5989C22.8678 20.1833 23.4751 19.6971 23.8836 19.1073C24.108 18.7834 24.3416 18.338 24.3612 18.0076C24.3736 17.8009 24.3741 17.5512 24.2669 17.3789C23.8524 16.7117 22.7084 16.752 21.8543 16.7177C21.0748 16.686 20.3118 16.6879 19.5314 16.6718C18.7469 16.6558 17.8245 16.6595 17.029 16.6558C16.2339 16.6741 15.3116 16.687 14.5275 16.7172C13.7471 16.7474 12.9846 16.7594 12.2056 16.8047C11.3523 16.8547 10.2079 16.8345 9.80529 17.509C9.70133 17.6836 9.70636 17.9334 9.72239 18.1396C9.74804 18.4695 9.98985 18.9103 10.2198 19.2302C10.6388 19.8121 11.2548 20.2878 11.8818 20.6919C12.5129 21.0988 13.2204 21.4017 13.912 21.6936C14.4561 21.9237 15.2062 22.1523 15.6592 22.2811C15.8117 22.3246 15.9289 22.5111 15.9152 22.6692C15.9028 22.8112 15.6729 22.9762 15.5328 23.001C14.9974 23.0954 14.4748 23.0628 13.9372 22.9845C13.0917 22.8612 12.2532 22.6797 11.454 22.3773C10.5344 22.029 9.62851 21.596 8.82704 21.0264C7.94314 20.3982 7.1371 19.6774 6.54631 18.7852C5.93078 17.8564 5.49891 16.7859 5.49021 15.6903C5.48334 14.8027 5.85293 13.7506 6.35167 12.9418C7.05924 11.7949 8.04024 10.8788 9.1806 10.1489C10.0585 9.58709 11.0675 9.09861 11.9926 8.81267C12.6938 8.59593 13.3798 8.45113 14.0975 8.33932C14.5458 8.26966 14.9951 8.23805 15.4229 8.33657C15.5616 8.36818 15.7792 8.53681 15.7805 8.67933C15.7819 8.83833 15.6711 9.04133 15.4961 9.0899C14.1355 9.46657 13.1078 9.96925 11.9688 10.603C11.1266 11.0713 9.52546 12.512 9.66423 13.5948C9.70636 13.9252 9.98024 14.4247 10.9315 14.5149C12.8357 14.6955 14.8852 14.6442 16.8156 14.6313C16.9635 14.6304 17.1114 14.629 17.2594 14.6272L17.258 14.6263Z" fill="#DC0921"/>
</svg>
