<svg width="19" height="16" viewBox="0 0 19 16" fill="none" xmlns="http://www.w3.org/2000/svg">
<path d="M13 10C14.7648 10 16.2 8.6545 16.2 7C16.2 5.3455 14.7648 4 13 4C11.2352 4 9.8 5.3455 9.8 7C9.8 8.6545 11.2352 10 13 10ZM14.2 10.75H11.8C9.1528 10.75 7 12.7682 7 15.25V16H7.8H8.6H17.4H18.2H19V15.25C19 12.7682 16.8472 10.75 14.2 10.75Z" fill="black"/>
<path d="M7.51388 0H0.486117C0.217642 0 0 0.349281 0 0.780141V6.03019C0 6.46105 0.217642 6.81033 0.486117 6.81033H7.51388C7.78236 6.81033 8 6.46105 8 6.03019V0.780141C8 0.349281 7.78236 0 7.51388 0Z" fill="black"/>
<path d="M1.96076 5.30078H1.36956C1.15629 5.30078 0.983398 5.46371 0.983398 5.66469V8.10655C0.983398 8.30753 1.15629 8.47046 1.36956 8.47046H1.96076C2.17403 8.47046 2.34692 8.30753 2.34692 8.10655V5.66469C2.34692 5.46371 2.17403 5.30078 1.96076 5.30078Z" fill="black"/>
<path d="M6.63068 5.30078H6.03948C5.82621 5.30078 5.65332 5.46371 5.65332 5.66469V8.10655C5.65332 8.30753 5.82621 8.47046 6.03948 8.47046H6.63068C6.84395 8.47046 7.01684 8.30753 7.01684 8.10655V5.66469C7.01684 5.46371 6.84395 5.30078 6.63068 5.30078Z" fill="black"/>
<path d="M6.58809 0.941406H1.41162V4.23552H6.58809V0.941406Z" fill="white"/>
<path d="M2.73913 5.06543H1.35254V5.68616H2.73913V5.06543Z" fill="white"/>
<path d="M6.74987 5.06543H5.36328V5.68616H6.74987V5.06543Z" fill="white"/>
</svg>
