<svg width="15" height="16" viewBox="0 0 15 16" fill="none" xmlns="http://www.w3.org/2000/svg">
<path d="M13.4318 9.13513C12.9091 9.06696 12.3864 8.97606 11.8864 8.81699C11.25 8.6352 10.5909 8.79427 10.1136 9.24875L9.15909 10.2032C7.31818 9.2033 5.79545 7.65806 4.79545 5.84012L5.75 4.8857C6.20455 4.43122 6.38636 3.74949 6.18182 3.11322C6.02273 2.61328 5.93182 2.09063 5.86364 1.56797C5.77273 0.681726 5 0 4.11364 0H1.75C1.25 0 0.772727 0.204518 0.454545 0.568105C0.159091 0.886244 0 1.318 0 1.77249C0 1.81794 0 1.88611 0 1.93156C0.159091 3.63587 0.613636 5.27201 1.34091 6.79454C2.04545 8.29433 3 9.63506 4.18182 10.8167C5.36364 11.9984 6.70455 12.9528 8.20455 13.6572C9.75 14.3844 11.3864 14.8389 13.0682 14.998C13.5682 15.0434 14.0682 14.8844 14.4318 14.5435C14.7955 14.2026 15 13.7254 15 13.2482V10.8849C15 9.97592 14.3182 9.22603 13.4318 9.13513Z" fill="black"/>
</svg>
