<svg width="21" height="21" viewBox="0 0 21 21" fill="none" xmlns="http://www.w3.org/2000/svg">
<path d="M3.33752 4.15942C4.48126 4.15942 5.40845 3.23224 5.40845 2.0885C5.40845 0.944761 4.48126 0.0175781 3.33752 0.0175781C2.19379 0.0175781 1.2666 0.944761 1.2666 2.0885C1.2666 3.23224 2.19379 4.15942 3.33752 4.15942Z" fill="#940000"/>
<path d="M1.0269 11.4161H1.23228V15.5237C1.23228 16.0887 1.69439 16.5506 2.25919 16.5506H4.41568C4.98048 16.5506 5.44259 16.0887 5.44259 15.5237V15.2843C5.25432 14.9247 5.13452 14.5141 5.13452 14.0862V8.71211C5.13452 7.6681 5.76777 6.761 6.67487 6.36735V5.95659C6.67487 5.39179 6.21276 4.92969 5.64797 4.92969H1.0269C0.462106 4.92969 0 5.39179 0 5.95659V10.3894C0 10.9542 0.444991 11.4161 1.0269 11.4161Z" fill="black"/>
<path d="M17.6798 4.15942C18.8235 4.15942 19.7507 3.23224 19.7507 2.0885C19.7507 0.944761 18.8235 0.0175781 17.6798 0.0175781C16.5361 0.0175781 15.6089 0.944761 15.6089 2.0885C15.6089 3.23224 16.5361 4.15942 17.6798 4.15942Z" fill="#940000"/>
<path d="M14.3252 5.93901V6.34977C15.2325 6.74342 15.8656 7.65052 15.8656 8.69454V14.0515C15.8656 14.4794 15.7629 14.8902 15.5577 15.2496V15.4892C15.5577 16.054 16.0196 16.5161 16.5846 16.5161H18.7411C19.3058 16.5161 19.768 16.054 19.768 15.4892V11.3816H19.9732C20.5381 11.3816 21.0001 10.9195 21.0001 10.3547V5.93901C21.0001 5.37422 20.5381 4.91211 19.9732 4.91211H15.3521C14.7875 4.91211 14.3252 5.37404 14.3252 5.93901Z" fill="black"/>
<path d="M6.69189 8.71179V10.3891V14.0859C6.69189 14.6507 7.154 15.1128 7.7188 15.1128H8.11244V19.9564C8.11244 20.5212 8.57455 20.9833 9.13935 20.9833H11.8949C12.4597 20.9833 12.9218 20.5212 12.9218 19.9564V15.0957H13.3154C13.8802 15.0957 14.3423 14.6338 14.3423 14.0688V10.3892V8.71196C14.3423 8.14717 13.8802 7.68506 13.3154 7.68506H7.7188C7.13689 7.68489 6.69189 8.14716 6.69189 8.71179Z" fill="black"/>
<path d="M10.5084 6.82927C11.8223 6.82927 12.8874 5.76416 12.8874 4.45028C12.8874 3.1364 11.8223 2.07129 10.5084 2.07129C9.19451 2.07129 8.12939 3.1364 8.12939 4.45028C8.12939 5.76416 9.19451 6.82927 10.5084 6.82927Z" fill="#940000"/>
</svg>
