<svg width="16" height="20" viewBox="0 0 16 20" fill="none" xmlns="http://www.w3.org/2000/svg">
<path d="M2.5 6.25H8.33333H14.1667V18.3333H2.5V6.25Z" fill="#F8F8F8"/>
<path d="M2.5 5.8335H8.33333H14.1667V1.66683H2.5V5.8335Z" fill="#C80000"/>
<path d="M13.8527 20C14.946 20 15.8333 19.104 15.8333 18V2C15.8333 0.896 14.946 0 13.8527 0H1.98065C0.887332 0 0 0.896 0 2V18C0 19.104 0.887332 20 1.98065 20H13.8527ZM4.95163 3H10.8936V5H4.95163V3ZM10.1508 9.25C10.1508 10.486 9.14665 11.501 7.92261 11.501C6.69956 11.501 5.69438 10.486 5.69438 9.25C5.69438 8.014 6.69956 7 7.92261 7C9.14665 7 10.1508 8.014 10.1508 9.25ZM3.46614 16.188C3.46614 14.524 5.47452 12.813 7.92261 12.813C10.3707 12.813 12.3791 14.524 12.3791 16.188V16.751H3.46614V16.188Z" fill="black"/>
</svg>
