<svg width="48" height="48" viewBox="0 0 48 48" fill="none" xmlns="http://www.w3.org/2000/svg">
<path d="M23.9998 47.9996C37.2545 47.9996 47.9996 37.2545 47.9996 23.9998C47.9996 10.7451 37.2545 0 23.9998 0C10.7451 0 0 10.7451 0 23.9998C0 37.2545 10.7451 47.9996 23.9998 47.9996Z" fill="#E28057"/>
<path fill-rule="evenodd" clip-rule="evenodd" d="M28.9845 30.7659C30.6133 30.7856 31.5512 30.8072 31.7991 30.8307C31.826 32.2058 31.8399 32.8934 31.8399 32.8934C29.9911 32.9856 29.1157 33.0308 29.2142 33.0284C28.8942 31.7806 28.8173 31.0263 28.9845 30.7654V30.7659Z" fill="#E8E9E9"/>
<path fill-rule="evenodd" clip-rule="evenodd" d="M18.5857 30.7659C16.9569 30.7856 16.019 30.8072 15.7711 30.8307C15.7442 32.2058 15.7302 32.8934 15.7302 32.8934C17.5791 32.9856 18.4545 33.0308 18.356 33.0284C18.676 31.7806 18.7529 31.0263 18.5857 30.7654V30.7659Z" fill="#E8E9E9"/>
<path fill-rule="evenodd" clip-rule="evenodd" d="M31.2827 31.1045C31.2409 28.3975 31.2207 27.0373 31.2221 27.0234C31.2154 26.5597 31.2116 26.3281 31.2116 26.3281C31.2096 26.2181 31.2087 26.1633 31.2087 26.1633C31.2466 26.0004 31.2697 25.8236 31.2769 25.6324C31.3062 25.1149 31.2615 24.8247 31.1438 24.7618C30.9949 22.037 30.7787 20.353 30.4957 19.7101C29.8581 19.3896 29.4506 19.2291 29.2719 19.2291C29.0197 19.0432 28.8068 18.9495 28.6338 18.9466C25.4017 18.8697 23.7854 18.8318 23.7854 18.8318C23.7854 18.8318 22.1652 18.8697 18.9331 18.9466C18.7601 18.9495 18.5473 19.0432 18.295 19.2291C18.1163 19.2291 17.7089 19.3896 17.0713 19.7101C16.7883 20.353 16.5721 22.037 16.4231 24.7618C16.3054 24.8247 16.2607 25.1149 16.29 25.6324C16.2972 25.8236 16.3198 26.0004 16.3583 26.1633C16.3583 26.1633 16.3573 26.2181 16.3554 26.3281C16.3554 26.3281 16.352 26.5602 16.3448 27.0234C16.3462 27.0373 16.3261 28.398 16.2843 31.1045H31.2832H31.2827Z" fill="#E8E9E9"/>
<path d="M18.3675 35.1337H16.5182V37.831H18.3675V35.1337Z" fill="#404040"/>
<path fill-rule="evenodd" clip-rule="evenodd" d="M16.3298 34.9828C16.3356 35.2922 16.3385 35.6016 16.338 35.9115C17.7909 35.9197 18.5174 35.924 18.5174 35.924C18.5174 35.3777 18.5174 35.1039 18.5174 35.1039L16.3293 34.9828H16.3298Z" fill="#292827"/>
<path d="M31.0487 35.1337H29.1993V37.831H31.0487V35.1337Z" fill="#404040"/>
<path fill-rule="evenodd" clip-rule="evenodd" d="M31.2365 34.9828C31.2307 35.2922 31.2278 35.6016 31.2283 35.9115C29.7754 35.9197 29.0489 35.924 29.0489 35.924C29.0489 35.3777 29.0489 35.1039 29.0489 35.1039L31.237 34.9828H31.2365Z" fill="#292827"/>
<path fill-rule="evenodd" clip-rule="evenodd" d="M16.2837 31.1048H31.2826C31.2807 30.9707 31.2788 30.84 31.2764 30.7122C31.124 30.7151 30.9799 30.7175 30.843 30.7204C30.449 30.7276 30.1194 30.7339 29.8551 30.7391C29.316 30.7492 29.0465 30.7545 29.0465 30.7545C29.0604 29.0354 29.0671 28.1763 29.0671 28.1763C29.0628 27.8611 28.9461 27.6992 28.7169 27.6901C27.471 27.7203 26.2002 27.7391 24.9236 27.7458C25.0043 27.8678 25.0744 27.999 25.133 28.1393C25.9854 28.1254 27.2414 28.1047 28.9014 28.0778C28.9115 28.7015 28.7625 29.0066 28.4536 28.9941C27.9039 29.0162 27.6291 29.0277 27.6291 29.0277C27.6195 28.848 27.4979 28.761 27.2649 28.7682C26.3251 28.7851 25.5755 28.7985 25.0163 28.8091C24.925 28.9547 24.8082 29.0873 24.6655 29.2069C24.372 29.2257 24.0779 29.2362 23.7834 29.2381C23.4893 29.2362 23.191 29.2257 22.8974 29.2069C22.7547 29.0873 22.6379 28.9547 22.5467 28.8091C21.9869 28.799 21.2369 28.7855 20.298 28.7687C20.065 28.7615 19.9439 28.8485 19.9338 29.0282C19.9338 29.0282 19.659 29.0171 19.1094 28.9945C18.8009 29.007 18.6515 28.7015 18.6616 28.0783C20.3206 28.1057 21.5771 28.1259 22.4299 28.1398C22.489 27.9995 22.5587 27.8683 22.6394 27.7463C21.3632 27.7391 20.0924 27.7208 18.8461 27.6905C18.6169 27.6997 18.4996 27.8621 18.4958 28.1768C18.4958 28.1768 18.503 29.0359 18.5164 30.755C18.5164 30.755 18.2469 30.7497 17.7078 30.7396C17.4436 30.7343 17.1139 30.7281 16.72 30.7209C16.583 30.718 16.4389 30.7156 16.2866 30.7127C16.2847 30.84 16.2827 30.9707 16.2803 31.1053L16.2837 31.1048Z" fill="#6D6E6E"/>
<path fill-rule="evenodd" clip-rule="evenodd" d="M29.1032 31.9078C29.1032 31.9078 29.1046 31.7238 29.1075 31.3558C29.9993 31.3246 30.7243 31.241 31.2831 31.105H16.2842C16.843 31.241 17.568 31.3246 18.4598 31.3558C18.4626 31.7238 18.4641 31.9078 18.4641 31.9078C18.5583 32.0659 18.5938 32.2744 18.5707 32.5344C19.4644 32.568 20.3077 32.5767 21.0995 32.5608C22.8662 32.6146 24.7011 32.6146 26.4678 32.5608C27.2596 32.5767 28.1028 32.568 28.9965 32.5344C28.9735 32.2749 29.009 32.0659 29.1032 31.9078Z" fill="#6D6E6E"/>
<path fill-rule="evenodd" clip-rule="evenodd" d="M28.3916 35.2841C29.859 35.3624 30.8075 35.262 31.2365 34.9828C31.2807 34.8276 31.2918 34.6772 31.2701 34.5312C31.6771 34.3495 31.521 32.7707 31.5214 32.3849C29.6538 32.5319 27.9693 32.5905 26.4678 32.5603C24.7011 32.6141 22.8662 32.6141 21.0995 32.5603C19.5976 32.5905 17.913 32.5319 16.0459 32.3849C16.0459 32.7702 15.8902 34.3495 16.2972 34.5312C16.2751 34.6772 16.2866 34.8276 16.3308 34.9828C16.7599 35.262 17.7083 35.3624 19.1757 35.2841C22.1474 35.3974 25.4209 35.3974 28.3926 35.2841H28.3916Z" fill="#7C8785"/>
<path fill-rule="evenodd" clip-rule="evenodd" d="M23.7853 25.138C22.2051 25.1491 20.0338 25.0967 17.2802 24.9814C17.1077 24.9698 17.0102 24.8478 16.9871 24.6152C16.7685 23.0321 16.9079 21.4201 17.3951 19.8985C17.4864 19.811 17.6223 19.7639 17.803 19.7572C21.7885 19.712 23.7853 19.689 23.7853 19.689C23.7853 19.689 25.7779 19.7115 29.7634 19.7572C29.944 19.7634 30.0795 19.8105 30.1713 19.8985C30.6585 21.4206 30.7978 23.0326 30.5792 24.6152C30.5562 24.8473 30.4586 24.9694 30.2861 24.9814C27.5325 25.0972 25.3656 25.1495 23.7853 25.138Z" fill="#353043"/>
<path fill-rule="evenodd" clip-rule="evenodd" d="M17.7112 30.739C17.7049 30.4152 17.285 29.6868 16.4514 28.5524C16.3659 29.5397 16.4009 30.2143 16.5561 30.5761C16.6393 30.6501 16.695 30.6982 16.7233 30.7203L17.7112 30.739Z" fill="#FEC900"/>
<path fill-rule="evenodd" clip-rule="evenodd" d="M19.2977 35.2886C19.5404 35.9319 20.2995 36.2144 21.5766 36.1352C23.006 36.1352 23.745 36.1352 23.7858 36.1352C23.8267 36.1352 24.5618 36.1352 25.9907 36.1352C27.2673 36.2144 28.0269 35.9319 28.2696 35.2886H19.2982H19.2977Z" fill="#404040"/>
<path fill-rule="evenodd" clip-rule="evenodd" d="M21.4776 35.3279H23.6633H23.781H26.2107V36.261H23.781H23.6633H21.4776V35.3279Z" fill="#292827"/>
<path fill-rule="evenodd" clip-rule="evenodd" d="M18.2239 28.4845C18.2239 28.4845 18.2292 29.1663 18.2397 30.5294C18.2397 30.5294 18.1528 30.4438 17.9784 30.2733C17.9784 30.2733 17.9524 29.3911 17.9001 27.6273C17.9001 26.9109 17.3139 26.724 16.7863 26.3877C17.2476 26.5285 17.6694 26.699 18.0519 26.9004C18.1941 27.1199 18.2618 27.3794 18.2455 27.6403L18.2244 28.485L18.2239 28.4845Z" fill="#D3D5D5"/>
<path d="M15.6067 20.6686H14.566V23.2521H15.6067V20.6686Z" fill="black"/>
<path d="M15.6067 23.4146H14.566V24.2722H15.6067V23.4146Z" fill="black"/>
<path d="M16.782 20.5373C16.7186 20.4364 16.6172 20.3528 16.4783 20.2869C16.3332 20.2182 16.1487 20.1697 15.9248 20.1404C15.8009 20.1356 15.6774 20.1337 15.5549 20.1342C15.4381 20.1351 15.3204 20.1385 15.2012 20.1447C15.1623 20.1707 15.1445 20.2134 15.1469 20.273L15.048 24.4623C15.0648 24.5007 15.0984 24.5329 15.1489 24.5598C15.2137 24.5944 15.3041 24.6184 15.4199 24.6323L16.757 24.6218L16.7575 24.7794L15.4069 24.7899L15.404 24.7895C15.2675 24.7736 15.158 24.7433 15.0754 24.6996C14.9826 24.6506 14.9221 24.5843 14.8942 24.5007L14.8899 24.4877L14.9894 20.2778C14.9841 20.1457 15.0345 20.0525 15.1417 19.9972L15.1566 19.9895L15.1734 19.9886C15.2983 19.9818 15.4251 19.978 15.5534 19.977C15.6808 19.9761 15.8076 19.978 15.9335 19.9833L15.9402 19.9843C16.1833 20.0155 16.3846 20.0688 16.5451 20.1447C16.7118 20.2235 16.8353 20.3263 16.9151 20.4542L16.7815 20.5373H16.782Z" fill="black"/>
<path fill-rule="evenodd" clip-rule="evenodd" d="M23.7853 33.7238C23.7853 33.7238 25.3401 33.7041 28.4502 33.6652C29.673 33.681 30.2193 33.3908 30.0906 32.795C27.8597 32.8979 25.7543 32.9483 23.7815 32.9454C21.8087 32.9478 19.7071 32.8974 17.4762 32.795C17.347 33.3913 17.8938 33.681 19.1166 33.6652C22.2267 33.7041 23.7858 33.7238 23.7858 33.7238H23.7853Z" fill="#353043"/>
<path fill-rule="evenodd" clip-rule="evenodd" d="M23.7853 28.8305C23.7853 28.8305 24.9457 28.8094 27.2664 28.7676C27.4994 28.7604 27.6205 28.8473 27.6306 29.027C27.6306 29.027 27.9054 29.016 28.4551 28.9934C28.7635 29.0059 28.9129 28.7003 28.9029 28.0771C25.4915 28.1329 23.7858 28.1608 23.7858 28.1608C23.7858 28.1608 22.0758 28.1329 18.6645 28.0771C18.6544 28.7008 18.8033 29.0059 19.1123 28.9934C19.6619 29.0155 19.9368 29.027 19.9368 29.027C19.9464 28.8473 20.0679 28.7604 20.301 28.7676C22.6217 28.8094 23.7863 28.8305 23.7863 28.8305H23.7853Z" fill="#E8E9E9"/>
<path fill-rule="evenodd" clip-rule="evenodd" d="M29.8556 30.739C29.8618 30.4152 30.2818 29.6868 31.1154 28.5524C31.2009 29.5397 31.1658 30.2143 31.0106 30.5761C30.9275 30.6501 30.8718 30.6982 30.8434 30.7203L29.8556 30.739Z" fill="#FEC900"/>
<path fill-rule="evenodd" clip-rule="evenodd" d="M29.3425 28.4845C29.3425 28.4845 29.3372 29.1663 29.3266 30.5294C29.3266 30.5294 29.4136 30.4438 29.588 30.2733C29.588 30.2733 29.614 29.3911 29.6663 27.6273C29.6663 26.9109 30.2525 26.724 30.7801 26.3877C30.3188 26.5285 29.897 26.699 29.5145 26.9004C29.3723 27.1199 29.3045 27.3794 29.3209 27.6403L29.342 28.485L29.3425 28.4845Z" fill="#D3D5D5"/>
<path d="M33.0008 20.6686H31.9601V23.2521H33.0008V20.6686Z" fill="black"/>
<path d="M33.0008 23.4146H31.9601V24.2722H33.0008V23.4146Z" fill="black"/>
<path d="M30.7844 20.5373C30.8478 20.4364 30.9492 20.3528 31.0881 20.2869C31.2332 20.2182 31.4177 20.1697 31.6416 20.1404C31.7655 20.1356 31.8895 20.1337 32.0115 20.1342C32.1283 20.1351 32.246 20.1385 32.3651 20.1447C32.4041 20.1707 32.4218 20.2134 32.4194 20.273L32.5184 24.4623C32.5016 24.5007 32.468 24.5329 32.4175 24.5598C32.3527 24.5944 32.2623 24.6184 32.1465 24.6323L30.8094 24.6218L30.8089 24.7794L32.1595 24.7899L32.1624 24.7895C32.2988 24.7736 32.4084 24.7433 32.491 24.6996C32.5838 24.6506 32.6443 24.5843 32.6722 24.5007L32.6765 24.4877L32.577 20.2778C32.5823 20.1457 32.5319 20.0525 32.4247 19.9972L32.4098 19.9895L32.393 19.9886C32.2681 19.9818 32.1413 19.978 32.013 19.977C31.8856 19.9761 31.7588 19.978 31.6329 19.9833L31.6262 19.9843C31.3831 20.0155 31.1817 20.0688 31.0213 20.1447C30.8545 20.2235 30.7311 20.3263 30.6513 20.4542L30.7849 20.5373H30.7844Z" fill="black"/>
<path fill-rule="evenodd" clip-rule="evenodd" d="M23.7853 30.4871C23.7853 30.4871 24.9457 30.466 27.2664 30.4242C27.4994 30.417 27.6205 30.504 27.6306 30.6837C27.6306 30.6837 27.9054 30.6721 28.4551 30.65C28.7635 30.6625 28.9129 30.3569 28.9029 29.7338C25.4915 29.7895 23.7858 29.8174 23.7858 29.8174C23.7858 29.8174 22.0758 29.7895 18.6645 29.7338C18.6544 30.3569 18.8033 30.6625 19.1123 30.65C19.6619 30.6721 19.9368 30.6837 19.9368 30.6837C19.9464 30.504 20.0679 30.417 20.301 30.4242C22.6217 30.466 23.7863 30.4871 23.7863 30.4871H23.7853Z" fill="#E8E9E9"/>
<path fill-rule="evenodd" clip-rule="evenodd" d="M23.7853 32.0638C23.7853 32.0638 24.9457 32.0427 27.2664 32.0009C27.4994 31.9937 27.6205 32.0806 27.6306 32.2603C27.6306 32.2603 27.9054 32.2493 28.4551 32.2267C28.7635 32.2392 28.9129 31.9336 28.9029 31.3104C25.4915 31.3662 23.7858 31.394 23.7858 31.394C23.7858 31.394 22.0758 31.3662 18.6645 31.3104C18.6544 31.9336 18.8033 32.2392 19.1123 32.2267C19.6619 32.2493 19.9368 32.2603 19.9368 32.2603C19.9464 32.0806 20.0679 31.9937 20.301 32.0009C22.6217 32.0427 23.7863 32.0638 23.7863 32.0638H23.7853Z" fill="#E8E9E9"/>
<path fill-rule="evenodd" clip-rule="evenodd" d="M23.7853 29.2382C23.4913 29.2362 23.1929 29.2257 22.8994 29.2069C22.6188 28.971 22.4371 28.6851 22.3555 28.3493C22.4943 27.9193 22.7245 27.5661 23.0459 27.2903C23.0459 27.2903 23.2953 27.2884 23.7853 27.285C24.2759 27.2884 24.5209 27.2903 24.5209 27.2903C24.8424 27.5661 25.0725 27.9193 25.2114 28.3493C25.1297 28.6851 24.9481 28.971 24.6675 29.2069C24.3739 29.2257 24.0799 29.2362 23.7853 29.2382Z" fill="#353043"/>
<path fill-rule="evenodd" clip-rule="evenodd" d="M18.4766 33.9871C17.1639 34.0908 16.0646 34.2158 16.2972 32.6648C16.5504 32.6955 16.8031 32.7316 17.0544 32.7739C18.9575 33.0448 18.7947 34.0216 18.4766 33.9871Z" fill="#FEFEFE"/>
<path fill-rule="evenodd" clip-rule="evenodd" d="M29.0902 33.9871C30.4029 34.0908 31.5022 34.2158 31.2697 32.6648C31.0165 32.6955 30.7637 32.7316 30.5124 32.7739C28.6098 33.0448 28.7722 34.0216 29.0902 33.9871Z" fill="#FEFEFE"/>
<path fill-rule="evenodd" clip-rule="evenodd" d="M23.8209 28.2657C23.9496 28.2647 24.0784 28.2638 24.2071 28.2628C24.2552 28.2623 24.3028 28.2614 24.3508 28.2609C24.3969 28.2604 24.4426 28.2609 24.4887 28.2604C24.5536 28.2628 24.6285 28.2575 24.6819 28.2835C24.7107 28.2974 24.7208 28.3185 24.7265 28.3502C24.7265 28.3526 24.7265 28.3546 24.7275 28.3565C24.7261 28.4021 24.6982 28.4555 24.6775 28.4982C24.6482 28.5597 24.5973 28.615 24.5454 28.6654C24.457 28.7514 24.2831 28.8514 24.1 28.9009C24.075 28.9076 24.0452 28.9182 24.0178 28.9249C23.9972 28.9302 24.0044 28.9403 24.0178 28.9388C24.0472 28.9364 24.0798 28.9287 24.1063 28.922C24.3186 28.8687 24.4656 28.7836 24.567 28.7015C24.6276 28.6525 24.691 28.5828 24.7323 28.5102C24.7602 28.4608 24.7885 28.381 24.7924 28.3517C24.7972 28.3133 24.8025 28.2935 24.8005 28.2325H24.8001C24.7948 28.1292 24.7621 28.0475 24.7016 27.9534C24.6972 27.9466 24.6915 27.9409 24.6871 27.9342C24.6852 27.9308 24.6828 27.926 24.6852 27.9207L24.6867 27.9197C24.6919 27.9178 24.7001 27.9245 24.7044 27.9294C24.7544 27.9846 24.7823 28.0293 24.8087 28.086C24.8443 28.1605 24.8529 28.2143 24.8591 28.2806C24.8601 28.2926 24.874 28.2993 24.875 28.2782C24.8779 28.2075 24.862 28.1331 24.8332 28.0672C24.7996 27.9909 24.7631 27.9491 24.7169 27.8924C24.7169 27.8924 24.7165 27.8919 24.716 27.8914C24.6602 27.8342 24.5939 27.7799 24.5262 27.7372C24.4219 27.6713 24.3153 27.6276 24.2004 27.5964C24.1533 27.5839 24.1043 27.5733 24.0553 27.568C24.0404 27.5661 24.0236 27.5671 24.0087 27.5666C23.9977 27.5666 23.9866 27.5781 24.0087 27.5834C24.039 27.5906 24.0683 27.5973 24.0986 27.6065C24.2115 27.6387 24.3234 27.6824 24.4234 27.7458C24.506 27.7987 24.5473 27.8256 24.6458 27.9486C24.6574 27.9659 24.6843 28.0072 24.6991 28.0408C24.7092 28.0639 24.7232 28.1009 24.7241 28.1283V28.1292C24.7213 28.1561 24.7155 28.1744 24.6939 28.1874C24.6497 28.2138 24.6107 28.2157 24.5497 28.2186C24.507 28.2205 24.4642 28.2215 24.4214 28.222C24.358 28.2234 24.2956 28.2248 24.2316 28.2258C24.0952 28.2282 23.9578 28.2296 23.8213 28.2311C23.8069 28.2311 23.792 28.2316 23.7776 28.2316C23.6383 28.2325 23.498 28.2335 23.3586 28.2335C23.2943 28.2335 23.2323 28.2335 23.1689 28.233C23.1261 28.233 23.0833 28.233 23.0406 28.2316C22.9791 28.2296 22.9401 28.2282 22.8955 28.2027C22.8738 28.1902 22.8676 28.1725 22.8642 28.1451V28.1441C22.8642 28.1167 22.8782 28.0793 22.8878 28.0562C22.9017 28.0221 22.9281 27.9803 22.9392 27.963C23.0358 27.8381 23.0761 27.8107 23.1578 27.7559C23.2563 27.6906 23.3673 27.6454 23.4797 27.6108C23.51 27.6017 23.5393 27.594 23.5691 27.5863C23.5912 27.581 23.5797 27.5695 23.5686 27.5695C23.5537 27.57 23.5369 27.57 23.5215 27.5719C23.4725 27.5781 23.4235 27.5892 23.3769 27.6031C23.2625 27.6367 23.1568 27.6819 23.0535 27.7501C22.9867 27.7939 22.9209 27.8491 22.8666 27.9073C22.8666 27.9077 22.8662 27.9077 22.8657 27.9082C22.82 27.9654 22.7849 28.0082 22.7523 28.085C22.7244 28.1513 22.71 28.2263 22.7143 28.2969C22.7153 28.3181 22.7287 28.3108 22.7297 28.2988C22.7345 28.2325 22.7427 28.1787 22.7768 28.1033C22.8022 28.0461 22.8292 28.0009 22.8782 27.9447C22.8825 27.9399 22.8907 27.9332 22.8959 27.9351L22.8974 27.9361C22.8998 27.9414 22.8974 27.9467 22.8955 27.9495C22.8916 27.9563 22.8859 27.9625 22.8815 27.9692C22.8224 28.0639 22.7912 28.1465 22.7878 28.2498H22.7874C22.7864 28.3108 22.7917 28.3305 22.7974 28.369C22.8018 28.3983 22.8316 28.4776 22.8604 28.5266C22.9027 28.5982 22.9675 28.6669 23.0285 28.7149C23.1314 28.7952 23.2794 28.8778 23.4932 28.9273C23.5191 28.9335 23.5523 28.9407 23.5816 28.9422C23.595 28.9431 23.6022 28.9326 23.5816 28.9283C23.5542 28.922 23.5239 28.9119 23.4989 28.9057C23.3149 28.8595 23.1395 28.7625 23.0497 28.6784C22.9968 28.6289 22.9449 28.5746 22.9147 28.5136C22.8935 28.4713 22.8642 28.418 22.8623 28.3728C22.8628 28.3709 22.8628 28.3695 22.8628 28.3666C22.8681 28.3349 22.8777 28.3137 22.9065 28.2993C22.9594 28.2719 23.0343 28.2763 23.0992 28.2729C23.1453 28.2724 23.1909 28.271 23.2371 28.271C23.2851 28.2705 23.3332 28.2705 23.3812 28.27C23.5129 28.269 23.645 28.2671 23.7771 28.2662C23.792 28.2662 23.8064 28.2657 23.8213 28.2657H23.8209ZM23.8194 28.2186C23.9107 28.2176 24.0025 28.2176 24.0923 28.2157C24.1577 28.2143 24.2235 28.2128 24.2888 28.2104C24.3475 28.2085 24.4056 28.2056 24.4652 28.2008C24.5209 28.1965 24.5968 28.1869 24.6098 28.1778C24.6194 28.171 24.6156 28.1624 24.6079 28.1561C24.5954 28.1465 24.58 28.1384 24.5656 28.1331C24.5593 28.1307 24.5502 28.1321 24.5449 28.1364C24.5339 28.1456 24.5276 28.1484 24.5137 28.1518C24.4594 28.1667 24.42 28.173 24.3479 28.1792C24.2941 28.1835 24.2398 28.1874 24.1865 28.1898C24.0649 28.1946 23.99 28.196 23.8199 28.1979C23.805 28.1979 23.7896 28.1984 23.7742 28.1984C23.5998 28.1999 23.5244 28.1994 23.4014 28.197C23.3481 28.196 23.2933 28.1931 23.2395 28.1898C23.1669 28.185 23.128 28.1792 23.0732 28.1653C23.0593 28.1619 23.0531 28.159 23.042 28.1504C23.0367 28.146 23.0276 28.1451 23.0213 28.1475C23.0069 28.1533 22.9911 28.1614 22.9795 28.1715C22.9719 28.1778 22.9685 28.1869 22.9781 28.1931C22.9911 28.2018 23.067 28.2104 23.1227 28.2133C23.1818 28.2167 23.2404 28.2186 23.2991 28.2196C23.3644 28.2205 23.4302 28.221 23.4956 28.2215C23.5873 28.222 23.681 28.22 23.7747 28.2196C23.7896 28.2196 23.805 28.2191 23.8199 28.2191L23.8194 28.2186ZM23.8175 28.1696C24.0044 28.1677 24.2033 28.1686 24.3873 28.148C24.4801 28.1374 24.506 28.0884 24.5094 28.0557C24.5209 27.9495 24.3619 27.8116 24.2787 27.7674C24.1663 27.7074 24.0649 27.6603 23.9309 27.6257C23.9136 27.6214 23.9025 27.6017 23.9025 27.5858C23.9025 27.5719 23.9237 27.5551 23.9371 27.5517C23.9789 27.5411 24.0226 27.5435 24.0669 27.5498C24.137 27.5594 24.2043 27.5724 24.2735 27.5921C24.3643 27.6185 24.4637 27.6641 24.5507 27.7179C24.6636 27.7871 24.7611 27.8751 24.8322 27.9856C24.8827 28.0639 24.9207 28.1657 24.9211 28.2527C24.9221 28.3599 24.8822 28.4651 24.8236 28.5568C24.7674 28.6453 24.69 28.7168 24.6045 28.7798C24.5271 28.837 24.4392 28.8807 24.3503 28.9162C24.2725 28.9475 24.1908 28.9667 24.1087 28.9801C24.0563 28.9888 24.0049 28.9926 23.9525 28.9845C23.9391 28.9825 23.916 28.9667 23.9145 28.9528C23.9131 28.9374 23.9242 28.9191 23.939 28.9143C23.9833 28.9009 24.0558 28.8773 24.1087 28.8538C24.1759 28.824 24.2446 28.7932 24.3052 28.7524C24.3657 28.712 24.4253 28.6645 24.4652 28.6068C24.4873 28.5751 24.5103 28.5314 24.5122 28.4992C24.5132 28.479 24.5132 28.455 24.5031 28.4377C24.4623 28.3723 24.3508 28.3767 24.2672 28.3728C24.1908 28.3699 24.1163 28.3699 24.0404 28.3685C23.9635 28.3666 23.8732 28.3671 23.7959 28.3666C23.718 28.3685 23.6277 28.3699 23.5513 28.3728C23.4749 28.3757 23.4004 28.3772 23.324 28.3815C23.2409 28.3863 23.129 28.3844 23.0896 28.4507C23.0795 28.4675 23.08 28.492 23.0814 28.5122C23.0843 28.5444 23.1078 28.5876 23.1299 28.6188C23.1708 28.6755 23.2308 28.7221 23.2923 28.7615C23.3538 28.8014 23.423 28.8307 23.4908 28.8595C23.5441 28.8821 23.6176 28.9042 23.6618 28.9172C23.6767 28.9215 23.6882 28.9393 23.6868 28.9552C23.6854 28.9691 23.6628 28.9854 23.6493 28.9878C23.597 28.997 23.5455 28.9941 23.4932 28.9859C23.4105 28.9739 23.3284 28.9561 23.2505 28.9268C23.1607 28.8927 23.0723 28.8504 22.9935 28.7947C22.907 28.7337 22.8282 28.663 22.7705 28.5756C22.7105 28.4848 22.6682 28.3805 22.6672 28.2734C22.6668 28.1864 22.7028 28.0841 22.7513 28.0048C22.8205 27.8928 22.9166 27.803 23.0281 27.7319C23.1141 27.6771 23.2126 27.6291 23.3029 27.6012C23.3716 27.5801 23.4384 27.5656 23.5085 27.5551C23.5523 27.5483 23.596 27.5455 23.6383 27.5546C23.6517 27.5579 23.6729 27.5743 23.6733 27.5882C23.6733 27.6041 23.6628 27.6238 23.6455 27.6286C23.5124 27.6656 23.412 27.7146 23.3005 27.7766C23.2183 27.8222 23.0617 27.9635 23.0752 28.0687C23.0795 28.1009 23.1064 28.1499 23.1991 28.1585C23.3851 28.1763 23.5854 28.171 23.7742 28.1701C23.7887 28.1701 23.8031 28.1701 23.8175 28.1696Z" fill="#D3D5D5"/>
<path d="M39.1218 4.00024H8.87848C6.18431 4.00024 4.00024 6.1843 4.00024 8.87848V39.1218C4.00024 41.816 6.18431 44 8.87848 44H39.1218C41.816 44 44 41.816 44 39.1218V8.87848C44 6.1843 41.816 4.00024 39.1218 4.00024Z" fill="white" stroke="black" stroke-width="2" stroke-miterlimit="22.9256"/>
<path fill-rule="evenodd" clip-rule="evenodd" d="M4 15H44V9.49975C44 6.47484 41.6202 4 38.7115 4H8.85569C6.18513 4 4 6.27192 4 9.04964V15Z" fill="black"/>
<rect x="9" y="20" width="10" height="10" fill="#C4C4C4"/>
<rect x="21" y="26" width="18" height="4" fill="#C4C4C4"/>
<rect x="9" y="32" width="30" height="4" fill="#C4C4C4"/>
<rect x="21" y="20" width="18" height="4" fill="#C4C4C4"/>
</svg>
