<svg width="42" height="42" viewBox="0 0 42 42" fill="none" xmlns="http://www.w3.org/2000/svg">
<path d="M36.1216 1H5.87823C3.18406 1 1 3.18406 1 5.87823V36.1216C1 38.8157 3.18406 40.9998 5.87823 40.9998H36.1216C38.8157 40.9998 40.9998 38.8157 40.9998 36.1216V5.87823C40.9998 3.18406 38.8157 1 36.1216 1Z" stroke="#C80000" stroke-width="2" stroke-miterlimit="22.9256"/>
<path fill-rule="evenodd" clip-rule="evenodd" d="M1 11.6266H41.1857V6.31306C41.1857 3.39083 38.7949 1 35.8727 1H5.87823C3.19528 1 1 3.1948 1 5.87823V11.6266Z" fill="#C80000"/>
<path d="M13.4871 17.3853L23.4766 27.3752L22.8323 28.0191L12.8428 18.03L13.4871 17.3853Z" fill="#999999"/>
<path d="M13.5297 17.4288L12.9608 16.5914L11.9643 16.0244L11.7231 16.2661L11.4814 16.5078L12.0479 17.5043L12.8859 18.0731C12.8859 18.0731 14.0486 18.9034 14.2048 18.7477C14.3604 18.5921 13.5307 17.4288 13.5307 17.4288H13.5297Z" fill="#CCCCCC"/>
<path d="M11.9643 16.0244L11.7231 16.2661L11.481 16.5078L12.0474 17.5038L12.9608 16.5914L11.9643 16.0244Z" fill="#1A1A1A"/>
<path d="M29.7116 31.4515C29.2522 30.9926 27.7459 29.4858 27.0449 28.7848C26.3439 28.0843 25.6218 28.0814 24.2899 27.0532C22.9696 26.0337 22.5203 24.98 22.5203 24.98L21.4782 26.0221L20.436 27.0638C20.436 27.0638 21.4897 27.513 22.5093 28.8334C23.5375 30.1652 23.5404 30.8874 24.2414 31.5884C24.9424 32.2894 26.4487 33.7957 26.908 34.255C27.3668 34.7139 28.4705 35.4471 29.687 34.231C30.9036 33.0144 30.1704 31.9108 29.7116 31.4515Z" fill="#1A1A1A"/>
<path d="M29.3962 32.1831C28.9724 31.5902 24.6136 27.879 23.9746 28.518C23.3355 29.1575 27.0462 33.5159 27.6396 33.9402C28.2412 34.3697 28.8187 33.9209 29.0983 33.6418C29.3775 33.3626 29.8262 32.7851 29.3967 32.1831H29.3962Z" fill="#CCCCCC"/>
<path d="M22.5205 24.9801L22.2946 24.7543L21.3495 24.6039L21.0271 24.9263L20.3372 24.2363L19.6929 24.8806L20.3828 25.5706L20.0604 25.8925L20.2108 26.8381L20.4362 27.0634C20.4362 27.0634 20.7177 27.1845 21.129 27.4814L22.938 25.6725C22.641 25.2612 22.52 24.9796 22.52 24.9796L22.5205 24.9801Z" fill="#CCCCCC"/>
<path d="M12.7214 31.5124C13.3729 30.8609 14.429 30.8609 15.0805 31.5124C15.732 32.164 15.7315 33.2196 15.0805 33.8711C14.429 34.5221 13.3729 34.5221 12.7214 33.8711C12.0698 33.2196 12.0698 32.1635 12.7214 31.5124ZM12.3524 34.2401C13.2076 35.0953 14.5938 35.0953 15.449 34.2401C16.4301 33.2585 16.2548 31.6657 17.9297 29.9908L24.5525 23.368C26.2274 21.693 27.7265 21.6671 28.9998 21.0852C30.0597 20.2953 30.4114 18.0991 29.7772 17.4154L28.5323 19.6145C27.517 19.5578 26.8727 19.1374 26.227 18.3321L27.445 16.0677C26.7858 15.9596 25.733 16.3036 24.8278 17.7906C24.3248 19.1955 24.8994 20.3645 23.2245 22.0399L16.6017 28.6628C14.9263 30.3377 13.334 30.1618 12.3524 31.1434C11.4971 31.9987 11.4971 33.3848 12.3524 34.2401Z" fill="#999999"/>
<path d="M16.662 29.4104C16.5554 29.3037 16.5554 29.1312 16.662 29.025L23.5885 22.0986C23.6947 21.9919 23.8677 21.9919 23.9739 22.0986L24.4937 22.6184C24.5999 22.7251 24.5999 22.8976 24.4937 23.0038L17.5672 29.9303C17.4611 30.0369 17.2886 30.0369 17.1819 29.9303L16.662 29.4104Z" fill="#CCCCCC"/>
<path d="M12.403 32.7498C12.4016 32.7109 12.4016 32.6724 12.403 32.634L12.6966 32.3692L12.5736 31.9906C12.5913 31.9575 12.6115 31.9248 12.6317 31.8926L13.0194 31.81L13.1016 31.4227C13.1338 31.4025 13.1665 31.3819 13.1996 31.3646L13.5782 31.4876L13.843 31.1935C13.8814 31.1921 13.9203 31.1921 13.9592 31.1935L14.224 31.4876L14.6021 31.3646C14.6358 31.3819 14.6679 31.4021 14.7001 31.4227L14.7828 31.81L15.1705 31.8926C15.1907 31.9243 15.2104 31.9575 15.2282 31.9906L15.1052 32.3692L15.3992 32.634C15.4007 32.6724 15.4007 32.7109 15.3992 32.7498L15.1052 33.0145L15.2282 33.3931C15.2104 33.4268 15.1907 33.459 15.1705 33.4912L14.7828 33.5733L14.7001 33.9611C14.6679 33.9812 14.6358 34.0014 14.6021 34.0187L14.224 33.8962L13.9592 34.1893C13.9203 34.1912 13.8814 34.1912 13.843 34.1893L13.5782 33.8962L13.1996 34.0187C13.1665 34.0014 13.1338 33.9812 13.1016 33.9611L13.0194 33.5733L12.6317 33.4912C12.6115 33.459 12.5913 33.4263 12.5736 33.3931L12.6966 33.0145L12.403 32.7498ZM15.0807 33.8712C15.7317 33.2197 15.7317 32.1636 15.0807 31.5126C14.4291 30.861 13.3731 30.861 12.7216 31.5126C12.07 32.1641 12.07 33.2197 12.7216 33.8712C13.3731 34.5222 14.4291 34.5222 15.0807 33.8712Z" fill="#353F48"/>
<path d="M5.15039 6.87598C5.15039 6.12207 5.35254 5.54102 5.75684 5.13281C6.1084 4.77734 6.55566 4.59961 7.09863 4.59961C7.8252 4.59961 8.35645 4.83789 8.69238 5.31445C8.87793 5.58203 8.97754 5.85059 8.99121 6.12012H8.08887C8.03027 5.91309 7.95508 5.75684 7.86328 5.65137C7.69922 5.46387 7.45605 5.37012 7.13379 5.37012C6.80566 5.37012 6.54688 5.50293 6.35742 5.76855C6.16797 6.03223 6.07324 6.40625 6.07324 6.89062C6.07324 7.375 6.17285 7.73828 6.37207 7.98047C6.57324 8.2207 6.82812 8.34082 7.13672 8.34082C7.45312 8.34082 7.69434 8.2373 7.86035 8.03027C7.95215 7.91895 8.02832 7.75195 8.08887 7.5293H8.98242C8.9043 8 8.7041 8.38281 8.38184 8.67773C8.06152 8.97266 7.65039 9.12012 7.14844 9.12012C6.52734 9.12012 6.03906 8.9209 5.68359 8.52246C5.32812 8.12207 5.15039 7.57324 5.15039 6.87598ZM10.8545 7.36816H11.9502L11.4111 5.66895L10.8545 7.36816ZM10.9102 4.68164H11.9297L13.459 9H12.4805L12.2021 8.1123H10.6113L10.3125 9H9.36914L10.9102 4.68164ZM16.8721 4.68164H18.1699V9H17.3291V6.0791C17.3291 5.99512 17.3301 5.87793 17.332 5.72754C17.334 5.5752 17.335 5.45801 17.335 5.37598L16.5176 9H15.6416L14.8301 5.37598C14.8301 5.45801 14.8311 5.5752 14.833 5.72754C14.835 5.87793 14.8359 5.99512 14.8359 6.0791V9H13.9951V4.68164H15.3076L16.0928 8.07715L16.8721 4.68164ZM21.4395 6.05566C21.4395 5.83105 21.3799 5.6709 21.2607 5.5752C21.1436 5.47949 20.9785 5.43164 20.7656 5.43164H19.9248V6.70312H20.7656C20.9785 6.70312 21.1436 6.65137 21.2607 6.54785C21.3799 6.44434 21.4395 6.28027 21.4395 6.05566ZM22.333 6.0498C22.333 6.55957 22.2041 6.91992 21.9463 7.13086C21.6885 7.3418 21.3203 7.44727 20.8418 7.44727H19.9248V9H19.0283V4.68164H20.9092C21.3428 4.68164 21.6885 4.79297 21.9463 5.01562C22.2041 5.23828 22.333 5.58301 22.333 6.0498ZM23.7451 7.36816H24.8408L24.3018 5.66895L23.7451 7.36816ZM23.8008 4.68164H24.8203L26.3496 9H25.3711L25.0928 8.1123H23.502L23.2031 9H22.2598L23.8008 4.68164ZM27.7266 9H26.8301V4.68164H27.7266V9ZM31.4736 6.0293C31.4053 5.73438 31.2383 5.52832 30.9727 5.41113C30.8242 5.34668 30.6592 5.31445 30.4775 5.31445C30.1299 5.31445 29.8438 5.44629 29.6191 5.70996C29.3965 5.97168 29.2852 6.36621 29.2852 6.89355C29.2852 7.4248 29.4062 7.80078 29.6484 8.02148C29.8906 8.24219 30.166 8.35254 30.4746 8.35254C30.7773 8.35254 31.0254 8.26562 31.2188 8.0918C31.4121 7.91602 31.5312 7.68652 31.5762 7.40332H30.5771V6.68262H32.376V9H31.7783L31.6875 8.46094C31.5137 8.66602 31.3574 8.81055 31.2188 8.89453C30.9805 9.04102 30.6875 9.11426 30.3398 9.11426C29.7676 9.11426 29.2988 8.91602 28.9336 8.51953C28.5527 8.12109 28.3623 7.57617 28.3623 6.88477C28.3623 6.18555 28.5547 5.625 28.9395 5.20312C29.3242 4.78125 29.833 4.57031 30.4658 4.57031C31.0146 4.57031 31.4551 4.70996 31.7871 4.98926C32.1211 5.2666 32.3125 5.61328 32.3613 6.0293H31.4736ZM33.2256 4.68164H34.1719L35.8916 7.69629V4.68164H36.7324V9H35.8301L34.0664 5.93262V9H33.2256V4.68164Z" fill="white"/>
</svg>
