<svg width="18" height="18" viewBox="0 0 18 18" fill="none" xmlns="http://www.w3.org/2000/svg">
<path d="M15.4341 5.2998V7.54556L16.8603 6.48607L15.4341 5.2998Z" fill="black"/>
<path d="M9.41754 0.314686C8.91496 -0.101865 8.186 -0.106392 7.68342 0.310159L7.1084 0.799154H10.0016L9.41754 0.314686Z" fill="black"/>
<path d="M0.244141 6.48585L1.6251 7.51364V5.34033L0.244141 6.48585Z" fill="black"/>
<path d="M2.69971 1.70459V8.1883L7.9066 12.064C8.39106 12.4172 9.05664 12.4172 9.54111 12.064L14.6982 8.21999V1.70459H2.69971Z" fill="black"/>
<path d="M9.9067 12.7887C9.51731 13.0785 9.04643 13.237 8.56196 13.2325C8.0775 13.2325 7.60209 13.0785 7.2127 12.7887L2.53658e-05 7.40527V16.6373C-0.00450236 17.3844 0.597686 17.9956 1.34476 18.0002H15.7656C16.5127 17.9956 17.1148 17.3844 17.1103 16.6373V7.40527L9.9067 12.7887Z" fill="black"/>
<path fill-rule="evenodd" clip-rule="evenodd" d="M12.5997 9.78429V8.65764C12.5997 8.10338 12.1376 7.6499 11.5729 7.6499H5.97655C5.39467 7.64973 4.94971 8.10338 4.94971 8.65747V9.86292L7.90678 12.064C8.39125 12.4172 9.05682 12.4172 9.54129 12.064L12.5997 9.78429Z" fill="#940000"/>
<path d="M8.55 6.7499C9.54411 6.7499 10.35 5.94401 10.35 4.9499C10.35 3.95579 9.54411 3.1499 8.55 3.1499C7.55589 3.1499 6.75 3.95579 6.75 4.9499C6.75 5.94401 7.55589 6.7499 8.55 6.7499Z" fill="white"/>
</svg>
