<svg width="20" height="20" viewBox="0 0 20 20" fill="none" xmlns="http://www.w3.org/2000/svg">
<rect x="1" y="3" width="14" height="14" fill="white"/>
<path d="M3.6001 8.1001H5.4001V9.9001H3.6001V8.1001ZM3.6001 11.7001H5.4001V13.5001H3.6001V11.7001ZM7.2001 8.1001H9.0001V9.9001H7.2001V8.1001ZM7.2001 11.7001H9.0001V13.5001H7.2001V11.7001ZM10.8001 8.1001H12.6001V9.9001H10.8001V8.1001ZM10.8001 11.7001H12.6001V13.5001H10.8001V11.7001Z" fill="black"/>
<path d="M1.8 18H14.4C15.3927 18 16.2 17.1927 16.2 16.2V5.4V3.6C16.2 2.6073 15.3927 1.8 14.4 1.8H12.6V0H10.8V1.8H5.4V0H3.6V1.8H1.8C0.8073 1.8 0 2.6073 0 3.6V5.4V16.2C0 17.1927 0.8073 18 1.8 18ZM14.4 5.4L14.4009 16.2H1.8V5.4H14.4Z" fill="black"/>
<rect x="13" y="13" width="5" height="5" fill="white"/>
<path d="M15.5 11C13.0187 11 11 13.0187 11 15.5C11 17.9813 13.0187 20 15.5 20C17.9813 20 20 17.9813 20 15.5C20 13.0187 17.9813 11 15.5 11ZM14.6005 17.4858L12.9296 15.8186L13.565 15.1814L14.5995 16.2141L16.9819 13.8319L17.6182 14.4681L14.6005 17.4858Z" fill="#940000"/>
</svg>
