<svg width="42" height="42" viewBox="0 0 42 42" fill="none" xmlns="http://www.w3.org/2000/svg">
<path fill-rule="evenodd" clip-rule="evenodd" d="M25.9844 27.7661C27.6132 27.7858 28.5511 27.8074 28.799 27.831C28.8259 29.2061 28.8398 29.8936 28.8398 29.8936C26.991 29.9859 26.1156 30.0311 26.214 30.0286C25.8941 28.7809 25.8172 28.0265 25.9844 27.7656V27.7661Z" fill="#E8E9E9"/>
<path fill-rule="evenodd" clip-rule="evenodd" d="M15.5854 27.7661C13.9566 27.7858 13.0187 27.8074 12.7708 27.831C12.7439 29.2061 12.73 29.8936 12.73 29.8936C14.5788 29.9859 15.4543 30.0311 15.3558 30.0286C15.6758 28.7809 15.7526 28.0265 15.5854 27.7656V27.7661Z" fill="#E8E9E9"/>
<path fill-rule="evenodd" clip-rule="evenodd" d="M28.2826 28.1047C28.2408 25.3978 28.2206 24.0375 28.2221 24.0236C28.2154 23.5599 28.2115 23.3284 28.2115 23.3284C28.2096 23.2183 28.2086 23.1636 28.2086 23.1636C28.2466 23.0007 28.2696 22.8239 28.2769 22.6326C28.3062 22.1152 28.2615 21.825 28.1438 21.762C27.9948 19.0373 27.7786 17.3532 27.4956 16.7103C26.858 16.3899 26.4506 16.2294 26.2718 16.2294C26.0196 16.0434 25.8067 15.9497 25.6338 15.9469C22.4016 15.87 20.7853 15.832 20.7853 15.832C20.7853 15.832 19.1652 15.87 15.933 15.9469C15.7601 15.9497 15.5472 16.0434 15.295 16.2294C15.1162 16.2294 14.7088 16.3899 14.0712 16.7103C13.7882 17.3532 13.572 19.0373 13.4231 21.762C13.3053 21.825 13.2607 22.1152 13.29 22.6326C13.2972 22.8239 13.3198 23.0007 13.3582 23.1636C13.3582 23.1636 13.3572 23.2183 13.3553 23.3284C13.3553 23.3284 13.3519 23.5604 13.3447 24.0236C13.3462 24.0375 13.326 25.3982 13.2842 28.1047H28.2831H28.2826Z" fill="#E8E9E9"/>
<path d="M15.3674 32.1338H13.5181V34.8312H15.3674V32.1338Z" fill="#404040"/>
<path fill-rule="evenodd" clip-rule="evenodd" d="M13.3296 31.9829C13.3353 32.2923 13.3382 32.6018 13.3378 32.9117C14.7907 32.9198 15.5172 32.9242 15.5172 32.9242C15.5172 32.3779 15.5172 32.104 15.5172 32.104L13.3291 31.9829H13.3296Z" fill="#292827"/>
<path d="M28.0486 32.1338H26.1992V34.8312H28.0486V32.1338Z" fill="#404040"/>
<path fill-rule="evenodd" clip-rule="evenodd" d="M28.2364 31.9829C28.2307 32.2923 28.2278 32.6018 28.2283 32.9117C26.7753 32.9198 26.0488 32.9242 26.0488 32.9242C26.0488 32.3779 26.0488 32.104 26.0488 32.104L28.2369 31.9829H28.2364Z" fill="#292827"/>
<path fill-rule="evenodd" clip-rule="evenodd" d="M13.2836 28.1051H28.2825C28.2806 27.9711 28.2787 27.8404 28.2763 27.7126C28.124 27.7155 27.9798 27.7179 27.8429 27.7208C27.4489 27.728 27.1193 27.7342 26.8551 27.7395C26.316 27.7496 26.0464 27.7549 26.0464 27.7549C26.0603 26.0358 26.0671 25.1767 26.0671 25.1767C26.0628 24.8615 25.946 24.6996 25.7168 24.6904C24.471 24.7207 23.2001 24.7394 21.9235 24.7462C22.0042 24.8682 22.0744 24.9994 22.133 25.1397C22.9853 25.1257 24.2413 25.1051 25.9013 25.0782C25.9114 25.7018 25.7625 26.0069 25.4535 25.9944C24.9039 26.0165 24.629 26.0281 24.629 26.0281C24.6194 25.8484 24.4979 25.7614 24.2648 25.7686C23.325 25.7854 22.5755 25.7989 22.0162 25.8094C21.9249 25.955 21.8082 26.0876 21.6655 26.2073C21.3719 26.226 21.0779 26.2366 20.7833 26.2385C20.4893 26.2366 20.1909 26.226 19.8973 26.2073C19.7546 26.0876 19.6379 25.955 19.5466 25.8094C18.9868 25.7994 18.2368 25.7859 17.298 25.7691C17.065 25.7619 16.9439 25.8488 16.9338 26.0285C16.9338 26.0285 16.659 26.0175 16.1093 25.9949C15.8008 26.0074 15.6514 25.7018 15.6615 25.0787C17.3206 25.106 18.577 25.1262 19.4298 25.1402C19.4889 24.9999 19.5586 24.8687 19.6393 24.7466C18.3632 24.7394 17.0923 24.7212 15.846 24.6909C15.6168 24.7 15.4996 24.8624 15.4957 25.1771C15.4957 25.1771 15.5029 26.0362 15.5164 27.7554C15.5164 27.7554 15.2468 27.7501 14.7078 27.74C14.4435 27.7347 14.1139 27.7285 13.7199 27.7212C13.583 27.7184 13.4388 27.716 13.2865 27.7131C13.2846 27.8404 13.2827 27.9711 13.2803 28.1056L13.2836 28.1051Z" fill="#6D6E6E"/>
<path fill-rule="evenodd" clip-rule="evenodd" d="M26.1032 28.9083C26.1032 28.9083 26.1046 28.7243 26.1075 28.3563C26.9993 28.325 27.7243 28.2414 28.2831 28.1055H13.2842C13.843 28.2414 14.568 28.325 15.4598 28.3563C15.4626 28.7243 15.4641 28.9083 15.4641 28.9083C15.5583 29.0664 15.5938 29.2749 15.5707 29.5349C16.4644 29.5685 17.3077 29.5772 18.0995 29.5613C19.8662 29.6151 21.7011 29.6151 23.4678 29.5613C24.2596 29.5772 25.1028 29.5685 25.9965 29.5349C25.9735 29.2754 26.009 29.0664 26.1032 28.9083Z" fill="#6D6E6E"/>
<path fill-rule="evenodd" clip-rule="evenodd" d="M25.3916 32.2844C26.8589 32.3627 27.8074 32.2623 28.2365 31.9832C28.2807 31.828 28.2917 31.6776 28.2701 31.5315C28.677 31.3499 28.5209 29.7711 28.5214 29.3853C26.6538 29.5323 24.9692 29.5909 23.4678 29.5606C21.7011 29.6144 19.8661 29.6144 18.0995 29.5606C16.5975 29.5909 14.913 29.5323 13.0458 29.3853C13.0458 29.7706 12.8902 31.3499 13.2971 31.5315C13.275 31.6776 13.2866 31.828 13.3308 31.9832C13.7598 32.2623 14.7083 32.3627 16.1756 32.2844C19.1474 32.3978 22.4208 32.3978 25.3925 32.2844H25.3916Z" fill="#7C8785"/>
<path fill-rule="evenodd" clip-rule="evenodd" d="M20.7853 22.1385C19.2051 22.1495 17.0338 22.0972 14.2802 21.9819C14.1077 21.9703 14.0102 21.8483 13.9871 21.6157C13.7685 20.0326 13.9079 18.4206 14.3951 16.8989C14.4864 16.8115 14.6223 16.7644 14.803 16.7577C18.7885 16.7125 20.7853 16.6895 20.7853 16.6895C20.7853 16.6895 22.7779 16.712 26.7634 16.7577C26.944 16.7639 27.0795 16.811 27.1713 16.8989C27.6585 18.4211 27.7978 20.0331 27.5792 21.6157C27.5562 21.8478 27.4586 21.9698 27.2861 21.9819C24.5325 22.0976 22.3656 22.15 20.7853 22.1385Z" fill="#353043"/>
<path fill-rule="evenodd" clip-rule="evenodd" d="M14.7111 27.7394C14.7048 27.4155 14.2849 26.6871 13.4513 25.5527C13.3657 26.5401 13.4008 27.2147 13.556 27.5765C13.6391 27.6505 13.6949 27.6985 13.7232 27.7206L14.7111 27.7394Z" fill="#FEC900"/>
<path fill-rule="evenodd" clip-rule="evenodd" d="M16.2979 32.2886C16.5405 32.9319 17.2996 33.2144 18.5767 33.1352C20.0061 33.1352 20.7451 33.1352 20.7859 33.1352C20.8268 33.1352 21.5619 33.1352 22.9908 33.1352C24.2674 33.2144 25.0271 32.9319 25.2697 32.2886H16.2983H16.2979Z" fill="#404040"/>
<path fill-rule="evenodd" clip-rule="evenodd" d="M18.4775 32.3281H20.6632H20.7809H23.2107V33.2612H20.7809H20.6632H18.4775V32.3281Z" fill="#292827"/>
<path fill-rule="evenodd" clip-rule="evenodd" d="M15.2237 25.4845C15.2237 25.4845 15.229 26.1663 15.2396 27.5294C15.2396 27.5294 15.1526 27.4438 14.9782 27.2733C14.9782 27.2733 14.9522 26.3911 14.8999 24.6273C14.8999 23.9109 14.3137 23.724 13.7861 23.3877C14.2474 23.5285 14.6692 23.699 15.0517 23.9004C15.1939 24.1199 15.2617 24.3794 15.2453 24.6403L15.2242 25.485L15.2237 25.4845Z" fill="#D3D5D5"/>
<path d="M12.6066 17.6689H11.5659V20.2524H12.6066V17.6689Z" fill="black"/>
<path d="M12.6066 20.415H11.5659V21.2727H12.6066V20.415Z" fill="black"/>
<path d="M13.7817 17.5375C13.7183 17.4366 13.6169 17.353 13.4781 17.2872C13.333 17.2185 13.1485 17.17 12.9246 17.1406C12.8006 17.1358 12.6771 17.1339 12.5546 17.1344C12.4379 17.1354 12.3202 17.1387 12.201 17.145C12.1621 17.1709 12.1443 17.2137 12.1467 17.2733L12.0477 21.4625C12.0645 21.5009 12.0982 21.5331 12.1486 21.56C12.2135 21.5946 12.3038 21.6186 12.4196 21.6326L13.7568 21.622L13.7572 21.7796L12.4066 21.7902L12.4038 21.7897C12.2673 21.7738 12.1578 21.7436 12.0751 21.6999C11.9824 21.6508 11.9218 21.5845 11.894 21.5009L11.8896 21.488L11.9891 17.2781C11.9838 17.1459 12.0343 17.0527 12.1414 16.9975L12.1563 16.9898L12.1731 16.9888C12.2981 16.9821 12.4249 16.9782 12.5532 16.9773C12.6805 16.9763 12.8073 16.9783 12.9332 16.9835L12.94 16.9845C13.1831 17.0157 13.3844 17.0691 13.5449 17.145C13.7116 17.2238 13.8351 17.3266 13.9148 17.4544L13.7813 17.5375H13.7817Z" fill="black"/>
<path fill-rule="evenodd" clip-rule="evenodd" d="M20.7851 30.7242C20.7851 30.7242 22.3399 30.7045 25.45 30.6655C26.6728 30.6814 27.2191 30.3912 27.0904 29.7954C24.8595 29.8982 22.7541 29.9487 20.7813 29.9458C18.8085 29.9482 16.7069 29.8978 14.4761 29.7954C14.3468 30.3917 14.8936 30.6814 16.1164 30.6655C19.2265 30.7045 20.7856 30.7242 20.7856 30.7242H20.7851Z" fill="#353043"/>
<path fill-rule="evenodd" clip-rule="evenodd" d="M20.7854 25.8305C20.7854 25.8305 21.9458 25.8094 24.2664 25.7676C24.4995 25.7604 24.6205 25.8473 24.6306 26.027C24.6306 26.027 24.9055 26.016 25.4551 25.9934C25.7636 26.0059 25.913 25.7003 25.9029 25.0771C22.4916 25.1329 20.7859 25.1608 20.7859 25.1608C20.7859 25.1608 19.0759 25.1329 15.6645 25.0771C15.6545 25.7008 15.8034 26.0059 16.1123 25.9934C16.662 26.0155 16.9368 26.027 16.9368 26.027C16.9464 25.8473 17.068 25.7604 17.301 25.7676C19.6217 25.8094 20.7864 25.8305 20.7864 25.8305H20.7854Z" fill="#E8E9E9"/>
<path fill-rule="evenodd" clip-rule="evenodd" d="M26.8555 27.7394C26.8617 27.4155 27.2816 26.6871 28.1153 25.5527C28.2008 26.5401 28.1657 27.2147 28.0105 27.5765C27.9274 27.6505 27.8717 27.6985 27.8433 27.7206L26.8555 27.7394Z" fill="#FEC900"/>
<path fill-rule="evenodd" clip-rule="evenodd" d="M26.3424 25.4845C26.3424 25.4845 26.3371 26.1663 26.3265 27.5294C26.3265 27.5294 26.4135 27.4438 26.5879 27.2733C26.5879 27.2733 26.6138 26.3911 26.6662 24.6273C26.6662 23.9109 27.2524 23.724 27.7799 23.3877C27.3187 23.5285 26.8968 23.699 26.5144 23.9004C26.3722 24.1199 26.3044 24.3794 26.3207 24.6403L26.3419 25.485L26.3424 25.4845Z" fill="#D3D5D5"/>
<path d="M30.0007 17.6689H28.96V20.2524H30.0007V17.6689Z" fill="black"/>
<path d="M30.0007 20.415H28.96V21.2727H30.0007V20.415Z" fill="black"/>
<path d="M27.7845 17.5375C27.8479 17.4366 27.9493 17.353 28.0881 17.2872C28.2332 17.2185 28.4177 17.17 28.6416 17.1406C28.7656 17.1358 28.8895 17.1339 29.0116 17.1344C29.1283 17.1354 29.2461 17.1387 29.3652 17.145C29.4041 17.1709 29.4219 17.2137 29.4195 17.2733L29.5185 21.4625C29.5017 21.5009 29.468 21.5331 29.4176 21.56C29.3527 21.5946 29.2624 21.6186 29.1466 21.6326L27.8094 21.622L27.809 21.7796L29.1596 21.7902L29.1625 21.7897C29.2989 21.7738 29.4085 21.7436 29.4911 21.6999C29.5838 21.6508 29.6444 21.5845 29.6722 21.5009L29.6766 21.488L29.5771 17.2781C29.5824 17.1459 29.5319 17.0527 29.4248 16.9975L29.4099 16.9898L29.3931 16.9888C29.2682 16.9821 29.1413 16.9782 29.013 16.9773C28.8857 16.9763 28.7589 16.9783 28.633 16.9835L28.6262 16.9845C28.3831 17.0157 28.1818 17.0691 28.0213 17.145C27.8546 17.2238 27.7311 17.3266 27.6514 17.4544L27.7849 17.5375H27.7845Z" fill="black"/>
<path fill-rule="evenodd" clip-rule="evenodd" d="M20.7854 27.4873C20.7854 27.4873 21.9458 27.4661 24.2664 27.4243C24.4995 27.4171 24.6205 27.5041 24.6306 27.6838C24.6306 27.6838 24.9055 27.6722 25.4551 27.6501C25.7636 27.6626 25.913 27.3571 25.9029 26.7339C22.4916 26.7896 20.7859 26.8175 20.7859 26.8175C20.7859 26.8175 19.0759 26.7896 15.6645 26.7339C15.6545 27.3571 15.8034 27.6626 16.1123 27.6501C16.662 27.6722 16.9368 27.6838 16.9368 27.6838C16.9464 27.5041 17.068 27.4171 17.301 27.4243C19.6217 27.4661 20.7864 27.4873 20.7864 27.4873H20.7854Z" fill="#E8E9E9"/>
<path fill-rule="evenodd" clip-rule="evenodd" d="M20.7854 29.0639C20.7854 29.0639 21.9458 29.0428 24.2664 29.001C24.4995 28.9938 24.6205 29.0807 24.6306 29.2604C24.6306 29.2604 24.9055 29.2494 25.4551 29.2268C25.7636 29.2393 25.913 28.9337 25.9029 28.3105C22.4916 28.3663 20.7859 28.3942 20.7859 28.3942C20.7859 28.3942 19.0759 28.3663 15.6645 28.3105C15.6545 28.9337 15.8034 29.2393 16.1123 29.2268C16.662 29.2494 16.9368 29.2604 16.9368 29.2604C16.9464 29.0807 17.068 28.9938 17.301 29.001C19.6217 29.0428 20.7864 29.0639 20.7864 29.0639H20.7854Z" fill="#E8E9E9"/>
<path fill-rule="evenodd" clip-rule="evenodd" d="M20.7853 26.2383C20.4913 26.2364 20.1929 26.2258 19.8994 26.207C19.6188 25.9711 19.4371 25.6853 19.3555 25.3494C19.4943 24.9194 19.7245 24.5662 20.0459 24.2904C20.0459 24.2904 20.2953 24.2885 20.7853 24.2852C21.2759 24.2885 21.5209 24.2904 21.5209 24.2904C21.8424 24.5662 22.0725 24.9194 22.2114 25.3494C22.1297 25.6853 21.9481 25.9711 21.6675 26.207C21.3739 26.2258 21.0799 26.2364 20.7853 26.2383Z" fill="#353043"/>
<path fill-rule="evenodd" clip-rule="evenodd" d="M15.4763 30.9873C14.1636 31.0911 13.0643 31.216 13.2969 29.665C13.5501 29.6958 13.8028 29.7318 14.0541 29.7741C15.9572 30.0451 15.7944 31.0219 15.4763 30.9873Z" fill="#FEFEFE"/>
<path fill-rule="evenodd" clip-rule="evenodd" d="M26.09 30.9873C27.4027 31.0911 28.502 31.216 28.2694 29.665C28.0162 29.6958 27.7635 29.7318 27.5122 29.7741C25.6095 30.0451 25.7719 31.0219 26.09 30.9873Z" fill="#FEFEFE"/>
<path fill-rule="evenodd" clip-rule="evenodd" d="M20.8206 25.2657C20.9494 25.2647 21.0781 25.2638 21.2069 25.2628C21.2549 25.2623 21.3025 25.2614 21.3506 25.2609C21.3967 25.2604 21.4423 25.2609 21.4885 25.2604C21.5533 25.2628 21.6283 25.2575 21.6816 25.2835C21.7104 25.2974 21.7205 25.3185 21.7263 25.3502C21.7263 25.3526 21.7263 25.3546 21.7273 25.3565C21.7258 25.4021 21.6979 25.4555 21.6773 25.4982C21.648 25.5597 21.597 25.615 21.5452 25.6654C21.4567 25.7514 21.2828 25.8514 21.0998 25.9009C21.0748 25.9076 21.045 25.9182 21.0176 25.9249C20.9969 25.9302 21.0041 25.9403 21.0176 25.9388C21.0469 25.9364 21.0796 25.9287 21.106 25.922C21.3184 25.8687 21.4654 25.7836 21.5668 25.7015C21.6273 25.6525 21.6907 25.5828 21.7321 25.5102C21.7599 25.4608 21.7883 25.381 21.7921 25.3517C21.7969 25.3133 21.8022 25.2935 21.8003 25.2325H21.7998C21.7945 25.1292 21.7618 25.0475 21.7013 24.9534C21.697 24.9466 21.6912 24.9409 21.6869 24.9342C21.685 24.9308 21.6826 24.926 21.685 24.9207L21.6864 24.9197C21.6917 24.9178 21.6999 24.9245 21.7042 24.9294C21.7542 24.9846 21.782 25.0293 21.8085 25.086C21.844 25.1605 21.8527 25.2143 21.8589 25.2806C21.8599 25.2926 21.8738 25.2993 21.8748 25.2782C21.8776 25.2075 21.8618 25.1331 21.833 25.0672C21.7993 24.9909 21.7628 24.9491 21.7167 24.8924C21.7167 24.8924 21.7162 24.8919 21.7157 24.8914C21.66 24.8342 21.5937 24.7799 21.5259 24.7372C21.4217 24.6713 21.315 24.6276 21.2002 24.5964C21.1531 24.5839 21.1041 24.5733 21.0551 24.568C21.0402 24.5661 21.0234 24.5671 21.0085 24.5666C20.9974 24.5666 20.9864 24.5781 21.0085 24.5834C21.0387 24.5906 21.068 24.5973 21.0983 24.6065C21.2112 24.6387 21.3232 24.6824 21.4231 24.7458C21.5058 24.7987 21.5471 24.8256 21.6456 24.9486C21.6571 24.9659 21.684 25.0072 21.6989 25.0408C21.709 25.0639 21.7229 25.1009 21.7239 25.1283V25.1292C21.721 25.1561 21.7152 25.1744 21.6936 25.1874C21.6494 25.2138 21.6105 25.2157 21.5495 25.2186C21.5067 25.2205 21.464 25.2215 21.4212 25.222C21.3578 25.2234 21.2953 25.2248 21.2314 25.2258C21.095 25.2282 20.9575 25.2296 20.8211 25.2311C20.8067 25.2311 20.7918 25.2316 20.7774 25.2316C20.638 25.2325 20.4977 25.2335 20.3584 25.2335C20.294 25.2335 20.232 25.2335 20.1686 25.233C20.1258 25.233 20.0831 25.233 20.0403 25.2316C19.9788 25.2296 19.9399 25.2282 19.8952 25.2027C19.8736 25.1902 19.8673 25.1725 19.864 25.1451V25.1441C19.864 25.1167 19.8779 25.0793 19.8875 25.0562C19.9015 25.0221 19.9279 24.9803 19.9389 24.963C20.0355 24.8381 20.0759 24.8107 20.1576 24.7559C20.2561 24.6906 20.367 24.6454 20.4795 24.6108C20.5097 24.6017 20.539 24.594 20.5688 24.5863C20.5909 24.581 20.5794 24.5695 20.5684 24.5695C20.5535 24.57 20.5366 24.57 20.5213 24.5719C20.4723 24.5781 20.4232 24.5892 20.3766 24.6031C20.2623 24.6367 20.1566 24.6819 20.0533 24.7501C19.9865 24.7939 19.9207 24.8491 19.8664 24.9073C19.8664 24.9077 19.8659 24.9077 19.8654 24.9082C19.8198 24.9654 19.7847 25.0082 19.752 25.085C19.7242 25.1513 19.7098 25.2263 19.7141 25.2969C19.715 25.3181 19.7285 25.3108 19.7294 25.2988C19.7343 25.2325 19.7424 25.1787 19.7765 25.1033C19.802 25.0461 19.8289 25.0009 19.8779 24.9447C19.8822 24.9399 19.8904 24.9332 19.8957 24.9351L19.8971 24.9361C19.8995 24.9414 19.8971 24.9467 19.8952 24.9495C19.8914 24.9563 19.8856 24.9625 19.8813 24.9692C19.8222 25.0639 19.791 25.1465 19.7876 25.2498H19.7871C19.7862 25.3108 19.7914 25.3305 19.7972 25.369C19.8015 25.3983 19.8313 25.4776 19.8601 25.5266C19.9024 25.5982 19.9673 25.6669 20.0283 25.7149C20.1311 25.7952 20.2791 25.8778 20.4929 25.9273C20.5189 25.9335 20.552 25.9407 20.5813 25.9422C20.5948 25.9431 20.602 25.9326 20.5813 25.9283C20.5539 25.922 20.5237 25.9119 20.4987 25.9057C20.3147 25.8595 20.1393 25.7625 20.0495 25.6784C19.9966 25.6289 19.9447 25.5746 19.9144 25.5136C19.8933 25.4713 19.864 25.418 19.8621 25.3728C19.8625 25.3709 19.8625 25.3695 19.8625 25.3666C19.8678 25.3349 19.8774 25.3137 19.9063 25.2993C19.9591 25.2719 20.0341 25.2763 20.0989 25.2729C20.1451 25.2724 20.1907 25.271 20.2368 25.271C20.2849 25.2705 20.3329 25.2705 20.381 25.27C20.5126 25.269 20.6448 25.2671 20.7769 25.2662C20.7918 25.2662 20.8062 25.2657 20.8211 25.2657H20.8206ZM20.8192 25.2186C20.9105 25.2176 21.0022 25.2176 21.0921 25.2157C21.1574 25.2143 21.2232 25.2128 21.2886 25.2104C21.3472 25.2085 21.4053 25.2056 21.4649 25.2008C21.5207 25.1965 21.5966 25.1869 21.6095 25.1778C21.6192 25.171 21.6153 25.1624 21.6076 25.1561C21.5951 25.1465 21.5798 25.1384 21.5653 25.1331C21.5591 25.1307 21.55 25.1321 21.5447 25.1364C21.5336 25.1456 21.5274 25.1484 21.5134 25.1518C21.4592 25.1667 21.4198 25.173 21.3477 25.1792C21.2939 25.1835 21.2396 25.1874 21.1862 25.1898C21.0647 25.1946 20.9897 25.196 20.8196 25.1979C20.8048 25.1979 20.7894 25.1984 20.774 25.1984C20.5996 25.1999 20.5241 25.1994 20.4011 25.197C20.3478 25.196 20.293 25.1931 20.2392 25.1898C20.1667 25.185 20.1278 25.1792 20.073 25.1653C20.0591 25.1619 20.0528 25.159 20.0418 25.1504C20.0365 25.146 20.0273 25.1451 20.0211 25.1475C20.0067 25.1533 19.9908 25.1614 19.9793 25.1715C19.9716 25.1778 19.9683 25.1869 19.9779 25.1931C19.9908 25.2018 20.0667 25.2104 20.1225 25.2133C20.1816 25.2167 20.2402 25.2186 20.2988 25.2196C20.3642 25.2205 20.43 25.221 20.4953 25.2215C20.5871 25.222 20.6808 25.22 20.7745 25.2196C20.7894 25.2196 20.8048 25.2191 20.8196 25.2191L20.8192 25.2186ZM20.8172 25.1696C21.0041 25.1677 21.2031 25.1686 21.3871 25.148C21.4798 25.1374 21.5058 25.0884 21.5091 25.0557C21.5207 24.9495 21.3616 24.8116 21.2785 24.7674C21.1661 24.7074 21.0647 24.6603 20.9306 24.6257C20.9133 24.6214 20.9023 24.6017 20.9023 24.5858C20.9023 24.5719 20.9234 24.5551 20.9369 24.5517C20.9787 24.5411 21.0224 24.5435 21.0666 24.5498C21.1368 24.5594 21.204 24.5724 21.2732 24.5921C21.364 24.6185 21.4635 24.6641 21.5504 24.7179C21.6634 24.7871 21.7609 24.8751 21.832 24.9856C21.8824 25.0639 21.9204 25.1657 21.9209 25.2527C21.9218 25.3599 21.882 25.4651 21.8234 25.5568C21.7671 25.6453 21.6898 25.7168 21.6043 25.7798C21.5269 25.837 21.439 25.8807 21.3501 25.9162C21.2722 25.9475 21.1906 25.9667 21.1084 25.9801C21.056 25.9888 21.0046 25.9926 20.9523 25.9845C20.9388 25.9825 20.9157 25.9667 20.9143 25.9528C20.9129 25.9374 20.9239 25.9191 20.9388 25.9143C20.983 25.9009 21.0556 25.8773 21.1084 25.8538C21.1757 25.824 21.2444 25.7932 21.3049 25.7524C21.3655 25.712 21.425 25.6645 21.4649 25.6068C21.487 25.5751 21.5101 25.5314 21.512 25.4992C21.513 25.479 21.513 25.455 21.5029 25.4377C21.462 25.3723 21.3506 25.3767 21.267 25.3728C21.1906 25.3699 21.1161 25.3699 21.0402 25.3685C20.9633 25.3666 20.873 25.3671 20.7956 25.3666C20.7178 25.3685 20.6275 25.3699 20.5511 25.3728C20.4747 25.3757 20.4002 25.3772 20.3238 25.3815C20.2407 25.3863 20.1287 25.3844 20.0893 25.4507C20.0792 25.4675 20.0797 25.492 20.0812 25.5122C20.084 25.5444 20.1076 25.5876 20.1297 25.6188C20.1705 25.6755 20.2306 25.7221 20.2921 25.7615C20.3536 25.8014 20.4228 25.8307 20.4905 25.8595C20.5439 25.8821 20.6174 25.9042 20.6616 25.9172C20.6765 25.9215 20.688 25.9393 20.6866 25.9552C20.6851 25.9691 20.6625 25.9854 20.6491 25.9878C20.5967 25.997 20.5453 25.9941 20.4929 25.9859C20.4103 25.9739 20.3281 25.9561 20.2503 25.9268C20.1604 25.8927 20.072 25.8504 19.9932 25.7947C19.9067 25.7337 19.828 25.663 19.7703 25.5756C19.7102 25.4848 19.668 25.3805 19.667 25.2734C19.6665 25.1864 19.7026 25.0841 19.7511 25.0048C19.8203 24.8928 19.9164 24.803 20.0278 24.7319C20.1138 24.6771 20.2123 24.6291 20.3027 24.6012C20.3714 24.5801 20.4382 24.5656 20.5083 24.5551C20.552 24.5483 20.5957 24.5455 20.638 24.5546C20.6515 24.5579 20.6726 24.5743 20.6731 24.5882C20.6731 24.6041 20.6625 24.6238 20.6452 24.6286C20.5121 24.6656 20.4117 24.7146 20.3003 24.7766C20.2181 24.8222 20.0615 24.9635 20.0749 25.0687C20.0792 25.1009 20.1061 25.1499 20.1989 25.1585C20.3848 25.1763 20.5852 25.171 20.774 25.1701C20.7884 25.1701 20.8028 25.1701 20.8172 25.1696Z" fill="#D3D5D5"/>
<path d="M36.1216 1H5.87824C3.18406 1 1 3.18406 1 5.87823V36.1216C1 38.8157 3.18406 40.9998 5.87824 40.9998H36.1216C38.8157 40.9998 40.9998 38.8157 40.9998 36.1216V5.87823C40.9998 3.18406 38.8157 1 36.1216 1Z" stroke="#C80000" stroke-width="2" stroke-miterlimit="22.9256"/>
<path fill-rule="evenodd" clip-rule="evenodd" d="M1 12H41V6.49975C41 3.47484 38.6202 1 35.7115 1H5.85569C3.18513 1 1 3.27192 1 6.04964V12Z" fill="#C80000"/>
<path d="M7.9707 5.44629H5.68555V6.36328H7.7832V7.11328H5.68555V8.22363H8.07617V9H4.80371V4.68164H7.9707V5.44629ZM9.46777 9H8.41895L9.80762 6.7998L8.48633 4.68164H9.56445L10.335 6.08496L11.126 4.68164H12.1689L10.8477 6.76465L12.251 9H11.1553L10.335 7.5293L9.46777 9ZM12.7754 9V4.68164H13.6689V6.32812H15.3564V4.68164H16.2529V9H15.3564V7.07227H13.6689V9H12.7754ZM17.9434 9H17.0469V4.68164H17.9434V9ZM19.6631 5.43164V6.38379H20.7236C20.9131 6.38379 21.0664 6.34863 21.1836 6.27832C21.3027 6.20605 21.3623 6.0791 21.3623 5.89746C21.3623 5.69629 21.2842 5.56348 21.1279 5.49902C20.9932 5.4541 20.8213 5.43164 20.6123 5.43164H19.6631ZM19.6631 7.09863V8.25H20.7236C20.9131 8.25 21.0605 8.22461 21.166 8.17383C21.3574 8.08008 21.4531 7.90039 21.4531 7.63477C21.4531 7.41016 21.3604 7.25586 21.1748 7.17188C21.0713 7.125 20.9258 7.10059 20.7383 7.09863H19.6631ZM20.8994 4.68164C21.4287 4.68945 21.8037 4.84277 22.0244 5.1416C22.1572 5.3252 22.2236 5.54492 22.2236 5.80078C22.2236 6.06445 22.1572 6.27637 22.0244 6.43652C21.9502 6.52637 21.8408 6.6084 21.6963 6.68262C21.917 6.7627 22.083 6.88965 22.1943 7.06348C22.3076 7.2373 22.3643 7.44824 22.3643 7.69629C22.3643 7.95215 22.2998 8.18164 22.1709 8.38477C22.0889 8.51953 21.9863 8.63281 21.8633 8.72461C21.7246 8.83008 21.5605 8.90234 21.3711 8.94141C21.1836 8.98047 20.9795 9 20.7588 9H18.8018V4.68164H20.8994ZM23.9492 9H23.0527V4.68164H23.9492V9ZM27.9307 4.68164V5.44629H26.6387V9H25.7305V5.44629H24.4326V4.68164H27.9307ZM29.2871 9H28.3906V4.68164H29.2871V9ZM32.041 8.35547C32.3984 8.35547 32.6816 8.22363 32.8906 7.95996C33.1016 7.69629 33.207 7.32129 33.207 6.83496C33.207 6.35059 33.1016 5.97656 32.8906 5.71289C32.6816 5.44727 32.3984 5.31445 32.041 5.31445C31.6836 5.31445 31.3984 5.44629 31.1855 5.70996C30.9727 5.97363 30.8662 6.34863 30.8662 6.83496C30.8662 7.32129 30.9727 7.69629 31.1855 7.95996C31.3984 8.22363 31.6836 8.35547 32.041 8.35547ZM34.1094 6.83496C34.1094 7.61035 33.8916 8.2041 33.4561 8.61621C33.1299 8.95215 32.6582 9.12012 32.041 9.12012C31.4238 9.12012 30.9521 8.95215 30.626 8.61621C30.1885 8.2041 29.9697 7.61035 29.9697 6.83496C29.9697 6.04395 30.1885 5.4502 30.626 5.05371C30.9521 4.71777 31.4238 4.5498 32.041 4.5498C32.6582 4.5498 33.1299 4.71777 33.4561 5.05371C33.8916 5.4502 34.1094 6.04395 34.1094 6.83496ZM34.7861 4.68164H35.7324L37.4521 7.69629V4.68164H38.293V9H37.3906L35.627 5.93262V9H34.7861V4.68164Z" fill="white"/>
</svg>
