<svg width="43" height="42" viewBox="0 0 43 42" fill="none" xmlns="http://www.w3.org/2000/svg">
<path d="M37.122 1H6.87872C4.18455 1 2.00049 3.18406 2.00049 5.87823V36.1216C2.00049 38.8157 4.18455 40.9998 6.87872 40.9998H37.122C39.8162 40.9998 42.0003 38.8157 42.0003 36.1216V5.87823C42.0003 3.18406 39.8162 1 37.122 1Z" stroke="#C80000" stroke-width="2" stroke-miterlimit="22.9256"/>
<path fill-rule="evenodd" clip-rule="evenodd" d="M2 11.6266H42.1857V6.31306C42.1857 3.39083 39.7949 1 36.8727 1H6.87824C4.19528 1 2 3.1948 2 5.87823V11.6266Z" fill="#C80000"/>
<path d="M26.1176 20.5849V22.9114C26.1176 25.1999 24.2635 27.0593 21.9697 27.0593C19.6759 27.0593 17.8218 25.1999 17.8218 22.9114V20.4922C17.8756 18.2446 19.7081 16.4375 21.9697 16.4375C23.1166 16.4375 24.1563 16.906 24.9063 17.6507C25.6564 18.4022 26.1176 19.4376 26.1176 20.5845V20.5849Z" fill="#D3D5D5"/>
<path d="M26.1176 20.5849V20.6906C22.3877 20.9342 20.019 18.5473 20.019 18.5473C19.0969 20.0973 18.5079 20.2813 17.8218 20.4922C17.8756 18.2446 19.7081 16.4375 21.9697 16.4375C23.1166 16.4375 24.1563 16.906 24.9063 17.6507C25.6564 18.4022 26.1176 19.4376 26.1176 20.5845V20.5849Z" fill="black"/>
<path fill-rule="evenodd" clip-rule="evenodd" d="M21.9696 28.0444C25.3747 28.0444 28.3243 30.6428 29.7614 34.4313H15.1324C14.0961 34.4313 14.0067 34.6687 14.6294 33.3801C16.1818 30.17 18.8893 28.0439 21.9696 28.0439V28.0444Z" fill="#7C8785"/>
<path d="M7.07129 5.0293C7.00293 4.73438 6.83594 4.52832 6.57031 4.41113C6.42188 4.34668 6.25684 4.31445 6.0752 4.31445C5.72754 4.31445 5.44141 4.44629 5.2168 4.70996C4.99414 4.97168 4.88281 5.36621 4.88281 5.89355C4.88281 6.4248 5.00391 6.80078 5.24609 7.02148C5.48828 7.24219 5.76367 7.35254 6.07227 7.35254C6.375 7.35254 6.62305 7.26562 6.81641 7.0918C7.00977 6.91602 7.12891 6.68652 7.17383 6.40332H6.1748V5.68262H7.97363V8H7.37598L7.28516 7.46094C7.11133 7.66602 6.95508 7.81055 6.81641 7.89453C6.57812 8.04102 6.28516 8.11426 5.9375 8.11426C5.36523 8.11426 4.89648 7.91602 4.53125 7.51953C4.15039 7.12109 3.95996 6.57617 3.95996 5.88477C3.95996 5.18555 4.15234 4.625 4.53711 4.20312C4.92188 3.78125 5.43066 3.57031 6.06348 3.57031C6.6123 3.57031 7.05273 3.70996 7.38477 3.98926C7.71875 4.2666 7.91016 4.61328 7.95898 5.0293H7.07129ZM10.0186 6.36816H11.1143L10.5752 4.66895L10.0186 6.36816ZM10.0742 3.68164H11.0938L12.623 8H11.6445L11.3662 7.1123H9.77539L9.47656 8H8.5332L10.0742 3.68164ZM15.8662 3.68164V4.44629H14.5742V8H13.666V4.44629H12.3682V3.68164H15.8662ZM16.3906 8V3.68164H17.2842V5.32812H18.9717V3.68164H19.8682V8H18.9717V6.07227H17.2842V8H16.3906ZM23.9258 4.44629H21.6406V5.36328H23.7383V6.11328H21.6406V7.22363H24.0312V8H20.7588V3.68164H23.9258V4.44629ZM25.6367 4.43164V5.5918H26.6592C26.8623 5.5918 27.0146 5.56836 27.1162 5.52148C27.2959 5.43945 27.3857 5.27734 27.3857 5.03516C27.3857 4.77344 27.2988 4.59766 27.125 4.50781C27.0273 4.45703 26.8809 4.43164 26.6855 4.43164H25.6367ZM26.873 3.68164C27.1758 3.6875 27.4082 3.72461 27.5703 3.79297C27.7344 3.86133 27.873 3.96191 27.9863 4.09473C28.0801 4.2041 28.1543 4.3252 28.209 4.45801C28.2637 4.59082 28.291 4.74219 28.291 4.91211C28.291 5.11719 28.2393 5.31934 28.1357 5.51855C28.0322 5.71582 27.8613 5.85547 27.623 5.9375C27.8223 6.01758 27.9629 6.13184 28.0449 6.28027C28.1289 6.42676 28.1709 6.65137 28.1709 6.9541V7.24414C28.1709 7.44141 28.1787 7.5752 28.1943 7.64551C28.2178 7.75684 28.2725 7.83887 28.3584 7.8916V8H27.3652C27.3379 7.9043 27.3184 7.82715 27.3066 7.76855C27.2832 7.64746 27.2705 7.52344 27.2686 7.39648L27.2627 6.99512C27.2588 6.71973 27.208 6.53613 27.1104 6.44434C27.0146 6.35254 26.834 6.30664 26.5684 6.30664H25.6367V8H24.7549V3.68164H26.873ZM29.8965 8H29V3.68164H29.8965V8ZM30.7256 3.68164H31.6719L33.3916 6.69629V3.68164H34.2324V8H33.3301L31.5664 4.93262V8H30.7256V3.68164ZM37.9795 5.0293C37.9111 4.73438 37.7441 4.52832 37.4785 4.41113C37.3301 4.34668 37.165 4.31445 36.9834 4.31445C36.6357 4.31445 36.3496 4.44629 36.125 4.70996C35.9023 4.97168 35.791 5.36621 35.791 5.89355C35.791 6.4248 35.9121 6.80078 36.1543 7.02148C36.3965 7.24219 36.6719 7.35254 36.9805 7.35254C37.2832 7.35254 37.5312 7.26562 37.7246 7.0918C37.918 6.91602 38.0371 6.68652 38.082 6.40332H37.083V5.68262H38.8818V8H38.2842L38.1934 7.46094C38.0195 7.66602 37.8633 7.81055 37.7246 7.89453C37.4863 8.04102 37.1934 8.11426 36.8457 8.11426C36.2734 8.11426 35.8047 7.91602 35.4395 7.51953C35.0586 7.12109 34.8682 6.57617 34.8682 5.88477C34.8682 5.18555 35.0605 4.625 35.4453 4.20312C35.8301 3.78125 36.3389 3.57031 36.9717 3.57031C37.5205 3.57031 37.9609 3.70996 38.293 3.98926C38.627 4.2666 38.8184 4.61328 38.8672 5.0293H37.9795Z" fill="white"/>
</svg>
