<svg width="24" height="24" viewBox="0 0 24 24" fill="none" xmlns="http://www.w3.org/2000/svg">
<path d="M12 15C13.6569 15 15 13.6569 15 12C15 10.3431 13.6569 9 12 9C10.3431 9 9 10.3431 9 12C9 13.6569 10.3431 15 12 15Z" fill="#940000"/>
<path d="M13 4.069V2H11V4.069C7.389 4.522 4.522 7.389 4.069 11H2V13H4.069C4.522 16.611 7.388 19.478 11 19.931V22H13V19.931C16.611 19.478 19.478 16.612 19.931 13H22V11H19.931C19.478 7.389 16.611 4.522 13 4.069ZM12 18C8.691 18 6 15.309 6 12C6 8.691 8.691 6 12 6C15.309 6 18 8.691 18 12C18 15.309 15.309 18 12 18Z" fill="black"/>
<rect x="17" y="15" width="5" height="5" fill="white"/>
<path d="M19.5 13C17.0187 13 15 15.0187 15 17.5C15 19.9813 17.0187 22 19.5 22C21.9813 22 24 19.9813 24 17.5C24 15.0187 21.9813 13 19.5 13ZM18.6005 19.4858L16.9296 17.8186L17.565 17.1814L18.5995 18.2141L20.9819 15.8319L21.6182 16.4681L18.6005 19.4858Z" fill="#940000"/>
</svg>
