<svg width="14" height="18" viewBox="0 0 14 18" fill="none" xmlns="http://www.w3.org/2000/svg">
<g clip-path="url(#clip0)">
<path d="M6.64326 0C2.98794 0 0.00146484 2.97092 0.00146484 6.6418C0.00146484 9.25496 1.09028 11.8992 3.1746 14.2946C4.7145 16.0834 6.2544 17.0945 6.31662 17.1256C6.40994 17.1878 6.53438 17.2189 6.64326 17.2189C6.75214 17.2189 6.87658 17.1878 6.96991 17.1256C7.03213 17.0789 8.57203 16.0679 10.1119 14.2946C12.1807 11.8992 13.2851 9.25496 13.2851 6.6418C13.2851 2.98648 10.3141 0 6.64326 0ZM6.64326 9.09942C5.24335 9.09942 4.09231 7.96394 4.09231 6.54847C4.09231 5.14856 5.2278 3.99752 6.64326 3.99752C8.04317 3.99752 9.19421 5.13301 9.19421 6.54847C9.19421 7.94838 8.05873 9.09942 6.64326 9.09942Z" fill="black"/>
</g>
<defs>
<clipPath id="clip0">
<rect width="13.2707" height="17.2189" fill="white"/>
</clipPath>
</defs>
</svg>
