<svg width="17" height="18" viewBox="0 0 17 18" fill="none" xmlns="http://www.w3.org/2000/svg">
<path d="M15.967 0H1.033C0.462489 0 0 0.742222 0 1.6578V12.8142C0 13.7297 0.462489 14.4719 1.033 14.4719H15.967C16.5375 14.4719 17 13.7297 17 12.8142V1.6578C17 0.742222 16.5375 0 15.967 0Z" fill="black"/>
<path d="M4.16673 11.2646H2.91043C2.45723 11.2646 2.08984 11.6109 2.08984 12.0379V17.2269C2.08984 17.654 2.45723 18.0002 2.91043 18.0002H4.16673C4.61993 18.0002 4.98732 17.654 4.98732 17.2269V12.0379C4.98732 11.6109 4.61993 11.2646 4.16673 11.2646Z" fill="black"/>
<path d="M14.0901 11.2646H12.8338C12.3806 11.2646 12.0132 11.6109 12.0132 12.0379V17.2269C12.0132 17.654 12.3806 18.0002 12.8338 18.0002H14.0901C14.5433 18.0002 14.9107 17.654 14.9107 17.2269V12.0379C14.9107 11.6109 14.5433 11.2646 14.0901 11.2646Z" fill="black"/>
<path d="M14.3441 2.38965H2.87402V7.35107H14.3441V2.38965Z" fill="white"/>
<path d="M14.3441 8.375H2.87402V9.69406H14.3441V8.375Z" fill="#FF0000"/>
<path d="M5.82052 10.7627H2.87402V12.0817H5.82052V10.7627Z" fill="white"/>
<path d="M14.344 10.7627H11.3975V12.0817H14.344V10.7627Z" fill="white"/>
</svg>
