<svg width="18" height="19" viewBox="0 0 18 19" fill="none" xmlns="http://www.w3.org/2000/svg">
<g clip-path="url(#clip0)">
<rect x="3" y="1" width="12" height="6" fill="#940000"/>
<path d="M14.4375 0H3.5625C2.42475 0 1.5 0.976125 1.5 2.17708V16.8229C1.5 18.0239 2.42475 19 3.5625 19H14.4375C15.5753 19 16.5 18.0239 16.5 16.8229V2.17708C16.5 0.976125 15.5753 0 14.4375 0ZM7.335 14.82C7.55475 15.052 7.55475 15.428 7.335 15.66C7.2255 15.7755 7.0815 15.8333 6.9375 15.8333C6.7935 15.8333 6.6495 15.7755 6.54 15.6592L6 15.09L5.46 15.66C5.3505 15.7755 5.2065 15.8333 5.0625 15.8333C4.9185 15.8333 4.7745 15.7755 4.665 15.6592C4.44525 15.4272 4.44525 15.0512 4.665 14.8192L5.20425 14.25L4.66425 13.68C4.4445 13.448 4.4445 13.072 4.66425 12.84C4.884 12.6081 5.24025 12.6081 5.46 12.84L6 13.41L6.54 12.84C6.75975 12.6081 7.116 12.6081 7.33575 12.84C7.5555 13.072 7.5555 13.448 7.33575 13.68L6.79575 14.25L7.335 14.82ZM6.9375 10.0938H6.5625V10.4896C6.5625 10.8173 6.3105 11.0833 6 11.0833C5.6895 11.0833 5.4375 10.8173 5.4375 10.4896V10.0938H5.0625C4.752 10.0938 4.5 9.82775 4.5 9.5C4.5 9.17225 4.752 8.90625 5.0625 8.90625H5.4375V8.51042C5.4375 8.18267 5.6895 7.91667 6 7.91667C6.3105 7.91667 6.5625 8.18267 6.5625 8.51042V8.90625H6.9375C7.248 8.90625 7.5 9.17225 7.5 9.5C7.5 9.82775 7.248 10.0938 6.9375 10.0938ZM12.9375 15.8333H11.0625C10.752 15.8333 10.5 15.5673 10.5 15.2396C10.5 14.9118 10.752 14.6458 11.0625 14.6458H12.9375C13.248 14.6458 13.5 14.9118 13.5 15.2396C13.5 15.5673 13.248 15.8333 12.9375 15.8333ZM12.9375 13.8542H11.0625C10.752 13.8542 10.5 13.5882 10.5 13.2604C10.5 12.9327 10.752 12.6667 11.0625 12.6667H12.9375C13.248 12.6667 13.5 12.9327 13.5 13.2604C13.5 13.5882 13.248 13.8542 12.9375 13.8542ZM12.9375 10.2917H11.0625C10.752 10.2917 10.5 10.0257 10.5 9.69792C10.5 9.37017 10.752 9.10417 11.0625 9.10417H12.9375C13.248 9.10417 13.5 9.37017 13.5 9.69792C13.5 10.0257 13.248 10.2917 12.9375 10.2917ZM14.25 4.94792C14.25 5.71187 13.6613 6.33333 12.9375 6.33333H5.0625C4.33875 6.33333 3.75 5.71187 3.75 4.94792V3.76042C3.75 2.99646 4.33875 2.375 5.0625 2.375H12.9375C13.6613 2.375 14.25 2.99646 14.25 3.76042V4.94792Z" fill="black"/>
</g>
<defs>
<clipPath id="clip0">
<rect width="18" height="19" fill="white"/>
</clipPath>
</defs>
</svg>
