<svg width="43" height="42" viewBox="0 0 43 42" fill="none" xmlns="http://www.w3.org/2000/svg">
<path d="M36.1216 1H5.87825C3.18407 1 1 3.18406 1 5.87823V36.1216C1 38.8157 3.18407 40.9998 5.87825 40.9998H36.1216C38.8157 40.9998 40.9998 38.8157 40.9998 36.1216V5.87823C40.9998 3.18406 38.8157 1 36.1216 1Z" stroke="#C80000" stroke-width="2" stroke-miterlimit="22.9256"/>
<path fill-rule="evenodd" clip-rule="evenodd" d="M1 13H41V6.99973C41 3.69982 38.6202 1 35.7115 1H5.8557C3.18514 1 1 3.47846 1 6.5087V13Z" fill="#C80000"/>
<path d="M13.1116 27.4293C14.5947 27.4293 15.797 26.227 15.797 24.744C15.797 23.2609 14.5947 22.0586 13.1116 22.0586C11.6286 22.0586 10.4263 23.2609 10.4263 24.744C10.4263 26.227 11.6286 27.4293 13.1116 27.4293Z" fill="#7C8785"/>
<path d="M20.9998 27.4293C22.4829 27.4293 23.6852 26.227 23.6852 24.744C23.6852 23.2609 22.4829 22.0586 20.9998 22.0586C19.5167 22.0586 18.3145 23.2609 18.3145 24.744C18.3145 26.227 19.5167 27.4293 20.9998 27.4293Z" fill="#7C8785"/>
<path d="M28.8885 27.4293C30.3716 27.4293 31.5738 26.227 31.5738 24.744C31.5738 23.2609 30.3716 22.0586 28.8885 22.0586C27.4054 22.0586 26.2031 23.2609 26.2031 24.744C26.2031 26.227 27.4054 27.4293 28.8885 27.4293Z" fill="#7C8785"/>
<path d="M7.07129 6.0293C7.00293 5.73438 6.83594 5.52832 6.57031 5.41113C6.42188 5.34668 6.25684 5.31445 6.0752 5.31445C5.72754 5.31445 5.44141 5.44629 5.2168 5.70996C4.99414 5.97168 4.88281 6.36621 4.88281 6.89355C4.88281 7.4248 5.00391 7.80078 5.24609 8.02148C5.48828 8.24219 5.76367 8.35254 6.07227 8.35254C6.375 8.35254 6.62305 8.26562 6.81641 8.0918C7.00977 7.91602 7.12891 7.68652 7.17383 7.40332H6.1748V6.68262H7.97363V9H7.37598L7.28516 8.46094C7.11133 8.66602 6.95508 8.81055 6.81641 8.89453C6.57812 9.04102 6.28516 9.11426 5.9375 9.11426C5.36523 9.11426 4.89648 8.91602 4.53125 8.51953C4.15039 8.12109 3.95996 7.57617 3.95996 6.88477C3.95996 6.18555 4.15234 5.625 4.53711 5.20312C4.92188 4.78125 5.43066 4.57031 6.06348 4.57031C6.6123 4.57031 7.05273 4.70996 7.38477 4.98926C7.71875 5.2666 7.91016 5.61328 7.95898 6.0293H7.07129ZM10.0186 7.36816H11.1143L10.5752 5.66895L10.0186 7.36816ZM10.0742 4.68164H11.0938L12.623 9H11.6445L11.3662 8.1123H9.77539L9.47656 9H8.5332L10.0742 4.68164ZM15.8662 4.68164V5.44629H14.5742V9H13.666V5.44629H12.3682V4.68164H15.8662ZM16.3906 9V4.68164H17.2842V6.32812H18.9717V4.68164H19.8682V9H18.9717V7.07227H17.2842V9H16.3906ZM23.9258 5.44629H21.6406V6.36328H23.7383V7.11328H21.6406V8.22363H24.0312V9H20.7588V4.68164H23.9258V5.44629ZM25.6367 5.43164V6.5918H26.6592C26.8623 6.5918 27.0146 6.56836 27.1162 6.52148C27.2959 6.43945 27.3857 6.27734 27.3857 6.03516C27.3857 5.77344 27.2988 5.59766 27.125 5.50781C27.0273 5.45703 26.8809 5.43164 26.6855 5.43164H25.6367ZM26.873 4.68164C27.1758 4.6875 27.4082 4.72461 27.5703 4.79297C27.7344 4.86133 27.873 4.96191 27.9863 5.09473C28.0801 5.2041 28.1543 5.3252 28.209 5.45801C28.2637 5.59082 28.291 5.74219 28.291 5.91211C28.291 6.11719 28.2393 6.31934 28.1357 6.51855C28.0322 6.71582 27.8613 6.85547 27.623 6.9375C27.8223 7.01758 27.9629 7.13184 28.0449 7.28027C28.1289 7.42676 28.1709 7.65137 28.1709 7.9541V8.24414C28.1709 8.44141 28.1787 8.5752 28.1943 8.64551C28.2178 8.75684 28.2725 8.83887 28.3584 8.8916V9H27.3652C27.3379 8.9043 27.3184 8.82715 27.3066 8.76855C27.2832 8.64746 27.2705 8.52344 27.2686 8.39648L27.2627 7.99512C27.2588 7.71973 27.208 7.53613 27.1104 7.44434C27.0146 7.35254 26.834 7.30664 26.5684 7.30664H25.6367V9H24.7549V4.68164H26.873ZM29.8965 9H29V4.68164H29.8965V9ZM30.7256 4.68164H31.6719L33.3916 7.69629V4.68164H34.2324V9H33.3301L31.5664 5.93262V9H30.7256V4.68164ZM37.9795 6.0293C37.9111 5.73438 37.7441 5.52832 37.4785 5.41113C37.3301 5.34668 37.165 5.31445 36.9834 5.31445C36.6357 5.31445 36.3496 5.44629 36.125 5.70996C35.9023 5.97168 35.791 6.36621 35.791 6.89355C35.791 7.4248 35.9121 7.80078 36.1543 8.02148C36.3965 8.24219 36.6719 8.35254 36.9805 8.35254C37.2832 8.35254 37.5312 8.26562 37.7246 8.0918C37.918 7.91602 38.0371 7.68652 38.082 7.40332H37.083V6.68262H38.8818V9H38.2842L38.1934 8.46094C38.0195 8.66602 37.8633 8.81055 37.7246 8.89453C37.4863 9.04102 37.1934 9.11426 36.8457 9.11426C36.2734 9.11426 35.8047 8.91602 35.4395 8.51953C35.0586 8.12109 34.8682 7.57617 34.8682 6.88477C34.8682 6.18555 35.0605 5.625 35.4453 5.20312C35.8301 4.78125 36.3389 4.57031 36.9717 4.57031C37.5205 4.57031 37.9609 4.70996 38.293 4.98926C38.627 5.2666 38.8184 5.61328 38.8672 6.0293H37.9795Z" fill="white"/>
</svg>
