<svg width="18" height="18" viewBox="0 0 18 18" fill="none" xmlns="http://www.w3.org/2000/svg">
<g clip-path="url(#clip0)">
<path d="M0.75 5.715V7.125C0.75 9.3975 2.6025 11.25 4.875 11.25C7.1475 11.25 9 9.3975 9 7.125V5.25H10.1925C10.2375 5.25 10.29 5.2275 10.32 5.1975L11.385 4.1325C11.6325 3.885 11.9625 3.75 12.3075 3.75H15.9375C17.0775 3.75 18 4.6725 18 5.8125V15.1875C18 16.3275 17.0775 17.25 15.9375 17.25H2.0625C0.922501 17.25 0 16.3275 0 15.1875V7.3125C0 6.675 0.2925 6.0975 0.75 5.715Z" fill="black"/>
<path d="M4.875 9.75C6.3225 9.75 7.5 8.5725 7.5 7.125V3.1875C7.5 2.25675 6.7425 1.5 5.8125 1.5C4.8825 1.5 4.125 2.25675 4.125 3.1875V6.9375C4.125 7.248 4.377 7.5 4.6875 7.5C4.998 7.5 5.25 7.248 5.25 6.9375V3.1875C5.25 2.877 5.50275 2.625 5.8125 2.625C6.12225 2.625 6.375 2.877 6.375 3.1875V7.125C6.375 7.95225 5.70225 8.625 4.875 8.625C4.04774 8.625 3.37499 7.95225 3.37499 7.125V2.0625C3.37499 1.752 3.12299 1.5 2.81249 1.5C2.50199 1.5 2.24999 1.752 2.24999 2.0625V7.125C2.24999 8.5725 3.42749 9.75 4.875 9.75Z" fill="#940000"/>
</g>
<defs>
<clipPath id="clip0">
<rect width="18" height="18" fill="white" transform="matrix(-1 0 0 1 18 0)"/>
</clipPath>
</defs>
</svg>
