<svg width="48" height="48" viewBox="0 0 48 48" fill="none" xmlns="http://www.w3.org/2000/svg">
<path d="M23.9998 47.9996C37.2545 47.9996 47.9996 37.2545 47.9996 23.9998C47.9996 10.7451 37.2545 0 23.9998 0C10.7451 0 0 10.7451 0 23.9998C0 37.2545 10.7451 47.9996 23.9998 47.9996Z" fill="#322C2B"/>
<path fill-rule="evenodd" clip-rule="evenodd" d="M28.9846 30.7659C30.6134 30.7856 31.5513 30.8072 31.7992 30.8307C31.8261 32.2058 31.8401 32.8934 31.8401 32.8934C29.9912 32.9856 29.1158 33.0308 29.2143 33.0284C28.8943 31.7806 28.8174 31.0263 28.9846 30.7654V30.7659Z" fill="#E8E9E9"/>
<path fill-rule="evenodd" clip-rule="evenodd" d="M18.5859 30.7659C16.9571 30.7856 16.0192 30.8072 15.7713 30.8307C15.7444 32.2058 15.7305 32.8934 15.7305 32.8934C17.5793 32.9856 18.4547 33.0308 18.3563 33.0284C18.6762 31.7806 18.7531 31.0263 18.5859 30.7654V30.7659Z" fill="#E8E9E9"/>
<path fill-rule="evenodd" clip-rule="evenodd" d="M31.2829 31.1045C31.2411 28.3975 31.2209 27.0373 31.2223 27.0234C31.2156 26.5597 31.2118 26.3281 31.2118 26.3281C31.2098 26.2181 31.2089 26.1633 31.2089 26.1633C31.2468 26.0004 31.2699 25.8236 31.2771 25.6324C31.3064 25.1149 31.2617 24.8247 31.144 24.7618C30.9951 22.037 30.7789 20.353 30.4959 19.7101C29.8583 19.3896 29.4508 19.2291 29.2721 19.2291C29.0198 19.0432 28.807 18.9495 28.634 18.9466C25.4019 18.8697 23.7856 18.8318 23.7856 18.8318C23.7856 18.8318 22.1654 18.8697 18.9333 18.9466C18.7603 18.9495 18.5475 19.0432 18.2952 19.2291C18.1165 19.2291 17.709 19.3896 17.0715 19.7101C16.7885 20.353 16.5722 22.037 16.4233 24.7618C16.3056 24.8247 16.2609 25.1149 16.2902 25.6324C16.2974 25.8236 16.32 26.0004 16.3584 26.1633C16.3584 26.1633 16.3575 26.2181 16.3556 26.3281C16.3556 26.3281 16.3522 26.5602 16.345 27.0234C16.3464 27.0373 16.3262 28.398 16.2844 31.1045H31.2833H31.2829Z" fill="#E8E9E9"/>
<path d="M18.3676 35.1336H16.5183V37.831H18.3676V35.1336Z" fill="#404040"/>
<path fill-rule="evenodd" clip-rule="evenodd" d="M16.3301 34.9828C16.3358 35.2922 16.3387 35.6016 16.3382 35.9115C17.7912 35.9197 18.5177 35.924 18.5177 35.924C18.5177 35.3777 18.5177 35.1039 18.5177 35.1039L16.3296 34.9828H16.3301Z" fill="#292827"/>
<path d="M31.0488 35.1336H29.1995V37.831H31.0488V35.1336Z" fill="#404040"/>
<path fill-rule="evenodd" clip-rule="evenodd" d="M31.2367 34.9828C31.2309 35.2922 31.228 35.6016 31.2285 35.9115C29.7756 35.9197 29.0491 35.924 29.0491 35.924C29.0491 35.3777 29.0491 35.1039 29.0491 35.1039L31.2371 34.9828H31.2367Z" fill="#292827"/>
<path fill-rule="evenodd" clip-rule="evenodd" d="M16.2839 31.1048H31.2828C31.2809 30.9707 31.2789 30.84 31.2765 30.7122C31.1242 30.7151 30.9801 30.7175 30.8432 30.7204C30.4492 30.7276 30.1196 30.7339 29.8553 30.7391C29.3162 30.7492 29.0467 30.7545 29.0467 30.7545C29.0606 29.0354 29.0673 28.1763 29.0673 28.1763C29.063 27.8611 28.9462 27.6992 28.7171 27.6901C27.4712 27.7203 26.2003 27.7391 24.9237 27.7458C25.0045 27.8678 25.0746 27.999 25.1332 28.1393C25.9856 28.1254 27.2415 28.1047 28.9016 28.0778C28.9117 28.7015 28.7627 29.0066 28.4538 28.9941C27.9041 29.0162 27.6293 29.0277 27.6293 29.0277C27.6197 28.848 27.4981 28.761 27.2651 28.7682C26.3253 28.7851 25.5757 28.7985 25.0165 28.8091C24.9252 28.9547 24.8084 29.0873 24.6657 29.2069C24.3721 29.2257 24.0781 29.2362 23.7836 29.2381C23.4895 29.2362 23.1911 29.2257 22.8976 29.2069C22.7549 29.0873 22.6381 28.9547 22.5468 28.8091C21.9871 28.799 21.2371 28.7855 20.2982 28.7687C20.0652 28.7615 19.9441 28.8485 19.934 29.0282C19.934 29.0282 19.6592 29.0171 19.1095 28.9945C18.8011 29.007 18.6516 28.7015 18.6617 28.0783C20.3208 28.1057 21.5772 28.1259 22.4301 28.1398C22.4892 27.9995 22.5588 27.8683 22.6396 27.7463C21.3634 27.7391 20.0926 27.7208 18.8462 27.6905C18.617 27.6997 18.4998 27.8621 18.496 28.1768C18.496 28.1768 18.5032 29.0359 18.5166 30.755C18.5166 30.755 18.2471 30.7497 17.708 30.7396C17.4437 30.7343 17.1141 30.7281 16.7201 30.7209C16.5832 30.718 16.4391 30.7156 16.2868 30.7127C16.2848 30.84 16.2829 30.9707 16.2805 31.1053L16.2839 31.1048Z" fill="#6D6E6E"/>
<path fill-rule="evenodd" clip-rule="evenodd" d="M29.1034 31.9079C29.1034 31.9079 29.1049 31.7239 29.1077 31.3558C29.9995 31.3246 30.7245 31.241 31.2833 31.105H16.2844C16.8432 31.241 17.5682 31.3246 18.46 31.3558C18.4629 31.7239 18.4643 31.9079 18.4643 31.9079C18.5585 32.066 18.5941 32.2745 18.571 32.5344C19.4647 32.5681 20.3079 32.5767 21.0997 32.5609C22.8664 32.6147 24.7013 32.6147 26.468 32.5609C27.2598 32.5767 28.1031 32.5681 28.9968 32.5344C28.9737 32.275 29.0093 32.066 29.1034 31.9079Z" fill="#6D6E6E"/>
<path fill-rule="evenodd" clip-rule="evenodd" d="M28.3918 35.2841C29.8592 35.3624 30.8076 35.262 31.2367 34.9828C31.2809 34.8276 31.292 34.6772 31.2703 34.5312C31.6773 34.3495 31.5211 32.7707 31.5216 32.3849C29.654 32.5319 27.9695 32.5905 26.468 32.5603C24.7013 32.6141 22.8664 32.6141 21.0997 32.5603C19.5977 32.5905 17.9132 32.5319 16.0461 32.3849C16.0461 32.7702 15.8904 34.3495 16.2974 34.5312C16.2753 34.6772 16.2868 34.8276 16.331 34.9828C16.7601 35.262 17.7085 35.3624 19.1759 35.2841C22.1476 35.3974 25.4211 35.3974 28.3928 35.2841H28.3918Z" fill="#7C8785"/>
<path fill-rule="evenodd" clip-rule="evenodd" d="M23.7853 25.1381C22.2051 25.1491 20.0338 25.0967 17.2802 24.9814C17.1077 24.9699 17.0102 24.8479 16.9871 24.6153C16.7685 23.0322 16.9079 21.4202 17.3951 19.8985C17.4864 19.8111 17.6223 19.764 17.803 19.7573C21.7885 19.7121 23.7853 19.689 23.7853 19.689C23.7853 19.689 25.7779 19.7116 29.7634 19.7573C29.944 19.7635 30.0795 19.8106 30.1713 19.8985C30.6585 21.4206 30.7978 23.0326 30.5792 24.6153C30.5562 24.8474 30.4586 24.9694 30.2861 24.9814C27.5325 25.0972 25.3656 25.1496 23.7853 25.1381Z" fill="#353043"/>
<path fill-rule="evenodd" clip-rule="evenodd" d="M17.7113 30.7391C17.7051 30.4152 17.2851 29.6868 16.4515 28.5524C16.366 29.5398 16.4011 30.2144 16.5563 30.5762C16.6394 30.6502 16.6951 30.6982 16.7235 30.7203L17.7113 30.7391Z" fill="#FEC900"/>
<path fill-rule="evenodd" clip-rule="evenodd" d="M19.2979 35.2885C19.5405 35.9319 20.2996 36.2144 21.5767 36.1351C23.0061 36.1351 23.7451 36.1351 23.7859 36.1351C23.8268 36.1351 24.5619 36.1351 25.9908 36.1351C27.2674 36.2144 28.0271 35.9319 28.2697 35.2885H19.2983H19.2979Z" fill="#404040"/>
<path fill-rule="evenodd" clip-rule="evenodd" d="M21.4778 35.3279H23.6635H23.7812H26.2109V36.261H23.7812H23.6635H21.4778V35.3279Z" fill="#292827"/>
<path fill-rule="evenodd" clip-rule="evenodd" d="M18.224 28.4845C18.224 28.4845 18.2292 29.1663 18.2398 30.5294C18.2398 30.5294 18.1528 30.4438 17.9784 30.2733C17.9784 30.2733 17.9525 29.3911 17.9001 27.6273C17.9001 26.9109 17.3139 26.724 16.7864 26.3877C17.2476 26.5285 17.6695 26.699 18.0519 26.9004C18.1942 27.1199 18.2619 27.3794 18.2456 27.6403L18.2244 28.485L18.224 28.4845Z" fill="#D3D5D5"/>
<path d="M15.6069 20.6686H14.5662V23.2521H15.6069V20.6686Z" fill="black"/>
<path d="M15.6069 23.4146H14.5662V24.2723H15.6069V23.4146Z" fill="black"/>
<path d="M16.782 20.5373C16.7186 20.4364 16.6172 20.3528 16.4783 20.2869C16.3332 20.2182 16.1487 20.1697 15.9248 20.1404C15.8009 20.1356 15.6774 20.1337 15.5549 20.1342C15.4381 20.1351 15.3204 20.1385 15.2012 20.1447C15.1623 20.1707 15.1445 20.2134 15.1469 20.273L15.048 24.4623C15.0648 24.5007 15.0984 24.5329 15.1489 24.5598C15.2137 24.5944 15.3041 24.6184 15.4199 24.6323L16.757 24.6218L16.7575 24.7794L15.4069 24.7899L15.404 24.7895C15.2675 24.7736 15.158 24.7433 15.0754 24.6996C14.9826 24.6506 14.9221 24.5843 14.8942 24.5007L14.8899 24.4877L14.9894 20.2778C14.9841 20.1457 15.0345 20.0525 15.1417 19.9972L15.1566 19.9895L15.1734 19.9886C15.2983 19.9818 15.4251 19.978 15.5534 19.977C15.6808 19.9761 15.8076 19.978 15.9335 19.9833L15.9402 19.9843C16.1833 20.0155 16.3846 20.0688 16.5451 20.1447C16.7118 20.2235 16.8353 20.3263 16.9151 20.4542L16.7815 20.5373H16.782Z" fill="black"/>
<path fill-rule="evenodd" clip-rule="evenodd" d="M23.7854 33.7238C23.7854 33.7238 25.3402 33.7041 28.4503 33.6652C29.6731 33.681 30.2194 33.3908 30.0906 32.795C27.8598 32.8979 25.7544 32.9483 23.7815 32.9454C21.8087 32.9478 19.7071 32.8974 17.4763 32.795C17.347 33.3913 17.8938 33.681 19.1166 33.6652C22.2267 33.7041 23.7859 33.7238 23.7859 33.7238H23.7854Z" fill="#353043"/>
<path fill-rule="evenodd" clip-rule="evenodd" d="M23.7854 28.8305C23.7854 28.8305 24.9458 28.8094 27.2664 28.7676C27.4995 28.7604 27.6205 28.8473 27.6306 29.027C27.6306 29.027 27.9055 29.016 28.4551 28.9934C28.7636 29.0059 28.913 28.7003 28.9029 28.0771C25.4916 28.1329 23.7859 28.1608 23.7859 28.1608C23.7859 28.1608 22.0759 28.1329 18.6645 28.0771C18.6545 28.7008 18.8034 29.0059 19.1123 28.9934C19.662 29.0155 19.9368 29.027 19.9368 29.027C19.9464 28.8473 20.068 28.7604 20.301 28.7676C22.6217 28.8094 23.7864 28.8305 23.7864 28.8305H23.7854Z" fill="#E8E9E9"/>
<path fill-rule="evenodd" clip-rule="evenodd" d="M29.8557 30.7391C29.862 30.4152 30.2819 29.6868 31.1155 28.5524C31.201 29.5398 31.166 30.2144 31.0108 30.5762C30.9276 30.6502 30.8719 30.6982 30.8436 30.7203L29.8557 30.7391Z" fill="#FEC900"/>
<path fill-rule="evenodd" clip-rule="evenodd" d="M29.3426 28.4845C29.3426 28.4845 29.3373 29.1663 29.3268 30.5294C29.3268 30.5294 29.4137 30.4438 29.5881 30.2733C29.5881 30.2733 29.6141 29.3911 29.6664 27.6273C29.6664 26.9109 30.2526 26.724 30.7802 26.3877C30.3189 26.5285 29.8971 26.699 29.5146 26.9004C29.3724 27.1199 29.3047 27.3794 29.321 27.6403L29.3421 28.485L29.3426 28.4845Z" fill="#D3D5D5"/>
<path d="M33.0009 20.6686H31.9602V23.2521H33.0009V20.6686Z" fill="black"/>
<path d="M33.0009 23.4146H31.9602V24.2723H33.0009V23.4146Z" fill="black"/>
<path d="M30.7845 20.5373C30.8479 20.4364 30.9493 20.3528 31.0881 20.2869C31.2332 20.2182 31.4177 20.1697 31.6416 20.1404C31.7656 20.1356 31.8895 20.1337 32.0116 20.1342C32.1283 20.1351 32.2461 20.1385 32.3652 20.1447C32.4041 20.1707 32.4219 20.2134 32.4195 20.273L32.5185 24.4623C32.5017 24.5007 32.468 24.5329 32.4176 24.5598C32.3527 24.5944 32.2624 24.6184 32.1466 24.6323L30.8094 24.6218L30.809 24.7794L32.1596 24.7899L32.1625 24.7895C32.2989 24.7736 32.4085 24.7433 32.4911 24.6996C32.5838 24.6506 32.6444 24.5843 32.6722 24.5007L32.6766 24.4877L32.5771 20.2778C32.5824 20.1457 32.5319 20.0525 32.4248 19.9972L32.4099 19.9895L32.3931 19.9886C32.2682 19.9818 32.1413 19.978 32.013 19.977C31.8857 19.9761 31.7589 19.978 31.633 19.9833L31.6262 19.9843C31.3831 20.0155 31.1818 20.0688 31.0213 20.1447C30.8546 20.2235 30.7311 20.3263 30.6514 20.4542L30.7849 20.5373H30.7845Z" fill="black"/>
<path fill-rule="evenodd" clip-rule="evenodd" d="M23.7854 30.4871C23.7854 30.4871 24.9458 30.466 27.2664 30.4242C27.4995 30.417 27.6205 30.504 27.6306 30.6837C27.6306 30.6837 27.9055 30.6721 28.4551 30.65C28.7636 30.6625 28.913 30.3569 28.9029 29.7338C25.4916 29.7895 23.7859 29.8174 23.7859 29.8174C23.7859 29.8174 22.0759 29.7895 18.6645 29.7338C18.6545 30.3569 18.8034 30.6625 19.1123 30.65C19.662 30.6721 19.9368 30.6837 19.9368 30.6837C19.9464 30.504 20.068 30.417 20.301 30.4242C22.6217 30.466 23.7864 30.4871 23.7864 30.4871H23.7854Z" fill="#E8E9E9"/>
<path fill-rule="evenodd" clip-rule="evenodd" d="M23.7854 32.0637C23.7854 32.0637 24.9458 32.0426 27.2664 32.0008C27.4995 31.9936 27.6205 32.0806 27.6306 32.2603C27.6306 32.2603 27.9055 32.2492 28.4551 32.2266C28.7636 32.2391 28.913 31.9335 28.9029 31.3104C25.4916 31.3661 23.7859 31.394 23.7859 31.394C23.7859 31.394 22.0759 31.3661 18.6645 31.3104C18.6545 31.9335 18.8034 32.2391 19.1123 32.2266C19.662 32.2492 19.9368 32.2603 19.9368 32.2603C19.9464 32.0806 20.068 31.9936 20.301 32.0008C22.6217 32.0426 23.7864 32.0637 23.7864 32.0637H23.7854Z" fill="#E8E9E9"/>
<path fill-rule="evenodd" clip-rule="evenodd" d="M23.7853 29.2382C23.4913 29.2362 23.1929 29.2257 22.8994 29.2069C22.6188 28.971 22.4371 28.6851 22.3555 28.3493C22.4943 27.9193 22.7245 27.5661 23.0459 27.2903C23.0459 27.2903 23.2953 27.2884 23.7853 27.285C24.2759 27.2884 24.5209 27.2903 24.5209 27.2903C24.8424 27.5661 25.0725 27.9193 25.2114 28.3493C25.1297 28.6851 24.9481 28.971 24.6675 29.2069C24.3739 29.2257 24.0799 29.2362 23.7853 29.2382Z" fill="#353043"/>
<path fill-rule="evenodd" clip-rule="evenodd" d="M18.4768 33.9871C17.1641 34.0908 16.0648 34.2158 16.2974 32.6648C16.5506 32.6955 16.8033 32.7316 17.0546 32.7739C18.9577 33.0448 18.7948 34.0216 18.4768 33.9871Z" fill="#FEFEFE"/>
<path fill-rule="evenodd" clip-rule="evenodd" d="M29.0902 33.9871C30.4029 34.0908 31.5022 34.2158 31.2697 32.6648C31.0165 32.6955 30.7637 32.7316 30.5124 32.7739C28.6098 33.0448 28.7722 34.0216 29.0902 33.9871Z" fill="#FEFEFE"/>
<path fill-rule="evenodd" clip-rule="evenodd" d="M23.8211 28.2656C23.9499 28.2647 24.0786 28.2637 24.2074 28.2627C24.2554 28.2623 24.303 28.2613 24.3511 28.2608C24.3972 28.2603 24.4428 28.2608 24.489 28.2603C24.5538 28.2627 24.6288 28.2575 24.6821 28.2834C24.7109 28.2973 24.721 28.3185 24.7268 28.3502C24.7268 28.3526 24.7268 28.3545 24.7277 28.3564C24.7263 28.4021 24.6984 28.4554 24.6778 28.4982C24.6485 28.5597 24.5975 28.6149 24.5456 28.6654C24.4572 28.7514 24.2833 28.8513 24.1002 28.9008C24.0753 28.9075 24.0455 28.9181 24.0181 28.9248C23.9974 28.9301 24.0046 28.9402 24.0181 28.9388C24.0474 28.9364 24.0801 28.9287 24.1065 28.9219C24.3189 28.8686 24.4659 28.7836 24.5673 28.7014C24.6278 28.6524 24.6912 28.5827 24.7326 28.5102C24.7604 28.4607 24.7888 28.3809 24.7926 28.3516C24.7974 28.3132 24.8027 28.2935 24.8008 28.2325H24.8003C24.795 28.1292 24.7623 28.0475 24.7018 27.9533C24.6975 27.9466 24.6917 27.9408 24.6874 27.9341C24.6855 27.9307 24.6831 27.9259 24.6855 27.9206L24.6869 27.9197C24.6922 27.9178 24.7004 27.9245 24.7047 27.9293C24.7547 27.9845 24.7825 28.0292 24.8089 28.0859C24.8445 28.1604 24.8531 28.2142 24.8594 28.2805C24.8604 28.2925 24.8743 28.2993 24.8753 28.2781C24.8781 28.2075 24.8623 28.133 24.8334 28.0672C24.7998 27.9908 24.7633 27.949 24.7172 27.8923C24.7172 27.8923 24.7167 27.8918 24.7162 27.8913C24.6605 27.8342 24.5942 27.7799 24.5264 27.7371C24.4222 27.6713 24.3155 27.6276 24.2007 27.5963C24.1536 27.5838 24.1046 27.5733 24.0556 27.568C24.0407 27.5661 24.0239 27.567 24.009 27.5665C23.9979 27.5665 23.9869 27.5781 24.009 27.5834C24.0392 27.5906 24.0685 27.5973 24.0988 27.6064C24.2117 27.6386 24.3237 27.6823 24.4236 27.7458C24.5062 27.7986 24.5476 27.8255 24.6461 27.9485C24.6576 27.9658 24.6845 28.0071 24.6994 28.0408C24.7095 28.0638 24.7234 28.1008 24.7244 28.1282V28.1292C24.7215 28.1561 24.7157 28.1743 24.6941 28.1873C24.6499 28.2137 24.611 28.2157 24.55 28.2185C24.5072 28.2205 24.4645 28.2214 24.4217 28.2219C24.3583 28.2233 24.2958 28.2248 24.2319 28.2257C24.0954 28.2281 23.958 28.2296 23.8216 28.231C23.8072 28.231 23.7923 28.2315 23.7779 28.2315C23.6385 28.2325 23.4982 28.2334 23.3589 28.2334C23.2945 28.2334 23.2325 28.2334 23.1691 28.2329C23.1263 28.2329 23.0836 28.233 23.0408 28.2315C22.9793 28.2296 22.9404 28.2281 22.8957 28.2027C22.8741 28.1902 22.8678 28.1724 22.8645 28.145V28.1441C22.8645 28.1167 22.8784 28.0792 22.888 28.0561C22.9019 28.022 22.9284 27.9802 22.9394 27.9629C23.036 27.838 23.0764 27.8106 23.158 27.7558C23.2565 27.6905 23.3675 27.6453 23.48 27.6107C23.5102 27.6016 23.5395 27.5939 23.5693 27.5862C23.5914 27.5809 23.5799 27.5694 23.5689 27.5694C23.554 27.5699 23.5371 27.5699 23.5218 27.5718C23.4727 27.5781 23.4237 27.5891 23.3771 27.6031C23.2628 27.6367 23.1571 27.6818 23.0538 27.7501C22.987 27.7938 22.9212 27.8491 22.8669 27.9072C22.8669 27.9077 22.8664 27.9077 22.8659 27.9082C22.8203 27.9653 22.7852 28.0081 22.7525 28.085C22.7247 28.1513 22.7102 28.2262 22.7146 28.2969C22.7155 28.318 22.729 28.3108 22.7299 28.2988C22.7347 28.2325 22.7429 28.1787 22.777 28.1032C22.8025 28.046 22.8294 28.0009 22.8784 27.9447C22.8827 27.9399 22.8909 27.9331 22.8962 27.9351L22.8976 27.936C22.9 27.9413 22.8976 27.9466 22.8957 27.9495C22.8919 27.9562 22.8861 27.9624 22.8818 27.9692C22.8227 28.0638 22.7914 28.1465 22.7881 28.2498H22.7876C22.7866 28.3108 22.7919 28.3305 22.7977 28.3689C22.802 28.3982 22.8318 28.4775 22.8606 28.5265C22.9029 28.5981 22.9678 28.6668 23.0288 28.7149C23.1316 28.7951 23.2796 28.8777 23.4934 28.9272C23.5194 28.9335 23.5525 28.9407 23.5818 28.9421C23.5953 28.9431 23.6025 28.9325 23.5818 28.9282C23.5544 28.9219 23.5242 28.9119 23.4992 28.9056C23.3152 28.8595 23.1398 28.7624 23.0499 28.6783C22.9971 28.6289 22.9452 28.5746 22.9149 28.5135C22.8938 28.4713 22.8645 28.4179 22.8625 28.3728C22.863 28.3708 22.863 28.3694 22.863 28.3665C22.8683 28.3348 22.8779 28.3137 22.9068 28.2993C22.9596 28.2719 23.0346 28.2762 23.0994 28.2728C23.1456 28.2723 23.1912 28.2709 23.2373 28.2709C23.2854 28.2704 23.3334 28.2704 23.3815 28.2699C23.5131 28.269 23.6452 28.2671 23.7774 28.2661C23.7923 28.2661 23.8067 28.2656 23.8216 28.2656H23.8211ZM23.8197 28.2185C23.9109 28.2176 24.0027 28.2176 24.0926 28.2157C24.1579 28.2142 24.2237 28.2128 24.2891 28.2104C24.3477 28.2084 24.4058 28.2056 24.4654 28.2008C24.5211 28.1964 24.5971 28.1868 24.61 28.1777C24.6196 28.171 24.6158 28.1623 24.6081 28.1561C24.5956 28.1465 24.5802 28.1383 24.5658 28.133C24.5596 28.1306 24.5504 28.1321 24.5452 28.1364C24.5341 28.1455 24.5279 28.1484 24.5139 28.1517C24.4596 28.1666 24.4202 28.1729 24.3482 28.1791C24.2944 28.1835 24.2401 28.1873 24.1867 28.1897C24.0652 28.1945 23.9902 28.196 23.8201 28.1979C23.8052 28.1979 23.7899 28.1984 23.7745 28.1984C23.6001 28.1998 23.5246 28.1993 23.4016 28.1969C23.3483 28.196 23.2935 28.1931 23.2397 28.1897C23.1672 28.1849 23.1283 28.1791 23.0735 28.1652C23.0595 28.1618 23.0533 28.159 23.0422 28.1503C23.037 28.146 23.0278 28.145 23.0216 28.1474C23.0072 28.1532 22.9913 28.1614 22.9798 28.1715C22.9721 28.1777 22.9687 28.1868 22.9783 28.1931C22.9913 28.2017 23.0672 28.2104 23.123 28.2133C23.1821 28.2166 23.2407 28.2185 23.2993 28.2195C23.3646 28.2205 23.4305 28.2209 23.4958 28.2214C23.5876 28.2219 23.6813 28.22 23.775 28.2195C23.7899 28.2195 23.8052 28.219 23.8201 28.219L23.8197 28.2185ZM23.8177 28.1695C24.0046 28.1676 24.2035 28.1686 24.3876 28.1479C24.4803 28.1373 24.5062 28.0883 24.5096 28.0557C24.5211 27.9495 24.3621 27.8116 24.279 27.7674C24.1665 27.7073 24.0652 27.6602 23.9311 27.6256C23.9138 27.6213 23.9028 27.6016 23.9028 27.5858C23.9028 27.5718 23.9239 27.555 23.9374 27.5516C23.9792 27.5411 24.0229 27.5435 24.0671 27.5497C24.1372 27.5593 24.2045 27.5723 24.2737 27.592C24.3645 27.6184 24.464 27.6641 24.5509 27.7179C24.6638 27.7871 24.7614 27.875 24.8325 27.9855C24.8829 28.0638 24.9209 28.1657 24.9214 28.2527C24.9223 28.3598 24.8825 28.465 24.8238 28.5568C24.7676 28.6452 24.6903 28.7168 24.6047 28.7797C24.5274 28.8369 24.4395 28.8806 24.3506 28.9162C24.2727 28.9474 24.1911 28.9666 24.1089 28.9801C24.0565 28.9887 24.0051 28.9926 23.9527 28.9844C23.9393 28.9825 23.9162 28.9666 23.9148 28.9527C23.9133 28.9373 23.9244 28.9191 23.9393 28.9143C23.9835 28.9008 24.0561 28.8773 24.1089 28.8537C24.1762 28.8239 24.2449 28.7932 24.3054 28.7523C24.3659 28.712 24.4255 28.6644 24.4654 28.6068C24.4875 28.575 24.5106 28.5313 24.5125 28.4991C24.5135 28.479 24.5135 28.4549 24.5034 28.4376C24.4625 28.3723 24.3511 28.3766 24.2674 28.3728C24.1911 28.3699 24.1166 28.3699 24.0407 28.3684C23.9638 28.3665 23.8735 28.367 23.7961 28.3665C23.7183 28.3684 23.6279 28.3699 23.5515 28.3728C23.4752 28.3757 23.4007 28.3771 23.3243 28.3814C23.2412 28.3862 23.1292 28.3843 23.0898 28.4506C23.0797 28.4674 23.0802 28.4919 23.0816 28.5121C23.0845 28.5443 23.1081 28.5875 23.1302 28.6188C23.171 28.6755 23.2311 28.7221 23.2926 28.7615C23.3541 28.8013 23.4233 28.8307 23.491 28.8595C23.5443 28.8821 23.6179 28.9042 23.6621 28.9171C23.677 28.9215 23.6885 28.9392 23.687 28.9551C23.6856 28.969 23.663 28.9854 23.6496 28.9878C23.5972 28.9969 23.5458 28.994 23.4934 28.9859C23.4108 28.9738 23.3286 28.9561 23.2508 28.9268C23.1609 28.8926 23.0725 28.8504 22.9937 28.7946C22.9072 28.7336 22.8284 28.663 22.7708 28.5755C22.7107 28.4847 22.6684 28.3805 22.6675 28.2733C22.667 28.1863 22.703 28.084 22.7516 28.0047C22.8208 27.8928 22.9169 27.8029 23.0283 27.7318C23.1143 27.677 23.2128 27.629 23.3031 27.6011C23.3719 27.58 23.4386 27.5656 23.5088 27.555C23.5525 27.5483 23.5962 27.5454 23.6385 27.5545C23.652 27.5579 23.6731 27.5742 23.6736 27.5882C23.6736 27.604 23.663 27.6237 23.6457 27.6285C23.5126 27.6655 23.4122 27.7145 23.3007 27.7765C23.2186 27.8221 23.062 27.9634 23.0754 28.0686C23.0797 28.1008 23.1066 28.1498 23.1994 28.1585C23.3853 28.1763 23.5857 28.171 23.7745 28.17C23.7889 28.17 23.8033 28.17 23.8177 28.1695Z" fill="#D3D5D5"/>
<path d="M39.1218 4.00024H8.87848C6.18431 4.00024 4.00024 6.1843 4.00024 8.87848V39.1218C4.00024 41.816 6.18431 44 8.87848 44H39.1218C41.816 44 44 41.816 44 39.1218V8.87848C44 6.1843 41.816 4.00024 39.1218 4.00024Z" fill="white" stroke="black" stroke-width="2" stroke-miterlimit="22.9256"/>
<path fill-rule="evenodd" clip-rule="evenodd" d="M4 15H44V9.49975C44 6.47484 41.6202 4 38.7115 4H8.85569C6.18513 4 4 6.27192 4 9.04964V15Z" fill="black"/>
<rect x="9" y="20" width="10" height="10" fill="#C4C4C4"/>
<rect x="21" y="26" width="18" height="4" fill="#C4C4C4"/>
<rect x="9" y="32" width="30" height="4" fill="#C4C4C4"/>
<rect x="21" y="20" width="18" height="4" fill="#C4C4C4"/>
</svg>
