<svg width="16" height="20" viewBox="0 0 16 20" fill="none" xmlns="http://www.w3.org/2000/svg">
<path d="M15.045 5.40088C15.423 5.02288 15.631 4.52088 15.631 3.98688C15.631 3.45288 15.423 2.95088 15.045 2.57288L13.459 0.986879C13.081 0.608879 12.579 0.400879 12.045 0.400879C11.511 0.400879 11.009 0.608879 10.632 0.985879L0 11.5849V15.9999H4.413L15.045 5.40088ZM12.045 2.40088L13.632 3.98588L12.042 5.56988L10.456 3.98488L12.045 2.40088ZM2 13.9999V12.4149L9.04 5.39688L10.626 6.98288L3.587 13.9999H2ZM0 17.9999H16V19.9999H0V17.9999Z" fill="#484848"/>
</svg>
