<svg width="48" height="48" viewBox="0 0 48 48" fill="none" xmlns="http://www.w3.org/2000/svg">
<path d="M24 48C37.2548 48 48 37.2548 48 24C48 10.7452 37.2548 0 24 0C10.7452 0 0 10.7452 0 24C0 37.2548 10.7452 48 24 48Z" fill="#C80000"/>
<path d="M41.5063 22.4779V42.8883C41.5063 43.5737 40.9487 44.1313 40.2633 44.1313H8.35236C7.67859 44.1313 7.10938 43.5737 7.10938 42.8883V17.9822C7.10938 17.2969 7.66697 16.7393 8.35236 16.7393H20.7822C21.4559 16.7393 22.0252 17.2969 22.0252 17.9822V20.3172C22.0252 20.8283 22.4434 21.2465 22.9545 21.2465H40.2749C40.9603 21.2465 41.5179 21.8041 41.5179 22.4895L41.5063 22.4779Z" fill="black"/>
<path d="M32.4801 38.5327V38.5444H12.6389C11.9767 38.5444 11.3843 38.2772 10.9428 37.8474C10.5014 37.4175 10.2458 36.8135 10.2458 36.1513V35.0361H30.2381V36.1513C30.2381 36.8135 30.5053 37.4059 30.9351 37.8474C31.3417 38.2539 31.8761 38.5095 32.4801 38.5444V38.5327Z" fill="#B3B3B3"/>
<path d="M39.6245 3.86865V33.1775C39.6245 34.8619 38.2537 36.2326 36.5577 36.2326H11.1521V3.86865H39.6245Z" fill="#4D4D4D"/>
<path d="M38.1375 5.40137V34.7102C38.1375 36.3946 36.7667 37.7654 35.0707 37.7654H9.66504V5.40137H38.1375Z" fill="white"/>
<path fill-rule="evenodd" clip-rule="evenodd" d="M31.3185 8.15576H23.9651H23.6282H16.2749V18.8315H23.6282H23.9651H31.3185V8.15576Z" fill="#FB0000"/>
<path fill-rule="evenodd" clip-rule="evenodd" d="M16.9836 14.3939C16.9487 13.8479 17.0184 12.7908 17.1927 11.2109C17.3321 11.2109 17.4018 11.2109 17.4018 11.2109C17.2507 13.4762 17.181 14.6146 17.181 14.6146L16.9836 14.3939Z" fill="#404040"/>
<path fill-rule="evenodd" clip-rule="evenodd" d="M28.8441 26.9164V23.6173V23.3733C28.8674 23.3733 28.8906 23.3733 28.9138 23.3733C29.4017 23.3733 29.8896 23.3617 30.3775 23.3617C30.7144 23.1061 30.9235 22.6763 31.0164 22.0723H31.0629C31.0978 22.1187 31.1326 22.1536 31.1675 22.1768V26.9164H28.8441ZM18.7376 23.3733V23.6173V26.9164H16.4143V22.1768C16.4492 22.1536 16.4956 22.1187 16.5189 22.0723H16.5653C16.6583 22.6647 16.8674 23.0945 17.2042 23.3617C17.6921 23.3733 18.18 23.3733 18.6679 23.3733C18.6912 23.3733 18.7144 23.3733 18.7376 23.3733Z" fill="#404040"/>
<path fill-rule="evenodd" clip-rule="evenodd" d="M23.7558 24.8027C22.4431 24.8027 21.1304 24.7678 19.8178 24.6981C19.3066 24.5123 18.9117 24.1057 18.749 23.6062V23.3622C20.4334 23.3738 22.1179 23.3738 23.8023 23.3506C25.4867 23.3738 27.1711 23.3738 28.8555 23.3622V23.6062C28.6813 24.1057 28.2863 24.5123 27.7868 24.6981C26.4509 24.7678 25.1149 24.8027 23.7674 24.8027H23.7558Z" fill="#292827"/>
<path fill-rule="evenodd" clip-rule="evenodd" d="M27.241 21.7706C24.9525 21.7474 22.6408 21.7474 20.3523 21.7706C20.2594 21.759 20.0503 22.1424 19.7018 22.8974C20.027 22.5373 20.2826 22.3515 20.4801 22.3515C22.6872 22.3398 24.906 22.3398 27.1016 22.3515C27.2991 22.3515 27.5546 22.5257 27.8799 22.8974C27.543 22.1307 27.3223 21.759 27.2294 21.7706H27.241ZM30.9699 20.76C31.028 20.911 31.0628 21.1549 31.0628 21.4802C31.0628 21.6661 31.0512 21.8287 31.028 21.9913C31.028 22.0146 31.0164 22.0378 31.0164 22.061C30.9234 22.6535 30.7143 23.0833 30.3775 23.3505C29.8896 23.3621 29.4017 23.3621 28.9138 23.3621C28.8905 23.3621 28.8673 23.3621 28.8441 23.3621C27.1597 23.3737 25.4752 23.3737 23.7908 23.3505C22.1064 23.3737 20.422 23.3737 18.7376 23.3621C18.7143 23.3621 18.6911 23.3621 18.6679 23.3621C18.18 23.3621 17.6921 23.3505 17.2042 23.3505C16.8673 23.0949 16.6582 22.6651 16.5653 22.061C16.5653 22.0378 16.5536 22.0146 16.5536 21.9913C16.5304 21.8287 16.5188 21.6661 16.5188 21.4802C16.5188 21.1549 16.5536 20.911 16.6117 20.76C16.6698 20.6206 16.7395 20.5625 16.8441 20.5625C17.634 20.7019 18.3658 20.8181 19.0512 20.8994C19.9689 21.0155 20.7937 21.0736 21.5256 21.0736C22.7802 21.0736 23.5236 21.0736 23.7444 21.0736C23.7444 21.0736 24.5111 21.0736 26.0445 21.0736C26.7763 21.0736 27.6011 21.0155 28.5188 20.8994C29.2042 20.8181 29.936 20.7019 30.726 20.5625C30.8305 20.5625 30.9002 20.6206 30.9583 20.76H30.9699ZM28.8557 22.3282C29.8199 22.2701 30.3078 22.2469 30.3078 22.2469C30.3775 22.2121 30.4355 22.1424 30.482 22.061C30.5285 21.9913 30.5633 21.9216 30.5982 21.8287C30.8537 21.2014 30.7492 20.9226 30.2613 21.0039C29.2855 21.1085 28.7163 21.213 28.542 21.3292C28.391 21.4105 28.2865 21.5615 28.2632 21.7358C28.5188 22.1307 28.6466 22.3282 28.6466 22.3282C28.7163 22.3282 28.7744 22.3166 28.8324 22.3166L28.8557 22.3282ZM17.1229 22.0727C17.1809 22.154 17.239 22.2121 17.2971 22.2585C17.2971 22.2585 17.785 22.2818 18.7492 22.3398C18.8073 22.3398 18.877 22.3515 18.9351 22.3515C18.9351 22.3515 19.0628 22.154 19.3184 21.759C19.2952 21.5848 19.1906 21.4337 19.0396 21.3524C18.877 21.2363 18.2961 21.1201 17.3203 21.0272C16.8441 20.9458 16.7279 21.2246 16.9835 21.8519C17.0183 21.9449 17.0532 22.0262 17.0996 22.0843L17.1229 22.0727Z" fill="#404040"/>
<path fill-rule="evenodd" clip-rule="evenodd" d="M28.8441 22.3284C28.786 22.3284 28.7163 22.34 28.6583 22.34C28.6583 22.34 28.5305 22.1426 28.2749 21.7476C28.2981 21.5733 28.4027 21.4223 28.5537 21.341C28.7163 21.2248 29.2972 21.1087 30.273 21.0157C30.7493 20.9344 30.8654 21.2132 30.6099 21.8405C30.575 21.9335 30.5402 22.0148 30.4937 22.0729C30.4356 22.1542 30.3775 22.2123 30.3194 22.2587C30.3194 22.2587 29.8315 22.282 28.8674 22.34L28.8441 22.3284Z" fill="#FEFEFE"/>
<path fill-rule="evenodd" clip-rule="evenodd" d="M17.1113 22.0729C17.0648 22.0032 17.03 21.9335 16.9951 21.8405C16.7395 21.2132 16.8441 20.9344 17.332 21.0157C18.3078 21.1203 18.877 21.2248 19.0513 21.341C19.2023 21.4223 19.3068 21.5733 19.3301 21.7476C19.0745 22.1426 18.9467 22.34 18.9467 22.34C18.877 22.34 18.8189 22.3284 18.7608 22.3284C17.7967 22.2703 17.3088 22.2471 17.3088 22.2471C17.2391 22.2123 17.181 22.1426 17.1345 22.0612L17.1113 22.0729Z" fill="#FEFEFE"/>
<path fill-rule="evenodd" clip-rule="evenodd" d="M19.7017 22.9089C20.0385 22.1422 20.2593 21.7705 20.3522 21.7821C22.6407 21.7588 24.9524 21.7588 27.2409 21.7821C27.3338 21.7705 27.5429 22.1538 27.8914 22.9089C27.5661 22.5488 27.3106 22.3629 27.1131 22.3629C24.9059 22.3513 22.6871 22.3513 20.4916 22.3629C20.2941 22.3629 20.0385 22.5372 19.7133 22.9089H19.7017Z" fill="#6D6E6E"/>
<path fill-rule="evenodd" clip-rule="evenodd" d="M22.9428 19.5284C22.7221 19.3658 22.5478 19.1451 22.4433 18.9011C20.7356 18.8779 19.8876 18.8779 19.8876 18.8779C19.8876 19.0754 19.9109 19.2845 19.9457 19.5052L22.9428 19.5401V19.5284ZM18.5285 18.8314C18.4588 18.5526 18.3775 18.2622 18.2961 17.9253C19.2603 18.0531 20.7008 18.088 22.6292 18.0647C23.2448 17.3677 24.3717 17.3677 24.9873 18.0647C26.9157 18.0996 28.3678 18.0531 29.3203 17.9253C29.239 18.2506 29.1577 18.5526 29.088 18.8314C28.7279 20.2138 28.542 20.8992 28.542 20.8992C27.6243 21.0154 26.7995 21.0735 26.0677 21.0735C24.8131 21.0735 24.0696 21.0735 23.8489 21.0735C23.8489 21.0735 23.0822 21.0735 21.5488 21.0735C20.817 21.0735 19.9922 21.0154 19.0745 20.8992C19.0745 20.8992 18.8886 20.2138 18.5285 18.8314ZM27.4501 20.1557C26.0561 20.1674 24.8479 20.1674 23.8024 20.1557C22.7686 20.1674 21.5488 20.1674 20.1548 20.1557C20.12 20.2835 20.1316 20.4578 20.2129 20.6901C21.4326 20.725 22.6292 20.7366 23.8024 20.7366C24.9757 20.7482 26.1722 20.725 27.392 20.6901C27.4617 20.4578 27.4849 20.2835 27.4501 20.1557ZM25.1616 18.8895C25.057 19.1451 24.8828 19.3542 24.6621 19.5168L27.6592 19.482C27.694 19.2613 27.7172 19.0522 27.7172 18.8547C27.7172 18.8547 26.8692 18.8663 25.1616 18.8779V18.8895Z" fill="#6D6E6E"/>
<path fill-rule="evenodd" clip-rule="evenodd" d="M24.6504 19.5285C24.8711 19.3658 25.0454 19.1451 25.1499 18.9012C26.8576 18.8779 27.7056 18.8779 27.7056 18.8779C27.7056 19.0754 27.6823 19.2845 27.6475 19.5052L24.6504 19.5401V19.5285Z" fill="#404040"/>
<path fill-rule="evenodd" clip-rule="evenodd" d="M22.4316 18.9011C22.5362 19.1566 22.7104 19.3657 22.9312 19.5284L19.9341 19.4935C19.8992 19.2728 19.876 19.0637 19.876 18.8662C19.876 18.8662 20.724 18.8778 22.4316 18.8894V18.9011Z" fill="#404040"/>
<path fill-rule="evenodd" clip-rule="evenodd" d="M20.1549 20.1558C21.5489 20.1674 22.7571 20.1674 23.8026 20.1558C24.8364 20.1674 26.0562 20.1674 27.4502 20.1558C27.485 20.2835 27.4734 20.4578 27.3921 20.6901C26.1724 20.725 24.9758 20.7366 23.8026 20.7366C22.6293 20.7482 21.4328 20.725 20.213 20.6901C20.1433 20.4578 20.1201 20.2835 20.1549 20.1558Z" fill="#404040"/>
<path fill-rule="evenodd" clip-rule="evenodd" d="M17.8663 19.5171C18.1567 19.8539 18.2961 20.1444 18.2961 20.3883C17.541 20.3999 17.088 20.307 16.9254 20.0979C16.8324 19.7378 16.9021 19.4357 17.1228 19.1802C17.6107 19.4125 17.8547 19.5287 17.8547 19.5287L17.8663 19.5171Z" fill="#FEC900"/>
<path fill-rule="evenodd" clip-rule="evenodd" d="M29.2971 20.3882C29.2971 20.1443 29.4365 19.8655 29.7269 19.517C29.7269 19.517 29.9709 19.4008 30.4704 19.1685C30.7027 19.424 30.7724 19.7261 30.6679 20.0862C30.5053 20.2953 30.0522 20.3882 29.2971 20.3766V20.3882Z" fill="#FEC900"/>
<path fill-rule="evenodd" clip-rule="evenodd" d="M29.0765 18.8318C29.1462 18.553 29.2275 18.2626 29.3088 17.9257C28.3447 18.0535 26.9042 18.0883 24.9758 18.0651C24.3602 17.3681 23.2333 17.3681 22.6177 18.0651C20.6893 18.0999 19.2372 18.0535 18.2846 17.9257C18.366 18.251 18.4473 18.553 18.517 18.8318C18.8771 20.2142 19.063 20.8996 19.063 20.8996C18.3776 20.8182 17.6457 20.7021 16.8558 20.5627C16.7512 20.5627 16.6815 20.6208 16.6235 20.7602C16.5538 19.9121 16.5073 19.4126 16.4841 19.2732C16.4724 19.2616 16.4608 19.2616 16.4492 19.2616C16.4376 19.0874 16.5305 18.9131 16.6932 18.8434C16.7048 18.8318 16.7164 18.8318 16.7396 18.8318C16.7048 16.6479 16.7164 15.1958 16.7629 14.4988C16.7977 13.8599 16.8442 13.3023 16.879 12.8144H17.0417C16.9836 13.5346 16.972 14.069 16.9836 14.3942L17.1811 14.615C17.1811 14.615 17.2508 13.4765 17.4018 11.2113C17.4018 11.2113 17.3321 11.2113 17.1927 11.2113C17.1346 11.7689 17.0881 12.2568 17.0533 12.675H16.879C16.9487 11.7921 16.9952 11.1764 17.0417 10.8395C17.1811 10.3516 17.4482 10.0728 17.8664 10.0031C21.7232 9.88697 25.8587 9.88697 29.7154 10.0031C30.1336 10.0728 30.4008 10.3516 30.5402 10.8395C30.5867 11.1764 30.6331 11.7921 30.7028 12.675H30.5286C30.4937 12.2452 30.4473 11.7573 30.3892 11.2113C30.2498 11.2113 30.1801 11.2113 30.1801 11.2113C30.3311 13.4765 30.4008 14.615 30.4008 14.615L30.5983 14.3942C30.6215 14.0574 30.5983 13.5346 30.5402 12.8144H30.7028C30.7377 13.3023 30.7725 13.8599 30.819 14.4988C30.8655 15.1958 30.8655 16.6362 30.8422 18.8318C30.8539 18.8318 30.8771 18.8434 30.8887 18.8434C31.0513 18.9131 31.1443 19.0874 31.1327 19.2616C31.121 19.2616 31.1094 19.2732 31.0978 19.2732C31.0746 19.4242 31.0281 19.9121 30.9584 20.7602C30.9003 20.6208 30.8306 20.5627 30.7261 20.5627C29.9361 20.7021 29.2043 20.8182 28.5189 20.8996C28.5189 20.8996 28.7048 20.2142 29.0649 18.8318H29.0765ZM18.2963 20.3768C18.2963 20.1329 18.1569 19.8541 17.8664 19.5056C17.8664 19.5056 17.6225 19.3894 17.1346 19.1571C16.9023 19.4126 16.8326 19.7147 16.9371 20.0748C17.0997 20.2839 17.5528 20.3768 18.3079 20.3652L18.2963 20.3768ZM29.7154 19.5056C29.425 19.8424 29.2856 20.1329 29.2856 20.3768C30.0407 20.3884 30.4937 20.2955 30.6564 20.0864C30.7493 19.7263 30.6796 19.4242 30.4589 19.1687C29.971 19.401 29.7154 19.5172 29.7154 19.5172V19.5056ZM17.5412 15.4397C17.5179 15.9276 22.8151 15.9044 23.7909 15.9392C24.7784 15.9044 30.0639 15.9392 30.0407 15.4397C30.0407 15.4397 29.9594 14.0457 29.7967 11.2461C29.82 10.8976 29.6806 10.735 29.3785 10.7466C25.94 10.7234 24.0697 10.7234 23.7909 10.7466C23.5121 10.735 21.6419 10.735 18.2033 10.7466C17.9013 10.735 17.7503 10.8976 17.7851 11.2461C17.6225 14.0341 17.5412 15.4397 17.5412 15.4397Z" fill="#ED595B"/>
<path fill-rule="evenodd" clip-rule="evenodd" d="M30.97 20.76C31.0397 19.912 31.0861 19.4125 31.1094 19.2731C31.121 19.2615 31.1326 19.2615 31.1442 19.2615C31.3998 19.1337 31.5276 19.2731 31.5392 19.6913C31.574 21.2363 31.5276 22.0727 31.3998 22.1889C31.3069 22.2121 31.2372 22.2121 31.1791 22.1773C31.1442 22.154 31.0978 22.1192 31.0745 22.0727C31.0629 22.0495 31.0513 22.0263 31.0397 22.003C31.0629 21.8404 31.0745 21.6778 31.0745 21.4919C31.0745 21.1666 31.0397 20.9227 30.9816 20.7717L30.97 20.76Z" fill="#292827"/>
<path fill-rule="evenodd" clip-rule="evenodd" d="M16.4841 19.273C16.5073 19.424 16.5538 19.9119 16.6235 20.7599C16.5654 20.9109 16.5306 21.1549 16.5306 21.4801C16.5306 21.666 16.5422 21.8286 16.5654 21.9913C16.5538 22.0145 16.5422 22.0377 16.5306 22.061C16.4957 22.1074 16.4609 22.1423 16.426 22.1655C16.3679 22.2004 16.2866 22.2004 16.2053 22.1771C16.0775 22.061 16.031 21.2246 16.0659 19.6795C16.0775 19.2613 16.2053 19.1103 16.4609 19.2497C16.4725 19.2497 16.4841 19.2613 16.4957 19.2613L16.4841 19.273Z" fill="#292827"/>
<path d="M31.5274 12.6748H30.4819V12.8026H31.5274V12.6748Z" fill="#292827"/>
<path fill-rule="evenodd" clip-rule="evenodd" d="M31.9224 11.7107C31.5042 11.6758 31.2835 11.7223 31.2602 11.8268L31.2021 13.4415C31.2602 13.6971 31.388 13.8017 31.5971 13.7784C32.0385 13.8017 32.2593 13.6971 32.2593 13.4648C32.2825 12.4774 32.2941 11.9778 32.2941 11.9778C32.2012 11.7804 32.0734 11.6874 31.9108 11.7107H31.9224Z" fill="#292827"/>
<path fill-rule="evenodd" clip-rule="evenodd" d="M15.6708 11.7107C16.089 11.6758 16.3097 11.7223 16.333 11.8268L16.391 13.4415C16.333 13.6971 16.2052 13.8017 15.9961 13.7784C15.5546 13.8017 15.3339 13.6971 15.3339 13.4648C15.3107 12.4774 15.2991 11.9778 15.2991 11.9778C15.392 11.7804 15.5198 11.6874 15.6824 11.7107H15.6708Z" fill="#6D7F99"/>
<path d="M17.1112 12.6748H16.0657V12.8026H17.1112V12.6748Z" fill="#292827"/>
<path fill-rule="evenodd" clip-rule="evenodd" d="M15.6708 11.7107C16.089 11.6758 16.3097 11.7223 16.333 11.8268L16.391 13.4415C16.333 13.6971 16.2052 13.8017 15.9961 13.7784C15.5546 13.8017 15.3339 13.6971 15.3339 13.4648C15.3107 12.4774 15.2991 11.9778 15.2991 11.9778C15.392 11.7804 15.5198 11.6874 15.6824 11.7107H15.6708Z" fill="#292827"/>
<path fill-rule="evenodd" clip-rule="evenodd" d="M30.4124 14.6146C30.4124 14.6146 30.3427 13.4762 30.1917 11.2109C30.1917 11.2109 30.2614 11.2109 30.4008 11.2109C30.4588 11.7685 30.5053 12.2564 30.5402 12.6746H30.4821V12.8024H30.5518C30.6099 13.5227 30.6215 14.057 30.6099 14.3823L30.4124 14.603V14.6146Z" fill="#353043"/>
<path fill-rule="evenodd" clip-rule="evenodd" d="M31.3184 11.7565V10.0488H31.6901V11.6984C31.5158 11.6984 31.3881 11.71 31.3184 11.7565Z" fill="#940A0A"/>
<path fill-rule="evenodd" clip-rule="evenodd" d="M31.3184 13.6846C31.3881 13.7543 31.481 13.7891 31.5972 13.7775C31.632 13.7775 31.6552 13.7775 31.6901 13.7775V18.8307H31.3184V13.6846Z" fill="#940A0A"/>
<path fill-rule="evenodd" clip-rule="evenodd" d="M31.6901 10.0488H31.3184V9.375H31.8063V10.0488H31.6901Z" fill="#940A0A"/>
<path fill-rule="evenodd" clip-rule="evenodd" d="M16.2748 9.375V10.0488H15.903H15.7869V9.375H16.2748Z" fill="#940A0A"/>
<path fill-rule="evenodd" clip-rule="evenodd" d="M15.996 13.7775C16.1122 13.7891 16.2051 13.7659 16.2748 13.6846V18.8307H15.9031V13.7775C15.9263 13.7775 15.9612 13.7775 15.996 13.7775Z" fill="#940A0A"/>
<path fill-rule="evenodd" clip-rule="evenodd" d="M16.2748 11.7565C16.2051 11.7216 16.0889 11.6984 15.9031 11.6984V10.0488H16.2748V11.7565Z" fill="#940A0A"/>
<path fill-rule="evenodd" clip-rule="evenodd" d="M17.5411 15.4508C17.5411 15.4508 17.6224 14.0568 17.785 11.2572C17.7618 10.9087 17.9012 10.746 18.2032 10.7577C21.6418 10.7344 23.512 10.7344 23.7908 10.7577C24.0696 10.746 25.9399 10.746 29.3785 10.7577C29.6805 10.746 29.8315 10.9087 29.7967 11.2572C29.9593 14.0452 30.0406 15.4508 30.0406 15.4508C30.0638 15.9387 24.7666 15.9155 23.7908 15.9503C22.8034 15.9155 17.5179 15.9503 17.5411 15.4508Z" fill="#353043"/>
<path fill-rule="evenodd" clip-rule="evenodd" d="M23.7328 18.5875C23.6051 18.5875 23.4773 18.5875 23.3495 18.5875C23.303 18.5875 23.2566 18.5875 23.2101 18.5875C23.1636 18.5875 23.1172 18.5875 23.0707 18.5875C23.001 18.5875 22.9313 18.5875 22.8848 18.6108C22.8616 18.6224 22.85 18.6456 22.8384 18.6805C22.8384 18.6805 22.8384 18.6805 22.8384 18.6921C22.8384 18.7386 22.8616 18.785 22.8848 18.8315C22.9081 18.8896 22.9661 18.9477 23.0126 18.9941C23.0939 19.0754 23.2682 19.18 23.454 19.2265C23.4773 19.2381 23.5121 19.2381 23.5354 19.2497C23.5586 19.2497 23.547 19.2613 23.5354 19.2613C23.5121 19.2613 23.4773 19.2497 23.454 19.2497C23.2449 19.1916 23.1055 19.1103 23.001 19.029C22.9429 18.9825 22.8848 18.9128 22.8384 18.8431C22.8151 18.7966 22.7803 18.7153 22.7803 18.6921C22.7803 18.6572 22.7687 18.634 22.7687 18.5759C22.7687 18.4714 22.8035 18.3901 22.8616 18.2971C22.8616 18.2855 22.8732 18.2855 22.8732 18.2739V18.2623C22.8732 18.2623 22.8616 18.2623 22.85 18.2739C22.8035 18.332 22.7687 18.3668 22.7454 18.4249C22.7106 18.4946 22.699 18.5527 22.699 18.6108C22.699 18.6224 22.6873 18.634 22.6873 18.6108C22.6873 18.5411 22.699 18.4714 22.7338 18.4017C22.7687 18.332 22.8035 18.2855 22.85 18.2274C22.9081 18.1693 22.9661 18.1229 23.0358 18.0764C23.1404 18.0067 23.2449 17.9719 23.3611 17.937C23.4076 17.9254 23.454 17.9138 23.5005 17.9138C23.5121 17.9138 23.5354 17.9138 23.547 17.9138C23.5586 17.9138 23.5702 17.9254 23.547 17.9254C23.5121 17.937 23.4889 17.937 23.454 17.9486C23.3379 17.9835 23.2333 18.0183 23.1288 18.088C23.0475 18.1345 23.0126 18.1693 22.9081 18.2855C22.8964 18.2971 22.8732 18.3436 22.85 18.3784C22.8384 18.4017 22.8267 18.4365 22.8267 18.4598C22.8267 18.483 22.8384 18.5062 22.8616 18.5178C22.9081 18.5411 22.9429 18.5411 23.001 18.5527C23.0475 18.5527 23.0823 18.5527 23.1288 18.5527C23.1869 18.5527 23.2566 18.5527 23.3146 18.5527C23.454 18.5527 23.5818 18.5527 23.7212 18.5527C23.7328 18.5527 23.7444 18.5527 23.7677 18.5527C23.9071 18.5527 24.0465 18.5527 24.1859 18.5527C24.244 18.5527 24.3137 18.5527 24.3717 18.5527C24.4182 18.5527 24.4531 18.5527 24.4995 18.5527C24.5576 18.5527 24.6041 18.5527 24.6389 18.5295C24.6622 18.5178 24.6622 18.4946 24.6738 18.4714C24.6738 18.4481 24.6622 18.4133 24.6505 18.3901C24.6389 18.3552 24.6157 18.3204 24.6041 18.2971C24.5112 18.1693 24.4647 18.1461 24.3834 18.088C24.2904 18.0183 24.1743 17.9835 24.0697 17.9486C24.0349 17.937 24.0116 17.937 23.9768 17.9254C23.9535 17.9254 23.9652 17.9138 23.9768 17.9138C23.9884 17.9138 24.0116 17.9138 24.0233 17.9138C24.0697 17.9254 24.1162 17.9254 24.1626 17.9486C24.2788 17.9835 24.3834 18.0299 24.4763 18.088C24.546 18.1345 24.6041 18.181 24.6622 18.239C24.7086 18.2971 24.7435 18.332 24.7783 18.4133C24.8016 18.483 24.8248 18.5527 24.8132 18.6224C24.8132 18.6456 24.8016 18.634 24.8016 18.6224C24.8016 18.5527 24.7899 18.5062 24.7551 18.4249C24.7319 18.3668 24.7086 18.3204 24.6505 18.2739C24.6505 18.2739 24.6389 18.2623 24.6273 18.2623V18.2739C24.6273 18.2855 24.6389 18.2855 24.6389 18.2971C24.697 18.3901 24.7319 18.4714 24.7319 18.5759C24.7319 18.634 24.7319 18.6572 24.7203 18.6921C24.7203 18.7153 24.6854 18.7966 24.6622 18.8431C24.6157 18.9128 24.5576 18.9825 24.4995 19.029C24.395 19.1103 24.2556 19.1916 24.0465 19.2381C24.0233 19.2497 23.9884 19.2497 23.9536 19.2497C23.9419 19.2497 23.9303 19.2381 23.9536 19.2381C23.9768 19.2265 24.0116 19.2265 24.0349 19.2148C24.2207 19.1684 24.3834 19.0754 24.4763 18.9941C24.5228 18.9477 24.5808 18.8896 24.6041 18.8315C24.6273 18.785 24.6505 18.7386 24.6505 18.6921C24.6505 18.6572 24.6389 18.6456 24.6041 18.6224C24.5576 18.5992 24.4763 18.5992 24.4182 18.5992C24.3718 18.5992 24.3253 18.5992 24.2788 18.5992C24.2323 18.5992 24.1859 18.5992 24.1394 18.5992C24.0116 18.5992 23.8839 18.5992 23.7445 18.5992C23.7328 18.5992 23.7096 18.5992 23.698 18.5992L23.7328 18.5875ZM23.7328 18.5411C23.6399 18.5411 23.5586 18.5411 23.4657 18.5411C23.396 18.5411 23.3379 18.5411 23.2682 18.5411C23.2101 18.5411 23.152 18.5411 23.0939 18.5295C23.0358 18.5295 22.9661 18.5178 22.9545 18.5062C22.9429 18.4946 22.9545 18.4946 22.9545 18.483C22.9661 18.4714 22.9778 18.4598 23.001 18.4598C23.0126 18.4598 23.0126 18.4598 23.0242 18.4598C23.0358 18.4714 23.0358 18.4714 23.0591 18.4714C23.1172 18.483 23.152 18.4946 23.2217 18.4946C23.2798 18.4946 23.3263 18.5062 23.3843 18.5062C23.5005 18.5062 23.5818 18.5178 23.7445 18.5178C23.7561 18.5178 23.7793 18.5178 23.7909 18.5178C23.9652 18.5178 24.0349 18.5178 24.1626 18.5178C24.2207 18.5178 24.2672 18.5178 24.3253 18.5062C24.395 18.5062 24.4298 18.4946 24.4879 18.483C24.4995 18.483 24.5112 18.4714 24.5228 18.4714C24.5228 18.4714 24.5344 18.4714 24.546 18.4714C24.5576 18.4714 24.5808 18.483 24.5925 18.4946C24.6041 18.5062 24.6041 18.5062 24.5925 18.5178C24.5808 18.5295 24.4995 18.5295 24.4531 18.5411C24.395 18.5411 24.3369 18.5411 24.2788 18.5527C24.2091 18.5527 24.151 18.5527 24.0813 18.5527C23.9884 18.5527 23.8955 18.5527 23.8025 18.5527C23.7909 18.5527 23.7677 18.5527 23.7561 18.5527L23.7328 18.5411ZM23.7328 18.4946C23.547 18.4946 23.3495 18.4946 23.1752 18.4714C23.0823 18.4598 23.0591 18.4133 23.0591 18.3784C23.0475 18.2739 23.1985 18.1345 23.2914 18.0996C23.4076 18.0416 23.5005 17.9951 23.6283 17.9602C23.6399 17.9602 23.6515 17.937 23.6515 17.9254C23.6515 17.9138 23.6283 17.8905 23.6167 17.8905C23.5702 17.8789 23.5354 17.8789 23.4889 17.8905C23.4192 17.9022 23.3495 17.9138 23.2798 17.937C23.1869 17.9602 23.0939 18.0067 23.0126 18.0648C22.8964 18.1345 22.8035 18.2158 22.7338 18.332C22.6873 18.4133 22.6525 18.5062 22.6409 18.5992C22.6409 18.7037 22.6757 18.8083 22.7338 18.9012C22.7919 18.9825 22.8616 19.0638 22.9545 19.1219C23.0358 19.18 23.1172 19.2265 23.2101 19.2613C23.2914 19.2962 23.3727 19.3078 23.4424 19.3194C23.4889 19.331 23.547 19.331 23.5934 19.3194C23.6051 19.3194 23.6283 19.2962 23.6283 19.2845C23.6283 19.2729 23.6167 19.2497 23.6051 19.2497C23.5586 19.2381 23.4889 19.2148 23.4424 19.1916C23.3727 19.1568 23.303 19.1335 23.2449 19.0871C23.1869 19.0522 23.1288 19.0057 23.0823 18.9477C23.0591 18.9128 23.0358 18.878 23.0358 18.8431C23.0358 18.8199 23.0358 18.7966 23.0475 18.785C23.0823 18.7153 23.1985 18.7269 23.2798 18.7269C23.3495 18.7269 23.4308 18.7269 23.5005 18.7269C23.5702 18.7269 23.6631 18.7269 23.7445 18.7269C23.8258 18.7269 23.9071 18.7269 23.9884 18.7386C24.0581 18.7386 24.1394 18.7386 24.2091 18.7502C24.2904 18.7502 24.4066 18.7502 24.4415 18.8199C24.4531 18.8315 24.4531 18.8663 24.4531 18.878C24.4531 18.9128 24.4298 18.9477 24.4066 18.9825C24.3718 19.0406 24.3021 19.0871 24.244 19.1219C24.1859 19.1568 24.1162 19.1916 24.0465 19.2148C23.9884 19.2381 23.9187 19.2613 23.8839 19.2729C23.8722 19.2729 23.8606 19.2962 23.8606 19.3078C23.8606 19.3194 23.8839 19.3426 23.8955 19.3426C23.9419 19.3542 24 19.3542 24.0465 19.3426C24.1278 19.331 24.2091 19.3078 24.2904 19.2845C24.3834 19.2497 24.4647 19.2148 24.546 19.1568C24.6273 19.0987 24.7086 19.029 24.7667 18.936C24.8248 18.8431 24.8713 18.7386 24.8713 18.634C24.8713 18.5527 24.8364 18.4481 24.7899 18.3668C24.7202 18.2623 24.6273 18.1693 24.5228 18.0996C24.4415 18.0416 24.3369 17.9951 24.2556 17.9719C24.1859 17.9486 24.1278 17.937 24.0581 17.9254C24.0116 17.9138 23.9768 17.9138 23.9303 17.9254C23.9187 17.9254 23.8955 17.9486 23.8955 17.9602C23.8955 17.9719 23.9071 17.9951 23.9187 17.9951C24.0465 18.0299 24.151 18.0764 24.2556 18.1461C24.3369 18.1926 24.4879 18.332 24.4763 18.4365C24.4763 18.4714 24.4414 18.5178 24.3601 18.5295C24.1743 18.5527 23.9768 18.5411 23.7909 18.5411C23.7793 18.5411 23.7677 18.5411 23.7445 18.5411L23.7328 18.4946Z" fill="#D3D5D5"/>
<path d="M7.80638 25.3594H40.8093C41.8432 25.3594 42.6679 26.1842 42.6679 27.2064V41.8434C42.6679 43.1096 41.6457 44.1319 40.3911 44.1319H8.24781C6.99321 44.1319 5.97095 43.1096 5.97095 41.8434V27.2064C5.97095 26.1842 6.79573 25.3594 7.81799 25.3594H7.80638Z" fill="#E6E6E6"/>
<path d="M38.9506 29.832H9.68823V31.621H38.9506V29.832Z" fill="#B3B3B3"/>
<path d="M38.9506 33.2822H9.68823V35.0712H38.9506V33.2822Z" fill="#B3B3B3"/>
</svg>
