<svg width="29" height="29" viewBox="0 0 29 29" fill="none" xmlns="http://www.w3.org/2000/svg">
<path d="M2.99615 2.0332L17.9173 16.9546L16.9551 17.917L2.03369 2.99641L2.99615 2.0332Z" fill="#6D6E6E"/>
<path d="M3.06005 2.09783L2.21006 0.847026L0.72197 0L0.361108 0.361355L0 0.721971L0.846286 2.21031L2.09758 3.06005C2.09758 3.06005 3.8348 4.3 4.0674 4.0674C4.29951 3.83505 3.06005 2.09783 3.06005 2.09783V2.09783Z" fill="#6D6E6E"/>
<path d="M0.722216 0L0.361108 0.361355L0 0.722217L0.846285 2.21056L2.21031 0.847026L0.722216 0Z" fill="#1A1A1A"/>
<path d="M27.231 23.044C26.5448 22.3583 24.2951 20.1078 23.248 19.0609C22.2012 18.0144 21.1223 18.0104 19.1325 16.4742C17.1602 14.9514 16.4893 13.3779 16.4893 13.3779L14.9329 14.9341L13.3765 16.49C13.3765 16.49 14.9504 17.1614 16.473 19.1337C18.0092 21.123 18.0132 22.2019 19.06 23.2487C20.107 24.2958 22.3576 26.5458 23.0433 27.232C23.729 27.9177 25.3774 29.0129 27.1945 27.196C29.0114 25.3791 27.9168 23.7299 27.2308 23.0442L27.231 23.044Z" fill="#1A1A1A"/>
<path d="M26.7611 24.1364C26.1282 23.2504 19.6171 17.7073 18.6628 18.6618C17.7082 19.6167 23.2514 26.1275 24.1372 26.7609C25.036 27.4024 25.899 26.7318 26.3159 26.3149C26.733 25.8978 27.4029 25.035 26.7611 24.1364Z" fill="#6D6E6E"/>
<path d="M16.4894 13.3771L16.152 13.0396L14.7403 12.8149L14.2589 13.2964L13.2288 12.2656L12.2661 13.2283L13.2969 14.2591L12.8154 14.7401L13.0399 16.1522L13.3768 16.4889C13.3768 16.4889 13.7974 16.6697 14.412 17.1135L17.1142 14.4113C16.6704 13.7969 16.4896 13.3768 16.4896 13.3768L16.4894 13.3771Z" fill="#CCCCCC"/>
<path d="M1.85335 23.1339C2.82617 22.1608 4.4038 22.1608 5.37687 23.1339C6.34994 24.107 6.34945 25.6839 5.37687 26.6574C4.4038 27.63 2.82617 27.63 1.85335 26.6574C0.880284 25.6839 0.880284 24.107 1.85335 23.1339ZM1.30232 27.2082C2.57976 28.4857 4.65046 28.4857 5.92791 27.2082C7.39355 25.7421 7.13136 23.3631 9.63321 20.8612L19.5262 10.9685C22.0278 8.46659 24.267 8.42836 26.1687 7.55889C27.7523 6.37937 28.2774 3.09881 27.33 2.0769L25.4704 5.36165C23.9542 5.2773 22.9915 4.64881 22.0271 3.44635L23.8469 0.0636724C22.8623 -0.0983824 21.2896 0.416394 19.9376 2.63731C19.1863 4.73563 20.0444 6.48198 17.5426 8.98433L7.64983 18.8771C5.14748 21.3789 2.7687 21.1162 1.30281 22.5824C0.0253652 23.8598 0.0253652 25.9305 1.30281 27.208L1.30232 27.2082Z" fill="#6D6E6E"/>
<path d="M7.73865 19.995C7.57931 19.8359 7.57931 19.5784 7.73865 19.4195L18.0845 9.07342C18.2436 8.91433 18.5014 8.91433 18.66 9.07342L19.4369 9.8499C19.5955 10.009 19.5955 10.2665 19.4369 10.4251L9.09083 20.7715C8.93174 20.9306 8.67422 20.9306 8.51562 20.7715L7.73865 19.995V19.995Z" fill="#CCCCCC"/>
<path d="M1.37704 24.9835C1.37457 24.9253 1.37457 24.8676 1.37704 24.8101L1.8156 24.4145L1.63208 23.8492C1.65823 23.7993 1.68832 23.7507 1.71891 23.7029L2.29757 23.5793L2.42065 23.0004C2.469 22.9701 2.51783 22.9397 2.56717 22.9136L3.13275 23.0971L3.52839 22.6585C3.58587 22.6561 3.64408 22.6561 3.7018 22.6585L4.09744 23.0971L4.66228 22.9136C4.7126 22.9397 4.7607 22.9698 4.8088 23.0004L4.93238 23.5793L5.51128 23.7029C5.54138 23.7507 5.57122 23.7993 5.59786 23.8492L5.41435 24.4145L5.85315 24.8101C5.85562 24.8676 5.85562 24.9253 5.85315 24.9835L5.41435 25.3787L5.59786 25.944C5.57122 25.9941 5.54162 26.0424 5.51128 26.0905L4.93238 26.2136L4.8088 26.793C4.76046 26.8231 4.71236 26.853 4.66228 26.8791L4.09744 26.6961L3.7018 27.1344C3.64408 27.1371 3.58587 27.1371 3.52839 27.1344L3.13275 26.6961L2.56717 26.8791C2.51759 26.853 2.46875 26.8234 2.42065 26.793L2.29757 26.2136L1.71891 26.0905C1.68857 26.0422 1.65823 25.9938 1.63208 25.944L1.8156 25.3787L1.37704 24.9835ZM5.37685 26.6586C6.34943 25.685 6.34943 24.1081 5.37685 23.1351C4.40379 22.162 2.82616 22.162 1.85334 23.1351C0.880268 24.1081 0.880268 25.685 1.85334 26.6586C2.82616 27.6312 4.40379 27.6312 5.37685 26.6586Z" fill="#1A1A1A"/>
<path d="M2.85693 12.9407V14.6745C2.85693 14.8311 2.96966 14.9663 3.12628 14.9907L5.05244 15.2975C5.15678 15.8996 5.30995 16.4807 5.52282 17.034L4.00291 18.2665C3.88229 18.3605 3.84998 18.5349 3.92645 18.6706L4.79493 20.174C4.87534 20.3099 5.03641 20.3688 5.18095 20.3136L7.01042 19.6103C7.39249 20.0765 7.81872 20.5013 8.2812 20.8838L7.58143 22.7086C7.5252 22.8549 7.58563 23.0184 7.72228 23.0986L9.22591 23.9653C9.35861 24.0423 9.53152 24.0142 9.62796 23.8884L10.8585 22.3742C11.4135 22.5831 11.9964 22.7402 12.5955 22.8376L12.9051 24.7658C12.9253 24.9226 13.0619 25.0378 13.2188 25.0378H14.9558C15.1127 25.0378 15.2454 24.9229 15.2653 24.7658L15.5751 22.8376C16.1743 22.7402 16.7532 22.5831 17.3121 22.3742L18.5385 23.8884C18.6428 24.0139 18.8121 24.0421 18.9445 23.9653L20.4523 23.0986C20.585 23.0184 20.6413 22.8549 20.589 22.7086L19.8895 20.8838C20.3519 20.5013 20.7782 20.0765 21.1602 19.6103L22.9858 20.3136C23.1345 20.3691 23.2953 20.3101 23.3718 20.174L24.2442 18.6706C24.3207 18.5349 24.2886 18.3605 24.1678 18.2665L22.6478 17.034C22.857 16.4807 23.0136 15.8994 23.1143 15.2975L25.0483 14.9907C25.201 14.9663 25.3137 14.8308 25.3137 14.6745V12.9407C25.3137 12.7838 25.201 12.6514 25.0483 12.6269L23.1143 12.3211C23.0136 11.7224 22.8568 11.1408 22.6478 10.5836L24.1678 9.35526C24.2884 9.25388 24.3204 9.08024 24.2442 8.94433L23.3718 7.4439C23.2951 7.3112 23.1345 7.24855 22.9858 7.30824L21.1602 8.00456C20.7782 7.54133 20.3519 7.11313 19.8895 6.73352L20.589 4.90948C20.6413 4.76321 20.585 4.59598 20.4523 4.51951L18.9445 3.65251C18.8121 3.57234 18.6431 3.60712 18.5385 3.72577L17.3121 5.24666C16.7532 5.03454 16.1743 4.88136 15.5751 4.78048L15.2653 2.8484C15.2454 2.69547 15.1127 2.58398 14.9558 2.58398H13.2188C13.0619 2.58398 12.9253 2.69547 12.9051 2.8484L12.5955 4.78048C11.9964 4.88136 11.4133 5.03454 10.8585 5.24666L9.62796 3.72577C9.53152 3.60688 9.35861 3.57234 9.22591 3.65251L7.72228 4.51951C7.58563 4.59598 7.52495 4.76321 7.58143 4.90948L8.2812 6.73352C7.81872 7.11313 7.39249 7.54133 7.01042 8.00456L5.18095 7.30824C5.03616 7.24855 4.87534 7.3112 4.79493 7.4439L3.92645 8.94433C3.84973 9.07999 3.88205 9.25388 4.00291 9.35526L5.52282 10.5836C5.30971 11.1408 5.15678 11.7224 5.05244 12.3211L3.12628 12.6269C2.96941 12.6514 2.85693 12.7838 2.85693 12.9407V12.9407Z" fill="#FB0000"/>
<path d="M9.50977 13.8091C9.50977 16.3354 11.5578 18.3832 14.0853 18.3832C16.6106 18.3832 18.6564 16.3352 18.6564 13.8091C18.6564 11.2831 16.6106 9.23535 14.0853 9.23535C11.5578 9.23535 9.50977 11.2834 9.50977 13.8091Z" fill="white"/>
<path d="M14.0876 25.0378H13.2191C13.0622 25.0378 12.9255 24.9229 12.9053 24.7658L12.5958 22.8376C11.9966 22.7402 11.4135 22.5831 10.8588 22.3742L9.62821 23.8884C9.56778 23.9673 9.47948 24.0075 9.38304 24.0075C9.33074 24.0075 9.27426 23.9937 9.22616 23.9653L7.72253 23.0986C7.61795 23.0384 7.56146 22.9311 7.56146 22.8196C7.56146 22.7829 7.56935 22.7449 7.58144 22.7086L8.28121 20.8838C7.81872 20.5013 7.3925 20.0765 7.01043 19.6103L5.18096 20.3136C5.1447 20.3276 5.10869 20.334 5.07218 20.334C4.96365 20.334 4.85512 20.2758 4.79469 20.174L3.9262 18.6706C3.89784 18.6203 3.88181 18.5657 3.88181 18.511C3.88575 18.4177 3.9262 18.326 4.00242 18.2665L5.52233 17.034C5.30922 16.4807 5.15629 15.8994 5.05195 15.2975L3.1258 14.9907C2.96892 14.9663 2.85645 14.8308 2.85645 14.6745V12.9407C2.85645 12.7838 2.96917 12.6514 3.1258 12.6269L5.05195 12.3211C5.15629 11.7224 5.30947 11.1408 5.52233 10.5836L4.00242 9.35526C3.92596 9.29088 3.88575 9.19814 3.88181 9.10391C3.88181 9.04916 3.89784 8.99415 3.9262 8.94433L4.79469 7.4439C4.85512 7.34548 4.9597 7.28555 5.06823 7.28555C5.10844 7.28555 5.1447 7.29295 5.18096 7.30824L7.01043 8.00456C7.3925 7.54133 7.81872 7.11313 8.28121 6.73352L7.58144 4.90948C7.56935 4.87298 7.56146 4.83524 7.56146 4.79725C7.56146 4.68527 7.6177 4.57699 7.72253 4.51952L9.22616 3.65251C9.2745 3.62316 9.33074 3.60959 9.38304 3.60959C9.47553 3.60959 9.56778 3.65078 9.62821 3.72577L10.8588 5.24667C11.4138 5.03454 11.9966 4.88136 12.5958 4.78048L12.9053 2.8484C12.9255 2.69547 13.0622 2.58398 13.2191 2.58398H14.0876V6.02438C9.78509 6.02438 6.29906 9.51016 6.29906 13.8099C6.29906 18.1099 9.78509 21.5957 14.0876 21.5957V25.0381V25.0378Z" fill="#ED595B"/>
</svg>
