<svg width="25" height="23" viewBox="0 0 25 23" fill="none" xmlns="http://www.w3.org/2000/svg">
<path d="M12.1128 4.26469C13.2905 4.26469 14.2452 3.31001 14.2452 2.13235C14.2452 0.954684 13.2905 0 12.1128 0C10.9352 0 9.98047 0.954684 9.98047 2.13235C9.98047 3.31001 10.9352 4.26469 12.1128 4.26469Z" fill="white"/>
<path fill-rule="evenodd" clip-rule="evenodd" d="M15.5706 2.91504C15.2116 4.49819 13.8003 5.68556 12.1128 5.68556C10.4254 5.68556 9.01403 4.49819 8.65506 2.91504C7.38485 3.19731 6.43066 4.32945 6.43066 5.68556V8.52664C6.43066 9.30901 7.06883 9.94718 7.85121 9.94718C8.63358 9.94718 9.27175 9.30901 9.27175 8.52664V7.1061H14.9539V8.52664C14.9539 9.30901 15.5921 9.94718 16.3745 9.94718C17.1568 9.94718 17.795 9.30901 17.795 8.52664V5.68556C17.795 4.32945 16.8408 3.20037 15.5706 2.91504Z" fill="white"/>
<path fill-rule="evenodd" clip-rule="evenodd" d="M23.1212 17.3623C22.1025 16.7733 20.7986 17.123 20.2095 18.1416C19.6204 19.1603 19.9702 20.4642 20.9888 21.0533C22.0074 21.6424 23.3574 21.2926 23.9465 20.274C24.5356 19.2554 24.1398 17.9514 23.1181 17.3623H23.1212Z" fill="white"/>
<path fill-rule="evenodd" clip-rule="evenodd" d="M21.8199 12.5087L19.3593 11.0882C18.6812 10.6954 17.8099 10.9286 17.4172 11.6098C17.0245 12.2878 17.2576 13.1592 17.9388 13.5519L19.1691 14.2637L16.328 19.185L15.0977 18.4731C14.4196 18.0804 13.5483 18.3136 13.1556 18.9947C12.7628 19.6728 12.996 20.5441 13.6771 20.9369L16.1378 22.3574C17.3098 23.0354 18.7672 22.7747 19.6477 21.8143C18.4573 20.7129 18.1351 18.8965 18.9789 17.4331C19.8226 15.9696 21.5561 15.3406 23.1055 15.8223C23.4951 14.5797 22.992 13.1898 21.8199 12.5118V12.5087Z" fill="white"/>
<path fill-rule="evenodd" clip-rule="evenodd" d="M4.0128 18.1416C3.42372 17.123 2.11976 16.7733 1.10115 17.3623C0.0825284 17.9514 -0.31326 19.2554 0.272752 20.274C0.861832 21.2926 2.21181 21.6424 3.23043 21.0533C4.24904 20.4642 4.59881 19.1603 4.00973 18.1416H4.0128Z" fill="white"/>
<path fill-rule="evenodd" clip-rule="evenodd" d="M11.0662 18.9917C10.6735 18.3137 9.80523 18.0805 9.12411 18.4701L7.89379 19.1819L5.0527 14.2607L6.28302 13.5489C6.96108 13.1561 7.19425 12.2879 6.8046 11.6067C6.41188 10.9287 5.5436 10.6955 4.86248 11.0852L2.40184 12.5057C1.22982 13.1838 0.726645 14.5767 1.1163 15.8162C2.6657 15.3345 4.39919 15.9635 5.24293 17.427C6.08666 18.8905 5.76451 20.7068 4.57407 21.8083C5.45463 22.7655 6.91199 23.0263 8.08401 22.3513L10.5446 20.9308C11.2227 20.5381 11.4559 19.6698 11.0662 18.9887V18.9917Z" fill="white"/>
</svg>
