<svg width="48" height="48" viewBox="0 0 48 48" fill="none" xmlns="http://www.w3.org/2000/svg">
<g clip-path="url(#clip0)">
<path d="M23.9998 47.9996C37.2545 47.9996 47.9996 37.2545 47.9996 23.9998C47.9996 10.7451 37.2545 0 23.9998 0C10.7451 0 0 10.7451 0 23.9998C0 37.2545 10.7451 47.9996 23.9998 47.9996Z" fill="#C80000"/>
<path d="M15.3 28.3191C14.1592 27.039 13.2361 25.5412 12.5917 23.8866L9.59611 24.1218C9.04749 24.1653 8.56854 23.7821 8.48146 23.2422L7.8893 19.4803C7.80222 18.9404 8.15055 18.4266 8.68175 18.296L11.599 17.5993C11.7035 15.8316 12.1215 14.1248 12.8181 12.5486L10.5366 10.5979C10.1186 10.2409 10.0489 9.63132 10.3711 9.18721L12.6091 6.10451C12.9313 5.66039 13.5409 5.53847 14.0025 5.82584L16.5627 7.40203C17.8515 6.26125 19.3406 5.33818 20.9951 4.69378L20.76 1.69816C20.7165 1.14954 21.0996 0.670593 21.6395 0.583511L25.4015 -0.00864616C25.9414 -0.0957281 26.4552 0.2526 26.5858 0.783799L27.2824 3.70104C29.0502 3.80554 30.757 4.22354 32.3332 4.92019L34.2838 2.63864C34.6409 2.22065 35.2504 2.15099 35.6946 2.47319L38.7773 4.71119C39.2214 5.0334 39.3433 5.64297 39.0559 6.10451L37.4797 8.66471C38.6205 9.95353 39.5436 11.4426 40.188 13.0972L43.1836 12.8621C43.7322 12.8185 44.2112 13.2017 44.2983 13.7416L44.8904 17.5035C44.9775 18.0434 44.6292 18.5572 44.098 18.6878L41.1807 19.3845C41.0762 21.1 40.7714 22.5369 40.1183 24.0695C40.1183 24.0695 34.4754 32.4729 26.8296 32.4729C19.1751 32.4729 15.3348 28.3191 15.3348 28.3191H15.3Z" fill="black"/>
<path d="M34.2055 18.5049C34.2055 22.8328 30.6961 26.3422 26.3681 26.3422C22.0402 26.3422 18.5308 22.8328 18.5308 18.5049C18.5308 14.1769 22.0402 10.6675 26.3681 10.6675C30.6961 10.6675 34.2055 14.1769 34.2055 18.5049Z" fill="white"/>
<path d="M43.8718 22.8067C42.9139 22.0578 41.5293 22.2232 40.7804 23.1811L38.7775 25.7413C37.0011 28.0055 34.7805 29.869 32.2464 31.2188C31.8981 31.4104 31.5149 31.5323 31.123 31.6019C31.123 30.3828 30.139 29.3988 28.9199 29.3988H26.6645C24.7835 29.3988 22.9199 29.0766 21.1522 28.4322C19.1057 27.692 16.1537 26.9169 13.576 29.033C12.383 30.0171 11.6864 31.2362 11.2858 32.2202C10.7459 33.5352 9.97956 34.7369 8.97811 35.7383L8.88232 35.8341L15.6486 42.6004L16.9287 41.3203C17.8605 40.3885 19.1928 39.9792 20.4816 40.2318C23.0854 40.7368 27.5266 41.477 29.782 41.1722C33.7703 40.6236 44.2724 25.9068 44.2724 25.9068C45.0213 24.9489 44.8559 23.5643 43.898 22.8154L43.8718 22.8067Z" fill="white"/>
<path d="M3.45703 38.9172L12.531 47.9998L16.7806 43.7502L7.69792 34.6763L3.45703 38.9172Z" fill="#B3B3B3"/>
</g>
<defs>
<clipPath id="clip0">
<rect width="47.9996" height="48" fill="white"/>
</clipPath>
</defs>
</svg>
