<svg width="49" height="49" viewBox="0 0 49 49" fill="none" xmlns="http://www.w3.org/2000/svg">
<path d="M24.0017 48.0033C37.2574 48.0033 48.0033 37.2574 48.0033 24.0017C48.0033 10.7459 37.2574 0 24.0017 0C10.7459 0 0 10.7459 0 24.0017C0 37.2574 10.7459 48.0033 24.0017 48.0033Z" fill="#E28057"/>
<path fill-rule="evenodd" clip-rule="evenodd" d="M13.4198 14.3925H22.1031L23.0291 17.5956L22.1031 20.7987H13.4198C11.654 20.7987 10.2167 22.2359 10.2167 24.0018C10.2167 25.7676 11.654 27.2049 13.4198 27.2049H22.1031L22.8864 30.408L22.1031 33.6111H13.4198C8.12228 33.6111 3.81055 29.2994 3.81055 24.0018C3.81055 23.9188 3.81055 23.8358 3.81387 23.7529C3.81719 23.6699 3.8205 23.5869 3.82382 23.5072C3.82714 23.4242 3.83378 23.3446 3.84042 23.2616C3.84706 23.1819 3.8537 23.099 3.86366 23.0193C3.87029 22.9396 3.88025 22.86 3.89021 22.777C3.90017 22.6973 3.91013 22.6177 3.9234 22.538C3.93668 22.4583 3.94996 22.3787 3.96323 22.299C3.97651 22.2193 3.99311 22.143 4.0097 22.0633C4.0263 21.9837 4.0429 21.9073 4.05949 21.831C4.07609 21.7546 4.096 21.6783 4.11592 21.5986C4.13584 21.5223 4.15575 21.446 4.17899 21.3696C4.1989 21.2933 4.22214 21.2169 4.24537 21.1439C4.26861 21.0676 4.29184 20.9945 4.3184 20.9182C4.34495 20.8452 4.36818 20.7688 4.39806 20.6958C4.42461 20.6228 4.45449 20.5498 4.48104 20.4767C4.51091 20.4037 4.54079 20.3307 4.57066 20.261C4.60053 20.188 4.63373 20.1182 4.6636 20.0452C4.69679 19.9755 4.72999 19.9025 4.76318 19.8328C4.79637 19.7631 4.83288 19.6934 4.86608 19.6237C4.90259 19.554 4.9391 19.4876 4.97561 19.4179C5.01212 19.3515 5.05195 19.2818 5.08847 19.2154C5.1283 19.149 5.16481 19.0826 5.20796 19.0163C5.24779 18.9499 5.28762 18.8835 5.33077 18.8204C5.37392 18.754 5.41376 18.691 5.45691 18.6279C5.50006 18.5648 5.54321 18.5018 5.58968 18.4387C5.63283 18.3756 5.6793 18.3126 5.72577 18.2528C5.77224 18.1898 5.81871 18.13 5.86518 18.0703C5.91165 18.0105 5.96144 17.9508 6.01122 17.891C6.06101 17.8313 6.1108 17.7715 6.16059 17.7151C6.21038 17.6553 6.26349 17.5989 6.31328 17.5425C6.36639 17.4861 6.41618 17.4296 6.46928 17.3732C6.52239 17.3168 6.5755 17.2637 6.63193 17.2072C6.68504 17.1541 6.74146 17.0977 6.79789 17.0446C6.85432 16.9915 6.91075 16.9384 6.96718 16.8886C7.0236 16.8355 7.08003 16.7857 7.13978 16.7359C7.19952 16.6861 7.25595 16.6363 7.3157 16.5865C7.37545 16.5368 7.43519 16.4903 7.49494 16.4405C7.55469 16.394 7.61775 16.3476 7.6775 16.3011C7.74057 16.2546 7.80031 16.2081 7.86338 16.165C7.92645 16.1218 7.98951 16.0754 8.05258 16.0322C8.11564 15.9891 8.18203 15.9459 8.2451 15.9061C8.31148 15.8629 8.37455 15.8231 8.44093 15.7833C8.50732 15.7434 8.5737 15.7036 8.64009 15.6638C8.70647 15.624 8.77618 15.5874 8.84256 15.5509C8.91227 15.5144 8.97865 15.4779 9.04836 15.4414C9.11806 15.4049 9.18777 15.3717 9.25747 15.3385C9.32718 15.3053 9.39688 15.2721 9.46991 15.2389C9.53961 15.2057 9.61264 15.1759 9.68566 15.146C9.75868 15.1161 9.82839 15.0862 9.90141 15.0564C9.97444 15.0265 10.0475 14.9999 10.1205 14.9734C10.1935 14.9468 10.2665 14.9203 10.3429 14.8937C10.4159 14.8672 10.4922 14.8439 10.5686 14.8207C10.6449 14.7975 10.718 14.7742 10.7943 14.7543C10.8706 14.7311 10.947 14.7112 11.0233 14.6912C11.0997 14.6713 11.176 14.6514 11.2557 14.6348C11.332 14.6182 11.4117 14.5983 11.488 14.585C11.5677 14.5684 11.644 14.5551 11.7237 14.5386C11.8034 14.5253 11.883 14.512 11.9627 14.4987C12.0423 14.4854 12.122 14.4755 12.2017 14.4655C12.2813 14.4556 12.361 14.4456 12.444 14.439C12.5236 14.4323 12.6066 14.4224 12.6863 14.4157C12.7659 14.4091 12.8489 14.4058 12.9319 14.3991C13.0149 14.3958 13.0946 14.3925 13.1775 14.3892C13.2605 14.3859 13.3435 14.3859 13.4265 14.3859L13.4198 14.3925Z" fill="black"/>
<path fill-rule="evenodd" clip-rule="evenodd" d="M17.6918 33.6113V27.2051H23.0292V33.6113H17.6918Z" fill="#F2F2FC"/>
<path fill-rule="evenodd" clip-rule="evenodd" d="M17.6918 20.7987V14.3925H23.0292V20.7987H17.6918Z" fill="#DFE7F4"/>
<path d="M44.1895 24.0018C44.1895 29.306 39.8877 33.6077 34.5869 33.6077C29.2661 33.6077 24.9742 29.306 24.9742 24.0018C24.9742 18.6976 29.2661 14.3892 34.5869 14.3892C39.8877 14.3892 44.1895 18.6976 44.1895 24.0018Z" fill="#B3B3B3"/>
<path d="M29.3756 32.0743C29.8901 29.6679 32.031 27.8622 34.5902 27.8622C36.054 27.8622 37.385 28.463 38.3509 29.4222C39.0679 30.1359 39.5757 31.052 39.7948 32.0743C38.2945 33.0436 36.5087 33.6078 34.5902 33.6078C32.6683 33.6078 30.8792 33.0436 29.3756 32.0743Z" fill="white"/>
<path d="M38.6098 21.0575V23.308C38.6098 25.5319 36.8008 27.3276 34.5902 27.3276C32.3663 27.3276 30.5706 25.5319 30.5706 23.308V20.9679C30.6137 18.7871 32.3995 17.0345 34.5902 17.0345C35.6922 17.0345 36.6979 17.4826 37.4282 18.2096C38.1551 18.9398 38.6132 19.9422 38.6132 21.0542L38.6098 21.0575Z" fill="white"/>
<path d="M38.6099 21.0575V21.1604C34.9819 21.3928 32.6883 19.0825 32.6883 19.0825C31.7954 20.5762 31.2245 20.7654 30.5673 20.9679C30.6104 18.7871 32.3962 17.0345 34.5869 17.0345C35.6889 17.0345 36.6946 17.4826 37.4249 18.2096C38.1518 18.9398 38.6099 19.9422 38.6099 21.0542V21.0575Z" fill="black"/>
</svg>
