<svg width="17" height="16" viewBox="0 0 17 16" fill="none" xmlns="http://www.w3.org/2000/svg">
<path d="M5.63142 5.05261H1.84195L1.4209 6.73682L2.263 9.68419L3.10511 12.6316L5.63142 14.3158L8.57879 15.1579L12.3683 13.8947L14.4735 11.7895L14.8946 7.99998V5.05261H11.1051L11.5262 7.57893L10.263 10.5263H7.31564L6.05248 8.84209L5.63142 5.05261Z" fill="#C80000" stroke="black"/>
<rect x="1.84229" y="0.842102" width="4.21053" height="4.21053" fill="#F8F8F8"/>
<rect x="11.1055" y="0.842102" width="4.21053" height="4.21053" fill="#F8F8F8"/>
<path d="M14.4737 0H11.9474C11.0185 0 10.2632 0.755368 10.2632 1.68421V4.21053V5.05263V8.42105C10.2632 9.34989 9.50779 10.1053 8.57895 10.1053C7.65011 10.1053 6.89474 9.34989 6.89474 8.42105V5.05263V2.52632V1.68421C6.89474 0.755368 6.13937 0 5.21053 0H2.68421C1.75537 0 1 0.755368 1 1.68421V5.05263V8.42105C1 12.6004 4.39958 16 8.57895 16C12.7583 16 16.1579 12.6004 16.1579 8.42105V5.05263V1.68421C16.1579 0.755368 15.4025 0 14.4737 0ZM11.9474 1.68421H14.4737V4.21053H11.9474V1.68421ZM2.68421 1.68421H5.21053V2.52632V4.21053H2.68421V1.68421ZM8.57895 14.3158C5.32926 14.3158 2.68421 11.6707 2.68421 8.42105V5.89474H5.21053V8.42105C5.21053 10.2787 6.72126 11.7895 8.57895 11.7895C10.4366 11.7895 11.9474 10.2787 11.9474 8.42105V5.89474H14.4737V8.42105C14.4737 11.6707 11.8286 14.3158 8.57895 14.3158Z" fill="black"/>
</svg>
