<svg width="49" height="49" viewBox="0 0 49 49" fill="none" xmlns="http://www.w3.org/2000/svg">
<path d="M24.0017 48.0033C37.2574 48.0033 48.0033 37.2574 48.0033 24.0017C48.0033 10.7459 37.2574 0 24.0017 0C10.7459 0 0 10.7459 0 24.0017C0 37.2574 10.7459 48.0033 24.0017 48.0033Z" fill="#322C2B"/>
<path fill-rule="evenodd" clip-rule="evenodd" d="M13.4198 14.3924H22.1031L23.0291 17.5955L22.1031 20.7986H13.4198C11.654 20.7986 10.2167 22.2359 10.2167 24.0017C10.2167 25.7676 11.654 27.2048 13.4198 27.2048H22.1031L22.8864 30.4079L22.1031 33.611H13.4198C8.12228 33.611 3.81055 29.2993 3.81055 24.0017C3.81055 23.9188 3.81055 23.8358 3.81387 23.7528C3.81719 23.6698 3.8205 23.5868 3.82382 23.5072C3.82714 23.4242 3.83378 23.3445 3.84042 23.2615C3.84706 23.1819 3.8537 23.0989 3.86366 23.0192C3.87029 22.9396 3.88025 22.8599 3.89021 22.7769C3.90017 22.6973 3.91013 22.6176 3.9234 22.5379C3.93668 22.4583 3.94996 22.3786 3.96323 22.2989C3.97651 22.2193 3.99311 22.1429 4.0097 22.0633C4.0263 21.9836 4.0429 21.9073 4.05949 21.8309C4.07609 21.7546 4.096 21.6782 4.11592 21.5986C4.13584 21.5222 4.15575 21.4459 4.17899 21.3696C4.1989 21.2932 4.22214 21.2169 4.24537 21.1438C4.26861 21.0675 4.29184 20.9945 4.3184 20.9181C4.34495 20.8451 4.36818 20.7688 4.39806 20.6957C4.42461 20.6227 4.45449 20.5497 4.48104 20.4767C4.51091 20.4036 4.54079 20.3306 4.57066 20.2609C4.60053 20.1879 4.63373 20.1182 4.6636 20.0452C4.69679 19.9755 4.72999 19.9024 4.76318 19.8327C4.79637 19.763 4.83288 19.6933 4.86608 19.6236C4.90259 19.5539 4.9391 19.4875 4.97561 19.4178C5.01212 19.3514 5.05195 19.2817 5.08847 19.2153C5.1283 19.149 5.16481 19.0826 5.20796 19.0162C5.24779 18.9498 5.28762 18.8834 5.33077 18.8204C5.37392 18.754 5.41376 18.6909 5.45691 18.6278C5.50006 18.5648 5.54321 18.5017 5.58968 18.4386C5.63283 18.3756 5.6793 18.3125 5.72577 18.2528C5.77224 18.1897 5.81871 18.1299 5.86518 18.0702C5.91165 18.0104 5.96144 17.9507 6.01122 17.891C6.06101 17.8312 6.1108 17.7715 6.16059 17.715C6.21038 17.6553 6.26349 17.5989 6.31328 17.5424C6.36639 17.486 6.41618 17.4296 6.46928 17.3731C6.52239 17.3167 6.5755 17.2636 6.63193 17.2072C6.68504 17.1541 6.74146 17.0976 6.79789 17.0445C6.85432 16.9914 6.91075 16.9383 6.96718 16.8885C7.0236 16.8354 7.08003 16.7856 7.13978 16.7358C7.19952 16.6861 7.25595 16.6363 7.3157 16.5865C7.37545 16.5367 7.43519 16.4902 7.49494 16.4404C7.55469 16.394 7.61775 16.3475 7.6775 16.301C7.74057 16.2546 7.80031 16.2081 7.86338 16.1649C7.92645 16.1218 7.98951 16.0753 8.05258 16.0322C8.11564 15.989 8.18203 15.9459 8.2451 15.906C8.31148 15.8629 8.37455 15.823 8.44093 15.7832C8.50732 15.7434 8.5737 15.7036 8.64009 15.6637C8.70647 15.6239 8.77618 15.5874 8.84256 15.5509C8.91227 15.5144 8.97865 15.4778 9.04836 15.4413C9.11806 15.4048 9.18777 15.3716 9.25747 15.3384C9.32718 15.3052 9.39688 15.272 9.46991 15.2389C9.53961 15.2057 9.61264 15.1758 9.68566 15.1459C9.75868 15.116 9.82839 15.0862 9.90141 15.0563C9.97444 15.0264 10.0475 14.9999 10.1205 14.9733C10.1935 14.9468 10.2665 14.9202 10.3429 14.8937C10.4159 14.8671 10.4922 14.8439 10.5686 14.8206C10.6449 14.7974 10.718 14.7742 10.7943 14.7542C10.8706 14.731 10.947 14.7111 11.0233 14.6912C11.0997 14.6713 11.176 14.6513 11.2557 14.6347C11.332 14.6182 11.4117 14.5982 11.488 14.585C11.5677 14.5684 11.644 14.5551 11.7237 14.5385C11.8034 14.5252 11.883 14.5119 11.9627 14.4987C12.0423 14.4854 12.122 14.4754 12.2017 14.4655C12.2813 14.4555 12.361 14.4456 12.444 14.4389C12.5236 14.4323 12.6066 14.4223 12.6863 14.4157C12.7659 14.409 12.8489 14.4057 12.9319 14.3991C13.0149 14.3958 13.0946 14.3924 13.1775 14.3891C13.2605 14.3858 13.3435 14.3858 13.4265 14.3858L13.4198 14.3924Z" fill="black"/>
<path fill-rule="evenodd" clip-rule="evenodd" d="M17.6919 33.6111V27.205H23.0293V33.6111H17.6919Z" fill="#F2F2FC"/>
<path fill-rule="evenodd" clip-rule="evenodd" d="M17.6919 20.7986V14.3924H23.0293V20.7986H17.6919Z" fill="#DFE7F4"/>
<path d="M44.1894 24.0017C44.1894 29.3059 39.8876 33.6077 34.5867 33.6077C29.2659 33.6077 24.9741 29.3059 24.9741 24.0017C24.9741 18.6975 29.2659 14.3891 34.5867 14.3891C39.8876 14.3891 44.1894 18.6975 44.1894 24.0017Z" fill="#B3B3B3"/>
<path d="M29.3755 32.0743C29.89 29.6678 32.0309 27.8621 34.5901 27.8621C36.0539 27.8621 37.3849 28.4629 38.3508 29.4222C39.0678 30.1358 39.5756 31.0519 39.7947 32.0743C38.2944 33.0435 36.5086 33.6078 34.5901 33.6078C32.6682 33.6078 30.8791 33.0435 29.3755 32.0743Z" fill="white"/>
<path d="M38.6096 21.0574V23.3079C38.6096 25.5318 36.8006 27.3275 34.59 27.3275C32.366 27.3275 30.5703 25.5318 30.5703 23.3079V20.9678C30.6135 18.7871 32.3992 17.0345 34.59 17.0345C35.692 17.0345 36.6977 17.4826 37.4279 18.2095C38.1549 18.9397 38.6129 19.9422 38.6129 21.0541L38.6096 21.0574Z" fill="white"/>
<path d="M38.6097 21.0574V21.1603C34.9818 21.3927 32.6882 19.0825 32.6882 19.0825C31.7953 20.5762 31.2244 20.7653 30.5671 20.9678C30.6103 18.7871 32.3961 17.0345 34.5868 17.0345C35.6888 17.0345 36.6945 17.4826 37.4248 18.2095C38.1517 18.9397 38.6097 19.9422 38.6097 21.0541V21.0574Z" fill="black"/>
</svg>
