<svg width="38" height="32" viewBox="0 0 38 32" fill="none" xmlns="http://www.w3.org/2000/svg">
<path d="M32.2068 11.913L24.6784 31.1683H13.321L9.21403 20.6581L6.45512 13.6038L5.79443 11.913L9.90328 7.8042H28.0961L32.2068 11.913Z" fill="#FB0000"/>
<path d="M15.9213 25.4901L15.708 24.9608L25.0719 21.1509L25.2871 21.6783L15.9213 25.4901Z" fill="#353043"/>
<path d="M24.246 14.1782L13.6255 11.8591L13.7492 11.3013L24.3679 13.6223L24.246 14.1782Z" fill="#353043"/>
<path d="M13.2593 24.0138L10.3442 14.3415L10.8888 14.1777L13.8057 23.8482L13.2593 24.0138Z" fill="#353043"/>
<path d="M27.7613 17.8123C27.7613 20.2513 25.785 22.2296 23.3441 22.2296C20.9031 22.2296 18.9268 20.2513 18.9268 17.8123C18.9268 15.3733 20.9031 13.395 23.3441 13.395C25.7831 13.395 27.7613 15.3733 27.7613 17.8123Z" fill="#6D6E6E"/>
<path d="M15.9317 13.9617C15.9317 15.5325 14.6561 16.8082 13.0853 16.8082C11.5125 16.8082 10.2388 15.5344 10.2388 13.9617C10.2388 12.389 11.5125 11.1152 13.0853 11.1152C14.6561 11.1152 15.9317 12.389 15.9317 13.9617Z" fill="#6D6E6E"/>
<path d="M17.7336 23.3199C17.7336 24.6032 16.6921 25.6428 15.4088 25.6428C14.1255 25.6428 13.084 24.6032 13.084 23.3199C13.084 22.0366 14.1236 20.9951 15.4088 20.9951C16.6902 20.9951 17.7336 22.0347 17.7336 23.3199Z" fill="#6D6E6E"/>
<path d="M23.3419 19.2477C22.5498 19.2477 21.9062 18.6041 21.9062 17.812C21.9062 17.02 22.5498 16.3745 23.3419 16.3745C24.1339 16.3745 24.7756 17.0181 24.7756 17.812C24.7756 18.6041 24.1339 19.2477 23.3419 19.2477Z" fill="#FEFEFE"/>
<path d="M13.085 14.8297C12.6052 14.8297 12.2168 14.4413 12.2168 13.9615C12.2168 13.4817 12.6052 13.0933 13.085 13.0933C13.5629 13.0933 13.9532 13.4836 13.9532 13.9615C13.9532 14.4394 13.5629 14.8297 13.085 14.8297Z" fill="#FEFEFE"/>
<path d="M15.4073 24.0367C15.0112 24.0367 14.6895 23.715 14.6895 23.3208C14.6895 22.9248 15.0112 22.603 15.4073 22.603C15.8014 22.603 16.1232 22.9248 16.1232 23.3208C16.1232 23.7169 15.8014 24.0367 15.4073 24.0367Z" fill="#FEFEFE"/>
<path d="M11.1123 6.38264H26.887V0.830566H11.1123V6.38264Z" fill="#353043"/>
<path d="M11.9746 5.31683H12.4144V1.94673H11.9746V5.31683ZM25.6054 4.79322V1.94482H26.0452V4.6847C25.8967 4.70564 25.7482 4.74182 25.6054 4.79132V4.79322ZM24.8038 5.28065V1.94482H25.2455V4.95697C25.0875 5.04646 24.9409 5.15308 24.8038 5.28065ZM24.0022 5.31683H24.4401V1.94673H24.0022V5.31683ZM23.1987 5.31683H23.6386V1.94673H23.1987V5.31683ZM22.3971 5.31683H22.837V1.94673H22.3971V5.31683ZM21.5936 5.31683H22.0335V1.94673H21.5936V5.31683ZM20.7921 5.31683H21.2319V1.94673H20.7921V5.31683ZM19.9905 5.31683H20.4284V1.94673H19.9905V5.31683ZM19.187 5.31683H19.6268V1.94673H19.187V5.31683ZM18.3854 5.31683H18.8233V1.94673H18.3854V5.31683ZM17.5819 5.31683H18.0217V1.94673H17.5819V5.31683ZM16.7803 5.31683H17.2201V1.94673H16.7803V5.31683ZM15.9787 5.31683H16.4186V1.94673H15.9787V5.31683ZM15.1752 5.31683H15.6151V1.94673H15.1752V5.31683ZM14.3737 5.31683H14.8135V1.94673H14.3737V5.31683ZM13.5702 5.31683H14.01V1.94673H13.5702V5.31683ZM12.7686 5.31683H13.2084V1.94673H12.7686V5.31683Z" fill="#FEFEFE"/>
<path d="M15.2163 7.80462H22.7809V6.38232H15.2163V7.80462Z" fill="#940A0A"/>
<path d="M14.9383 7.71928L14.8146 7.80496L6.45406 13.6046L3.02304 15.9865L2.60225 16.2759L1.14759 14.1682C0.429783 13.1248 0.692535 11.7044 1.72831 10.9942L10.3382 5.06318C11.3816 4.35108 12.7944 4.61193 13.5122 5.64962L14.9345 7.71737L14.9383 7.71928Z" fill="#940A0A"/>
<path d="M9.2119 20.6599C9.2119 20.6599 6.79952 20.6599 6.1236 20.6599C5.44958 20.6599 5.20016 19.9135 5.20016 19.9135L3.02197 15.9893L6.45299 13.6074L9.2119 20.6618V20.6599Z" fill="#404040"/>
<path d="M23.061 7.71928L23.1867 7.80496L31.5453 13.6046L34.9763 15.9865L35.3971 16.2759L36.8517 14.1682C37.5696 13.1248 37.3068 11.7044 36.271 10.9942L27.6611 5.06318C26.6177 4.35108 25.2049 4.61193 24.4871 5.64962L23.0629 7.71737L23.061 7.71928Z" fill="#940A0A"/>
<path d="M28.7866 20.6599C28.7866 20.6599 31.1971 20.6599 31.8749 20.6599C32.547 20.6599 32.7984 19.9135 32.7984 19.9135L34.9746 15.9893L31.5436 13.6074L28.7866 20.6618V20.6599Z" fill="#404040"/>
<path fill-rule="evenodd" clip-rule="evenodd" d="M21.848 13.6538L15.3459 12.2334C15.7133 12.7132 15.9323 13.313 15.9323 13.9622C15.9323 15.533 14.6566 16.8087 13.0858 16.8087C12.5184 16.8087 11.991 16.6431 11.5474 16.3575L13.3314 22.277C13.7141 21.5173 14.5005 20.9956 15.4087 20.9956C16.6901 20.9956 17.7335 22.0352 17.7335 23.3204C17.7335 23.6346 17.6706 23.9354 17.5564 24.2077L22.5792 22.1628C20.5019 21.801 18.9235 19.9903 18.9235 17.8121C18.9235 15.8967 20.1401 14.2669 21.8442 13.6538H21.848Z" fill="#ED595B"/>
</svg>
