<svg width="23" height="12" viewBox="0 0 23 12" fill="none" xmlns="http://www.w3.org/2000/svg">
<path d="M17.8711 3.19678H3.97119V8.13217H17.8711V3.19678Z" fill="#C80000"/>
<path d="M5.32114 10.12C7.62997 10.12 9.50165 8.12632 9.50165 5.66695C9.50165 3.20758 7.62997 1.21387 5.32114 1.21387C3.0123 1.21387 1.14062 3.20758 1.14062 5.66695C1.14062 8.12632 3.0123 10.12 5.32114 10.12Z" fill="white"/>
<path fill-rule="evenodd" clip-rule="evenodd" d="M5.32143 0C2.38789 0 0 2.54175 0 5.66656C0 8.79137 2.38618 11.3349 5.32143 11.3349C8.25497 11.3349 10.6412 8.79319 10.6412 5.66656C10.6412 2.54175 8.25497 0 5.32143 0ZM5.32143 9.71515C3.22604 9.71515 1.52065 7.89857 1.52065 5.66656C1.52065 3.43455 3.22604 1.61798 5.32143 1.61798C7.41682 1.61798 9.12221 3.43455 9.12221 5.66656C9.12221 7.89857 7.41682 9.71515 5.32143 9.71515Z" fill="black"/>
<path d="M17.6786 10.12C19.9874 10.12 21.8591 8.12632 21.8591 5.66695C21.8591 3.20758 19.9874 1.21387 17.6786 1.21387C15.3697 1.21387 13.498 3.20758 13.498 5.66695C13.498 8.12632 15.3697 10.12 17.6786 10.12Z" fill="white"/>
<path fill-rule="evenodd" clip-rule="evenodd" d="M17.6786 0C14.7451 0 12.3589 2.54175 12.3589 5.66656C12.3589 8.79137 14.7451 11.3349 17.6786 11.3349C20.6121 11.3349 23 8.79319 23 5.66656C23 2.54175 20.6139 0 17.6786 0ZM17.6786 9.71515C15.5832 9.71515 13.8778 7.89857 13.8778 5.66656C13.8778 3.43455 15.5832 1.61798 17.6786 1.61798C19.774 1.61798 21.4794 3.43455 21.4794 5.66656C21.4794 7.89857 19.774 9.71515 17.6786 9.71515Z" fill="black"/>
</svg>
