<svg width="18" height="18" viewBox="0 0 18 18" fill="none" xmlns="http://www.w3.org/2000/svg">
<path d="M16.9626 5.8065L9.46258 0.806504C9.18258 0.619837 8.81842 0.619837 8.53841 0.806504L1.03841 5.8065C0.801748 5.964 0.670081 6.2265 0.670081 6.49984H0.666748V7.33317V8.1665V15.6665C0.666748 16.5865 1.41341 17.3332 2.33341 17.3332H15.6667C16.5867 17.3332 17.3334 16.5865 17.3334 15.6665V8.1665V7.33317V6.49984H17.3301C17.3301 6.2265 17.1984 5.964 16.9626 5.8065ZM15.6667 9.58317L9.00008 13.1665L2.33341 9.58317V8.1665V7.58067L9.00008 11.1632L15.6667 7.58067V8.1665V9.58317Z" fill="white"/>
</svg>
