<svg width="48" height="48" viewBox="0 0 48 48" fill="none" xmlns="http://www.w3.org/2000/svg">
<path d="M24 48C37.2548 48 48 37.2548 48 24C48 10.7452 37.2548 0 24 0C10.7452 0 0 10.7452 0 24C0 37.2548 10.7452 48 24 48Z" fill="#C80000"/>
<path d="M26.6538 4.19092V21.3462L13.1238 34.8761H4.11841V4.19092H26.6538Z" fill="white"/>
<path d="M43.7655 13.8203V39.0094L38.2839 44.5055H21.2446V26.7557L34.18 13.8203H43.7655Z" fill="#E6E6E6"/>
<path d="M38.2839 44.5058V39.0098H43.7655L38.2839 44.5058Z" fill="#B3B3B3"/>
<path d="M6.25 8.46896H24.5219V7.38135H6.25V8.46896Z" fill="#B3B3B3"/>
<path d="M6.25 11.6156H24.5219V10.5425H6.25V11.6156Z" fill="#B3B3B3"/>
<path d="M6.25 14.7771H11.3545V13.6895H6.25V14.7771Z" fill="#B3B3B3"/>
<path d="M6.25 15.8505H11.3545V14.7773H6.25V15.8505Z" fill="#E6E6E6"/>
<path d="M12.8337 14.7771H17.9383V13.6895H12.8337V14.7771Z" fill="#B3B3B3"/>
<path d="M12.8337 15.8505H17.9383V14.7773H12.8337V15.8505Z" fill="#E6E6E6"/>
<path d="M19.4319 14.7771H24.5219V13.6895H19.4319V14.7771Z" fill="#B3B3B3"/>
<path d="M19.4319 15.8505H24.5219V14.7773H19.4319V15.8505Z" fill="#E6E6E6"/>
<path d="M6.25 17.9237H11.3545V16.8506H6.25V17.9237Z" fill="#E6E6E6"/>
<path d="M12.8337 17.9237H17.9383V16.8506H12.8337V17.9237Z" fill="#E6E6E6"/>
<path d="M19.4319 17.9237H24.5219V16.8506H19.4319V17.9237Z" fill="#E6E6E6"/>
<path d="M6.25 19.9978H11.3545V18.9102H6.25V19.9978Z" fill="#E6E6E6"/>
<path d="M12.8337 19.9978H17.9383V18.9102H12.8337V19.9978Z" fill="#E6E6E6"/>
<path d="M19.4319 19.9978H24.5219V18.9102H19.4319V19.9978Z" fill="#E6E6E6"/>
<path d="M6.25 22.057H11.3545V20.9839H6.25V22.057Z" fill="#E6E6E6"/>
<path d="M12.8337 22.057H17.9383V20.9839H12.8337V22.057Z" fill="#E6E6E6"/>
<path d="M19.4319 22.057H24.5219V20.9839H19.4319V22.057Z" fill="#E6E6E6"/>
<path d="M6.25 24.1307H11.3545V23.0576H6.25V24.1307Z" fill="#E6E6E6"/>
<path d="M12.8337 24.1307H17.9383V23.0576H12.8337V24.1307Z" fill="#E6E6E6"/>
<path d="M19.4319 24.1307H24.5219V23.0576H19.4319V24.1307Z" fill="#E6E6E6"/>
<path d="M27.7124 20.8822H41.8804V19.8091H27.7124V20.8822Z" fill="#B3B3B3"/>
<path d="M23.6084 24.0437H41.8803V22.9561H23.6084V24.0437Z" fill="#B3B3B3"/>
<path d="M23.6084 27.1903H28.7129V26.1172H23.6084V27.1903Z" fill="#B3B3B3"/>
<path d="M23.6084 28.278H28.7129V27.1904H23.6084V28.278Z" fill="white"/>
<path d="M30.1921 27.1903H35.2967V26.1172H30.1921V27.1903Z" fill="#B3B3B3"/>
<path d="M30.1921 28.278H35.2967V27.1904H30.1921V28.278Z" fill="white"/>
<path d="M36.7903 27.1903H41.8803V26.1172H36.7903V27.1903Z" fill="#B3B3B3"/>
<path d="M36.7903 28.278H41.8803V27.1904H36.7903V28.278Z" fill="white"/>
<path d="M23.6084 30.3513H28.7129V29.2637H23.6084V30.3513Z" fill="white"/>
<path d="M30.1921 30.3513H35.2967V29.2637H30.1921V30.3513Z" fill="white"/>
<path d="M36.7903 30.3513H41.8803V29.2637H36.7903V30.3513Z" fill="white"/>
<path d="M23.6084 32.411H28.7129V31.3379H23.6084V32.411Z" fill="white"/>
<path d="M30.1921 32.411H35.2967V31.3379H30.1921V32.411Z" fill="white"/>
<path d="M36.7903 32.411H41.8803V31.3379H36.7903V32.411Z" fill="white"/>
<path d="M23.6084 34.4847H28.7129V33.4116H23.6084V34.4847Z" fill="white"/>
<path d="M30.1921 34.4847H35.2967V33.4116H30.1921V34.4847Z" fill="white"/>
<path d="M36.7903 34.4847H41.8803V33.4116H36.7903V34.4847Z" fill="white"/>
<path d="M23.6084 36.5585H28.7129V35.4854H23.6084V36.5585Z" fill="white"/>
<path d="M30.1921 36.5585H35.2967V35.4854H30.1921V36.5585Z" fill="white"/>
<path d="M36.7903 36.5585H41.8803V35.4854H36.7903V36.5585Z" fill="white"/>
<path d="M43.8089 2.62462C44.244 2.18958 44.94 2.18958 45.3751 2.62462C45.8101 3.05967 45.8101 3.75574 45.3751 4.19079L4.19079 45.3751C3.75574 45.8101 3.05967 45.8101 2.62462 45.3751C2.18958 44.94 2.18958 44.244 2.62462 43.8089L43.8089 2.62462Z" fill="#292827"/>
</svg>
