<svg width="48" height="48" viewBox="0 0 48 48" fill="none" xmlns="http://www.w3.org/2000/svg">
<path d="M24 48C37.2548 48 48 37.2548 48 24C48 10.7452 37.2548 0 24 0C10.7452 0 0 10.7452 0 24C0 37.2548 10.7452 48 24 48Z" fill="#E28057"/>
<path fill-rule="evenodd" clip-rule="evenodd" d="M19.4079 12.2289C18.4362 12.2289 17.5653 12.8439 17.2423 13.7588C17.1363 14.0585 17.2939 14.3867 17.5911 14.4927C17.7875 14.5625 17.9917 14.5108 18.1442 14.3842L20.5553 17.2811V17.9711C20.5553 18.289 20.8111 18.5448 21.129 18.5448C21.4468 18.5448 21.7027 18.289 21.7027 17.9711V14.5263C21.7027 13.26 20.6716 12.2289 19.4053 12.2289H19.4079Z" fill="black"/>
<path fill-rule="evenodd" clip-rule="evenodd" d="M17.6841 13.3788C16.6323 13.3788 15.6373 13.7819 14.8621 14.5391L7.49951 22.5762L8.34715 23.3514L8.54614 23.1344L20.5552 26.4267V26.5843C20.5552 26.9022 20.811 27.158 21.1289 27.158C21.4468 27.158 21.7026 26.9022 21.7026 26.5843V17.3973C21.7026 15.18 19.8988 13.3788 17.6841 13.3788Z" fill="#B3B3B3"/>
<path fill-rule="evenodd" clip-rule="evenodd" d="M28.5949 12.2289C29.5666 12.2289 30.4375 12.8439 30.7605 13.7588C30.8665 14.0585 30.7089 14.3867 30.4117 14.4927C30.2153 14.5625 30.0111 14.5108 29.8586 14.3842L27.4475 17.2811V17.9711C27.4475 18.289 27.1917 18.5448 26.8738 18.5448C26.556 18.5448 26.3001 18.289 26.3001 17.9711V14.5263C26.3001 13.26 27.3286 12.2289 28.5975 12.2289H28.5949Z" fill="black"/>
<path fill-rule="evenodd" clip-rule="evenodd" d="M30.3159 13.3788C31.3677 13.3788 32.3627 13.7819 33.138 14.5391L40.5005 22.5762L39.6529 23.3514L39.4539 23.1344L27.4448 26.4267V26.5843C27.4448 26.9022 27.189 27.158 26.8711 27.158C26.5533 27.158 26.2974 26.9022 26.2974 26.5843V17.3973C26.2974 15.18 28.1012 13.3788 30.3159 13.3788Z" fill="#B3B3B3"/>
<path d="M13.6655 34.0479C17.1537 34.0479 19.9815 31.2201 19.9815 27.7319C19.9815 24.2438 17.1537 21.416 13.6655 21.416C10.1773 21.416 7.34961 24.2438 7.34961 27.7319C7.34961 31.2201 10.1773 34.0479 13.6655 34.0479Z" fill="white"/>
<path fill-rule="evenodd" clip-rule="evenodd" d="M13.6656 19.6949C9.2336 19.6949 5.62598 23.3 5.62598 27.732C5.62598 32.164 9.23102 35.7716 13.6656 35.7716C18.0976 35.7716 21.7026 32.1666 21.7026 27.732C21.7026 23.3 18.0976 19.6949 13.6656 19.6949ZM13.6656 33.4742C10.4999 33.4742 7.92338 30.8977 7.92338 27.732C7.92338 24.5663 10.4999 21.9898 13.6656 21.9898C16.8313 21.9898 19.4078 24.5663 19.4078 27.732C19.4078 30.8977 16.8313 33.4742 13.6656 33.4742Z" fill="black"/>
<path fill-rule="evenodd" clip-rule="evenodd" d="M19.4079 20.2685H28.5949L28.6828 20.2659C27.5664 21.359 26.8712 22.8863 26.8712 24.5738V26.5844H21.129V24.5738C21.129 22.8863 20.4364 21.3616 19.3174 20.2659L19.4053 20.2685H19.4079Z" fill="black"/>
<path d="M34.3345 34.0479C37.8227 34.0479 40.6504 31.2201 40.6504 27.7319C40.6504 24.2438 37.8227 21.416 34.3345 21.416C30.8463 21.416 28.0186 24.2438 28.0186 27.7319C28.0186 31.2201 30.8463 34.0479 34.3345 34.0479Z" fill="white"/>
<path fill-rule="evenodd" clip-rule="evenodd" d="M34.3345 19.6949C29.9025 19.6949 26.2974 23.3 26.2974 27.732C26.2974 32.164 29.9025 35.7716 34.3345 35.7716C38.7665 35.7716 42.3741 32.1666 42.3741 27.732C42.3741 23.3 38.7691 19.6949 34.3345 19.6949ZM34.3345 33.4742C31.1687 33.4742 28.5922 30.8977 28.5922 27.732C28.5922 24.5663 31.1687 21.9898 34.3345 21.9898C37.5002 21.9898 40.0767 24.5663 40.0767 27.732C40.0767 30.8977 37.5002 33.4742 34.3345 33.4742Z" fill="black"/>
<path d="M28.5948 19.121H19.4078V20.2684H28.5948V19.121Z" fill="#B3B3B3"/>
</svg>
