<svg width="48" height="48" viewBox="0 0 48 48" fill="none" xmlns="http://www.w3.org/2000/svg">
<path d="M23.9992 47.9983C37.2535 47.9983 47.9983 37.2535 47.9983 23.9992C47.9983 10.7448 37.2535 0 23.9992 0C10.7448 0 0 10.7448 0 23.9992C0 37.2535 10.7448 47.9983 23.9992 47.9983Z" fill="#99B8D1"/>
<path fill-rule="evenodd" clip-rule="evenodd" d="M41.9767 8.10082V34.017V39.8986C37.579 44.8662 31.1561 47.9997 24.0008 47.9997C16.8439 47.9997 10.421 44.8662 6.0249 39.8986V34.0186V8.10241V2.70328H41.9783V8.10241L41.9767 8.10082Z" fill="#E6E6E6"/>
<path fill-rule="evenodd" clip-rule="evenodd" d="M9.79834 7.75824H16.5365H16.8358H23.574V17.5391H16.8358H16.5365H9.79834V7.75824Z" fill="#FB0000"/>
<path fill-rule="evenodd" clip-rule="evenodd" d="M22.926 13.4691C22.9562 12.9723 22.8925 12.0011 22.7349 10.5538C22.6043 10.5538 22.5391 10.5538 22.5391 10.5538C22.676 12.6316 22.746 13.6697 22.746 13.6697L22.926 13.4691Z" fill="#404040"/>
<path fill-rule="evenodd" clip-rule="evenodd" d="M12.0593 24.9416V21.9212V21.6951C12.0402 21.6951 12.0195 21.6951 12.0004 21.6951C11.553 21.6919 11.1072 21.6872 10.6598 21.6808C10.3509 21.4435 10.1566 21.0519 10.0738 20.5042H10.0293C10.0022 20.5471 9.96875 20.5806 9.93213 20.6013V24.9416H12.0593ZM21.3147 21.6967V21.9228V24.9432H23.4419V20.6029C23.4053 20.5822 23.3719 20.5503 23.3448 20.5057H23.3002C23.2174 21.0519 23.0232 21.4451 22.7143 21.6824C22.2669 21.6887 21.8211 21.6935 21.3736 21.6967C21.3545 21.6967 21.3338 21.6967 21.3147 21.6967Z" fill="#404040"/>
<path fill-rule="evenodd" clip-rule="evenodd" d="M16.7212 23.013C17.9249 23.0114 19.1286 22.9812 20.3323 22.9207C20.7988 22.7519 21.1586 22.3825 21.3146 21.9208V21.6947C19.7718 21.7058 18.229 21.7011 16.6861 21.6804C15.1433 21.7026 13.6005 21.7074 12.0576 21.6947V21.9208C12.2152 22.3825 12.5751 22.7535 13.04 22.9207C14.266 22.9828 15.492 23.013 16.7196 23.013H16.7212Z" fill="#292827"/>
<path fill-rule="evenodd" clip-rule="evenodd" d="M13.5321 20.2364C15.6275 20.2141 17.7451 20.2141 19.8404 20.2364C19.9232 20.2284 20.1206 20.5739 20.4343 21.2729C20.1381 20.9386 19.9009 20.773 19.7226 20.7777C17.7021 20.7634 15.672 20.7634 13.6515 20.7777C13.4732 20.773 13.236 20.9386 12.9398 21.2729C13.2519 20.5739 13.4493 20.2284 13.5337 20.2364H13.5321ZM10.1169 19.3066C10.0611 19.4451 10.0325 19.6664 10.0293 19.9689C10.0325 20.1361 10.0436 20.2921 10.0627 20.4386C10.0659 20.4609 10.0691 20.4832 10.0723 20.5055C10.1551 21.0516 10.3493 21.4449 10.6582 21.6821C11.1056 21.6885 11.5514 21.6933 11.9988 21.6964C12.0179 21.6964 12.0386 21.6964 12.0578 21.6964C13.6006 21.7076 15.1434 21.7028 16.6863 21.6821C18.2291 21.7044 19.7719 21.7092 21.3148 21.6964C21.3339 21.6964 21.3546 21.6964 21.3737 21.6964C21.8211 21.6933 22.2669 21.6885 22.7143 21.6821C23.0232 21.4449 23.2175 21.0532 23.3003 20.5055C23.3034 20.4832 23.3066 20.4609 23.3098 20.4386C23.3289 20.2921 23.3401 20.1361 23.3432 19.9689C23.3401 19.6664 23.3114 19.4451 23.2557 19.3066C23.2063 19.1824 23.1363 19.1235 23.0439 19.1282C22.3258 19.2588 21.6523 19.3623 21.0234 19.4387C20.1875 19.5406 19.4312 19.5931 18.7561 19.5979C17.6066 19.5979 16.9267 19.5979 16.7197 19.5979C16.7197 19.5979 16.0175 19.5979 14.6148 19.5979C13.9397 19.5931 13.1834 19.5406 12.3475 19.4387C11.7202 19.3623 11.0467 19.2588 10.3286 19.1282C10.2363 19.1235 10.1662 19.1824 10.1169 19.3066ZM12.0593 20.7443C11.1709 20.6949 10.7267 20.6711 10.7267 20.6711C10.6662 20.6344 10.612 20.5787 10.5627 20.5055C10.5229 20.445 10.4878 20.3733 10.4576 20.2889C10.2204 19.7142 10.3223 19.4626 10.7617 19.5358C11.6581 19.6266 12.1819 19.7269 12.3348 19.8352C12.4749 19.9116 12.5704 20.0533 12.588 20.2125C12.3507 20.5739 12.2313 20.7539 12.2313 20.7539C12.1708 20.7507 12.1135 20.7475 12.0578 20.7443H12.0593ZM22.8114 20.5055C22.7637 20.5787 22.7095 20.6344 22.649 20.6711C22.649 20.6711 22.2048 20.6949 21.3164 20.7443C21.2606 20.7475 21.2017 20.7507 21.1428 20.7539C21.1428 20.7539 21.0234 20.5739 20.7862 20.2125C20.8037 20.0533 20.8992 19.9132 21.0393 19.8352C21.1922 19.7269 21.7176 19.6266 22.6124 19.5358C23.0535 19.4626 23.1554 19.7142 22.9165 20.2889C22.8863 20.3733 22.8513 20.445 22.8114 20.5055Z" fill="#404040"/>
<path fill-rule="evenodd" clip-rule="evenodd" d="M12.0593 20.7429C12.115 20.7461 12.1739 20.7492 12.2328 20.7524C12.2328 20.7524 12.3507 20.5725 12.5895 20.2111C12.572 20.0519 12.4765 19.9117 12.3363 19.8337C12.1835 19.7255 11.6581 19.6251 10.7633 19.5344C10.3222 19.4612 10.2219 19.7127 10.4591 20.2875C10.4894 20.3719 10.5244 20.4435 10.5642 20.504C10.612 20.5773 10.6661 20.633 10.7282 20.6696C10.7282 20.6696 11.1724 20.6935 12.0609 20.7429H12.0593Z" fill="#FEFEFE"/>
<path fill-rule="evenodd" clip-rule="evenodd" d="M22.8114 20.504C22.8512 20.4435 22.8862 20.3719 22.9165 20.2875C23.1537 19.7127 23.0534 19.4612 22.6124 19.5344C21.716 19.6251 21.1921 19.7255 21.0393 19.8337C20.8992 19.9101 20.8036 20.0519 20.7861 20.2111C21.0234 20.5725 21.1428 20.7524 21.1428 20.7524C21.2017 20.7492 21.2606 20.7461 21.3163 20.7429C22.2048 20.6935 22.649 20.6696 22.649 20.6696C22.7095 20.633 22.7636 20.5773 22.8114 20.504Z" fill="#FEFEFE"/>
<path fill-rule="evenodd" clip-rule="evenodd" d="M20.4343 21.2732C20.1222 20.5742 19.9248 20.2287 19.8404 20.2367C17.7451 20.2144 15.6275 20.2144 13.5321 20.2367C13.4493 20.2287 13.2519 20.5742 12.9382 21.2732C13.2344 20.9388 13.4716 20.7733 13.6499 20.778C15.6704 20.7637 17.7005 20.7637 19.721 20.778C19.8993 20.7733 20.1366 20.9388 20.4327 21.2732H20.4343Z" fill="#6D6E6E"/>
<path fill-rule="evenodd" clip-rule="evenodd" d="M17.4726 18.1742C17.6732 18.0261 17.8325 17.8255 17.9312 17.5962C19.4931 17.5787 20.2733 17.5708 20.2733 17.5708C20.2701 17.7539 20.251 17.9449 20.216 18.1439L17.471 18.1742H17.4726ZM21.5232 17.5389C21.5884 17.2889 21.6617 17.0135 21.7397 16.7142C20.8608 16.8272 19.5361 16.8686 17.7672 16.8383C17.2067 16.1999 16.167 16.1999 15.6066 16.8383C13.836 16.8686 12.5129 16.8272 11.634 16.7142C11.7136 17.0135 11.7853 17.2889 11.8506 17.5389C12.1817 18.8031 12.3489 19.4352 12.3489 19.4352C13.1848 19.5371 13.9411 19.5897 14.6162 19.5944C15.7674 19.5944 16.4456 19.5944 16.6526 19.5944C16.6526 19.5944 17.3548 19.5944 18.7575 19.5944C19.4326 19.5897 20.1889 19.5371 21.0248 19.4352C21.0248 19.4352 21.1904 18.8031 21.5232 17.5389ZM13.3456 18.7522C14.6194 18.7585 15.7339 18.7585 16.6861 18.7522C17.6382 18.7585 18.7511 18.7585 20.0265 18.7522C20.0599 18.87 20.0424 19.034 19.9755 19.2426C18.8594 19.276 17.7624 19.2903 16.6861 19.284C15.6097 19.2903 14.5127 19.276 13.3966 19.2426C13.3281 19.034 13.3106 18.8716 13.3456 18.7522ZM15.441 17.5962C15.5397 17.8255 15.6989 18.0245 15.8995 18.1742L13.1546 18.1439C13.1196 17.9449 13.1004 17.7539 13.0973 17.5708C13.0973 17.5708 13.8774 17.5787 15.4394 17.5962H15.441Z" fill="#6D6E6E"/>
<path fill-rule="evenodd" clip-rule="evenodd" d="M15.8996 18.1743C15.6989 18.0263 15.5397 17.8256 15.441 17.5964C13.8791 17.5789 13.0989 17.5709 13.0989 17.5709C13.1021 17.754 13.1212 17.9451 13.1562 18.1441L15.9011 18.1743H15.8996Z" fill="#404040"/>
<path fill-rule="evenodd" clip-rule="evenodd" d="M17.9329 17.5964C17.8342 17.8256 17.675 18.0247 17.4744 18.1743L20.2193 18.1441C20.2543 17.9451 20.2734 17.754 20.2766 17.5709C20.2766 17.5709 19.4965 17.5789 17.9345 17.5964H17.9329Z" fill="#404040"/>
<path fill-rule="evenodd" clip-rule="evenodd" d="M20.0267 18.7523C18.753 18.7586 17.6384 18.7586 16.6863 18.7523C15.7342 18.7586 14.6196 18.7586 13.3459 18.7523C13.3124 18.8701 13.3299 19.0341 13.3968 19.2427C14.5129 19.2761 15.61 19.2904 16.6863 19.2841C17.7626 19.2904 18.858 19.2761 19.9758 19.2427C20.0442 19.0341 20.0617 18.8717 20.0267 18.7523Z" fill="#404040"/>
<path fill-rule="evenodd" clip-rule="evenodd" d="M22.1171 18.1643C21.8528 18.4748 21.7222 18.7391 21.7254 18.9588C22.4132 18.97 22.8304 18.8792 22.9785 18.6914C23.0644 18.3602 23.0023 18.08 22.7922 17.8507C22.3416 18.0608 22.1171 18.1659 22.1171 18.1659V18.1643Z" fill="#FEC900"/>
<path fill-rule="evenodd" clip-rule="evenodd" d="M11.6484 18.959C11.65 18.7393 11.5194 18.4749 11.2567 18.1645C11.2567 18.1645 11.0322 18.0594 10.5816 17.8492C10.3715 18.0785 10.3094 18.3587 10.3954 18.6899C10.5434 18.8794 10.9606 18.9685 11.6484 18.9574V18.959Z" fill="#FEC900"/>
<path fill-rule="evenodd" clip-rule="evenodd" d="M11.8507 17.5393C11.7854 17.2893 11.7122 17.0138 11.6342 16.7145C12.5131 16.8276 13.8378 16.869 15.6067 16.8387C16.1672 16.2002 17.2069 16.2002 17.7673 16.8387C19.5378 16.869 20.861 16.8276 21.7399 16.7145C21.6618 17.0138 21.5886 17.2893 21.5233 17.5393C21.1921 18.8035 21.025 19.4356 21.025 19.4356C21.6523 19.3591 22.3258 19.2557 23.0455 19.1251C23.1362 19.1203 23.2079 19.1792 23.2572 19.3034C23.3193 18.5264 23.3623 18.0711 23.3862 17.9389C23.3957 17.9341 23.4053 17.9278 23.4148 17.923C23.4308 17.759 23.34 17.6046 23.1919 17.5393C23.1792 17.5329 23.1665 17.5281 23.1521 17.5249C23.1808 15.5188 23.176 14.1973 23.1346 13.5572C23.098 12.9729 23.063 12.4602 23.0311 12.0175H22.8767C22.9292 12.6815 22.9451 13.1655 22.9276 13.4696L22.7477 13.6702C22.7477 13.6702 22.6793 12.6321 22.5407 10.5543C22.5407 10.5543 22.606 10.5543 22.7366 10.5543C22.7923 11.0606 22.8353 11.508 22.8671 11.8981H23.0216C22.9627 11.0845 22.9149 10.5225 22.8751 10.2136C22.7493 9.76617 22.4977 9.51142 22.1172 9.44932C18.5857 9.34583 14.7899 9.34583 11.2584 9.44932C10.8779 9.51142 10.6247 9.76617 10.5005 10.2136C10.4623 10.5225 10.413 11.0845 10.3541 11.8981H10.5085C10.5403 11.508 10.5849 11.0606 10.6391 10.5543C10.7696 10.5543 10.8349 10.5543 10.8349 10.5543C10.698 12.6321 10.6279 13.6702 10.6279 13.6702L10.4464 13.4696C10.4289 13.1639 10.4448 12.6799 10.4974 12.0175H10.3445C10.3127 12.4602 10.2776 12.9744 10.241 13.5572C10.1996 14.1973 10.1932 15.5188 10.2235 17.5249C10.2092 17.5297 10.1964 17.5345 10.1837 17.5393C10.0356 17.6061 9.94487 17.759 9.96079 17.923C9.97034 17.9278 9.97989 17.9325 9.98945 17.9389C10.0133 18.0727 10.0563 18.528 10.1184 19.3034C10.1678 19.1792 10.2378 19.1203 10.3302 19.1251C11.0483 19.2557 11.7218 19.3591 12.3491 19.4356C12.3491 19.4356 12.1835 18.8035 11.8507 17.5393ZM21.7255 18.9579C21.7239 18.7382 21.8545 18.4739 22.1172 18.1634C22.1172 18.1634 22.3433 18.0583 22.7923 17.8482C23.0025 18.0774 23.0646 18.3577 22.9786 18.6888C22.8305 18.8783 22.4134 18.9675 21.7255 18.9563V18.9579ZM11.2584 18.1634C11.5227 18.4739 11.6533 18.7382 11.6501 18.9579C10.9623 18.9691 10.5451 18.8783 10.397 18.6904C10.3111 18.3593 10.3732 18.079 10.5833 17.8497C11.0339 18.0599 11.2584 18.165 11.2584 18.165V18.1634ZM22.4181 14.4377C22.4372 14.8867 17.589 14.8612 16.6894 14.8899C15.7898 14.8596 10.9416 14.8867 10.9607 14.4377C10.9607 14.4377 11.0339 13.1575 11.182 10.5989C11.1581 10.2836 11.2887 10.1292 11.5689 10.1403C14.723 10.1212 16.4299 10.1212 16.6894 10.1356C16.9489 10.1196 18.6558 10.1212 21.8099 10.1403C22.0901 10.1308 22.2191 10.2836 22.1968 10.5989C22.3449 13.1575 22.4181 14.4377 22.4181 14.4377Z" fill="#ED595B"/>
<path fill-rule="evenodd" clip-rule="evenodd" d="M10.117 19.3052C10.0549 18.5282 10.0119 18.0729 9.98804 17.9407C9.97848 17.9359 9.96893 17.9296 9.95938 17.9248C9.72851 17.8038 9.60909 17.9359 9.60113 18.3228C9.57088 19.7431 9.61228 20.5057 9.72532 20.614C9.80493 20.6379 9.87499 20.6331 9.93231 20.6013C9.96893 20.5806 10.0024 20.5487 10.0294 20.5042C10.0422 20.4835 10.0533 20.4612 10.0645 20.4373C10.0454 20.2908 10.0342 20.1348 10.031 19.9676C10.0342 19.6651 10.0629 19.4438 10.1186 19.3052H10.117Z" fill="#292827"/>
<path fill-rule="evenodd" clip-rule="evenodd" d="M23.3863 17.9407C23.3624 18.0745 23.3194 18.5298 23.2573 19.3052C23.3131 19.4438 23.3417 19.6651 23.3449 19.9676C23.3417 20.1348 23.3306 20.2908 23.3115 20.4373C23.3226 20.4628 23.3337 20.485 23.3465 20.5042C23.3736 20.5471 23.407 20.5806 23.4436 20.6013C23.5009 20.6331 23.5694 20.6363 23.6506 20.614C23.7636 20.5073 23.805 19.7431 23.7748 18.3228C23.7668 17.9359 23.6474 17.8038 23.4165 17.9248C23.407 17.9296 23.3974 17.9344 23.3879 17.9407H23.3863Z" fill="#292827"/>
<path d="M10.5626 11.8978H9.60571V12.0172H10.5626V11.8978Z" fill="#292827"/>
<path fill-rule="evenodd" clip-rule="evenodd" d="M9.24421 11.0123C9.62793 10.9821 9.83173 11.0187 9.85243 11.1206L9.90338 12.5966C9.85402 12.8258 9.73142 12.9293 9.53717 12.907C9.13116 12.9261 8.92736 12.8306 8.92895 12.6173C8.90507 11.7097 8.89233 11.2559 8.89233 11.2559C8.9799 11.076 9.09773 10.9948 9.24262 11.0139L9.24421 11.0123Z" fill="#292827"/>
<path fill-rule="evenodd" clip-rule="evenodd" d="M24.1282 11.0123C23.7444 10.9821 23.5406 11.0187 23.5199 11.1206L23.469 12.5966C23.5184 12.8258 23.641 12.9293 23.8352 12.907C24.2412 12.9261 24.445 12.8306 24.4434 12.6173C24.4673 11.7097 24.48 11.2559 24.48 11.2559C24.3925 11.076 24.2746 10.9948 24.1298 11.0139L24.1282 11.0123Z" fill="#6D7F99"/>
<path d="M23.7684 11.8978H22.8115V12.0172H23.7684V11.8978Z" fill="#292827"/>
<path fill-rule="evenodd" clip-rule="evenodd" d="M24.1282 11.0123C23.7444 10.9821 23.5406 11.0187 23.5199 11.1206L23.469 12.5966C23.5184 12.8258 23.641 12.9293 23.8352 12.907C24.2412 12.9261 24.445 12.8306 24.4434 12.6173C24.4673 11.7097 24.48 11.2559 24.48 11.2559C24.3925 11.076 24.2746 10.9948 24.1298 11.0139L24.1282 11.0123Z" fill="#292827"/>
<path fill-rule="evenodd" clip-rule="evenodd" d="M10.6279 13.6697C10.6279 13.6697 10.6964 12.6316 10.8349 10.5538C10.8349 10.5538 10.7696 10.5538 10.639 10.5538C10.5849 11.0601 10.5403 11.5075 10.5085 11.8976H10.5642V12.017H10.4989C10.4464 12.681 10.4305 13.165 10.448 13.4691L10.6295 13.6697H10.6279Z" fill="#353043"/>
<path fill-rule="evenodd" clip-rule="evenodd" d="M9.79825 11.0539V9.49036H9.45752V11.0029C9.62311 11.0014 9.73615 11.0189 9.79825 11.0539Z" fill="#940A0A"/>
<path fill-rule="evenodd" clip-rule="evenodd" d="M9.79825 12.8251C9.73456 12.892 9.64858 12.919 9.53713 12.9063C9.51006 12.9079 9.48299 12.9079 9.45752 12.9079V17.538H9.79825V12.8235V12.8251Z" fill="#940A0A"/>
<path fill-rule="evenodd" clip-rule="evenodd" d="M9.45936 9.49073H9.7985V8.87296H9.34473V9.49073H9.45936Z" fill="#940A0A"/>
<path fill-rule="evenodd" clip-rule="evenodd" d="M23.574 8.87296V9.49073H23.9147H24.0277V8.87296H23.574Z" fill="#940A0A"/>
<path fill-rule="evenodd" clip-rule="evenodd" d="M23.8351 12.9076C23.7252 12.9204 23.6377 12.8933 23.574 12.8264V17.5409H23.9147V12.9108C23.8892 12.9108 23.8622 12.9092 23.8351 12.9092V12.9076Z" fill="#940A0A"/>
<path fill-rule="evenodd" clip-rule="evenodd" d="M23.574 11.0539C23.6361 11.0173 23.7491 11.0014 23.9147 11.0029V9.49036H23.574V11.0539Z" fill="#940A0A"/>
<path fill-rule="evenodd" clip-rule="evenodd" d="M22.4165 14.4391C22.4165 14.4391 22.3432 13.1589 22.1952 10.6003C22.219 10.285 22.0885 10.1306 21.8083 10.1417C18.6541 10.1226 16.9473 10.1226 16.6878 10.137C16.4282 10.121 14.7214 10.1226 11.5673 10.1417C11.2854 10.1322 11.1565 10.285 11.1804 10.6003C11.0323 13.1589 10.959 14.4391 10.959 14.4391C10.9399 14.8881 15.7882 14.8626 16.6878 14.8913C17.5874 14.861 22.4356 14.8881 22.4165 14.4391Z" fill="#353043"/>
<path fill-rule="evenodd" clip-rule="evenodd" d="M16.742 17.3131C16.8582 17.3115 16.9745 17.3115 17.0907 17.3099C17.1337 17.3099 17.1767 17.3083 17.2197 17.3083C17.2611 17.3083 17.3025 17.3083 17.3439 17.3083C17.4028 17.3099 17.4696 17.3052 17.5174 17.329C17.5429 17.3418 17.5524 17.3609 17.5572 17.3895C17.5572 17.3911 17.5572 17.3943 17.5572 17.3943C17.5556 17.4357 17.5301 17.4835 17.5126 17.5217C17.4856 17.5774 17.441 17.6268 17.3932 17.6729C17.3136 17.751 17.156 17.8401 16.992 17.8847C16.9697 17.8911 16.9426 17.9006 16.9171 17.907C16.898 17.9118 16.9044 17.9213 16.9171 17.9197C16.9442 17.9181 16.9729 17.9102 16.9968 17.9054C17.1878 17.8576 17.32 17.7796 17.4123 17.7064C17.4665 17.6618 17.5238 17.5997 17.5604 17.5344C17.5859 17.4898 17.6113 17.4182 17.6145 17.3911C17.6193 17.3561 17.6241 17.3386 17.6225 17.2845C17.6177 17.1921 17.5891 17.1173 17.5333 17.0329C17.5301 17.0265 17.5238 17.0217 17.5206 17.0154C17.519 17.0122 17.5174 17.0074 17.519 17.0026L17.5206 17.001C17.5254 16.9994 17.5333 17.0058 17.5365 17.009C17.5811 17.0584 17.6066 17.0998 17.6304 17.1507C17.6623 17.2176 17.6703 17.2669 17.6766 17.3258C17.6782 17.337 17.6894 17.3434 17.691 17.3243C17.6941 17.2606 17.6798 17.1937 17.6527 17.1332C17.6225 17.0647 17.5906 17.0265 17.5477 16.9756C17.4983 16.9246 17.4378 16.8753 17.3757 16.837C17.2818 16.7781 17.1846 16.7383 17.0811 16.7097C17.0397 16.6985 16.9952 16.689 16.9506 16.6842C16.9362 16.6826 16.9219 16.6826 16.9092 16.6826C16.8996 16.6826 16.8885 16.6937 16.9092 16.6969C16.9362 16.7033 16.9633 16.7097 16.9904 16.7176C17.0923 16.7463 17.1926 16.7861 17.2833 16.8434C17.3582 16.8912 17.3948 16.9151 17.484 17.0265C17.4935 17.0424 17.519 17.0791 17.5317 17.1093C17.5413 17.13 17.554 17.1634 17.554 17.1889V17.1905C17.5508 17.2144 17.5461 17.2319 17.527 17.2431C17.4871 17.2669 17.4521 17.2685 17.3964 17.2717C17.3582 17.2733 17.3184 17.2749 17.2802 17.2749C17.2228 17.2765 17.1671 17.2765 17.1082 17.2781C16.9856 17.2797 16.8614 17.2813 16.7388 17.2829C16.7261 17.2829 16.7117 17.2829 16.699 17.2829C16.5732 17.2829 16.4474 17.2845 16.3217 17.2845C16.2643 17.2845 16.207 17.2845 16.1497 17.2845C16.1115 17.2845 16.0733 17.2845 16.0335 17.2829C15.9777 17.2813 15.9427 17.2797 15.9029 17.2574C15.8838 17.2462 15.8774 17.2303 15.8743 17.2048V17.2033C15.8743 17.1794 15.887 17.1443 15.895 17.1236C15.9077 17.0934 15.9316 17.0552 15.9411 17.0393C16.0287 16.9262 16.0637 16.9023 16.1386 16.853C16.2277 16.7941 16.328 16.7527 16.4283 16.7224C16.4554 16.7144 16.4825 16.7065 16.5095 16.7001C16.5286 16.6953 16.5191 16.6842 16.5095 16.6858C16.4968 16.6858 16.4809 16.6858 16.4681 16.6874C16.4236 16.6937 16.379 16.7033 16.3376 16.716C16.2341 16.7463 16.1386 16.7877 16.0462 16.8482C15.9857 16.888 15.9268 16.9374 15.8774 16.9899C15.836 17.0408 15.8042 17.0791 15.7755 17.1491C15.7501 17.2096 15.7373 17.2765 15.7421 17.3402C15.7437 17.3593 15.7548 17.3529 15.7564 17.3418C15.7612 17.2813 15.7676 17.2335 15.7978 17.165C15.8217 17.1141 15.8456 17.0727 15.8886 17.0217C15.8918 17.017 15.8997 17.0106 15.9045 17.0122H15.9061C15.9077 17.017 15.9061 17.0217 15.9045 17.0249C15.9013 17.0313 15.895 17.0361 15.8918 17.0424C15.8392 17.1284 15.8106 17.2017 15.8074 17.2956C15.8074 17.3497 15.8122 17.3688 15.8169 17.4023C15.8201 17.4293 15.8472 17.501 15.8743 17.544C15.9125 17.6093 15.9714 17.6698 16.0255 17.7143C16.1179 17.786 16.2516 17.8608 16.4443 17.9054C16.4681 17.9102 16.4968 17.9181 16.5239 17.9197C16.5366 17.9197 16.543 17.9118 16.5239 17.907C16.5 17.9006 16.4713 17.8927 16.449 17.8863C16.2834 17.8449 16.1242 17.7573 16.043 17.6809C15.9953 17.6363 15.9491 17.587 15.922 17.5328C15.9029 17.4946 15.8774 17.4469 15.8743 17.4055C15.8743 17.4039 15.8743 17.4023 15.8743 17.4007C15.879 17.372 15.887 17.3529 15.9141 17.3402C15.9618 17.3163 16.0287 17.3195 16.0876 17.3163C16.129 17.3163 16.1704 17.3147 16.2118 17.3147C16.2548 17.3147 16.2978 17.3147 16.3424 17.3147C16.4618 17.3131 16.5796 17.3115 16.699 17.3115C16.7117 17.3115 16.7261 17.3115 16.7388 17.3115L16.742 17.3131ZM16.7404 17.2701C16.8232 17.2685 16.906 17.2685 16.9872 17.2669C17.0461 17.2653 17.105 17.2638 17.1639 17.2622C17.2165 17.2606 17.269 17.2574 17.3232 17.2542C17.3741 17.251 17.4426 17.2415 17.4537 17.2335C17.4617 17.2271 17.4585 17.2192 17.4521 17.2144C17.441 17.2064 17.4266 17.1985 17.4139 17.1937C17.4075 17.1921 17.3996 17.1921 17.3948 17.1969C17.3852 17.2048 17.3789 17.208 17.3661 17.2112C17.3168 17.2255 17.2818 17.2303 17.2165 17.2367C17.1687 17.2415 17.1194 17.2446 17.0716 17.2462C16.9617 17.251 16.8949 17.2526 16.7404 17.2542C16.7261 17.2542 16.7133 17.2542 16.699 17.2542C16.5414 17.2558 16.4745 17.2558 16.3631 17.2526C16.3153 17.251 16.2659 17.2494 16.2166 17.2462C16.1513 17.2415 16.1163 17.2367 16.0669 17.2239C16.0542 17.2208 16.0494 17.2192 16.0383 17.2096C16.0335 17.2064 16.0255 17.2048 16.0191 17.2064C16.0064 17.2112 15.9921 17.2192 15.9809 17.2287C15.9746 17.2351 15.9714 17.2431 15.9793 17.2478C15.9905 17.2558 16.0589 17.2638 16.1099 17.2669C16.164 17.2701 16.2166 17.2717 16.2691 17.2717C16.328 17.2733 16.3869 17.2733 16.4459 17.2733C16.5286 17.2733 16.613 17.2717 16.6974 17.2717C16.7118 17.2717 16.7245 17.2717 16.7388 17.2717L16.7404 17.2701ZM16.7388 17.2255C16.9076 17.2239 17.0875 17.2239 17.2531 17.2064C17.3375 17.1969 17.3598 17.1523 17.363 17.1236C17.3741 17.0281 17.2308 16.9039 17.1544 16.8641C17.0525 16.81 16.9617 16.767 16.8407 16.7367C16.8248 16.732 16.8152 16.7144 16.8152 16.7017C16.8152 16.689 16.8343 16.6746 16.8455 16.6715C16.8837 16.6619 16.9235 16.6635 16.9617 16.6699C17.0254 16.6778 17.0859 16.6906 17.148 16.7081C17.2308 16.732 17.32 16.7734 17.398 16.8211C17.4999 16.8832 17.5875 16.9628 17.6511 17.0631C17.6957 17.1332 17.7308 17.2255 17.7308 17.3036C17.7323 17.4007 17.6957 17.4946 17.6432 17.5774C17.5922 17.657 17.5222 17.7223 17.4458 17.778C17.3757 17.829 17.2961 17.8688 17.2165 17.9006C17.1464 17.9293 17.0732 17.9452 16.9983 17.958C16.9506 17.9659 16.9044 17.9691 16.8582 17.9627C16.8455 17.9611 16.8248 17.9468 16.8248 17.9341C16.8232 17.9197 16.8328 17.9038 16.8471 17.899C16.8869 17.8863 16.9522 17.8656 16.9999 17.8449C17.0604 17.8178 17.1225 17.7908 17.1767 17.7526C17.2308 17.7159 17.2849 17.6729 17.3216 17.6204C17.3407 17.5917 17.3614 17.5519 17.363 17.5233C17.3646 17.5058 17.3646 17.4835 17.355 17.4676C17.3184 17.4086 17.2181 17.4118 17.1416 17.4086C17.0732 17.4055 17.0063 17.4055 16.9362 17.4039C16.8662 17.4023 16.785 17.4023 16.7149 17.4023C16.6449 17.4039 16.5637 17.4055 16.4936 17.4071C16.4252 17.4102 16.3583 17.4102 16.2882 17.415C16.2134 17.4198 16.1115 17.4182 16.0765 17.4771C16.0669 17.493 16.0669 17.5137 16.0685 17.5328C16.0701 17.5615 16.0924 17.6013 16.1115 17.6284C16.1481 17.6793 16.2022 17.7223 16.258 17.7573C16.3137 17.7924 16.3758 17.8194 16.4363 17.8449C16.4841 17.8656 16.5509 17.8847 16.5907 17.8959C16.6051 17.9006 16.6146 17.9166 16.613 17.9293C16.6114 17.942 16.5907 17.9564 16.5796 17.958C16.5318 17.9659 16.4857 17.9627 16.4395 17.9564C16.3647 17.9452 16.2914 17.9293 16.2214 17.9022C16.1402 17.872 16.0605 17.8338 15.9889 17.7828C15.9109 17.7271 15.8392 17.6634 15.7883 17.5854C15.7341 17.5042 15.6959 17.4086 15.6943 17.3131C15.6943 17.2351 15.7262 17.1427 15.7708 17.0711C15.8329 16.9692 15.9204 16.8896 16.0207 16.8243C16.0988 16.7749 16.1863 16.732 16.2691 16.7065C16.3312 16.6874 16.3917 16.6746 16.4554 16.6651C16.4952 16.6587 16.535 16.6555 16.5716 16.6651C16.5844 16.6683 16.6035 16.6826 16.6035 16.6953C16.6035 16.7097 16.5939 16.7272 16.578 16.732C16.4586 16.7654 16.3678 16.81 16.2675 16.8657C16.1927 16.9071 16.0526 17.0345 16.0637 17.13C16.0669 17.1587 16.0924 17.2032 16.1752 17.2112C16.3424 17.2271 16.5239 17.2224 16.6942 17.2208C16.707 17.2208 16.7197 17.2208 16.734 17.2208L16.7388 17.2255Z" fill="#D3D5D5"/>
<path d="M38.6077 27.8984H9.34473V29.6912H38.6077V27.8984Z" fill="#B3B3B3"/>
<path d="M38.6077 31.3392H9.34473V33.132H38.6077V31.3392Z" fill="#B3B3B3"/>
<path d="M38.6077 34.7801H9.34473V36.5729H38.6077V34.7801Z" fill="#B3B3B3"/>
<path d="M38.6077 38.2223H9.34473V40.0151H38.6077V38.2223Z" fill="#B3B3B3"/>
<path d="M44.3474 7.54221H28.8171C28.2895 7.54221 27.8618 7.96992 27.8618 8.49752V24.0278C27.8618 24.5554 28.2895 24.9831 28.8171 24.9831H44.3474C44.875 24.9831 45.3027 24.5554 45.3027 24.0278V8.49752C45.3027 7.96992 44.875 7.54221 44.3474 7.54221Z" fill="black"/>
<path d="M39.0931 19.8456H33.3278C33.1399 19.8456 32.9871 19.6927 32.9871 19.5048C32.9871 19.317 33.1399 19.1641 33.3278 19.1641H39.0931C39.4291 19.1641 39.7014 18.8918 39.7014 18.5559V18.5368C39.7014 18.2008 39.4275 17.9286 39.0931 17.9286H33.3278C33.1399 17.9286 32.9871 17.7757 32.9871 17.5878C32.9871 17.3984 33.1399 17.2471 33.3278 17.2471H39.0931C39.8048 17.2471 40.3844 17.8267 40.3844 18.5384V18.5575C40.3844 19.2692 39.8048 19.8487 39.0931 19.8487V19.8456Z" fill="white"/>
<path d="M39.6806 17.9192L39.6074 17.9081C39.4721 17.8667 39.3956 17.725 39.437 17.5896L41.0006 12.4198H32.4696L33.4663 17.6167C33.4934 17.7552 33.4026 17.8889 33.2641 17.916C33.124 17.9415 32.9918 17.8523 32.9648 17.7138L31.8518 11.9087H41.69L39.9274 17.7393C39.894 17.8491 39.7921 17.9208 39.6822 17.9208L39.6806 17.9192Z" fill="white"/>
<path d="M41.343 12.4195C41.3144 12.4195 41.2857 12.4147 41.257 12.4052C41.1233 12.3574 41.0548 12.2109 41.1026 12.0788L41.7857 10.1634H43.4161C43.5578 10.1634 43.6724 10.278 43.6724 10.4197C43.6724 10.5614 43.5578 10.676 43.4161 10.676H42.1471L41.585 12.2523C41.5484 12.3574 41.4497 12.4227 41.3446 12.4227L41.343 12.4195Z" fill="white"/>
<path d="M38.0933 21.2081C38.0933 21.8466 38.6107 22.3641 39.2492 22.3641C39.8877 22.3641 40.4051 21.8466 40.4051 21.2081C40.4051 20.5696 39.8877 20.0522 39.2492 20.0522C38.6107 20.0522 38.0933 20.5696 38.0933 21.2081Z" fill="white"/>
<path d="M32.6575 21.2081C32.6575 21.8466 33.1749 22.3641 33.8134 22.3641C34.4519 22.3641 34.9693 21.8466 34.9693 21.2081C34.9693 20.5696 34.4519 20.0522 33.8134 20.0522C33.1749 20.0522 32.6575 20.5696 32.6575 21.2081Z" fill="white"/>
<path d="M38.5199 17.7802L38.4753 17.777C38.3352 17.7531 38.2428 17.621 38.2667 17.4809L39.1631 12.3253C39.187 12.1852 39.3207 12.0929 39.4593 12.1168C39.5978 12.1406 39.6917 12.2728 39.6678 12.4129L38.7714 17.5684C38.7491 17.6926 38.6409 17.7802 38.5199 17.7802Z" fill="white"/>
<path d="M37.259 17.6688H37.2414C37.1013 17.6593 36.9947 17.5383 37.0026 17.3966L37.3386 12.2968C37.3481 12.1551 37.4707 12.0484 37.6108 12.0579C37.7509 12.0675 37.8592 12.1885 37.8497 12.3302L37.5137 17.43C37.5042 17.5653 37.3927 17.6688 37.259 17.6688Z" fill="white"/>
<path d="M34.6255 17.7805C34.5013 17.7805 34.3931 17.6914 34.3724 17.564L33.5604 12.4085C33.5381 12.2684 33.6336 12.1378 33.7737 12.1155C33.9138 12.0932 34.0444 12.1887 34.0667 12.3289L34.8787 17.4844C34.901 17.6229 34.8055 17.7551 34.6653 17.7774L34.6255 17.7805Z" fill="white"/>
<path d="M35.9707 17.6693C35.8354 17.6693 35.7223 17.5626 35.7159 17.4272L35.4644 12.3274C35.458 12.1857 35.5663 12.0663 35.7064 12.0599C35.8449 12.052 35.9675 12.1618 35.9739 12.3036L36.2254 17.4018C36.2318 17.5435 36.1235 17.6629 35.9818 17.6693H35.9691H35.9707Z" fill="white"/>
<path d="M40.789 14.1945H32.7197C32.578 14.1945 32.4634 14.0798 32.4634 13.9381C32.4634 13.7964 32.578 13.6818 32.7197 13.6818H40.789C40.9307 13.6818 41.0453 13.7964 41.0453 13.9381C41.0453 14.0798 40.9307 14.1945 40.789 14.1945Z" fill="white"/>
<path d="M40.1167 15.9874H33.0012C32.8595 15.9874 32.7449 15.8728 32.7449 15.731C32.7449 15.5893 32.8595 15.4747 33.0012 15.4747H40.1167C40.2584 15.4747 40.3731 15.5893 40.3731 15.731C40.3731 15.8728 40.2584 15.9874 40.1167 15.9874Z" fill="white"/>
</svg>
