<svg width="20" height="20" viewBox="0 0 20 20" fill="none" xmlns="http://www.w3.org/2000/svg">
<rect x="3.33325" y="13.3335" width="4.16667" height="3.33333" fill="#F8F8F8"/>
<rect x="11.6665" y="13.3335" width="4.16667" height="3.33333" fill="#F8F8F8"/>
<rect x="11.6665" y="7.5" width="4.16667" height="3.33333" fill="#F8F8F8"/>
<path d="M15.9565 6.64266C15.6573 6.1435 15.1098 5.8335 14.5282 5.8335H12.4998V4.16683C12.4998 3.706 12.1273 3.3335 11.6665 3.3335H3.33317C2.414 3.3335 1.6665 4.081 1.6665 5.00016V13.3335C1.6665 13.9552 2.01317 14.4927 2.519 14.7785C2.6215 16.2943 3.87484 17.5002 5.4165 17.5002C6.88234 17.5002 8.0865 16.4093 8.29067 15.0002H10.8757C11.0798 16.4093 12.284 17.5002 13.7498 17.5002C15.2157 17.5002 16.4198 16.4093 16.624 15.0002H16.6665C17.5857 15.0002 18.3332 14.2527 18.3332 13.3335V10.8335C18.3332 10.6818 18.2923 10.5343 18.214 10.4043L15.9565 6.64266ZM12.4998 7.50016H14.5282L16.0282 10.0002H12.4998V7.50016ZM5.4165 15.8335C4.72734 15.8335 4.1665 15.2727 4.1665 14.5835C4.1665 13.8943 4.72734 13.3335 5.4165 13.3335C6.10567 13.3335 6.6665 13.8943 6.6665 14.5835C6.6665 15.2727 6.10567 15.8335 5.4165 15.8335ZM13.7498 15.8335C13.0607 15.8335 12.4998 15.2727 12.4998 14.5835C12.4998 13.8943 13.0607 13.3335 13.7498 13.3335C14.439 13.3335 14.9998 13.8943 14.9998 14.5835C14.9998 15.2727 14.439 15.8335 13.7498 15.8335Z" fill="black"/>
<rect x="3.3335" y="5.8335" width="6.66667" height="4.16667" fill="#C80000"/>
</svg>
