<svg width="14" height="20" viewBox="0 0 14 20" fill="none" xmlns="http://www.w3.org/2000/svg">
<path d="M8 5.101C8.003 5.101 8.007 5.101 8.01 5.102C8.328 5.167 8.644 5.265 8.947 5.393C9.243 5.518 9.528 5.674 9.796 5.854C10.06 6.032 10.309 6.237 10.536 6.464C10.763 6.691 10.97 6.941 11.147 7.204C11.329 7.475 11.484 7.76 11.608 8.055C11.735 8.353 11.833 8.668 11.899 8.992C11.966 9.321 12 9.66 12 10C12 10.34 11.966 10.679 11.898 11.008C11.832 11.332 11.734 11.647 11.606 11.946C11.483 12.239 11.328 12.525 11.147 12.794C10.968 13.058 10.762 13.308 10.535 13.535L11.949 14.949C12.266 14.632 12.554 14.283 12.804 13.912C13.058 13.535 13.276 13.135 13.449 12.725C13.627 12.305 13.764 11.862 13.857 11.409C13.952 10.949 14 10.475 14 10C14 9.525 13.952 9.051 13.857 8.59C13.764 8.136 13.627 7.694 13.45 7.276C13.276 6.864 13.058 6.464 12.804 6.086C12.555 5.716 12.267 5.368 11.95 5.051C11.633 4.733 11.284 4.446 10.915 4.197C10.542 3.945 10.142 3.727 9.727 3.551C9.302 3.371 8.859 3.234 8.412 3.143C8.275 3.115 8.137 3.1 8 3.08V0L4 4L8 8V5.101ZM0.55 12.724C0.724 13.136 0.942 13.536 1.196 13.914C1.445 14.284 1.733 14.632 2.05 14.948C2.364 15.264 2.714 15.552 3.086 15.803C3.459 16.055 3.859 16.273 4.274 16.449C4.699 16.629 5.142 16.766 5.589 16.857C5.756 16.891 5.927 16.913 6.097 16.935V19.879L10.097 15.879L6.097 11.879V14.909C6.062 14.903 6.025 14.906 5.99 14.898C5.672 14.833 5.356 14.735 5.053 14.607C4.757 14.482 4.472 14.326 4.204 14.146C3.937 13.967 3.689 13.762 3.464 13.536C3.236 13.308 3.03 13.059 2.853 12.796C2.671 12.525 2.516 12.24 2.392 11.945C2.265 11.647 2.167 11.332 2.101 11.008C2.034 10.679 2 10.34 2 10C2 9.66 2.034 9.321 2.102 8.992C2.168 8.668 2.266 8.353 2.394 8.054C2.517 7.76 2.672 7.475 2.853 7.206C3.032 6.942 3.238 6.692 3.465 6.465L2.051 5.05C1.733 5.368 1.445 5.716 1.195 6.087C0.941 6.464 0.724 6.864 0.551 7.274C0.373 7.694 0.236 8.137 0.143 8.59C0.0480001 9.051 0 9.525 0 10C0 10.475 0.0480001 10.949 0.143 11.41C0.235 11.863 0.373 12.306 0.55 12.724Z" fill="#888888"/>
</svg>
