<svg width="48" height="48" viewBox="0 0 48 48" fill="none" xmlns="http://www.w3.org/2000/svg">
<path d="M24 48C37.2548 48 48 37.2548 48 24C48 10.7452 37.2548 0 24 0C10.7452 0 0 10.7452 0 24C0 37.2548 10.7452 48 24 48Z" fill="#940A0A"/>
<path fill-rule="evenodd" clip-rule="evenodd" d="M36.2898 6.5874C34.7702 6.5874 33.5326 7.825 33.5326 9.35241V35.7493C33.5326 37.2688 32.2949 38.5064 30.7754 38.5064H7.89551V9.36024C7.89551 7.83283 9.13307 6.59523 10.6527 6.59523H36.2898V6.5874Z" fill="white"/>
<path fill-rule="evenodd" clip-rule="evenodd" d="M30.5952 38.491V38.4988H7.71528C6.95549 38.4988 6.2662 38.1933 5.76489 37.692C5.26359 37.1907 4.95813 36.5093 4.95813 35.7417V34.4492H28.0103V35.7417C28.0103 36.5093 28.3158 37.1907 28.8171 37.692C29.2792 38.162 29.8981 38.4518 30.5952 38.491Z" fill="#B3B3B3"/>
<path d="M29.7258 14.6943H11.4517V15.7753H29.7258V14.6943Z" fill="#B3B3B3"/>
<path d="M29.7258 17.2324H11.4517V18.3134H29.7258V17.2324Z" fill="#B3B3B3"/>
<path d="M13.1529 10.4403C13.444 10.4403 13.6697 10.5082 13.83 10.6438C13.9928 10.7795 14.0742 10.962 14.0742 11.1914C14.0742 11.374 14.031 11.5244 13.9447 11.6428C13.8608 11.7588 13.74 11.8439 13.5821 11.8981L14.2185 12.8823H13.5155L12.9938 11.9906H12.6127V12.8823H11.9874V10.4403H13.1529ZM13.0641 11.5392C13.1874 11.5392 13.2799 11.5146 13.3416 11.4652C13.4033 11.4159 13.4341 11.337 13.4341 11.2284C13.4341 11.0237 13.3108 10.9213 13.0641 10.9213H12.6127V11.5392H13.0641ZM14.5384 12.8823V10.4403H16.4402V10.9324H15.1748V11.4282H16.1812V11.8907H15.1748V12.3902H16.4883V12.8823H14.5384ZM17.861 12.9193C17.6439 12.9193 17.4503 12.8712 17.2801 12.775C17.1123 12.6788 16.9816 12.537 16.8879 12.3495C16.7941 12.1621 16.7473 11.9339 16.7473 11.665C16.7473 11.4036 16.7966 11.1791 16.8953 10.9916C16.9939 10.8017 17.1345 10.6562 17.3171 10.555C17.5021 10.4539 17.7191 10.4033 17.9683 10.4033C18.247 10.4033 18.4702 10.4539 18.638 10.555C18.8082 10.6537 18.9401 10.8116 19.0339 11.0286L18.4456 11.2617C18.4135 11.1359 18.3568 11.0447 18.2754 10.9879C18.194 10.9312 18.0928 10.9028 17.972 10.9028C17.7894 10.9028 17.6476 10.9682 17.5465 11.0989C17.4478 11.2272 17.3985 11.4147 17.3985 11.6613C17.3985 11.9228 17.449 12.1177 17.5502 12.2459C17.6513 12.3717 17.803 12.4346 18.0053 12.4346C18.1459 12.4346 18.263 12.4013 18.3568 12.3347C18.4505 12.2681 18.4974 12.1658 18.4974 12.0276V11.9906H17.9387V11.5651H19.0376V12.8823H18.6047L18.5788 12.5826C18.5097 12.6912 18.4147 12.775 18.2939 12.8342C18.1755 12.891 18.0312 12.9193 17.861 12.9193ZM21.6596 10.4403V11.887C21.6596 12.5752 21.2958 12.9193 20.5681 12.9193C20.2104 12.9193 19.9391 12.8342 19.7541 12.664C19.5691 12.4914 19.4766 12.2324 19.4766 11.887V10.4403H20.1167V11.8981C20.1167 12.2459 20.2672 12.4198 20.5681 12.4198C20.8715 12.4198 21.0232 12.2459 21.0232 11.8981V10.4403H21.6596ZM22.7879 12.3902H24.0126V12.8823H22.1515V10.4403H22.7879V12.3902ZM24.122 12.8823L24.9804 10.4403H25.7426L26.5973 12.8823H25.9424L25.7759 12.331H24.9323L24.7621 12.8823H24.122ZM25.2505 11.3098L25.0655 11.8981H25.6427L25.4651 11.3135L25.3578 10.9287H25.3504L25.2505 11.3098ZM27.8251 10.4033C28.052 10.4033 28.2518 10.4391 28.4245 10.5106C28.5996 10.5797 28.7513 10.6821 28.8796 10.8177L28.5725 11.2284C28.4664 11.1174 28.3517 11.0348 28.2284 10.9805C28.1075 10.9238 27.9694 10.8954 27.814 10.8954C27.6783 10.8954 27.5809 10.9176 27.5217 10.962C27.4625 11.0064 27.4329 11.0607 27.4329 11.1248C27.4329 11.1766 27.4563 11.221 27.5032 11.258C27.5525 11.2926 27.6315 11.3222 27.74 11.3468L28.1507 11.4393C28.3949 11.4961 28.5737 11.5787 28.6872 11.6872C28.8007 11.7958 28.8574 11.9401 28.8574 12.1201C28.8574 12.2928 28.813 12.4396 28.7242 12.5604C28.6354 12.6788 28.5133 12.7689 28.3579 12.8305C28.2025 12.8897 28.0249 12.9193 27.8251 12.9193C27.5784 12.9193 27.3527 12.8799 27.148 12.8009C26.9433 12.7195 26.7805 12.6135 26.6596 12.4827L26.9667 12.0572C27.058 12.1633 27.1813 12.2521 27.3367 12.3236C27.4921 12.3927 27.6524 12.4272 27.8177 12.4272C28.0742 12.4272 28.2025 12.352 28.2025 12.2015C28.2025 12.1497 28.1828 12.1066 28.1433 12.072C28.1063 12.035 28.0372 12.0042 27.9361 11.9795L27.4847 11.8796C27.3466 11.85 27.2232 11.8081 27.1147 11.7538C27.0086 11.6996 26.9248 11.628 26.8631 11.5392C26.8014 11.448 26.7706 11.3345 26.7706 11.1988C26.7706 11.0459 26.8125 10.9102 26.8964 10.7918C26.9803 10.671 27.1011 10.576 27.259 10.5069C27.4169 10.4379 27.6056 10.4033 27.8251 10.4033ZM29.8917 10.4403V12.8823H29.2553V10.4403H29.8917Z" fill="#292827"/>
<path d="M29.7258 19.6528H11.4517V20.7338H29.7258V19.6528Z" fill="#B3B3B3"/>
<path d="M29.7258 22.0654H11.4517V23.1464H29.7258V22.0654Z" fill="#B3B3B3"/>
<path d="M29.7258 24.4775H11.4517V25.5585H29.7258V24.4775Z" fill="#B3B3B3"/>
<path d="M29.7258 26.8979H11.4517V27.9789H29.7258V26.8979Z" fill="#B3B3B3"/>
<path d="M29.7258 31.1904H11.4517V32.2714H29.7258V31.1904Z" fill="#B3B3B3"/>
<path fill-rule="evenodd" clip-rule="evenodd" d="M32.5926 32.9609H11.342C10.3081 32.9609 9.46997 32.1228 9.46997 31.0889C9.46997 30.0549 10.3081 29.2168 11.342 29.2168H32.5926V32.9609Z" fill="#1A1A1A"/>
<path d="M40.0887 26.0835H32.5927V36.0783H40.0887V26.0835Z" fill="#6D6E6E"/>
<path d="M40.0965 26.0835H36.3446V36.0783H40.0965V26.0835Z" fill="#1A1A1A"/>
<path fill-rule="evenodd" clip-rule="evenodd" d="M32.5926 23.585H40.0887C40.778 23.585 41.342 24.1411 41.342 24.8382C41.342 25.5275 40.7858 26.0915 40.0887 26.0915H32.5926C31.9033 26.0915 31.3394 25.5354 31.3394 24.8382C31.3472 24.1489 31.9033 23.585 32.5926 23.585Z" fill="#1A1A1A"/>
<path fill-rule="evenodd" clip-rule="evenodd" d="M32.5926 36.0864H40.0887C40.778 36.0864 41.342 36.6426 41.342 37.3397C41.342 38.0368 40.7858 38.5929 40.0887 38.5929H32.5926C31.9033 38.5929 31.3394 38.0368 31.3394 37.3397C31.3472 36.6426 31.9033 36.0864 32.5926 36.0864Z" fill="#1A1A1A"/>
<path fill-rule="evenodd" clip-rule="evenodd" d="M42.5952 42.9556H30.0939V41.7023C30.0939 41.3577 30.3759 41.0757 30.7205 41.0757H41.9686C42.3132 41.0757 42.5952 41.3577 42.5952 41.7023V42.9556Z" fill="#6D6E6E"/>
<path fill-rule="evenodd" clip-rule="evenodd" d="M40.0966 39.2114H32.6005C32.2559 39.2114 31.9739 39.4934 31.9739 39.8381V41.0913H40.7232V39.8381C40.7232 39.4856 40.4412 39.2114 40.0966 39.2114Z" fill="#6D6E6E"/>
<path fill-rule="evenodd" clip-rule="evenodd" d="M32.5926 32.9609H11.342C10.3081 32.9609 9.46997 32.1228 9.46997 31.0889H32.5926V32.9609Z" fill="#6D6E6E"/>
<path fill-rule="evenodd" clip-rule="evenodd" d="M40.0965 26.0838H32.6004C31.9111 26.0838 31.3472 25.5277 31.3472 24.8306H41.3419C41.3419 25.5277 40.7858 26.0838 40.0965 26.0838Z" fill="#1A1A1A"/>
<path fill-rule="evenodd" clip-rule="evenodd" d="M40.0965 38.5848H32.6004C31.9111 38.5848 31.3472 38.0287 31.3472 37.3315H41.3419C41.3419 38.0208 40.7858 38.5848 40.0965 38.5848Z" fill="#1A1A1A"/>
<path fill-rule="evenodd" clip-rule="evenodd" d="M42.5952 37.9582C42.4386 37.9582 42.2741 37.8955 42.1566 37.778C41.9138 37.5352 41.9138 37.1357 42.1566 36.8929L43.4098 35.6396C43.6527 35.3968 44.0521 35.3968 44.295 35.6396C44.5378 35.8825 44.5378 36.2819 44.295 36.5248L43.0417 37.778C42.9164 37.8955 42.7519 37.9582 42.5952 37.9582Z" fill="#1A1A1A"/>
<path fill-rule="evenodd" clip-rule="evenodd" d="M30.094 37.9582C29.9373 37.9582 29.7728 37.8955 29.6553 37.778L28.4021 36.5248C28.1593 36.2819 28.1593 35.8825 28.4021 35.6396C28.6449 35.3968 29.0444 35.3968 29.2872 35.6396L30.5405 36.8929C30.7833 37.1357 30.7833 37.5352 30.5405 37.778C30.4151 37.8955 30.2585 37.9582 30.094 37.9582Z" fill="#1A1A1A"/>
<path fill-rule="evenodd" clip-rule="evenodd" d="M36.556 41.0838H40.7231V39.8306H37.1827C36.8381 39.8306 36.556 40.1125 36.556 40.4572V41.0838Z" fill="#1A1A1A"/>
<path fill-rule="evenodd" clip-rule="evenodd" d="M36.556 42.9559H42.5952V41.7026H37.1827C36.8381 41.7026 36.556 41.9846 36.556 42.3293V42.9559Z" fill="#1A1A1A"/>
</svg>
