<svg width="30" height="29" viewBox="0 0 30 29" fill="none" xmlns="http://www.w3.org/2000/svg">
<path d="M15.4433 28.5107C23.3163 28.5107 29.6987 22.1283 29.6987 14.2553C29.6987 6.38233 23.3163 0 15.4433 0C7.57032 0 1.18799 6.38233 1.18799 14.2553C1.18799 22.1283 7.57032 28.5107 15.4433 28.5107Z" fill="#940A0A"/>
<path fill-rule="evenodd" clip-rule="evenodd" d="M1.35426 1.18799H15.1047C15.8531 1.18799 16.459 1.79978 16.459 2.54224V15.7463C16.459 16.4947 15.8472 17.1005 15.1047 17.1005H1.35426C0.605851 17.1005 0 16.4887 0 15.7463V2.54224C0 1.79978 0.605851 1.18799 1.35426 1.18799Z" fill="#E51314"/>
<path fill-rule="evenodd" clip-rule="evenodd" d="M8.76695 8.0545C8.29178 7.11602 7.09194 7.22294 6.2485 7.50211C5.64859 7.70406 5.51197 7.69218 5.42881 7.98322C5.41099 8.04856 5.36942 8.2505 5.33972 8.3099C5.45258 8.29802 6.37324 7.98916 6.66429 8.31585C7.12758 8.84448 6.1 11.3451 6.0406 12.1172C5.99309 12.7053 5.9931 13.026 6.31384 13.3587C7.12165 14.1962 9.38467 13.6735 9.47376 13.1745C9.49752 13.0498 9.52129 12.9726 9.52129 12.8419C9.4025 12.8538 9.26588 12.9072 9.14114 12.9369C8.98671 12.9726 8.89167 12.9726 8.69566 12.9726C8.39868 12.9666 8.16703 12.8954 8.10763 12.6399C7.84629 11.5411 9.25401 9.15929 8.76695 8.0545Z" fill="white"/>
<path fill-rule="evenodd" clip-rule="evenodd" d="M8.32734 6.65254C8.99853 6.65254 9.55092 6.08828 9.55092 5.39927C9.55092 4.71026 9.00447 4.146 8.32734 4.146C7.65615 4.146 7.10376 4.71026 7.10376 5.39927C7.10376 6.08828 7.65021 6.65254 8.32734 6.65254Z" fill="white"/>
<path d="M29.0245 14.915H13.454V26.5942H29.0245V14.915Z" fill="#1A1A1A"/>
<path fill-rule="evenodd" clip-rule="evenodd" d="M16.3699 24.644H13.4488C12.9116 24.644 12.4734 25.0822 12.4734 25.6195V26.5949H17.3401V25.6195C17.3453 25.0822 16.9072 24.644 16.3699 24.644Z" fill="white"/>
<path fill-rule="evenodd" clip-rule="evenodd" d="M22.6973 24.644H19.7762C19.2389 24.644 18.8008 25.0822 18.8008 25.6195V26.5949H23.6675V25.6195C23.6675 25.0822 23.2346 24.644 22.6973 24.644Z" fill="white"/>
<path fill-rule="evenodd" clip-rule="evenodd" d="M29.0193 24.644H26.0982C25.561 24.644 25.1228 25.0822 25.1228 25.6195V26.5949H29.9895V25.6195C29.9948 25.0822 29.5566 24.644 29.0193 24.644Z" fill="white"/>
<path fill-rule="evenodd" clip-rule="evenodd" d="M29.9948 26.5894H12.4786V27.5648C12.4786 28.1021 12.9168 28.5402 13.4541 28.5402H29.0246C29.5618 28.5402 30 28.1021 30 27.5648V26.5894H29.9948Z" fill="#6D6E6E"/>
<path d="M16.3751 16.8608H13.454V24.6435H16.3751V16.8608Z" fill="#6D6E6E"/>
<path d="M22.6972 16.8608H19.7761V24.6435H22.6972V16.8608Z" fill="#6D6E6E"/>
<path d="M29.0245 16.8608H26.1034V24.6435H29.0245V16.8608Z" fill="#6D6E6E"/>
<path fill-rule="evenodd" clip-rule="evenodd" d="M21.2367 7.12744C20.6055 7.12744 19.99 7.33088 19.4841 7.71167L12.8699 12.6723C12.6247 12.8549 12.4786 13.147 12.4786 13.4495V14.9101H29.9948V13.4495C29.9948 13.1418 29.8487 12.8549 29.6036 12.6723L22.9841 7.71167C22.4834 7.3361 21.8679 7.12744 21.2367 7.12744Z" fill="white"/>
<path fill-rule="evenodd" clip-rule="evenodd" d="M20.3604 8.88L15.6918 12.3853C15.6083 12.4479 15.5614 12.5418 15.5614 12.6461C15.5614 12.8235 15.7075 12.9695 15.8848 12.9695H26.5886C26.7659 12.9695 26.912 12.8235 26.912 12.6461C26.912 12.5418 26.865 12.4479 26.7816 12.3853L22.113 8.88C21.8626 8.69221 21.5549 8.58789 21.2367 8.58789C20.9237 8.58789 20.616 8.69221 20.3604 8.88Z" fill="#6D6E6E"/>
<path fill-rule="evenodd" clip-rule="evenodd" d="M16.3699 16.861H13.4488C12.9116 16.861 12.4734 16.4229 12.4734 15.8856V14.9102H17.3401V15.8856C17.3453 16.4229 16.9072 16.861 16.3699 16.861Z" fill="#6D6E6E"/>
<path fill-rule="evenodd" clip-rule="evenodd" d="M22.6973 16.861H19.7762C19.2389 16.861 18.8008 16.4229 18.8008 15.8856V14.9102H23.6675V15.8856C23.6675 16.4229 23.2346 16.861 22.6973 16.861Z" fill="#6D6E6E"/>
<path fill-rule="evenodd" clip-rule="evenodd" d="M29.0193 16.861H26.0982C25.561 16.861 25.1228 16.4229 25.1228 15.8856V14.9102H29.9895V15.8856C29.9948 16.4229 29.5566 16.861 29.0193 16.861Z" fill="#6D6E6E"/>
<path fill-rule="evenodd" clip-rule="evenodd" d="M14.9145 24.6435H13.454V17.8311H13.9391C14.4764 17.8311 14.9145 18.2692 14.9145 18.8065V24.6435Z" fill="white"/>
<path fill-rule="evenodd" clip-rule="evenodd" d="M21.2367 24.6435H19.7761V17.8311H20.2612C20.7985 17.8311 21.2367 18.2692 21.2367 18.8065V24.6435Z" fill="white"/>
<path fill-rule="evenodd" clip-rule="evenodd" d="M27.5639 24.6435H26.1034V17.8311H26.5885C27.1258 17.8311 27.5639 18.2692 27.5639 18.8065V24.6435Z" fill="white"/>
</svg>
