<svg width="48" height="48" viewBox="0 0 48 48" fill="none" xmlns="http://www.w3.org/2000/svg">
<path d="M24 48C37.2548 48 48 37.2548 48 24C48 10.7452 37.2548 0 24 0C10.7452 0 0 10.7452 0 24C0 37.2548 10.7452 48 24 48Z" fill="#C80000"/>
<path d="M2.79932 22.3581V25.6321C2.79932 25.9276 3.01194 26.1834 3.30834 26.2294L6.94452 26.8087C7.14182 27.9457 7.43012 29.043 7.83284 30.0881L4.96336 32.4152C4.73542 32.5927 4.67506 32.9215 4.81921 33.1783L6.45891 36.0171C6.61117 36.2739 6.91479 36.3856 7.18777 36.2802L10.642 34.9522C11.3636 35.8325 12.1681 36.6343 13.0411 37.3577L11.7204 40.8029C11.6141 41.0786 11.7276 41.3876 11.9861 41.539L14.8259 43.176C15.0764 43.321 15.4025 43.2679 15.5854 43.0309L17.908 40.1723C18.9558 40.566 20.0567 40.8633 21.1874 41.0471L21.7721 44.6877C21.8099 44.9841 22.0685 45.2013 22.364 45.2013H25.6443C25.9407 45.2013 26.1912 44.9841 26.229 44.6877L26.8137 41.0471C27.9453 40.8633 29.0381 40.566 30.0931 40.1723L32.4085 43.0309C32.6058 43.2679 32.9248 43.321 33.1752 43.176L36.0222 41.539C36.2726 41.3876 36.379 41.0786 36.2808 40.8029L34.96 37.3577C35.833 36.6352 36.6375 35.8334 37.3592 34.9522L40.8061 36.2802C41.0872 36.3847 41.3909 36.273 41.535 36.0171L43.1819 33.1783C43.3261 32.9215 43.2657 32.5927 43.0378 32.4152L40.1683 30.0881C40.5629 29.043 40.8593 27.9457 41.0485 26.8087L44.7 26.2294C44.9883 26.1834 45.2009 25.9276 45.2009 25.6321V22.3581C45.2009 22.0617 44.9883 21.8121 44.7 21.7662L41.0485 21.1878C40.8584 20.058 40.5629 18.9598 40.1683 17.9075L43.0378 15.5885C43.2657 15.3975 43.3261 15.0695 43.1819 14.8128L41.535 11.9802C41.3909 11.7298 41.0872 11.6108 40.8061 11.7234L37.3592 13.0379C36.6384 12.1631 35.833 11.355 34.96 10.6378L36.2808 7.19445C36.379 6.91787 36.2735 6.60254 36.0222 6.45839L33.1752 4.82139C32.9248 4.67003 32.6058 4.7358 32.4085 4.96014L30.0931 7.83231C29.0381 7.4314 27.9444 7.1422 26.8137 6.9521L26.229 3.30422C26.1912 3.01502 25.9407 2.8042 25.6443 2.8042H22.364C22.0676 2.8042 21.8099 3.01412 21.7721 3.30422L21.1874 6.9521C20.0567 7.1422 18.9558 7.4323 17.908 7.83231L15.5854 4.96014C15.4034 4.7358 15.0764 4.67094 14.8259 4.82139L11.9861 6.45839C11.7276 6.60254 11.6141 6.91877 11.7204 7.19445L13.0411 10.6378C12.1681 11.355 11.3636 12.1631 10.642 13.0379L7.18777 11.7234C6.91479 11.6108 6.61027 11.7298 6.45891 11.9802L4.81921 14.8128C4.67506 15.0695 4.73542 15.3975 4.96336 15.5885L7.83284 17.9075C7.43012 18.9598 7.14182 20.058 6.94452 21.1878L3.30834 21.7662C3.01194 21.8121 2.79932 22.0626 2.79932 22.3581Z" fill="black"/>
<path d="M9.29785 23.9969C9.29785 32.1153 15.8801 38.6975 24.0029 38.6975C32.1185 38.6975 38.6936 32.1162 38.6936 23.9969C38.6936 15.8786 32.1185 9.29639 24.0029 9.29639C15.8792 9.29639 9.29785 15.8777 9.29785 23.9969Z" fill="white"/>
<path d="M24.0037 45.1969H22.364C22.0676 45.1969 21.8099 44.9798 21.7721 44.6833L21.1874 41.0427C20.0567 40.8589 18.9558 40.5616 17.908 40.1679L15.5854 43.0265C15.4719 43.1752 15.3043 43.2518 15.1223 43.2518C15.0232 43.2518 14.9178 43.2247 14.8259 43.1716L11.9861 41.5346C11.7888 41.4211 11.6825 41.2184 11.6825 41.0084C11.6825 40.9391 11.6978 40.867 11.7204 40.7985L13.0411 37.3533C12.1681 36.6308 11.3636 35.829 10.642 34.9479L7.18777 36.2758C7.1193 36.3029 7.05083 36.3146 6.98326 36.3146C6.77874 36.3146 6.57333 36.2047 6.45891 36.0128L4.81921 33.1739C4.76606 33.0793 4.73542 32.9757 4.73542 32.8721C4.74263 32.6964 4.81921 32.5234 4.96336 32.4108L7.83284 30.0837C7.43012 29.0386 7.14182 27.9413 6.94452 26.8043L3.30834 26.225C3.01194 26.1791 2.79932 25.9232 2.79932 25.6277V22.3537C2.79932 22.0573 3.01194 21.8077 3.30834 21.7618L6.94452 21.1834C7.14182 20.0536 7.43012 18.9554 7.83284 17.9031L4.96336 15.5841C4.81921 15.4624 4.74353 15.2877 4.73542 15.1102C4.73542 15.0066 4.76606 14.903 4.81921 14.8084L6.45891 11.9758C6.57333 11.7893 6.77064 11.6767 6.97515 11.6767C7.05173 11.6767 7.1193 11.6902 7.18777 11.7191L10.642 13.0335C11.3636 12.1587 12.1681 11.3506 13.0411 10.6334L11.7204 7.19006C11.6978 7.12069 11.6825 7.04951 11.6825 6.97834C11.6825 6.76662 11.7888 6.56211 11.9861 6.45399L14.8259 4.817C14.9169 4.76204 15.0232 4.73591 15.1223 4.73591C15.2971 4.73591 15.4719 4.81429 15.5854 4.95574L17.908 7.82792C18.9558 7.427 20.0567 7.1378 21.1874 6.94771L21.7721 3.29982C21.8099 3.01062 22.0685 2.7998 22.364 2.7998H24.0037V9.29554C15.88 9.29554 9.29866 15.8769 9.29866 23.9961C9.29866 32.1144 15.8809 38.6966 24.0037 38.6966V45.196V45.1969Z" fill="black"/>
<path d="M24.0039 38.6975C15.8802 38.6975 9.29883 32.1162 9.29883 23.9969C9.29883 15.8786 15.8811 9.29639 24.0039 9.29639V10.2784C16.4198 10.2784 10.2772 16.4201 10.2772 23.996C10.2772 31.5729 16.4189 37.7137 24.0039 37.7137V38.6957V38.6975Z" fill="white"/>
<path d="M24.0001 13.7528C18.3404 13.7528 13.7528 18.3404 13.7528 24.0001C13.7528 29.6597 18.3404 34.2473 24.0001 34.2473C29.6597 34.2473 34.2473 29.6597 34.2473 24.0001C34.2473 18.3404 29.6597 13.7528 24.0001 13.7528ZM36.1447 24.0001C36.1447 30.7075 30.7075 36.1447 24.0001 36.1447C17.2926 36.1447 11.8555 30.7075 11.8555 24.0001C11.8555 17.2926 17.2926 11.8555 24.0001 11.8555C30.7075 11.8555 36.1447 17.2926 36.1447 24.0001Z" fill="#292827"/>
<path d="M23.9998 30.8668C24.9945 30.8668 25.9359 30.6272 26.7765 30.1992C26.1287 31.8641 25.9711 33.6047 25.9404 34.0606C25.3116 34.1813 24.6638 34.2462 23.9998 34.2462C23.3358 34.2462 22.6881 34.1804 22.0592 34.0606C22.0277 33.6047 21.8709 31.8641 21.2231 30.1992C22.0637 30.6263 23.0061 30.8668 23.9998 30.8668Z" fill="#B3B3B3"/>
<path d="M29.8002 20.9915C28.165 20.6555 26.1731 20.3843 24 20.3843C21.827 20.3843 19.835 20.6555 18.1998 20.9915C17.7836 21.8997 17.5493 22.9204 17.5493 23.9988C17.5493 25.0367 17.7664 26.0214 18.1538 26.9043C18.28 26.9485 18.4079 26.9953 18.5385 27.0485C19.8719 27.5836 20.7044 28.8666 21.2224 30.1991C22.063 30.6261 23.0054 30.8667 23.9991 30.8667C24.9937 30.8667 25.9352 30.627 26.7758 30.1991C27.2938 28.8666 28.1263 27.5836 29.4597 27.0485C29.5912 26.9953 29.7191 26.9485 29.8453 26.9043C30.2327 26.0214 30.4498 25.0376 30.4498 23.9988C30.4498 22.9204 30.2156 21.8997 29.7993 20.9915H29.8002ZM26.3145 23.9475C26.3145 25.2259 25.2784 26.262 24 26.262C22.7216 26.262 21.6855 25.2259 21.6855 23.9475C21.6855 22.669 22.7216 21.633 24 21.633C25.2784 21.633 26.3145 22.669 26.3145 23.9475Z" fill="black"/>
<path d="M29.8453 26.9045C30.2327 26.0216 30.4498 25.0378 30.4498 23.999C30.4498 22.9206 30.2155 21.8998 29.7993 20.9917C31.9012 21.4241 33.4094 21.962 33.9598 22.1728C34.0679 22.7656 34.1256 23.3756 34.1256 23.9999C34.1256 24.9234 34.0004 25.818 33.767 26.6694C33.3778 26.5288 31.9895 26.1477 29.8453 26.9045Z" fill="#B3B3B3"/>
<path d="M14.2321 26.6694C13.9988 25.818 13.8735 24.9234 13.8735 23.9999C13.8735 23.3765 13.9312 22.7665 14.0402 22.1728C14.5898 21.962 16.0979 21.4241 18.2007 20.9917C17.7845 21.8998 17.5502 22.9206 17.5502 23.999C17.5502 25.0369 17.7674 26.0216 18.1548 26.9045C16.0106 26.1477 14.6213 26.5279 14.2321 26.6694Z" fill="#B3B3B3"/>
</svg>
