<svg width="16" height="16" viewBox="0 0 16 16" fill="none" xmlns="http://www.w3.org/2000/svg">
<rect y="3.2002" width="16" height="8.8" fill="white"/>
<path d="M6.3999 8H9.5999V9.6H6.3999V8Z" fill="#FF0000"/>
<path d="M12.9806 9.40613H10.3438V9.87488C10.3438 10.1339 10.134 10.3436 9.875 10.3436H6.125C5.86597 10.3436 5.65625 10.1339 5.65625 9.87488V9.40613H3.01941C2.41333 9.40613 1.87732 9.01978 1.68542 8.44482L0 3.3877V13.6249C0 14.4003 0.630859 15.0311 1.40625 15.0311H14.5938C15.3691 15.0311 16 14.4003 16 13.6249V3.38806L14.3145 8.44482C14.1227 9.01978 13.5867 9.40613 12.9806 9.40613Z" fill="black"/>
<path d="M9.86829 0.799805H6.11829C5.3429 0.799805 4.71204 1.43066 4.71204 2.20605V3.1998H0.799805L2.56775 7.97937C2.63184 8.17114 2.81079 8.2998 3.0127 8.2998H5.64954V7.83105C5.64954 7.57202 5.85925 7.3623 6.11829 7.3623H9.86829C10.1273 7.3623 10.337 7.57202 10.337 7.83105V8.2998H12.9739C13.1758 8.2998 13.3547 8.17114 13.4188 7.97937L15.1869 3.1998H11.2745V2.20605C11.2745 1.43066 10.6437 0.799805 9.86829 0.799805ZM5.64954 3.1998V2.20605C5.64954 1.94739 5.85962 1.7373 6.11829 1.7373H9.86829C10.127 1.7373 10.337 1.94739 10.337 2.20605V3.1998H5.64954Z" fill="black"/>
</svg>
