<svg width="52" height="48" viewBox="0 0 52 48" fill="none" xmlns="http://www.w3.org/2000/svg">
<path d="M26 48C39.2548 48 50 37.2548 50 24C50 10.7452 39.2548 0 26 0C12.7452 0 2 10.7452 2 24C2 37.2548 12.7452 48 26 48Z" fill="#940A0A"/>
<path fill-rule="evenodd" clip-rule="evenodd" d="M2.28 2H25.43C26.69 2 27.71 3.03 27.71 4.28V26.51C27.71 27.77 26.68 28.79 25.43 28.79H2.28C1.02 28.79 0 27.76 0 26.51V4.28C0 3.03 1.02 2 2.28 2Z" fill="#E51314"/>
<path fill-rule="evenodd" clip-rule="evenodd" d="M33.49 46.57C43.5 46.57 51.66 46.27 51.66 45.89C51.66 45.52 43.5 45.21 33.49 45.21C23.48 45.21 15.32 45.51 15.32 45.89C15.32 46.27 23.49 46.57 33.49 46.57Z" fill="black" stroke="black" stroke-width="0.5669" stroke-miterlimit="22.9256"/>
<path fill-rule="evenodd" clip-rule="evenodd" d="M41.4401 34.7002C43.9301 34.7302 45.3601 34.7602 45.7401 34.8002C45.7801 36.9002 45.8 37.9502 45.8 37.9502C42.97 38.0902 41.6301 38.1602 41.7901 38.1602C41.3101 36.2502 41.1901 35.1002 41.4401 34.7002Z" fill="#E9EAEA"/>
<path fill-rule="evenodd" clip-rule="evenodd" d="M25.5401 34.7002C23.0501 34.7302 21.6201 34.7602 21.2401 34.8002C21.2001 36.9002 21.1801 37.9502 21.1801 37.9502C24.0101 38.0902 25.3501 38.1602 25.1901 38.1602C25.6801 36.2502 25.8001 35.1002 25.5401 34.7002Z" fill="#E9EAEA"/>
<path fill-rule="evenodd" clip-rule="evenodd" d="M45.7601 35.5102C45.6901 31.0802 45.66 28.8601 45.66 28.8301C45.65 28.0701 45.64 27.6902 45.64 27.6902C45.64 27.5102 45.64 27.4202 45.64 27.4202C45.7 27.1502 45.74 26.8602 45.75 26.5502C45.8 25.7002 45.72 25.2302 45.53 25.1302C45.29 20.6702 44.93 17.9202 44.47 16.8702C43.43 16.3502 42.76 16.0801 42.47 16.0801C42.06 15.7801 41.71 15.6202 41.43 15.6202C36.14 15.4902 33.5 15.4302 33.5 15.4302C33.5 15.4302 30.85 15.4902 25.56 15.6202C25.28 15.6202 24.93 15.7801 24.52 16.0801C24.23 16.0801 23.56 16.3402 22.52 16.8702C22.06 17.9202 21.7 20.6802 21.46 25.1302C21.27 25.2302 21.19 25.7102 21.24 26.5502C21.25 26.8602 21.29 27.1502 21.35 27.4202C21.35 27.4202 21.35 27.5102 21.35 27.6902C21.35 27.6902 21.34 28.0701 21.33 28.8301C21.33 28.8501 21.3 31.0802 21.23 35.5102H45.7601Z" fill="#E9EAEA"/>
<path d="M24.63 42.1001H21.61V46.5101H24.63V42.1001Z" fill="#393A39"/>
<path fill-rule="evenodd" clip-rule="evenodd" d="M21.3 41.8604C21.31 42.3704 21.3101 42.8704 21.3101 43.3804C23.6901 43.3904 24.8801 43.4003 24.8801 43.4003C24.8801 42.5103 24.8801 42.0604 24.8801 42.0604L21.3 41.8604Z" fill="black"/>
<path d="M45.37 42.1001H42.35V46.5101H45.37V42.1001Z" fill="#393A39"/>
<path fill-rule="evenodd" clip-rule="evenodd" d="M45.68 41.8604C45.67 42.3704 45.67 42.8704 45.67 43.3804C43.29 43.3904 42.1 43.4003 42.1 43.4003C42.1 42.5103 42.1 42.0604 42.1 42.0604L45.68 41.8604Z" fill="black"/>
<path fill-rule="evenodd" clip-rule="evenodd" d="M21.22 35.5099H45.76C45.76 35.2899 45.75 35.0799 45.75 34.8699C45.5 34.8699 45.26 34.8799 45.04 34.8799C44.4 34.8899 43.86 34.8999 43.42 34.9099C42.54 34.9299 42.1 34.9399 42.1 34.9399C42.12 32.1299 42.13 30.7199 42.13 30.7199C42.12 30.1999 41.93 29.9399 41.56 29.9199C39.52 29.9699 37.44 29.9999 35.35 30.0099C35.48 30.2099 35.6 30.4199 35.69 30.6499C37.08 30.6299 39.14 30.5899 41.85 30.5499C41.87 31.5699 41.62 32.0699 41.12 32.0499C40.22 32.0899 39.77 32.0999 39.77 32.0999C39.75 31.8099 39.56 31.6599 39.17 31.6799C37.63 31.7099 36.41 31.7299 35.49 31.7499C35.34 31.9899 35.15 32.1999 34.92 32.3999C34.44 32.4299 33.96 32.4499 33.48 32.4499C33 32.4499 32.51 32.4299 32.03 32.3999C31.8 32.1999 31.61 31.9899 31.46 31.7499C30.54 31.7299 29.32 31.7099 27.78 31.6799C27.4 31.6699 27.2 31.8099 27.18 32.0999C27.18 32.0999 26.73 32.0799 25.83 32.0499C25.32 32.0699 25.08 31.5699 25.1 30.5499C27.81 30.5899 29.87 30.6299 31.26 30.6499C31.36 30.4199 31.47 30.2099 31.6 30.0099C29.51 29.9999 27.43 29.9699 25.4 29.9199C25.02 29.9399 24.83 30.1999 24.83 30.7199C24.83 30.7199 24.84 32.1299 24.86 34.9399C24.86 34.9399 24.42 34.9299 23.54 34.9099C23.11 34.8999 22.57 34.8899 21.92 34.8799C21.7 34.8799 21.46 34.8699 21.21 34.8699C21.23 35.0799 21.23 35.2899 21.22 35.5099Z" fill="#6A6C6C"/>
<path fill-rule="evenodd" clip-rule="evenodd" d="M42.19 36.8203C42.19 36.8203 42.19 36.5202 42.2 35.9202C43.66 35.8702 44.84 35.7303 45.76 35.5103H21.22C22.13 35.7303 23.32 35.8702 24.78 35.9202C24.78 36.5202 24.79 36.8203 24.79 36.8203C24.94 37.0803 25 37.4202 24.96 37.8402C26.42 37.8902 27.8 37.9102 29.1 37.8802C31.99 37.9702 34.99 37.9702 37.88 37.8802C39.18 37.9102 40.55 37.8902 42.02 37.8402C41.98 37.4202 42.04 37.0803 42.19 36.8203Z" fill="#6A6C6C"/>
<path fill-rule="evenodd" clip-rule="evenodd" d="M41.03 42.3503C43.43 42.4803 44.98 42.3104 45.68 41.8604C45.75 41.6104 45.77 41.3604 45.73 41.1204C46.4 40.8204 46.14 38.2404 46.14 37.6104C43.09 37.8504 40.33 37.9503 37.87 37.9003C34.98 37.9903 31.98 37.9903 29.09 37.9003C26.63 37.9503 23.88 37.8504 20.82 37.6104C20.82 38.2404 20.57 40.8204 21.23 41.1204C21.19 41.3604 21.21 41.6104 21.28 41.8604C21.98 42.3204 23.53 42.4803 25.93 42.3503C30.81 42.5303 36.17 42.5303 41.03 42.3503Z" fill="#788482"/>
<path fill-rule="evenodd" clip-rule="evenodd" d="M33.49 25.7501C30.91 25.7701 27.35 25.6801 22.85 25.4901C22.57 25.4701 22.41 25.2701 22.37 24.8901C22.01 22.3001 22.24 19.6601 23.04 17.1701C23.19 17.0301 23.41 16.9501 23.71 16.9401C30.23 16.8701 33.5 16.8301 33.5 16.8301C33.5 16.8301 36.76 16.8701 43.28 16.9401C43.58 16.9501 43.8 17.0301 43.95 17.1701C44.75 19.6601 44.98 22.3001 44.62 24.8901C44.58 25.2701 44.42 25.4701 44.14 25.4901C39.62 25.6801 36.08 25.7701 33.49 25.7501Z" fill="#2B253B"/>
<path fill-rule="evenodd" clip-rule="evenodd" d="M23.56 34.9101C23.55 34.3801 22.86 33.1901 21.5 31.3301C21.36 32.9401 21.42 34.0501 21.67 34.6401C21.81 34.7601 21.9 34.8401 21.94 34.8801L23.56 34.9101Z" fill="#FEC900"/>
<path fill-rule="evenodd" clip-rule="evenodd" d="M26.15 42.3604C26.55 43.4104 27.79 43.8704 29.88 43.7504C32.22 43.7504 33.43 43.7504 33.49 43.7504C33.56 43.7504 34.76 43.7504 37.1 43.7504C39.19 43.8804 40.43 43.4204 40.83 42.3604H26.15Z" fill="#393A39"/>
<path fill-rule="evenodd" clip-rule="evenodd" d="M29.72 42.4199H33.3H33.49H37.46V43.9499H33.49H33.3H29.72V42.4199Z" fill="black"/>
<path fill-rule="evenodd" clip-rule="evenodd" d="M24.4001 31.2203C24.4001 31.2203 24.4101 32.3403 24.4301 34.5603C24.4301 34.5603 24.2901 34.4203 24.0001 34.1403C24.0001 34.1403 23.9601 32.7003 23.8701 29.8103C23.8701 28.6403 22.91 28.3303 22.05 27.7803C22.8 28.0103 23.4901 28.2903 24.1201 28.6203C24.3501 28.9803 24.4601 29.4003 24.4401 29.8303L24.4001 31.2203Z" fill="#D4D5D5"/>
<path d="M20.11 18.4404H18.41V22.6704H20.11V18.4404Z" fill="#010101"/>
<path d="M20.11 22.9302H18.41V24.3301H20.11V22.9302Z" fill="#010101"/>
<path fill-rule="evenodd" clip-rule="evenodd" d="M22.0401 18.2203C21.9401 18.0503 21.7701 17.9203 21.5401 17.8103C21.3001 17.7003 21.0001 17.6203 20.6301 17.5703C20.4301 17.5603 20.2201 17.5603 20.0201 17.5603C19.8301 17.5603 19.6401 17.5703 19.4401 17.5803C19.3801 17.6203 19.3501 17.6903 19.3501 17.7903L19.1901 24.6403C19.2201 24.7003 19.2701 24.7603 19.3501 24.8003C19.4601 24.8603 19.6001 24.9003 19.7901 24.9203L21.98 24.9003V25.1603L19.7701 25.1803C19.5501 25.1503 19.37 25.1003 19.23 25.0303C19.08 24.9503 18.9801 24.8403 18.9301 24.7003L18.92 24.6803L19.08 17.7903C19.07 17.5703 19.15 17.4203 19.33 17.3303L19.3501 17.3203H19.3801C19.5801 17.3103 19.7901 17.3003 20.0001 17.3003C20.2101 17.3003 20.4201 17.3003 20.6201 17.3103H20.6301C21.0301 17.3603 21.3601 17.4503 21.6201 17.5703C21.8901 17.7003 22.09 17.8703 22.23 18.0803L22.0401 18.2203Z" fill="#010101"/>
<path fill-rule="evenodd" clip-rule="evenodd" d="M33.49 39.79C33.49 39.79 36.03 39.7601 41.12 39.6901C43.12 39.7201 44.01 39.24 43.8 38.27C40.15 38.44 36.71 38.52 33.48 38.52C30.25 38.52 26.81 38.44 23.17 38.27C22.96 39.25 23.85 39.7201 25.85 39.6901C30.94 39.7601 33.49 39.79 33.49 39.79Z" fill="#2B253B"/>
<path fill-rule="evenodd" clip-rule="evenodd" d="M33.49 31.79C33.49 31.79 35.39 31.7601 39.19 31.6901C39.57 31.6801 39.77 31.82 39.79 32.11C39.79 32.11 40.24 32.0901 41.14 32.0601C41.65 32.0801 41.89 31.5801 41.87 30.5601C36.29 30.6501 33.5 30.7 33.5 30.7C33.5 30.7 30.7 30.6501 25.12 30.5601C25.1 31.5801 25.35 32.0801 25.85 32.0601C26.75 32.1001 27.2 32.11 27.2 32.11C27.22 31.82 27.41 31.6701 27.8 31.6901C31.59 31.7601 33.49 31.79 33.49 31.79Z" fill="#E9EAEA"/>
<path fill-rule="evenodd" clip-rule="evenodd" d="M43.42 34.9101C43.43 34.3801 44.12 33.1901 45.48 31.3301C45.62 32.9401 45.5601 34.0501 45.3101 34.6401C45.1701 34.7601 45.0801 34.8401 45.0401 34.8801L43.42 34.9101Z" fill="#FEC900"/>
<path fill-rule="evenodd" clip-rule="evenodd" d="M42.5901 31.2203C42.5901 31.2203 42.5801 32.3403 42.5601 34.5603C42.5601 34.5603 42.7 34.4203 42.99 34.1403C42.99 34.1403 43.03 32.7003 43.12 29.8103C43.12 28.6403 44.0801 28.3303 44.9401 27.7803C44.1901 28.0103 43.5 28.2903 42.87 28.6203C42.64 28.9803 42.53 29.4003 42.55 29.8303L42.5901 31.2203Z" fill="#D4D5D5"/>
<path d="M48.57 18.4404H46.87V22.6704H48.57V18.4404Z" fill="#010101"/>
<path d="M48.57 22.9302H46.87V24.3301H48.57V22.9302Z" fill="#010101"/>
<path fill-rule="evenodd" clip-rule="evenodd" d="M44.94 18.2203C45.04 18.0503 45.21 17.9203 45.44 17.8103C45.68 17.7003 45.98 17.6203 46.35 17.5703C46.55 17.5603 46.76 17.5603 46.96 17.5603C47.15 17.5603 47.34 17.5703 47.54 17.5803C47.6 17.6203 47.63 17.6903 47.63 17.7903L47.79 24.6403C47.76 24.7003 47.71 24.7603 47.62 24.8003C47.51 24.8603 47.37 24.9003 47.18 24.9203L44.99 24.9003V25.1603L47.2 25.1803C47.42 25.1503 47.6 25.1003 47.74 25.0303C47.89 24.9503 47.99 24.8403 48.04 24.7003L48.05 24.6803L47.89 17.7903C47.9 17.5703 47.82 17.4203 47.64 17.3303L47.62 17.3203H47.59C47.39 17.3103 47.18 17.3003 46.97 17.3003C46.76 17.3003 46.55 17.3003 46.35 17.3103H46.34C45.94 17.3603 45.61 17.4503 45.35 17.5703C45.08 17.7003 44.88 17.8703 44.74 18.0803L44.94 18.2203Z" fill="#010101"/>
<path fill-rule="evenodd" clip-rule="evenodd" d="M33.49 34.5001C33.49 34.5001 35.39 34.47 39.19 34.4C39.57 34.39 39.77 34.5301 39.79 34.8201C39.79 34.8201 40.24 34.8 41.14 34.77C41.65 34.79 41.89 34.29 41.87 33.27C36.29 33.36 33.5 33.41 33.5 33.41C33.5 33.41 30.7 33.36 25.12 33.27C25.1 34.29 25.35 34.79 25.85 34.77C26.75 34.81 27.2 34.8201 27.2 34.8201C27.22 34.5301 27.41 34.38 27.8 34.4C31.59 34.47 33.49 34.5001 33.49 34.5001Z" fill="#E9EAEA"/>
<path fill-rule="evenodd" clip-rule="evenodd" d="M33.49 37.0801C33.49 37.0801 35.39 37.0501 39.19 36.9801C39.57 36.9701 39.77 37.1101 39.79 37.4001C39.79 37.4001 40.24 37.3801 41.14 37.3501C41.65 37.3701 41.89 36.8701 41.87 35.8501C36.29 35.9401 33.5 35.9901 33.5 35.9901C33.5 35.9901 30.7 35.9401 25.12 35.8501C25.1 36.8701 25.35 37.3701 25.85 37.3501C26.75 37.3901 27.2 37.4001 27.2 37.4001C27.22 37.1101 27.41 36.9601 27.8 36.9801C31.59 37.0501 33.49 37.0801 33.49 37.0801Z" fill="#E9EAEA"/>
<path fill-rule="evenodd" clip-rule="evenodd" d="M33.49 32.46C33.01 32.46 32.52 32.44 32.04 32.41C31.58 32.02 31.28 31.5601 31.15 31.0101C31.38 30.3101 31.75 29.73 32.28 29.28C32.28 29.28 32.69 29.28 33.49 29.27C34.29 29.28 34.69 29.28 34.69 29.28C35.22 29.73 35.59 30.3101 35.82 31.0101C35.69 31.5601 35.39 32.03 34.93 32.41C34.46 32.44 33.98 32.45 33.49 32.46Z" fill="#2B253B"/>
<path fill-rule="evenodd" clip-rule="evenodd" d="M24.8101 40.2303C22.6601 40.4003 20.86 40.6003 21.24 38.0703C21.65 38.1203 22.07 38.1803 22.48 38.2503C25.6 38.6803 25.3301 40.2803 24.8101 40.2303Z" fill="white"/>
<path fill-rule="evenodd" clip-rule="evenodd" d="M42.17 40.2303C44.32 40.4003 46.12 40.6003 45.74 38.0703C45.33 38.1203 44.91 38.1803 44.5 38.2503C41.39 38.6803 41.65 40.2803 42.17 40.2303Z" fill="white"/>
<path fill-rule="evenodd" clip-rule="evenodd" d="M33.55 30.8703C33.76 30.8703 33.97 30.8702 34.18 30.8602C34.26 30.8602 34.34 30.8602 34.42 30.8602C34.5 30.8602 34.57 30.8602 34.65 30.8602C34.76 30.8602 34.88 30.8502 34.97 30.9002C35.02 30.9202 35.03 30.9603 35.04 31.0103V31.0202C35.04 31.0902 34.99 31.1803 34.96 31.2503C34.91 31.3503 34.83 31.4402 34.74 31.5202C34.6 31.6602 34.31 31.8202 34.01 31.9102C33.97 31.9202 33.92 31.9402 33.88 31.9502C33.85 31.9602 33.86 31.9802 33.88 31.9702C33.93 31.9702 33.98 31.9503 34.02 31.9403C34.37 31.8503 34.61 31.7102 34.77 31.5802C34.87 31.5002 34.97 31.3902 35.04 31.2702C35.09 31.1902 35.13 31.0603 35.14 31.0103C35.15 30.9503 35.16 30.9103 35.15 30.8103C35.14 30.6403 35.09 30.5102 34.99 30.3502C34.98 30.3402 34.97 30.3303 34.97 30.3203C34.97 30.3103 34.96 30.3102 34.97 30.3002C34.98 30.3002 34.99 30.3103 35 30.3203C35.08 30.4103 35.13 30.4802 35.17 30.5802C35.23 30.7002 35.24 30.7902 35.25 30.9002C35.25 30.9202 35.27 30.9302 35.28 30.9002C35.28 30.7802 35.26 30.6602 35.21 30.5502C35.15 30.4202 35.1 30.3603 35.02 30.2603C34.93 30.1703 34.82 30.0803 34.71 30.0103C34.54 29.9003 34.36 29.8302 34.18 29.7802C34.1 29.7602 34.02 29.7402 33.94 29.7302C33.92 29.7302 33.89 29.7302 33.86 29.7302C33.84 29.7302 33.82 29.7503 33.86 29.7603C33.91 29.7703 33.96 29.7802 34.01 29.8002C34.19 29.8502 34.38 29.9202 34.54 30.0302C34.68 30.1202 34.74 30.1602 34.9 30.3602C34.92 30.3902 34.96 30.4603 34.99 30.5103C35.01 30.5503 35.03 30.6102 35.03 30.6502C35.03 30.6902 35.02 30.7202 34.98 30.7402C34.91 30.7802 34.84 30.7902 34.74 30.7902C34.67 30.7902 34.6 30.7902 34.53 30.8002C34.43 30.8002 34.32 30.8003 34.22 30.8103C34 30.8103 33.77 30.8203 33.55 30.8203C33.53 30.8203 33.5 30.8203 33.48 30.8203C33.25 30.8203 33.02 30.8203 32.79 30.8203C32.68 30.8203 32.58 30.8203 32.48 30.8203C32.41 30.8203 32.34 30.8203 32.27 30.8203C32.17 30.8203 32.11 30.8102 32.03 30.7702C31.99 30.7502 31.98 30.7202 31.98 30.6802C31.98 30.6402 32 30.5702 32.02 30.5402C32.04 30.4802 32.09 30.4202 32.1 30.3902C32.26 30.1902 32.32 30.1402 32.46 30.0502C32.62 29.9402 32.8 29.8703 32.99 29.8103C33.04 29.7903 33.09 29.7802 33.14 29.7702C33.18 29.7602 33.16 29.7402 33.14 29.7402C33.12 29.7402 33.09 29.7402 33.06 29.7402C32.98 29.7502 32.9 29.7702 32.82 29.7902C32.63 29.8402 32.46 29.9202 32.29 30.0302C32.18 30.1002 32.07 30.1902 31.98 30.2902C31.91 30.3802 31.85 30.4502 31.79 30.5802C31.74 30.6902 31.72 30.8102 31.73 30.9302C31.73 30.9602 31.75 30.9502 31.76 30.9302C31.77 30.8202 31.78 30.7302 31.84 30.6102C31.88 30.5202 31.93 30.4402 32.01 30.3502C32.02 30.3402 32.03 30.3302 32.04 30.3302C32.04 30.3402 32.04 30.3502 32.04 30.3502C32.03 30.3602 32.02 30.3703 32.02 30.3803C31.92 30.5303 31.87 30.6702 31.87 30.8402C31.87 30.9402 31.88 30.9702 31.89 31.0302C31.9 31.0802 31.95 31.2102 31.99 31.2902C32.06 31.4102 32.17 31.5202 32.27 31.6002C32.44 31.7302 32.68 31.8702 33.03 31.9502C33.07 31.9602 33.13 31.9702 33.17 31.9702C33.19 31.9702 33.2 31.9502 33.17 31.9502C33.13 31.9402 33.08 31.9202 33.03 31.9102C32.73 31.8302 32.44 31.6802 32.29 31.5402C32.2 31.4602 32.12 31.3702 32.07 31.2702C32.04 31.2002 31.99 31.1102 31.98 31.0402V31.0302C31.99 30.9802 32 30.9402 32.05 30.9202C32.14 30.8802 32.26 30.8803 32.36 30.8803C32.44 30.8803 32.51 30.8803 32.59 30.8803C32.67 30.8803 32.75 30.8803 32.83 30.8803C33.05 30.8803 33.26 30.8803 33.48 30.8703C33.5 30.8703 33.53 30.8703 33.55 30.8703ZM33.55 30.7902C33.53 30.7902 33.5 30.7902 33.48 30.7902C33.33 30.7902 33.17 30.7902 33.02 30.7902C32.91 30.7902 32.8 30.7902 32.7 30.7902C32.6 30.7902 32.51 30.7902 32.41 30.7802C32.32 30.7702 32.19 30.7603 32.17 30.7503C32.15 30.7403 32.16 30.7202 32.17 30.7102C32.19 30.6902 32.22 30.6802 32.24 30.6702C32.25 30.6702 32.27 30.6702 32.27 30.6702C32.29 30.6802 32.3 30.6903 32.32 30.6903C32.41 30.7103 32.47 30.7202 32.59 30.7302C32.68 30.7402 32.77 30.7402 32.85 30.7402C33.05 30.7402 33.17 30.7402 33.46 30.7402C33.48 30.7402 33.51 30.7402 33.53 30.7402C33.81 30.7402 33.93 30.7302 34.13 30.7302C34.22 30.7302 34.31 30.7202 34.39 30.7102C34.51 30.7002 34.57 30.6902 34.66 30.6602C34.68 30.6502 34.69 30.6503 34.71 30.6303C34.72 30.6203 34.73 30.6203 34.74 30.6203C34.76 30.6303 34.79 30.6402 34.81 30.6602C34.82 30.6702 34.83 30.6802 34.81 30.7002C34.79 30.7102 34.66 30.7302 34.57 30.7402C34.47 30.7502 34.38 30.7503 34.28 30.7603C34.17 30.7603 34.07 30.7702 33.96 30.7702C33.85 30.7902 33.7 30.7902 33.55 30.7902ZM33.55 30.7102C33.86 30.7102 34.18 30.7102 34.48 30.6702C34.63 30.6502 34.67 30.5702 34.68 30.5202C34.7 30.3502 34.44 30.1202 34.3 30.0502C34.12 29.9502 33.95 29.8703 33.73 29.8203C33.7 29.8103 33.68 29.7803 33.68 29.7603C33.68 29.7403 33.71 29.7102 33.74 29.7002C33.81 29.6802 33.88 29.6902 33.95 29.7002C34.07 29.7202 34.18 29.7402 34.29 29.7702C34.44 29.8102 34.6 29.8902 34.74 29.9802C34.92 30.0902 35.08 30.2402 35.2 30.4202C35.28 30.5502 35.34 30.7102 35.35 30.8602C35.35 31.0402 35.29 31.2102 35.19 31.3602C35.1 31.5002 34.97 31.6202 34.83 31.7202C34.7 31.8102 34.56 31.8903 34.41 31.9403C34.28 31.9903 34.15 32.0202 34.01 32.0402C33.92 32.0502 33.84 32.0602 33.75 32.0502C33.73 32.0502 33.69 32.0203 33.69 32.0003C33.69 31.9703 33.71 31.9403 33.73 31.9403C33.8 31.9203 33.92 31.8802 34.01 31.8402C34.12 31.7902 34.23 31.7402 34.33 31.6702C34.43 31.6002 34.53 31.5302 34.59 31.4302C34.63 31.3802 34.66 31.3103 34.67 31.2503C34.67 31.2203 34.67 31.1802 34.65 31.1502C34.58 31.0402 34.4 31.0502 34.26 31.0402C34.14 31.0402 34.01 31.0402 33.89 31.0302C33.76 31.0302 33.62 31.0302 33.49 31.0302C33.36 31.0302 33.22 31.0302 33.09 31.0402C32.97 31.0402 32.84 31.0502 32.72 31.0502C32.58 31.0602 32.4 31.0502 32.34 31.1602C32.32 31.1902 32.32 31.2303 32.33 31.2603C32.33 31.3103 32.37 31.3802 32.41 31.4302C32.48 31.5202 32.58 31.6002 32.68 31.6602C32.78 31.7202 32.89 31.7703 33 31.8203C33.09 31.8603 33.21 31.8902 33.28 31.9102C33.3 31.9202 33.32 31.9502 33.32 31.9702C33.32 31.9902 33.28 32.0202 33.26 32.0202C33.17 32.0402 33.09 32.0302 33 32.0202C32.86 32.0002 32.73 31.9702 32.6 31.9202C32.45 31.8602 32.31 31.7902 32.18 31.7002C32.04 31.6002 31.91 31.4802 31.82 31.3402C31.72 31.1902 31.65 31.0202 31.65 30.8502C31.65 30.7102 31.71 30.5402 31.79 30.4102C31.9 30.2302 32.06 30.0802 32.24 29.9602C32.38 29.8702 32.54 29.7903 32.69 29.7503C32.8 29.7203 32.91 29.6902 33.03 29.6702C33.1 29.6602 33.17 29.6502 33.24 29.6702C33.26 29.6802 33.3 29.7002 33.3 29.7202C33.3 29.7502 33.28 29.7802 33.25 29.7902C33.03 29.8502 32.87 29.9302 32.69 30.0302C32.56 30.1002 32.3 30.3403 32.32 30.5103C32.33 30.5603 32.37 30.6402 32.52 30.6602C32.82 30.6902 33.15 30.6802 33.46 30.6802C33.5 30.7102 33.52 30.7102 33.55 30.7102Z" fill="#D4D5D5"/>
<path fill-rule="evenodd" clip-rule="evenodd" d="M14.76 13.56C13.96 11.98 11.94 12.16 10.52 12.63C9.50999 12.97 9.27998 12.95 9.13998 13.44C9.10998 13.55 9.03999 13.89 8.98999 13.99C9.17999 13.97 10.73 13.45 11.22 14C12 14.89 10.27 19.1 10.17 20.4C10.09 21.39 10.09 21.93 10.63 22.49C11.99 23.9 15.8 23.02 15.95 22.18C15.99 21.97 16.03 21.84 16.03 21.62C15.83 21.64 15.6 21.73 15.39 21.78C15.13 21.84 14.97 21.84 14.64 21.84C14.14 21.83 13.75 21.71 13.65 21.28C13.21 19.43 15.58 15.42 14.76 13.56Z" fill="white"/>
<path fill-rule="evenodd" clip-rule="evenodd" d="M14.02 11.2C15.15 11.2 16.08 10.25 16.08 9.08997C16.08 7.92997 15.16 6.97998 14.02 6.97998C12.89 6.97998 11.96 7.92997 11.96 9.08997C11.96 10.25 12.88 11.2 14.02 11.2Z" fill="white"/>
</svg>
