<svg width="51" height="49" viewBox="0 0 51 49" fill="none" xmlns="http://www.w3.org/2000/svg">
<path d="M26 48C39.2548 48 50 37.2548 50 24C50 10.7452 39.2548 0 26 0C12.7452 0 2 10.7452 2 24C2 37.2548 12.7452 48 26 48Z" fill="#940A0A"/>
<path fill-rule="evenodd" clip-rule="evenodd" d="M2.28 2H25.43C26.69 2 27.71 3.03 27.71 4.28V26.51C27.71 27.77 26.68 28.79 25.43 28.79H2.28C1.02 28.79 0 27.76 0 26.51V4.28C0 3.03 1.02 2 2.28 2Z" fill="#E51314"/>
<path fill-rule="evenodd" clip-rule="evenodd" d="M14.76 13.56C13.96 11.98 11.94 12.16 10.52 12.63C9.50999 12.97 9.27998 12.95 9.13998 13.44C9.10998 13.55 9.03999 13.89 8.98999 13.99C9.17999 13.97 10.73 13.45 11.22 14C12 14.89 10.27 19.1 10.17 20.4C10.09 21.39 10.09 21.93 10.63 22.49C11.99 23.9 15.8 23.02 15.95 22.18C15.99 21.97 16.03 21.84 16.03 21.62C15.83 21.64 15.6 21.73 15.39 21.78C15.13 21.84 14.97 21.84 14.64 21.84C14.14 21.83 13.75 21.71 13.65 21.28C13.21 19.43 15.58 15.42 14.76 13.56Z" fill="white"/>
<path fill-rule="evenodd" clip-rule="evenodd" d="M14.02 11.2C15.15 11.2 16.08 10.25 16.08 9.08997C16.08 7.92997 15.16 6.97998 14.02 6.97998C12.89 6.97998 11.96 7.92997 11.96 9.08997C11.96 10.25 12.88 11.2 14.02 11.2Z" fill="white"/>
<path d="M48.8652 25.1113H22.651V44.7742H48.8652V25.1113Z" fill="#1A1A1A"/>
<path fill-rule="evenodd" clip-rule="evenodd" d="M27.5601 41.4897H22.6422C21.7377 41.4897 21 42.2274 21 43.132V44.7742H29.1935V43.132C29.2023 42.2274 28.4647 41.4897 27.5601 41.4897Z" fill="white"/>
<path fill-rule="evenodd" clip-rule="evenodd" d="M38.2126 41.4897H33.2948C32.3902 41.4897 31.6525 42.2274 31.6525 43.132V44.7742H39.8461V43.132C39.8461 42.2274 39.1172 41.4897 38.2126 41.4897Z" fill="white"/>
<path fill-rule="evenodd" clip-rule="evenodd" d="M48.8564 41.4897H43.9385C43.0339 41.4897 42.2963 42.2274 42.2963 43.132V44.7742H50.4898V43.132C50.4986 42.2274 49.7609 41.4897 48.8564 41.4897Z" fill="white"/>
<path fill-rule="evenodd" clip-rule="evenodd" d="M50.4986 44.7656H21.0088V46.4078C21.0088 47.3124 21.7465 48.0501 22.651 48.0501H48.8652C49.7697 48.0501 50.5074 47.3124 50.5074 46.4078V44.7656H50.4986Z" fill="#6D6E6E"/>
<path d="M27.5689 28.3872H22.651V41.4899H27.5689V28.3872Z" fill="#6D6E6E"/>
<path d="M38.2126 28.3872H33.2947V41.4899H38.2126V28.3872Z" fill="#6D6E6E"/>
<path d="M48.8652 28.3872H43.9473V41.4899H48.8652V28.3872Z" fill="#6D6E6E"/>
<path fill-rule="evenodd" clip-rule="evenodd" d="M35.7537 12C34.6911 12 33.6548 12.3425 32.803 12.9836L21.6674 21.3352C21.2547 21.6426 21.0088 22.1344 21.0088 22.6438V25.1027H50.4986V22.6438C50.4986 22.1256 50.2527 21.6426 49.84 21.3352L38.6956 12.9836C37.8526 12.3513 36.8163 12 35.7537 12Z" fill="white"/>
<path fill-rule="evenodd" clip-rule="evenodd" d="M34.2783 14.9508L26.4185 20.8523C26.278 20.9576 26.1989 21.1157 26.1989 21.2914C26.1989 21.5899 26.4448 21.8358 26.7434 21.8358H44.764C45.0626 21.8358 45.3085 21.5899 45.3085 21.2914C45.3085 21.1157 45.2295 20.9576 45.0889 20.8523L37.2291 14.9508C36.8075 14.6346 36.2894 14.459 35.7537 14.459C35.2268 14.459 34.7087 14.6346 34.2783 14.9508Z" fill="#6D6E6E"/>
<path fill-rule="evenodd" clip-rule="evenodd" d="M27.5601 28.387H22.6422C21.7377 28.387 21 27.6493 21 26.7448V25.1025H29.1935V26.7448C29.2023 27.6493 28.4647 28.387 27.5601 28.387Z" fill="#6D6E6E"/>
<path fill-rule="evenodd" clip-rule="evenodd" d="M38.2126 28.387H33.2948C32.3902 28.387 31.6525 27.6493 31.6525 26.7448V25.1025H39.8461V26.7448C39.8461 27.6493 39.1172 28.387 38.2126 28.387Z" fill="#6D6E6E"/>
<path fill-rule="evenodd" clip-rule="evenodd" d="M48.8564 28.387H43.9385C43.0339 28.387 42.2963 27.6493 42.2963 26.7448V25.1025H50.4898V26.7448C50.4986 27.6493 49.7609 28.387 48.8564 28.387Z" fill="#6D6E6E"/>
<path fill-rule="evenodd" clip-rule="evenodd" d="M25.1099 41.4898H22.651V30.0205H23.4677C24.3723 30.0205 25.1099 30.7582 25.1099 31.6627V41.4898Z" fill="white"/>
<path fill-rule="evenodd" clip-rule="evenodd" d="M35.7537 41.4898H33.2947V30.0205H34.1115C35.016 30.0205 35.7537 30.7582 35.7537 31.6627V41.4898Z" fill="white"/>
<path fill-rule="evenodd" clip-rule="evenodd" d="M46.4063 41.4898H43.9473V30.0205H44.764C45.6686 30.0205 46.4063 30.7582 46.4063 31.6627V41.4898Z" fill="white"/>
</svg>
