<svg width="48" height="48" viewBox="0 0 48 48" fill="none" xmlns="http://www.w3.org/2000/svg">
<path d="M24 48C37.2548 48 48 37.2548 48 24C48 10.7452 37.2548 0 24 0C10.7452 0 0 10.7452 0 24C0 37.2548 10.7452 48 24 48Z" fill="#C80000"/>
<path fill-rule="evenodd" clip-rule="evenodd" d="M26.1398 35.1772C28.83 35.2108 30.3806 35.247 30.7915 35.2858C30.8354 37.5573 30.8587 38.6944 30.8587 38.6944C27.8041 38.8469 26.3569 38.9218 26.5197 38.9167C25.9899 36.8544 25.8633 35.6088 26.1398 35.1772Z" fill="#E8E9E9"/>
<path fill-rule="evenodd" clip-rule="evenodd" d="M8.95665 35.1772C6.26644 35.2108 4.71588 35.247 4.30498 35.2858C4.26105 37.5573 4.23779 38.6944 4.23779 38.6944C7.29239 38.8469 8.73957 38.9218 8.57676 38.9167C9.10653 36.8544 9.23316 35.6088 8.95665 35.1772Z" fill="#E8E9E9"/>
<path fill-rule="evenodd" clip-rule="evenodd" d="M30.804 36.0584C30.729 31.2724 30.6954 28.8664 30.698 28.8432C30.6851 28.024 30.6799 27.6131 30.6799 27.6131C30.6773 27.4192 30.6747 27.321 30.6747 27.321C30.7419 27.0342 30.7833 26.7215 30.7936 26.3829C30.8453 25.4681 30.7652 24.9539 30.5584 24.8427C30.2949 20.0257 29.9124 17.0486 29.411 15.9115C28.2843 15.3456 27.5633 15.0613 27.248 15.0613C26.8009 14.7331 26.4262 14.5677 26.1213 14.5626C20.4075 14.4282 17.5493 14.3584 17.5493 14.3584C17.5493 14.3584 14.6859 14.4256 8.96956 14.5626C8.66462 14.5677 8.28732 14.7331 7.84282 15.0613C7.52755 15.0613 6.80654 15.3456 5.6798 15.9115C5.17845 17.0486 4.79599 20.0257 4.53239 24.8427C4.32307 24.9539 4.24554 25.4681 4.29722 26.3829C4.31014 26.7215 4.34891 27.0342 4.4161 27.321C4.4161 27.321 4.41351 27.4192 4.41093 27.6131C4.41093 27.6131 4.40576 28.024 4.39284 28.8432C4.39543 28.869 4.35925 31.2724 4.28689 36.0584H30.804Z" fill="#E8E9E9"/>
<path d="M7.96977 43.1807H4.70068V47.9486H7.96977V43.1807Z" fill="#404040"/>
<path fill-rule="evenodd" clip-rule="evenodd" d="M4.36719 42.9141C4.37752 43.4619 4.38269 44.0098 4.38269 44.5551C6.95144 44.5706 8.23582 44.5783 8.23582 44.5783C8.23582 43.6118 8.23582 43.1286 8.23582 43.1286L4.36719 42.9141Z" fill="#292827"/>
<path d="M30.3882 43.1807H27.1191V47.9486H30.3882V43.1807Z" fill="#404040"/>
<path fill-rule="evenodd" clip-rule="evenodd" d="M30.7217 42.9141C30.7113 43.4619 30.7062 44.0098 30.7062 44.5551C28.1374 44.5706 26.853 44.5783 26.853 44.5783C26.853 43.6118 26.853 43.1286 26.853 43.1286L30.7217 42.9141Z" fill="#292827"/>
<path fill-rule="evenodd" clip-rule="evenodd" d="M4.28447 36.0588H30.8015C30.7989 35.821 30.7938 35.5911 30.7912 35.3662C30.5224 35.3714 30.2666 35.3766 30.0237 35.3817C29.3259 35.3946 28.7445 35.405 28.2767 35.4153C27.3231 35.4334 26.8476 35.4412 26.8476 35.4412C26.8735 32.4021 26.8838 30.8825 26.8838 30.8825C26.876 30.3269 26.6693 30.0401 26.2636 30.022C24.0618 30.0762 21.8135 30.1098 19.5574 30.1202C19.6996 30.3347 19.8236 30.5673 19.927 30.8153C21.4336 30.7895 23.6535 30.7533 26.5892 30.7068C26.6073 31.8077 26.3437 32.3478 25.7984 32.3271C24.8267 32.3659 24.3409 32.3866 24.3409 32.3866C24.3228 32.0687 24.1083 31.9162 23.6974 31.9292C22.0357 31.9602 20.71 31.9834 19.7228 32.0015C19.5626 32.2599 19.3559 32.4925 19.1026 32.7044C18.5832 32.738 18.0637 32.7561 17.5443 32.7587C17.0249 32.7561 16.4977 32.7354 15.9782 32.7044C15.725 32.4925 15.5182 32.2574 15.358 32.0015C14.3682 31.9834 13.0425 31.9602 11.3834 31.9292C10.9725 31.9162 10.758 32.0687 10.7399 32.3866C10.7399 32.3866 10.2541 32.3659 9.28242 32.3271C8.73714 32.3504 8.47355 31.8103 8.49164 30.7068C11.4248 30.7559 13.6446 30.7921 15.1539 30.8153C15.2572 30.5673 15.3813 30.3347 15.5234 30.1202C13.2673 30.1073 11.019 30.0737 8.81725 30.022C8.41152 30.0375 8.20478 30.3243 8.19703 30.8825C8.19703 30.8825 8.20995 32.4021 8.23321 35.4412C8.23321 35.4412 7.75771 35.4334 6.80412 35.4153C6.33637 35.4076 5.75491 35.3946 5.05716 35.3817C4.81682 35.3766 4.56098 35.3714 4.28963 35.3662C4.28705 35.5911 4.28188 35.8236 4.2793 36.0588H4.28447Z" fill="#6D6E6E"/>
<path fill-rule="evenodd" clip-rule="evenodd" d="M26.951 37.477C26.951 37.477 26.9536 37.1514 26.9588 36.5002C28.5352 36.4459 29.817 36.296 30.8042 36.0557H4.28711C5.2743 36.296 6.55609 36.4433 8.13248 36.5002C8.13765 37.1514 8.14024 37.477 8.14024 37.477C8.30563 37.7561 8.37024 38.1257 8.32889 38.5831C9.90787 38.6425 11.399 38.658 12.7997 38.6296C15.924 38.7252 19.1673 38.7252 22.2916 38.6296C23.6923 38.658 25.1834 38.6425 26.7624 38.5831C26.721 38.1231 26.7857 37.7561 26.951 37.477Z" fill="#6D6E6E"/>
<path fill-rule="evenodd" clip-rule="evenodd" d="M25.6927 43.4468C28.2873 43.5864 29.9645 43.4081 30.7217 42.9145C30.7992 42.6406 30.8199 42.3744 30.7811 42.116C31.4995 41.7955 31.2256 39.0019 31.2256 38.3223C27.9255 38.5833 24.9459 38.6866 22.2918 38.6324C19.1675 38.728 15.9242 38.728 12.7998 38.6324C10.1458 38.6866 7.16616 38.5807 3.86607 38.3223C3.86607 39.0045 3.58955 41.7955 4.31056 42.116C4.2718 42.3744 4.29247 42.6406 4.37 42.9145C5.12977 43.4081 6.80437 43.5864 9.39896 43.4468C14.6528 43.6484 20.4389 43.6484 25.6953 43.4468H25.6927Z" fill="#7C8785"/>
<path fill-rule="evenodd" clip-rule="evenodd" d="M17.5468 25.5091C14.7532 25.5298 10.9156 25.4367 6.04684 25.2326C5.7419 25.2119 5.56875 24.9948 5.52999 24.5865C5.14235 21.7878 5.39044 18.9373 6.251 16.2471C6.41381 16.0921 6.65414 16.0094 6.972 15.9965C14.0193 15.9163 17.5468 15.875 17.5468 15.875C17.5468 15.875 21.0691 15.9163 28.1164 15.9965C28.4343 16.0068 28.6746 16.0921 28.8374 16.2471C29.698 18.9373 29.9461 21.7878 29.5584 24.5865C29.5171 24.9974 29.3465 25.2119 29.0416 25.2326C24.1728 25.4367 20.343 25.5298 17.5494 25.5091H17.5468Z" fill="#353043"/>
<path fill-rule="evenodd" clip-rule="evenodd" d="M6.80941 35.4119C6.79907 34.8408 6.0548 33.5513 4.58178 31.5459C4.4293 33.2903 4.49133 34.4842 4.76784 35.1251C4.91515 35.2569 5.01335 35.3422 5.06503 35.3809L6.81199 35.4145L6.80941 35.4119Z" fill="#FEC900"/>
<path fill-rule="evenodd" clip-rule="evenodd" d="M9.61328 43.4546C10.0423 44.5917 11.3835 45.0904 13.6421 44.9509C16.1695 44.9509 17.4772 44.9509 17.547 44.9509C17.6193 44.9509 18.9192 44.9509 21.4466 44.9509C23.7027 45.0904 25.0465 44.5917 25.4755 43.4546H9.61587H9.61328Z" fill="#404040"/>
<path fill-rule="evenodd" clip-rule="evenodd" d="M13.4692 43.5239H17.3327H17.542H21.8371V45.1727H17.542H17.3327H13.4692V43.5239Z" fill="#292827"/>
<path fill-rule="evenodd" clip-rule="evenodd" d="M7.71625 31.427C7.71625 31.427 7.72659 32.6313 7.74468 35.0424C7.74468 35.0424 7.58962 34.8899 7.28209 34.5902C7.28209 34.5902 7.23558 33.0318 7.14254 29.9126C7.14254 28.6464 6.10626 28.3156 5.17334 27.7212C5.98997 27.9693 6.73423 28.2716 7.41131 28.6283C7.66198 29.0159 7.78344 29.4759 7.75243 29.9359L7.71625 31.4296V31.427Z" fill="#D3D5D5"/>
<path d="M3.08804 17.6094H1.24805V22.1758H3.08804V17.6094Z" fill="black"/>
<path d="M3.08804 22.4624H1.24805V23.9794H3.08804V22.4624Z" fill="black"/>
<path d="M5.1656 17.3767C5.05448 17.1984 4.87358 17.0511 4.62808 16.9348C4.37224 16.8133 4.04662 16.728 3.64864 16.6763C3.42898 16.6686 3.21191 16.6634 2.99483 16.666C2.78809 16.6686 2.58135 16.6738 2.36944 16.6841C2.29966 16.7306 2.26865 16.8056 2.27382 16.9115L2.09809 24.318C2.12652 24.3852 2.18596 24.4446 2.2764 24.4911C2.39011 24.5506 2.55034 24.5945 2.75449 24.6178L5.11909 24.5997V24.8788L2.73123 24.8969H2.72606C2.48573 24.8684 2.29191 24.8142 2.14461 24.7366C1.9818 24.6488 1.87326 24.5325 1.82416 24.3852L1.81641 24.3619L1.99214 16.9193C1.9818 16.6867 2.07225 16.5213 2.2609 16.4231L2.28674 16.4102L2.31775 16.4076C2.54 16.3947 2.76224 16.3895 2.98966 16.3869C3.21449 16.3843 3.43932 16.3895 3.66157 16.3972H3.67449C4.10347 16.4515 4.4601 16.5471 4.74437 16.6815C5.03898 16.8211 5.25605 17.002 5.39819 17.2294L5.16302 17.3767H5.1656Z" fill="black"/>
<path fill-rule="evenodd" clip-rule="evenodd" d="M17.547 40.6893C17.547 40.6893 20.2966 40.6557 25.7959 40.586C27.9564 40.6144 28.9229 40.1001 28.6955 39.0483C24.7519 39.2292 21.028 39.3197 17.5418 39.3145C14.0531 39.3197 10.3395 39.2292 6.39333 39.0483C6.16591 40.1027 7.13243 40.6144 9.29286 40.586C14.7922 40.6557 17.547 40.6893 17.547 40.6893Z" fill="#353043"/>
<path fill-rule="evenodd" clip-rule="evenodd" d="M17.5467 32.0371C17.5467 32.0371 19.5986 32.0009 23.7024 31.926C24.1133 31.913 24.3278 32.0655 24.3459 32.3834C24.3459 32.3834 24.8317 32.3627 25.8034 32.3239C26.3487 32.3472 26.6123 31.8071 26.5942 30.7036C20.5625 30.8018 17.5467 30.8509 17.5467 30.8509C17.5467 30.8509 14.5231 30.8018 8.49404 30.7036C8.47595 31.8045 8.73954 32.3446 9.28482 32.3239C10.2565 32.3627 10.7423 32.3834 10.7423 32.3834C10.7604 32.0655 10.9749 31.913 11.3858 31.926C15.4896 32.0009 17.5467 32.0371 17.5467 32.0371Z" fill="#E8E9E9"/>
<path fill-rule="evenodd" clip-rule="evenodd" d="M28.2793 35.4119C28.2896 34.8408 29.0313 33.5513 30.5069 31.5459C30.6594 33.2903 30.5974 34.4842 30.3234 35.1251C30.1761 35.2569 30.0779 35.3422 30.0263 35.3809L28.2793 35.4145V35.4119Z" fill="#FEC900"/>
<path fill-rule="evenodd" clip-rule="evenodd" d="M27.372 31.427C27.372 31.427 27.3617 32.6313 27.3436 35.0424C27.3436 35.0424 27.4986 34.8899 27.8061 34.5902C27.8061 34.5902 27.8527 33.0318 27.9457 29.9126C27.9457 28.6464 28.982 28.3156 29.9149 27.7212C29.0983 27.9693 28.354 28.2716 27.6769 28.6283C27.4263 29.0159 27.3048 29.4759 27.3358 29.9359L27.372 31.4296V31.427Z" fill="#D3D5D5"/>
<path d="M33.841 17.6094H32.001V22.1758H33.841V17.6094Z" fill="black"/>
<path d="M33.841 22.4624H32.001V23.9794H33.841V22.4624Z" fill="black"/>
<path d="M29.923 17.3767C30.0341 17.1984 30.215 17.0511 30.4605 16.9348C30.7164 16.8133 31.042 16.728 31.44 16.6763C31.6596 16.6686 31.8767 16.6634 32.0938 16.666C32.3005 16.6686 32.5073 16.6738 32.7192 16.6841C32.789 16.7306 32.82 16.8056 32.8148 16.9115L32.9905 24.318C32.9621 24.3852 32.9027 24.4446 32.8122 24.4911C32.6985 24.5506 32.5383 24.5945 32.3341 24.6178L29.9695 24.5997V24.8788L32.3574 24.8969H32.3626C32.6029 24.8684 32.7967 24.8142 32.944 24.7366C33.1068 24.6488 33.2154 24.5325 33.2645 24.3852L33.2722 24.3619L33.0965 16.9193C33.1068 16.6867 33.0164 16.5213 32.8277 16.4231L32.8019 16.4102L32.7709 16.4076C32.5512 16.3947 32.3264 16.3895 32.099 16.3869C31.8741 16.3843 31.6493 16.3895 31.4271 16.3972H31.4141C30.9851 16.4515 30.6285 16.5471 30.3442 16.6815C30.0496 16.8211 29.8326 17.002 29.6904 17.2294L29.9256 17.3767H29.923Z" fill="black"/>
<path fill-rule="evenodd" clip-rule="evenodd" d="M17.5467 34.9653C17.5467 34.9653 19.5986 34.9291 23.7024 34.8542C24.1133 34.8413 24.3278 34.9937 24.3459 35.3116C24.3459 35.3116 24.8317 35.2909 25.8034 35.2522C26.3487 35.2754 26.6123 34.7353 26.5942 33.6318C20.5625 33.73 17.5467 33.7791 17.5467 33.7791C17.5467 33.7791 14.5231 33.73 8.49404 33.6318C8.47595 34.7327 8.73954 35.2728 9.28482 35.2522C10.2565 35.2909 10.7423 35.3116 10.7423 35.3116C10.7604 34.9937 10.9749 34.8413 11.3858 34.8542C15.4896 34.9291 17.5467 34.9653 17.5467 34.9653Z" fill="#E8E9E9"/>
<path fill-rule="evenodd" clip-rule="evenodd" d="M17.5467 37.7533C17.5467 37.7533 19.5986 37.7171 23.7024 37.6421C24.1133 37.6292 24.3278 37.7817 24.3459 38.1021C24.3459 38.1021 24.8317 38.0815 25.8034 38.0427C26.3487 38.066 26.6123 37.5258 26.5942 36.4224C20.5625 36.5206 17.5467 36.5697 17.5467 36.5697C17.5467 36.5697 14.5231 36.5206 8.49404 36.4224C8.47595 37.5233 8.73954 38.0634 9.28482 38.0427C10.2565 38.0815 10.7423 38.1021 10.7423 38.1021C10.7604 37.7843 10.9749 37.6318 11.3858 37.6421C15.4896 37.7171 17.5467 37.7533 17.5467 37.7533Z" fill="#E8E9E9"/>
<path fill-rule="evenodd" clip-rule="evenodd" d="M17.5469 32.7582C17.0275 32.7556 16.5003 32.735 15.9809 32.704C15.4847 32.2879 15.1642 31.7814 15.0195 31.187C15.265 30.4272 15.6708 29.8018 16.2393 29.316C16.2393 29.316 16.6786 29.3134 17.5469 29.3057C18.4127 29.3108 18.8468 29.316 18.8468 29.316C19.4154 29.8044 19.8211 30.4272 20.0666 31.187C19.9219 31.7814 19.6014 32.2853 19.1052 32.704C18.5858 32.7376 18.0664 32.7556 17.5469 32.7582Z" fill="#353043"/>
<path fill-rule="evenodd" clip-rule="evenodd" d="M8.16368 41.1545C5.84301 41.338 3.89965 41.5603 4.31055 38.8184C4.75763 38.8726 5.2047 38.9372 5.64919 39.0096C9.0139 39.4877 8.72705 41.2165 8.16368 41.1545Z" fill="#FEFEFE"/>
<path fill-rule="evenodd" clip-rule="evenodd" d="M26.9277 41.1545C29.2484 41.338 31.1918 41.5603 30.7809 38.8184C30.3338 38.8726 29.8867 38.9372 29.4422 39.0096C26.0775 39.4877 26.3644 41.2165 26.9277 41.1545Z" fill="#FEFEFE"/>
<path fill-rule="evenodd" clip-rule="evenodd" d="M17.6117 31.0372C17.8391 31.0346 18.0666 31.0346 18.294 31.0321C18.3793 31.0321 18.4645 31.0295 18.5472 31.0295C18.6299 31.0295 18.71 31.0295 18.7902 31.0295C18.9039 31.0346 19.0382 31.0243 19.1313 31.0708C19.183 31.0967 19.2011 31.1328 19.2114 31.1897C19.2114 31.1949 19.2114 31.1974 19.214 31.2C19.2114 31.2801 19.1623 31.3758 19.1261 31.4507C19.0744 31.5592 18.984 31.6574 18.8935 31.7453C18.7359 31.8978 18.4309 32.0735 18.1053 32.1614C18.0614 32.1743 18.0071 32.1924 17.9606 32.2027C17.9244 32.2131 17.9373 32.2286 17.9606 32.2286C18.0123 32.2234 18.0717 32.2105 18.1157 32.2001C18.4904 32.1045 18.7514 31.9546 18.9297 31.8099C19.0357 31.7221 19.1494 31.6006 19.2217 31.4714C19.2708 31.3835 19.3225 31.244 19.3277 31.1897C19.3354 31.1225 19.3458 31.0863 19.3406 30.9778C19.3303 30.7943 19.2734 30.6496 19.1675 30.4842C19.1597 30.4713 19.1494 30.4609 19.1416 30.4506C19.139 30.4454 19.1339 30.4351 19.139 30.4273L19.1416 30.4248C19.152 30.4222 19.1649 30.4325 19.1726 30.4428C19.2605 30.541 19.3096 30.6212 19.3561 30.7194C19.4181 30.8512 19.4336 30.9468 19.444 31.0631C19.4466 31.0837 19.4698 31.0967 19.4724 31.0579C19.4776 30.9339 19.4491 30.8021 19.3975 30.6858C19.338 30.5514 19.2734 30.4764 19.1907 30.3757C19.1907 30.3757 19.1907 30.3757 19.1881 30.3731C19.0899 30.2723 18.9711 30.1767 18.8522 30.1017C18.6687 29.9854 18.48 29.9079 18.2759 29.8536C18.1932 29.8304 18.1053 29.8123 18.02 29.8045C17.9942 29.8019 17.9632 29.8019 17.9374 29.8019C17.9193 29.8019 17.8986 29.8226 17.9374 29.8304C17.9916 29.8433 18.0433 29.8562 18.0976 29.8717C18.2966 29.9286 18.4955 30.0061 18.6713 30.1172C18.8186 30.2103 18.8909 30.2594 19.0641 30.4764C19.0848 30.5074 19.1313 30.5798 19.1571 30.6392C19.1752 30.6806 19.2011 30.7452 19.2011 30.7943V30.7969C19.1959 30.8434 19.1855 30.877 19.1468 30.9003C19.0693 30.9468 18.9995 30.9494 18.8909 30.9545C18.816 30.9571 18.7385 30.9597 18.6635 30.9623C18.5524 30.9649 18.4413 30.9674 18.3276 30.97C18.0872 30.9752 17.8443 30.9778 17.6014 30.9804C17.5756 30.9804 17.5497 30.9804 17.5239 30.9804C17.2784 30.983 17.0303 30.983 16.7822 30.983C16.6685 30.983 16.5599 30.983 16.4462 30.983C16.3713 30.983 16.2938 30.983 16.2188 30.9804C16.1103 30.9778 16.0405 30.9752 15.963 30.9287C15.9242 30.908 15.9139 30.8744 15.9087 30.8279V30.8253C15.9087 30.7762 15.932 30.7116 15.9501 30.6703C15.9759 30.6108 16.0224 30.5359 16.0405 30.5049C16.2111 30.2852 16.2834 30.2361 16.4281 30.1379C16.6013 30.0216 16.7977 29.9415 16.9967 29.8821C17.0509 29.8666 17.1026 29.851 17.1543 29.8381C17.1931 29.8278 17.1724 29.8071 17.1543 29.8097C17.1285 29.8097 17.0975 29.8097 17.0716 29.8149C16.9838 29.8252 16.8985 29.8459 16.8158 29.8691C16.6142 29.9286 16.4256 30.0087 16.2447 30.1276C16.1258 30.2051 16.0095 30.3033 15.9139 30.4067C15.9139 30.4067 15.9139 30.4067 15.9113 30.4092C15.8312 30.51 15.7692 30.585 15.7123 30.7219C15.6632 30.8382 15.6374 30.9726 15.6451 31.0967C15.6477 31.1328 15.671 31.1225 15.6735 31.0992C15.6813 30.983 15.6968 30.8873 15.7562 30.753C15.8028 30.6522 15.8493 30.5721 15.9346 30.4739C15.9423 30.4661 15.9578 30.4532 15.9656 30.4558L15.9681 30.4583C15.9733 30.4687 15.9681 30.4764 15.9656 30.4816C15.9578 30.4945 15.9475 30.5049 15.9397 30.5152C15.8363 30.6832 15.7795 30.8279 15.7743 31.0114C15.7717 31.1199 15.7821 31.1535 15.7924 31.2207C15.8002 31.2724 15.8519 31.4119 15.9035 31.4998C15.9785 31.6264 16.0922 31.7479 16.2007 31.8332C16.3816 31.9753 16.6452 32.12 17.0225 32.2079C17.069 32.2182 17.1259 32.2312 17.1802 32.2337C17.2034 32.2363 17.2163 32.2182 17.1802 32.2079C17.1311 32.1976 17.0794 32.1795 17.0354 32.1691C16.7098 32.0864 16.3997 31.9159 16.2395 31.766C16.1465 31.6781 16.056 31.5825 16.0017 31.474C15.963 31.399 15.9139 31.306 15.9087 31.2259C15.9087 31.2233 15.9087 31.2207 15.9087 31.2155C15.9165 31.1587 15.9346 31.1225 15.9862 31.0967C16.0793 31.0476 16.2111 31.0553 16.3274 31.0501C16.4101 31.0501 16.4902 31.0476 16.5703 31.0476C16.6556 31.0476 16.7408 31.0476 16.8235 31.045C17.0561 31.0424 17.2913 31.0398 17.5239 31.0372C17.5497 31.0372 17.5756 31.0372 17.6014 31.0372H17.6117ZM17.6091 30.9545C17.772 30.9519 17.9322 30.9519 18.0924 30.9494C18.2087 30.9468 18.325 30.9442 18.4387 30.939C18.5421 30.9364 18.6454 30.9313 18.7514 30.9235C18.8496 30.9158 18.984 30.8977 19.0072 30.8822C19.0227 30.8718 19.0176 30.8563 19.0046 30.8434C18.984 30.8253 18.9555 30.8124 18.9297 30.8021C18.9194 30.7969 18.9013 30.7995 18.8935 30.8072C18.8729 30.8227 18.8625 30.8279 18.8393 30.8357C18.7436 30.8615 18.6739 30.8744 18.5447 30.8848C18.449 30.8925 18.3534 30.9003 18.2578 30.9028C18.0433 30.9106 17.9115 30.9132 17.6091 30.9183C17.5833 30.9183 17.5549 30.9183 17.529 30.9183C17.2215 30.9209 17.0871 30.9209 16.8701 30.9158C16.7744 30.9132 16.6788 30.908 16.5832 30.9028C16.4566 30.8951 16.3868 30.8848 16.2886 30.8589C16.2653 30.8537 16.2524 30.8486 16.2343 30.8331C16.224 30.8253 16.2085 30.8227 16.1981 30.8279C16.1723 30.8382 16.1439 30.8537 16.1232 30.8692C16.1103 30.8796 16.1025 30.8951 16.1206 30.908C16.1439 30.9235 16.2783 30.939 16.3765 30.9442C16.4824 30.9494 16.5832 30.9545 16.6892 30.9545C16.8054 30.9571 16.9217 30.9571 17.038 30.9571C17.2008 30.9571 17.3662 30.9545 17.5316 30.9545C17.5575 30.9545 17.5859 30.9545 17.6117 30.9545H17.6091ZM17.6066 30.8667C17.9373 30.8641 18.2888 30.8641 18.6144 30.8279C18.7772 30.8098 18.8238 30.7219 18.8315 30.6651C18.8522 30.4764 18.5705 30.2335 18.4232 30.156C18.2242 30.05 18.0459 29.9673 17.8081 29.9053C17.7771 29.8976 17.759 29.864 17.7565 29.8355C17.7565 29.8097 17.7926 29.7813 17.8159 29.7761C17.8908 29.758 17.9684 29.7606 18.0459 29.7735C18.1699 29.7916 18.2888 29.8123 18.4103 29.8485C18.5705 29.895 18.7462 29.9751 18.9013 30.0707C19.1003 30.1922 19.2734 30.3472 19.4 30.5436C19.4879 30.6806 19.5551 30.8615 19.5577 31.0165C19.5603 31.2052 19.4879 31.3913 19.3845 31.5541C19.2863 31.7091 19.1468 31.8383 18.9969 31.9495C18.8599 32.0503 18.7049 32.1278 18.5472 32.1898C18.4103 32.2441 18.2656 32.2777 18.1208 32.3035C18.0278 32.319 17.9374 32.3268 17.8443 32.3113C17.8211 32.3087 17.7797 32.2803 17.7771 32.2544C17.7745 32.226 17.7952 32.195 17.8211 32.1872C17.8986 32.164 18.0278 32.1226 18.1208 32.0813C18.2397 32.0296 18.3612 31.9753 18.4697 31.9029C18.5757 31.8306 18.6816 31.7479 18.7514 31.6445C18.7902 31.5877 18.8315 31.5127 18.8341 31.4533C18.8367 31.4171 18.8367 31.3732 18.8186 31.3447C18.7462 31.2285 18.5498 31.2362 18.4025 31.231C18.2681 31.2259 18.1363 31.2259 18.002 31.2233C17.8676 31.2207 17.7074 31.2207 17.5704 31.2207C17.4334 31.2233 17.2732 31.2259 17.1388 31.231C17.0044 31.2362 16.8726 31.2388 16.7383 31.2465C16.591 31.2543 16.392 31.2517 16.3222 31.368C16.3041 31.399 16.3041 31.4404 16.3093 31.4765C16.3144 31.5334 16.3558 31.6109 16.3945 31.6652C16.4669 31.766 16.5729 31.8487 16.6814 31.9185C16.7899 31.9882 16.914 32.0425 17.0329 32.0916C17.1259 32.1304 17.2577 32.1717 17.3352 32.1924C17.3611 32.2001 17.3817 32.2312 17.3792 32.2596C17.3766 32.2854 17.3378 32.3138 17.312 32.3164C17.2189 32.3319 17.1285 32.3268 17.0354 32.3138C16.8881 32.2932 16.7434 32.2622 16.6065 32.2079C16.4462 32.1485 16.2912 32.0735 16.1516 31.9753C15.9992 31.8668 15.8596 31.7427 15.7562 31.5877C15.6503 31.4274 15.5753 31.2414 15.5728 31.0527C15.5728 30.9003 15.6348 30.7168 15.7226 30.5772C15.8441 30.3782 16.0147 30.2206 16.2111 30.094C16.3635 29.9958 16.5367 29.9131 16.6969 29.864C16.8184 29.8252 16.9372 29.8019 17.0613 29.7813C17.1388 29.7684 17.2163 29.7632 17.2913 29.7813C17.3145 29.7864 17.3533 29.8149 17.3533 29.8407C17.3533 29.8691 17.3352 29.9027 17.3042 29.9105C17.069 29.9751 16.8907 30.063 16.6943 30.1715C16.5496 30.2516 16.2731 30.5023 16.2963 30.6883C16.3041 30.7452 16.3506 30.8305 16.516 30.846C16.8442 30.877 17.2008 30.8692 17.5342 30.8667C17.56 30.8667 17.5859 30.8667 17.6117 30.8667H17.6066Z" fill="#D3D5D5"/>
<path d="M23.5607 2.85791L37.6165 16.9111L36.7094 17.8182L22.6562 3.76498L23.5607 2.85791Z" fill="#999999"/>
<path d="M23.6228 2.91739L22.8217 1.73897L21.421 0.94043L21.0799 1.28155L20.7388 1.62009L21.5347 3.02334L22.7131 3.82446C22.7131 3.82446 24.349 4.99255 24.5686 4.77288C24.7883 4.55322 23.6202 2.91739 23.6202 2.91739H23.6228Z" fill="#5E9EA7"/>
<path d="M21.421 0.94043L21.0799 1.28155L20.7388 1.62009L21.5373 3.02334L22.8217 1.73897L21.421 0.94043Z" fill="#1A1A1A"/>
<path d="M46.3902 22.6479C45.7441 22.0019 43.625 19.8828 42.6379 18.8956C41.6507 17.911 40.6351 17.9058 38.7615 16.4586C36.9034 15.0244 36.2728 13.541 36.2728 13.541L34.8076 15.0063L33.3423 16.4716C33.3423 16.4716 34.8256 17.1047 36.2599 18.9628C37.7071 20.8364 37.7097 21.852 38.6969 22.8392C39.6841 23.8264 41.8031 25.9455 42.4492 26.5915C43.0953 27.2376 44.6484 28.2687 46.3592 26.5579C48.07 24.8471 47.0389 23.294 46.3928 22.6479H46.3902Z" fill="#1A1A1A"/>
<path d="M45.9482 23.6764C45.3513 22.8417 39.2188 17.6215 38.3195 18.5182C37.4202 19.4175 42.643 25.55 43.4751 26.1469C44.3227 26.7517 45.1342 26.1185 45.527 25.7257C45.9198 25.3329 46.5504 24.5189 45.9457 23.6738L45.9482 23.6764Z" fill="#CCCCCC"/>
<path d="M36.2727 13.5408L35.9549 13.2229L34.624 13.011L34.1691 13.4658L33.2 12.4941L32.293 13.4012L33.2646 14.3729L32.8098 14.8251L33.0217 16.156L33.3396 16.4739C33.3396 16.4739 33.735 16.6445 34.3139 17.0631L36.8594 14.5176C36.4407 13.9387 36.2701 13.5433 36.2701 13.5433L36.2727 13.5408Z" fill="#CCCCCC"/>
<path d="M22.4856 22.7339C23.403 21.8165 24.889 21.8165 25.8038 22.7339C26.7212 23.6513 26.7212 25.1347 25.8038 26.0521C24.8864 26.9695 23.4004 26.9695 22.4856 26.0521C21.5682 25.1347 21.5682 23.6488 22.4856 22.7339ZM21.9662 26.5715C23.1704 27.7758 25.119 27.7758 26.3232 26.5715C27.7032 25.1916 27.4577 22.9484 29.8146 20.5942L39.1334 11.2753C41.4902 8.91849 43.599 8.88231 45.3899 8.0631C46.881 6.95187 47.3772 3.8611 46.483 2.89975L44.7309 5.99311C43.3018 5.913 42.3947 5.3212 41.4877 4.1893L43.201 1.00291C42.2733 0.850438 40.7925 1.33628 39.5185 3.42694C38.8104 5.4039 39.6192 7.04749 37.2624 9.40433L27.9436 18.7232C25.5867 21.08 23.3462 20.8319 21.9662 22.2145C20.7619 23.4188 20.7619 25.3673 21.9662 26.5715Z" fill="#999999"/>
<path d="M28.0289 19.7768C27.879 19.6269 27.879 19.384 28.0289 19.2341L37.7742 9.48888C37.924 9.33899 38.167 9.33899 38.3168 9.48888L39.0482 10.2202C39.1981 10.3701 39.1981 10.613 39.0482 10.7629L29.303 20.5082C29.1531 20.658 28.9102 20.658 28.7603 20.5082L28.0289 19.7768Z" fill="#CCCCCC"/>
<path d="M22.0362 24.4751C22.0337 24.4208 22.0337 24.3666 22.0362 24.3123L22.4497 23.9402L22.2766 23.4078C22.3024 23.3613 22.3309 23.3148 22.3593 23.2709L22.9046 23.1546L23.0209 22.6093C23.0674 22.5809 23.1113 22.5524 23.1578 22.5266L23.6902 22.6997L24.0623 22.2862C24.1166 22.2837 24.1708 22.2837 24.2251 22.2862L24.5972 22.6997L25.1296 22.5266C25.1761 22.5524 25.2226 22.5809 25.2666 22.6093L25.3829 23.1546L25.9281 23.2709C25.9566 23.3148 25.985 23.3613 26.0108 23.4078L25.8377 23.9402L26.2512 24.3123C26.2538 24.3666 26.2538 24.4208 26.2512 24.4751L25.8377 24.8472L26.0108 25.3796C25.985 25.4261 25.9566 25.4726 25.9281 25.5166L25.3829 25.6329L25.2666 26.1781C25.2201 26.2066 25.1761 26.235 25.1296 26.2582L24.5972 26.0851L24.2251 26.4986C24.1708 26.5012 24.1166 26.5012 24.0623 26.4986L23.6902 26.0851L23.1578 26.2582C23.1113 26.2324 23.0648 26.2066 23.0209 26.1781L22.9046 25.6329L22.3593 25.5166C22.3309 25.4701 22.3024 25.4261 22.2766 25.3796L22.4497 24.8472L22.0362 24.4751ZM25.8041 26.0541C26.7215 25.1367 26.7215 23.6507 25.8041 22.7359C24.8867 21.8185 23.4007 21.8185 22.4859 22.7359C21.5685 23.6533 21.5685 25.1367 22.4859 26.0541C23.4033 26.9715 24.8893 26.9715 25.8041 26.0541Z" fill="#353F48"/>
</svg>
