<svg width="24" height="24" viewBox="0 0 24 24" fill="none" xmlns="http://www.w3.org/2000/svg">
<g opacity="0.8">
<path d="M20 12C19.751 12 19.517 12.051 19.297 12.133L16.899 10.17C16.958 9.956 17 9.734 17 9.5C17 8.114 15.886 7 14.5 7C13.114 7 12 8.114 12 9.5C12 9.896 12.1 10.265 12.262 10.597L9.353 14.035C9.237 14.015 9.121 14 9 14C8.821 14 8.652 14.03 8.488 14.074L5.925 11.511C5.97 11.348 6 11.179 6 11C6 9.892 5.108 9 4 9C2.892 9 2 9.892 2 11C2 12.108 2.892 13 4 13C4.179 13 4.348 12.97 4.512 12.926L7.075 15.489C7.03 15.652 7 15.821 7 16C7 17.108 7.892 18 9 18C10.108 18 11 17.108 11 16C11 15.763 10.952 15.54 10.877 15.329L13.79 11.887C14.017 11.953 14.252 12 14.5 12C14.911 12 15.292 11.893 15.633 11.719L18.032 13.682C18.016 13.786 18 13.891 18 14C18 15.108 18.892 16 20 16C21.108 16 22 15.108 22 14C22 12.892 21.108 12 20 12Z" fill="black"/>
<path d="M7.28174 10.7285C7.28174 12.3854 5.93859 13.7285 4.28174 13.7285C2.62488 13.7285 1.28174 12.3854 1.28174 10.7285C1.28174 9.07166 2.62488 7.72852 4.28174 7.72852C5.93859 7.72852 7.28174 9.07166 7.28174 10.7285Z" fill="#960000"/>
<path d="M23 14C23 15.6569 21.6569 17 20 17C18.3431 17 17 15.6569 17 14C17 12.3431 18.3431 11 20 11C21.6569 11 23 12.3431 23 14Z" fill="#960000"/>
</g>
</svg>
