<svg width="48" height="48" viewBox="0 0 48 48" fill="none" xmlns="http://www.w3.org/2000/svg">
<path d="M23.9888 47.9775C37.2374 47.9775 47.9775 37.2374 47.9775 23.9888C47.9775 10.7401 37.2374 0 23.9888 0C10.7401 0 0 10.7401 0 23.9888C0 37.2374 10.7401 47.9775 23.9888 47.9775Z" fill="#99B8D1"/>
<path fill-rule="evenodd" clip-rule="evenodd" d="M6.01685 8.10109V34.0058V39.8881C10.409 44.8517 16.8292 47.989 23.9888 47.989C31.1372 47.989 37.5686 44.8517 41.9608 39.8881V34.0058V8.10109V2.70054H6.01685V8.10109Z" fill="#E6E6E6"/>
<path fill-rule="evenodd" clip-rule="evenodd" d="M33.8602 7.70927H24.2019H23.7762H14.1179V21.7373H23.7762H24.2019H33.8602V7.70927Z" fill="#FB0000"/>
<path fill-rule="evenodd" clip-rule="evenodd" d="M15.0478 15.8998C15.003 15.1827 15.0926 13.7934 15.3167 11.7205C15.5072 11.7205 15.5968 11.7205 15.5968 11.7205C15.3952 14.7009 15.3055 16.1911 15.3055 16.1911L15.0478 15.8998Z" fill="#404040"/>
<path fill-rule="evenodd" clip-rule="evenodd" d="M30.622 32.3482V28.0232V27.6983C30.6557 27.6983 30.6781 27.6983 30.7117 27.6983C31.3503 27.6983 31.989 27.6871 32.6388 27.6759C33.0758 27.3398 33.3559 26.7683 33.4792 25.984H33.5464C33.5912 26.0513 33.636 26.0961 33.6809 26.1185V32.337H30.6333L30.622 32.3482ZM17.356 27.6983V28.0232V32.3482H14.3083V26.1297C14.3644 26.0961 14.4092 26.0513 14.4428 25.9952H14.51C14.6333 26.7795 14.9134 27.3398 15.3504 27.6871C15.989 27.6983 16.6277 27.6983 17.2775 27.7095C17.3111 27.7095 17.3336 27.7095 17.3672 27.7095L17.356 27.6983Z" fill="#404040"/>
<path fill-rule="evenodd" clip-rule="evenodd" d="M23.9442 29.5805C22.2187 29.5805 20.4932 29.5357 18.7677 29.446C18.0955 29.1995 17.58 28.6729 17.356 28.0119V27.6869C19.5632 27.6981 21.7817 27.6981 23.989 27.6645C26.1963 27.6981 28.4148 27.6981 30.622 27.6869V28.0119C30.398 28.6729 29.8825 29.1995 29.2103 29.446C27.4512 29.5357 25.6921 29.5805 23.933 29.5805H23.9442Z" fill="#292827"/>
<path fill-rule="evenodd" clip-rule="evenodd" d="M28.5157 25.6026C25.5129 25.569 22.4765 25.569 19.4737 25.6026C19.3504 25.5914 19.0703 26.0844 18.6221 27.0928C19.0479 26.611 19.384 26.3757 19.6417 26.3869C22.5437 26.3645 25.4457 26.3645 28.3476 26.3869C28.6053 26.3757 28.9414 26.6222 29.3672 27.0928C28.919 26.0956 28.6389 25.5914 28.5157 25.6026ZM33.412 24.2693C33.4905 24.4709 33.5353 24.7847 33.5353 25.2216C33.5353 25.4569 33.5129 25.681 33.4905 25.8939C33.4905 25.9275 33.4793 25.9611 33.4793 25.9947C33.356 26.7791 33.0759 27.3393 32.6389 27.6866C32.0003 27.6978 31.3616 27.6978 30.7118 27.709C30.6781 27.709 30.6557 27.709 30.6221 27.709C28.4148 27.7202 26.1964 27.7202 23.9891 27.6866C21.7818 27.7202 19.5633 27.7202 17.356 27.709C17.3224 27.709 17.3 27.709 17.2664 27.709C16.6277 27.709 15.9891 27.6978 15.3392 27.6866C14.9023 27.3505 14.6221 26.7791 14.4989 25.9947C14.4989 25.9611 14.4877 25.9275 14.4877 25.8939C14.4653 25.681 14.4429 25.4569 14.4429 25.2216C14.4429 24.7847 14.4877 24.4709 14.5661 24.2693C14.6333 24.09 14.7342 24.0115 14.8686 24.0115C15.8995 24.202 16.863 24.3477 17.7594 24.4597C18.9583 24.6054 20.0451 24.6838 21.0087 24.6838C22.6557 24.6838 23.6305 24.6838 23.9331 24.6838C23.9331 24.6838 24.9415 24.6838 26.9471 24.6838C27.9106 24.6726 28.9975 24.6054 30.1963 24.4597C31.0927 24.3477 32.0563 24.202 33.0871 24.0115C33.2215 24.0003 33.3224 24.09 33.3896 24.2693H33.412ZM30.6333 26.3309C31.9106 26.2636 32.5493 26.23 32.5493 26.23C32.6389 26.174 32.7174 26.0956 32.7846 25.9947C32.8406 25.9051 32.8966 25.8043 32.9302 25.681C33.2664 24.8519 33.1207 24.4933 32.4933 24.6054C31.2047 24.7398 30.454 24.8743 30.2412 25.0312C30.0395 25.1432 29.905 25.3449 29.8826 25.569C30.2188 26.0844 30.398 26.3421 30.398 26.3421C30.4877 26.3421 30.5661 26.3309 30.6445 26.3309H30.6333ZM15.216 25.9947C15.2832 26.0956 15.3616 26.174 15.4513 26.23C15.4513 26.23 16.0899 26.2636 17.3672 26.3309C17.4457 26.3309 17.5353 26.3421 17.6137 26.3421C17.6137 26.3421 17.7818 26.0844 18.1291 25.569C18.1067 25.3449 17.9723 25.1432 17.7706 25.0312C17.5465 24.8743 16.7958 24.7286 15.5185 24.6054C14.891 24.5045 14.7454 24.8631 15.0815 25.681C15.1263 25.8043 15.1712 25.9051 15.2272 25.9947H15.216Z" fill="#404040"/>
<path fill-rule="evenodd" clip-rule="evenodd" d="M30.622 26.3312C30.5436 26.3312 30.4539 26.3424 30.3755 26.3424C30.3755 26.3424 30.2074 26.0847 29.8601 25.5693C29.8825 25.3452 30.017 25.1435 30.2186 25.0315C30.4427 24.8746 31.1934 24.7289 32.4707 24.6057C33.0982 24.5048 33.2439 24.8634 32.9077 25.6813C32.8629 25.8046 32.8181 25.9054 32.7621 25.995C32.6948 26.0959 32.6164 26.1743 32.5268 26.2303C32.5268 26.2303 31.8881 26.264 30.6108 26.3312H30.622Z" fill="#FEFEFE"/>
<path fill-rule="evenodd" clip-rule="evenodd" d="M15.2161 25.9838C15.1601 25.8942 15.1152 25.7933 15.0704 25.6701C14.7343 24.8409 14.8799 24.4824 15.5074 24.5944C16.7959 24.7289 17.5466 24.8634 17.7595 25.0202C17.9612 25.1323 18.0956 25.3339 18.118 25.558C17.7819 26.0734 17.6026 26.3311 17.6026 26.3311C17.513 26.3311 17.4346 26.3199 17.3561 26.3199C16.0788 26.2527 15.4402 26.2191 15.4402 26.2191C15.3505 26.1631 15.2721 26.0846 15.2049 25.9838H15.2161Z" fill="#FEFEFE"/>
<path fill-rule="evenodd" clip-rule="evenodd" d="M18.6218 27.093C19.07 26.0958 19.3501 25.5916 19.4734 25.6028C22.4762 25.5692 25.5126 25.5692 28.5154 25.6028C28.6386 25.5916 28.9187 26.0846 29.3669 27.093C28.9411 26.6112 28.605 26.3759 28.3473 26.3871C25.4453 26.3647 22.5434 26.3647 19.6414 26.3871C19.3837 26.3759 19.0476 26.6224 18.6218 27.093Z" fill="#6D6E6E"/>
<path fill-rule="evenodd" clip-rule="evenodd" d="M22.8684 22.6447C22.5771 22.4318 22.353 22.1405 22.2073 21.8155C19.9664 21.7931 18.846 21.7819 18.846 21.7819C18.846 22.0396 18.8796 22.3197 18.9244 22.5998L22.8572 22.6447H22.8684ZM17.0645 21.7371C16.9748 21.3786 16.8628 20.9864 16.7507 20.5494C18.0056 20.7063 19.9104 20.7735 22.4426 20.7287C23.2493 19.8099 24.7395 19.8099 25.5462 20.7287C28.0784 20.7735 29.9832 20.7175 31.2381 20.5494C31.1261 20.9752 31.0252 21.3786 30.9244 21.7371C30.4538 23.5522 30.2073 24.4598 30.2073 24.4598C29.0084 24.6054 27.9216 24.6839 26.958 24.6839C25.3109 24.6839 24.3362 24.6839 24.0336 24.6839C24.0336 24.6839 23.0252 24.6839 21.0196 24.6839C20.056 24.6727 18.9692 24.6054 17.7703 24.4598C17.7703 24.4598 17.535 23.5522 17.0533 21.7371H17.0645ZM28.7843 23.4738C26.958 23.485 25.3558 23.485 24 23.4738C22.6331 23.485 21.042 23.485 19.2157 23.4738C19.1709 23.6419 19.1933 23.8771 19.2941 24.1797C20.8964 24.2245 22.465 24.2469 24.0112 24.2357C25.5574 24.2469 27.1261 24.2245 28.7283 24.1797C28.8291 23.8771 28.8516 23.6419 28.8067 23.4738H28.7843ZM25.7815 21.8155C25.6359 22.1405 25.4118 22.4318 25.1205 22.6447L29.0532 22.5998C29.1093 22.3197 29.1317 22.0396 29.1317 21.7819C29.1317 21.7819 28.0112 21.7931 25.7703 21.8155H25.7815Z" fill="#6D6E6E"/>
<path fill-rule="evenodd" clip-rule="evenodd" d="M25.1206 22.6451C25.4119 22.4322 25.636 22.1409 25.7817 21.816C28.0226 21.7936 29.143 21.7824 29.143 21.7824C29.143 22.0401 29.1094 22.3202 29.0646 22.6003L25.1318 22.6451H25.1206Z" fill="#404040"/>
<path fill-rule="evenodd" clip-rule="evenodd" d="M22.2076 21.816C22.3532 22.1409 22.5773 22.4322 22.8686 22.6451L18.9359 22.6003C18.8798 22.3202 18.8574 22.0401 18.8574 21.7824C18.8574 21.7824 19.9779 21.7936 22.2188 21.816H22.2076Z" fill="#404040"/>
<path fill-rule="evenodd" clip-rule="evenodd" d="M19.2048 23.4739C21.0311 23.4851 22.6334 23.4851 23.9891 23.4739C25.3561 23.4851 26.9471 23.4851 28.7734 23.4739C28.8182 23.6419 28.7958 23.8772 28.695 24.1798C27.0928 24.2246 25.5241 24.247 23.9779 24.2358C22.4317 24.247 20.8631 24.2246 19.2608 24.1798C19.16 23.8772 19.1376 23.6419 19.1824 23.4739H19.2048Z" fill="#404040"/>
<path fill-rule="evenodd" clip-rule="evenodd" d="M16.2018 22.634C16.5827 23.0822 16.762 23.4632 16.762 23.7769C15.776 23.7881 15.1822 23.6648 14.9693 23.3959C14.846 22.9253 14.9357 22.522 15.2382 22.1858C15.8881 22.4884 16.2018 22.634 16.2018 22.634Z" fill="#FEC900"/>
<path fill-rule="evenodd" clip-rule="evenodd" d="M31.2158 23.7769C31.2158 23.4632 31.3951 23.0822 31.776 22.634C31.776 22.634 32.101 22.4884 32.7396 22.1858C33.0421 22.5108 33.1318 22.9141 33.0085 23.3959C32.7956 23.6648 32.2018 23.7993 31.2158 23.7769Z" fill="#FEC900"/>
<path fill-rule="evenodd" clip-rule="evenodd" d="M30.9247 21.7373C31.0143 21.3788 31.1263 20.9866 31.2384 20.5496C29.9835 20.7065 28.0787 20.7737 25.5465 20.7289C24.7398 19.8101 23.2496 19.8101 22.4429 20.7289C19.9107 20.7737 18.0059 20.7177 16.751 20.5496C16.8631 20.9754 16.9639 21.3788 17.0647 21.7373C17.5353 23.5524 17.7818 24.46 17.7818 24.46C16.8855 24.348 15.9219 24.2023 14.8911 24.0118C14.7566 24.0006 14.6558 24.0903 14.5886 24.2695C14.4989 23.1603 14.4429 22.4992 14.3981 22.3087C14.3869 22.2975 14.3757 22.2975 14.3533 22.2863C14.3309 22.051 14.4653 21.827 14.6782 21.7373C14.7006 21.7261 14.7118 21.7261 14.7342 21.7149C14.6894 18.8354 14.7006 16.9418 14.7566 16.023C14.8126 15.1827 14.8575 14.4544 14.9023 13.8158H15.1264C15.0479 14.7681 15.0255 15.4628 15.0591 15.8998L15.3168 16.1911C15.3168 16.1911 15.4177 14.7009 15.6082 11.7205C15.6082 11.7205 15.5185 11.7205 15.328 11.7205C15.2496 12.4488 15.1824 13.0875 15.1376 13.6477H14.9135C15.0031 12.4824 15.0703 11.6757 15.1264 11.2275C15.3056 10.5889 15.6642 10.2191 16.2132 10.1295C21.2776 9.98383 26.723 9.98383 31.7762 10.1295C32.3252 10.2191 32.6838 10.5777 32.863 11.2275C32.9191 11.6757 32.9863 12.4712 33.0759 13.6477H32.8518C32.807 13.0875 32.7398 12.4488 32.6614 11.7205C32.4709 11.7205 32.3812 11.7205 32.3812 11.7205C32.5829 14.7009 32.6726 16.1911 32.6726 16.1911L32.9303 15.8998C32.9527 15.4628 32.9303 14.7681 32.863 13.8158H33.0871C33.1319 14.4544 33.1768 15.1827 33.2328 16.023C33.2888 16.9418 33.3 18.8354 33.2552 21.7149C33.2776 21.7261 33.2888 21.7261 33.3112 21.7373C33.5241 21.827 33.6586 22.051 33.6361 22.2863C33.6249 22.2975 33.6137 22.2975 33.5913 22.3087C33.5577 22.4992 33.4905 23.1491 33.4008 24.2695C33.3336 24.0903 33.2328 24.0118 33.0983 24.0118C32.0675 24.2023 31.1039 24.348 30.2076 24.46C30.2076 24.46 30.4429 23.5524 30.9247 21.7373ZM16.7734 23.7765C16.7734 23.4628 16.5942 23.0819 16.2132 22.6337C16.2132 22.6337 15.8883 22.488 15.2496 22.1855C14.9471 22.5104 14.8575 22.9138 14.9807 23.3956C15.1936 23.6645 15.7874 23.7989 16.7734 23.7765ZM31.7762 22.6337C31.3952 23.0819 31.216 23.4628 31.216 23.7765C32.202 23.7877 32.7958 23.6645 33.0087 23.3956C33.1319 22.925 33.0423 22.5216 32.7398 22.1855C32.0899 22.488 31.7762 22.6337 31.7762 22.6337ZM15.7762 17.2891C15.7538 17.9278 22.7006 17.8942 23.9891 17.939C25.2776 17.8942 32.2244 17.939 32.202 17.2891C32.202 17.2891 32.1011 15.4516 31.8882 11.7878C31.9219 11.3396 31.7314 11.1155 31.328 11.1267C26.8014 11.1043 24.3588 11.0931 23.9891 11.1155C23.6194 11.0931 21.1656 11.0931 16.6502 11.1267C16.2468 11.1155 16.0675 11.3284 16.09 11.7878C15.8771 15.4516 15.7762 17.2891 15.7762 17.2891Z" fill="#ED595B"/>
<path fill-rule="evenodd" clip-rule="evenodd" d="M33.4119 24.2694C33.5015 23.1601 33.5575 22.4991 33.6023 22.3086C33.6135 22.2974 33.6248 22.2974 33.6472 22.2862C33.9833 22.1069 34.1514 22.2974 34.1626 22.8576C34.2074 24.8968 34.1514 25.9837 33.9833 26.1405C33.8713 26.1741 33.7704 26.1741 33.692 26.1181C33.636 26.0845 33.5911 26.0397 33.5575 25.9837C33.5351 25.95 33.5239 25.9276 33.5127 25.8828C33.5351 25.6699 33.5575 25.4458 33.5575 25.2105C33.5575 24.7736 33.5127 24.4598 33.4343 24.2582L33.4119 24.2694Z" fill="#292827"/>
<path fill-rule="evenodd" clip-rule="evenodd" d="M14.3866 22.3089C14.4203 22.4993 14.4875 23.1492 14.5771 24.2696C14.4987 24.4713 14.4539 24.785 14.4539 25.222C14.4539 25.4573 14.4763 25.6814 14.4987 25.8943C14.4875 25.9279 14.4651 25.9615 14.4539 25.9951C14.4091 26.0624 14.3642 26.1072 14.3194 26.1296C14.241 26.1744 14.1402 26.1856 14.0281 26.152C13.8712 25.9951 13.804 24.9083 13.8488 22.8691C13.86 22.3201 14.0281 22.1296 14.3642 22.2976C14.3754 22.3089 14.3866 22.3089 14.4091 22.3201L14.3866 22.3089Z" fill="#292827"/>
<path d="M34.1404 13.6478H32.7734V13.8159H34.1404V13.6478Z" fill="#292827"/>
<path fill-rule="evenodd" clip-rule="evenodd" d="M34.6555 12.3814C34.1065 12.3366 33.8152 12.3926 33.7816 12.5383L33.7031 14.6559C33.7704 14.9809 33.9496 15.1377 34.2297 15.1041C34.8124 15.1377 35.1037 14.9921 35.1037 14.6896C35.1373 13.3898 35.1597 12.74 35.1597 12.74C35.0365 12.4823 34.8684 12.3702 34.6555 12.3926V12.3814Z" fill="#292827"/>
<path fill-rule="evenodd" clip-rule="evenodd" d="M13.3223 12.3814C13.8713 12.3366 14.1627 12.3926 14.1963 12.5383L14.2747 14.6559C14.2075 14.9809 14.0282 15.1377 13.7481 15.1041C13.1655 15.1377 12.8741 14.9921 12.8741 14.6896C12.8405 13.3898 12.8181 12.74 12.8181 12.74C12.9414 12.4823 13.1094 12.3702 13.3223 12.3926V12.3814Z" fill="#6D7F99"/>
<path d="M15.2048 13.6478H13.8379V13.8159H15.2048V13.6478Z" fill="#292827"/>
<path fill-rule="evenodd" clip-rule="evenodd" d="M13.3223 12.3814C13.8713 12.3366 14.1627 12.3926 14.1963 12.5383L14.2747 14.6559C14.2075 14.9809 14.0282 15.1377 13.7481 15.1041C13.1655 15.1377 12.8741 14.9921 12.8741 14.6896C12.8405 13.3898 12.8181 12.74 12.8181 12.74C12.9414 12.4823 13.1094 12.3702 13.3223 12.3926V12.3814Z" fill="#292827"/>
<path fill-rule="evenodd" clip-rule="evenodd" d="M32.6836 16.1911C32.6836 16.1911 32.5828 14.7009 32.3923 11.7205C32.3923 11.7205 32.482 11.7205 32.6724 11.7205C32.7509 12.4488 32.8181 13.0875 32.8629 13.6477H32.7845V13.8158H32.8741C32.9526 14.7681 32.975 15.4628 32.9414 15.8998L32.6836 16.1911Z" fill="#353043"/>
<path fill-rule="evenodd" clip-rule="evenodd" d="M33.8601 12.4376V10.1967H34.3531V12.3592C34.1178 12.3592 33.9497 12.3816 33.8601 12.4376Z" fill="#940A0A"/>
<path fill-rule="evenodd" clip-rule="evenodd" d="M33.8601 14.9807C33.9497 15.0816 34.073 15.1152 34.2298 15.0928C34.2746 15.0928 34.3083 15.0928 34.3419 15.0928V21.7258H33.8489V14.9695L33.8601 14.9807Z" fill="#940A0A"/>
<path fill-rule="evenodd" clip-rule="evenodd" d="M34.3531 10.1966H33.8601V9.31143H34.5212V10.1966H34.3531Z" fill="#940A0A"/>
<path fill-rule="evenodd" clip-rule="evenodd" d="M14.1179 9.31143V10.1966H13.6249H13.468V9.31143H14.1179Z" fill="#940A0A"/>
<path fill-rule="evenodd" clip-rule="evenodd" d="M13.748 15.0933C13.9049 15.1157 14.0281 15.0709 14.1178 14.9812V21.7375H13.6248V15.1045C13.6584 15.1045 13.7032 15.1045 13.7368 15.1045L13.748 15.0933Z" fill="#940A0A"/>
<path fill-rule="evenodd" clip-rule="evenodd" d="M14.1178 12.4376C14.0281 12.3816 13.8713 12.3592 13.6248 12.3592V10.1967H14.1178V12.4376Z" fill="#940A0A"/>
<path fill-rule="evenodd" clip-rule="evenodd" d="M15.7762 17.2889C15.7762 17.2889 15.877 15.4513 16.0899 11.7875C16.0563 11.3393 16.2468 11.1152 16.6501 11.1264C21.1767 11.104 23.6193 11.0928 23.989 11.1152C24.3588 11.0928 26.8126 11.0928 31.328 11.1264C31.7313 11.1152 31.9106 11.3281 31.8882 11.7875C32.1011 15.4513 32.2019 17.2889 32.2019 17.2889C32.2243 17.9275 25.2776 17.8939 23.989 17.9387C22.7005 17.8939 15.7538 17.9387 15.7762 17.2889Z" fill="#353043"/>
<path fill-rule="evenodd" clip-rule="evenodd" d="M23.9105 21.4122C23.7424 21.4122 23.5744 21.4122 23.4063 21.4122C23.3391 21.4122 23.2831 21.4122 23.2158 21.4122C23.1598 21.4122 23.0926 21.4122 23.0366 21.4122C22.9581 21.4122 22.8573 21.4122 22.7901 21.4458C22.7565 21.4682 22.734 21.4906 22.734 21.5355V21.5467C22.734 21.6027 22.7677 21.6699 22.8013 21.7259C22.8349 21.8044 22.9021 21.8716 22.9693 21.9388C23.0814 22.0509 23.3055 22.1741 23.5408 22.2413C23.5744 22.2526 23.608 22.2638 23.6416 22.275C23.664 22.2862 23.664 22.2974 23.6416 22.2974C23.608 22.2974 23.5632 22.2862 23.5296 22.275C23.2495 22.2077 23.0702 22.0957 22.9357 21.9948C22.8573 21.9276 22.7789 21.838 22.7228 21.7483C22.6892 21.6811 22.6556 21.5803 22.6444 21.5467C22.6332 21.5019 22.6332 21.4682 22.6332 21.3898C22.6444 21.2554 22.678 21.1545 22.7565 21.0313C22.7565 21.0201 22.7677 21.0201 22.7789 21.0089C22.7789 21.0089 22.7789 20.9977 22.7789 20.9864C22.7677 20.9864 22.7565 20.9977 22.7565 20.9977C22.6892 21.0649 22.6556 21.1321 22.622 21.1993C22.5772 21.3002 22.566 21.3674 22.5548 21.4458C22.5548 21.457 22.5324 21.4682 22.5324 21.4458C22.5324 21.3562 22.5436 21.2554 22.5884 21.1769C22.6332 21.0761 22.678 21.0201 22.734 20.9528C22.8013 20.8744 22.8909 20.8072 22.9805 20.7512C23.115 20.6615 23.2495 20.6055 23.4063 20.5719C23.4623 20.5607 23.5296 20.5383 23.5968 20.5383C23.6192 20.5383 23.6416 20.5383 23.6528 20.5383C23.664 20.5383 23.6864 20.5495 23.6528 20.5607C23.6192 20.5719 23.5744 20.5831 23.5408 20.5943C23.3951 20.6391 23.2495 20.6951 23.1262 20.7736C23.0142 20.8408 22.9693 20.8744 22.8349 21.0313C22.8237 21.0537 22.7901 21.1097 22.7677 21.1545C22.7565 21.1881 22.734 21.2329 22.734 21.2666C22.734 21.3002 22.7453 21.3226 22.7677 21.345C22.8237 21.3786 22.8797 21.3786 22.9581 21.3898C23.0142 21.3898 23.0702 21.3898 23.1262 21.3898C23.2046 21.3898 23.2831 21.3898 23.3727 21.3898C23.552 21.3898 23.7312 21.3898 23.8993 21.401C23.9217 21.401 23.9329 21.401 23.9553 21.401C24.1346 21.401 24.3139 21.401 24.4931 21.401C24.5716 21.401 24.6612 21.401 24.7396 21.401C24.7957 21.401 24.8517 21.401 24.9077 21.401C24.9861 21.401 25.0422 21.401 25.0982 21.3674C25.1206 21.3562 25.1318 21.3226 25.143 21.289C25.143 21.2554 25.1206 21.2105 25.1094 21.1769C25.087 21.1321 25.0534 21.0761 25.0422 21.0537C24.9189 20.8968 24.8629 20.852 24.7621 20.7848C24.6388 20.6951 24.4931 20.6391 24.3475 20.5943C24.3139 20.5831 24.2691 20.5719 24.2354 20.5607C24.2018 20.5495 24.2242 20.5383 24.2354 20.5383C24.2579 20.5383 24.2803 20.5383 24.2915 20.5383C24.3587 20.5495 24.4147 20.5607 24.4819 20.5831C24.6276 20.6279 24.7621 20.6839 24.8965 20.7736C24.9861 20.8296 25.0646 20.8968 25.143 20.9752C25.199 21.0537 25.2438 21.1097 25.2887 21.1993C25.3223 21.289 25.3447 21.3786 25.3335 21.4682C25.3335 21.4906 25.3111 21.4906 25.3111 21.4682C25.2999 21.3786 25.2999 21.3114 25.2551 21.2105C25.2214 21.1321 25.1878 21.0761 25.1206 21.0089C25.1206 20.9977 25.1094 20.9977 25.0982 20.9977C25.0982 21.0089 25.0982 21.0089 25.0982 21.0201C25.0982 21.0313 25.1094 21.0313 25.1206 21.0425C25.199 21.1657 25.2326 21.2666 25.2438 21.401C25.2438 21.4794 25.2326 21.5019 25.2326 21.5579C25.2326 21.5915 25.1878 21.7035 25.1542 21.7596C25.0982 21.8492 25.0198 21.9388 24.9413 22.0061C24.8069 22.1069 24.6164 22.2189 24.3363 22.2862C24.3027 22.2974 24.2579 22.3086 24.2242 22.3086C24.2018 22.3086 24.2018 22.2974 24.2242 22.2862C24.2579 22.275 24.3027 22.2638 24.3363 22.2526C24.5716 22.1965 24.7957 22.0621 24.9189 21.9612C24.9861 21.894 25.0534 21.8268 25.0982 21.7483C25.1206 21.6923 25.1654 21.6251 25.1654 21.5691C25.1654 21.5691 25.1654 21.5691 25.1654 21.5579C25.1542 21.5131 25.143 21.4906 25.1094 21.4682C25.0422 21.4346 24.9413 21.4346 24.8629 21.4346C24.8069 21.4346 24.7396 21.4346 24.6836 21.4346C24.6164 21.4346 24.5604 21.4346 24.4931 21.4346C24.3251 21.4346 24.157 21.4346 23.9777 21.4346C23.9553 21.4346 23.9441 21.4346 23.9217 21.4346L23.9105 21.4122ZM23.9105 21.3562C23.7873 21.3562 23.6752 21.3562 23.5632 21.3562C23.4735 21.3562 23.3951 21.3562 23.3055 21.345C23.227 21.345 23.1486 21.3338 23.0814 21.3338C23.0142 21.3338 22.9133 21.3114 22.8909 21.3002C22.8797 21.289 22.8797 21.2778 22.8909 21.2778C22.9021 21.2666 22.9245 21.2554 22.9469 21.2441C22.9581 21.2441 22.9693 21.2441 22.9693 21.2441C22.9805 21.2554 22.9918 21.2554 23.0142 21.2666C23.0814 21.289 23.1374 21.289 23.227 21.3002C23.2943 21.3114 23.3615 21.3114 23.4399 21.3114C23.5968 21.3226 23.6976 21.3226 23.9105 21.3226C23.9329 21.3226 23.9553 21.3226 23.9665 21.3226C24.1906 21.3226 24.2915 21.3226 24.4483 21.3226C24.5156 21.3226 24.5828 21.3226 24.6612 21.3114C24.7508 21.3002 24.8069 21.3002 24.8741 21.2778C24.8965 21.2778 24.8965 21.2666 24.9189 21.2554C24.9301 21.2554 24.9413 21.2441 24.9413 21.2554C24.9637 21.2666 24.9749 21.2778 24.9973 21.289C25.0086 21.3002 25.0086 21.3114 24.9973 21.3114C24.9861 21.3226 24.8853 21.3338 24.8069 21.3338C24.7284 21.3338 24.65 21.345 24.5828 21.345C24.4931 21.345 24.4147 21.345 24.3251 21.345C24.2018 21.345 24.0898 21.345 23.9665 21.345C23.9441 21.345 23.9329 21.345 23.9105 21.345V21.3562ZM23.9105 21.289C23.664 21.289 23.4063 21.289 23.171 21.2554C23.0478 21.2441 23.0142 21.1769 23.0142 21.1321C23.003 20.9977 23.2046 20.8184 23.3167 20.7624C23.4623 20.6839 23.5968 20.6279 23.7649 20.5831C23.7873 20.5719 23.7985 20.5495 23.7985 20.5271C23.7985 20.5047 23.7761 20.4822 23.7537 20.4822C23.6976 20.471 23.6416 20.471 23.5856 20.4822C23.4959 20.4935 23.4063 20.5159 23.3167 20.5383C23.2046 20.5719 23.0702 20.6279 22.9581 20.7063C22.8125 20.796 22.6892 20.908 22.5996 21.0537C22.5324 21.1545 22.4875 21.289 22.4875 21.401C22.4875 21.5355 22.5436 21.6811 22.6108 21.7932C22.678 21.9052 22.7789 21.9948 22.8909 22.0845C22.9918 22.1629 23.1038 22.2189 23.2158 22.2638C23.3167 22.3086 23.4175 22.331 23.5296 22.3422C23.5968 22.3534 23.664 22.3534 23.7312 22.3534C23.7537 22.3534 23.7761 22.331 23.7761 22.3086C23.7761 22.2862 23.7649 22.2638 23.7424 22.2638C23.6864 22.2413 23.5856 22.2189 23.5184 22.1853C23.4287 22.1517 23.3391 22.1069 23.2607 22.0509C23.1822 21.9948 23.1038 21.9388 23.059 21.8604C23.0254 21.8156 23.003 21.7596 23.003 21.7259C23.003 21.7035 23.003 21.6699 23.0142 21.6475C23.0702 21.5579 23.2158 21.5691 23.3167 21.5691C23.4175 21.5691 23.5072 21.5691 23.608 21.5579C23.7088 21.5579 23.8209 21.5579 23.9217 21.5579C24.0226 21.5579 24.1346 21.5579 24.2354 21.5691C24.3363 21.5691 24.4259 21.5691 24.5268 21.5803C24.6388 21.5915 24.7845 21.5803 24.8293 21.6699C24.8405 21.6923 24.8405 21.7259 24.8405 21.7483C24.8405 21.7932 24.8069 21.8492 24.7733 21.8828C24.7172 21.9612 24.6388 22.0173 24.5604 22.0621C24.4819 22.1181 24.3923 22.1517 24.3027 22.1853C24.2354 22.2189 24.1346 22.2413 24.0786 22.2638C24.0562 22.2638 24.045 22.2974 24.045 22.3086C24.045 22.331 24.0786 22.3422 24.0898 22.3534C24.157 22.3646 24.2242 22.3646 24.2915 22.3534C24.4035 22.3422 24.5043 22.3198 24.6052 22.275C24.7172 22.2301 24.8405 22.1741 24.9413 22.1069C25.0534 22.0285 25.1542 21.9388 25.2326 21.8268C25.3111 21.7147 25.3671 21.5691 25.3671 21.4346C25.3671 21.3226 25.3223 21.1881 25.2551 21.0873C25.1654 20.9416 25.0422 20.8296 24.8965 20.7287C24.7845 20.6615 24.6612 20.5943 24.538 20.5607C24.4483 20.5383 24.3587 20.5159 24.2691 20.5047C24.213 20.4934 24.157 20.4934 24.101 20.5047C24.0786 20.5047 24.0562 20.5271 24.0562 20.5495C24.0562 20.5719 24.0674 20.5943 24.0898 20.6055C24.2579 20.6503 24.3923 20.7175 24.538 20.796C24.65 20.852 24.8517 21.0425 24.8293 21.1769C24.8293 21.2217 24.7845 21.2778 24.6724 21.289C24.4371 21.3114 24.1682 21.3002 23.9329 21.3002C23.9105 21.3002 23.8993 21.3002 23.8769 21.3002L23.9105 21.289Z" fill="#D3D5D5"/>
<path d="M38.644 34.7672H9.38916V36.5599H38.644V34.7672Z" fill="#B3B3B3"/>
<path d="M38.644 38.2073H9.38916V40H38.644V38.2073Z" fill="#B3B3B3"/>
</svg>
