<svg width="49" height="48" viewBox="0 0 49 48" fill="none" xmlns="http://www.w3.org/2000/svg">
<path d="M25 48C38.2548 48 49 37.2548 49 24C49 10.7452 38.2548 0 25 0C11.7452 0 1 10.7452 1 24C1 37.2548 11.7452 48 25 48Z" fill="#940A0A"/>
<path fill-rule="evenodd" clip-rule="evenodd" d="M30.2911 4.513C30.2911 4.513 30.5311 3.24299 29.9811 2.81299C30.0711 2.72299 30.0511 2.49298 30.0211 2.27298C30.0111 2.21298 29.8111 1.833 29.7711 1.793C29.6211 1.633 29.2111 1.35301 29.0211 1.33301L27.0711 1.62299C27.0711 1.62299 26.2111 2.103 26.3811 2.703C26.4311 2.883 26.4911 3.31299 26.5511 3.47299C26.5711 3.53299 26.2711 3.93301 26.3511 4.08301C26.8311 4.91301 27.6111 5.19299 28.0711 5.66299C28.3311 5.92299 28.5811 6.18299 28.8411 6.44299L29.8011 5.71298L30.2911 4.513Z" fill="#F4A681"/>
<path fill-rule="evenodd" clip-rule="evenodd" d="M27.7712 3.54299C27.5612 3.41299 27.8212 3.12299 27.7512 2.73299C27.7412 2.68299 27.7312 2.643 27.7312 2.613C27.7312 2.603 27.7212 2.593 27.7112 2.583C27.5412 2.203 27.2712 2.29299 27.2712 2.29299C27.1012 2.40299 26.7812 2.863 26.7812 2.863L26.4512 2.53298L26.6212 3.39299C26.6312 3.42299 27.1112 2.45298 27.3012 2.38298C27.5512 2.30298 27.6612 2.62298 27.6612 2.63298C27.6812 2.81298 27.7112 3.45297 27.3212 3.77297C27.3212 3.77297 28.3312 3.60297 28.9812 4.62297C28.9812 4.62297 28.7312 3.833 29.9212 2.833C29.9012 2.833 27.9812 3.67299 27.7712 3.54299Z" fill="#D8785B"/>
<path fill-rule="evenodd" clip-rule="evenodd" d="M26.5612 20.0533C26.5612 20.0533 32.9012 19.0833 34.2812 17.1733C34.2812 17.1733 35.6112 14.3733 29.8012 5.72328C29.8012 5.72328 30.2412 4.75329 28.8412 6.45329L30.6812 15.1533C21.6512 17.6933 21.2812 18.6933 21.2812 18.6933C21.2812 18.6933 23.0712 20.3633 26.5612 20.0533Z" fill="#F6A083"/>
<path fill-rule="evenodd" clip-rule="evenodd" d="M4.13116 4.34308C4.13116 4.34308 3.89116 3.0731 4.44116 2.6431C4.35116 2.5531 4.37117 2.32309 4.39117 2.10309C4.40117 2.04309 4.60117 1.66308 4.64117 1.62308C4.79117 1.46308 5.21117 1.18309 5.39117 1.16309L7.34119 1.45309C7.34119 1.45309 8.20117 1.94308 8.04117 2.53308C7.99117 2.71308 7.93118 3.14307 7.87118 3.30307C7.85118 3.36307 8.15117 3.76309 8.07117 3.91309C7.59117 4.74309 6.81116 5.02307 6.35116 5.49307C6.09116 5.75307 5.84118 6.01307 5.58118 6.27307L4.62118 5.54309L4.13116 4.34308Z" fill="#F4A681"/>
<path fill-rule="evenodd" clip-rule="evenodd" d="M6.6412 3.37307C6.8512 3.24307 6.59119 2.95307 6.66119 2.56307C6.67119 2.51307 6.68121 2.47307 6.68121 2.44307C6.68121 2.43307 6.7012 2.42307 6.7012 2.41307C6.8712 2.03307 7.1412 2.12307 7.1412 2.12307C7.3112 2.23307 7.6312 2.69307 7.6312 2.69307L7.96121 2.36309L7.7912 3.22307C7.7812 3.25307 7.30121 2.28306 7.11121 2.21306C6.86121 2.13306 6.75119 2.45306 6.75119 2.46306C6.73119 2.64306 6.70122 3.27308 7.09122 3.60308C7.09122 3.60308 6.08121 3.43308 5.43121 4.45308C5.43121 4.45308 5.68121 3.66307 4.49121 2.66307C4.51121 2.67307 6.4312 3.50307 6.6412 3.37307Z" fill="#D8785B"/>
<path fill-rule="evenodd" clip-rule="evenodd" d="M7.85117 19.8834C7.85117 19.8834 1.51117 18.9134 0.131172 17.0034C0.131172 17.0034 -1.19882 14.2034 4.61118 5.55336C4.61118 5.55336 4.17117 4.58337 5.57117 6.28337L3.73118 14.9834C12.7612 17.5234 13.1312 18.5234 13.1312 18.5234C13.1312 18.5234 11.3412 20.2034 7.85117 19.8834Z" fill="#F6A083"/>
<path fill-rule="evenodd" clip-rule="evenodd" d="M10.8311 36.7832C10.7711 38.4132 10.7211 39.8932 10.6711 41.3932H22.5912C22.3912 39.9132 22.2311 38.6832 22.0711 37.4032C22.0711 37.4032 15.3911 38.2932 10.8311 36.7832Z" fill="#14251F"/>
<path fill-rule="evenodd" clip-rule="evenodd" d="M22.3811 40.0832C22.2811 39.5632 22.1511 37.8832 22.0711 37.4032C22.0711 37.4032 15.3911 38.2832 10.8311 36.7832C10.8311 36.7832 10.8211 37.2032 10.8011 37.6932C11.9811 38.0932 16.3711 40.3432 22.3811 40.0832Z" fill="#010201"/>
<path fill-rule="evenodd" clip-rule="evenodd" d="M11.1312 34.1831C11.1312 34.1831 15.1512 35.3731 22.4212 34.1831L22.4912 35.6131C22.4912 35.6131 16.5412 36.7131 11.1312 35.6331V34.1831Z" fill="#432810"/>
<path d="M17.6212 34.6831H15.5411V36.2631H17.6212V34.6831Z" fill="#D3A033"/>
<path d="M13.5958 34.506L13.522 36.1743L14.0215 36.1964L14.0953 34.5281L13.5958 34.506Z" fill="#4F5662"/>
<path d="M19.8614 34.4288L19.3625 34.4629L19.4764 36.129L19.9753 36.0949L19.8614 34.4288Z" fill="#4F5662"/>
<path fill-rule="evenodd" clip-rule="evenodd" d="M24.3312 16.7131C24.3312 16.7131 22.4712 15.903 20.1012 15.383C17.5712 14.943 16.8212 15.023 14.8712 15.423C13.7912 15.593 11.7912 16.0331 10.7212 16.5331C10.7212 16.5331 9.91119 23.003 10.5512 37.803C11.2112 39.113 16.7912 41.933 23.0912 37.633C23.0912 37.633 23.1112 25.923 24.1212 21.873C24.1112 21.873 24.0112 19.2631 24.3312 16.7131Z" fill="#97B7D0"/>
<path fill-rule="evenodd" clip-rule="evenodd" d="M15.8812 14.5632L15.8212 16.6232L19.2312 16.7132L19.3012 14.0332C17.8812 14.6932 16.4712 14.6332 15.8812 14.5632Z" fill="#F6A083"/>
<path fill-rule="evenodd" clip-rule="evenodd" d="M19.3212 14.0433L19.3812 11.9733L15.9712 11.8833L15.9012 14.5733C16.4712 14.6333 17.8812 14.6933 19.3212 14.0433Z" fill="#F08A6D"/>
<path fill-rule="evenodd" clip-rule="evenodd" d="M15.8812 14.563C15.8812 14.563 16.0312 15.973 17.1212 16.453C17.1212 16.453 19.1512 15.893 19.2912 14.563L20.4412 15.463C20.4412 15.463 19.6912 17.683 18.1212 18.263L17.1312 16.763L15.7912 18.003C15.7912 18.003 14.5012 16.433 14.6012 15.463L15.8812 14.563Z" fill="#97B7D0"/>
<path fill-rule="evenodd" clip-rule="evenodd" d="M23.4012 5.53322C23.2812 5.07322 23.1712 4.73322 23.0912 4.50322C22.9312 3.89322 21.9612 2.56321 19.3712 0.96321C15.6212 -1.35679 14.5411 1.24321 14.5411 1.24321C14.6811 0.733209 14.9511 0.333235 14.9511 0.333235C13.4311 1.08324 13.6011 6.48323 13.6011 6.48323C17.1811 9.69323 21.7511 9.31322 21.7511 9.31322C22.1111 8.24322 22.5812 6.75321 22.8712 5.80321C23.1212 6.07321 23.3012 6.37321 23.3012 6.37321C23.2712 5.92321 23.1212 5.27321 23.1212 5.27321L23.4012 5.53322Z" fill="#6F2E1D"/>
<path fill-rule="evenodd" clip-rule="evenodd" d="M20.3712 2.96329C19.0312 1.68329 17.1112 0.713301 15.7912 0.133301C14.8712 0.453301 14.5512 1.24329 14.5512 1.24329C14.6912 0.733286 14.9612 0.333313 14.9612 0.333313C14.5712 0.523313 14.2912 1.03331 14.0912 1.67331C17.8812 1.65331 20.3712 2.96329 20.3712 2.96329Z" fill="#874235"/>
<path fill-rule="evenodd" clip-rule="evenodd" d="M17.1112 5.17346L14.2212 4.27344C14.0812 4.27344 13.8712 4.29345 13.6512 4.31345C13.5712 5.49345 13.6012 6.47345 13.6012 6.47345C17.1812 9.68345 21.7512 9.30344 21.7512 9.30344C22.0712 8.34344 22.4812 7.06344 22.7612 6.12344C22.1812 5.62344 20.5412 5.16345 20.5412 5.16345L17.1112 5.17346Z" fill="#874235"/>
<path fill-rule="evenodd" clip-rule="evenodd" d="M15.2612 3.93298C15.2612 3.93298 14.8312 0.192999 17.8012 0.392999C17.8012 0.392999 15.5112 0.402977 15.2612 3.93298Z" fill="#9F5E56"/>
<path fill-rule="evenodd" clip-rule="evenodd" d="M16.1212 3.91309C16.1212 3.91309 16.7812 1.31309 18.5712 0.913086C18.5812 0.923086 17.0412 1.87309 16.1212 3.91309Z" fill="#9F5E56"/>
<path fill-rule="evenodd" clip-rule="evenodd" d="M17.3011 3.69297C17.3011 3.69297 18.4111 1.67297 21.2411 2.69297C21.2411 2.69297 18.9211 2.18297 17.3011 3.69297Z" fill="#9F5E56"/>
<path fill-rule="evenodd" clip-rule="evenodd" d="M18.7112 4.05326C18.7112 4.05326 20.2912 2.37328 22.7712 4.07328C22.7712 4.06328 20.6512 2.99326 18.7112 4.05326Z" fill="#9F5E56"/>
<path fill-rule="evenodd" clip-rule="evenodd" d="M21.4511 8.54299L20.8611 8.923C20.7811 8.643 20.7311 8.35298 20.6911 8.06298C20.4711 6.39298 20.5411 5.173 20.5411 5.173C17.0911 4.223 14.2211 4.28298 14.2211 4.28298C14.2011 4.83298 13.6011 6.48299 13.6011 6.48299C13.4111 7.93299 13.0511 10.393 13.8611 12.003C14.2011 12.683 14.6611 13.273 15.5411 13.523C19.3511 14.643 20.8511 10.973 20.8511 10.973C20.8511 10.973 22.0311 11.453 22.5111 9.69298C22.9011 8.22298 21.4511 8.54299 21.4511 8.54299Z" fill="#F6A083"/>
<path fill-rule="evenodd" clip-rule="evenodd" d="M20.6111 10.4731C20.1511 11.3931 18.6111 13.6031 15.9711 13.1131C14.5411 12.8431 13.9411 11.8031 13.5411 11.0731C13.6111 11.4031 13.7211 11.7031 13.8611 11.9831C14.2011 12.6631 14.6611 13.2531 15.5411 13.5031C19.3511 14.6231 20.8511 10.9531 20.8511 10.9531C20.8511 10.9531 21.7511 11.3331 22.3211 10.2031C21.4311 11.3231 20.6111 10.4731 20.6111 10.4731Z" fill="#F08A6D"/>
<path fill-rule="evenodd" clip-rule="evenodd" d="M15.5411 8.24295C15.4911 8.57295 15.2611 8.80296 15.0111 8.75296C14.7711 8.70296 14.6111 8.38294 14.6511 8.05294C14.7011 7.72294 14.9311 7.49296 15.1811 7.54296C15.4311 7.59296 15.5911 7.91295 15.5411 8.24295Z" fill="#4B2417"/>
<path fill-rule="evenodd" clip-rule="evenodd" d="M18.9512 8.59304C18.9012 8.92304 18.6712 9.15302 18.4212 9.10302C18.1812 9.05302 18.0212 8.73304 18.0612 8.40304C18.1112 8.07304 18.3412 7.84306 18.5912 7.89306C18.8412 7.94306 19.0012 8.25304 18.9512 8.59304Z" fill="#4B2417"/>
<path fill-rule="evenodd" clip-rule="evenodd" d="M16.5011 10.3031C15.7111 10.5131 15.3511 10.1031 15.3711 9.74313C15.3811 9.51313 15.5411 9.32315 15.7711 9.26315C16.2511 9.14315 16.6711 8.48314 16.6711 8.47314C16.6511 8.63314 16.4112 9.22312 15.7812 9.48312C15.6512 9.54312 15.5611 9.60318 15.5511 9.72318C15.5411 9.92318 15.7911 10.2631 16.5011 10.3031Z" fill="#DC7A61"/>
<path fill-rule="evenodd" clip-rule="evenodd" d="M14.2412 6.31339V6.08341C14.2912 6.08341 15.0912 5.9734 15.9912 6.1734L15.9512 6.53339C15.2212 6.32339 14.2512 6.32339 14.2412 6.31339Z" fill="#6F2E1D"/>
<path fill-rule="evenodd" clip-rule="evenodd" d="M19.7412 7.16327C19.1612 6.84327 18.0412 6.65326 18.0312 6.65326L18.1512 6.34326C18.1912 6.35326 19.2112 6.52328 19.8512 6.98328L19.7412 7.16327Z" fill="#6F2E1D"/>
<path fill-rule="evenodd" clip-rule="evenodd" d="M15.6412 17.793C15.9212 17.333 16.3112 16.943 16.7812 16.653C16.8912 16.583 17.0112 16.513 17.1312 16.453C16.5312 16.183 16.2112 15.643 16.0512 15.203C15.9212 14.843 15.8912 14.563 15.8912 14.563L14.6212 15.473C14.5912 15.743 15.2312 17.773 15.3512 18.393C15.4312 18.183 15.5212 17.983 15.6412 17.793Z" fill="#6E9BC0"/>
<path fill-rule="evenodd" clip-rule="evenodd" d="M17.3412 16.673C17.7612 17.113 18.1212 17.613 18.4312 18.143C18.4712 18.223 18.5212 18.293 18.5612 18.373C19.3012 17.663 19.8912 16.803 20.3012 15.863C20.3612 15.733 20.4112 15.603 20.4612 15.463L19.3112 14.563C19.2812 14.803 19.1912 15.023 19.0712 15.223C18.5012 16.083 17.1412 16.453 17.1412 16.453C17.2012 16.523 17.2712 16.593 17.3412 16.673Z" fill="#6E9BC0"/>
<path fill-rule="evenodd" clip-rule="evenodd" d="M5.54117 15.2231C7.58117 15.7131 9.44116 15.8531 10.7212 16.5431C13.1912 17.8631 14.0212 19.9831 13.6212 22.0131C11.6912 22.7631 7.88116 22.1431 4.75116 21.5731C4.81116 18.2031 5.07117 16.0831 5.54117 15.2231Z" fill="#97B7D0"/>
<path fill-rule="evenodd" clip-rule="evenodd" d="M19.0412 21.8232C19.0912 21.8232 19.1512 21.8232 19.2012 21.8232C19.2212 21.8232 19.2412 21.8232 19.2612 21.8232C19.2812 21.8232 19.3012 21.8232 19.3212 21.8232C19.3512 21.8232 19.3812 21.8232 19.4012 21.8332C19.4112 21.8432 19.4212 21.8432 19.4212 21.8632C19.4212 21.8832 19.4112 21.9032 19.4012 21.9232C19.3912 21.9532 19.3712 21.9732 19.3412 21.9932C19.3012 22.0332 19.2312 22.0732 19.1512 22.0932C19.1412 22.0932 19.1312 22.1031 19.1212 22.1031C19.1112 22.1031 19.1112 22.1132 19.1212 22.1132C19.1312 22.1132 19.1512 22.1131 19.1612 22.1031C19.2512 22.0831 19.3112 22.0432 19.3512 22.0132C19.3812 21.9932 19.4012 21.9632 19.4212 21.9332C19.4312 21.9132 19.4412 21.8832 19.4512 21.8632C19.4512 21.8432 19.4512 21.8432 19.4512 21.8132C19.4512 21.7732 19.4312 21.7332 19.4112 21.6932C19.4112 21.6932 19.4112 21.6832 19.4012 21.6832C19.4012 21.6832 19.4012 21.6832 19.4012 21.6732H19.4112C19.4312 21.6932 19.4412 21.7132 19.4512 21.7432C19.4612 21.7732 19.4712 21.7932 19.4712 21.8232C19.4712 21.8332 19.4812 21.8332 19.4812 21.8232C19.4812 21.7932 19.4712 21.7632 19.4612 21.7332C19.4512 21.7032 19.4312 21.6831 19.4112 21.6631C19.3912 21.6431 19.3612 21.6131 19.3312 21.6031C19.2912 21.5731 19.2412 21.5532 19.1912 21.5432C19.1712 21.5332 19.1512 21.5332 19.1312 21.5332C19.1212 21.5332 19.1212 21.5332 19.1112 21.5332C19.1112 21.5332 19.1012 21.5332 19.1112 21.5432C19.1212 21.5432 19.1312 21.5532 19.1512 21.5532C19.2012 21.5632 19.2412 21.5832 19.2912 21.6132C19.3312 21.6332 19.3412 21.6432 19.3812 21.7032C19.3812 21.7132 19.4012 21.7232 19.4012 21.7432C19.4012 21.7532 19.4112 21.7732 19.4112 21.7832C19.4112 21.7932 19.4112 21.8032 19.4012 21.8032C19.3812 21.8132 19.3612 21.8132 19.3412 21.8132C19.3212 21.8132 19.3012 21.8132 19.2912 21.8132C19.2612 21.8132 19.2412 21.8132 19.2112 21.8132C19.1512 21.8132 19.0912 21.8132 19.0412 21.8132C19.0312 21.8132 19.0312 21.8132 19.0212 21.8132C18.9612 21.8132 18.9012 21.8132 18.8412 21.8132C18.8112 21.8132 18.7912 21.8132 18.7612 21.8132C18.7412 21.8132 18.7212 21.8132 18.7112 21.8132C18.6812 21.8132 18.6712 21.8132 18.6512 21.8032C18.6412 21.7932 18.6412 21.7932 18.6412 21.7832C18.6412 21.7732 18.6512 21.7532 18.6512 21.7432C18.6612 21.7332 18.6712 21.7132 18.6712 21.7032C18.7112 21.6532 18.7312 21.6432 18.7612 21.6132C18.8012 21.5832 18.8512 21.5632 18.9012 21.5532C18.9112 21.5532 18.9312 21.5432 18.9412 21.5432C18.9512 21.5432 18.9412 21.5332 18.9412 21.5332C18.9312 21.5332 18.9312 21.5332 18.9212 21.5332C18.9012 21.5332 18.8812 21.5432 18.8612 21.5432C18.8112 21.5532 18.7712 21.5731 18.7212 21.6031C18.6912 21.6231 18.6612 21.6432 18.6412 21.6732C18.6212 21.6932 18.6112 21.7132 18.5912 21.7432C18.5812 21.7732 18.5712 21.8032 18.5712 21.8332C18.5712 21.8432 18.5812 21.8432 18.5812 21.8332C18.5812 21.8032 18.5912 21.7832 18.6012 21.7532C18.6112 21.7332 18.6212 21.7132 18.6412 21.6832C18.6412 21.6832 18.6512 21.6732 18.6512 21.6832C18.6512 21.6832 18.6512 21.6832 18.6512 21.6932C18.6512 21.6932 18.6512 21.7032 18.6412 21.7032C18.6212 21.7432 18.6012 21.7732 18.6012 21.8232C18.6012 21.8532 18.6012 21.8532 18.6012 21.8732C18.6012 21.8832 18.6112 21.9232 18.6312 21.9432C18.6512 21.9732 18.6812 22.0032 18.7012 22.0232C18.7412 22.0532 18.8112 22.0932 18.9012 22.1132C18.9112 22.1132 18.9212 22.1232 18.9412 22.1232C18.9512 22.1232 18.9512 22.1232 18.9412 22.1132C18.9312 22.1132 18.9212 22.1031 18.9112 22.1031C18.8312 22.0831 18.7612 22.0432 18.7212 22.0032C18.7012 21.9832 18.6812 21.9632 18.6612 21.9332C18.6512 21.9132 18.6412 21.8932 18.6412 21.8732C18.6412 21.8632 18.6512 21.8532 18.6612 21.8432C18.6812 21.8332 18.7112 21.8332 18.7412 21.8332C18.7612 21.8332 18.7812 21.8332 18.8012 21.8332C18.8212 21.8332 18.8412 21.8332 18.8612 21.8332C18.9212 21.8332 18.9712 21.8332 19.0312 21.8332C19.0212 21.8232 19.0312 21.8232 19.0412 21.8232ZM19.0312 21.8032C19.0212 21.8032 19.0212 21.8032 19.0112 21.8032C18.9712 21.8032 18.9312 21.8032 18.8912 21.8032C18.8612 21.8032 18.8312 21.8032 18.8112 21.8032C18.7912 21.8032 18.7612 21.8032 18.7412 21.8032C18.7212 21.8032 18.6812 21.8032 18.6812 21.7932V21.7832C18.6812 21.7832 18.6912 21.7732 18.7012 21.7732H18.7112C18.7112 21.7732 18.7212 21.7732 18.7212 21.7832C18.7412 21.7932 18.7612 21.7932 18.7912 21.7932C18.8112 21.7932 18.8412 21.7932 18.8612 21.7932C18.9112 21.7932 18.9412 21.7932 19.0212 21.7932C19.0212 21.7932 19.0312 21.7932 19.0312 21.8032C19.1012 21.7932 19.1312 21.7932 19.1812 21.7932C19.2012 21.7932 19.2312 21.7932 19.2512 21.7932C19.2812 21.7932 19.3012 21.7832 19.3212 21.7832C19.3312 21.7832 19.3312 21.7832 19.3312 21.7732H19.3412C19.3512 21.7732 19.3512 21.7832 19.3612 21.7832V21.7932C19.3512 21.7932 19.3212 21.8032 19.3012 21.8032C19.2812 21.8032 19.2512 21.8032 19.2312 21.8032C19.2012 21.8032 19.1812 21.8032 19.1512 21.8032C19.1112 21.8032 19.0712 21.8032 19.0312 21.8032ZM19.0312 21.7832C19.1112 21.7832 19.1912 21.7832 19.2712 21.7732C19.3112 21.7732 19.3212 21.7432 19.3212 21.7332C19.3212 21.6932 19.2612 21.6332 19.2212 21.6132C19.1712 21.5832 19.1312 21.5632 19.0712 21.5532C19.0612 21.5532 19.0612 21.5432 19.0612 21.5332C19.0612 21.5232 19.0712 21.5232 19.0712 21.5232C19.0912 21.5232 19.1112 21.5232 19.1212 21.5232C19.1512 21.5232 19.1812 21.5332 19.2112 21.5432C19.2512 21.5532 19.2912 21.5732 19.3312 21.5932C19.3812 21.6232 19.4212 21.6632 19.4512 21.7032C19.4712 21.7332 19.4912 21.7832 19.4912 21.8132C19.4912 21.8632 19.4712 21.9032 19.4512 21.9432C19.4312 21.9832 19.3912 22.0132 19.3612 22.0332C19.3312 22.0532 19.2912 22.0732 19.2512 22.0932C19.2212 22.1032 19.1812 22.1132 19.1512 22.1232C19.1312 22.1232 19.1112 22.1332 19.0812 22.1232C19.0712 22.1232 19.0612 22.1132 19.0612 22.1132C19.0612 22.1032 19.0612 22.1032 19.0712 22.0932C19.0912 22.0832 19.1212 22.0732 19.1412 22.0632C19.1712 22.0532 19.2012 22.0332 19.2212 22.0232C19.2512 22.0032 19.2712 21.9832 19.2912 21.9632C19.3012 21.9532 19.3112 21.9331 19.3112 21.9131C19.3112 21.9031 19.3112 21.8932 19.3112 21.8832C19.2912 21.8532 19.2512 21.8531 19.2112 21.8531C19.1812 21.8531 19.1512 21.8531 19.1112 21.8531C19.0812 21.8531 19.0412 21.8531 19.0112 21.8531C18.9812 21.8531 18.9412 21.8531 18.9112 21.8531C18.8812 21.8531 18.8512 21.8531 18.8112 21.8531C18.7712 21.8531 18.7312 21.8532 18.7112 21.8832C18.7112 21.8932 18.7112 21.9031 18.7112 21.9131C18.7112 21.9231 18.7212 21.9432 18.7312 21.9532C18.7512 21.9732 18.7712 21.9932 18.8012 22.0132C18.8312 22.0332 18.8512 22.0432 18.8812 22.0532C18.9012 22.0632 18.9312 22.0732 18.9512 22.0732C18.9612 22.0732 18.9612 22.0832 18.9612 22.0932C18.9612 22.1032 18.9512 22.1031 18.9412 22.1031C18.9212 22.1031 18.9012 22.1031 18.8712 22.1031C18.8412 22.0931 18.8012 22.0932 18.7712 22.0832C18.7312 22.0732 18.6912 22.0532 18.6612 22.0232C18.6212 21.9932 18.5912 21.9632 18.5712 21.9332C18.5412 21.8932 18.5312 21.8532 18.5312 21.8032C18.5312 21.7632 18.5412 21.7232 18.5712 21.6932C18.6012 21.6432 18.6412 21.6132 18.6912 21.5832C18.7312 21.5632 18.7712 21.5432 18.8112 21.5332C18.8412 21.5232 18.8712 21.5232 18.9012 21.5132C18.9212 21.5132 18.9412 21.5132 18.9512 21.5132C18.9612 21.5132 18.9612 21.5232 18.9612 21.5232C18.9612 21.5332 18.9612 21.5332 18.9512 21.5432C18.8912 21.5632 18.8512 21.5831 18.8112 21.6031C18.7812 21.6231 18.7112 21.6832 18.7112 21.7232C18.7112 21.7332 18.7212 21.7532 18.7612 21.7632C18.8412 21.7732 18.9212 21.7732 19.0012 21.7632C19.0212 21.7832 19.0312 21.7832 19.0312 21.7832Z" fill="#E50B14"/>
<path fill-rule="evenodd" clip-rule="evenodd" d="M20.0811 21.6732V21.6432C20.0811 21.6332 20.0911 21.6332 20.1011 21.6332H20.1711H20.2411C20.2511 21.6332 20.2611 21.6332 20.2611 21.6432V21.8132V21.9832C20.2611 21.9932 20.2511 21.9932 20.2411 21.9932H20.1711H20.1011C20.0911 21.9932 20.0811 21.9832 20.0811 21.9832V21.9432C20.0811 21.9332 20.0811 21.9233 20.0811 21.9033C20.0811 21.8833 20.0711 21.8732 20.0511 21.8732C20.0211 21.8732 19.9912 21.8732 19.9612 21.8732C19.9312 21.8732 19.9012 21.8732 19.8712 21.8732C19.8512 21.8732 19.8412 21.8933 19.8412 21.9033C19.8412 21.9133 19.8412 21.9232 19.8412 21.9332V21.9832C19.8412 21.9932 19.8311 21.9932 19.8211 21.9932H19.7511H19.6812C19.6712 21.9932 19.6611 21.9932 19.6611 21.9832V21.8132V21.6432C19.6611 21.6332 19.6712 21.6332 19.6812 21.6332H19.7511H19.8211C19.8311 21.6332 19.8412 21.6332 19.8412 21.6432V21.7133C19.8412 21.7333 19.8711 21.7532 19.8911 21.7532H19.9312H20.0111H20.0511C20.0811 21.7532 20.1011 21.7333 20.1011 21.7133C20.0811 21.6933 20.0811 21.6832 20.0811 21.6732ZM21.8211 21.5933H21.8811H21.9211H21.9811C22.0111 21.5933 22.0912 21.6032 22.1212 21.6032C22.1812 21.6232 22.2311 21.6533 22.2311 21.7733V21.7833V21.8132V21.8532C22.2311 21.9432 22.1812 21.9732 22.1212 21.9932C22.0812 22.0032 21.9712 22.0132 21.9612 22.0132H21.9211H21.8811H21.8412C21.8312 22.0132 21.7112 22.0032 21.6812 22.0032C21.6212 21.9932 21.5711 21.9532 21.5711 21.8632V21.8232V21.7932V21.7833C21.5711 21.6633 21.6212 21.6332 21.6812 21.6132C21.7112 21.5932 21.7911 21.5933 21.8211 21.5933ZM21.8811 21.6932H21.8611C21.8511 21.6932 21.8011 21.6932 21.7911 21.7032C21.7611 21.7132 21.7511 21.7233 21.7511 21.7733V21.7833V21.7932V21.8132V21.8232C21.7511 21.8732 21.7711 21.8832 21.7911 21.8932C21.8111 21.8932 21.8511 21.8932 21.8611 21.8932H21.8811H21.8911H21.9012H21.9111H21.9312C21.9412 21.8932 21.9911 21.8932 22.0011 21.8832C22.0311 21.8732 22.0411 21.8632 22.0411 21.8132V21.8032V21.7833V21.7733V21.7632C22.0411 21.7132 22.0211 21.7032 22.0011 21.6932C21.9811 21.6932 21.9412 21.6932 21.9312 21.6932H21.9111H21.9012H21.8911H21.8811ZM20.7911 21.8032V21.6332C20.7911 21.6232 20.8012 21.6232 20.8112 21.6232H20.8911H20.9711C20.9911 21.6232 21.0212 21.6333 21.0612 21.6533C21.1012 21.6733 21.1411 21.6932 21.1611 21.7032C21.2311 21.7432 21.2511 21.7532 21.2611 21.7032V21.6232C21.2611 21.6132 21.2712 21.6132 21.2812 21.6132H21.3511H21.4211C21.4311 21.6132 21.4411 21.6132 21.4411 21.6232V21.7932V21.9633C21.4411 21.9733 21.4311 21.9733 21.4211 21.9733H21.3412H21.2611C21.2511 21.9733 21.2411 21.9733 21.2411 21.9633V21.9532C21.2411 21.9232 21.1812 21.8832 21.1212 21.8532C21.0412 21.8032 20.9811 21.7733 20.9711 21.8433V21.9733C20.9711 21.9833 20.9611 21.9832 20.9511 21.9832H20.8712H20.7911C20.7811 21.9832 20.7811 21.9833 20.7711 21.9733L20.7911 21.8032ZM20.4312 21.8132V21.6432C20.4312 21.6332 20.4411 21.6332 20.4511 21.6332H20.5312H20.6111C20.6211 21.6332 20.6311 21.6332 20.6311 21.6432V21.8132V21.9832C20.6311 21.9932 20.6211 21.9932 20.6111 21.9932H20.5312H20.4511C20.4411 21.9932 20.4312 21.9832 20.4312 21.9832V21.8132Z" fill="#E9EAEA"/>
<path fill-rule="evenodd" clip-rule="evenodd" d="M16.8112 38.0934C16.5612 32.0334 16.4612 24.9933 16.5112 16.8233C16.6412 16.7533 16.5912 16.5933 16.6312 16.6233L16.8112 38.0934Z" fill="#6E9BC0"/>
<path fill-rule="evenodd" clip-rule="evenodd" d="M17.5212 38.073C17.3912 32.003 17.4412 24.953 17.6512 16.803C17.7812 16.743 17.7312 16.573 17.7712 16.613L17.5212 38.073Z" fill="#6E9BC0"/>
<path fill-rule="evenodd" clip-rule="evenodd" d="M10.5412 37.8032C10.2812 31.9732 10.1412 27.5932 10.3112 25.1432C10.3212 25.0432 10.6112 23.2432 10.6412 23.2432C10.5512 30.4532 10.6112 35.3332 10.8312 37.8732L10.5412 37.8032Z" fill="#6E9BC0"/>
<path fill-rule="evenodd" clip-rule="evenodd" d="M22.9012 37.673C22.6112 29.963 22.8912 25.093 23.7412 23.063C23.5012 24.223 23.3012 25.793 23.1612 27.773C23.0012 30.303 22.9712 33.593 23.0812 37.643C22.9612 37.663 22.9012 37.673 22.9012 37.673Z" fill="#6E9BC0"/>
<path fill-rule="evenodd" clip-rule="evenodd" d="M18.7912 26.623L18.7512 23.103L18.9912 26.3931L20.7112 26.853L21.9912 26.423L22.3312 23.123L22.1612 26.5331L20.7312 27.0031L18.7912 26.623Z" fill="#6E9BC0"/>
<path fill-rule="evenodd" clip-rule="evenodd" d="M18.7512 23.1033C19.9412 23.0033 21.1412 23.0133 22.3312 23.1233C21.1512 22.8633 19.9312 22.8533 18.7512 23.1033Z" fill="#6E9BC0"/>
<path fill-rule="evenodd" clip-rule="evenodd" d="M29.7112 14.9932C23.6612 16.1732 20.8712 18.3131 21.3312 21.4131C23.2312 22.2431 27.0612 21.8032 30.2112 21.3732C30.3012 18.0032 30.1312 15.8732 29.7112 14.9932Z" fill="#97B7D0"/>
<path fill-rule="evenodd" clip-rule="evenodd" d="M15.3512 10.7432L15.4412 12.0032C15.4412 12.0032 17.1212 12.7232 17.6112 11.0532C17.6212 11.0532 16.3012 11.1132 15.3512 10.7432Z" fill="white"/>
<path fill-rule="evenodd" clip-rule="evenodd" d="M15.4012 11.2734C15.4012 11.2734 16.2312 11.5834 16.7912 11.4934C16.7912 11.4934 16.4012 11.7034 15.4212 11.4534L15.4012 11.2734Z" fill="#B5B4B0"/>
<path fill-rule="evenodd" clip-rule="evenodd" d="M12.9412 15.8232C11.6312 16.2132 10.6512 16.3533 9.99119 16.2233C9.03119 18.0133 9.08118 18.7633 10.1612 18.4633L12.9412 15.8232Z" fill="#97B7D0"/>
<path fill-rule="evenodd" clip-rule="evenodd" d="M26.0412 15.9634C25.1212 16.2434 24.2211 16.3634 23.3511 16.3334C21.8211 17.7034 21.6912 18.4334 22.9812 18.5334L26.0412 15.9634Z" fill="#97B7D0"/>
<path fill-rule="evenodd" clip-rule="evenodd" d="M47.8312 21.493C47.8312 21.493 48.4612 19.843 48.1712 18.563C48.1712 18.563 48.0112 18.003 47.6612 18.153C47.3112 18.303 47.1312 17.793 46.7612 17.943C46.3912 18.093 46.2112 17.723 45.7912 18.073C45.7912 18.073 45.4412 17.893 45.1812 18.173C44.9312 18.453 44.2912 19.043 44.3812 19.233C44.4612 19.423 44.6712 20.293 44.7512 20.333C44.8412 20.373 44.9912 20.403 45.1312 20.133C45.1312 20.133 45.0912 20.443 45.1612 20.803C45.2312 21.163 45.8012 21.773 45.8012 21.773L46.7912 22.833L47.8312 21.493Z" fill="#F4A681"/>
<path fill-rule="evenodd" clip-rule="evenodd" d="M43.9312 27.463C43.9312 27.463 41.2912 21.413 40.5212 21.263C39.7512 21.113 39.9612 27.213 39.9612 27.213C40.9312 29.633 43.8812 31.903 43.8812 31.903C43.9712 31.953 44.0512 31.993 44.1412 32.033C45.9612 31.543 43.9312 27.463 43.9312 27.463Z" fill="#97B7D0"/>
<path fill-rule="evenodd" clip-rule="evenodd" d="M47.8312 21.4933L46.9912 20.4033L45.7012 21.6333C44.3112 25.9133 43.9412 27.4633 43.9412 27.4633C43.9412 27.4633 42.4912 30.1633 44.1412 32.0233C47.2212 33.2333 47.8312 21.4933 47.8312 21.4933Z" fill="#F4A681"/>
<path fill-rule="evenodd" clip-rule="evenodd" d="M40.8112 18.8032C40.8112 18.8032 42.1312 14.3032 40.1512 9.8732C38.6112 6.4332 36.5212 8.03321 36.5212 8.03321C36.5212 8.03321 34.6512 6.60321 33.2612 8.31321C31.8712 10.0132 28.2612 15.5832 31.0412 18.2932C34.1012 21.2632 40.8112 18.8032 40.8112 18.8032Z" fill="#3D1C12"/>
<path fill-rule="evenodd" clip-rule="evenodd" d="M31.8912 10.2731C32.2912 9.65307 32.6812 9.06305 33.0112 8.62305C35.8712 10.203 38.3412 9.50307 39.6212 8.89307C39.8012 9.16307 39.9812 9.48304 40.1512 9.86304C40.2612 10.103 40.3512 10.353 40.4412 10.613C38.6312 10.783 35.2012 10.9331 31.8912 10.2731Z" fill="#7D4C45"/>
<path fill-rule="evenodd" clip-rule="evenodd" d="M40.8612 34.2832C40.8612 34.2832 42.7812 36.4232 43.0412 41.3932H30.7212C30.9212 38.7932 31.6812 36.2532 33.4612 34.3832L40.8612 34.2832Z" fill="#14251F"/>
<path fill-rule="evenodd" clip-rule="evenodd" d="M33.3412 20.733C35.3912 20.143 37.2212 20.333 38.4712 20.673C39.8012 21.013 40.5312 21.263 40.5312 21.263L40.8612 23.473C42.1712 25.143 42.5612 26.113 42.5712 26.603C42.6012 27.693 41.3512 28.673 41.3512 28.673L40.8612 34.283C36.5212 35.973 33.4812 34.383 33.4812 34.383C33.0012 31.103 31.2312 26.313 31.2312 26.313V21.603C31.8912 21.213 32.6612 20.923 33.3412 20.733Z" fill="#97B7D0"/>
<path fill-rule="evenodd" clip-rule="evenodd" d="M37.1812 19.6232L37.1911 21.6832L34.6711 21.6932L34.6611 19.0132C35.7011 19.6932 36.7512 19.6732 37.1812 19.6232Z" fill="#F4A681"/>
<path fill-rule="evenodd" clip-rule="evenodd" d="M34.6512 19.0131L34.6412 16.9431L37.1612 16.9331L37.1712 19.6231C36.7512 19.6731 35.7012 19.6931 34.6512 19.0131Z" fill="#D8785B"/>
<path fill-rule="evenodd" clip-rule="evenodd" d="M37.1912 19.7231C37.1912 19.7231 37.2312 20.9131 36.4012 21.3931C36.4012 21.3931 34.7412 21.0331 34.6312 19.7031L33.7212 20.6331C33.7212 20.6331 34.7612 22.6031 35.9612 23.2031L36.4512 21.6931L37.7312 22.9531C37.7312 22.9531 38.2512 21.4731 38.1612 20.5131L37.1912 19.7231Z" fill="#6E9BC0"/>
<path fill-rule="evenodd" clip-rule="evenodd" d="M32.1912 13.2633L32.5112 13.3833C35.4712 12.0333 36.4812 8.90332 36.4812 8.90332C37.1912 10.7133 39.0212 13.2633 40.0012 13.7033C40.0112 14.3033 39.9012 15.2033 39.7912 16.0033C39.5712 17.5733 38.6912 18.6933 37.1312 18.9833C33.3512 19.6833 32.4612 16.0833 32.4612 16.0833C32.4612 16.0833 31.0512 16.0434 30.9812 14.2234C30.9012 12.7434 32.1912 13.2633 32.1912 13.2633Z" fill="#F4A681"/>
<path fill-rule="evenodd" clip-rule="evenodd" d="M32.8011 15.7332C32.8011 15.7332 33.6911 18.4032 35.7711 18.7932C37.0411 19.0232 38.1611 18.5332 38.8511 18.1132C38.4211 18.5632 37.8412 18.8732 37.1212 19.0032C33.3412 19.7032 32.4511 16.1031 32.4511 16.1031C32.4511 16.1031 31.3411 16.0632 31.0411 14.7832C31.9111 16.1232 32.8011 15.7332 32.8011 15.7332Z" fill="#D8785B"/>
<path fill-rule="evenodd" clip-rule="evenodd" d="M39.3912 17.3334C39.4312 17.2534 39.4712 17.1734 39.5012 17.0834C39.8012 16.8134 39.9912 16.4234 39.9712 15.9834C39.9612 15.8034 39.9212 15.6334 39.8512 15.4834C39.8612 15.4034 39.8712 15.3334 39.8812 15.2534C40.0112 15.4634 40.0912 15.7134 40.1012 15.9834C40.1312 16.5434 39.8412 17.0534 39.3912 17.3334Z" fill="#3D1C12"/>
<path fill-rule="evenodd" clip-rule="evenodd" d="M38.5912 17.5632C37.7812 17.5632 37.1112 16.9232 37.0812 16.1132C37.0412 15.2732 37.6912 14.5732 38.5312 14.5332C38.5512 14.5332 38.5712 14.5332 38.6012 14.5332C39.1412 14.5332 39.6212 14.8232 39.8912 15.2532C39.8812 15.3332 39.8712 15.4032 39.8612 15.4832C39.6412 14.9932 39.1612 14.6631 38.6012 14.6631C38.5812 14.6631 38.5612 14.6631 38.5412 14.6631C37.7812 14.6931 37.1912 15.3431 37.2212 16.1031C37.2512 16.8431 37.8612 17.4232 38.6012 17.4232C38.6212 17.4232 38.6412 17.4232 38.6612 17.4232C38.9912 17.4132 39.2812 17.2832 39.5112 17.0832C39.4712 17.1732 39.4412 17.2532 39.4012 17.3332C39.1912 17.4632 38.9412 17.5432 38.6712 17.5632C38.6312 17.5632 38.6112 17.5632 38.5912 17.5632Z" fill="#F4A681"/>
<path fill-rule="evenodd" clip-rule="evenodd" d="M39.5012 17.0834C39.5412 16.9734 39.5812 16.8634 39.6212 16.7534C39.7712 16.5334 39.8512 16.2734 39.8412 15.9934C39.8412 15.9234 39.8312 15.8534 39.8112 15.7934C39.8212 15.6934 39.8412 15.5934 39.8512 15.4834C39.9212 15.6334 39.9612 15.8034 39.9712 15.9834C39.9912 16.4234 39.8112 16.8134 39.5012 17.0834Z" fill="#4D251B"/>
<path fill-rule="evenodd" clip-rule="evenodd" d="M38.5912 17.4231C37.8612 17.4231 37.2412 16.8431 37.2112 16.1031C37.1812 15.3431 37.7712 14.6931 38.5312 14.6631C38.5512 14.6631 38.5712 14.6631 38.5912 14.6631C39.1512 14.6631 39.6412 14.9931 39.8512 15.4831C39.8412 15.5831 39.8212 15.6931 39.8112 15.7931C39.6912 15.2231 39.1912 14.8031 38.5912 14.8031C38.5712 14.8031 38.5512 14.8031 38.5312 14.8031C37.8412 14.8331 37.3112 15.4131 37.3412 16.1031C37.3712 16.7731 37.9212 17.2931 38.5912 17.2931C38.6112 17.2931 38.6312 17.2931 38.6512 17.2931C39.0612 17.2731 39.4112 17.0631 39.6312 16.7531C39.5912 16.8631 39.5512 16.9831 39.5112 17.0831C39.2812 17.2831 38.9812 17.4131 38.6612 17.4231C38.6312 17.4231 38.6112 17.4231 38.5912 17.4231Z" fill="#F3A27E"/>
<path fill-rule="evenodd" clip-rule="evenodd" d="M39.6212 16.753C39.6912 16.523 39.7412 16.283 39.7812 16.023C39.7912 15.943 39.8012 15.873 39.8112 15.793C39.8212 15.863 39.8312 15.923 39.8412 15.993C39.8512 16.273 39.7712 16.533 39.6212 16.753Z" fill="#5B2C23"/>
<path fill-rule="evenodd" clip-rule="evenodd" d="M38.5912 17.2932C37.9312 17.2932 37.3712 16.7732 37.3412 16.1032C37.3112 15.4132 37.8412 14.8332 38.5312 14.8032C38.5512 14.8032 38.5712 14.8032 38.5912 14.8032C39.1912 14.8032 39.6912 15.2232 39.8112 15.7932C39.8012 15.8732 39.7912 15.9433 39.7812 16.0233C39.7412 16.2833 39.6912 16.5232 39.6212 16.7532C39.4112 17.0632 39.0512 17.2832 38.6412 17.2932C38.6312 17.2932 38.6112 17.2932 38.5912 17.2932ZM38.5912 14.9332C38.5712 14.9332 38.5612 14.9332 38.5412 14.9332C37.9212 14.9632 37.4512 15.4833 37.4712 16.0933C37.5012 16.6933 37.9912 17.1632 38.5812 17.1632C38.6012 17.1632 38.6112 17.1632 38.6312 17.1632C39.2512 17.1332 39.7212 16.6132 39.7012 16.0032C39.6812 15.3932 39.1912 14.9332 38.5912 14.9332Z" fill="#F39F7B"/>
<path fill-rule="evenodd" clip-rule="evenodd" d="M38.5912 17.1631C38.0012 17.1631 37.5012 16.6931 37.4812 16.0931C37.4512 15.4731 37.9312 14.9531 38.5512 14.9331C38.5712 14.9331 38.5812 14.9331 38.6012 14.9331C39.1912 14.9331 39.6912 15.4031 39.7112 16.0031C39.7412 16.6231 39.2612 17.1431 38.6412 17.1631C38.6212 17.1631 38.6112 17.1631 38.5912 17.1631ZM38.5912 15.0631C38.5812 15.0631 38.5612 15.0631 38.5512 15.0631C38.0112 15.0831 37.5912 15.5431 37.6112 16.0831C37.6312 16.6131 38.0712 17.0231 38.5912 17.0231C38.6012 17.0231 38.6212 17.0231 38.6312 17.0231C39.1712 17.0031 39.5912 16.5431 39.5712 16.0031C39.5512 15.4731 39.1112 15.0631 38.5912 15.0631Z" fill="#F29977"/>
<path fill-rule="evenodd" clip-rule="evenodd" d="M38.5912 17.023C38.0712 17.023 37.6312 16.613 37.6112 16.083C37.5912 15.543 38.0112 15.083 38.5512 15.063C38.5612 15.063 38.5812 15.063 38.5912 15.063C39.1112 15.063 39.5512 15.473 39.5712 16.003C39.5912 16.543 39.1711 17.003 38.6311 17.023C38.6211 17.023 38.6112 17.023 38.5912 17.023ZM38.5912 15.193C38.5812 15.193 38.5712 15.193 38.5512 15.193C38.0812 15.213 37.7212 15.613 37.7412 16.073C37.7612 16.533 38.1412 16.883 38.5912 16.883C38.6012 16.883 38.6111 16.883 38.6311 16.883C39.1011 16.863 39.4611 16.463 39.4411 16.003C39.4211 15.553 39.0412 15.193 38.5912 15.193Z" fill="#F09675"/>
<path fill-rule="evenodd" clip-rule="evenodd" d="M38.5912 16.8931C38.1412 16.8931 37.7612 16.5331 37.7412 16.0831C37.7212 15.6131 38.0811 15.2231 38.5511 15.2031C38.5611 15.2031 38.5812 15.2031 38.5912 15.2031C39.0412 15.2031 39.4211 15.5631 39.4411 16.0131C39.4611 16.4831 39.1011 16.8731 38.6311 16.8931C38.6111 16.8931 38.6012 16.8931 38.5912 16.8931ZM38.5912 15.3331C38.5812 15.3331 38.5712 15.3331 38.5612 15.3331C38.1612 15.3531 37.8611 15.6831 37.8811 16.0831C37.9011 16.4631 38.2112 16.7731 38.5912 16.7731C38.6012 16.7731 38.6112 16.7731 38.6212 16.7731C39.0212 16.7531 39.3212 16.4231 39.3112 16.0231C39.2912 15.6331 38.9712 15.3331 38.5912 15.3331Z" fill="#EF9071"/>
<path fill-rule="evenodd" clip-rule="evenodd" d="M38.5912 16.7632C38.2112 16.7632 37.8912 16.4632 37.8812 16.0732C37.8612 15.6832 38.1712 15.3432 38.5612 15.3232C38.5712 15.3232 38.5812 15.3232 38.5912 15.3232C38.9712 15.3232 39.2912 15.6232 39.3112 16.0132C39.3312 16.4132 39.0212 16.7432 38.6212 16.7632C38.6112 16.7632 38.6012 16.7632 38.5912 16.7632ZM38.5912 15.4633C38.5812 15.4633 38.5712 15.4633 38.5612 15.4633C38.2412 15.4733 37.9912 15.7532 38.0012 16.0732C38.0112 16.3832 38.2712 16.6332 38.5812 16.6332C38.5912 16.6332 38.6012 16.6332 38.6112 16.6332C38.9312 16.6232 39.1812 16.3433 39.1712 16.0233C39.1612 15.7033 38.9012 15.4633 38.5912 15.4633Z" fill="#F08C6E"/>
<path fill-rule="evenodd" clip-rule="evenodd" d="M38.5912 16.6334C38.2812 16.6334 38.0212 16.3834 38.0112 16.0734C38.0012 15.7534 38.2512 15.4834 38.5712 15.4634C38.5812 15.4634 38.5912 15.4634 38.6012 15.4634C38.9112 15.4634 39.1712 15.7034 39.1812 16.0234C39.1912 16.3434 38.9412 16.6134 38.6212 16.6334C38.6112 16.6334 38.6012 16.6334 38.5912 16.6334ZM38.5912 15.5934C38.5812 15.5934 38.5812 15.5934 38.5712 15.5934C38.3212 15.6034 38.1312 15.8134 38.1412 16.0634C38.1512 16.3034 38.3512 16.4933 38.5912 16.4933C38.6012 16.4933 38.6012 16.4933 38.6112 16.4933C38.8612 16.4833 39.0512 16.2734 39.0412 16.0234C39.0312 15.7834 38.8312 15.5934 38.5912 15.5934Z" fill="#F0886B"/>
<path fill-rule="evenodd" clip-rule="evenodd" d="M38.5912 16.4932C38.3512 16.4932 38.1512 16.3032 38.1412 16.0632C38.1312 15.8132 38.3212 15.6033 38.5712 15.5933C38.5812 15.5933 38.5812 15.5933 38.5912 15.5933C38.8312 15.5933 39.0312 15.7833 39.0412 16.0233C39.0512 16.2733 38.8612 16.4832 38.6112 16.4932C38.6012 16.4932 38.6012 16.4932 38.5912 16.4932ZM38.5912 15.7233C38.5812 15.7233 38.5812 15.7233 38.5812 15.7233C38.4112 15.7333 38.2712 15.8832 38.2812 16.0532C38.2912 16.2232 38.4312 16.3532 38.6012 16.3532H38.6112C38.7812 16.3432 38.9212 16.2033 38.9112 16.0233C38.9012 15.8633 38.7612 15.7233 38.5912 15.7233Z" fill="#ED8468"/>
<path fill-rule="evenodd" clip-rule="evenodd" d="M38.5911 16.3634C38.4211 16.3634 38.2811 16.2334 38.2711 16.0634C38.2611 15.8834 38.4011 15.7434 38.5711 15.7334C38.5811 15.7334 38.5811 15.7334 38.5811 15.7334C38.7511 15.7334 38.8911 15.8634 38.9011 16.0334C38.9111 16.2134 38.7711 16.3534 38.6011 16.3634H38.5911ZM38.5911 15.8634C38.4811 15.8634 38.4011 15.9534 38.4111 16.0534C38.4111 16.1534 38.5011 16.2334 38.6011 16.2334C38.6011 16.2334 38.6011 16.2334 38.6111 16.2334C38.7111 16.2334 38.7911 16.1434 38.7911 16.0434C38.7711 15.9434 38.6911 15.8634 38.5911 15.8634Z" fill="#EF8065"/>
<path fill-rule="evenodd" clip-rule="evenodd" d="M38.5912 16.2333C38.4912 16.2333 38.4112 16.1533 38.4012 16.0533C38.3912 15.9533 38.4712 15.8633 38.5712 15.8633H38.5812C38.6812 15.8633 38.7612 15.9433 38.7712 16.0433C38.7812 16.1433 38.7012 16.2233 38.5912 16.2333C38.6012 16.2333 38.5912 16.2333 38.5912 16.2333ZM38.5912 15.9933C38.5612 15.9933 38.5412 16.0133 38.5412 16.0433C38.5412 16.0733 38.5612 16.0933 38.5912 16.0933C38.6212 16.0933 38.6412 16.0733 38.6412 16.0433C38.6412 16.0133 38.6212 15.9933 38.5912 15.9933Z" fill="#EC7B61"/>
<path fill-rule="evenodd" clip-rule="evenodd" d="M38.5912 16.0932C38.5612 16.0932 38.5411 16.0732 38.5411 16.0432C38.5411 16.0132 38.5612 15.9932 38.5912 15.9932C38.6212 15.9932 38.6411 16.0132 38.6411 16.0432C38.6411 16.0732 38.6212 16.0932 38.5912 16.0932Z" fill="#EC7660"/>
<path fill-rule="evenodd" clip-rule="evenodd" d="M34.5912 17.8831C34.4012 17.8831 34.2112 17.853 34.0412 17.793C33.9512 17.703 33.8712 17.6131 33.8012 17.5131C34.0412 17.6531 34.3112 17.7231 34.5912 17.7231C34.6112 17.7231 34.6412 17.7231 34.6612 17.7231C35.5412 17.6831 36.2212 16.943 36.1812 16.063C36.1412 15.203 35.4412 14.5331 34.5912 14.5331C34.5712 14.5331 34.5412 14.5331 34.5212 14.5331C33.6412 14.5731 32.9612 15.3131 33.0012 16.1931C33.0012 16.2031 33.0012 16.2031 33.0012 16.2131C32.9412 16.0831 32.8912 15.9731 32.8612 15.8831C32.9712 15.0631 33.6612 14.413 34.5212 14.373C34.5512 14.373 34.5712 14.373 34.6012 14.373C35.5312 14.373 36.3012 15.103 36.3512 16.043C36.3912 17.013 35.6412 17.823 34.6812 17.863C34.6412 17.883 34.6212 17.8831 34.5912 17.8831Z" fill="#F4A681"/>
<path fill-rule="evenodd" clip-rule="evenodd" d="M34.0412 17.7933C33.3712 17.5733 32.8812 16.9533 32.8412 16.2133C32.8412 16.1033 32.8412 16.0033 32.8512 15.9033C32.8812 15.9833 32.9312 16.1033 32.9912 16.2333C33.0212 16.7933 33.3412 17.2633 33.7912 17.5233C33.8712 17.6133 33.9612 17.7033 34.0412 17.7933Z" fill="#D8785B"/>
<path fill-rule="evenodd" clip-rule="evenodd" d="M34.5912 17.7332C34.3012 17.7332 34.0312 17.6533 33.8012 17.5233C33.4312 17.0633 33.1612 16.5732 33.0012 16.2332C33.0012 16.2232 33.0012 16.2233 33.0012 16.2133C32.9612 15.3333 33.6412 14.5932 34.5212 14.5532C34.5412 14.5532 34.5712 14.5532 34.5912 14.5532C35.4412 14.5532 36.1512 15.2233 36.1812 16.0833C36.2212 16.9633 35.5412 17.7132 34.6612 17.7432C34.6412 17.7332 34.6212 17.7332 34.5912 17.7332ZM34.5912 14.6932C34.5712 14.6932 34.5512 14.6932 34.5312 14.6932C33.7312 14.7232 33.1212 15.4032 33.1512 16.1932C33.1812 16.9732 33.8212 17.5732 34.5912 17.5732C34.6112 17.5732 34.6312 17.5732 34.6512 17.5732C35.4512 17.5432 36.0612 16.8632 36.0312 16.0732C36.0012 15.3032 35.3612 14.6932 34.5912 14.6932Z" fill="#F3A27E"/>
<path fill-rule="evenodd" clip-rule="evenodd" d="M33.8012 17.5234C33.3512 17.2634 33.0312 16.7834 33.0012 16.2334C33.1612 16.5734 33.4212 17.0634 33.8012 17.5234Z" fill="#DA785C"/>
<path fill-rule="evenodd" clip-rule="evenodd" d="M34.5912 17.5734C33.8212 17.5734 33.1812 16.9634 33.1512 16.1934C33.1112 15.3934 33.7312 14.7234 34.5312 14.6934C34.5512 14.6934 34.5712 14.6934 34.5912 14.6934C35.3612 14.6934 36.0012 15.3034 36.0312 16.0734C36.0612 16.8734 35.4512 17.5434 34.6512 17.5734C34.6312 17.5734 34.6112 17.5734 34.5912 17.5734ZM34.5912 14.8434C34.5712 14.8434 34.5512 14.8434 34.5312 14.8434C33.8212 14.8734 33.2712 15.4733 33.3012 16.1833C33.3312 16.8733 33.9012 17.4133 34.5912 17.4133C34.6112 17.4133 34.6312 17.4133 34.6512 17.4133C35.3612 17.3833 35.9112 16.7834 35.8812 16.0734C35.8512 15.3834 35.2812 14.8434 34.5912 14.8434Z" fill="#F39F7B"/>
<path fill-rule="evenodd" clip-rule="evenodd" d="M34.5912 17.423C33.9012 17.423 33.3312 16.8831 33.3012 16.1931C33.2712 15.4831 33.8212 14.883 34.5312 14.853C34.5512 14.853 34.5712 14.853 34.5912 14.853C35.2812 14.853 35.8512 15.3931 35.8812 16.0831C35.9112 16.7931 35.3612 17.393 34.6512 17.423C34.6312 17.423 34.6112 17.423 34.5912 17.423ZM34.5912 15.0031C34.5712 15.0031 34.5612 15.0031 34.5412 15.0031C33.9212 15.0331 33.4312 15.563 33.4612 16.183C33.4912 16.793 33.9912 17.2731 34.5912 17.2731C34.6112 17.2731 34.6212 17.2731 34.6412 17.2731C35.2712 17.2431 35.7512 16.7131 35.7312 16.0931C35.7012 15.4731 35.2012 15.0031 34.5912 15.0031Z" fill="#F29977"/>
<path fill-rule="evenodd" clip-rule="evenodd" d="M34.5912 17.2734C33.9912 17.2734 33.4811 16.7934 33.4611 16.1834C33.4311 15.5534 33.9211 15.0234 34.5411 15.0034C34.5611 15.0034 34.5712 15.0034 34.5912 15.0034C35.1912 15.0034 35.7011 15.4834 35.7211 16.0934C35.7511 16.7234 35.2611 17.2534 34.6311 17.2734C34.6311 17.2734 34.6112 17.2734 34.5912 17.2734ZM34.5912 15.1534C34.5812 15.1534 34.5611 15.1534 34.5511 15.1534C34.0111 15.1734 33.5911 15.6334 33.6111 16.1734C33.6311 16.7034 34.0712 17.1134 34.5912 17.1134C34.6012 17.1134 34.6211 17.1134 34.6311 17.1134C35.1711 17.0934 35.5911 16.6334 35.5711 16.0934C35.5511 15.5634 35.1212 15.1534 34.5912 15.1534Z" fill="#F09675"/>
<path fill-rule="evenodd" clip-rule="evenodd" d="M34.5912 17.1133C34.0712 17.1133 33.6312 16.7033 33.6112 16.1733C33.5912 15.6333 34.0112 15.1733 34.5512 15.1533C34.5612 15.1533 34.5812 15.1533 34.5912 15.1533C35.1112 15.1533 35.5512 15.5633 35.5712 16.0933C35.5912 16.6333 35.1711 17.0933 34.6311 17.1133C34.6211 17.1133 34.6112 17.1133 34.5912 17.1133ZM34.5912 15.3033C34.5812 15.3033 34.5712 15.3033 34.5512 15.3033C34.0912 15.3233 33.7412 15.7133 33.7612 16.1633C33.7812 16.6033 34.1412 16.9533 34.5812 16.9533C34.5912 16.9533 34.6112 16.9533 34.6212 16.9533C35.0812 16.9333 35.4311 16.5433 35.4111 16.0933C35.4011 15.6533 35.0312 15.3033 34.5912 15.3033Z" fill="#EF9071"/>
<path fill-rule="evenodd" clip-rule="evenodd" d="M34.5912 16.963C34.1512 16.963 33.7812 16.613 33.7712 16.173C33.7512 15.713 34.1012 15.333 34.5612 15.313C34.5712 15.313 34.5812 15.313 34.6012 15.313C35.0412 15.313 35.4112 15.663 35.4312 16.103C35.4512 16.563 35.1012 16.943 34.6412 16.963C34.6212 16.963 34.6012 16.963 34.5912 16.963ZM34.5912 15.463C34.5812 15.463 34.5712 15.463 34.5612 15.463C34.1912 15.483 33.9012 15.793 33.9212 16.163C33.9412 16.523 34.2412 16.803 34.5912 16.803C34.6012 16.803 34.6112 16.803 34.6212 16.803C34.9912 16.783 35.2812 16.473 35.2612 16.103C35.2512 15.743 34.9512 15.463 34.5912 15.463Z" fill="#F08C6E"/>
<path fill-rule="evenodd" clip-rule="evenodd" d="M34.5912 16.8131C34.2312 16.8131 33.9311 16.5331 33.9211 16.1731C33.9011 15.8031 34.1912 15.4831 34.5612 15.4731C34.5712 15.4731 34.5812 15.4731 34.5912 15.4731C34.9512 15.4731 35.2511 15.7531 35.2611 16.1131C35.2811 16.4831 34.9912 16.8031 34.6212 16.8131C34.6112 16.8131 34.6012 16.8131 34.5912 16.8131ZM34.5912 15.6131C34.5812 15.6131 34.5711 15.6131 34.5711 15.6131C34.2811 15.6231 34.0611 15.8731 34.0711 16.1531C34.0811 16.4331 34.3112 16.6531 34.5912 16.6531C34.6012 16.6531 34.6111 16.6531 34.6111 16.6531C34.9011 16.6431 35.1211 16.4031 35.1111 16.1131C35.1011 15.8331 34.8712 15.6131 34.5912 15.6131Z" fill="#F0886B"/>
<path fill-rule="evenodd" clip-rule="evenodd" d="M34.5911 16.6533C34.3111 16.6533 34.0811 16.4333 34.0711 16.1533C34.0611 15.8633 34.2811 15.6233 34.5711 15.6133C34.5811 15.6133 34.5811 15.6133 34.5911 15.6133C34.8711 15.6133 35.1011 15.8333 35.1111 16.1133C35.1211 16.4033 34.9011 16.6433 34.6111 16.6533C34.6111 16.6533 34.6011 16.6533 34.5911 16.6533ZM34.5911 15.7733H34.5811C34.3811 15.7833 34.2211 15.9533 34.2311 16.1533C34.2411 16.3533 34.4011 16.5033 34.6011 16.5033C34.6111 16.5033 34.6111 16.5033 34.6211 16.5033C34.8211 16.4933 34.9811 16.3233 34.9711 16.1233C34.9511 15.9233 34.7911 15.7733 34.5911 15.7733Z" fill="#ED8468"/>
<path fill-rule="evenodd" clip-rule="evenodd" d="M34.5912 16.5034C34.4012 16.5034 34.2311 16.3534 34.2211 16.1534C34.2111 15.9534 34.3712 15.7834 34.5712 15.7734C34.5812 15.7734 34.5812 15.7734 34.5812 15.7734C34.7812 15.7734 34.9412 15.9234 34.9512 16.1234C34.9612 16.3234 34.8012 16.4934 34.6012 16.5034C34.6012 16.5034 34.6012 16.5034 34.5912 16.5034ZM34.5912 15.9234C34.4612 15.9334 34.3712 16.0234 34.3812 16.1434C34.3912 16.2534 34.4812 16.3434 34.5912 16.3434H34.6012C34.7212 16.3334 34.8112 16.2434 34.8012 16.1234C34.8012 16.0134 34.7112 15.9234 34.5912 15.9234Z" fill="#EF8065"/>
<path fill-rule="evenodd" clip-rule="evenodd" d="M34.5912 16.3434C34.4812 16.3434 34.3812 16.2534 34.3812 16.1434C34.3812 16.0234 34.4712 15.9233 34.5812 15.9233H34.5912C34.7012 15.9233 34.8012 16.0134 34.8012 16.1234C34.8112 16.2434 34.7212 16.3434 34.5912 16.3434C34.6012 16.3434 34.6012 16.3434 34.5912 16.3434ZM34.5912 16.0734C34.5612 16.0734 34.5312 16.1034 34.5312 16.1334C34.5312 16.1634 34.5612 16.1934 34.5912 16.1934C34.6212 16.1934 34.6512 16.1634 34.6512 16.1334C34.6512 16.1034 34.6212 16.0734 34.5912 16.0734Z" fill="#EC7B61"/>
<path fill-rule="evenodd" clip-rule="evenodd" d="M34.5912 16.1932C34.5612 16.1932 34.5312 16.1732 34.5312 16.1332C34.5312 16.1032 34.5512 16.0732 34.5912 16.0732C34.6212 16.0732 34.6512 16.0932 34.6512 16.1332C34.6512 16.1632 34.6312 16.1932 34.5912 16.1932Z" fill="#EC7660"/>
<path fill-rule="evenodd" clip-rule="evenodd" d="M36.3212 10.2031C36.3212 10.2031 35.0312 12.2331 33.3512 12.9231C35.5612 11.4531 36.4712 8.91309 36.4712 8.91309C37.1012 10.5231 38.6212 12.7131 39.6312 13.4931C38.9412 13.1731 37.7212 12.3431 36.3212 10.2031Z" fill="#D8785B"/>
<path fill-rule="evenodd" clip-rule="evenodd" d="M37.7012 16.7933C37.7012 16.7933 36.7212 17.0533 35.1912 16.6733C35.1912 16.6733 35.5012 17.9433 36.5612 17.9133C37.5012 17.8733 37.7012 16.7933 37.7012 16.7933Z" fill="#512C22"/>
<path fill-rule="evenodd" clip-rule="evenodd" d="M37.6612 16.8534C37.6612 16.8534 36.6412 17.1434 35.2512 16.7334C35.2512 16.7334 35.4612 17.2634 36.5712 17.2834C37.5512 17.3034 37.6612 16.8534 37.6612 16.8534Z" fill="white"/>
<path fill-rule="evenodd" clip-rule="evenodd" d="M38.0012 13.0932C38.0012 13.0932 38.8612 12.8032 39.7512 13.4932C39.7512 13.4932 39.7712 13.3832 39.5912 13.1832C39.4112 12.9832 38.8612 12.6732 38.2612 12.7832C38.2612 12.7832 37.8812 12.9632 38.0012 13.0932Z" fill="#3D1C12"/>
<path fill-rule="evenodd" clip-rule="evenodd" d="M36.0012 13.2031C36.0012 13.2031 35.1812 12.8131 34.2112 13.3931C34.2112 13.3931 34.2112 13.2831 34.4112 13.1031C34.6112 12.9231 35.2012 12.6831 35.7812 12.8631C35.7812 12.8631 36.1312 13.0931 36.0012 13.2031Z" fill="#3D1C12"/>
<path fill-rule="evenodd" clip-rule="evenodd" d="M36.5612 16.2731C37.2912 16.6431 37.7311 16.3231 37.7911 15.9731C37.8311 15.7431 37.7211 15.5231 37.5011 15.4131C37.0611 15.1931 36.7911 14.4531 36.7911 14.4531C36.7711 14.6131 36.8911 15.2431 37.4411 15.6331C37.5611 15.7131 37.6311 15.8031 37.6111 15.9131C37.5711 16.1031 37.2612 16.3831 36.5612 16.2731Z" fill="#D88B69"/>
<path fill-rule="evenodd" clip-rule="evenodd" d="M38.5712 13.7731C38.5712 13.7731 39.0412 13.783 39.1012 13.603C39.1012 13.603 39.1612 13.853 38.8712 13.933C38.9612 14.043 39.0212 14.203 39.0212 14.373C39.0212 14.703 38.8212 14.9731 38.5712 14.9731C38.3212 14.9731 38.1212 14.703 38.1212 14.373C38.1212 14.043 38.3212 13.7731 38.5712 13.7731Z" fill="#512C22"/>
<path fill-rule="evenodd" clip-rule="evenodd" d="M34.9911 13.7731C34.9911 13.7731 35.4611 13.783 35.5211 13.603C35.5211 13.603 35.5811 13.853 35.3011 13.933C35.3911 14.043 35.4511 14.203 35.4511 14.373C35.4511 14.703 35.2511 14.9731 34.9911 14.9731C34.7411 14.9731 34.5411 14.703 34.5411 14.373C34.5411 14.043 34.7411 13.7731 34.9911 13.7731Z" fill="#512C22"/>
<path fill-rule="evenodd" clip-rule="evenodd" d="M31.3312 21.5932C30.2712 20.9532 28.9812 26.2531 28.9812 26.2531C28.9812 26.2531 27.2812 31.2332 29.6912 31.8932C30.1612 31.3532 31.3612 29.8032 31.9012 27.5332C31.8912 27.5432 32.8512 22.5132 31.3312 21.5932Z" fill="#97B7D0"/>
<path fill-rule="evenodd" clip-rule="evenodd" d="M25.5312 21.1634C25.5312 21.1634 24.9012 19.5134 25.1912 18.2334C25.1912 18.2334 25.3512 17.6734 25.7012 17.8234C26.0512 17.9734 26.2312 17.4634 26.6012 17.6134C26.9712 17.7634 27.1512 17.3934 27.5712 17.7434C27.5712 17.7434 27.9312 17.5634 28.1812 17.8434C28.4312 18.1234 29.0612 18.7134 28.9812 18.9034C28.9012 19.0934 28.6912 19.9634 28.6112 20.0034C28.5212 20.0434 28.3712 20.0734 28.2312 19.8034C28.2312 19.8034 28.2712 20.1134 28.2012 20.4734C28.1312 20.8334 27.5612 21.4434 27.5612 21.4434L26.5712 22.5034L25.5312 21.1634Z" fill="#F4A681"/>
<path fill-rule="evenodd" clip-rule="evenodd" d="M27.6612 21.3032L26.3712 20.0732L25.5312 21.1632C25.5312 21.1632 26.1912 34.0832 29.5012 32.1132C29.5012 32.1132 29.5712 32.0433 29.6912 31.9033C30.6212 29.4633 29.0512 25.5732 27.6612 21.3032Z" fill="#F4A681"/>
<path fill-rule="evenodd" clip-rule="evenodd" d="M31.7911 27.9532C31.7911 27.9532 32.1911 25.7932 32.1911 25.0732C32.1911 25.0732 34.2411 30.2333 42.0711 27.1533C42.0711 27.1533 33.8812 31.1633 35.1812 34.9033C35.1812 34.9033 33.8911 34.6332 33.4711 34.3732C33.4711 34.3832 33.0011 31.3332 31.7911 27.9532Z" fill="#6E9BC0"/>
<path fill-rule="evenodd" clip-rule="evenodd" d="M38.1212 25.373C38.1712 25.373 38.2312 25.373 38.2812 25.373C38.3012 25.373 38.3212 25.373 38.3412 25.373C38.3612 25.373 38.3812 25.373 38.4012 25.373C38.4312 25.373 38.4612 25.373 38.4812 25.383C38.4912 25.393 38.5012 25.393 38.5012 25.413C38.5012 25.433 38.4912 25.453 38.4812 25.473C38.4712 25.503 38.4512 25.523 38.4212 25.543C38.3812 25.583 38.3112 25.623 38.2312 25.643C38.2212 25.643 38.2112 25.653 38.2012 25.653C38.1912 25.653 38.1912 25.663 38.2012 25.663C38.2112 25.663 38.2312 25.663 38.2412 25.653C38.3312 25.633 38.3912 25.593 38.4312 25.563C38.4612 25.543 38.4812 25.513 38.5012 25.483C38.5112 25.463 38.5212 25.433 38.5312 25.413C38.5312 25.393 38.5312 25.393 38.5312 25.363C38.5312 25.323 38.5112 25.283 38.4912 25.243C38.4912 25.243 38.4912 25.233 38.4812 25.233C38.4812 25.233 38.4812 25.233 38.4812 25.223H38.4912C38.5112 25.243 38.5212 25.263 38.5312 25.293C38.5412 25.323 38.5512 25.343 38.5512 25.373C38.5512 25.383 38.5612 25.383 38.5612 25.373C38.5612 25.343 38.5512 25.313 38.5412 25.283C38.5312 25.253 38.5112 25.233 38.4912 25.213C38.4712 25.193 38.4412 25.163 38.4112 25.153C38.3712 25.123 38.3212 25.103 38.2712 25.093C38.2512 25.083 38.2312 25.083 38.2112 25.083C38.2012 25.083 38.2012 25.083 38.1912 25.083C38.1912 25.083 38.1812 25.083 38.1912 25.093C38.2012 25.093 38.2112 25.103 38.2312 25.103C38.2812 25.113 38.3212 25.133 38.3712 25.163C38.4012 25.183 38.4212 25.193 38.4612 25.253C38.4612 25.263 38.4812 25.273 38.4812 25.293C38.4812 25.303 38.4912 25.323 38.4912 25.333C38.4912 25.343 38.4912 25.353 38.4812 25.353C38.4612 25.363 38.4512 25.363 38.4212 25.363C38.4012 25.363 38.3812 25.363 38.3712 25.363C38.3412 25.363 38.3212 25.363 38.2912 25.363C38.2312 25.363 38.1712 25.363 38.1212 25.363C38.1112 25.363 38.1112 25.363 38.1012 25.363C38.0412 25.363 37.9812 25.363 37.9212 25.363C37.8912 25.363 37.8712 25.363 37.8412 25.363C37.8212 25.363 37.8012 25.363 37.7912 25.363C37.7612 25.363 37.7512 25.363 37.7312 25.353C37.7212 25.343 37.7212 25.343 37.7212 25.333C37.7212 25.323 37.7312 25.303 37.7312 25.293C37.7412 25.283 37.7512 25.263 37.7512 25.253C37.7912 25.203 37.8112 25.193 37.8412 25.163C37.8812 25.133 37.9312 25.113 37.9812 25.103C37.9912 25.103 38.0012 25.093 38.0212 25.093C38.0312 25.093 38.0212 25.083 38.0212 25.083C38.0112 25.083 38.0112 25.083 38.0012 25.083C37.9812 25.083 37.9612 25.093 37.9412 25.093C37.8912 25.103 37.8512 25.123 37.8012 25.153C37.7712 25.173 37.7412 25.193 37.7212 25.223C37.7012 25.243 37.6912 25.263 37.6712 25.293C37.6612 25.323 37.6512 25.353 37.6512 25.383C37.6512 25.393 37.6612 25.393 37.6612 25.383C37.6612 25.353 37.6712 25.333 37.6812 25.303C37.6912 25.283 37.7012 25.263 37.7212 25.233H37.7312C37.7312 25.233 37.7312 25.233 37.7312 25.243C37.7312 25.243 37.7312 25.253 37.7212 25.253C37.7012 25.293 37.6812 25.323 37.6812 25.373C37.6812 25.403 37.6812 25.403 37.6812 25.423C37.6812 25.433 37.6912 25.473 37.7112 25.493C37.7312 25.523 37.7612 25.553 37.7812 25.573C37.8212 25.603 37.8912 25.643 37.9812 25.663C37.9912 25.663 38.0012 25.673 38.0212 25.673C38.0312 25.673 38.0312 25.673 38.0212 25.663C38.0112 25.663 38.0012 25.653 37.9912 25.653C37.9112 25.633 37.8412 25.593 37.8012 25.553C37.7812 25.533 37.7612 25.513 37.7412 25.483C37.7312 25.463 37.7212 25.443 37.7212 25.423C37.7212 25.413 37.7312 25.403 37.7412 25.393C37.7612 25.383 37.7912 25.383 37.8212 25.383C37.8412 25.383 37.8612 25.383 37.8812 25.383C37.9012 25.383 37.9212 25.383 37.9412 25.383C38.0012 25.383 38.0512 25.383 38.1112 25.383C38.1112 25.373 38.1112 25.373 38.1212 25.373ZM38.1212 25.353C38.1112 25.353 38.1112 25.353 38.1012 25.353C38.0612 25.353 38.0212 25.353 37.9812 25.353C37.9512 25.353 37.9212 25.353 37.9012 25.353C37.8812 25.353 37.8512 25.353 37.8312 25.353C37.8112 25.353 37.7712 25.353 37.7712 25.343V25.333C37.7812 25.333 37.7812 25.323 37.7912 25.323H37.8012C37.8012 25.323 37.8112 25.323 37.8112 25.333C37.8312 25.343 37.8512 25.343 37.8812 25.343C37.9012 25.343 37.9312 25.343 37.9512 25.343C38.0012 25.343 38.0312 25.343 38.1112 25.343C38.1112 25.343 38.1112 25.343 38.1212 25.353C38.1912 25.343 38.2212 25.343 38.2712 25.343C38.2912 25.343 38.3212 25.343 38.3412 25.343C38.3712 25.343 38.3912 25.333 38.4112 25.333C38.4212 25.333 38.4212 25.333 38.4212 25.323H38.4312C38.4412 25.323 38.4412 25.333 38.4512 25.333V25.343C38.4412 25.343 38.4112 25.353 38.3912 25.353C38.3712 25.353 38.3412 25.353 38.3212 25.353C38.2912 25.353 38.2612 25.353 38.2412 25.353C38.2012 25.353 38.1612 25.353 38.1212 25.353ZM38.1212 25.333C38.2012 25.333 38.2812 25.333 38.3612 25.323C38.4012 25.323 38.4112 25.293 38.4112 25.283C38.4212 25.243 38.3512 25.183 38.3112 25.163C38.2612 25.133 38.2212 25.113 38.1612 25.103C38.1512 25.103 38.1512 25.093 38.1512 25.083C38.1512 25.073 38.1612 25.073 38.1612 25.073C38.1812 25.073 38.2012 25.073 38.2112 25.073C38.2412 25.073 38.2712 25.083 38.3012 25.093C38.3412 25.103 38.3812 25.123 38.4212 25.143C38.4712 25.173 38.5112 25.213 38.5412 25.253C38.5612 25.283 38.5812 25.333 38.5812 25.363C38.5812 25.413 38.5612 25.453 38.5412 25.493C38.5212 25.533 38.4812 25.563 38.4512 25.583C38.4212 25.603 38.3812 25.623 38.3412 25.643C38.3112 25.653 38.2712 25.663 38.2412 25.673C38.2212 25.673 38.2012 25.683 38.1712 25.673C38.1612 25.673 38.1512 25.663 38.1512 25.663C38.1512 25.653 38.1512 25.653 38.1612 25.643C38.1812 25.633 38.2112 25.623 38.2312 25.613C38.2612 25.603 38.2912 25.583 38.3112 25.573C38.3412 25.553 38.3612 25.533 38.3812 25.513C38.3912 25.503 38.4012 25.483 38.4012 25.463C38.4012 25.453 38.4012 25.443 38.4012 25.433C38.3812 25.403 38.3412 25.403 38.3012 25.403C38.2712 25.403 38.2412 25.403 38.2012 25.403C38.1712 25.403 38.1312 25.403 38.1012 25.403C38.0712 25.403 38.0312 25.403 38.0012 25.403C37.9712 25.403 37.9412 25.403 37.9012 25.403C37.8712 25.403 37.8212 25.403 37.8012 25.433C37.8012 25.443 37.8012 25.453 37.8012 25.463C37.8012 25.473 37.8112 25.493 37.8212 25.503C37.8412 25.523 37.8612 25.543 37.8912 25.563C37.9212 25.583 37.9512 25.593 37.9712 25.603C37.9912 25.613 38.0212 25.623 38.0412 25.623C38.0512 25.623 38.0512 25.633 38.0512 25.643C38.0512 25.653 38.0412 25.653 38.0312 25.653C38.0112 25.653 37.9912 25.653 37.9612 25.653C37.9312 25.643 37.8912 25.643 37.8612 25.633C37.8212 25.623 37.7912 25.603 37.7512 25.573C37.7112 25.543 37.6812 25.513 37.6612 25.483C37.6312 25.443 37.6212 25.403 37.6212 25.353C37.6212 25.313 37.6412 25.273 37.6612 25.243C37.6912 25.193 37.7312 25.153 37.7812 25.133C37.8212 25.113 37.8612 25.093 37.9012 25.083C37.9312 25.073 37.9612 25.063 37.9912 25.063C38.0112 25.063 38.0312 25.063 38.0412 25.063C38.0512 25.063 38.0512 25.073 38.0512 25.073C38.0512 25.083 38.0512 25.083 38.0412 25.093C37.9812 25.113 37.9412 25.133 37.8912 25.153C37.8612 25.173 37.7912 25.233 37.8012 25.273C37.8012 25.283 37.8112 25.303 37.8512 25.313C37.9312 25.323 38.0112 25.323 38.0912 25.313C38.1112 25.333 38.1112 25.333 38.1212 25.333Z" fill="#E50B14"/>
<path fill-rule="evenodd" clip-rule="evenodd" d="M39.1612 25.233V25.2031C39.1612 25.1931 39.1712 25.1931 39.1812 25.1931H39.2512H39.3212C39.3312 25.1931 39.3412 25.1931 39.3412 25.2031V25.373V25.543C39.3412 25.553 39.3312 25.553 39.3212 25.553H39.2512H39.1812C39.1712 25.553 39.1612 25.543 39.1612 25.543V25.5031C39.1612 25.4931 39.1612 25.4831 39.1612 25.4631C39.1612 25.4431 39.1512 25.433 39.1312 25.433C39.1012 25.433 39.0712 25.433 39.0412 25.433C39.0112 25.433 38.9812 25.433 38.9512 25.433C38.9312 25.433 38.9212 25.4531 38.9212 25.4631C38.9212 25.4731 38.9212 25.483 38.9212 25.493V25.543C38.9212 25.553 38.9112 25.553 38.9012 25.553H38.8312H38.7612C38.7512 25.553 38.7412 25.553 38.7412 25.543V25.373V25.2031C38.7412 25.1931 38.7512 25.1931 38.7612 25.1931H38.8312H38.9012C38.9112 25.1931 38.9212 25.1931 38.9212 25.2031V25.2631C38.9212 25.2831 38.9512 25.303 38.9712 25.303H39.0112H39.0912H39.1312C39.1612 25.303 39.1812 25.2831 39.1812 25.2631C39.1612 25.2431 39.1612 25.233 39.1612 25.233ZM40.9012 25.1431H40.9612H41.0012H41.0612C41.0912 25.1431 41.1712 25.1531 41.2012 25.1531C41.2612 25.1731 41.3112 25.2031 41.3112 25.3231V25.3331V25.363V25.4031C41.3112 25.4931 41.2612 25.523 41.2012 25.543C41.1612 25.553 41.0512 25.563 41.0412 25.563H41.0012H40.9612H40.9212C40.9112 25.563 40.7912 25.553 40.7612 25.553C40.7012 25.543 40.6512 25.513 40.6512 25.413V25.373V25.3431V25.3331C40.6512 25.2131 40.7012 25.183 40.7612 25.163C40.8012 25.153 40.8712 25.1431 40.9012 25.1431ZM40.9612 25.243H40.9412C40.9312 25.243 40.8812 25.2431 40.8712 25.2531C40.8412 25.2631 40.8312 25.2731 40.8312 25.3231V25.3331V25.3431V25.363V25.373C40.8312 25.423 40.8512 25.4331 40.8712 25.4431C40.8912 25.4431 40.9312 25.4431 40.9412 25.4431H40.9612H40.9712H40.9812H40.9912H41.0112C41.0212 25.4431 41.0712 25.443 41.0812 25.433C41.1112 25.423 41.1212 25.413 41.1212 25.363V25.353V25.3331V25.3231V25.313C41.1212 25.263 41.1012 25.253 41.0812 25.243C41.0612 25.243 41.0212 25.243 41.0112 25.243H40.9912H40.9812H40.9712H40.9612ZM39.8712 25.363V25.1931C39.8712 25.1831 39.8812 25.183 39.8912 25.183H39.9712H40.0512C40.0712 25.183 40.1012 25.1931 40.1412 25.2131C40.1812 25.2331 40.2212 25.2531 40.2412 25.2631C40.3112 25.3031 40.3312 25.3131 40.3412 25.2631V25.183C40.3412 25.173 40.3512 25.173 40.3612 25.173H40.4312H40.5012C40.5112 25.173 40.5112 25.173 40.5212 25.183V25.353V25.5231C40.5212 25.5331 40.5112 25.5331 40.5012 25.5331H40.4212H40.3412C40.3312 25.5331 40.3212 25.5331 40.3212 25.5231V25.5131C40.3212 25.4831 40.2612 25.443 40.2012 25.413C40.1212 25.363 40.0612 25.3331 40.0512 25.4031V25.5331C40.0512 25.5431 40.0412 25.543 40.0312 25.543H39.9512H39.8712C39.8612 25.543 39.8512 25.5431 39.8512 25.5331L39.8712 25.363ZM39.5112 25.363V25.1931C39.5112 25.1831 39.5212 25.183 39.5312 25.183H39.6112H39.6912C39.7012 25.183 39.7012 25.1831 39.7112 25.1931V25.363V25.5331C39.7112 25.5431 39.7012 25.543 39.6912 25.543H39.6112H39.5312C39.5212 25.543 39.5112 25.5331 39.5112 25.5331V25.363Z" fill="#E9EAEA"/>
<path fill-rule="evenodd" clip-rule="evenodd" d="M9.96118 36.1333H41.3612C43.9112 36.1333 45.9912 38.2133 45.9912 40.7633C45.9912 43.3133 43.9112 45.3933 41.3612 45.3933H9.96118C7.41118 45.3933 5.33118 43.3133 5.33118 40.7633C5.34118 38.2133 7.42118 36.1333 9.96118 36.1333Z" fill="#E50B14"/>
<path fill-rule="evenodd" clip-rule="evenodd" d="M10.2311 37.0933H41.1011C43.1211 37.0933 44.7711 38.7432 44.7711 40.7632C44.7711 42.7832 43.1211 44.4332 41.1011 44.4332H10.2311C8.21114 44.4332 6.56116 42.7832 6.56116 40.7632C6.56116 38.7432 8.21114 37.0933 10.2311 37.0933Z" fill="#921E17"/>
<path d="M12.7389 41.8094C12.7651 41.9985 12.8166 42.1399 12.8934 42.2335C13.0338 42.4039 13.2744 42.4891 13.6152 42.4891C13.8193 42.4891 13.985 42.4667 14.1124 42.4217C14.3539 42.3356 14.4747 42.1755 14.4747 41.9414C14.4747 41.8047 14.4148 41.6989 14.2949 41.624C14.1751 41.551 13.9869 41.4864 13.7304 41.4302L13.2922 41.3319C12.8615 41.2346 12.5638 41.1288 12.399 41.0146C12.12 40.8236 11.9805 40.5249 11.9805 40.1186C11.9805 39.7478 12.1153 39.4398 12.385 39.1945C12.6546 38.9492 13.0507 38.8265 13.5731 38.8265C14.0094 38.8265 14.3811 38.9426 14.6882 39.1748C14.9971 39.4051 15.1591 39.7403 15.1741 40.1804H14.3427C14.3277 39.9313 14.2191 39.7544 14.0169 39.6495C13.882 39.5802 13.7145 39.5456 13.5141 39.5456C13.2913 39.5456 13.1134 39.5905 12.9804 39.6804C12.8475 39.7703 12.781 39.8957 12.781 40.0568C12.781 40.2047 12.8466 40.3152 12.9776 40.3882C13.0619 40.4369 13.2417 40.494 13.5169 40.5595L14.2303 40.7309C14.543 40.8058 14.779 40.9059 14.9381 41.0314C15.1853 41.2261 15.3089 41.508 15.3089 41.8768C15.3089 42.2551 15.1638 42.5697 14.8735 42.8206C14.5852 43.0696 14.177 43.1941 13.6489 43.1941C13.1096 43.1941 12.6855 43.0715 12.3766 42.8262C12.0676 42.579 11.9131 42.2401 11.9131 41.8094H12.7389ZM15.9493 38.9473H16.8284V41.492C16.8284 41.7767 16.8621 41.9845 16.9295 42.1156C17.0344 42.3478 17.2628 42.4639 17.6149 42.4639C17.965 42.4639 18.1925 42.3478 18.2974 42.1156C18.3648 41.9845 18.3985 41.7767 18.3985 41.492V38.9473H19.2776V41.492C19.2776 41.9321 19.2093 42.2747 19.0726 42.52C18.8179 42.9694 18.332 43.1941 17.6149 43.1941C16.8977 43.1941 16.4108 42.9694 16.1543 42.52C16.0176 42.2747 15.9493 41.9321 15.9493 41.492V38.9473ZM22.4375 40.2646C22.4375 40.0493 22.3804 39.8957 22.2661 39.804C22.1538 39.7122 21.9956 39.6664 21.7915 39.6664H20.9854V40.8854H21.7915C21.9956 40.8854 22.1538 40.8357 22.2661 40.7365C22.3804 40.6372 22.4375 40.48 22.4375 40.2646ZM23.2941 40.259C23.2941 40.7477 23.1706 41.0932 22.9234 41.2954C22.6762 41.4977 22.3232 41.5988 21.8645 41.5988H20.9854V43.0874H20.1259V38.9473H21.9291C22.3448 38.9473 22.6762 39.0541 22.9234 39.2675C23.1706 39.481 23.2941 39.8115 23.2941 40.259ZM26.2742 40.2646C26.2742 40.0493 26.2171 39.8957 26.1029 39.804C25.9905 39.7122 25.8323 39.6664 25.6282 39.6664H24.8221V40.8854H25.6282C25.8323 40.8854 25.9905 40.8357 26.1029 40.7365C26.2171 40.6372 26.2742 40.48 26.2742 40.2646ZM27.1309 40.259C27.1309 40.7477 27.0073 41.0932 26.7601 41.2954C26.513 41.4977 26.16 41.5988 25.7012 41.5988H24.8221V43.0874H23.9626V38.9473H25.7658C26.1815 38.9473 26.513 39.0541 26.7601 39.2675C27.0073 39.481 27.1309 39.8115 27.1309 40.259ZM29.611 42.4695C29.9537 42.4695 30.2252 42.3431 30.4255 42.0903C30.6278 41.8375 30.7289 41.478 30.7289 41.0117C30.7289 40.5474 30.6278 40.1888 30.4255 39.936C30.2252 39.6813 29.9537 39.554 29.611 39.554C29.2683 39.554 28.9949 39.6804 28.7908 39.9332C28.5867 40.186 28.4847 40.5455 28.4847 41.0117C28.4847 41.478 28.5867 41.8375 28.7908 42.0903C28.9949 42.3431 29.2683 42.4695 29.611 42.4695ZM31.594 41.0117C31.594 41.7551 31.3852 42.3244 30.9676 42.7195C30.6549 43.0415 30.2027 43.2026 29.611 43.2026C29.0193 43.2026 28.5671 43.0415 28.2544 42.7195C27.8349 42.3244 27.6252 41.7551 27.6252 41.0117C27.6252 40.2534 27.8349 39.6841 28.2544 39.304C28.5671 38.982 29.0193 38.8209 29.611 38.8209C30.2027 38.8209 30.6549 38.982 30.9676 39.304C31.3852 39.6841 31.594 40.2534 31.594 41.0117ZM33.1219 39.6664V40.7786H34.1022C34.2969 40.7786 34.443 40.7561 34.5403 40.7112C34.7126 40.6326 34.7987 40.4771 34.7987 40.245C34.7987 39.994 34.7154 39.8255 34.5488 39.7394C34.4551 39.6907 34.3147 39.6664 34.1274 39.6664H33.1219ZM34.3072 38.9473C34.5974 38.9529 34.8203 38.9885 34.9757 39.0541C35.133 39.1196 35.2659 39.216 35.3745 39.3434C35.4644 39.4482 35.5356 39.5643 35.588 39.6916C35.6404 39.819 35.6666 39.9641 35.6666 40.127C35.6666 40.3236 35.617 40.5174 35.5178 40.7084C35.4185 40.8975 35.2547 41.0314 35.0262 41.11C35.2172 41.1868 35.3521 41.2964 35.4307 41.4387C35.5112 41.5791 35.5515 41.7944 35.5515 42.0847V42.3627C35.5515 42.5519 35.559 42.6801 35.5739 42.7475C35.5964 42.8543 35.6488 42.9329 35.7312 42.9835V43.0874H34.7791C34.7529 42.9957 34.7341 42.9217 34.7229 42.8655C34.7004 42.7494 34.6883 42.6305 34.6864 42.5088L34.6808 42.124C34.677 41.86 34.6283 41.684 34.5347 41.596C34.443 41.508 34.2698 41.464 34.0151 41.464H33.1219V43.0874H32.2765V38.9473H34.3072ZM39.4219 38.9473V39.6804H38.1833V43.0874H37.3126V39.6804H36.0683V38.9473H39.4219Z" fill="white"/>
</svg>
