<svg width="30" height="30" viewBox="0 0 30 30" fill="none" xmlns="http://www.w3.org/2000/svg">
<g opacity="0.8">
<path d="M15 30C23.2843 30 30 23.2843 30 15C30 6.71573 23.2843 0 15 0C6.71572 0 0 6.71573 0 15C0 23.2843 6.71572 30 15 30Z" fill="#940A0A"/>
<path fill-rule="evenodd" clip-rule="evenodd" d="M10.2466 6.34481L10.3151 6.12451L10.369 6.22731L10.2466 6.34481Z" fill="white"/>
<path fill-rule="evenodd" clip-rule="evenodd" d="M18.5983 7.14276C19.1319 8.17572 18.9459 9.38492 18.2213 10.2074C18.0598 10.3983 17.8591 10.5696 17.6388 10.7067C17.5702 10.7557 17.5017 10.7948 17.4233 10.834C17.2716 10.9123 17.1149 10.976 16.9583 11.02C16.2337 11.2403 15.47 11.1473 14.8336 10.7948C14.3783 10.5452 13.9867 10.1584 13.7321 9.66397C13.4775 9.16951 13.3845 8.62611 13.4433 8.11207C13.5216 7.38753 13.8888 6.70705 14.486 6.24687C14.6133 6.14406 14.7553 6.05594 14.907 5.97761C14.9805 5.93845 15.0539 5.90417 15.1322 5.8748C15.3721 5.77199 15.6267 5.70836 15.8763 5.68877C16.9681 5.56638 18.0647 6.11469 18.5983 7.14276Z" fill="#999999"/>
<path d="M12.5903 6.45967L4.90002 10.4417L7.98612 16.4017L15.6764 12.4198L12.5903 6.45967Z" fill="white"/>
<path fill-rule="evenodd" clip-rule="evenodd" d="M4.90542 10.4521L7.98962 16.41L7.12311 16.8555C5.4733 17.7074 3.45144 17.066 2.59471 15.4211C2.1688 14.5938 2.11495 13.6783 2.37931 12.8608C2.63877 12.0432 3.21156 11.3236 4.03891 10.8976L4.90542 10.4521Z" fill="black"/>
<path fill-rule="evenodd" clip-rule="evenodd" d="M13.6831 3.06982L19.0878 13.5072L18.329 13.6589L10.2367 15.25L7.15247 9.29209L13.1202 3.60344L13.6831 3.06982Z" fill="white"/>
<path fill-rule="evenodd" clip-rule="evenodd" d="M14.349 2.72705L19.7537 13.1644C19.9397 13.5266 19.7977 13.977 19.4306 14.168C19.0634 14.3589 18.613 14.2169 18.427 13.8498L13.0223 3.41242C12.8314 3.05015 12.9782 2.59976 13.3454 2.40884C13.7125 2.21791 14.1581 2.35988 14.349 2.72705Z" fill="#1A1A1A"/>
<path fill-rule="evenodd" clip-rule="evenodd" d="M10.2367 15.25L12.5425 19.705C12.8607 20.3218 12.6208 21.0855 12.004 21.4086H11.9991C11.3774 21.7268 10.6186 21.4869 10.2954 20.8701L7.98962 16.4151L10.2367 15.25Z" fill="#B3B3B3"/>
<path fill-rule="evenodd" clip-rule="evenodd" d="M18.2213 10.2072L17.0513 7.94545L18.5983 7.14258C19.1319 8.17554 18.9459 9.38474 18.2213 10.2072Z" fill="#999999"/>
<path d="M8.70324 12.2823L6.45544 13.4458L7.99703 16.424L10.2448 15.2605L8.70324 12.2823Z" fill="#B3B3B3"/>
<path fill-rule="evenodd" clip-rule="evenodd" d="M7.99451 16.415L7.128 16.8605C5.4782 17.7123 3.45633 17.071 2.59961 15.4261L6.44751 13.4336L7.99451 16.415Z" fill="black"/>
<path fill-rule="evenodd" clip-rule="evenodd" d="M18.3291 13.6591L10.2367 15.2501L8.69458 12.2736L15.7246 8.63135L18.3291 13.6591Z" fill="#B3B3B3"/>
<path fill-rule="evenodd" clip-rule="evenodd" d="M19.4306 14.1681C19.0634 14.359 18.613 14.217 18.427 13.8498L15.7246 8.63118L17.0513 7.9458L19.7537 13.1645C19.9397 13.5267 19.7977 13.9771 19.4306 14.1681Z" fill="#1A1A1A"/>
<path fill-rule="evenodd" clip-rule="evenodd" d="M12.004 21.4086L9.1156 15.8326L10.2416 15.25L12.5474 19.705C12.8656 20.3267 12.6208 21.0904 12.004 21.4086Z" fill="#999999"/>
<path fill-rule="evenodd" clip-rule="evenodd" d="M21.5258 29.2164C25.0262 29.2164 27.8803 26.3623 27.8803 22.862C27.8803 19.3617 25.0262 16.5076 21.5258 16.5076C18.0255 16.5076 15.1714 19.3617 15.1714 22.862C15.1714 26.3623 18.0255 29.2164 21.5258 29.2164Z" fill="black"/>
<path fill-rule="evenodd" clip-rule="evenodd" d="M21.5551 25.7506C23.4448 25.7506 24.9869 24.4533 24.9869 22.8623C24.9869 21.2712 23.4448 19.9739 21.5551 19.9739C19.6654 19.9739 18.1233 21.2712 18.1233 22.8623C18.1233 24.4533 19.6654 25.7506 21.5551 25.7506Z" fill="white"/>
<path fill-rule="evenodd" clip-rule="evenodd" d="M18.0646 25.7508L18.7989 24.4779L19.5332 23.2051L20.2676 24.4779L21.0019 25.7508H19.5332H18.0646Z" fill="white"/>
</g>
</svg>
