<svg width="15" height="16" viewBox="0 0 15 16" fill="none" xmlns="http://www.w3.org/2000/svg">
<rect x="0.799805" y="1.59961" width="12.8" height="13.6" fill="#F8F8F8"/>
<path d="M6.40007 9.26878L4.96567 7.83438L3.83447 8.96557L6.40007 11.5312L10.5657 7.36557L9.43447 6.23438L6.40007 9.26878Z" fill="#C80000"/>
<path d="M1.6 16H12.8C13.6824 16 14.4 15.2824 14.4 14.4V2.4C14.4 1.5176 13.6824 0.8 12.8 0.8H11.2C11.2 0.3576 10.8424 0 10.4 0H4C3.5576 0 3.2 0.3576 3.2 0.8H1.6C0.7176 0.8 0 1.5176 0 2.4V14.4C0 15.2824 0.7176 16 1.6 16ZM1.6 2.4H3.2V4H11.2V2.4H12.8V14.4H1.6V2.4Z" fill="black"/>
</svg>
