<svg width="48" height="48" viewBox="0 0 48 48" fill="none" xmlns="http://www.w3.org/2000/svg">
<path d="M23.9999 47.9998C37.2547 47.9998 47.9998 37.2547 47.9998 23.9999C47.9998 10.7451 37.2547 0 23.9999 0C10.7451 0 0 10.7451 0 23.9999C0 37.2547 10.7451 47.9998 23.9999 47.9998Z" fill="#99B8D1"/>
<path fill-rule="evenodd" clip-rule="evenodd" d="M6.021 8.10196V34.0138V39.8976C10.4153 44.8624 16.8379 47.9997 23.9998 47.9997C31.1512 47.9997 37.5737 44.8624 41.9786 39.8976V34.0138V8.10196V2.70409H6.03156V8.10196H6.021Z" fill="#E6E6E6"/>
<path fill-rule="evenodd" clip-rule="evenodd" d="M33.8768 7.71088H24.2113H23.7888H14.1233V21.739H23.7888H24.2113H33.8768V7.71088Z" fill="#FB0000"/>
<path fill-rule="evenodd" clip-rule="evenodd" d="M15.0528 15.9084C15.0105 15.2006 15.1056 13.8063 15.3274 11.7253C15.5175 11.7253 15.6126 11.7253 15.6126 11.7253C15.4119 14.7041 15.3168 16.1936 15.3168 16.1936L15.0528 15.9084Z" fill="#404040"/>
<path fill-rule="evenodd" clip-rule="evenodd" d="M30.6339 32.3552V28.0242V27.6967C30.6656 27.6967 30.6867 27.6967 30.7184 27.6967C31.3628 27.6967 31.9966 27.6862 32.6409 27.6756C33.0846 27.3376 33.3593 26.7777 33.486 25.9855H33.5494C33.5917 26.0489 33.6339 26.0911 33.6867 26.1228V32.3446H30.6339V32.3552ZM17.3558 27.6967V28.0242V32.3552H14.303V26.1334C14.3558 26.1017 14.398 26.0594 14.4403 25.9961H14.5037C14.6199 26.7777 14.9051 27.3376 15.3487 27.6862C15.9931 27.6967 16.6269 27.7073 17.2713 27.7073C17.303 27.7073 17.3241 27.7073 17.3558 27.7073V27.6967Z" fill="#404040"/>
<path fill-rule="evenodd" clip-rule="evenodd" d="M23.9472 29.5984C22.2254 29.5984 20.493 29.5562 18.7711 29.4611C18.1056 29.2182 17.588 28.69 17.3662 28.0245V27.697C19.574 27.7182 21.7923 27.7076 24 27.6759C26.2077 27.7076 28.426 27.7182 30.6338 27.697V28.0245C30.4119 28.69 29.8943 29.2182 29.2289 29.4611C27.4753 29.5456 25.7113 29.5984 23.9577 29.5984H23.9472Z" fill="#292827"/>
<path fill-rule="evenodd" clip-rule="evenodd" d="M28.5211 25.6051C25.5105 25.5734 22.4788 25.5734 19.4788 25.6051C19.3626 25.5945 19.0774 26.091 18.6232 27.0945C19.0457 26.6191 19.3838 26.3762 19.6479 26.3867C22.5422 26.3656 25.4577 26.3656 28.352 26.3867C28.6056 26.3762 28.9436 26.6191 29.3767 27.0945C28.933 26.091 28.6478 25.5945 28.5211 25.6051ZM33.4225 24.2741C33.507 24.4748 33.5492 24.7917 33.5492 25.2248C33.5387 25.4677 33.5281 25.6896 33.4964 25.9008C33.4964 25.9325 33.4858 25.9642 33.4858 25.9959C33.3696 26.7776 33.0844 27.3374 32.6408 27.686C31.9964 27.6966 31.3626 27.7072 30.7182 27.7072C30.6865 27.7072 30.6654 27.7072 30.6337 27.7072C28.426 27.7283 26.2077 27.7177 23.9999 27.686C21.7922 27.7177 19.5739 27.7283 17.3662 27.7072C17.3345 27.7072 17.3134 27.7072 17.2817 27.7072C16.6373 27.7072 16.0035 27.6966 15.3591 27.686C14.9155 27.348 14.6408 26.7881 14.5141 25.9959C14.5141 25.9642 14.5035 25.9325 14.5035 25.9008C14.4718 25.6896 14.4612 25.4677 14.4507 25.2248C14.4507 24.7917 14.4929 24.4748 14.5774 24.2741C14.6514 24.0945 14.7465 24.01 14.8838 24.0205C15.919 24.2107 16.8803 24.3586 17.7781 24.4642C18.9824 24.6121 20.0598 24.686 21.0316 24.6966C22.6795 24.6966 23.6514 24.6966 23.9471 24.6966C23.9471 24.6966 24.9507 24.6966 26.9683 24.6966C27.9401 24.686 29.0175 24.6121 30.2218 24.4642C31.1196 24.3586 32.0915 24.2107 33.1161 24.0205C33.2429 24.01 33.3485 24.0945 33.4225 24.2741ZM30.6337 26.3339C31.9119 26.26 32.5457 26.2283 32.5457 26.2283C32.6302 26.1755 32.7147 26.1015 32.7781 25.9959C32.8309 25.9114 32.8837 25.8058 32.926 25.6896C33.264 24.8656 33.1267 24.5065 32.4929 24.6121C31.2042 24.7389 30.4542 24.8867 30.2323 25.0452C30.0316 25.1508 29.8943 25.3621 29.8732 25.5839C30.2112 26.1015 30.3802 26.3656 30.3802 26.3656C30.4647 26.3656 30.5492 26.355 30.6337 26.355V26.3339ZM15.2112 25.9959C15.2852 26.1015 15.3591 26.1755 15.4436 26.2283C15.4436 26.2283 16.0774 26.26 17.3556 26.3339C17.4401 26.3339 17.5141 26.3445 17.6091 26.3445C17.6091 26.3445 17.7781 26.0804 18.1162 25.5628C18.095 25.3304 17.9577 25.1297 17.757 25.0241C17.5352 24.8656 16.7852 24.7283 15.4965 24.591C14.8627 24.4853 14.7148 24.8445 15.0634 25.6684C15.1056 25.7846 15.1584 25.8903 15.2112 25.9748V25.9959Z" fill="#404040"/>
<path fill-rule="evenodd" clip-rule="evenodd" d="M30.6339 26.3343C30.5493 26.3343 30.4754 26.3449 30.3803 26.3449C30.3803 26.3449 30.2113 26.0808 29.8733 25.5632C29.8944 25.3308 30.0317 25.1301 30.2324 25.0245C30.4543 24.866 31.2043 24.7287 32.493 24.5914C33.1268 24.4858 33.2747 24.8449 32.9261 25.6688C32.8838 25.785 32.831 25.8907 32.7782 25.9752C32.7043 26.0808 32.6303 26.1548 32.5458 26.2076C32.5458 26.2076 31.912 26.2393 30.6339 26.3132V26.3343Z" fill="#FEFEFE"/>
<path fill-rule="evenodd" clip-rule="evenodd" d="M15.2113 25.9957C15.1584 25.9112 15.1056 25.8056 15.0634 25.6894C14.7253 24.8654 14.8627 24.5063 15.4965 24.6119C16.7852 24.7387 17.5352 24.8865 17.757 25.045C17.9577 25.1506 18.0951 25.3619 18.1162 25.5837C17.7782 26.1013 17.6091 26.3654 17.6091 26.3654C17.5246 26.3654 17.4401 26.3548 17.3556 26.3548C16.0775 26.2809 15.4437 26.2492 15.4437 26.2492C15.3591 26.1964 15.2746 26.1225 15.2113 26.0168V25.9957Z" fill="#FEFEFE"/>
<path fill-rule="evenodd" clip-rule="evenodd" d="M18.6233 27.0944C19.067 26.0909 19.3522 25.5944 19.4789 25.605C22.4895 25.5733 25.5212 25.5733 28.5211 25.605C28.6373 25.5944 28.9226 26.0909 29.3768 27.0944C28.9542 26.619 28.6162 26.3761 28.3521 26.3866C25.4578 26.3655 22.5423 26.3655 19.6479 26.3866C19.3944 26.3761 19.0564 26.619 18.6233 27.0944Z" fill="#6D6E6E"/>
<path fill-rule="evenodd" clip-rule="evenodd" d="M22.8698 22.6578C22.5846 22.4465 22.3522 22.1613 22.2149 21.8338C19.9755 21.8127 18.8558 21.7916 18.8558 21.7916C18.8558 22.0557 18.8875 22.3303 18.9403 22.6155L22.8804 22.6578H22.8698ZM17.06 21.7493C16.9649 21.3902 16.8593 20.9993 16.7537 20.5662C18.0107 20.7247 19.9121 20.7881 22.4473 20.7458C23.2501 19.8268 24.7396 19.8268 25.5424 20.7458C28.0776 20.7881 29.979 20.7247 31.236 20.5662C31.1198 20.9993 31.0247 21.3902 30.9297 21.7493C30.4543 23.5662 30.2114 24.4747 30.2114 24.4747C29.0071 24.6226 27.9297 24.6965 26.9579 24.7071C25.31 24.7071 24.3381 24.7071 24.0424 24.7071C24.0424 24.7071 23.0389 24.7071 21.0213 24.7071C20.0494 24.6965 18.972 24.6226 17.7677 24.4747C17.7677 24.4747 17.5248 23.5662 17.0494 21.7493H17.06ZM28.7853 23.4923C26.9579 23.5028 25.3628 23.5028 24.0001 23.4923C22.6374 23.5028 21.0424 23.5028 19.2149 23.4923C19.1621 23.6613 19.1938 23.8937 19.2889 24.2C20.8945 24.2528 22.4579 24.2634 24.0001 24.2634C25.5424 24.274 27.1163 24.2528 28.7114 24.2C28.8064 23.9043 28.8381 23.6719 28.7853 23.4923ZM25.7853 21.8338C25.648 22.1613 25.4156 22.4465 25.1304 22.6578L29.0705 22.6155C29.1233 22.3303 29.1445 22.0557 29.155 21.7916C29.155 21.7916 28.0353 21.8021 25.7959 21.8338H25.7853Z" fill="#6D6E6E"/>
<path fill-rule="evenodd" clip-rule="evenodd" d="M25.1302 22.6579C25.4154 22.4466 25.6478 22.1614 25.7851 21.8339C28.0245 21.8128 29.1443 21.7917 29.1443 21.7917C29.1443 22.0557 29.1126 22.3304 29.0598 22.6156L25.1196 22.6579H25.1302Z" fill="#404040"/>
<path fill-rule="evenodd" clip-rule="evenodd" d="M22.2147 21.8237C22.352 22.1511 22.5844 22.4363 22.8696 22.6476L18.9295 22.6053C18.8767 22.3201 18.8555 22.0455 18.845 21.7814C18.845 21.7814 19.9647 21.792 22.2041 21.8237H22.2147Z" fill="#404040"/>
<path fill-rule="evenodd" clip-rule="evenodd" d="M19.2042 23.4821C21.0316 23.4926 22.6267 23.4926 23.9893 23.4821C25.352 23.4926 26.9471 23.4926 28.7745 23.4821C28.8274 23.6511 28.7957 23.8835 28.7006 24.1898C27.095 24.2426 25.5316 24.2532 23.9893 24.2532C22.4471 24.2638 20.8732 24.2426 19.2781 24.1898C19.183 23.894 19.1513 23.6616 19.2042 23.4821Z" fill="#404040"/>
<path fill-rule="evenodd" clip-rule="evenodd" d="M16.2148 22.6367C16.5951 23.0803 16.7852 23.4606 16.7747 23.7775C15.7923 23.7881 15.1902 23.6613 14.9789 23.3972C14.8521 22.9219 14.9472 22.5205 15.243 22.193C15.8873 22.4888 16.2148 22.6472 16.2148 22.6472V22.6367Z" fill="#FEC900"/>
<path fill-rule="evenodd" clip-rule="evenodd" d="M31.2253 23.7778C31.2253 23.4609 31.4049 23.0807 31.7852 22.637C31.7852 22.637 32.1127 22.4891 32.757 22.1828C33.0528 22.5102 33.1479 22.9116 33.0211 23.387C32.8098 23.6616 32.2077 23.7884 31.2253 23.7673V23.7778Z" fill="#FEC900"/>
<path fill-rule="evenodd" clip-rule="evenodd" d="M30.9295 21.7388C31.0246 21.3796 31.1302 20.9888 31.2359 20.5557C29.9788 20.7141 28.0774 20.7775 25.5422 20.7353C24.7394 19.8162 23.25 19.8162 22.4471 20.7353C19.9119 20.7775 18.0105 20.7141 16.7535 20.5557C16.8697 20.9888 16.9648 21.3796 17.0598 21.7388C17.5352 23.5557 17.7781 24.4641 17.7781 24.4641C16.8803 24.3585 15.9084 24.2106 14.8838 24.0205C14.757 24.0099 14.6514 24.0944 14.5775 24.274C14.4929 23.1648 14.4296 22.5099 14.3873 22.3198C14.3768 22.3092 14.3556 22.3092 14.3451 22.2986C14.3239 22.0662 14.4507 21.8444 14.662 21.7493C14.6831 21.7388 14.7042 21.7388 14.7148 21.7282C14.6725 18.855 14.6831 16.9536 14.7359 16.0346C14.7887 15.2001 14.8415 14.4606 14.8838 13.8268H15.1056C15.0317 14.7775 15.0106 15.4747 15.0317 15.9078L15.2958 16.193C15.2958 16.193 15.3908 14.7036 15.5915 11.7247C15.5915 11.7247 15.4965 11.7247 15.3063 11.7247C15.2324 12.4536 15.169 13.098 15.1162 13.6472H14.8944C14.9789 12.4853 15.0528 11.6719 15.1056 11.2282C15.2852 10.5839 15.6444 10.2247 16.1936 10.1297C21.2535 9.98177 26.7042 9.98177 31.764 10.1297C32.3133 10.2142 32.6725 10.5839 32.852 11.2282C32.9049 11.6719 32.9788 12.4747 33.0633 13.6472H32.8415C32.7992 13.0874 32.7358 12.443 32.6513 11.7247C32.4612 11.7247 32.3661 11.7247 32.3661 11.7247C32.5668 14.7036 32.6619 16.193 32.6619 16.193L32.926 15.9078C32.9471 15.4747 32.926 14.7775 32.852 13.8268H33.0739C33.1161 14.4606 33.1689 15.2001 33.2218 16.0346C33.2851 16.9536 33.2851 18.8444 33.2429 21.7282C33.264 21.7388 33.2851 21.7388 33.2957 21.7493C33.507 21.8444 33.6337 22.0662 33.6126 22.2986C33.602 22.3092 33.5809 22.3092 33.5704 22.3198C33.5387 22.5099 33.4753 23.1648 33.3802 24.274C33.3063 24.0944 33.2112 24.0099 33.0739 24.0205C32.0387 24.2106 31.0774 24.3585 30.1795 24.4641C30.1795 24.4641 30.4225 23.5557 30.8978 21.7388H30.9295ZM16.7641 23.7775C16.7641 23.4606 16.5845 23.0803 16.2042 22.6367C16.2042 22.6367 15.8767 22.4888 15.2324 22.1824C14.9366 22.5099 14.8415 22.9113 14.9683 23.3867C15.1796 23.6613 15.7817 23.7881 16.7641 23.7669V23.7775ZM31.7746 22.6367C31.3943 23.0803 31.2042 23.4606 31.2147 23.7775C32.1971 23.7881 32.7992 23.6613 33.0105 23.3972C33.1373 22.9219 33.0422 22.5205 32.7464 22.193C32.102 22.4888 31.7746 22.6472 31.7746 22.6472V22.6367ZM15.7711 17.2916C15.7394 17.936 22.7007 17.8937 23.9894 17.936C25.2781 17.8937 32.2288 17.936 32.2077 17.2916C32.2077 17.2916 32.102 15.4536 31.8908 11.7881C31.9225 11.3339 31.7429 11.112 31.3309 11.1332C26.8098 11.1015 24.3591 11.1015 23.9894 11.1226C23.6197 11.1015 21.169 11.1015 16.6479 11.1332C16.2465 11.1226 16.0563 11.3339 16.088 11.7881C15.8767 15.4536 15.7711 17.2916 15.7711 17.2916Z" fill="#ED595B"/>
<path fill-rule="evenodd" clip-rule="evenodd" d="M33.4226 24.2742C33.5071 23.165 33.5705 22.5101 33.6127 22.3199C33.6233 22.3094 33.6444 22.3094 33.655 22.2988C33.9825 22.1298 34.162 22.3199 34.1726 22.8692C34.2149 24.908 34.162 25.996 33.993 26.1544C33.8768 26.1861 33.7818 26.1861 33.6973 26.1333C33.6444 26.1016 33.6022 26.0594 33.5599 25.996C33.5388 25.9643 33.5282 25.9326 33.5071 25.9009C33.5388 25.6897 33.5494 25.4678 33.5599 25.2249C33.5599 24.7918 33.5177 24.4749 33.4332 24.2742H33.4226Z" fill="#292827"/>
<path fill-rule="evenodd" clip-rule="evenodd" d="M14.3875 22.3199C14.4192 22.5101 14.4826 23.165 14.5776 24.2742C14.4931 24.4749 14.4509 24.7918 14.4509 25.2249C14.4614 25.4678 14.472 25.6897 14.5037 25.9009C14.4931 25.9326 14.472 25.9643 14.4509 25.996C14.4086 26.0594 14.3664 26.1016 14.3136 26.1333C14.229 26.1756 14.134 26.1861 14.0178 26.1544C13.8593 25.996 13.7959 24.908 13.8382 22.8692C13.8488 22.3199 14.0178 22.1298 14.3558 22.2988C14.3664 22.3094 14.3875 22.3094 14.3981 22.3199H14.3875Z" fill="#292827"/>
<path d="M34.1513 13.6471H32.7781V13.8162H34.1513V13.6471Z" fill="#292827"/>
<path fill-rule="evenodd" clip-rule="evenodd" d="M34.669 12.3802C34.1197 12.338 33.8239 12.3908 33.7922 12.5387L33.7183 14.6514C33.7922 14.9788 33.9612 15.1267 34.2464 15.095C34.8274 15.1267 35.1232 14.9894 35.1232 14.683C35.1549 13.3838 35.176 12.7288 35.176 12.7288C35.0492 12.4753 34.8802 12.3591 34.669 12.3802Z" fill="#292827"/>
<path fill-rule="evenodd" clip-rule="evenodd" d="M13.331 12.3802C13.8803 12.338 14.1761 12.3908 14.2078 12.5387L14.2817 14.6514C14.2078 14.9788 14.0388 15.1267 13.7536 15.095C13.1726 15.1267 12.8768 14.9894 12.8768 14.683C12.8451 13.3838 12.824 12.7288 12.824 12.7288C12.9507 12.4753 13.1197 12.3591 13.331 12.3802Z" fill="#6D7F99"/>
<path d="M15.2219 13.6471H13.8486V13.8162H15.2219V13.6471Z" fill="#292827"/>
<path fill-rule="evenodd" clip-rule="evenodd" d="M13.331 12.3802C13.8803 12.338 14.1761 12.3908 14.2078 12.5387L14.2817 14.6514C14.2078 14.9788 14.0388 15.1267 13.7536 15.095C13.1726 15.1267 12.8768 14.9894 12.8768 14.683C12.8451 13.3838 12.824 12.7288 12.824 12.7288C12.9507 12.4753 13.1197 12.3591 13.331 12.3802Z" fill="#292827"/>
<path fill-rule="evenodd" clip-rule="evenodd" d="M32.6937 16.1936C32.6937 16.1936 32.5987 14.7041 32.3979 11.7253C32.3979 11.7253 32.493 11.7253 32.6832 11.7253C32.7571 12.4542 32.8205 13.0985 32.8733 13.6478H32.7888V13.8168H32.8839C32.9578 14.7675 32.9789 15.4647 32.9578 15.8978L32.6937 16.183V16.1936Z" fill="#353043"/>
<path fill-rule="evenodd" clip-rule="evenodd" d="M33.8767 12.4435V10.204H34.3626V12.3695C34.1302 12.3695 33.9612 12.3907 33.8767 12.4435Z" fill="#940A0A"/>
<path fill-rule="evenodd" clip-rule="evenodd" d="M33.8767 14.9787C33.9718 15.0738 34.088 15.116 34.2464 15.0949C34.2887 15.0949 34.3204 15.0949 34.3626 15.0949V21.7392H33.8767V14.9787Z" fill="#940A0A"/>
<path fill-rule="evenodd" clip-rule="evenodd" d="M34.3626 10.2037H33.8767V9.31635H34.5316V10.2037H34.3626Z" fill="#940A0A"/>
<path fill-rule="evenodd" clip-rule="evenodd" d="M14.1232 9.31635V10.2037H13.6373H13.4683V9.31635H14.1232Z" fill="#940A0A"/>
<path fill-rule="evenodd" clip-rule="evenodd" d="M13.7432 15.0949C13.9016 15.116 14.0284 15.0738 14.1129 14.9787V21.7392H13.627V15.0949C13.6586 15.0949 13.7009 15.0949 13.7432 15.0949Z" fill="#940A0A"/>
<path fill-rule="evenodd" clip-rule="evenodd" d="M14.1231 12.4435C14.0386 12.3907 13.8696 12.3695 13.6372 12.3695V10.204H14.1231V12.4435Z" fill="#940A0A"/>
<path fill-rule="evenodd" clip-rule="evenodd" d="M15.7818 17.2916C15.7818 17.2916 15.8874 15.4535 16.0987 11.7881C16.067 11.3338 16.2466 11.112 16.6585 11.1331C21.1797 11.1014 23.6304 11.1014 24.0001 11.1226C24.3698 11.1014 26.8205 11.1014 31.3416 11.1331C31.743 11.1226 31.9331 11.3338 31.9015 11.7881C32.1127 15.4535 32.2184 17.2916 32.2184 17.2916C32.25 17.9359 25.2888 17.8937 24.0001 17.9359C22.7113 17.8937 15.7607 17.9359 15.7818 17.2916Z" fill="#353043"/>
<path fill-rule="evenodd" clip-rule="evenodd" d="M23.9155 21.4222C23.7465 21.4222 23.5775 21.4222 23.419 21.4222C23.3556 21.4222 23.2923 21.4222 23.2289 21.4222C23.1655 21.4222 23.1127 21.4222 23.0493 21.4222C22.9648 21.4222 22.8697 21.4222 22.7958 21.4539C22.7535 21.475 22.743 21.4961 22.743 21.5384V21.549C22.743 21.6123 22.7852 21.6757 22.8063 21.7285C22.8486 21.813 22.912 21.8764 22.9754 21.9398C23.0915 22.056 23.3134 22.1828 23.5563 22.2461C23.588 22.2567 23.6303 22.2673 23.662 22.2778C23.6937 22.2884 23.6831 22.299 23.662 22.299C23.6197 22.299 23.5775 22.2884 23.5458 22.2778C23.2711 22.2039 23.081 22.0983 22.9542 21.9926C22.8803 21.9292 22.7958 21.8342 22.743 21.7497C22.7113 21.6863 22.669 21.5807 22.669 21.549C22.6585 21.4961 22.6585 21.475 22.6585 21.3905C22.669 21.2532 22.7113 21.1476 22.7852 21.0314C22.7958 21.0208 22.7958 21.0102 22.8063 21.0102C22.8063 21.0102 22.8169 20.9997 22.8063 20.9891C22.7958 20.9891 22.7852 20.9997 22.7852 20.9997C22.7218 21.0736 22.6796 21.1264 22.6479 21.2004C22.6056 21.2954 22.5951 21.3694 22.5845 21.4539C22.5845 21.4645 22.5634 21.475 22.5634 21.4539C22.5634 21.3588 22.5845 21.2638 22.6162 21.1792C22.6585 21.0842 22.7113 21.0314 22.7641 20.9574C22.838 20.8835 22.9225 20.8095 23.007 20.7567C23.1444 20.6722 23.2817 20.6194 23.4296 20.5771C23.493 20.556 23.5563 20.5454 23.6197 20.5454C23.6408 20.5454 23.662 20.5454 23.6831 20.5454C23.6937 20.5454 23.7148 20.556 23.6831 20.5666C23.6408 20.5771 23.6092 20.5877 23.5669 20.5983C23.419 20.6405 23.2711 20.6933 23.1444 20.7778C23.0387 20.8412 22.9859 20.8835 22.8592 21.0419C22.8486 21.0631 22.8063 21.1159 22.7852 21.1581C22.7746 21.1898 22.7535 21.2321 22.7535 21.2743C22.7535 21.306 22.7641 21.3377 22.7958 21.3483C22.8486 21.38 22.9014 21.38 22.9859 21.3905C23.0387 21.3905 23.0915 21.3905 23.1549 21.3905C23.2394 21.3905 23.3134 21.3905 23.3979 21.3905C23.5775 21.3905 23.757 21.3905 23.9261 21.4011C23.9472 21.4011 23.9683 21.4011 23.9789 21.4011C24.1584 21.4011 24.338 21.4011 24.5176 21.4011C24.6021 21.4011 24.6761 21.4011 24.7606 21.4011C24.8134 21.4011 24.8662 21.4011 24.9296 21.4011C25.0141 21.4011 25.0563 21.4011 25.1197 21.3588C25.1514 21.3483 25.1514 21.3166 25.162 21.2849C25.162 21.2532 25.1408 21.2004 25.1303 21.1687C25.1091 21.1264 25.0775 21.0736 25.0669 21.0525C24.9401 20.894 24.8873 20.8518 24.7817 20.7884C24.6549 20.7039 24.507 20.6405 24.3697 20.5983C24.3275 20.5877 24.2958 20.5771 24.2535 20.5666C24.2218 20.556 24.243 20.5454 24.2535 20.5454C24.2746 20.5454 24.2958 20.5454 24.3169 20.5454C24.3803 20.556 24.4437 20.5666 24.507 20.5877C24.6549 20.63 24.7922 20.6933 24.9296 20.7778C25.0141 20.8307 25.0986 20.9046 25.1725 20.9785C25.2359 21.0525 25.2782 21.1053 25.3204 21.2109C25.3521 21.2954 25.3732 21.3905 25.3732 21.4856C25.3732 21.5173 25.3521 21.5067 25.3521 21.4856C25.3415 21.4011 25.331 21.3271 25.2887 21.2321C25.257 21.1581 25.2253 21.0947 25.162 21.0314C25.1514 21.0208 25.1408 21.0208 25.1408 21.0208C25.1408 21.0314 25.1408 21.0314 25.1408 21.0419C25.1408 21.0525 25.1514 21.0631 25.162 21.0631C25.2359 21.1898 25.2782 21.2954 25.2782 21.4222C25.2782 21.4961 25.2676 21.5278 25.2676 21.5807C25.257 21.6229 25.2253 21.718 25.1831 21.7814C25.1303 21.8764 25.0458 21.9609 24.9613 22.0243C24.8239 22.13 24.6338 22.2356 24.3592 22.299C24.3275 22.3095 24.2852 22.3201 24.243 22.3201C24.2218 22.3201 24.2113 22.3095 24.243 22.299C24.2746 22.2884 24.3169 22.2778 24.3486 22.2673C24.5915 22.2039 24.8134 22.0771 24.9296 21.9715C24.993 21.9081 25.0669 21.8342 25.1091 21.7602C25.1408 21.7074 25.1725 21.6335 25.1725 21.5807C25.1725 21.5807 25.1725 21.5807 25.1725 21.5701C25.162 21.5278 25.1514 21.5067 25.1197 21.4856C25.0563 21.4539 24.9507 21.4539 24.8662 21.4539C24.8028 21.4539 24.75 21.4539 24.6866 21.4539C24.6232 21.4539 24.5599 21.4539 24.4965 21.4539C24.3275 21.4539 24.1584 21.4539 23.9894 21.4539C23.9683 21.4539 23.9472 21.4539 23.9366 21.4539L23.9155 21.4222ZM23.9155 21.3588C23.7993 21.3588 23.6831 21.3588 23.5669 21.3588C23.4824 21.3588 23.3979 21.3588 23.3134 21.3483C23.2394 21.3483 23.1655 21.3377 23.081 21.3377C23.007 21.3271 22.912 21.3166 22.8908 21.306C22.8803 21.2954 22.8803 21.2849 22.8908 21.2743C22.9014 21.2638 22.9225 21.2532 22.9437 21.2426C22.9542 21.2426 22.9648 21.2426 22.9754 21.2426C22.9859 21.2532 22.9965 21.2532 23.0176 21.2638C23.0915 21.2849 23.1338 21.2954 23.2289 21.2954C23.3028 21.306 23.3662 21.306 23.4401 21.306C23.5986 21.3166 23.6937 21.3166 23.9155 21.3166C23.9366 21.3166 23.9577 21.3166 23.9789 21.3166C24.2007 21.3166 24.3063 21.3166 24.4648 21.3166C24.5387 21.3166 24.6021 21.3166 24.6761 21.306C24.7711 21.2954 24.8239 21.2954 24.8873 21.2743C24.9084 21.2743 24.9084 21.2638 24.9296 21.2532C24.9401 21.2426 24.9507 21.2426 24.9613 21.2532C24.9824 21.2638 25.0035 21.2743 25.0141 21.2849C25.0246 21.2954 25.0246 21.306 25.0141 21.3166C24.993 21.3271 24.8979 21.3377 24.8239 21.3377C24.75 21.3377 24.6761 21.3483 24.5915 21.3483C24.507 21.3483 24.4225 21.3483 24.338 21.3483C24.2218 21.3483 24.0951 21.3483 23.9789 21.3483C23.9577 21.3483 23.9366 21.3483 23.9155 21.3483V21.3588ZM23.9155 21.2954C23.6725 21.2954 23.419 21.2954 23.1761 21.2638C23.0599 21.2532 23.0176 21.1898 23.0176 21.1476C23.007 21.0102 23.2077 20.8307 23.3134 20.7778C23.4613 20.7039 23.588 20.6405 23.7676 20.5983C23.7887 20.5877 23.7993 20.5666 23.8099 20.5454C23.8099 20.5243 23.7782 20.5032 23.7676 20.5032C23.7148 20.4926 23.662 20.4926 23.5986 20.5032C23.5035 20.5138 23.419 20.5349 23.3345 20.556C23.2183 20.5877 23.0915 20.6511 22.9754 20.7145C22.8275 20.799 22.7007 20.9152 22.6162 21.0631C22.5528 21.1687 22.5 21.2954 22.5 21.4116C22.5 21.549 22.5528 21.6863 22.6268 21.8025C22.7007 21.9187 22.7958 22.0138 22.912 22.0877C23.007 22.1616 23.1232 22.2145 23.2394 22.2673C23.3451 22.3095 23.4507 22.3307 23.5563 22.3518C23.6197 22.3623 23.6937 22.3729 23.757 22.3623C23.7782 22.3623 23.7993 22.3412 23.8099 22.3201C23.8099 22.299 23.7993 22.2778 23.7782 22.2673C23.7253 22.2461 23.6303 22.2145 23.5563 22.1933C23.4718 22.1511 23.3768 22.1194 23.3028 22.0666C23.2289 22.0138 23.1444 21.9504 23.0915 21.8764C23.0599 21.8342 23.0387 21.7814 23.0282 21.7391C23.0282 21.718 23.0282 21.6863 23.0387 21.6546C23.0915 21.5701 23.2394 21.5701 23.3451 21.5701C23.4401 21.5701 23.5352 21.5701 23.6408 21.5595C23.7359 21.5595 23.8521 21.5595 23.9577 21.5595C24.0634 21.5595 24.1796 21.5595 24.2746 21.5701C24.3697 21.5701 24.4648 21.5807 24.5704 21.5807C24.6761 21.5912 24.8239 21.5807 24.8768 21.6652C24.8873 21.6863 24.8873 21.718 24.8873 21.7497C24.8873 21.7919 24.8556 21.8447 24.8239 21.887C24.7711 21.9609 24.6972 22.0243 24.6127 22.0666C24.5282 22.1194 24.4437 22.1511 24.3592 22.1933C24.2852 22.225 24.2007 22.2461 24.1373 22.2673C24.1162 22.2778 24.1056 22.299 24.1056 22.3201C24.1056 22.3412 24.1373 22.3623 24.1584 22.3623C24.2218 22.3729 24.2958 22.3729 24.3592 22.3623C24.4648 22.3518 24.5704 22.3201 24.6761 22.2884C24.7922 22.2461 24.9084 22.1933 25.0035 22.1194C25.1197 22.0349 25.2148 21.9504 25.2887 21.8342C25.3627 21.718 25.426 21.5807 25.426 21.4433C25.426 21.3271 25.3838 21.2004 25.3204 21.0947C25.2359 20.9469 25.1091 20.8307 24.9613 20.7461C24.8451 20.6722 24.7183 20.6088 24.6021 20.5771C24.5176 20.5454 24.4225 20.5349 24.338 20.5138C24.2852 20.5032 24.2218 20.5032 24.169 20.5138C24.1479 20.5138 24.1268 20.5349 24.1268 20.556C24.1268 20.5771 24.1373 20.5983 24.1584 20.6088C24.3275 20.6616 24.4648 20.725 24.6021 20.799C24.7077 20.8623 24.9084 21.0419 24.8979 21.1792C24.8873 21.2215 24.8556 21.2849 24.7394 21.2954C24.4965 21.3166 24.243 21.3166 24 21.306C23.9789 21.306 23.9577 21.306 23.9472 21.306L23.9155 21.2954Z" fill="#D3D5D5"/>
<path d="M38.6513 34.7746H9.39087V36.5703H38.6513V34.7746Z" fill="#B3B3B3"/>
<path d="M38.6513 38.2184H9.39087V40.0142H38.6513V38.2184Z" fill="#B3B3B3"/>
</svg>
