<svg width="49" height="48" viewBox="0 0 49 48" fill="none" xmlns="http://www.w3.org/2000/svg">
<path d="M24.2941 47.998C37.5484 47.998 48.2931 37.2532 48.2931 23.999C48.2931 10.7447 37.5484 0 24.2941 0C11.0399 0 0.295166 10.7447 0.295166 23.999C0.295166 37.2532 11.0399 47.998 24.2941 47.998Z" fill="#99B8D1"/>
<path fill-rule="evenodd" clip-rule="evenodd" d="M41.6071 38.3338C43.6434 38.3588 44.8175 38.3855 45.1277 38.4155C45.1611 40.135 45.1777 40.9955 45.1777 40.9955C42.8646 41.1106 41.7705 41.1673 41.8939 41.164C41.4937 39.603 41.3986 38.6607 41.6071 38.3338Z" fill="#E8E9E9"/>
<path fill-rule="evenodd" clip-rule="evenodd" d="M28.6002 38.3338C26.5639 38.3588 25.3898 38.3855 25.0796 38.4155C25.0462 40.135 25.0295 40.9955 25.0295 40.9955C27.3427 41.1106 28.4368 41.1673 28.3133 41.164C28.7136 39.603 28.8103 38.6607 28.6002 38.3338Z" fill="#E8E9E9"/>
<path fill-rule="evenodd" clip-rule="evenodd" d="M45.136 38.9992C45.0793 35.3768 45.0526 33.5573 45.0543 33.5389C45.0443 32.9185 45.041 32.6083 45.041 32.6083C45.0393 32.4616 45.0376 32.3882 45.0376 32.3882C45.0893 32.1697 45.1193 31.9329 45.1294 31.6777C45.1677 30.9856 45.1077 30.597 44.9509 30.512C44.7508 26.8662 44.4623 24.6131 44.0837 23.7525C43.2315 23.3239 42.6844 23.1088 42.4459 23.1088C42.1074 22.8603 41.8239 22.7336 41.592 22.7302C37.2676 22.6268 35.1045 22.5768 35.1045 22.5768C35.1045 22.5768 32.9364 22.6285 28.6119 22.7302C28.3801 22.7336 28.0966 22.8586 27.758 23.1088C27.5195 23.1088 26.9742 23.3239 26.1203 23.7525C25.7417 24.6131 25.4515 26.8662 25.2531 30.512C25.0946 30.597 25.0363 30.9839 25.0746 31.6777C25.0846 31.9329 25.1146 32.1697 25.1663 32.3882C25.1663 32.3882 25.1647 32.4616 25.163 32.6083C25.163 32.6083 25.158 32.9185 25.1497 33.5389C25.1513 33.5573 25.1246 35.3785 25.0679 38.9992H45.1377H45.136Z" fill="#E8E9E9"/>
<path d="M27.8548 44.3911H25.3799V48.0001H27.8548V44.3911Z" fill="#404040"/>
<path fill-rule="evenodd" clip-rule="evenodd" d="M25.1277 44.1891C25.136 44.6027 25.1394 45.018 25.1394 45.4316C27.084 45.4433 28.0563 45.4483 28.0563 45.4483C28.0563 44.7162 28.0563 44.3509 28.0563 44.3509L25.1294 44.1891H25.1277Z" fill="#292827"/>
<path d="M44.8224 44.3911H42.3474V48.0001H44.8224V44.3911Z" fill="#404040"/>
<path fill-rule="evenodd" clip-rule="evenodd" d="M45.0741 44.1891C45.0657 44.6027 45.0624 45.018 45.0624 45.4316C43.1178 45.4433 42.1455 45.4483 42.1455 45.4483C42.1455 44.7162 42.1455 44.3509 42.1455 44.3509L45.0741 44.1891Z" fill="#292827"/>
<path fill-rule="evenodd" clip-rule="evenodd" d="M25.0664 38.9994H45.1361C45.1328 38.8192 45.1311 38.6458 45.1278 38.474C44.9243 38.4774 44.7308 38.4824 44.5474 38.4857C44.0204 38.4957 43.5801 38.504 43.2249 38.5107C42.5044 38.5241 42.1425 38.5307 42.1425 38.5307C42.1608 36.2309 42.1708 35.0801 42.1708 35.0801C42.1658 34.6582 42.0091 34.4414 41.7022 34.4297C40.0344 34.4697 38.335 34.4948 36.6272 34.5048C36.7356 34.6682 36.829 34.8433 36.9074 35.0318C38.0482 35.0134 39.7293 34.9851 41.949 34.9501C41.9624 35.7839 41.7639 36.1925 41.3503 36.1759C40.6148 36.2059 40.2479 36.2209 40.2479 36.2209C40.2346 35.9807 40.0728 35.864 39.7609 35.874C38.5035 35.8973 37.5011 35.914 36.7523 35.9274C36.6306 36.1225 36.4738 36.2993 36.2837 36.4594C35.8901 36.4844 35.4965 36.4994 35.1029 36.5011C34.7093 36.4977 34.3107 36.4844 33.9171 36.4594C33.727 36.2993 33.5702 36.1225 33.4485 35.9274C32.6997 35.914 31.6957 35.8957 30.4399 35.874C30.128 35.864 29.9662 35.9807 29.9529 36.2209C29.9529 36.2209 29.586 36.2059 28.8505 36.1759C28.4369 36.1925 28.2384 35.7839 28.2518 34.9501C30.4716 34.9867 32.1526 35.0134 33.2934 35.0318C33.3718 34.8433 33.4652 34.6682 33.5736 34.5048C31.8658 34.4948 30.1647 34.4697 28.4986 34.4297C28.1917 34.4414 28.035 34.6599 28.03 35.0801C28.03 35.0801 28.04 36.2309 28.0583 38.5307C28.0583 38.5307 27.6981 38.5241 26.9759 38.5107C26.6224 38.504 26.1821 38.4957 25.6534 38.4857C25.47 38.4824 25.2765 38.479 25.073 38.474C25.0697 38.6441 25.068 38.8192 25.0647 38.9994H25.0664Z" fill="#6D6E6E"/>
<path fill-rule="evenodd" clip-rule="evenodd" d="M42.2192 40.0725C42.2192 40.0725 42.2209 39.8257 42.2242 39.3337C43.4167 39.292 44.3873 39.1803 45.1344 38.9985H25.0647C25.8119 39.1803 26.7825 39.292 27.9749 39.3337C27.9783 39.8257 27.9799 40.0725 27.9799 40.0725C28.105 40.2843 28.1534 40.5628 28.1234 40.9114C29.3191 40.9564 30.4482 40.9681 31.5072 40.9464C33.8704 41.0181 36.327 41.0181 38.6902 40.9464C39.7493 40.9681 40.8783 40.9564 42.0741 40.9114C42.0441 40.5645 42.0908 40.2843 42.2175 40.0725H42.2192Z" fill="#6D6E6E"/>
<path fill-rule="evenodd" clip-rule="evenodd" d="M41.2668 44.5911C43.2298 44.6962 44.4989 44.5611 45.0743 44.1875C45.1327 43.9807 45.1477 43.7789 45.1193 43.5821C45.6647 43.3386 45.4546 41.2256 45.4546 40.7103C42.9563 40.9071 40.7015 40.9854 38.6918 40.9454C36.3286 41.0171 33.872 41.0171 31.5088 40.9454C29.4992 40.9854 27.246 40.9071 24.7461 40.7103C24.7461 41.2256 24.5376 43.3386 25.0813 43.5821C25.0513 43.7773 25.0663 43.9791 25.1263 44.1875C25.7 44.5611 26.9692 44.6945 28.9321 44.5911C32.908 44.7429 37.2892 44.7429 41.2652 44.5911H41.2668Z" fill="#7C8785"/>
<path fill-rule="evenodd" clip-rule="evenodd" d="M35.103 31.0161C32.9882 31.0311 30.083 30.9611 26.399 30.806C26.1688 30.791 26.037 30.6275 26.007 30.3156C25.7152 28.1976 25.9003 26.0412 26.5524 24.0049C26.6741 23.8881 26.8576 23.8247 27.0977 23.8164C32.4312 23.7564 35.1013 23.7263 35.1013 23.7263C35.1013 23.7263 37.768 23.7564 43.0998 23.8164C43.3417 23.8247 43.5234 23.8881 43.6452 24.0049C44.2973 26.0412 44.4841 28.1976 44.1905 30.3156C44.1605 30.6275 44.0288 30.7893 43.7986 30.806C40.1146 30.9611 37.2143 31.0311 35.0996 31.0161H35.103Z" fill="#353043"/>
<path fill-rule="evenodd" clip-rule="evenodd" d="M26.9758 38.5104C26.9674 38.0768 26.4054 37.1028 25.2897 35.5852C25.1746 36.906 25.2213 37.8083 25.4298 38.2936C25.5415 38.392 25.6149 38.457 25.6532 38.4871L26.9758 38.5121V38.5104Z" fill="#FEC900"/>
<path fill-rule="evenodd" clip-rule="evenodd" d="M29.0988 44.5981C29.424 45.4587 30.4397 45.8373 32.1475 45.7305C34.0604 45.7305 35.0494 45.7305 35.1027 45.7305C35.1578 45.7305 36.1401 45.7305 38.053 45.7305C39.7608 45.8356 40.7781 45.4587 41.1017 44.5981H29.0972H29.0988Z" fill="#404040"/>
<path fill-rule="evenodd" clip-rule="evenodd" d="M32.0159 44.6512H34.9411H35.0979H38.3483V45.8987H35.0979H34.9411H32.0159V44.6512Z" fill="#292827"/>
<path fill-rule="evenodd" clip-rule="evenodd" d="M27.6629 35.4936C27.6629 35.4936 27.6695 36.4059 27.6845 38.2304C27.6845 38.2304 27.5678 38.1153 27.3343 37.8868C27.3343 37.8868 27.2993 36.7061 27.2292 34.3462C27.2292 33.3872 26.4454 33.1371 25.7383 32.6884C26.3553 32.8769 26.9207 33.1054 27.431 33.3739C27.6212 33.6674 27.7129 34.0143 27.6895 34.3645L27.6612 35.4953L27.6629 35.4936Z" fill="#D3D5D5"/>
<path d="M24.1606 25.0343H22.7681V28.4916H24.1606V25.0343Z" fill="black"/>
<path d="M24.1606 28.7092H22.7681V29.8566H24.1606V28.7092Z" fill="black"/>
<path d="M25.7333 24.86C25.6482 24.7249 25.5131 24.6132 25.3263 24.5248C25.1329 24.4331 24.886 24.368 24.5859 24.3297C24.4191 24.323 24.254 24.3214 24.0905 24.3214C23.9354 24.323 23.777 24.3264 23.6169 24.3347C23.5652 24.3697 23.5402 24.4264 23.5435 24.5065L23.4118 30.1118C23.4334 30.1635 23.4785 30.2069 23.5468 30.2419C23.6336 30.2886 23.7536 30.3203 23.9087 30.3386L25.6982 30.3253L25.6999 30.5354L23.8921 30.5504H23.8887C23.7069 30.5287 23.5602 30.4887 23.4484 30.4303C23.325 30.3653 23.2433 30.2752 23.2066 30.1652L23.2 30.1485L23.3334 24.5148C23.3267 24.338 23.3934 24.2129 23.5368 24.1396L23.5569 24.1296L23.5802 24.1279C23.747 24.1196 23.9171 24.1145 24.0889 24.1129C24.259 24.1112 24.4291 24.1146 24.5975 24.1212L24.6059 24.1229C24.9311 24.1646 25.2013 24.2363 25.4147 24.338C25.6382 24.4431 25.8033 24.5815 25.91 24.7516L25.7316 24.8634L25.7333 24.86Z" fill="black"/>
<path fill-rule="evenodd" clip-rule="evenodd" d="M35.1028 42.5032C35.1028 42.5032 37.1842 42.4765 41.3452 42.4248C42.9813 42.4465 43.7118 42.0579 43.54 41.2607C40.5547 41.3992 37.7379 41.4659 35.0978 41.4625C32.4578 41.4659 29.6459 41.3992 26.6607 41.2607C26.4872 42.0579 27.2194 42.4465 28.8554 42.4248C33.0165 42.4765 35.1028 42.5032 35.1028 42.5032Z" fill="#353043"/>
<path fill-rule="evenodd" clip-rule="evenodd" d="M35.1027 35.9573C35.1027 35.9573 36.6554 35.929 39.7607 35.8739C40.0726 35.8639 40.2344 35.9806 40.2477 36.2208C40.2477 36.2208 40.6146 36.2058 41.3501 36.1758C41.7637 36.1925 41.9622 35.7839 41.9488 34.95C37.3842 35.025 35.1027 35.0617 35.1027 35.0617C35.1027 35.0617 32.8145 35.025 28.2499 34.95C28.2366 35.7839 28.435 36.1925 28.8486 36.1758C29.5841 36.2058 29.951 36.2208 29.951 36.2208C29.9643 35.9806 30.1261 35.8639 30.438 35.8739C33.5433 35.929 35.101 35.9573 35.101 35.9573H35.1027Z" fill="#E8E9E9"/>
<path fill-rule="evenodd" clip-rule="evenodd" d="M43.2266 38.5104C43.2349 38.0768 43.7969 37.1028 44.9127 35.5852C45.0277 36.906 44.981 37.8083 44.7726 38.2936C44.6608 38.392 44.5874 38.457 44.5491 38.4871L43.2266 38.5121V38.5104Z" fill="#FEC900"/>
<path fill-rule="evenodd" clip-rule="evenodd" d="M42.5394 35.4936C42.5394 35.4936 42.5327 36.4059 42.5177 38.2304C42.5177 38.2304 42.6344 38.1153 42.8679 37.8868C42.8679 37.8868 42.9029 36.7061 42.973 34.3462C42.973 33.3872 43.7568 33.1371 44.464 32.6884C43.8469 32.8769 43.2815 33.1054 42.7712 33.3739C42.5811 33.6674 42.491 34.0143 42.5127 34.3645L42.541 35.4953L42.5394 35.4936Z" fill="#D3D5D5"/>
<path d="M47.4341 25.0343H46.0415V28.4916H47.4341V25.0343Z" fill="black"/>
<path d="M47.4341 28.7092H46.0415V29.8566H47.4341V28.7092Z" fill="black"/>
<path d="M44.4687 24.86C44.5538 24.7249 44.6889 24.6132 44.8757 24.5248C45.0691 24.4331 45.316 24.368 45.6161 24.3297C45.7829 24.323 45.948 24.3214 46.1115 24.3214C46.2666 24.323 46.425 24.3264 46.5851 24.3347C46.6368 24.3697 46.6618 24.4264 46.6585 24.5065L46.7902 30.1118C46.7686 30.1635 46.7235 30.2069 46.6552 30.2419C46.5684 30.2886 46.4484 30.3203 46.2933 30.3386L44.5038 30.3253L44.5021 30.5354L46.3099 30.5504H46.3133C46.4951 30.5287 46.6418 30.4887 46.7535 30.4303C46.877 30.3653 46.9587 30.2752 46.9954 30.1652L47.0004 30.1485L46.867 24.5148C46.8736 24.338 46.8069 24.2129 46.6635 24.1396L46.6435 24.1296L46.6201 24.1279C46.4534 24.1196 46.2832 24.1145 46.1115 24.1129C45.9414 24.1112 45.7712 24.1146 45.6028 24.1212L45.5945 24.1229C45.2693 24.1646 44.9991 24.2363 44.7856 24.338C44.5621 24.4431 44.397 24.5815 44.2903 24.7516L44.4687 24.8634V24.86Z" fill="black"/>
<path fill-rule="evenodd" clip-rule="evenodd" d="M35.1027 38.1739C35.1027 38.1739 36.6554 38.1455 39.7607 38.0905C40.0726 38.0805 40.2344 38.1972 40.2477 38.4374C40.2477 38.4374 40.6146 38.4224 41.3501 38.3923C41.7637 38.409 41.9622 38.0004 41.9488 37.1665C37.3842 37.2416 35.1027 37.2783 35.1027 37.2783C35.1027 37.2783 32.8145 37.2416 28.2499 37.1665C28.2366 38.0004 28.435 38.409 28.8486 38.3923C29.5841 38.4224 29.951 38.4374 29.951 38.4374C29.9643 38.1972 30.1261 38.0805 30.438 38.0905C33.5433 38.1472 35.101 38.1739 35.101 38.1739H35.1027Z" fill="#E8E9E9"/>
<path fill-rule="evenodd" clip-rule="evenodd" d="M35.1027 40.2814C35.1027 40.2814 36.6554 40.2531 39.7607 40.198C40.0726 40.1897 40.2344 40.3048 40.2477 40.5449C40.2477 40.5449 40.6146 40.5299 41.3501 40.4999C41.7637 40.5166 41.9622 40.108 41.9488 39.2741C37.3842 39.3491 35.1027 39.3858 35.1027 39.3858C35.1027 39.3858 32.8145 39.3491 28.2499 39.2741C28.2366 40.108 28.435 40.5166 28.8486 40.4999C29.5841 40.5299 29.951 40.5449 29.951 40.5449C29.9643 40.3048 30.1261 40.188 30.438 40.198C33.5433 40.2547 35.101 40.2814 35.101 40.2814H35.1027Z" fill="#E8E9E9"/>
<path fill-rule="evenodd" clip-rule="evenodd" d="M35.1026 36.5007C34.709 36.4974 34.3104 36.484 33.9168 36.459C33.5416 36.1438 33.2981 35.7602 33.1897 35.3116C33.3748 34.7362 33.6834 34.2643 34.1136 33.894C34.1136 33.894 34.4472 33.8924 35.1026 33.8874C35.758 33.8924 36.0866 33.894 36.0866 33.894C36.5169 34.2626 36.8254 34.7362 37.0105 35.3116C36.9004 35.7602 36.6586 36.1438 36.2834 36.459C35.8898 36.484 35.4962 36.4991 35.1026 36.5007Z" fill="#353043"/>
<path fill-rule="evenodd" clip-rule="evenodd" d="M28 42.8563C26.2438 42.9947 24.7729 43.1632 25.0831 41.0868C25.4216 41.1268 25.7602 41.1769 26.0954 41.2319C28.6421 41.5938 28.4236 42.9013 27.9983 42.8546L28 42.8563Z" fill="#FEFEFE"/>
<path fill-rule="evenodd" clip-rule="evenodd" d="M42.2026 42.8563C43.9587 42.9947 45.4297 43.1632 45.1195 41.0868C44.7809 41.1268 44.4423 41.1769 44.1071 41.2319C41.5605 41.5938 41.7789 42.9013 42.2042 42.8546L42.2026 42.8563Z" fill="#FEFEFE"/>
<path fill-rule="evenodd" clip-rule="evenodd" d="M35.151 35.1997C35.3228 35.198 35.4963 35.1964 35.668 35.1947C35.7314 35.1947 35.7964 35.193 35.8598 35.193C35.9215 35.193 35.9816 35.193 36.0449 35.193C36.1317 35.1964 36.2317 35.188 36.3034 35.223C36.3418 35.2414 36.3551 35.2697 36.3635 35.3131C36.3635 35.3164 36.3635 35.3198 36.3652 35.3214C36.3635 35.3815 36.3251 35.4532 36.2984 35.5116C36.2584 35.5933 36.1917 35.6683 36.1217 35.735C36.0033 35.8501 35.7714 35.9835 35.5263 36.0503C35.4929 36.0586 35.4529 36.0736 35.4162 36.0819C35.3879 36.0886 35.3979 36.102 35.4162 36.1003C35.4562 36.097 35.4996 36.0869 35.5346 36.0786C35.8198 36.0069 36.0149 35.8935 36.15 35.7834C36.2317 35.7184 36.3151 35.625 36.3702 35.5266C36.4068 35.4599 36.4452 35.3531 36.4502 35.3148C36.4569 35.2631 36.4636 35.2364 36.4602 35.1547C36.4535 35.0162 36.4102 34.9062 36.3285 34.7811C36.3235 34.7728 36.3151 34.7644 36.3084 34.7561C36.3068 34.7527 36.3034 34.7444 36.3068 34.7377L36.3084 34.7361C36.3151 34.7327 36.3268 34.7427 36.3318 34.7494C36.3985 34.8228 36.4352 34.8828 36.4719 34.9595C36.5186 35.0596 36.5319 35.1313 36.5386 35.2197C36.5403 35.2364 36.5586 35.2447 36.5586 35.2164C36.5636 35.1213 36.5419 35.0229 36.5036 34.9345C36.4585 34.8328 36.4102 34.7761 36.3485 34.701C36.3485 34.701 36.3485 34.6994 36.3468 34.6994C36.2718 34.6227 36.1834 34.5509 36.0933 34.4926C35.9532 34.4042 35.8115 34.3458 35.658 34.3041C35.5947 34.2874 35.5296 34.2741 35.4646 34.2658C35.4446 34.2641 35.4212 34.2641 35.4012 34.2641C35.3862 34.2641 35.3712 34.2791 35.4012 34.2858C35.4412 34.2941 35.4812 34.3041 35.5213 34.3158C35.673 34.3591 35.8215 34.4175 35.9549 34.5026C36.0666 34.5726 36.12 34.6093 36.2534 34.7744C36.2684 34.7978 36.3051 34.8528 36.3251 34.8978C36.3385 34.9295 36.3568 34.9779 36.3585 35.0146V35.0162C36.3551 35.0529 36.3468 35.0763 36.3185 35.0946C36.2601 35.1297 36.2067 35.133 36.125 35.1363C36.0683 35.1397 36.0099 35.1397 35.9532 35.1413C35.8682 35.143 35.7848 35.1447 35.6997 35.1463C35.5179 35.1497 35.3328 35.1513 35.151 35.153C35.131 35.153 35.1127 35.153 35.0927 35.153C34.9059 35.1547 34.7191 35.1547 34.5323 35.1563C34.4456 35.1563 34.3638 35.1563 34.2788 35.1563C34.2221 35.1563 34.1637 35.1563 34.107 35.1547C34.0253 35.153 33.9719 35.1497 33.9136 35.1163C33.8852 35.0996 33.8769 35.0763 33.8719 35.0396V35.0379C33.8719 35.0012 33.8902 34.9512 33.9035 34.9212C33.9219 34.8762 33.9569 34.8194 33.9719 34.7961C34.1003 34.6293 34.1554 34.5926 34.2638 34.5193C34.3955 34.4325 34.544 34.3708 34.6941 34.3258C34.7341 34.3141 34.7741 34.3024 34.8141 34.2924C34.8442 34.2858 34.8292 34.2691 34.8141 34.2708C34.7941 34.2724 34.7724 34.2708 34.7524 34.2741C34.6857 34.2824 34.6207 34.2974 34.559 34.3158C34.4055 34.3608 34.2638 34.4209 34.127 34.5126C34.037 34.571 33.9502 34.646 33.8769 34.7227C33.8769 34.7227 33.8769 34.7244 33.8752 34.7244C33.8135 34.8011 33.7668 34.8578 33.7234 34.9612C33.6867 35.0496 33.6667 35.1497 33.6734 35.2447C33.6751 35.2731 33.6934 35.2631 33.6951 35.2481C33.7018 35.1597 33.7118 35.088 33.7585 34.9862C33.7935 34.9095 33.8285 34.8495 33.8935 34.7744C33.8985 34.7677 33.9102 34.7594 33.9169 34.7611L33.9186 34.7627C33.9219 34.7694 33.9186 34.7761 33.9169 34.7811C33.9119 34.7894 33.9035 34.7978 33.8985 34.8078C33.8202 34.9345 33.7785 35.0446 33.7735 35.183C33.7718 35.2647 33.7801 35.2914 33.7868 35.3415C33.7918 35.3798 33.8318 35.4866 33.8719 35.5516C33.9286 35.6483 34.0153 35.7384 34.097 35.8034C34.2338 35.9118 34.4322 36.0219 34.7191 36.0869C34.7541 36.0953 34.7975 36.1053 34.8375 36.107C34.8558 36.1086 34.8658 36.0936 34.8375 36.0886C34.8008 36.0803 34.7608 36.0669 34.7274 36.0586C34.4806 35.9969 34.2471 35.8668 34.1254 35.7534C34.0553 35.6867 33.9853 35.615 33.9452 35.5332C33.9169 35.4765 33.8785 35.4048 33.8752 35.3448C33.8752 35.3431 33.8752 35.3398 33.8752 35.3365C33.8819 35.2931 33.8952 35.2664 33.9336 35.2464C34.0036 35.2097 34.1053 35.2164 34.1921 35.2114C34.2538 35.2114 34.3138 35.2097 34.3772 35.208C34.4406 35.208 34.5056 35.208 34.569 35.2064C34.7458 35.2047 34.9225 35.203 35.0993 35.2014C35.1193 35.2014 35.1394 35.2014 35.1577 35.2014L35.151 35.1997ZM35.1494 35.1363C35.2711 35.1347 35.3945 35.1347 35.5146 35.1313C35.6013 35.1297 35.6897 35.128 35.7781 35.1246C35.8565 35.1213 35.9349 35.118 36.0133 35.113C36.0883 35.108 36.19 35.0946 36.2067 35.0813C36.2184 35.0729 36.2151 35.0613 36.2034 35.0529C36.1867 35.0396 36.1667 35.0296 36.1467 35.0212C36.1383 35.0179 36.1267 35.0196 36.12 35.0263C36.105 35.0379 36.0966 35.0413 36.0783 35.0479C36.0049 35.0679 35.9532 35.0763 35.8565 35.0846C35.7848 35.0913 35.7114 35.0963 35.6397 35.098C35.4762 35.1046 35.3762 35.1063 35.1494 35.1096C35.1293 35.1096 35.1093 35.1096 35.0877 35.1096C34.8542 35.1113 34.7541 35.1113 34.589 35.108C34.5173 35.1063 34.4439 35.103 34.3722 35.098C34.2755 35.0913 34.2221 35.0846 34.1504 35.0646C34.132 35.0596 34.1237 35.0563 34.1087 35.0446C34.102 35.0396 34.0887 35.0379 34.0803 35.0396C34.0603 35.0479 34.0403 35.0579 34.0236 35.0713C34.0136 35.0796 34.0086 35.0913 34.022 35.0996C34.0386 35.1113 34.1404 35.123 34.2154 35.1263C34.2955 35.1313 34.3722 35.133 34.4522 35.1347C34.539 35.1363 34.6274 35.1363 34.7157 35.1363C34.8392 35.1363 34.9642 35.1347 35.0893 35.1347C35.1093 35.1347 35.1293 35.1347 35.1494 35.1347V35.1363ZM35.146 35.0713C35.3962 35.0679 35.663 35.0696 35.9082 35.0429C36.0316 35.0296 36.0666 34.9629 36.0716 34.9195C36.0866 34.7778 35.8748 34.5926 35.7631 34.5343C35.613 34.4542 35.4762 34.3908 35.2978 34.3441C35.2744 34.3375 35.2594 34.3125 35.2594 34.2908C35.2594 34.2724 35.2878 34.2491 35.3061 34.2457C35.3612 34.2324 35.4212 34.2341 35.4796 34.2424C35.573 34.2557 35.6647 34.2724 35.7564 34.2991C35.8782 34.3341 36.0116 34.3958 36.1267 34.4676C36.2784 34.5609 36.4085 34.6777 36.5036 34.8261C36.5703 34.9312 36.622 35.0679 36.622 35.183C36.6237 35.3264 36.5686 35.4665 36.4902 35.59C36.4152 35.7084 36.3118 35.8034 36.1967 35.8885C36.0933 35.9652 35.9766 36.0236 35.8565 36.0719C35.7531 36.1136 35.643 36.1386 35.5329 36.157C35.4629 36.1687 35.3945 36.1737 35.3245 36.1637C35.3061 36.1603 35.2761 36.1403 35.2744 36.122C35.2728 36.102 35.2878 36.0769 35.3061 36.0703C35.3645 36.0519 35.4629 36.0202 35.5329 35.9902C35.623 35.9502 35.7147 35.9085 35.7965 35.8551C35.8782 35.8001 35.9566 35.7367 36.0099 35.66C36.0399 35.6183 36.07 35.5599 36.0733 35.5166C36.075 35.4899 36.075 35.4565 36.0616 35.4349C36.0083 35.3481 35.8582 35.3531 35.7464 35.3481C35.6447 35.3431 35.5446 35.3448 35.4429 35.3415C35.3395 35.3398 35.2194 35.3398 35.116 35.3398C35.0126 35.3415 34.8909 35.3431 34.7891 35.3481C34.6874 35.3515 34.5873 35.3531 34.4856 35.3598C34.3739 35.3665 34.2238 35.3631 34.1721 35.4515C34.1587 35.4749 34.1587 35.5066 34.1604 35.5349C34.1637 35.5783 34.1954 35.635 34.2254 35.6767C34.2805 35.7534 34.3605 35.8151 34.4422 35.8685C34.524 35.9218 34.6173 35.9619 34.7074 36.0002C34.7791 36.0302 34.8775 36.0603 34.9359 36.0769C34.9559 36.0819 34.9709 36.107 34.9692 36.127C34.9676 36.1453 34.9376 36.167 34.9192 36.1703C34.8492 36.182 34.7808 36.1787 34.7107 36.1687C34.6007 36.152 34.4906 36.1286 34.3855 36.0886C34.2655 36.0436 34.147 35.9869 34.042 35.9118C33.9269 35.8301 33.8218 35.735 33.7434 35.6183C33.6634 35.4966 33.6067 35.3565 33.605 35.213C33.6034 35.0963 33.6517 34.9595 33.7184 34.8528C33.8118 34.7027 33.9386 34.5826 34.0887 34.4876C34.2037 34.4142 34.3355 34.3508 34.4572 34.3125C34.549 34.2841 34.639 34.2658 34.7324 34.2507C34.7908 34.2424 34.8492 34.2374 34.9059 34.2507C34.9242 34.2557 34.9526 34.2774 34.9526 34.2958C34.9526 34.3175 34.9376 34.3425 34.9159 34.3491C34.7374 34.3992 34.604 34.4642 34.4539 34.5476C34.3438 34.6093 34.1337 34.7978 34.152 34.9395C34.157 34.9829 34.1937 35.0479 34.3172 35.0596C34.5656 35.083 34.8342 35.0763 35.0877 35.0746C35.1077 35.0746 35.126 35.0746 35.146 35.0746V35.0713Z" fill="#D3D5D5"/>
<path d="M13.5688 6.80138L13.6873 6.42947L13.7773 6.60292L13.5688 6.80138Z" fill="white"/>
<path d="M27.7012 8.15364C28.6035 9.89644 28.2916 11.9478 27.0658 13.3354C26.789 13.6606 26.4571 13.9508 26.0802 14.1792C25.9634 14.261 25.845 14.3293 25.7183 14.3944C25.4598 14.5278 25.2013 14.6345 24.9344 14.7112C23.712 15.0848 22.4178 14.9264 21.3388 14.326C20.5682 13.9041 19.9078 13.247 19.4759 12.4114C19.0439 11.5759 18.8888 10.6586 18.9872 9.7847C19.119 8.5589 19.7377 7.40982 20.7484 6.62765C20.9635 6.4542 21.2003 6.30243 21.4588 6.16901C21.5856 6.10397 21.709 6.04727 21.8441 5.99724C22.2493 5.82212 22.678 5.71872 23.1032 5.68036C24.9444 5.48023 26.799 6.40917 27.7012 8.15197V8.15364Z" fill="#999999"/>
<path d="M9.75816 23.8348L22.7733 17.0971L17.5532 7.01382L4.53809 13.7515L9.75816 23.8348Z" fill="white"/>
<path d="M4.53789 13.752L9.75796 23.8352L8.29534 24.5924C5.50686 26.0367 2.08129 24.9509 0.637018 22.1641C-0.0851198 20.7682 -0.171843 19.2155 0.268444 17.8296C0.708731 16.4454 1.6777 15.2313 3.07361 14.5091L4.53623 13.752H4.53789Z" fill="black"/>
<path d="M19.3908 1.2587L28.5334 18.9185L27.2442 19.1737L13.5587 21.8688L8.33691 11.7856L18.4368 2.16262L19.3908 1.2587Z" fill="white"/>
<path d="M20.5117 0.678594L29.6543 18.3384C29.9729 18.9538 29.7327 19.7143 29.1106 20.0362C28.4886 20.3581 27.7314 20.1163 27.4129 19.5009L18.2703 1.84102C17.9517 1.22395 18.1919 0.466789 18.8139 0.144913C19.436 -0.176964 20.1948 0.0648604 20.5134 0.680262L20.5117 0.678594Z" fill="#1A1A1A"/>
<path d="M13.5587 21.8696L17.4612 29.4079C18.0016 30.4519 17.5896 31.7461 16.5456 32.2864L16.5406 32.2898C15.4866 32.8284 14.2024 32.4198 13.6621 31.3758L9.75952 23.8376L13.5587 21.8713V21.8696Z" fill="#B3B3B3"/>
<path d="M27.0643 13.3355L25.083 9.50802L27.6997 8.15381C28.602 9.89661 28.2901 11.9479 27.0643 13.3355Z" fill="#999999"/>
<path d="M9.75798 23.8359L13.5588 21.8696L10.9471 16.8263L7.14795 18.7943L9.75798 23.8359Z" fill="#B3B3B3"/>
<path d="M9.75791 23.8354L8.29529 24.5926C5.5068 26.0369 2.08124 24.9512 0.636963 22.1644L7.1462 18.7938L9.75624 23.8354H9.75791Z" fill="black"/>
<path d="M27.2443 19.1736L13.5587 21.8687L10.947 16.8254L22.8414 10.6681L27.2443 19.1736Z" fill="#B3B3B3"/>
<path d="M29.1106 20.0358C28.4886 20.3577 27.7314 20.1159 27.4129 19.5005L22.8416 10.6697L25.0847 9.50897L29.656 18.3397C29.9745 18.9551 29.7344 19.7156 29.1123 20.0375L29.1106 20.0358Z" fill="#1A1A1A"/>
<path d="M16.5456 32.2862L16.5406 32.2895L11.6558 22.8551L13.557 21.8711L17.4595 29.4093C17.9999 30.4534 17.588 31.7475 16.5439 32.2879L16.5456 32.2862Z" fill="#999999"/>
</svg>
