<svg width="19" height="16" viewBox="0 0 19 16" fill="none" xmlns="http://www.w3.org/2000/svg">
<path d="M7.5 8.39544C9.706 8.39544 11.5 6.69012 11.5 4.59317C11.5 2.49621 9.706 0.790894 7.5 0.790894C5.294 0.790894 3.5 2.49621 3.5 4.59317C3.5 6.69012 5.294 8.39544 7.5 8.39544ZM9 9.34601H6C2.691 9.34601 0 11.904 0 15.0494V16H1H2H13H14H15V15.0494C15 11.904 12.309 9.34601 9 9.34601Z" fill="black"/>
<path d="M14.6036 7.49048C15.2076 6.51235 15.4756 5.37261 15.3546 4.22052C15.1756 2.52471 14.1796 1.02566 12.5516 0L11.4466 1.58365C12.5656 2.28897 13.2466 3.29372 13.3646 4.41064C13.4746 5.46102 13.0846 6.49619 12.2926 7.24904L11.1006 8.38211L12.7186 8.83363C16.9506 10.0123 16.9996 14.058 16.9996 14.0988H18.9996C18.9996 12.3983 18.0436 9.07508 14.6036 7.49048Z" fill="#C80000"/>
</svg>
