<svg width="30" height="32" viewBox="0 0 30 32" fill="none" xmlns="http://www.w3.org/2000/svg">
<path fill-rule="evenodd" clip-rule="evenodd" d="M2.54297 0.748047H14.7288H15.2709H27.4593V18.4396H15.2709H14.7288H2.54297V0.748047Z" fill="#FB0000"/>
<path fill-rule="evenodd" clip-rule="evenodd" d="M26.2874 11.0781C26.3416 10.1798 26.2254 8.42202 25.9415 5.80469C25.704 5.80469 25.5879 5.80469 25.5879 5.80469C25.8357 9.56292 25.9622 11.442 25.9622 11.442L26.29 11.0781H26.2874Z" fill="#404040"/>
<path fill-rule="evenodd" clip-rule="evenodd" d="M6.62849 31.8282V26.3638V25.9559C6.59236 25.9559 6.55622 25.9559 6.52008 25.9559C5.71217 25.9508 4.90425 25.9405 4.09376 25.9301C3.53622 25.5017 3.18259 24.7918 3.03288 23.8032H2.95287C2.90382 23.8832 2.84445 23.94 2.77734 23.9787V31.8308H6.62591L6.62849 31.8282ZM23.3702 25.9585V26.3664V31.8308H27.2187V23.9787C27.1516 23.9426 27.0922 23.8832 27.0432 23.8032H26.9632C26.8135 24.7918 26.4599 25.5017 25.9023 25.9301C25.0944 25.9405 24.2865 25.9508 23.476 25.9559C23.4399 25.9559 23.4037 25.9559 23.3676 25.9559L23.3702 25.9585Z" fill="#404040"/>
<path fill-rule="evenodd" clip-rule="evenodd" d="M15.0617 28.3439C17.2402 28.3414 19.4162 28.2872 21.5921 28.1762C22.4362 27.8716 23.0866 27.2005 23.3706 26.3667V25.9589C20.5803 25.9796 17.79 25.9718 14.9997 25.9331C12.2095 25.9718 9.41918 25.9796 6.62891 25.9589V26.3667C6.91284 27.2005 7.5633 27.8716 8.40735 28.1762C10.6246 28.2897 12.8419 28.3439 15.0617 28.3439Z" fill="#292827"/>
<path fill-rule="evenodd" clip-rule="evenodd" d="M9.2952 23.318C13.087 23.2767 16.9149 23.2767 20.7067 23.318C20.8564 23.3025 21.2152 23.9272 21.7805 25.1945C21.2462 24.588 20.8151 24.2911 20.4924 24.2989C16.8375 24.273 13.167 24.273 9.50944 24.2989C9.18679 24.2911 8.75573 24.588 8.22142 25.1945C8.78671 23.9297 9.14549 23.3051 9.2952 23.318ZM3.11839 21.6351C3.01772 21.888 2.96352 22.2855 2.96094 22.8327C2.96868 23.1347 2.98933 23.4187 3.02289 23.682C3.02805 23.7233 3.03321 23.7645 3.04096 23.8033C3.19066 24.7919 3.54429 25.5017 4.10183 25.9302C4.90974 25.9405 5.71766 25.9508 6.52816 25.956C6.56429 25.956 6.60043 25.956 6.63657 25.956C9.42684 25.9766 12.2171 25.9689 15.0074 25.9302C17.7977 25.9689 20.588 25.9766 23.3782 25.956C23.4144 25.956 23.4505 25.956 23.4866 25.956C24.2946 25.9508 25.1025 25.9405 25.913 25.9302C26.4705 25.5017 26.8241 24.7919 26.9738 23.8033C26.979 23.762 26.9867 23.7233 26.9919 23.682C27.0255 23.4187 27.0461 23.1347 27.0539 22.8327C27.0487 22.2855 26.9971 21.8854 26.8964 21.6351C26.8061 21.4105 26.6796 21.3047 26.5144 21.3124C25.2135 21.5499 23.9977 21.7357 22.862 21.8725C21.3494 22.0558 19.9814 22.1513 18.7605 22.1616C16.68 22.1616 15.4514 22.1616 15.0771 22.1616C15.0771 22.1616 13.8071 22.1616 11.2698 22.1616C10.0489 22.1539 8.68088 22.0558 7.16829 21.8725C6.03256 21.7357 4.81424 21.5473 3.5159 21.3124C3.3507 21.3047 3.22164 21.4105 3.13388 21.6351H3.11839ZM6.6314 24.2343C5.02332 24.1466 4.22056 24.1027 4.22056 24.1027C4.10957 24.0356 4.01149 23.9375 3.92631 23.8033C3.85403 23.6949 3.79208 23.5632 3.7353 23.4109C3.30424 22.3707 3.4875 21.9164 4.28509 22.0481C5.90609 22.2132 6.85339 22.3914 7.13216 22.5901C7.38511 22.7295 7.55805 22.9824 7.58903 23.2715C7.16055 23.9246 6.94631 24.2524 6.94631 24.2524C6.8379 24.2472 6.73465 24.2421 6.6314 24.2343ZM26.0807 23.8033C25.993 23.9349 25.8949 24.0356 25.7865 24.1027C25.7865 24.1027 24.9837 24.1466 23.3756 24.2343C23.275 24.2395 23.1691 24.2447 23.0607 24.2524C23.0607 24.2524 22.8465 23.9246 22.418 23.2715C22.4516 22.9824 22.6219 22.7295 22.8749 22.5901C23.1511 22.3939 24.101 22.2132 25.722 22.0481C26.5195 21.9164 26.7028 22.3707 26.2718 23.4109C26.2175 23.5632 26.153 23.6949 26.0807 23.8033Z" fill="#404040"/>
<path fill-rule="evenodd" clip-rule="evenodd" d="M6.62881 24.2343C6.72948 24.2395 6.83531 24.2447 6.94372 24.2524C6.94372 24.2524 7.15796 23.9246 7.58644 23.2715C7.55289 22.9825 7.38253 22.7295 7.12957 22.5901C6.85338 22.3939 5.9035 22.2133 4.2825 22.0481C3.48491 21.9164 3.30165 22.3707 3.73271 23.4109C3.7895 23.5632 3.85144 23.6949 3.92372 23.8033C4.01148 23.9349 4.10956 24.0356 4.21797 24.1027C4.21797 24.1027 5.02073 24.1466 6.62881 24.2343Z" fill="#FEFEFE"/>
<path fill-rule="evenodd" clip-rule="evenodd" d="M26.0783 23.8033C26.1505 23.6949 26.2125 23.5632 26.2693 23.4109C26.7003 22.3707 26.5171 21.9164 25.7195 22.0481C24.0985 22.2133 23.1512 22.3914 22.8724 22.5901C22.6194 22.7295 22.4465 22.9825 22.4155 23.2715C22.844 23.9246 23.0582 24.2524 23.0582 24.2524C23.1667 24.2472 23.2699 24.2421 23.3732 24.2343C24.9812 24.1466 25.784 24.1027 25.784 24.1027C25.895 24.0356 25.9931 23.9375 26.0783 23.8033Z" fill="#FEFEFE"/>
<path fill-rule="evenodd" clip-rule="evenodd" d="M21.7807 25.1922C21.2154 23.9274 20.8567 23.3027 20.7069 23.3156C16.9152 23.2743 13.0872 23.2743 9.29546 23.3156C9.14575 23.3002 8.78696 23.9248 8.22168 25.1922C8.75599 24.5856 9.18705 24.2888 9.5097 24.2965C13.1647 24.2707 16.8351 24.2707 20.4927 24.2965C20.8154 24.2888 21.2464 24.5856 21.7807 25.1922Z" fill="#6D6E6E"/>
<path fill-rule="evenodd" clip-rule="evenodd" d="M16.4216 19.588C16.7856 19.3195 17.0721 18.9582 17.2528 18.5426C20.0766 18.5116 21.4885 18.4961 21.4885 18.4961C21.4834 18.8265 21.4498 19.1724 21.3853 19.5312L16.4216 19.588ZM23.7471 18.4393C23.8658 17.9876 23.9975 17.4895 24.1394 16.9474C22.5494 17.1513 20.1541 17.2262 16.9534 17.172C15.939 16.0156 14.0598 16.0156 13.0454 17.172C9.84475 17.2262 7.44939 17.1513 5.85938 16.9474C6.00134 17.4895 6.13298 17.9876 6.25172 18.4393C6.85314 20.7263 7.15256 21.8698 7.15256 21.8698C8.66514 22.053 10.0332 22.1485 11.2541 22.1588C13.3345 22.1588 14.5632 22.1588 14.9375 22.1588C14.9375 22.1588 16.2074 22.1588 18.7447 22.1588C19.9656 22.1511 21.3337 22.053 22.8463 21.8698C22.8463 21.8698 23.1457 20.7263 23.7471 18.4393ZM8.95682 20.6334C11.2618 20.6463 13.2752 20.6463 14.9994 20.6334C16.7211 20.6463 18.737 20.6463 21.042 20.6334C21.1039 20.8476 21.073 21.1419 20.9491 21.5187C18.9306 21.5807 16.9482 21.6039 14.9994 21.5936C13.0532 21.6039 11.0708 21.5807 9.04974 21.5187C8.92584 21.1419 8.89487 20.8476 8.95682 20.6334ZM12.746 18.5426C12.9267 18.9582 13.2132 19.3195 13.5772 19.588L8.61352 19.5312C8.54899 19.1724 8.51543 18.8265 8.51027 18.4961C8.51027 18.4961 9.92218 18.5116 12.746 18.5426Z" fill="#6D6E6E"/>
<path fill-rule="evenodd" clip-rule="evenodd" d="M13.5776 19.5879C13.2137 19.3195 12.9272 18.9581 12.7465 18.5426C9.92266 18.5116 8.51074 18.4961 8.51074 18.4961C8.5159 18.8265 8.54946 19.1724 8.61399 19.5312L13.5776 19.5879Z" fill="#404040"/>
<path fill-rule="evenodd" clip-rule="evenodd" d="M17.253 18.5426C17.0723 18.9581 16.7858 19.3195 16.4219 19.5879L21.3855 19.5312C21.4501 19.1724 21.4836 18.8265 21.4888 18.4961C21.4888 18.4961 20.0769 18.5116 17.253 18.5426Z" fill="#404040"/>
<path fill-rule="evenodd" clip-rule="evenodd" d="M21.0419 20.6333C18.7369 20.6462 16.7236 20.6462 14.9993 20.6333C13.2777 20.6462 11.2618 20.6462 8.95676 20.6333C8.89481 20.8475 8.92578 21.1418 9.04968 21.5187C11.0682 21.5806 13.0505 21.6038 14.9993 21.5935C16.9456 21.6038 18.9279 21.5806 20.949 21.5187C21.0729 21.1418 21.1039 20.8475 21.0419 20.6333Z" fill="#404040"/>
<path fill-rule="evenodd" clip-rule="evenodd" d="M24.8212 19.5703C24.3437 20.133 24.1088 20.6105 24.1113 21.008C25.3555 21.0261 26.1118 20.8661 26.3802 20.5228C26.5351 19.9239 26.4241 19.418 26.0447 19.0024C25.229 19.3819 24.8212 19.5729 24.8212 19.5729V19.5703Z" fill="#FEC900"/>
<path fill-rule="evenodd" clip-rule="evenodd" d="M5.88823 21.0082C5.8934 20.6107 5.65592 20.1331 5.1784 19.5704C5.1784 19.5704 4.77057 19.3794 3.95491 19C3.57548 19.4156 3.46448 19.9215 3.61936 20.5203C3.8878 20.8636 4.64409 21.0237 5.88823 21.0056V21.0082Z" fill="#FEC900"/>
<path fill-rule="evenodd" clip-rule="evenodd" d="M6.25186 18.4395C6.13313 17.9878 6.00148 17.4897 5.85952 16.9476C7.44954 17.1515 9.84489 17.2264 13.0456 17.1722C14.06 16.0158 15.9391 16.0158 16.9535 17.1722C20.1542 17.2264 22.5496 17.1515 24.1396 16.9476C23.9976 17.4897 23.866 17.9878 23.7472 18.4395C23.1458 20.7265 22.8464 21.8699 22.8464 21.8699C23.9821 21.7331 25.2005 21.5447 26.4988 21.3098C26.664 21.3021 26.7905 21.4079 26.8808 21.6325C26.9944 20.2283 27.0718 19.4049 27.1131 19.1623C27.1312 19.1519 27.1467 19.1416 27.1647 19.1339C27.1931 18.837 27.0279 18.5583 26.7621 18.4395C26.7388 18.4292 26.7156 18.4189 26.6898 18.4111C26.7414 14.7846 26.7311 12.3918 26.6562 11.2354C26.5891 10.1797 26.5272 9.25046 26.4704 8.45029H26.1916C26.2871 9.65055 26.3155 10.5256 26.2846 11.078L25.9567 11.4419C25.9567 11.4419 25.8328 9.56278 25.5825 5.80456C25.5825 5.80456 25.7012 5.80456 25.9361 5.80456C26.0368 6.72088 26.1142 7.53138 26.171 8.23605H26.4498C26.3439 6.76476 26.2562 5.74777 26.1865 5.19023C25.9593 4.37973 25.5025 3.92028 24.8159 3.80929C18.4274 3.62086 11.5614 3.62086 5.17292 3.80929C4.48374 3.92028 4.02687 4.37973 3.8023 5.19023C3.73261 5.75035 3.64485 6.76476 3.53902 8.23605H3.81779C3.87458 7.53138 3.95459 6.72088 4.05268 5.80456C4.29015 5.80456 4.4063 5.80456 4.4063 5.80456C4.15851 9.56278 4.03203 11.4419 4.03203 11.4419L3.70422 11.078C3.67066 10.5256 3.70164 9.65055 3.79714 8.45029H3.51837C3.46158 9.25046 3.39963 10.1797 3.33252 11.2354C3.25767 12.3918 3.24734 14.7846 3.29897 18.4111C3.27316 18.4189 3.24993 18.4292 3.22669 18.4395C2.95825 18.5583 2.79305 18.837 2.82403 19.1339C2.83951 19.1416 2.85758 19.1519 2.87565 19.1623C2.91953 19.4049 2.99697 20.2257 3.10796 21.6325C3.1983 21.4079 3.32478 21.3021 3.48998 21.3098C4.7909 21.5473 6.00665 21.7331 7.14238 21.8699C7.14238 21.8699 6.84296 20.7265 6.24154 18.4395H6.25186ZM24.1112 21.0052C24.1086 20.6077 24.3435 20.1302 24.821 19.5675C24.821 19.5675 25.2288 19.3765 26.0445 18.9971C26.4239 19.4126 26.5349 19.9186 26.3801 20.5174C26.1116 20.8607 25.3553 21.0207 24.1112 21.0027V21.0052ZM5.17808 19.5675C5.6556 20.1302 5.89049 20.6077 5.88791 21.0052C4.64377 21.0233 3.88748 20.8633 3.61904 20.52C3.46416 19.9211 3.57516 19.4152 3.95459 18.9997C4.77025 19.3791 5.17808 19.5701 5.17808 19.5701V19.5675ZM25.3631 12.8306C25.3966 13.6437 16.6283 13.5946 14.9995 13.6488C13.3734 13.5946 4.60247 13.6411 4.63603 12.8306C4.63603 12.8306 4.77025 10.5152 5.03612 5.88716C4.99482 5.31671 5.22712 5.03794 5.73562 5.05601C11.4401 5.02245 14.5272 5.01987 14.997 5.04827C15.4667 5.01987 18.5539 5.02245 24.2583 5.05601C24.7668 5.03794 24.9991 5.31413 24.9578 5.88716C25.2263 10.5152 25.3579 12.8306 25.3579 12.8306H25.3631Z" fill="#ED595B"/>
<path fill-rule="evenodd" clip-rule="evenodd" d="M3.11588 21.6324C3.00231 20.2282 2.92487 19.4048 2.88357 19.1621C2.8655 19.1518 2.85002 19.1415 2.83195 19.1338C2.41379 18.9144 2.19697 19.1544 2.18407 19.8539C2.12986 22.4222 2.20472 23.8031 2.40863 23.9967C2.55318 24.0406 2.67966 24.0329 2.78291 23.9761C2.85002 23.9399 2.90938 23.8806 2.95843 23.8006C2.98166 23.7644 3.00231 23.7231 3.02037 23.6792C2.98682 23.416 2.96617 23.132 2.95843 22.83C2.96359 22.2828 3.01521 21.8827 3.11588 21.6324Z" fill="#292827"/>
<path fill-rule="evenodd" clip-rule="evenodd" d="M27.1185 19.1645C27.0747 19.4071 26.9972 20.2279 26.8862 21.6347C26.9869 21.8877 27.0411 22.2852 27.0437 22.8324C27.0359 23.1344 27.0153 23.4183 26.9817 23.6816C26.9998 23.7255 27.023 23.7668 27.0437 23.8029C27.0927 23.8829 27.1521 23.9397 27.2192 23.9784C27.3225 24.0352 27.4464 24.043 27.5935 23.9991C27.7974 23.8055 27.8722 22.4245 27.818 19.8563C27.8051 19.1568 27.5883 18.9193 27.1702 19.1361C27.1547 19.1438 27.1366 19.1542 27.1185 19.1645Z" fill="#292827"/>
<path d="M3.92339 8.23633H2.19141V8.45057H3.92339V8.23633Z" fill="#292827"/>
<path fill-rule="evenodd" clip-rule="evenodd" d="M1.53878 6.63572C2.23313 6.58151 2.59966 6.64604 2.64096 6.83189L2.73388 9.50085C2.64354 9.91642 2.42414 10.1023 2.07051 10.061C1.33487 10.0971 0.968339 9.92158 0.968339 9.53956C0.924458 7.89792 0.903809 7.07452 0.903809 7.07452C1.06384 6.74929 1.2755 6.60216 1.53878 6.63572Z" fill="#292827"/>
<path fill-rule="evenodd" clip-rule="evenodd" d="M28.4607 6.63572C27.7664 6.58151 27.3973 6.64604 27.3585 6.83189L27.2656 9.50085C27.356 9.91642 27.5754 10.1023 27.929 10.061C28.6646 10.0971 29.0312 9.92158 29.0312 9.53956C29.075 7.89792 29.0957 7.07452 29.0957 7.07452C28.9357 6.74929 28.724 6.60216 28.4607 6.63572Z" fill="#6D7F99"/>
<path d="M27.8101 8.23633H26.0781V8.45057H27.8101V8.23633Z" fill="#292827"/>
<path fill-rule="evenodd" clip-rule="evenodd" d="M28.4607 6.63572C27.7664 6.58151 27.3973 6.64604 27.3585 6.83189L27.2656 9.50085C27.356 9.91642 27.5754 10.1023 27.929 10.061C28.6646 10.0971 29.0312 9.92158 29.0312 9.53956C29.075 7.89792 29.0957 7.07452 29.0957 7.07452C28.9357 6.74929 28.724 6.60216 28.4607 6.63572Z" fill="#292827"/>
<path fill-rule="evenodd" clip-rule="evenodd" d="M4.04034 11.442C4.04034 11.442 4.16424 9.56292 4.41462 5.80469C4.41462 5.80469 4.29588 5.80469 4.06099 5.80469C3.96291 6.72101 3.88289 7.53151 3.8261 8.23618H3.92677V8.45042H3.80803C3.71253 9.65068 3.68414 10.5257 3.71511 11.0781L4.04292 11.442H4.04034Z" fill="#353043"/>
<path fill-rule="evenodd" clip-rule="evenodd" d="M2.54269 6.71035V3.88135H1.92578V6.61742C2.2252 6.61484 2.42912 6.64582 2.54269 6.71035Z" fill="#940A0A"/>
<path fill-rule="evenodd" clip-rule="evenodd" d="M2.54269 9.91406C2.42653 10.0354 2.27166 10.0844 2.07033 10.0612C2.02129 10.0638 1.97224 10.0638 1.92578 10.0664V18.4424H2.54269V9.91406Z" fill="#940A0A"/>
<path fill-rule="evenodd" clip-rule="evenodd" d="M1.92622 3.88147H2.54313V2.76123H1.71973V3.88147H1.92622Z" fill="#940A0A"/>
<path fill-rule="evenodd" clip-rule="evenodd" d="M27.459 2.76123V3.88147H28.0759H28.2798V2.76123H27.459Z" fill="#940A0A"/>
<path fill-rule="evenodd" clip-rule="evenodd" d="M27.9288 10.0612C27.73 10.0844 27.5726 10.0354 27.459 9.91406V18.4424H28.0759V10.0664C28.0294 10.0664 27.9804 10.0638 27.9313 10.0612H27.9288Z" fill="#940A0A"/>
<path fill-rule="evenodd" clip-rule="evenodd" d="M27.459 6.71035C27.5726 6.64582 27.7765 6.61484 28.0759 6.61742V3.88135H27.459V6.71035Z" fill="#940A0A"/>
<path fill-rule="evenodd" clip-rule="evenodd" d="M25.3636 12.8331C25.3636 12.8331 25.2294 10.5178 24.9635 5.88966C25.0048 5.31922 24.7725 5.04045 24.264 5.05851C18.5595 5.02496 15.4724 5.02238 15.0026 5.05077C14.5329 5.02238 11.4457 5.02496 5.74129 5.05851C5.23279 5.04045 5.00049 5.31663 5.04178 5.88966C4.77334 10.5178 4.6417 12.8331 4.6417 12.8331C4.60814 13.6462 13.3765 13.5971 15.0052 13.6513C16.6314 13.5971 25.4023 13.6436 25.3687 12.8331H25.3636Z" fill="#353043"/>
<path fill-rule="evenodd" clip-rule="evenodd" d="M15.1006 18.029C15.3097 18.0264 15.5213 18.0264 15.7304 18.0238C15.8078 18.0238 15.8879 18.0212 15.9653 18.0212C16.0401 18.0212 16.115 18.0212 16.1899 18.0212C16.2957 18.0264 16.417 18.0161 16.5048 18.0599C16.5512 18.0832 16.5693 18.1167 16.577 18.1684C16.577 18.1735 16.577 18.1761 16.577 18.1787C16.5745 18.2535 16.528 18.3413 16.497 18.411C16.448 18.5117 16.3654 18.602 16.2828 18.6846C16.1382 18.824 15.8543 18.9892 15.5575 19.0692C15.5162 19.0795 15.4671 19.0976 15.4232 19.1079C15.3897 19.1157 15.4026 19.1337 15.4232 19.1311C15.4697 19.1286 15.5239 19.1131 15.5678 19.1028C15.9137 19.015 16.1537 18.8756 16.3189 18.744C16.417 18.6639 16.5202 18.5504 16.5874 18.4316C16.6338 18.3516 16.6803 18.22 16.6854 18.1735C16.6932 18.1116 16.7009 18.078 16.6983 17.9799C16.6906 17.8121 16.6364 17.6779 16.5383 17.5256C16.5306 17.5153 16.5228 17.505 16.5151 17.4947C16.5125 17.4895 16.5073 17.4818 16.5125 17.474L16.5151 17.4714C16.5228 17.4688 16.5383 17.4792 16.5435 17.4869C16.6261 17.5773 16.67 17.6495 16.7138 17.7425C16.7706 17.8638 16.7861 17.9515 16.7964 18.0599C16.799 18.0806 16.8197 18.0909 16.8222 18.0574C16.8274 17.9412 16.8016 17.8199 16.7551 17.7141C16.7009 17.5902 16.6416 17.5205 16.5641 17.4301C16.5641 17.4301 16.5641 17.4301 16.5641 17.4276C16.4738 17.3346 16.3654 17.2469 16.2544 17.1772C16.084 17.0688 15.9111 16.9991 15.7227 16.9474C15.6452 16.9268 15.5652 16.9087 15.4852 16.901C15.4594 16.8984 15.4336 16.8984 15.4077 16.8984C15.3897 16.8984 15.3716 16.9165 15.4077 16.9242C15.4568 16.9345 15.5058 16.9474 15.5549 16.9604C15.7381 17.012 15.9214 17.0843 16.084 17.1875C16.2182 17.2727 16.2854 17.3166 16.448 17.5179C16.466 17.5463 16.5099 17.6134 16.5357 17.6676C16.5512 17.7063 16.5745 17.7657 16.577 17.8096V17.8121C16.5719 17.856 16.5641 17.887 16.528 17.9077C16.4557 17.9515 16.3912 17.9541 16.2931 17.9593C16.2234 17.9619 16.1537 17.9644 16.084 17.9644C15.9808 17.967 15.8801 17.9696 15.7743 17.9696C15.5523 17.9748 15.3277 17.9748 15.1057 17.9773C15.0825 17.9773 15.0593 17.9773 15.0335 17.9773C14.8063 17.9773 14.5766 17.9799 14.3495 17.9799C14.2436 17.9799 14.143 17.9799 14.0397 17.9799C13.97 17.9799 13.9003 17.9799 13.8306 17.9773C13.73 17.9748 13.6654 17.9722 13.5932 17.9309C13.557 17.9102 13.5467 17.8818 13.5415 17.838V17.8354C13.5415 17.7915 13.5648 17.7296 13.5803 17.6908C13.6035 17.6366 13.6474 17.5669 13.6629 17.5385C13.8203 17.3346 13.8848 17.2907 14.0191 17.2004C14.1791 17.0946 14.3598 17.0197 14.5456 16.9629C14.5947 16.9474 14.6411 16.9345 14.6928 16.9242C14.7289 16.9139 14.7108 16.8958 14.6928 16.8958C14.6695 16.8958 14.6411 16.8958 14.6153 16.8984C14.5353 16.9087 14.4553 16.9268 14.3804 16.95C14.1946 17.0042 14.0216 17.0791 13.8539 17.1901C13.7455 17.2624 13.637 17.3527 13.5493 17.4456C13.5493 17.4456 13.5493 17.4456 13.5493 17.4482C13.4744 17.5411 13.4176 17.6108 13.3634 17.7373C13.317 17.8457 13.2937 17.967 13.3015 18.0832C13.3041 18.1167 13.3247 18.1064 13.3273 18.0858C13.335 17.9773 13.348 17.8896 13.4047 17.7683C13.446 17.6753 13.4899 17.6005 13.5699 17.5101C13.5777 17.5024 13.5906 17.4921 13.5983 17.4947L13.6009 17.4972C13.6035 17.505 13.6009 17.5153 13.5983 17.5205C13.5932 17.5308 13.5828 17.5411 13.5751 17.5514C13.4796 17.7063 13.428 17.8405 13.4228 18.0083C13.4202 18.109 13.4305 18.14 13.4383 18.2019C13.446 18.2484 13.4951 18.38 13.5415 18.46C13.6112 18.5762 13.7171 18.6898 13.8177 18.7672C13.9855 18.8988 14.2281 19.0331 14.5766 19.1131C14.6205 19.1234 14.6721 19.1363 14.7211 19.1389C14.7444 19.1415 14.7547 19.1234 14.7211 19.1157C14.6773 19.1053 14.6282 19.0898 14.5869 19.0795C14.2875 19.0047 14.001 18.8472 13.8539 18.7078C13.7687 18.6278 13.6835 18.5375 13.6345 18.4394C13.6009 18.3697 13.5519 18.2845 13.5493 18.2097C13.5493 18.2071 13.5493 18.2045 13.5493 18.1993C13.557 18.1477 13.5725 18.1141 13.6216 18.0883C13.7067 18.0445 13.8306 18.0522 13.9365 18.0445C14.0113 18.0445 14.0862 18.0419 14.161 18.0419C14.2385 18.0419 14.3185 18.0419 14.3959 18.0393C14.6102 18.0367 14.827 18.0341 15.0412 18.0341C15.0644 18.0341 15.0903 18.0341 15.1135 18.0341L15.1006 18.029ZM15.098 17.9515C15.2477 17.949 15.3974 17.949 15.542 17.9464C15.6478 17.9438 15.7562 17.9412 15.862 17.9386C15.9575 17.936 16.053 17.9309 16.1486 17.9231C16.2389 17.9154 16.3628 17.8999 16.3834 17.8844C16.3989 17.8741 16.3938 17.8586 16.3809 17.8483C16.3602 17.8328 16.3344 17.8199 16.3112 17.8096C16.3008 17.807 16.2854 17.807 16.2776 17.8147C16.2595 17.8302 16.2492 17.8354 16.226 17.8405C16.1382 17.8638 16.0737 17.8741 15.955 17.8844C15.8672 17.8922 15.7794 17.8973 15.6917 17.9025C15.4929 17.9102 15.3716 17.9128 15.0928 17.9154C15.067 17.9154 15.0438 17.9154 15.018 17.9154C14.7341 17.918 14.6102 17.918 14.4088 17.9128C14.3211 17.9102 14.2333 17.9077 14.1455 17.8999C14.0268 17.8922 13.9623 17.8818 13.8745 17.8612C13.8513 17.856 13.841 17.8509 13.8229 17.8354C13.8151 17.8276 13.7997 17.8276 13.7893 17.8302C13.7661 17.8405 13.7403 17.8534 13.7196 17.8689C13.7067 17.8793 13.7016 17.8947 13.7171 17.9051C13.7377 17.9206 13.8616 17.9335 13.9545 17.9386C14.05 17.9438 14.1455 17.9464 14.241 17.949C14.3469 17.9515 14.4553 17.9515 14.5611 17.9515C14.7108 17.9515 14.8631 17.949 15.0154 17.949C15.0412 17.949 15.0644 17.949 15.0903 17.949L15.098 17.9515ZM15.0954 17.8715C15.4 17.8689 15.7252 17.8689 16.0247 17.8354C16.1769 17.8173 16.2182 17.7373 16.2234 17.6857C16.2415 17.5127 15.9834 17.2882 15.8466 17.2159C15.6633 17.1178 15.4981 17.0404 15.2787 16.9862C15.2503 16.9784 15.2322 16.9474 15.2322 16.9216C15.2322 16.8984 15.2658 16.8726 15.289 16.8674C15.3561 16.8494 15.4284 16.8545 15.5007 16.8648C15.6142 16.8803 15.7252 16.901 15.8388 16.9345C15.9885 16.9784 16.1486 17.0533 16.2905 17.1385C16.4738 17.252 16.6338 17.394 16.75 17.5747C16.8326 17.7012 16.8945 17.8689 16.8945 18.0109C16.8971 18.1864 16.83 18.3568 16.7345 18.5065C16.6416 18.651 16.5151 18.7672 16.3783 18.8704C16.2518 18.9634 16.1098 19.0356 15.9627 19.0924C15.8362 19.144 15.702 19.175 15.5678 19.1957C15.4826 19.2112 15.4 19.2163 15.3122 19.2034C15.289 19.2008 15.2529 19.175 15.2503 19.1518C15.2477 19.126 15.2658 19.0976 15.289 19.0898C15.3613 19.0666 15.48 19.0305 15.5652 18.9918C15.6736 18.9427 15.7872 18.8937 15.8853 18.8266C15.9834 18.7595 16.0814 18.682 16.146 18.5891C16.1821 18.5375 16.2182 18.4678 16.2234 18.4136C16.226 18.38 16.226 18.3413 16.2079 18.3129C16.1408 18.2071 15.9601 18.2122 15.8233 18.2071C15.6994 18.2019 15.5781 18.2019 15.4516 18.1993C15.3277 18.1967 15.1806 18.1967 15.0515 18.1967C14.9251 18.1993 14.7779 18.2019 14.6515 18.2071C14.5276 18.2122 14.4062 18.2148 14.2823 18.22C14.1455 18.2277 13.9649 18.2251 13.9003 18.3336C13.8848 18.3619 13.8848 18.4007 13.8874 18.4342C13.8926 18.4858 13.9313 18.5581 13.9674 18.6072C14.0346 18.7001 14.1326 18.7749 14.2333 18.8395C14.334 18.904 14.4475 18.953 14.5585 18.9995C14.6463 19.0356 14.765 19.0718 14.8373 19.0924C14.8605 19.1002 14.8812 19.1286 14.8786 19.1544C14.876 19.1776 14.8399 19.2034 14.8167 19.206C14.7315 19.2215 14.6489 19.2163 14.5611 19.2034C14.4269 19.1828 14.2927 19.1544 14.1662 19.1079C14.0191 19.0537 13.8745 18.984 13.748 18.8937C13.6061 18.793 13.4796 18.6794 13.3841 18.5375C13.286 18.3903 13.2163 18.22 13.2163 18.0445C13.2163 17.9025 13.2731 17.7347 13.3531 17.6057C13.4667 17.4224 13.6216 17.2778 13.8048 17.1591C13.9442 17.0688 14.1068 16.9913 14.254 16.9449C14.3649 16.9113 14.4759 16.8881 14.5895 16.87C14.6618 16.8597 14.7315 16.8545 14.8012 16.87C14.8244 16.8752 14.858 16.901 14.858 16.9242C14.858 16.95 14.8399 16.981 14.8115 16.9887C14.5947 17.0481 14.4295 17.1281 14.2488 17.2288C14.1146 17.3037 13.859 17.5334 13.8823 17.7063C13.89 17.7579 13.9339 17.838 14.0836 17.8534C14.3882 17.8818 14.7134 17.8741 15.0231 17.8715C15.0464 17.8715 15.0696 17.8715 15.0928 17.8715H15.0954Z" fill="#D3D5D5"/>
</svg>
