<svg width="48" height="48" viewBox="0 0 48 48" fill="none" xmlns="http://www.w3.org/2000/svg">
<path d="M24 48C37.2548 48 48 37.2548 48 24C48 10.7452 37.2548 0 24 0C10.7452 0 0 10.7452 0 24C0 37.2548 10.7452 48 24 48Z" fill="#940A0A"/>
<path fill-rule="evenodd" clip-rule="evenodd" d="M40 24C40 32.835 32.835 40 24 40C15.165 40 8 32.835 8 24C8 15.165 15.165 8 24 8C32.835 8 40 15.165 40 24Z" fill="white"/>
<path fill-rule="evenodd" clip-rule="evenodd" d="M31.4074 25.4186L21.0101 31.7307C19.8968 32.3951 18.4961 31.605 18.4961 30.312V17.688C18.4961 16.3861 19.8968 15.6049 21.0101 16.2694L31.4074 22.5814C32.4849 23.2368 32.4849 24.7722 31.4074 25.4186Z" fill="black"/>
</svg>
