<svg width="48" height="48" viewBox="0 0 48 48" fill="none" xmlns="http://www.w3.org/2000/svg">
<path d="M24 48C37.2548 48 48 37.2548 48 24C48 10.7452 37.2548 0 24 0C10.7452 0 0 10.7452 0 24C0 37.2548 10.7452 48 24 48Z" fill="#99B8D1"/>
<path d="M33.865 12.3692C32.3399 12.3692 31.1038 13.6053 31.1038 15.1304V41.5223C31.1038 43.0394 29.8677 44.2755 28.3506 44.2755H5.47437V15.1304C5.47437 13.6053 6.71049 12.3692 8.23557 12.3692H33.873H33.865Z" fill="white"/>
<path d="M28.166 44.2673V44.2753H5.28977C4.52723 44.2753 3.84495 43.9703 3.33927 43.4646C2.83358 42.9669 2.52856 42.2766 2.52856 41.5141V40.2218H25.5734V41.5141C25.5734 42.2766 25.8784 42.9669 26.3841 43.4646C26.8496 43.9301 27.4677 44.2271 28.158 44.2592L28.166 44.2673Z" fill="#B3B3B3"/>
<path d="M37.8303 23.1816C43.447 23.1816 48.0002 18.6284 48.0002 13.0117C48.0002 7.39502 43.447 2.8418 37.8303 2.8418C32.2136 2.8418 27.6604 7.39502 27.6604 13.0117C27.6604 18.6284 32.2136 23.1816 37.8303 23.1816Z" fill="black"/>
<path d="M9.84895 15.5237V18.0927H9.18262V15.5237H9.84895Z" fill="#292827"/>
<path d="M12.723 15.5237V18.0927H11.9844L11.1896 16.7039L10.9969 16.3265H10.9889L11.005 16.8002V18.0927H10.4109V15.5237H11.1575L11.9523 16.9126L12.145 17.2979H12.153L12.1369 16.8243V15.5237H12.723Z" fill="#292827"/>
<path d="M15.6365 15.5237L14.7293 18.0927H13.9426L13.0354 15.5237H13.7338L14.2075 17.0812L14.344 17.5869L14.4805 17.0892L14.9621 15.5237H15.6365Z" fill="#292827"/>
<path d="M17.0251 15.4915C17.282 15.4915 17.5067 15.5477 17.6994 15.6521C17.8841 15.7564 18.0286 15.909 18.1329 16.1016C18.2373 16.3023 18.2855 16.5351 18.2855 16.8161C18.2855 17.0971 18.2373 17.3299 18.1329 17.5306C18.0286 17.7313 17.8841 17.8758 17.6994 17.9802C17.5148 18.0846 17.29 18.1408 17.0251 18.1408C16.7682 18.1408 16.5434 18.0846 16.3507 17.9802C16.158 17.8758 16.0135 17.7233 15.9172 17.5306C15.8128 17.3299 15.7646 17.0971 15.7646 16.8161C15.7646 16.5351 15.8128 16.3023 15.9172 16.1016C16.0215 15.9009 16.1661 15.7564 16.3507 15.6521C16.5434 15.5477 16.7601 15.4915 17.0251 15.4915ZM17.0251 16.0133C16.9046 16.0133 16.7922 16.0454 16.712 16.1016C16.6237 16.1578 16.5594 16.2461 16.5193 16.3666C16.4711 16.487 16.4551 16.6315 16.4551 16.8081C16.4551 16.9847 16.4792 17.1292 16.5193 17.2497C16.5594 17.3701 16.6317 17.4584 16.712 17.5146C16.8003 17.5708 16.9046 17.6029 17.0251 17.6029C17.1455 17.6029 17.2499 17.5708 17.3382 17.5146C17.4184 17.4584 17.4827 17.362 17.5308 17.2497C17.571 17.1292 17.5951 16.9847 17.5951 16.8081C17.5951 16.6315 17.571 16.487 17.5308 16.3666C17.4907 16.2461 17.4265 16.1578 17.3382 16.1016C17.2579 16.0454 17.1535 16.0133 17.0251 16.0133Z" fill="#292827"/>
<path d="M19.4088 15.5237V18.0927H18.7424V15.5237H19.4088Z" fill="#292827"/>
<path d="M22.2506 17.354C22.2024 17.5306 22.1221 17.6831 22.0097 17.7955C21.8973 17.9079 21.7689 17.9962 21.6244 18.0444C21.4718 18.1006 21.3113 18.1247 21.1266 18.1247C20.8697 18.1247 20.6449 18.0685 20.4523 17.9641C20.2596 17.8597 20.1151 17.7072 20.0187 17.5145C19.9144 17.3138 19.8662 17.081 19.8662 16.8C19.8662 16.519 19.9144 16.2862 20.0187 16.0855C20.1231 15.8848 20.2676 15.7403 20.4523 15.6359C20.6449 15.5316 20.8617 15.4754 21.1186 15.4754C21.2952 15.4754 21.4638 15.4995 21.6083 15.5476C21.7608 15.5958 21.8893 15.6761 21.9856 15.7804C22.09 15.8848 22.1623 16.0213 22.2104 16.1819L21.6244 16.4227C21.5842 16.2621 21.528 16.1497 21.4478 16.0935C21.3675 16.0373 21.2631 16.0052 21.1427 16.0052C21.0223 16.0052 20.9179 16.0373 20.8296 16.0935C20.7413 16.1497 20.669 16.2381 20.6209 16.3585C20.5727 16.4789 20.5486 16.6234 20.5486 16.8C20.5486 16.9766 20.5727 17.1211 20.6128 17.2416C20.653 17.362 20.7252 17.4503 20.8135 17.5065C20.9018 17.5627 21.0142 17.5948 21.1427 17.5948C21.2631 17.5948 21.3755 17.5627 21.4558 17.4904C21.5441 17.4182 21.6003 17.3138 21.6324 17.1773L22.2425 17.3459L22.2506 17.354Z" fill="#292827"/>
<path d="M22.6196 18.0927V15.5237H24.6186V16.0455H23.294V16.5674H24.3457V17.0491H23.294V17.5789H24.6668V18.0927H22.6196Z" fill="#292827"/>
<path d="M35.4463 7.36892V12.7147H32.95L37.8302 18.6465L42.7025 12.7147H40.2061V7.36892H35.4463Z" fill="white"/>
<path d="M23.8878 23.9598H9.96135C9.65633 23.9598 9.41553 23.711 9.41553 23.4059V20.7732C9.41553 20.4681 9.66436 20.2273 9.96135 20.2273H23.8878C24.1928 20.2273 24.4416 20.4762 24.4416 20.7732V23.4059C24.4416 23.711 24.1928 23.9598 23.8878 23.9598Z" fill="#FF0000"/>
<path d="M9.41577 29.2574H18.799V28.1256H9.41577V29.2574Z" fill="black"/>
<path d="M11.6636 37.4533H12.7953V23.9603H11.6636V37.4533Z" fill="#B3B3B3"/>
<path d="M21.0544 33.7201H22.1862V23.9596H21.0544V33.7201Z" fill="#B3B3B3"/>
<path d="M9.41577 30.5579H15.0515V26.8248H9.41577V30.5579Z" fill="#B3B3B3"/>
<path d="M14.321 37.4529H10.1463C9.74492 37.4529 9.41577 37.1318 9.41577 36.7224V34.4504C9.41577 34.049 9.74492 33.7199 10.1463 33.7199H14.321C14.7224 33.7199 15.0515 34.049 15.0515 34.4504V36.7224C15.0515 37.1318 14.7224 37.4529 14.321 37.4529Z" fill="#B3B3B3"/>
<path d="M23.704 37.4529H19.5294C19.12 37.4529 18.7988 37.1318 18.7988 36.7224V34.4504C18.7988 34.049 19.12 33.7199 19.5294 33.7199H23.704C24.1054 33.7199 24.4346 34.049 24.4346 34.4504V36.7224C24.4346 37.1318 24.1054 37.4529 23.704 37.4529Z" fill="black"/>
<path d="M23.704 30.5579H19.5294C19.12 30.5579 18.7988 30.2287 18.7988 29.8273V27.5554C18.7988 27.154 19.12 26.8248 19.5294 26.8248H23.704C24.1054 26.8248 24.4346 27.154 24.4346 27.5554V29.8273C24.4346 30.2287 24.1054 30.5579 23.704 30.5579Z" fill="#B3B3B3"/>
<path d="M10.6199 21.5034H20.3965V21.0057H10.6199V21.5034Z" fill="#EDF3F3"/>
<path d="M10.6199 22.3867H20.3965V21.889H10.6199V22.3867Z" fill="#EDF3F3"/>
<path d="M10.2104 28.0616H14.2486V27.5638H10.2104V28.0616Z" fill="#243239"/>
<path d="M10.2104 28.9361H14.2486V28.4464H10.2104V28.9361Z" fill="#243239"/>
<path d="M10.2104 29.8194H14.2486V29.3216H10.2104V29.8194Z" fill="#243239"/>
<path d="M19.73 28.0616H23.7762V27.5638H19.73V28.0616Z" fill="#243239"/>
<path d="M19.73 28.9361H23.7762V28.4464H19.73V28.9361Z" fill="#243239"/>
<path d="M19.73 29.8194H23.7762V29.3216H19.73V29.8194Z" fill="#243239"/>
<path d="M10.2104 34.9566H14.2486V34.4589H10.2104V34.9566Z" fill="#243239"/>
<path d="M10.2104 35.8392H14.2486V35.3414H10.2104V35.8392Z" fill="#243239"/>
<path d="M10.2104 36.7145H14.2486V36.2247H10.2104V36.7145Z" fill="#243239"/>
<path d="M19.73 34.9566H23.7762V34.4589H19.73V34.9566Z" fill="#EDF3F3"/>
<path d="M19.73 35.8392H23.7762V35.3414H19.73V35.8392Z" fill="#EDF3F3"/>
<path d="M19.73 36.7145H23.7762V36.2247H19.73V36.7145Z" fill="#EDF3F3"/>
</svg>
