<svg width="49" height="48" viewBox="0 0 49 48" fill="none" xmlns="http://www.w3.org/2000/svg">
<path d="M24 48C37.2548 48 48 37.2548 48 24C48 10.7452 37.2548 0 24 0C10.7452 0 0 10.7452 0 24C0 37.2548 10.7452 48 24 48Z" fill="#99B8D1"/>
<path d="M33.8751 12.3747C32.3553 12.3747 31.1164 13.6064 31.1164 15.1406V41.5392C31.1164 43.059 29.8847 44.2907 28.3577 44.2907H5.47412V15.1406C5.47412 13.6136 6.71302 12.3747 8.23282 12.3747H33.8751Z" fill="white"/>
<path d="M28.1777 44.2833V44.2905H5.2941C4.5306 44.2905 3.84632 43.988 3.34212 43.4838C2.83792 42.9868 2.5354 42.2953 2.5354 41.5318V40.2425H25.5918V41.5318C25.5918 42.2953 25.8943 42.9796 26.3985 43.4838C26.8595 43.9519 27.4862 44.2473 28.1777 44.2833Z" fill="#B3B3B3"/>
<path d="M37.8367 23.1861C43.4537 23.1861 48.0072 18.6326 48.0072 13.0156C48.0072 7.39863 43.4537 2.84516 37.8367 2.84516C32.2197 2.84516 27.6663 7.39863 27.6663 13.0156C27.6663 18.6326 32.2197 23.1861 37.8367 23.1861Z" fill="black"/>
<path d="M9.85371 15.5297V18.0939H9.18384V15.5297H9.85371Z" fill="#292827"/>
<path d="M12.7277 15.5297V18.0939H11.9858L11.1934 16.711L10.999 16.3292H10.9918L11.0062 16.8046V18.0939H10.4155V15.5297H11.1574L11.9569 16.9199L12.1514 17.3016L12.137 16.8262V15.5297H12.7277Z" fill="#292827"/>
<path d="M15.6448 15.5297L14.7372 18.0939H13.9521L13.0374 15.5297H13.7432L14.2114 17.0855L14.3483 17.5897L14.4851 17.0927L14.9677 15.5297H15.6448Z" fill="#292827"/>
<path d="M17.035 15.4931C17.2943 15.4931 17.5176 15.5435 17.7049 15.6515C17.8922 15.7596 18.0362 15.9109 18.1371 16.1053C18.2379 16.2998 18.2883 16.5375 18.2883 16.8184C18.2883 17.0993 18.2379 17.3298 18.1371 17.5315C18.0362 17.726 17.8922 17.8772 17.7049 17.9853C17.5176 18.0933 17.2943 18.1437 17.035 18.1437C16.7757 18.1437 16.5524 18.0933 16.3652 17.9853C16.1779 17.8772 16.0338 17.726 15.933 17.5315C15.8322 17.337 15.7817 17.0993 15.7817 16.8184C15.7817 16.5447 15.8322 16.307 15.933 16.1053C16.0338 15.9109 16.1779 15.7596 16.3652 15.6515C16.5524 15.5435 16.7757 15.4931 17.035 15.4931ZM17.035 16.0189C16.9126 16.0189 16.8045 16.0477 16.7181 16.1053C16.6317 16.163 16.5669 16.2566 16.5236 16.3718C16.4804 16.4871 16.4588 16.6383 16.4588 16.8112C16.4588 16.9841 16.4804 17.1281 16.5236 17.2506C16.5669 17.373 16.6317 17.4595 16.7181 17.5171C16.8045 17.5747 16.9054 17.6035 17.035 17.6035C17.1575 17.6035 17.2655 17.5747 17.3448 17.5171C17.4312 17.4595 17.496 17.3658 17.5392 17.2506C17.5825 17.1281 17.6041 16.9841 17.6041 16.8112C17.6041 16.6383 17.5825 16.4871 17.5392 16.3718C17.496 16.2566 17.4312 16.163 17.3448 16.1053C17.2583 16.0477 17.1575 16.0189 17.035 16.0189Z" fill="#292827"/>
<path d="M19.4118 15.5297V18.0939H18.7419V15.5297H19.4118Z" fill="#292827"/>
<path d="M22.2571 17.3591C22.2067 17.5392 22.1274 17.6832 22.0194 17.7985C21.9113 17.9137 21.7817 18.0002 21.6304 18.0506C21.4792 18.101 21.3135 18.1298 21.1334 18.1298C20.8741 18.1298 20.6508 18.0794 20.4636 17.9714C20.2763 17.8633 20.1322 17.7121 20.0314 17.5176C19.9305 17.3231 19.8801 17.0854 19.8801 16.8045C19.8801 16.5308 19.9305 16.2931 20.0314 16.0914C20.1322 15.8969 20.2763 15.7457 20.4636 15.6376C20.6508 15.5296 20.8741 15.4792 21.1334 15.4792C21.3135 15.4792 21.4792 15.5008 21.6304 15.5584C21.7817 15.6088 21.9041 15.688 22.0122 15.7889C22.113 15.8897 22.1923 16.0266 22.2355 16.1922L21.652 16.4299C21.616 16.2715 21.5584 16.1562 21.472 16.0986C21.3927 16.041 21.2847 16.0122 21.1622 16.0122C21.0398 16.0122 20.9317 16.041 20.8453 16.0986C20.7589 16.1562 20.6868 16.2499 20.6364 16.3651C20.586 16.4804 20.5644 16.6316 20.5644 16.8045C20.5644 16.9774 20.586 17.1214 20.6292 17.2439C20.6724 17.3663 20.7373 17.4528 20.8309 17.5104C20.9173 17.568 21.0326 17.5968 21.1622 17.5968C21.2847 17.5968 21.3927 17.5608 21.4792 17.496C21.5656 17.4239 21.6232 17.3231 21.6592 17.179L22.2643 17.3519L22.2571 17.3591Z" fill="#292827"/>
<path d="M22.6243 18.0939V15.5297H24.6267V16.0483H23.2941V16.5669H24.353V17.0567H23.2941V17.5825H24.6771V18.0939H22.6243Z" fill="#292827"/>
<path d="M40.2138 17.7121V12.3675H42.7131L37.8368 6.43238L32.9604 12.3675H35.4598V17.7121H40.2138Z" fill="white"/>
<path d="M23.8919 23.971H9.96148C9.65896 23.971 9.41406 23.7261 9.41406 23.4164V20.7873C9.41406 20.4848 9.65896 20.2399 9.96148 20.2399H23.8919C24.1944 20.2399 24.4393 20.4848 24.4393 20.7873V23.4164C24.4393 23.7261 24.1944 23.971 23.8919 23.971Z" fill="#FF0000"/>
<path d="M9.41406 29.2654H18.8066V28.1346H9.41406V29.2654Z" fill="black"/>
<path d="M11.6614 37.4618H12.7994V23.9708H11.6614V37.4618Z" fill="#B3B3B3"/>
<path d="M21.0537 33.7308H22.1918V23.9708H21.0537V33.7308Z" fill="#B3B3B3"/>
<path d="M9.41406 30.5619H15.0539V26.838H9.41406V30.5619Z" fill="#B3B3B3"/>
<path d="M14.3192 37.4616H10.1416C9.73819 37.4616 9.41406 37.1375 9.41406 36.7341V34.4652C9.41406 34.0618 9.7454 33.7377 10.1416 33.7377H14.3192C14.7226 33.7377 15.0467 34.069 15.0467 34.4652V36.7341C15.0467 37.1375 14.7154 37.4616 14.3192 37.4616Z" fill="#B3B3B3"/>
<path d="M23.7118 37.4616H19.5341C19.1308 37.4616 18.8066 37.1375 18.8066 36.7341V34.4652C18.8066 34.0618 19.1308 33.7377 19.5341 33.7377H23.7118C24.1152 33.7377 24.4393 34.069 24.4393 34.4652V36.7341C24.4393 37.1375 24.108 37.4616 23.7118 37.4616Z" fill="black"/>
<path d="M23.7118 30.5619H19.5341C19.1308 30.5619 18.8066 30.2305 18.8066 29.8344V27.5655C18.8066 27.1621 19.1308 26.838 19.5341 26.838H23.7118C24.1152 26.838 24.4393 27.1693 24.4393 27.5655V29.8344C24.4393 30.2377 24.108 30.5619 23.7118 30.5619Z" fill="#B3B3B3"/>
<path d="M10.6243 21.5077H20.3986V21.0107H10.6243V21.5077Z" fill="#EDF3F3"/>
<path d="M10.6243 22.3868H20.3986V21.897H10.6243V22.3868Z" fill="#EDF3F3"/>
<path d="M10.2136 28.069H14.2544V27.572H10.2136V28.069Z" fill="#243239"/>
<path d="M10.2136 28.9408H14.2544V28.451H10.2136V28.9408Z" fill="#243239"/>
<path d="M10.2136 29.8271H14.2544V29.3301H10.2136V29.8271Z" fill="#243239"/>
<path d="M19.7285 28.069H23.7765V27.572H19.7285V28.069Z" fill="#243239"/>
<path d="M19.7285 28.9408H23.7765V28.451H19.7285V28.9408Z" fill="#243239"/>
<path d="M19.7285 29.8271H23.7765V29.3301H19.7285V29.8271Z" fill="#243239"/>
<path d="M10.2136 34.9622H14.2544V34.4724H10.2136V34.9622Z" fill="#243239"/>
<path d="M10.2136 35.8485H14.2544V35.3515H10.2136V35.8485Z" fill="#243239"/>
<path d="M10.2136 36.7269H14.2544V36.2371H10.2136V36.7269Z" fill="#243239"/>
<path d="M19.7285 34.9622H23.7765V34.4724H19.7285V34.9622Z" fill="#EDF3F3"/>
<path d="M19.7285 35.8485H23.7765V35.3515H19.7285V35.8485Z" fill="#EDF3F3"/>
<path d="M19.7285 36.7269H23.7765V36.2371H19.7285V36.7269Z" fill="#EDF3F3"/>
</svg>
