<svg width="49" height="53" viewBox="0 0 49 53" fill="none" xmlns="http://www.w3.org/2000/svg">
<path d="M24 53C37.2548 53 48 42.2548 48 29C48 15.7452 37.2548 5 24 5C10.7452 5 0 15.7452 0 29C0 42.2548 10.7452 53 24 53Z" fill="#E28057"/>
<path d="M24.2432 13.3338C28.3985 13.3338 29.0919 10.0852 29.0919 7.40874C29.0919 4.72743 27.3027 0 24.2432 0C21.1837 0 19.3946 4.72986 19.3946 7.40874C19.3946 10.0852 20.088 13.3338 24.2432 13.3338Z" fill="black"/>
<path d="M3.63648 21.2129C3.63648 19.7662 4.21117 18.3787 5.23413 17.3558C6.25709 16.3328 7.64452 15.7581 9.09121 15.7581H39.3953C40.8419 15.7581 42.2294 16.3328 43.2523 17.3558C44.2753 18.3787 44.85 19.7662 44.85 21.2129V23.3341L36.04 29.9429C35.5615 30.3015 34.9877 30.5107 34.3906 30.5439C33.7936 30.5771 33.2 30.4329 32.6847 30.1295L27.7391 27.2203C26.6745 26.5947 25.4571 26.2771 24.2226 26.3027C22.9881 26.3284 21.785 26.6965 20.7474 27.3658L16.4781 30.1198C15.9905 30.4342 15.4229 30.602 14.8428 30.6033C14.2626 30.6046 13.6943 30.4393 13.2053 30.1271L3.63648 24.0202V21.2129Z" fill="white"/>
<path d="M3.63649 28.3355V41.2135H1.81824C1.33601 41.2135 0.873538 41.4051 0.532551 41.7461C0.191564 42.0871 0 42.5496 0 43.0318C0 43.514 0.191564 43.9765 0.532551 44.3175C0.873538 44.6585 1.33601 44.85 1.81824 44.85H46.6682C47.1505 44.85 47.6129 44.6585 47.9539 44.3175C48.2949 43.9765 48.4865 43.514 48.4865 43.0318C48.4865 42.5496 48.2949 42.0871 47.9539 41.7461C47.6129 41.4051 47.1505 41.2135 46.6682 41.2135H44.85V27.8798L38.2219 32.8496C37.1699 33.6389 35.9079 34.0994 34.5948 34.1732C33.2817 34.247 31.9761 33.9307 30.8423 33.2642L25.8966 30.355C25.4128 30.0705 24.8594 29.926 24.2982 29.9375C23.737 29.9491 23.1901 30.1163 22.7183 30.4205L18.4515 33.1745C17.3789 33.8671 16.1299 34.2371 14.853 34.2406C13.5762 34.244 12.3252 33.8807 11.2489 33.1939L3.63649 28.3331V28.3355Z" fill="#B3B3B3"/>
</svg>
