<svg width="50" height="51" viewBox="0 0 50 51" fill="none" xmlns="http://www.w3.org/2000/svg">
<path d="M26 51C39.2548 51 50 40.2548 50 27C50 13.7452 39.2548 3 26 3C12.7452 3 2 13.7452 2 27C2 40.2548 12.7452 51 26 51Z" fill="#E28057"/>
<path fill-rule="evenodd" clip-rule="evenodd" d="M36.472 15.2928V21.0615C36.472 26.7363 31.8695 31.3544 26.1791 31.3544C20.4887 31.3544 15.8863 26.7441 15.8863 21.0615V15.058C16.0193 9.48502 20.567 5 26.1791 5C29.0204 5 31.6034 6.15844 33.4663 8.0135C35.3291 9.87638 36.472 12.4437 36.472 15.2928Z" fill="white"/>
<path fill-rule="evenodd" clip-rule="evenodd" d="M36.472 15.2929V15.559C27.2202 16.1617 21.3418 10.2443 21.3418 10.2443C19.0563 14.0874 17.5926 14.5493 15.8941 15.0659C16.0272 9.49285 20.5748 5.00784 26.187 5.00784C29.0283 5.00784 31.6112 6.16627 33.4741 8.02133C35.3291 9.87639 36.472 12.4437 36.472 15.2929Z" fill="black"/>
<path fill-rule="evenodd" clip-rule="evenodd" d="M26.1792 33.7965C34.6248 33.7965 41.9432 40.2383 45.5046 49.6388H9.21748C6.65014 49.6388 6.42317 50.2259 7.96514 47.0324C11.824 39.0642 18.5398 33.7965 26.1792 33.7965Z" fill="#B3B3B3"/>
<path fill-rule="evenodd" clip-rule="evenodd" d="M1.64561 0H18.3544C19.2638 0 20 0.730495 20 1.61702V17.383C20 18.2766 19.2566 19 18.3544 19H1.64561C0.736196 19 0 18.2695 0 17.383V1.61702C0 0.730495 0.736196 0 1.64561 0Z" fill="black"/>
<path d="M13.3143 8.27778H12.2857V6.81111C12.2857 5.04072 11.5229 4 10 4C8.47657 4 7.71429 5.04072 7.71429 6.81111V8.27778H6.57143C6.25543 8.27778 6 8.67256 6 9.0105V13.7778C6 14.1133 6.24457 14.4738 6.54343 14.5765L7.22743 14.813C7.59023 14.9261 7.9651 14.9889 8.34286 15H11.6571C12.0348 14.989 12.4095 14.926 12.772 14.8124L13.4554 14.5759C13.7549 14.4738 14 14.1133 14 13.7778V9.0105C14 8.67256 13.6297 8.27778 13.3143 8.27778ZM11.1429 8.27778H8.85714V6.56606C8.85714 5.683 9.31257 5.22222 10 5.22222C10.6874 5.22222 11.1429 5.683 11.1429 6.56606V8.27778Z" fill="white"/>
</svg>
