<svg width="50" height="51" viewBox="0 0 50 51" fill="none" xmlns="http://www.w3.org/2000/svg">
<path d="M26 51C39.2548 51 50 40.2548 50 27C50 13.7452 39.2548 3 26 3C12.7452 3 2 13.7452 2 27C2 40.2548 12.7452 51 26 51Z" fill="#E28057"/>
<path fill-rule="evenodd" clip-rule="evenodd" d="M36.472 15.2928V21.0615C36.472 26.7363 31.8695 31.3544 26.1791 31.3544C20.4887 31.3544 15.8863 26.7441 15.8863 21.0615V15.058C16.0193 9.48502 20.567 5 26.1791 5C29.0204 5 31.6034 6.15844 33.4663 8.0135C35.3291 9.87638 36.472 12.4437 36.472 15.2928Z" fill="white"/>
<path fill-rule="evenodd" clip-rule="evenodd" d="M36.472 15.2929V15.559C27.2202 16.1617 21.3418 10.2443 21.3418 10.2443C19.0563 14.0874 17.5926 14.5493 15.8941 15.0659C16.0272 9.49285 20.5748 5.00784 26.187 5.00784C29.0283 5.00784 31.6112 6.16627 33.4741 8.02133C35.3291 9.87639 36.472 12.4437 36.472 15.2929Z" fill="black"/>
<path fill-rule="evenodd" clip-rule="evenodd" d="M26.1792 33.7965C34.6248 33.7965 41.9432 40.2383 45.5046 49.6388H9.21748C6.65014 49.6388 6.42317 50.2259 7.96514 47.0324C11.824 39.0642 18.5398 33.7965 26.1792 33.7965Z" fill="#B3B3B3"/>
<path fill-rule="evenodd" clip-rule="evenodd" d="M1.64561 0H18.3544C19.2638 0 20 0.730495 20 1.61702V17.383C20 18.2766 19.2566 19 18.3544 19H1.64561C0.736196 19 0 18.2695 0 17.383V1.61702C0 0.730495 0.736196 0 1.64561 0Z" fill="black"/>
<path d="M4.12836 13.2302L8.4027 4.67704C8.5041 4.47365 8.66022 4.30255 8.85351 4.18295C9.04681 4.06336 9.26963 4 9.49696 4C9.72428 4 9.9471 4.06336 10.1404 4.18295C10.3337 4.30255 10.4898 4.47365 10.5912 4.67704L14.8704 13.2302C14.9638 13.4165 15.008 13.6237 14.9988 13.8319C14.9896 14.0401 14.9272 14.2425 14.8177 14.4199C14.7082 14.5972 14.5551 14.7436 14.373 14.8451C14.1909 14.9467 13.9859 15 13.7774 15H5.22384C5.01525 15.0002 4.81007 14.947 4.62782 14.8456C4.44558 14.7441 4.29233 14.5978 4.18265 14.4204C4.07298 14.243 4.01053 14.0405 4.00124 13.8322C3.99195 13.6239 4.03491 13.4166 4.12836 13.2302ZM9.49574 6.43827C9.3336 6.43827 9.17811 6.50266 9.06347 6.61726C8.94882 6.73187 8.88442 6.88731 8.88442 7.04939V10.7185C8.88442 10.8808 8.94889 11.0364 9.06365 11.1511C9.17841 11.2658 9.33405 11.3303 9.49635 11.3303C9.65864 11.3303 9.81429 11.2658 9.92905 11.1511C10.0438 11.0364 10.1083 10.8808 10.1083 10.7185V7.04939C10.1083 6.88731 10.0439 6.73187 9.92922 6.61726C9.81458 6.50266 9.65787 6.43827 9.49574 6.43827ZM10.1083 13.1654C10.1083 13.0034 10.0439 12.8479 9.92922 12.7333C9.81458 12.6187 9.65909 12.5543 9.49696 12.5543C9.33483 12.5543 9.17934 12.6187 9.06469 12.7333C8.95005 12.8479 8.88564 13.0034 8.88564 13.1654C8.88564 13.3275 8.95005 13.4829 9.06469 13.5976C9.17934 13.7122 9.33483 13.7765 9.49696 13.7765C9.65909 13.7765 9.81458 13.7122 9.92922 13.5976C10.0439 13.4829 10.1083 13.3275 10.1083 13.1654Z" fill="white"/>
</svg>
