<svg width="48" height="48" viewBox="0 0 48 48" fill="none" xmlns="http://www.w3.org/2000/svg">
<path d="M24 48C37.2548 48 48 37.2548 48 24C48 10.7452 37.2548 0 24 0C10.7452 0 0 10.7452 0 24C0 37.2548 10.7452 48 24 48Z" fill="#E28057"/>
<path d="M44.8226 7.0188H10.1245V35.7622H44.8226V7.0188Z" fill="black"/>
<path d="M41.7019 9.76587H7.00378V38.5093H41.7019V9.76587Z" fill="white"/>
<path d="M37.6265 13.5662H10.3812V14.4454H37.6265V13.5662Z" fill="black"/>
<path d="M37.6265 15.9131H10.3812V16.7923H37.6265V15.9131Z" fill="black"/>
<path d="M37.6265 17.9358H10.3812V18.815H37.6265V17.9358Z" fill="black"/>
<path d="M37.5698 20.649V41.0604C37.5698 41.7472 37.0151 42.3019 36.3321 42.3019H4.4151C3.73586 42.3019 3.17737 41.7472 3.17737 41.0604V16.1509C3.17737 15.4641 3.73586 14.9094 4.4151 14.9094H16.8491C17.5283 14.9094 18.0868 15.4641 18.0868 16.1509V18.483C18.0868 18.9962 18.4981 19.4113 19.0113 19.4113H36.3283C37.0151 19.4113 37.5661 19.966 37.5661 20.6528L37.5698 20.649Z" fill="#B3B3B3"/>
<path fill-rule="evenodd" clip-rule="evenodd" d="M18.0376 33.7888C19.3394 33.8039 20.0866 33.8228 20.2866 33.8416C20.3093 34.9398 20.3206 35.4907 20.3206 35.4907C18.8451 35.5662 18.147 35.6001 18.2225 35.6001C17.9659 34.6039 17.9055 34.0001 18.0376 33.7926V33.7888Z" fill="#E8E9E9"/>
<path fill-rule="evenodd" clip-rule="evenodd" d="M9.73199 33.7888C8.43011 33.8039 7.68294 33.8228 7.48294 33.8416C7.4603 34.9398 7.44897 35.4907 7.44897 35.4907C8.92445 35.5662 9.62256 35.6001 9.54709 35.6001C9.80369 34.6039 9.86407 34.0001 9.73199 33.7926V33.7888Z" fill="#E8E9E9"/>
<path fill-rule="evenodd" clip-rule="evenodd" d="M20.2904 34.2114C20.2565 31.8982 20.2376 30.7359 20.2376 30.7246C20.23 30.3284 20.23 30.1284 20.23 30.1284C20.23 30.034 20.2263 29.9888 20.2263 29.9888C20.2602 29.8491 20.2791 29.6982 20.2829 29.5359C20.3093 29.0944 20.2716 28.8454 20.1697 28.7925C20.0414 26.4642 19.8565 25.0265 19.615 24.4756C19.0716 24.2001 18.7206 24.0642 18.5697 24.0642C18.3546 23.9057 18.1734 23.8265 18.0263 23.8227C15.264 23.7586 13.8829 23.7246 13.8829 23.7246C13.8829 23.7246 12.498 23.7586 9.73571 23.8227C9.58854 23.8265 9.40741 23.9057 9.19231 24.0642C9.04137 24.0642 8.69043 24.2001 8.14703 24.4756C7.90552 25.0265 7.72061 26.4642 7.59231 28.7925C7.49043 28.8454 7.45269 29.0944 7.4791 29.5359C7.48665 29.6982 7.50552 29.8491 7.53571 29.9888C7.53571 29.9888 7.53571 30.034 7.53193 30.1284C7.53193 30.1284 7.52816 30.3284 7.52439 30.7246C7.52439 30.7359 7.50929 31.8982 7.47156 34.2114H20.2867H20.2904Z" fill="#E8E9E9"/>
<path d="M9.25643 37.6531H7.67529V39.9587H9.25643V37.6531Z" fill="#404040"/>
<path fill-rule="evenodd" clip-rule="evenodd" d="M7.51685 37.5244C7.52062 37.7886 7.52439 38.0527 7.52439 38.3169C8.7659 38.3244 9.38477 38.3282 9.38477 38.3282C9.38477 37.8603 9.38477 37.6263 9.38477 37.6263L7.51685 37.5244Z" fill="#292827"/>
<path d="M20.0904 37.6531H18.5093V39.9587H20.0904V37.6531Z" fill="#404040"/>
<path fill-rule="evenodd" clip-rule="evenodd" d="M20.2488 37.5244C20.245 37.7886 20.2412 38.0527 20.2412 38.3169C18.9997 38.3244 18.3809 38.3282 18.3809 38.3282C18.3809 37.8603 18.3809 37.6263 18.3809 37.6263L20.2488 37.5244Z" fill="#292827"/>
<path fill-rule="evenodd" clip-rule="evenodd" d="M7.47534 34.2115H20.2904C20.2904 34.0983 20.2867 33.9851 20.2867 33.8757C20.1584 33.8795 20.0338 33.8795 19.9169 33.8832C19.581 33.8908 19.298 33.8945 19.0716 33.8983C18.6112 33.9059 18.381 33.9096 18.381 33.9096C18.3923 32.4417 18.3999 31.7059 18.3999 31.7059C18.3961 31.4379 18.298 31.2983 18.1018 31.2908C17.0376 31.3172 15.9508 31.3323 14.8602 31.3398C14.9282 31.4455 14.9885 31.5549 15.0376 31.6757C15.7659 31.6644 16.8376 31.6455 18.2565 31.6228C18.264 32.1549 18.1395 32.4153 17.8753 32.404C17.4074 32.4228 17.1697 32.4342 17.1697 32.4342C17.1621 32.2795 17.0565 32.2078 16.8602 32.2115C16.0565 32.2266 15.4187 32.2379 14.9395 32.2455C14.8602 32.37 14.7621 32.4832 14.6414 32.5851C14.3923 32.6002 14.1395 32.6115 13.8867 32.6115C13.6338 32.6115 13.381 32.6002 13.1282 32.5851C13.0074 32.4832 12.9055 32.37 12.8301 32.2455C12.3508 32.2379 11.7131 32.2266 10.9093 32.2115C10.7093 32.204 10.6074 32.2795 10.5999 32.4342C10.5999 32.4342 10.3659 32.4228 9.89421 32.404C9.63006 32.4153 9.50176 32.1549 9.51308 31.6228C10.9319 31.6455 12.0036 31.6644 12.7319 31.6757C12.781 31.5549 12.8414 31.4455 12.9093 31.3398C11.8187 31.3323 10.7319 31.3172 9.6678 31.2908C9.47157 31.2983 9.37346 31.4379 9.36968 31.7059C9.36968 31.7059 9.37723 32.4417 9.38855 33.9096C9.38855 33.9096 9.15836 33.9059 8.69798 33.8983C8.47157 33.8945 8.19232 33.887 7.8527 33.8832C7.73572 33.8795 7.61119 33.8795 7.48289 33.8757C7.48289 33.9851 7.47912 34.0945 7.47912 34.2115H7.47534Z" fill="#6D6E6E"/>
<path fill-rule="evenodd" clip-rule="evenodd" d="M18.4263 34.8985C18.4263 34.8985 18.4263 34.74 18.4301 34.4268C19.1923 34.4003 19.8112 34.3287 20.2904 34.2117H7.47534C7.95459 34.3287 8.57345 34.4003 9.33195 34.4268C9.33572 34.74 9.33572 34.8985 9.33572 34.8985C9.41496 35.0343 9.44515 35.2117 9.42629 35.4343C10.1885 35.4645 10.9093 35.472 11.5885 35.457C13.098 35.5022 14.664 35.5022 16.1735 35.457C16.8489 35.472 17.5697 35.4645 18.3319 35.4343C18.3131 35.2117 18.3433 35.0343 18.4225 34.8985H18.4263Z" fill="#6D6E6E"/>
<path fill-rule="evenodd" clip-rule="evenodd" d="M17.8188 37.7811C19.0716 37.8491 19.8829 37.7623 20.249 37.5245C20.2867 37.3925 20.298 37.2642 20.2792 37.1396C20.6263 36.9849 20.4943 35.634 20.4943 35.3057C18.898 35.4302 17.4603 35.483 16.1773 35.4566C14.6678 35.5019 13.1018 35.5019 11.5924 35.4566C10.3094 35.483 8.87162 35.434 7.27539 35.3057C7.27539 35.634 7.14332 36.9849 7.49049 37.1396C7.47162 37.2642 7.48294 37.3925 7.52068 37.5245C7.88671 37.7623 8.69803 37.8491 9.95086 37.7811C12.4905 37.8793 15.2867 37.8793 17.8263 37.7811H17.8188Z" fill="#7C8785"/>
<path fill-rule="evenodd" clip-rule="evenodd" d="M13.8828 29.1135C12.5319 29.1248 10.6791 29.0796 8.32434 28.9814C8.17717 28.9701 8.09415 28.8682 8.07528 28.6682C7.89038 27.3173 8.00736 25.9399 8.42245 24.6381C8.5017 24.5626 8.61491 24.5211 8.76962 24.5173C12.1734 24.4796 13.8791 24.4607 13.8791 24.4607C13.8791 24.4607 15.5809 24.4796 18.9847 24.5173C19.1394 24.5211 19.2564 24.5626 19.3319 24.6381C19.747 25.9399 19.8677 27.3135 19.6791 28.6682C19.6602 28.8682 19.5772 28.9701 19.43 28.9814C17.0791 29.0796 15.2262 29.1248 13.8753 29.1135H13.8828Z" fill="#353043"/>
<path fill-rule="evenodd" clip-rule="evenodd" d="M8.69412 33.9019C8.69035 33.6264 8.33186 33.0037 7.61865 32.0339C7.54695 32.8754 7.57714 33.4528 7.70922 33.7622C7.78092 33.8264 7.8262 33.8679 7.85261 33.8868L8.6979 33.9019H8.69412Z" fill="#FEC900"/>
<path fill-rule="evenodd" clip-rule="evenodd" d="M10.0488 37.7852C10.2564 38.3361 10.9054 38.5776 11.996 38.5097C13.2186 38.5097 13.8488 38.5097 13.8828 38.5097C13.9168 38.5097 14.5469 38.5097 15.7658 38.5097C16.8564 38.5776 17.5054 38.3361 17.713 37.7852H10.0488Z" fill="#404040"/>
<path fill-rule="evenodd" clip-rule="evenodd" d="M11.913 37.8191H13.7809H13.879H15.9545V38.6191H13.879H13.7809H11.913V37.8191Z" fill="#292827"/>
<path fill-rule="evenodd" clip-rule="evenodd" d="M9.13193 31.9738C9.13193 31.9738 9.13571 32.555 9.14703 33.721C9.14703 33.721 9.07156 33.6493 8.92439 33.5021C8.92439 33.5021 8.90174 32.7474 8.85646 31.2418C8.85646 30.6305 8.35457 30.472 7.90552 30.1814C8.29797 30.3022 8.66023 30.4455 8.98476 30.6191C9.10552 30.8078 9.16589 31.0267 9.1508 31.2531L9.13193 31.9738Z" fill="#D3D5D5"/>
<path d="M6.89789 25.2981H6.00732V27.5056H6.89789V25.2981Z" fill="black"/>
<path d="M6.89789 27.6416H6.00732V28.3737H6.89789V27.6416Z" fill="black"/>
<path d="M7.90172 25.1849C7.84889 25.0981 7.76209 25.0264 7.64134 24.9698C7.51681 24.9132 7.35832 24.8679 7.16964 24.8453C7.06398 24.8415 6.95832 24.8378 6.85266 24.8415C6.75455 24.8415 6.65266 24.8453 6.55077 24.8491C6.51681 24.8717 6.50172 24.9095 6.50549 24.9585L6.42247 28.5359C6.43756 28.5698 6.46398 28.5962 6.50926 28.6189C6.56587 28.6491 6.64134 28.6679 6.73945 28.6793L7.88285 28.6717V28.8076L6.72813 28.8151H6.72436C6.60738 28.8 6.51304 28.7774 6.44511 28.7396C6.36587 28.6981 6.31304 28.6415 6.29039 28.5698L6.28662 28.5585L6.37341 24.9623C6.36964 24.8491 6.41115 24.7698 6.50549 24.7208L6.51681 24.7132H6.5319C6.63756 24.7057 6.747 24.7057 6.85643 24.7019C6.96587 24.7019 7.0753 24.7019 7.18096 24.7057H7.18851C7.39605 24.7321 7.56964 24.7774 7.70549 24.8415C7.84888 24.9095 7.95455 24.9962 8.02247 25.1057L7.90926 25.1774L7.90172 25.1849Z" fill="black"/>
<path fill-rule="evenodd" clip-rule="evenodd" d="M13.8828 36.4489C13.8828 36.4489 15.2111 36.4339 17.8678 36.3999C18.913 36.415 19.381 36.1659 19.2678 35.6565C17.3621 35.7433 15.5621 35.7886 13.8791 35.7848C12.1923 35.7886 10.3998 35.7433 8.49417 35.6565C8.38473 36.1659 8.84888 36.415 9.89417 36.3999C12.5508 36.4339 13.8828 36.4489 13.8828 36.4489V36.4489Z" fill="#353043"/>
<path fill-rule="evenodd" clip-rule="evenodd" d="M13.8829 32.2716C13.8829 32.2716 14.8754 32.2528 16.8565 32.2188C17.0565 32.2113 17.1584 32.2867 17.166 32.4414C17.166 32.4414 17.3999 32.4301 17.8716 32.4113C18.1358 32.4226 18.2641 32.1622 18.2528 31.6301C15.3395 31.6792 13.8829 31.7018 13.8829 31.7018C13.8829 31.7018 12.4226 31.6792 9.50936 31.6301C9.50181 32.1622 9.62634 32.4226 9.89049 32.4113C10.3584 32.4301 10.5961 32.4414 10.5961 32.4414C10.6037 32.2867 10.7094 32.215 10.9056 32.2188C12.8867 32.2528 13.8829 32.2716 13.8829 32.2716Z" fill="#E8E9E9"/>
<path fill-rule="evenodd" clip-rule="evenodd" d="M19.0715 33.9019C19.0753 33.6264 19.4338 33.0037 20.147 32.0339C20.2187 32.8754 20.1885 33.4528 20.0564 33.7622C19.9847 33.8264 19.9394 33.8679 19.913 33.8868L19.0677 33.9019H19.0715Z" fill="#FEC900"/>
<path fill-rule="evenodd" clip-rule="evenodd" d="M18.63 31.9738C18.63 31.9738 18.6262 32.555 18.6149 33.721C18.6149 33.721 18.6904 33.6493 18.8376 33.5021C18.8376 33.5021 18.8602 32.7474 18.9055 31.2418C18.9055 30.6305 19.4074 30.472 19.8564 30.1814C19.464 30.3022 19.1017 30.4455 18.7734 30.6191C18.6527 30.8078 18.5961 31.0267 18.6074 31.2531L18.6262 31.9738H18.63Z" fill="#D3D5D5"/>
<path d="M21.7582 25.2981H20.8677V27.5056H21.7582V25.2981Z" fill="black"/>
<path d="M21.7582 27.6416H20.8677V28.3737H21.7582V27.6416Z" fill="black"/>
<path d="M19.8639 25.1849C19.9167 25.0981 20.0035 25.0264 20.1243 24.9698C20.2488 24.9132 20.4073 24.8679 20.596 24.8453C20.7017 24.8415 20.8073 24.8378 20.913 24.8415C21.0111 24.8415 21.113 24.8453 21.2149 24.8491C21.2488 24.8717 21.2639 24.9095 21.2601 24.9585L21.3432 28.5359C21.3281 28.5698 21.3017 28.5962 21.2564 28.6189C21.1998 28.6491 21.1243 28.6679 21.0262 28.6793L19.8828 28.6717V28.8076L21.0375 28.8151H21.0413C21.1583 28.8 21.2526 28.7774 21.3205 28.7396C21.3998 28.6981 21.4526 28.6415 21.4752 28.5698L21.479 28.5585L21.3922 24.9623C21.396 24.8491 21.3545 24.7698 21.2601 24.7208L21.2488 24.7132H21.2337C21.1281 24.7057 21.0186 24.7057 20.9092 24.7019C20.7998 24.7019 20.6903 24.7019 20.5847 24.7057H20.5771C20.3696 24.7321 20.196 24.7774 20.0601 24.8415C19.9167 24.9095 19.8111 24.9962 19.7432 25.1057L19.8564 25.1774L19.8639 25.1849Z" fill="black"/>
<path fill-rule="evenodd" clip-rule="evenodd" d="M13.8829 33.6833C13.8829 33.6833 14.8754 33.6644 16.8565 33.6304C17.0565 33.6229 17.1584 33.6984 17.166 33.8531C17.166 33.8531 17.3999 33.8417 17.8716 33.8229C18.1358 33.8342 18.2641 33.5738 18.2528 33.0417C15.3395 33.0908 13.8829 33.1134 13.8829 33.1134C13.8829 33.1134 12.4226 33.0908 9.50936 33.0417C9.50181 33.5738 9.62634 33.8342 9.89049 33.8229C10.3584 33.8417 10.5961 33.8531 10.5961 33.8531C10.6037 33.6984 10.7094 33.6267 10.9056 33.6304C12.8867 33.6644 13.8829 33.6833 13.8829 33.6833Z" fill="#E8E9E9"/>
<path fill-rule="evenodd" clip-rule="evenodd" d="M13.8829 35.0302C13.8829 35.0302 14.8754 35.0113 16.8565 34.9774C17.0565 34.9698 17.1584 35.0453 17.166 35.2C17.166 35.2 17.3999 35.1887 17.8716 35.1698C18.1358 35.1811 18.2641 34.9207 18.2528 34.3887C15.3395 34.4377 13.8829 34.4604 13.8829 34.4604C13.8829 34.4604 12.4226 34.4377 9.50936 34.3887C9.50181 34.9207 9.62634 35.1811 9.89049 35.1698C10.3584 35.1887 10.5961 35.2 10.5961 35.2C10.6037 35.0453 10.7094 34.9736 10.9056 34.9774C12.8867 35.0113 13.8829 35.0302 13.8829 35.0302Z" fill="#E8E9E9"/>
<path fill-rule="evenodd" clip-rule="evenodd" d="M13.8828 32.6191C13.63 32.6191 13.3771 32.6078 13.1243 32.5927C12.8828 32.3927 12.7281 32.1474 12.6602 31.8606C12.7771 31.4946 12.9734 31.1927 13.2488 30.9549C13.2488 30.9549 13.4602 30.9549 13.879 30.9512C14.2979 30.9549 14.5092 30.9549 14.5092 30.9549C14.7847 31.1889 14.9809 31.4908 15.0979 31.8606C15.0262 32.1474 14.8715 32.3927 14.6337 32.5927C14.3847 32.6078 14.1319 32.6191 13.879 32.6191H13.8828Z" fill="#353043"/>
<path fill-rule="evenodd" clip-rule="evenodd" d="M9.35077 36.6754C8.23001 36.7622 7.29039 36.8716 7.49039 35.5471C7.70548 35.5735 7.92058 35.6037 8.13567 35.6415C9.76209 35.8716 9.62247 36.7056 9.35077 36.6792V36.6754Z" fill="#FEFEFE"/>
<path fill-rule="evenodd" clip-rule="evenodd" d="M18.415 36.6754C19.5357 36.7622 20.4753 36.8716 20.2753 35.5471C20.0602 35.5735 19.8452 35.6037 19.6301 35.6415C18.0036 35.8716 18.1433 36.7056 18.415 36.6792V36.6754Z" fill="#FEFEFE"/>
<path fill-rule="evenodd" clip-rule="evenodd" d="M13.9131 31.785C14.0225 31.785 14.1319 31.785 14.2414 31.7812C14.2829 31.7812 14.3244 31.7812 14.3659 31.7812C14.4036 31.7812 14.4451 31.7812 14.4829 31.7812C14.5395 31.785 14.6036 31.7774 14.6489 31.8C14.6753 31.8114 14.6829 31.8302 14.6866 31.8566C14.6866 31.8604 14.6866 31.8604 14.6866 31.8604C14.6866 31.8982 14.6602 31.9434 14.6451 31.9812C14.6187 32.034 14.5772 32.0793 14.5319 32.1246C14.4565 32.1963 14.3093 32.2831 14.1508 32.3246C14.1282 32.3321 14.1055 32.3397 14.0791 32.3434C14.0602 32.3472 14.0678 32.3548 14.0791 32.3548C14.1055 32.351 14.1319 32.3472 14.1546 32.3397C14.3357 32.2944 14.4602 32.2227 14.547 32.151C14.5999 32.1095 14.6527 32.0491 14.6866 31.9887C14.7093 31.9472 14.7357 31.8793 14.7395 31.8529C14.7432 31.8189 14.747 31.8038 14.747 31.751C14.7432 31.6642 14.7131 31.5925 14.664 31.5133C14.6602 31.5057 14.6565 31.5019 14.6527 31.4982C14.6527 31.4944 14.6489 31.4906 14.6527 31.4868C14.6565 31.4868 14.664 31.4906 14.6678 31.4944C14.7093 31.5397 14.7357 31.5812 14.7583 31.6265C14.7885 31.6906 14.7961 31.7359 14.7999 31.7925C14.7999 31.8038 14.8112 31.8076 14.8149 31.7887C14.8187 31.7283 14.8036 31.6642 14.781 31.6076C14.7508 31.5434 14.7206 31.5057 14.6829 31.4566C14.6338 31.4076 14.5772 31.3623 14.5206 31.3246C14.43 31.268 14.3395 31.2302 14.2414 31.2038C14.1999 31.1925 14.1583 31.1849 14.1168 31.1812C14.1055 31.1812 14.0904 31.1812 14.0753 31.1812C14.064 31.1812 14.0565 31.1925 14.0753 31.1963C14.1017 31.2038 14.1282 31.2076 14.1508 31.2151C14.2489 31.2416 14.3432 31.2793 14.4263 31.3359C14.498 31.3812 14.5319 31.4038 14.6149 31.5095C14.6263 31.5246 14.6489 31.5585 14.6602 31.5887C14.6678 31.6076 14.6829 31.6416 14.6829 31.6642C14.6791 31.6868 14.6753 31.7019 14.6565 31.7133C14.6187 31.7359 14.5848 31.7359 14.5319 31.7397C14.4942 31.7397 14.4602 31.7434 14.4225 31.7434C14.3697 31.7434 14.3168 31.7472 14.2602 31.7472C14.1432 31.751 14.0263 31.751 13.9093 31.751C13.898 31.751 13.8829 31.751 13.8715 31.751C13.7508 31.751 13.6338 31.751 13.5131 31.751C13.4565 31.751 13.4036 31.751 13.3508 31.751C13.3131 31.751 13.2791 31.751 13.2414 31.751C13.1885 31.751 13.1546 31.7472 13.1168 31.7283C13.098 31.717 13.0942 31.7019 13.0904 31.6793C13.0904 31.6566 13.1017 31.6227 13.1093 31.6038C13.1206 31.5736 13.1432 31.5397 13.1546 31.5246C13.2376 31.4189 13.2715 31.3963 13.3432 31.3472C13.4263 31.2906 13.5206 31.2529 13.6187 31.2227C13.6451 31.2151 13.6678 31.2076 13.6942 31.2C13.7131 31.1963 13.7017 31.1849 13.6942 31.1849C13.6829 31.1849 13.6678 31.185 13.6527 31.1887C13.6112 31.1925 13.5697 31.2038 13.5282 31.2151C13.43 31.2453 13.3395 31.2831 13.2527 31.3397C13.1961 31.3774 13.1395 31.4265 13.0942 31.4755C13.0565 31.5246 13.0263 31.5623 12.9961 31.6265C12.9734 31.6831 12.9583 31.7472 12.9621 31.8076C12.9621 31.8265 12.9734 31.8189 12.9772 31.8076C12.981 31.751 12.9885 31.7057 13.0187 31.6416C13.0414 31.5925 13.064 31.5548 13.1055 31.5057C13.1093 31.5019 13.1168 31.4944 13.1206 31.4982C13.1244 31.5019 13.1206 31.5057 13.1206 31.5095C13.1168 31.517 13.1131 31.5208 13.1093 31.5246C13.0602 31.6038 13.0338 31.6755 13.03 31.7661C13.03 31.8189 13.0338 31.834 13.0376 31.868C13.0414 31.8944 13.0678 31.9623 13.0904 32.0038C13.1282 32.0642 13.181 32.1246 13.2338 32.1661C13.3206 32.234 13.4489 32.3057 13.63 32.3472C13.6527 32.351 13.6791 32.3585 13.7055 32.3585C13.7168 32.3585 13.7244 32.351 13.7055 32.3472C13.6829 32.3434 13.6565 32.3321 13.6338 32.3283C13.4753 32.2906 13.3282 32.2076 13.2489 32.1359C13.2036 32.0944 13.1583 32.0491 13.1319 31.9963C13.1131 31.9585 13.0904 31.9133 13.0866 31.8755V31.8717C13.0904 31.8453 13.098 31.8265 13.1244 31.8151C13.1697 31.7925 13.2338 31.7963 13.2904 31.7925C13.3282 31.7925 13.3697 31.7925 13.4074 31.7925C13.4489 31.7925 13.4904 31.7925 13.5319 31.7925C13.6451 31.7925 13.7583 31.7887 13.8715 31.7887C13.8829 31.7887 13.898 31.7887 13.9093 31.7887L13.9131 31.785ZM13.9131 31.7434C13.9923 31.7434 14.0678 31.7434 14.147 31.7397C14.2036 31.7397 14.2602 31.7359 14.3131 31.7359C14.3621 31.7359 14.4149 31.7321 14.464 31.7283C14.5131 31.7246 14.5772 31.717 14.5885 31.7095C14.5961 31.7057 14.5923 31.6944 14.5885 31.6906C14.5772 31.6831 14.5659 31.6755 14.5508 31.6717C14.547 31.668 14.5395 31.6717 14.5319 31.6755C14.5244 31.6831 14.5168 31.6868 14.5055 31.6906C14.4602 31.7019 14.4263 31.7095 14.3621 31.7133C14.3168 31.717 14.2678 31.7208 14.2225 31.7208C14.1168 31.7246 14.0565 31.7246 13.9093 31.7283C13.898 31.7283 13.8829 31.7283 13.8715 31.7283C13.7244 31.7283 13.6602 31.7283 13.5546 31.7283C13.5093 31.7283 13.464 31.7246 13.4149 31.7208C13.3546 31.717 13.3206 31.7133 13.2715 31.6982C13.2602 31.6944 13.2527 31.6944 13.2451 31.6868C13.2414 31.6831 13.2338 31.6831 13.2263 31.6831C13.2149 31.6868 13.1999 31.6944 13.1923 31.7019C13.1848 31.7057 13.181 31.7133 13.1923 31.7208C13.2036 31.7283 13.2678 31.7359 13.3168 31.7397C13.3659 31.7434 13.4187 31.7434 13.4678 31.7434C13.5244 31.7434 13.581 31.7434 13.6338 31.7434C13.7131 31.7434 13.7923 31.7434 13.8715 31.7434C13.8829 31.7434 13.898 31.7434 13.9093 31.7434H13.9131ZM13.9131 31.7019C14.0715 31.7019 14.2414 31.7019 14.3999 31.6831C14.4791 31.6755 14.5017 31.6302 14.5055 31.6038C14.5168 31.5133 14.381 31.3963 14.3093 31.3585C14.2149 31.3057 14.1282 31.268 14.0112 31.2378C13.9961 31.234 13.9885 31.2189 13.9885 31.2038C13.9885 31.1925 14.0074 31.1774 14.0187 31.1736C14.0527 31.1661 14.0904 31.1661 14.1282 31.1736C14.1885 31.1812 14.2451 31.1925 14.3055 31.2114C14.3848 31.234 14.4678 31.2717 14.5432 31.317C14.6414 31.3774 14.7244 31.4529 14.7848 31.5472C14.8263 31.6151 14.8602 31.7019 14.8602 31.7736C14.8602 31.8642 14.8263 31.9548 14.7772 32.034C14.7282 32.1095 14.664 32.1699 14.5885 32.2227C14.5244 32.2717 14.4489 32.3095 14.3697 32.3397C14.3017 32.3661 14.2338 32.3812 14.1621 32.3925C14.1168 32.4 14.0753 32.4038 14.03 32.3963C14.0187 32.3963 13.9999 32.3812 13.9961 32.3699C13.9961 32.3585 14.0036 32.3397 14.0187 32.3359C14.0565 32.3246 14.1168 32.3057 14.1621 32.2831C14.2187 32.2566 14.2791 32.2302 14.3319 32.1963C14.3848 32.1623 14.4338 32.1208 14.4678 32.0717C14.4866 32.0453 14.5055 32.0076 14.5093 31.9812C14.5093 31.9623 14.5093 31.9434 14.5017 31.9283C14.4678 31.8717 14.3734 31.8755 14.3017 31.8717C14.2376 31.868 14.1734 31.868 14.1093 31.868C14.0451 31.868 13.9659 31.868 13.9017 31.868C13.8338 31.868 13.7583 31.8717 13.6942 31.8717C13.63 31.8755 13.5659 31.8755 13.5017 31.8793C13.43 31.8831 13.3357 31.8831 13.3017 31.9397C13.2942 31.9548 13.2942 31.9736 13.2942 31.9925C13.298 32.0189 13.3168 32.0566 13.3357 32.0831C13.3697 32.1321 13.4225 32.1699 13.4753 32.2038C13.5282 32.2378 13.5885 32.2642 13.6451 32.2868C13.6904 32.3057 13.7546 32.3246 13.7923 32.3359C13.8036 32.3397 13.8149 32.3548 13.8149 32.3699C13.8149 32.3812 13.7961 32.3963 13.7848 32.3963C13.7395 32.4038 13.698 32.4 13.6527 32.3963C13.581 32.3849 13.5131 32.3699 13.4451 32.3472C13.3697 32.317 13.2942 32.2831 13.2263 32.234C13.1508 32.1812 13.0866 32.1208 13.0338 32.0453C12.981 31.9661 12.947 31.8793 12.947 31.7887C12.947 31.7133 12.9772 31.6265 13.0187 31.5585C13.0791 31.4642 13.1583 31.385 13.2565 31.3246C13.3282 31.2793 13.4149 31.2378 13.4904 31.2114C13.5508 31.1925 13.6074 31.1812 13.6678 31.1736C13.7055 31.1661 13.7432 31.1661 13.7772 31.1736C13.7885 31.1774 13.8074 31.1887 13.8074 31.2038C13.8074 31.2151 13.7999 31.234 13.7848 31.2378C13.6715 31.268 13.5848 31.3095 13.4904 31.3623C13.4187 31.4 13.2866 31.5208 13.298 31.6114C13.3017 31.6378 13.3244 31.6793 13.4036 31.6868C13.5621 31.7019 13.7357 31.6982 13.8942 31.6982C13.9055 31.6982 13.9206 31.6982 13.9319 31.6982L13.9131 31.7019Z" fill="#D3D5D5"/>
</svg>
