<svg width="21" height="23" viewBox="0 0 21 23" fill="none" xmlns="http://www.w3.org/2000/svg">
<path d="M4.90002 9.69998C4.90002 8.59541 5.79545 7.69998 6.90002 7.69998H9.20023C10.3048 7.69998 11.2002 8.59541 11.2002 9.69998V13.3002H6.90003C5.79546 13.3002 4.90002 12.4047 4.90002 11.3002V9.69998Z" fill="white"/>
<path d="M11.2 13.3H14.8267C15.53 13.3 16.1002 12.7298 16.1002 12.0265V11.9672C16.1002 11.459 16.0182 10.9541 15.8575 10.472C15.5594 9.57767 15.0186 8.76008 14.1925 8.30592C14.0083 8.20468 13.8224 8.11413 13.6501 8.04981C13.1236 7.85327 12.3085 7.74613 12.0124 7.71199C11.9373 7.70334 11.8622 7.6998 11.7867 7.6998C11.4627 7.6998 11.2 7.96246 11.2 8.28646V13.3Z" fill="white"/>
<circle cx="7.69997" cy="13.2999" r="1.40005" fill="white"/>
<circle cx="13.3001" cy="13.2999" r="1.40005" fill="white"/>
<circle cx="7.70008" cy="13.3005" r="0.700023" fill="#C20A18"/>
<circle cx="13.3006" cy="13.3005" r="0.700023" fill="#C20A18"/>
<path fill-rule="evenodd" clip-rule="evenodd" d="M17.4954 4.73882L12.5913 1.9074C12.494 0.837878 11.5949 0 10.5 0C9.40513 0 8.50596 0.837878 8.40871 1.9074L3.50456 4.73882C3.13249 4.40386 2.64005 4.2 2.1 4.2C0.940202 4.2 0 5.1402 0 6.3C0 7.21687 0.587583 7.9965 1.40673 8.28287V14.1171C0.587583 14.4035 0 15.1831 0 16.1C0 17.2598 0.940202 18.2 2.1 18.2C2.64005 18.2 3.13249 17.9961 3.50456 17.6612L8.40871 20.4926C8.50596 21.5621 9.40513 22.4 10.5 22.4C11.5949 22.4 12.494 21.5621 12.5913 20.4926L17.4954 17.6612C17.8675 17.9961 18.3599 18.2 18.9 18.2C20.0598 18.2 21 17.2598 21 16.1C21 15.1831 20.4124 14.4035 19.5933 14.1171V8.28287C20.4124 7.9965 21 7.21687 21 6.3C21 5.1402 20.0598 4.2 18.9 4.2C18.3599 4.2 17.8675 4.40386 17.4954 4.73882ZM2.80673 8.27811V14.1219C3.61885 14.4121 4.2 15.1882 4.2 16.1C4.2 16.2127 4.19113 16.3233 4.17404 16.4311L8.78224 19.0917C9.16234 18.5523 9.79002 18.2 10.5 18.2C11.21 18.2 11.8377 18.5523 12.2178 19.0917L16.826 16.4311C16.8089 16.3233 16.8 16.2127 16.8 16.1C16.8 15.1882 17.3812 14.4121 18.1933 14.1219V8.27811C17.3812 7.98794 16.8 7.21184 16.8 6.3C16.8 6.18733 16.8089 6.07674 16.826 5.96887L12.2178 3.30833C11.8377 3.84767 11.21 4.2 10.5 4.2C9.79002 4.2 9.16234 3.84767 8.78224 3.30833L4.17404 5.96887C4.19113 6.07674 4.2 6.18733 4.2 6.3C4.2 7.21184 3.61885 7.98794 2.80673 8.27811Z" fill="white"/>
</svg>
