<svg width="24" height="24" viewBox="0 0 24 24" fill="none" xmlns="http://www.w3.org/2000/svg">
<g clip-path="url(#clip0_2019:7524)">
<path d="M23.4394 12.2242C23.4394 11.2409 23.3596 10.5234 23.187 9.7793H11.959V14.2173H18.5495C18.4167 15.3202 17.6992 16.9811 16.1047 18.0972L16.0823 18.2458L19.6324 20.996L19.8783 21.0205C22.1372 18.9344 23.4394 15.8649 23.4394 12.2242Z" fill="#4285F4"/>
<path d="M11.9586 23.9178C15.1874 23.9178 17.898 22.8548 19.878 21.0211L16.1043 18.0978C15.0944 18.8021 13.7391 19.2937 11.9586 19.2937C8.79619 19.2937 6.11212 17.2076 5.15533 14.3242L5.01509 14.3361L1.32367 17.193L1.27539 17.3272C3.24193 21.2337 7.28134 23.9178 11.9586 23.9178Z" fill="#34A853"/>
<path d="M5.15551 14.3238C4.90305 13.5797 4.75695 12.7824 4.75695 11.9586C4.75695 11.1347 4.90305 10.3375 5.14223 9.59342L5.13554 9.43494L1.39786 6.53223L1.27557 6.59039C0.465069 8.21149 0 10.0319 0 11.9586C0 13.8853 0.465069 15.7056 1.27557 17.3267L5.15551 14.3238Z" fill="#FBBC05"/>
<path d="M11.9586 4.62403C14.2042 4.62403 15.7189 5.59402 16.5826 6.40461L19.9576 3.10928C17.8849 1.1826 15.1874 0 11.9586 0C7.28134 0 3.24192 2.68406 1.27539 6.59056L5.14205 9.59359C6.11212 6.7102 8.79618 4.62403 11.9586 4.62403Z" fill="#EB4335"/>
</g>
<defs>
<clipPath id="clip0_2019:7524">
<rect width="23.4504" height="24" fill="white"/>
</clipPath>
</defs>
</svg>
