<svg width="64" height="64" viewBox="0 0 64 64" fill="none" xmlns="http://www.w3.org/2000/svg">
<path fill-rule="evenodd" clip-rule="evenodd" d="M18.6667 0C12.7756 0 8 4.77562 8 10.6667V53.3333H56V10.6667C56 4.77563 51.2244 0 45.3333 0H18.6667ZM16 10.6667C14.5272 10.6667 13.3333 11.8606 13.3333 13.3333V24C13.3333 25.4728 14.5272 26.6667 16 26.6667H48C49.4728 26.6667 50.6667 25.4728 50.6667 24V13.3333C50.6667 11.8606 49.4728 10.6667 48 10.6667H16ZM18.6667 40C18.6667 38.5272 17.4728 37.3333 16 37.3333C14.5272 37.3333 13.3333 38.5272 13.3333 40C13.3333 41.4728 14.5272 42.6667 16 42.6667C17.4728 42.6667 18.6667 41.4728 18.6667 40ZM48 37.3333C49.4728 37.3333 50.6667 38.5272 50.6667 40C50.6667 41.4728 49.4728 42.6667 48 42.6667C46.5272 42.6667 45.3333 41.4728 45.3333 40C45.3333 38.5272 46.5272 37.3333 48 37.3333Z" fill="#888888"/>
<path d="M56 10.666H58.6667C61.6122 10.666 64 13.0538 64 15.9993V21.3327C64 24.2782 61.6122 26.666 58.6667 26.666H56V10.666Z" fill="#888888"/>
<path d="M0 15.9993C0 13.0538 2.38781 10.666 5.33333 10.666H8V26.666H5.33333C2.38781 26.666 0 24.2782 0 21.3327V15.9993Z" fill="#888888"/>
<path d="M8 53.334H18.6667V58.6673C18.6667 61.6128 16.2789 64.0007 13.3333 64.0007C10.3878 64.0007 8 61.6128 8 58.6673V53.334Z" fill="#888888"/>
<path d="M45.3335 53.334H56.0002V58.6673C56.0002 61.6128 53.6123 64.0007 50.6668 64.0007C47.7213 64.0007 45.3335 61.6128 45.3335 58.6673V53.334Z" fill="#888888"/>
</svg>
