<svg width="24" height="24" viewBox="0 0 24 24" fill="none" xmlns="http://www.w3.org/2000/svg">
<path d="M7.50439 21.48C5.852 20.7053 4.43034 19.5163 3.37889 18.0296C2.32745 16.5429 1.68235 14.8097 1.50691 13H0C0.512348 19.16 5.68606 24 12.005 24L12.6681 23.97L8.84052 20.16L7.50439 21.48ZM8.39849 14.96C8.20762 14.96 8.02679 14.93 7.8761 14.88C7.72605 14.8304 7.58884 14.7484 7.47426 14.64C7.36375 14.54 7.27334 14.42 7.21306 14.27C7.15278 14.13 7.12264 13.97 7.12264 13.8H5.81666C5.81666 14.16 5.88698 14.48 6.02763 14.75C6.16827 15.02 6.35915 15.25 6.5902 15.44C6.83131 15.62 7.10255 15.76 7.41398 15.85C7.71536 15.95 8.03683 16 8.3784 16C8.7501 16 9.10172 15.95 9.41314 15.85C9.73462 15.75 10.0159 15.6 10.247 15.41C10.478 15.22 10.6689 14.98 10.7995 14.69C10.9301 14.4 11.0004 14.08 11.0004 13.72C11.0004 13.53 10.9803 13.34 10.9301 13.16C10.8824 12.9783 10.8043 12.8059 10.699 12.65C10.5986 12.49 10.4579 12.35 10.2972 12.22C10.1264 12.09 9.92549 11.99 9.68439 11.91C10.0475 11.7489 10.3575 11.4889 10.5785 11.16C10.6789 11.01 10.7493 10.86 10.7995 10.7C10.8497 10.54 10.8698 10.38 10.8698 10.22C10.8698 9.86 10.8095 9.54 10.689 9.26C10.5773 8.99186 10.4014 8.75497 10.1766 8.57C9.97572 8.38 9.70448 8.24 9.4031 8.14C9.09167 8.05 8.7501 8 8.3784 8C8.01674 8 7.68522 8.05 7.3738 8.16C7.07241 8.27 6.80117 8.42 6.58016 8.61C6.36919 8.8 6.19841 9.02 6.06781 9.28C5.94726 9.54 5.88698 9.82 5.88698 10.13H7.19297C7.19297 9.96 7.22311 9.81 7.28338 9.68C7.34366 9.55 7.42403 9.43 7.53453 9.34C7.64504 9.25 7.76559 9.17 7.91628 9.12C8.06697 9.07 8.21766 9.04 8.39849 9.04C8.80033 9.04 9.10172 9.14 9.29259 9.35C9.48347 9.55 9.58393 9.84 9.58393 10.21C9.58393 10.39 9.55379 10.55 9.50356 10.7C9.4536 10.843 9.36704 10.9705 9.25241 11.07C9.1419 11.17 9.00126 11.25 8.84052 11.31C8.67978 11.37 8.47886 11.4 8.25785 11.4H7.4843V12.43H8.25785C8.47886 12.43 8.67978 12.45 8.86061 12.5C9.04144 12.55 9.19213 12.63 9.31268 12.73C9.43323 12.84 9.53369 12.97 9.60402 13.13C9.67434 13.29 9.70448 13.48 9.70448 13.7C9.70448 14.11 9.58393 14.42 9.35287 14.63C9.12181 14.86 8.80033 14.96 8.39849 14.96ZM16.9879 9.04C16.6664 8.71 16.2846 8.45 15.8426 8.27C15.4106 8.09 14.9184 8 14.3759 8H12.005V16H14.3156C14.8681 16 15.3805 15.91 15.8326 15.73C16.2846 15.55 16.6764 15.3 16.9979 14.97C17.3194 14.64 17.5705 14.24 17.7413 13.78C17.9121 13.31 18.0025 12.79 18.0025 12.21V11.81C18.0025 11.23 17.9121 10.71 17.7413 10.24C17.5605 9.77 17.3093 9.37 16.9879 9.04ZM16.5961 12.2C16.5961 12.62 16.5458 12.99 16.4554 13.33C16.355 13.66 16.2143 13.95 16.0234 14.18C15.8326 14.41 15.5915 14.59 15.3102 14.71C15.0188 14.83 14.6873 14.89 14.3156 14.89H13.4014V9.12H14.3759C15.0992 9.12 15.6517 9.35 16.0234 9.81C16.4052 10.27 16.5961 10.93 16.5961 11.8V12.2ZM12.005 0L11.342 0.03L15.1695 3.84L16.5056 2.51C19.7907 4.06 22.1415 7.23 22.4931 10.99H24C23.4977 4.84 18.324 0 12.005 0Z" fill="white"/>
</svg>
