<svg width="50" height="50" viewBox="0 0 50 50" fill="none" xmlns="http://www.w3.org/2000/svg">
<circle cx="25" cy="25" r="25" fill="#4267B2"/>
<path d="M25.0012 12.502C18.0987 12.502 12.5024 18.0982 12.5024 25.0007C12.5024 31.2382 17.0724 36.4082 23.0487 37.3495V28.6145H19.8737V25.0007H23.0487V22.247C23.0487 19.112 24.9149 17.3832 27.7687 17.3832C29.1362 17.3832 30.5687 17.627 30.5687 17.627V20.7007H28.9887C27.4387 20.7007 26.9537 21.6657 26.9537 22.6545V24.9982H30.4174L29.8637 28.612H26.9537V37.347C32.9299 36.4107 37.4999 31.2395 37.4999 25.0007C37.4999 18.0982 31.9037 12.502 25.0012 12.502Z" fill="white"/>
</svg>
