<svg width="80" height="80" viewBox="0 0 80 80" fill="none" xmlns="http://www.w3.org/2000/svg">
<path d="M40 0L42.5107 8.09864L46.2574 0.492466L47.4703 8.88416L52.3607 1.95774L52.2459 10.4359L58.1596 4.35974L56.72 12.7155L63.5114 7.63932L60.7823 15.667L68.2843 11.7157L64.333 19.2177L72.3607 16.4886L67.2845 23.28L75.6403 21.8404L69.5641 27.7541L78.0423 27.6393L71.1158 32.5297L79.5075 33.7426L71.9014 37.4893L80 40L71.9014 42.5107L79.5075 46.2574L71.1158 47.4703L78.0423 52.3607L69.5641 52.2459L75.6403 58.1596L67.2845 56.72L72.3607 63.5114L64.333 60.7823L68.2843 68.2843L60.7823 64.333L63.5114 72.3607L56.72 67.2845L58.1596 75.6403L52.2459 69.5641L52.3607 78.0423L47.4703 71.1158L46.2574 79.5075L42.5107 71.9014L40 80L37.4893 71.9014L33.7426 79.5075L32.5297 71.1158L27.6393 78.0423L27.7541 69.5641L21.8404 75.6403L23.28 67.2845L16.4886 72.3607L19.2177 64.333L11.7157 68.2843L15.667 60.7823L7.63932 63.5114L12.7155 56.72L4.35974 58.1596L10.4359 52.2459L1.95774 52.3607L8.88416 47.4703L0.492466 46.2574L8.09864 42.5107L0 40L8.09864 37.4893L0.492466 33.7426L8.88416 32.5297L1.95774 27.6393L10.4359 27.7541L4.35974 21.8404L12.7155 23.28L7.63932 16.4886L15.667 19.2177L11.7157 11.7157L19.2177 15.667L16.4886 7.63932L23.28 12.7155L21.8404 4.35974L27.7541 10.4359L27.6393 1.95774L32.5297 8.88416L33.7426 0.492466L37.4893 8.09864L40 0Z" fill="url(#paint0_linear_529_1898)"/>
<circle cx="40" cy="40" r="20" fill="url(#paint1_linear_529_1898)"/>
<circle cx="40" cy="40" r="5" fill="white"/>
<circle cx="30" cy="30" r="2.5" fill="white"/>
<circle cx="50" cy="30" r="2.5" fill="white"/>
<circle cx="50" cy="50" r="2.5" fill="white"/>
<circle cx="30" cy="50" r="2.5" fill="white"/>
<defs>
<linearGradient id="paint0_linear_529_1898" x1="40" y1="0" x2="40" y2="80" gradientUnits="userSpaceOnUse">
<stop stop-color="#444444"/>
<stop offset="1" stop-color="#444444" stop-opacity="0.4"/>
</linearGradient>
<linearGradient id="paint1_linear_529_1898" x1="40" y1="20" x2="40" y2="60" gradientUnits="userSpaceOnUse">
<stop stop-color="#888888"/>
<stop offset="1" stop-color="#888888" stop-opacity="0.4"/>
</linearGradient>
</defs>
</svg>
