<svg width="20" height="20" viewBox="0 0 20 20" fill="none" xmlns="http://www.w3.org/2000/svg">
<path fill-rule="evenodd" clip-rule="evenodd" d="M15.6757 0H4.32432C1.93607 0 0 1.93607 0 4.32432V15.6757C0 18.0639 1.93607 20 4.32432 20H15.6757C18.0639 20 20 18.0639 20 15.6757V4.32432C20 1.93607 18.0639 0 15.6757 0ZM16.5837 10.7135C16.5867 10.9351 16.4999 11.1486 16.3432 11.3053C16.1864 11.4621 15.973 11.5488 15.7513 11.5459C15.416 11.5514 15.1157 11.7551 14.9867 12.0647C14.8577 12.3743 14.9245 12.7309 15.1567 12.9729C15.3132 13.1291 15.4011 13.3411 15.4011 13.5621C15.4011 13.7832 15.3132 13.9952 15.1567 14.1513L14.1513 15.1567C13.9952 15.3132 13.7832 15.4011 13.5621 15.4011C13.3411 15.4011 13.1291 15.3132 12.9729 15.1567C12.7309 14.9245 12.3743 14.8577 12.0647 14.9867C11.7551 15.1157 11.5514 15.416 11.5459 15.7513C11.5488 15.973 11.4621 16.1864 11.3053 16.3432C11.1486 16.4999 10.9351 16.5867 10.7135 16.5837H9.28645C9.06479 16.5867 8.85135 16.4999 8.69459 16.3432C8.53784 16.1864 8.45108 15.973 8.45402 15.7513C8.44853 15.416 8.24482 15.1157 7.93521 14.9867C7.6256 14.8577 7.26898 14.9245 7.02699 15.1567C6.87083 15.3132 6.65886 15.4011 6.4378 15.4011C6.21675 15.4011 6.00477 15.3132 5.84861 15.1567L4.84321 14.1513C4.68675 13.9952 4.59882 13.7832 4.59882 13.5621C4.59882 13.3411 4.68675 13.1291 4.84321 12.9729C5.07546 12.7309 5.14221 12.3743 5.01321 12.0647C4.8842 11.7551 4.58398 11.5514 4.24861 11.5459C4.02695 11.5488 3.81351 11.4621 3.65676 11.3053C3.5 11.1486 3.41324 10.9351 3.41618 10.7135V9.28645C3.41324 9.06479 3.5 8.85135 3.65676 8.69459C3.81351 8.53784 4.02695 8.45108 4.24861 8.45402C4.58398 8.44854 4.8842 8.24482 5.01321 7.93521C5.14221 7.6256 5.07546 7.26898 4.84321 7.02699C4.68675 6.87083 4.59882 6.65886 4.59882 6.4378C4.59882 6.21675 4.68675 6.00477 4.84321 5.84861L5.84861 4.84321C6.00477 4.68675 6.21675 4.59882 6.4378 4.59882C6.65886 4.59882 6.87083 4.68675 7.02699 4.84321C7.26898 5.07546 7.6256 5.14221 7.93521 5.01321C8.24482 4.8842 8.44853 4.58398 8.45402 4.24861C8.45108 4.02695 8.53784 3.81351 8.69459 3.65676C8.85135 3.5 9.06479 3.41324 9.28645 3.41618H10.7135C10.9351 3.41324 11.1486 3.5 11.3053 3.65676C11.4621 3.81351 11.5488 4.02695 11.5459 4.24861C11.5514 4.58398 11.7551 4.8842 12.0647 5.01321C12.3743 5.14221 12.7309 5.07546 12.9729 4.84321C13.1291 4.68675 13.3411 4.59882 13.5621 4.59882C13.7832 4.59882 13.9952 4.68675 14.1513 4.84321L15.1567 5.84861C15.3132 6.00477 15.4011 6.21675 15.4011 6.4378C15.4011 6.65886 15.3132 6.87083 15.1567 7.02699C14.9245 7.26898 14.8577 7.6256 14.9867 7.93521C15.1157 8.24482 15.416 8.44854 15.7513 8.45402C15.973 8.45108 16.1864 8.53784 16.3432 8.69459C16.4999 8.85135 16.5867 9.06479 16.5837 9.28645V10.7135ZM9.99999 7.67485C8.7163 7.67485 7.67566 8.71549 7.67566 9.99918C7.67566 11.2829 8.7163 12.3235 9.99999 12.3235C11.2837 12.3235 12.3243 11.2829 12.3243 9.99918C12.3243 8.71549 11.2837 7.67485 9.99999 7.67485ZM9.99993 10.7023C9.61184 10.7023 9.29723 10.3877 9.29723 9.99962C9.29723 9.61153 9.61184 9.29692 9.99993 9.29692C10.388 9.29692 10.7026 9.61153 10.7026 9.99962C10.7026 10.186 10.6286 10.3647 10.4968 10.4965C10.365 10.6283 10.1863 10.7023 9.99993 10.7023Z" fill="white"/>
</svg>
