<svg width="48" height="48" viewBox="0 0 48 48" fill="none" xmlns="http://www.w3.org/2000/svg">
<path d="M43.1867 14.406C42.9589 13.5608 42.5137 12.79 41.8954 12.1704C41.2771 11.5507 40.5073 11.1037 39.6627 10.874C36.5307 10.014 24.0007 10 24.0007 10C24.0007 10 11.4727 9.98601 8.33866 10.808C7.49451 11.0483 6.7263 11.5016 6.10779 12.1243C5.48928 12.747 5.04123 13.5183 4.80666 14.364C3.98066 17.496 3.97266 23.992 3.97266 23.992C3.97266 23.992 3.96466 30.52 4.78466 33.62C5.24466 35.334 6.59466 36.688 8.31066 37.15C11.4747 38.01 23.9707 38.024 23.9707 38.024C23.9707 38.024 36.5007 38.038 39.6327 37.218C40.4776 36.9887 41.2481 36.5428 41.868 35.9244C42.4878 35.306 42.9354 34.5365 43.1667 33.692C43.9947 30.562 44.0007 24.068 44.0007 24.068C44.0007 24.068 44.0407 17.538 43.1867 14.406Z" fill="white"/>
<path d="M43.1863 14.406C42.9585 13.5608 42.5133 12.79 41.895 12.1704C41.2768 11.5507 40.507 11.1037 39.6623 10.874C36.5303 10.014 24.0003 10 24.0003 10C24.0003 10 11.4723 9.98601 8.33829 10.808C7.49414 11.0483 6.72594 11.5016 6.10742 12.1243C5.48891 12.747 5.04086 13.5183 4.80629 14.364C3.98029 17.496 3.97229 23.992 3.97229 23.992C3.97229 23.992 3.96429 30.52 4.78429 33.62C5.24429 35.334 6.59429 36.688 8.31029 37.15C11.4743 38.01 23.9703 38.024 23.9703 38.024C23.9703 38.024 36.5003 38.038 39.6323 37.218C40.4773 36.9887 41.2478 36.5428 41.8676 35.9244C42.4874 35.306 42.9351 34.5365 43.1663 33.692C43.9943 30.562 44.0003 24.068 44.0003 24.068C44.0003 24.068 44.0403 17.538 43.1863 14.406ZM19.9923 30.01L20.0023 18.01L30.4163 24.02L19.9923 30.01Z" fill="#FF0000"/>
</svg>
