<svg width="64" height="64" viewBox="0 0 64 64" fill="none" xmlns="http://www.w3.org/2000/svg">
<circle cx="32" cy="32" r="32" fill="url(#paint0_linear_529_1859)"/>
<path fill-rule="evenodd" clip-rule="evenodd" d="M32.416 31.2696C35.1906 31.2696 37.8728 31.2695 40.6474 31.1778C41.6647 31.1778 42.6819 31.1778 43.6993 31.1778C44.7166 31.1778 45.6415 31.1778 46.6589 31.1778C48.0462 31.2695 49.6185 31.0862 50.8208 31.6365C51.4682 31.9116 51.653 32.3701 51.7455 33.0121C51.7455 33.1038 51.7455 33.1036 51.7455 33.1036C51.7455 34.1124 51.0982 35.2131 50.7283 36.1302C50.0809 37.4141 49.0636 38.6062 47.9538 39.7067C46.1041 41.5409 42.3122 43.6503 38.4278 44.6591C37.8729 44.8425 37.2255 45.0259 36.6706 45.2093C36.2081 45.301 36.3931 45.5762 36.6706 45.4844C37.318 45.3927 37.9652 45.3012 38.5201 45.1178C43.0519 44.0173 46.1964 42.183 48.3235 40.4405C49.6183 39.4317 51.0057 37.9644 51.838 36.4053C52.393 35.3965 53.0405 33.6541 53.133 33.0121C53.2255 32.1867 53.3178 31.8197 53.3178 30.5357C53.2254 28.3347 52.4854 26.5924 51.1906 24.6665C51.0981 24.4831 51.0056 24.3913 50.9131 24.2996C50.9131 24.2079 50.8206 24.1162 50.9131 24.0244C51.0056 24.0244 51.1907 24.1161 51.2831 24.2078C52.393 25.4 52.9478 26.3172 53.5027 27.5095C54.2426 29.0685 54.4278 30.2609 54.6128 31.6365C54.6128 31.9116 54.89 32.0032 54.9825 31.5447C55.075 30.0773 54.705 28.5184 54.0576 27.051C53.3177 25.4002 52.5779 24.5746 51.5606 23.3824C50.3583 22.1902 48.971 20.9981 47.4912 20.081C45.2716 18.7054 42.9594 17.7881 40.5548 17.0544C39.5375 16.7793 38.5201 16.5961 37.4103 16.4127C37.1329 16.4127 36.7631 16.4127 36.3931 16.4127C36.1157 16.4127 35.9307 16.6876 36.3931 16.7793C37.0405 16.9627 37.6878 17.0546 38.3352 17.238C40.7399 17.88 43.1445 18.7972 45.2716 20.1728C47.0289 21.2733 47.9538 21.8236 49.9885 24.4832C50.266 24.85 50.8208 25.767 51.0983 26.409C51.2832 26.8675 51.6532 27.6928 51.6532 28.243C51.5607 28.7933 51.4681 29.1601 51.0057 29.4353C50.0808 29.9855 49.2486 30.0773 47.9538 30.0773C47.0289 30.0773 46.1039 30.1691 45.1791 30.1691C43.7918 30.1691 42.497 30.2606 41.1097 30.2606C38.2426 30.3523 35.2833 30.3524 32.3237 30.3524C32.0463 30.3524 31.6763 30.3524 31.3988 30.3524C28.4393 30.3524 25.3873 30.3524 22.4277 30.3524C21.0404 30.3524 19.7456 30.3524 18.3583 30.3524C17.4335 30.3524 16.5087 30.3524 15.5839 30.3524C14.2891 30.3524 13.4566 30.2607 12.5317 29.7104C12.0693 29.4353 11.9767 29.0684 11.8842 28.5181C11.8842 27.9679 12.1619 27.1427 12.3468 26.6841C12.6243 25.9504 13.1792 25.125 13.4566 24.6665C15.4913 22.0069 16.4161 21.4565 18.0809 20.2643C20.2081 18.8887 22.5201 17.88 24.9247 17.238C25.5721 17.0546 26.2197 16.8712 26.8671 16.6878C27.3295 16.5961 27.0521 16.3209 26.8671 16.3209C26.5897 16.3209 26.2196 16.321 25.8496 16.4127C24.8323 16.5044 23.7226 16.7793 22.7977 17.0544C20.3931 17.7881 18.081 18.7055 15.8613 20.1728C14.474 21.0899 12.9941 22.282 11.8842 23.4742C10.8669 24.6664 10.1272 25.5836 9.4798 27.2343C8.92489 28.61 8.55498 30.2607 8.64747 31.728C8.64747 32.1866 8.92472 32.0031 9.01721 31.728C9.10969 30.3524 9.29481 29.1603 10.0347 27.6013C10.5896 26.409 11.1443 25.4 12.1617 24.2078C12.2542 24.1161 12.4392 23.9327 12.5317 24.0244C12.6242 24.1162 12.5317 24.2079 12.5317 24.2996C12.4392 24.483 12.3467 24.5749 12.2543 24.7583C10.9595 26.7759 10.312 28.5183 10.2196 30.7193C10.2196 32.0033 10.3119 32.4617 10.4044 33.1954C10.4969 33.8374 11.1445 35.4883 11.7919 36.4971C12.7168 38.0562 14.1039 39.4317 15.3987 40.4405C17.6184 42.183 20.763 43.9254 25.2947 44.9342C25.8497 45.0259 26.5897 45.2094 27.1446 45.3011C27.422 45.3011 27.607 45.1177 27.1446 45.026C26.5897 44.9343 25.9422 44.659 25.3873 44.5673C21.5029 43.5585 17.7109 41.541 15.7687 39.7985C14.6589 38.7897 13.5491 37.5974 12.9017 36.3135C12.4393 35.3964 11.7919 34.296 11.7919 33.2872V33.1954C11.8844 32.5534 12.0692 32.0949 12.7166 31.728C13.8264 31.1778 15.4912 31.2695 16.786 31.1778C17.8033 31.1778 18.7282 31.1778 19.7456 31.1778C20.7629 31.1778 21.7804 31.1778 22.7977 31.1778C25.5723 31.1778 28.4391 31.086 31.2137 31.086C31.8611 31.2694 32.1386 31.2696 32.416 31.2696ZM32.416 30.2606C32.1386 30.2606 31.7689 30.2606 31.4914 30.2606C29.4567 30.2606 27.5144 30.2606 25.5722 30.2606C24.1849 30.2606 22.7975 30.2606 21.4102 30.2606C20.1154 30.2606 18.9134 30.1691 17.6186 30.1691C16.4163 30.0774 14.8438 29.8938 14.5664 29.7104C14.3814 29.6187 14.4739 29.3437 14.5664 29.252C14.8438 29.0685 15.1214 28.8851 15.4913 28.7017C15.5838 28.61 15.8611 28.7015 15.9536 28.7932C16.2311 28.9767 16.3236 29.0686 16.6011 29.0686C17.8034 29.3438 18.6358 29.5272 20.1156 29.6189C21.2254 29.7106 22.4277 29.7105 23.5375 29.8022C26.1271 29.8939 27.792 29.8939 31.4914 29.8022C31.7689 29.8022 32.1387 29.8022 32.5086 29.8022C36.1155 29.8022 37.7803 29.7106 40.3699 29.6189C41.4798 29.5272 42.682 29.527 43.7918 29.4353C45.3641 29.3436 46.1965 29.1602 47.3063 28.885C47.5838 28.7933 47.7688 28.7933 47.9538 28.5181C48.0463 28.4264 48.2311 28.4266 48.4161 28.4266C48.6936 28.5183 49.0636 28.7016 49.341 28.885C49.526 28.9768 49.6185 29.1603 49.341 29.3438C49.0636 29.5272 47.4912 29.7105 46.2889 29.8022C44.9941 29.8939 43.7917 29.9855 42.4969 29.9855C41.1096 30.0772 39.7225 30.0773 38.3352 30.0773C36.3006 30.2607 34.3582 30.2606 32.416 30.2606ZM32.416 29.252C36.3929 29.252 40.6472 29.2518 44.5316 28.7932C46.4738 28.6098 47.0287 27.5094 47.1212 26.8674C47.3986 24.6664 43.9767 21.7318 42.2195 20.723C39.8148 19.4391 37.6878 18.4301 34.8207 17.6965C34.4508 17.6048 34.1733 17.1462 34.1733 16.8711C34.1733 16.596 34.6359 16.2293 34.9133 16.1376C35.8382 15.9541 36.7629 15.9541 37.6878 16.1376C39.1675 16.321 40.6474 16.5959 42.1272 17.0544C44.0694 17.6047 46.1964 18.6136 48.0461 19.7141C50.4507 21.1814 52.5778 23.0156 54.0576 25.4C55.1674 27.0508 55.9075 29.2518 56 31.086C56 33.3787 55.1675 35.5799 53.8727 37.5058C52.6704 39.34 51.0056 40.8991 49.1559 42.183C47.4911 43.3753 45.6415 44.2924 43.6993 45.1178C42.0345 45.7598 40.2773 46.2183 38.5201 46.4934C37.4103 46.6768 36.3006 46.7683 35.1908 46.5849C34.9133 46.4932 34.4509 46.2183 34.3584 45.9432C34.3584 45.5763 34.5434 45.2095 34.9133 45.1178C35.8382 44.8427 37.4103 44.2923 38.5201 43.8337C39.9074 43.1918 41.3873 42.5497 42.6821 41.7243C43.9769 40.8989 45.2716 39.8902 46.104 38.6062C46.5664 37.9643 47.0287 37.0472 47.1212 36.3135C47.1212 35.8549 47.1213 35.3965 46.9363 35.0297C46.104 33.6541 43.6992 33.7458 41.942 33.6541C40.2773 33.5624 38.7051 33.5623 37.1329 33.5623C35.4681 33.5623 33.526 33.5623 31.9537 33.5623C30.289 33.5623 28.3468 33.6541 26.7745 33.6541C25.1098 33.7458 23.5374 33.7457 21.9651 33.8374C20.2079 33.9291 17.8035 33.9292 16.9711 35.3048C16.7861 35.6717 16.786 36.2218 16.786 36.5886C16.8784 37.2306 17.341 38.1477 17.8034 38.8813C18.6358 40.0736 19.9307 41.0825 21.3179 41.9079C22.6127 42.7333 24.0924 43.3751 25.5722 44.0171C26.682 44.4756 28.2544 44.9342 29.1793 45.2093C29.4567 45.301 29.7341 45.6678 29.7341 46.0347C29.7341 46.3098 29.2715 46.6767 28.9015 46.6767C27.7917 46.8601 26.682 46.7684 25.5722 46.6767C23.815 46.4016 22.0578 46.0349 20.393 45.3929C18.4508 44.6593 16.6012 43.742 14.9364 42.6415C13.0867 41.3575 11.4219 39.8901 10.2196 37.9642C8.92476 36.0383 8 33.8374 8 31.5447C8 29.7105 8.73991 27.5095 9.75725 25.8588C11.237 23.4743 13.2715 21.6401 15.6762 20.081C17.5259 18.8888 19.6531 17.8798 21.5028 17.3296C22.9826 16.871 24.3699 16.596 25.8496 16.3209C26.7745 16.1375 27.6992 16.1375 28.6241 16.3209C28.9015 16.4126 29.3641 16.7793 29.3641 17.0544C29.3641 17.4213 29.1792 17.7884 28.8092 17.8801C25.9422 18.6137 23.8149 19.7142 21.4102 20.9982C19.653 22.007 16.3236 24.9415 16.6011 27.1425C16.6936 27.7845 17.2486 28.8852 19.2832 29.0686C23.2601 29.4355 27.5143 29.3438 31.5837 29.3438C31.7687 29.252 32.0461 29.252 32.416 29.252Z" fill="white"/>
<defs>
<linearGradient id="paint0_linear_529_1859" x1="32" y1="0" x2="32" y2="64" gradientUnits="userSpaceOnUse">
<stop stop-color="#444444"/>
<stop offset="1" stop-color="#444444" stop-opacity="0.4"/>
</linearGradient>
</defs>
</svg>
