<svg width="20" height="20" viewBox="0 0 20 20" fill="none" xmlns="http://www.w3.org/2000/svg">
<path fill-rule="evenodd" clip-rule="evenodd" d="M19 2H15V0H13V2H7V0H5V2H1C0.734783 2 0.48043 2.10536 0.292893 2.29289C0.105357 2.48043 0 2.73478 0 3V16.4596C0.000409245 17 0.000409245 17 0.000409245 17.5C0.000243455 18 0 18 0 18.9118V19C0 19.2652 0.105357 19.5196 0.292893 19.7071C0.48043 19.8946 0.734783 20 1 20H19C19.2652 20 19.5196 19.8946 19.7071 19.7071C19.8946 19.5196 20 19.2652 20 19V3C20 2.73478 19.8946 2.48043 19.7071 2.29289C19.5196 2.10536 19.2652 2 19 2ZM3.78681 18H18V8.5H2V15.3897L6.85209 12.8973C6.90058 12.7545 6.9149 12.6504 6.93108 12.5328C6.95211 12.38 6.97629 12.2043 7.08266 11.891C7.92864 9.39935 11.0731 9.10836 12.3396 10.4798C12.181 10.6042 11.3852 10.9992 10.8383 11.2706C10.6716 11.3534 10.5279 11.4247 10.4327 11.4733C10.1002 11.6427 9.96645 11.6759 9.88466 11.7597C9.79846 11.8481 9.76998 11.9928 9.62744 12.4126C9.58247 12.5451 10.1476 13.7309 10.2763 13.7746C10.6412 13.8985 10.7647 13.9585 10.8795 13.9449C10.9988 13.9307 11.1086 13.8368 11.4707 13.6522C11.5343 13.6197 11.6396 13.5631 11.7695 13.4934C12.2936 13.2116 13.2174 12.7152 13.4101 12.7268C13.5572 14.0634 12.7031 15.3996 11.5399 15.9883C10.5556 16.4866 8.93751 16.4114 8.23186 15.7058C8.06953 15.8334 5.41879 17.1761 3.78681 18Z" fill="white"/>
</svg>
