<svg width="24" height="24" viewBox="0 0 24 24" fill="none" xmlns="http://www.w3.org/2000/svg">
<path fill-rule="evenodd" clip-rule="evenodd" d="M12 0C9.39606 0 6.89877 1.03441 5.0575 2.87568C3.21624 4.71694 2.18182 7.21424 2.18182 9.81818L2 9.81818C0.895431 9.81818 0 10.7136 0 11.8182V16.5455C0 17.65 0.895432 18.5454 2 18.5454H4.54546C5.65003 18.5454 6.54546 17.65 6.54546 16.5454V11.8182C6.54546 10.7136 5.65003 9.81818 4.54546 9.81818L4.36364 9.81818C4.36364 7.79289 5.16819 5.85055 6.60028 4.41846C8.03238 2.98636 9.97472 2.18182 12 2.18182C14.0253 2.18182 15.9676 2.98636 17.3997 4.41846C18.8318 5.85055 19.6364 7.79289 19.6364 9.81818L19.4545 9.81818C18.35 9.81818 17.4545 10.7136 17.4545 11.8182V16.5455C17.4545 17.6046 18.2778 18.4714 19.3193 18.5409C18.9605 19.7471 18.3056 20.8572 17.3997 21.7631L18.9425 23.3059C20.2604 21.988 21.1649 20.3341 21.5727 18.5454H22C23.1046 18.5454 24 17.65 24 16.5454V11.8182C24 10.7136 23.1046 9.81818 22 9.81818L21.8182 9.81818C21.8182 7.21424 20.7838 4.71695 18.9425 2.87568C17.1012 1.03441 14.604 0 12 0Z" fill="currentColor"/>
</svg>
