<svg width="50" height="50" viewBox="0 0 50 50" fill="none" xmlns="http://www.w3.org/2000/svg">
<circle cx="25" cy="25" r="25" fill="url(#paint0_linear_3466_12655)"/>
<path d="M24.4977 22.582C22.891 22.582 21.5798 23.8932 21.5798 25.4998C21.5798 27.1065 22.891 28.4177 24.4977 28.4177C26.1043 28.4177 27.4155 27.1065 27.4155 25.4998C27.4155 23.8932 26.1043 22.582 24.4977 22.582ZM33.249 25.4998C33.249 24.2915 33.26 23.0942 33.1921 21.8881C33.1243 20.4872 32.8047 19.2438 31.7802 18.2194C30.7536 17.1928 29.5125 16.8754 28.1116 16.8076C26.9033 16.7397 25.7059 16.7507 24.4998 16.7507C23.2915 16.7507 22.0942 16.7397 20.8881 16.8076C19.4872 16.8754 18.2439 17.195 17.2194 18.2194C16.1928 19.246 15.8754 20.4872 15.8076 21.8881C15.7397 23.0964 15.7507 24.2937 15.7507 25.4998C15.7507 26.7059 15.7397 27.9055 15.8076 29.1116C15.8754 30.5125 16.195 31.7558 17.2194 32.7802C18.246 33.8068 19.4872 34.1242 20.8881 34.1921C22.0964 34.26 23.2937 34.249 24.4998 34.249C25.7081 34.249 26.9055 34.26 28.1116 34.1921C29.5125 34.1242 30.7558 33.8047 31.7802 32.7802C32.8069 31.7536 33.1243 30.5125 33.1921 29.1116C33.2622 27.9055 33.249 26.7081 33.249 25.4998ZM24.4977 29.9893C22.0132 29.9893 20.0081 27.9843 20.0081 25.4998C20.0081 23.0154 22.0132 21.0103 24.4977 21.0103C26.9821 21.0103 28.9872 23.0154 28.9872 25.4998C28.9872 27.9843 26.9821 29.9893 24.4977 29.9893ZM29.171 21.875C28.591 21.875 28.1225 21.4065 28.1225 20.8265C28.1225 20.2464 28.591 19.778 29.171 19.778C29.7511 19.778 30.2195 20.2464 30.2195 20.8265C30.2197 20.9642 30.1927 21.1006 30.1401 21.2279C30.0874 21.3552 30.0102 21.4708 29.9128 21.5682C29.8154 21.6656 29.6998 21.7429 29.5725 21.7955C29.4452 21.8481 29.3088 21.8751 29.171 21.875Z" fill="white"/>
<defs>
<linearGradient id="paint0_linear_3466_12655" x1="50" y1="-8.9407e-06" x2="-2.91829" y2="3.30738" gradientUnits="userSpaceOnUse">
<stop stop-color="#AA2AAA"/>
<stop offset="1" stop-color="#E12F22"/>
</linearGradient>
</defs>
</svg>
