<svg width="50" height="50" viewBox="0 0 50 50" fill="none" xmlns="http://www.w3.org/2000/svg">
<circle cx="25" cy="25" r="25" fill="#1DA1F2"/>
<path d="M37.6282 17.1421C36.7584 17.5275 35.824 17.7879 34.8417 17.9056C35.8552 17.2992 36.6135 16.3446 36.975 15.2202C36.0228 15.7858 34.9806 16.1839 33.8938 16.3973C33.1629 15.6169 32.1949 15.0997 31.14 14.9259C30.085 14.7521 29.0022 14.9314 28.0597 15.4361C27.1171 15.9407 26.3675 16.7425 25.9273 17.7168C25.487 18.6911 25.3808 19.7835 25.625 20.8244C23.6955 20.7275 21.808 20.226 20.0848 19.3524C18.3617 18.4788 16.8415 17.2527 15.6229 15.7535C15.2063 16.4723 14.9667 17.3056 14.9667 18.1931C14.9662 18.9921 15.163 19.7788 15.5395 20.4835C15.916 21.1881 16.4606 21.789 17.125 22.2327C16.3545 22.2082 15.6009 22 14.9271 21.6254V21.6879C14.927 22.8085 15.3146 23.8946 16.0242 24.7619C16.7337 25.6292 17.7215 26.2243 18.8198 26.4462C18.105 26.6397 17.3556 26.6682 16.6282 26.5296C16.9381 27.4938 17.5417 28.3369 18.3546 28.941C19.1675 29.545 20.1489 29.8798 21.1615 29.8983C19.4426 31.2477 17.3197 31.9797 15.1344 31.9765C14.7473 31.9766 14.3605 31.954 13.9761 31.9087C16.1943 33.335 18.7764 34.0919 21.4136 34.089C30.3407 34.089 35.2209 26.6952 35.2209 20.2827C35.2209 20.0744 35.2157 19.864 35.2063 19.6556C36.1555 18.9691 36.9749 18.1191 37.6261 17.1452L37.6282 17.1421Z" fill="white"/>
</svg>
