<svg width="24" height="24" viewBox="0 0 24 24" fill="none" xmlns="http://www.w3.org/2000/svg">
<path d="M20.893 22.4929C21.2835 22.8834 21.9167 22.8834 22.3072 22.4929L22.493 22.3071C22.8835 21.9166 22.8835 21.2834 22.493 20.8929L7.20005 5.60003L5.60005 7.20003L20.893 22.4929Z" fill="currentColor"/>
<rect width="4.52548" height="10.1823" rx="1" transform="matrix(0.707105 0.707108 0.707105 -0.707108 1.60001 20.8)" fill="currentColor"/>
<path d="M8.8 15.2001L10.4 16.8001L20 7.20009H21.6L23.2 4.00009L21.6 2.40009L18.4 4.00009L18.4 5.60009L8.8 15.2001Z" fill="currentColor"/>
<path d="M9.17189 2.77189C7.98744 1.58744 6.30977 1.19681 4.8 1.6C5.17189 1.97189 7.57189 4.37189 7.57189 4.37189L5.97189 5.97189L4.37189 7.57189C4.37189 7.57189 1.97189 5.17189 1.59999 4.8C1.19681 6.30977 1.58744 7.98744 2.77189 9.17189C4.5392 10.9392 7.40458 10.9392 9.17189 9.17189C10.9392 7.40458 10.9392 4.5392 9.17189 2.77189Z" fill="currentColor"/>
</svg>
