<svg width="64" height="64" viewBox="0 0 64 64" fill="none" xmlns="http://www.w3.org/2000/svg">
<path fill-rule="evenodd" clip-rule="evenodd" d="M0 4C0 1.79086 1.79086 0 4 0H60C62.2091 0 64 1.79086 64 4V28C64 30.2091 62.2091 32 60 32V62C60 63.1046 59.1046 64 58 64H54C52.8954 64 52 63.1046 52 62V32H12V62C12 63.1046 11.1046 64 10 64H6C4.89543 64 4 63.1046 4 62V32C1.79086 32 0 30.2091 0 28V4Z" fill="url(#paint0_linear_529_1907)"/>
<rect x="20" y="14" width="24" height="4" rx="2" fill="white"/>
<path d="M16 40.0001C16 38.8956 16.8954 38.0001 18 38.0001H32.0006C33.1052 38.0001 34.0006 38.8956 34.0006 40.0001V54.0007H18C16.8954 54.0007 16 53.1052 16 52.0007V40.0001Z" fill="url(#paint1_linear_529_1907)"/>
<path d="M34 54.0005H46.0005C47.105 54.0005 48.0005 53.1051 48.0005 52.0005V49.2986C48.0005 48.4387 47.8618 47.5845 47.5899 46.7687L46.7742 44.3216C46.2699 42.8086 45.3356 41.4639 43.9952 40.5994C43.0668 40.0006 41.9594 39.3581 41.0002 39C39.4961 38.4385 37.167 38.1324 36.321 38.0348C36.1066 38.0101 35.892 38 35.6762 38C34.7505 38 34 38.7505 34 39.6762V54.0005Z" fill="url(#paint2_linear_529_1907)"/>
<circle cx="24.0001" cy="54.0001" r="4.00013" fill="#888888"/>
<circle cx="40.0001" cy="54.0001" r="4.00013" fill="#888888"/>
<circle cx="24.0001" cy="54.002" r="2.00007" fill="white"/>
<circle cx="40.002" cy="54.002" r="2.00007" fill="white"/>
<defs>
<linearGradient id="paint0_linear_529_1907" x1="32" y1="0" x2="32" y2="64" gradientUnits="userSpaceOnUse">
<stop stop-color="#888888"/>
<stop offset="1" stop-color="#888888" stop-opacity="0.4"/>
</linearGradient>
<linearGradient id="paint1_linear_529_1907" x1="25.0003" y1="38.0001" x2="25.0003" y2="54.0007" gradientUnits="userSpaceOnUse">
<stop stop-color="#444444"/>
<stop offset="1" stop-color="#444444" stop-opacity="0.4"/>
</linearGradient>
<linearGradient id="paint2_linear_529_1907" x1="41.0002" y1="38" x2="41.0002" y2="54.0005" gradientUnits="userSpaceOnUse">
<stop stop-color="#444444"/>
<stop offset="1" stop-color="#444444" stop-opacity="0.4"/>
</linearGradient>
</defs>
</svg>
