<svg width="64" height="64" viewBox="0 0 64 64" fill="none" xmlns="http://www.w3.org/2000/svg">
<circle cx="32" cy="32" r="32" fill="#222222"/>
<path d="M56 0L58.2627 5.73726L64 8L58.2627 10.2627L56 16L53.7373 10.2627L48 8L53.7373 5.73726L56 0Z" fill="white"/>
<path fill-rule="evenodd" clip-rule="evenodd" d="M32.416 32.2696C35.1906 32.2696 37.8728 32.2695 40.6474 32.1778C41.6647 32.1778 42.6819 32.1778 43.6993 32.1778C44.7166 32.1778 45.6415 32.1778 46.6589 32.1778C48.0462 32.2695 49.6185 32.0862 50.8208 32.6365C51.4682 32.9116 51.653 33.3701 51.7455 34.0121C51.7455 34.1038 51.7455 34.1036 51.7455 34.1036C51.7455 35.1124 51.0982 36.2131 50.7283 37.1302C50.0809 38.4141 49.0636 39.6062 47.9538 40.7067C46.1041 42.5409 42.3122 44.6503 38.4278 45.6591C37.8729 45.8425 37.2255 46.0259 36.6706 46.2093C36.2081 46.301 36.3931 46.5762 36.6706 46.4844C37.318 46.3927 37.9652 46.3012 38.5201 46.1178C43.0519 45.0173 46.1964 43.183 48.3235 41.4405C49.6183 40.4317 51.0057 38.9644 51.838 37.4053C52.393 36.3965 53.0405 34.6541 53.133 34.0121C53.2255 33.1867 53.3178 32.8197 53.3178 31.5357C53.2254 29.3347 52.4854 27.5924 51.1906 25.6665C51.0981 25.4831 51.0056 25.3913 50.9131 25.2996C50.9131 25.2079 50.8206 25.1162 50.9131 25.0244C51.0056 25.0244 51.1907 25.1161 51.2831 25.2078C52.393 26.4 52.9478 27.3172 53.5027 28.5095C54.2426 30.0685 54.4278 31.2609 54.6128 32.6365C54.6128 32.9116 54.89 33.0032 54.9825 32.5447C55.075 31.0773 54.705 29.5184 54.0576 28.051C53.3177 26.4002 52.5779 25.5746 51.5606 24.3824C50.3583 23.1902 48.971 21.9981 47.4912 21.081C45.2716 19.7054 42.9594 18.7881 40.5548 18.0544C39.5375 17.7793 38.5201 17.5961 37.4103 17.4127C37.1329 17.4127 36.7631 17.4127 36.3931 17.4127C36.1157 17.4127 35.9307 17.6876 36.3931 17.7793C37.0405 17.9627 37.6878 18.0546 38.3352 18.238C40.7399 18.88 43.1445 19.7972 45.2716 21.1728C47.0289 22.2733 47.9538 22.8236 49.9885 25.4832C50.266 25.85 50.8208 26.767 51.0983 27.409C51.2832 27.8675 51.6532 28.6928 51.6532 29.243C51.5607 29.7933 51.4681 30.1601 51.0057 30.4353C50.0808 30.9855 49.2486 31.0773 47.9538 31.0773C47.0289 31.0773 46.1039 31.1691 45.1791 31.1691C43.7918 31.1691 42.497 31.2606 41.1097 31.2606C38.2426 31.3523 35.2833 31.3524 32.3237 31.3524C32.0463 31.3524 31.6763 31.3524 31.3988 31.3524C28.4393 31.3524 25.3873 31.3524 22.4277 31.3524C21.0404 31.3524 19.7456 31.3524 18.3583 31.3524C17.4335 31.3524 16.5087 31.3524 15.5839 31.3524C14.2891 31.3524 13.4566 31.2607 12.5317 30.7104C12.0693 30.4353 11.9767 30.0684 11.8842 29.5181C11.8842 28.9679 12.1619 28.1427 12.3468 27.6841C12.6243 26.9504 13.1792 26.125 13.4566 25.6665C15.4913 23.0069 16.4161 22.4565 18.0809 21.2643C20.2081 19.8887 22.5201 18.88 24.9247 18.238C25.5721 18.0546 26.2197 17.8712 26.8671 17.6878C27.3295 17.5961 27.0521 17.3209 26.8671 17.3209C26.5897 17.3209 26.2196 17.321 25.8496 17.4127C24.8323 17.5044 23.7226 17.7793 22.7977 18.0544C20.3931 18.7881 18.081 19.7055 15.8613 21.1728C14.474 22.0899 12.9941 23.282 11.8842 24.4742C10.8669 25.6664 10.1272 26.5836 9.4798 28.2343C8.92489 29.61 8.55498 31.2607 8.64747 32.728C8.64747 33.1866 8.92472 33.0031 9.01721 32.728C9.10969 31.3524 9.29481 30.1603 10.0347 28.6013C10.5896 27.409 11.1443 26.4 12.1617 25.2078C12.2542 25.1161 12.4392 24.9327 12.5317 25.0244C12.6242 25.1162 12.5317 25.2079 12.5317 25.2996C12.4392 25.483 12.3467 25.5749 12.2543 25.7583C10.9595 27.7759 10.312 29.5183 10.2196 31.7193C10.2196 33.0033 10.3119 33.4617 10.4044 34.1954C10.4969 34.8374 11.1445 36.4883 11.7919 37.4971C12.7168 39.0562 14.1039 40.4317 15.3987 41.4405C17.6184 43.183 20.763 44.9254 25.2947 45.9342C25.8497 46.0259 26.5897 46.2094 27.1446 46.3011C27.422 46.3011 27.607 46.1177 27.1446 46.026C26.5897 45.9343 25.9422 45.659 25.3873 45.5673C21.5029 44.5585 17.7109 42.541 15.7687 40.7985C14.6589 39.7897 13.5491 38.5974 12.9017 37.3135C12.4393 36.3964 11.7919 35.296 11.7919 34.2872V34.1954C11.8844 33.5534 12.0692 33.0949 12.7166 32.728C13.8264 32.1778 15.4912 32.2695 16.786 32.1778C17.8033 32.1778 18.7282 32.1778 19.7456 32.1778C20.7629 32.1778 21.7804 32.1778 22.7977 32.1778C25.5723 32.1778 28.4391 32.086 31.2137 32.086C31.8611 32.2694 32.1386 32.2696 32.416 32.2696ZM32.416 31.2606C32.1386 31.2606 31.7689 31.2606 31.4914 31.2606C29.4567 31.2606 27.5144 31.2606 25.5722 31.2606C24.1849 31.2606 22.7975 31.2606 21.4102 31.2606C20.1154 31.2606 18.9134 31.1691 17.6186 31.1691C16.4163 31.0774 14.8438 30.8938 14.5664 30.7104C14.3814 30.6187 14.4739 30.3437 14.5664 30.252C14.8438 30.0685 15.1214 29.8851 15.4913 29.7017C15.5838 29.61 15.8611 29.7015 15.9536 29.7932C16.2311 29.9767 16.3236 30.0686 16.6011 30.0686C17.8034 30.3438 18.6358 30.5272 20.1156 30.6189C21.2254 30.7106 22.4277 30.7105 23.5375 30.8022C26.1271 30.8939 27.792 30.8939 31.4914 30.8022C31.7689 30.8022 32.1387 30.8022 32.5086 30.8022C36.1155 30.8022 37.7803 30.7106 40.3699 30.6189C41.4798 30.5272 42.682 30.527 43.7918 30.4353C45.3641 30.3436 46.1965 30.1602 47.3063 29.885C47.5838 29.7933 47.7688 29.7933 47.9538 29.5181C48.0463 29.4264 48.2311 29.4266 48.4161 29.4266C48.6936 29.5183 49.0636 29.7016 49.341 29.885C49.526 29.9768 49.6185 30.1603 49.341 30.3438C49.0636 30.5272 47.4912 30.7105 46.2889 30.8022C44.9941 30.8939 43.7917 30.9855 42.4969 30.9855C41.1096 31.0772 39.7225 31.0773 38.3352 31.0773C36.3006 31.2607 34.3582 31.2606 32.416 31.2606ZM32.416 30.252C36.3929 30.252 40.6472 30.2518 44.5316 29.7932C46.4738 29.6098 47.0287 28.5094 47.1212 27.8674C47.3986 25.6664 43.9767 22.7318 42.2195 21.723C39.8148 20.4391 37.6878 19.4301 34.8207 18.6965C34.4508 18.6048 34.1733 18.1462 34.1733 17.8711C34.1733 17.596 34.6359 17.2293 34.9133 17.1376C35.8382 16.9541 36.7629 16.9541 37.6878 17.1376C39.1675 17.321 40.6474 17.5959 42.1272 18.0544C44.0694 18.6047 46.1964 19.6136 48.0461 20.7141C50.4507 22.1814 52.5778 24.0156 54.0576 26.4C55.1674 28.0508 55.9075 30.2518 56 32.086C56 34.3787 55.1675 36.5799 53.8727 38.5058C52.6704 40.34 51.0056 41.8991 49.1559 43.183C47.4911 44.3753 45.6415 45.2924 43.6993 46.1178C42.0345 46.7598 40.2773 47.2183 38.5201 47.4934C37.4103 47.6768 36.3006 47.7683 35.1908 47.5849C34.9133 47.4932 34.4509 47.2183 34.3584 46.9432C34.3584 46.5763 34.5434 46.2095 34.9133 46.1178C35.8382 45.8427 37.4103 45.2923 38.5201 44.8337C39.9074 44.1918 41.3873 43.5497 42.6821 42.7243C43.9769 41.8989 45.2716 40.8902 46.104 39.6062C46.5664 38.9643 47.0287 38.0472 47.1212 37.3135C47.1212 36.8549 47.1213 36.3965 46.9363 36.0297C46.104 34.6541 43.6992 34.7458 41.942 34.6541C40.2773 34.5624 38.7051 34.5623 37.1329 34.5623C35.4681 34.5623 33.526 34.5623 31.9537 34.5623C30.289 34.5623 28.3468 34.6541 26.7745 34.6541C25.1098 34.7458 23.5374 34.7457 21.9651 34.8374C20.2079 34.9291 17.8035 34.9292 16.9711 36.3048C16.7861 36.6717 16.786 37.2218 16.786 37.5886C16.8784 38.2306 17.341 39.1477 17.8034 39.8813C18.6358 41.0736 19.9307 42.0825 21.3179 42.9079C22.6127 43.7333 24.0924 44.3751 25.5722 45.0171C26.682 45.4756 28.2544 45.9342 29.1793 46.2093C29.4567 46.301 29.7341 46.6678 29.7341 47.0347C29.7341 47.3098 29.2715 47.6767 28.9015 47.6767C27.7917 47.8601 26.682 47.7684 25.5722 47.6767C23.815 47.4016 22.0578 47.0349 20.393 46.3929C18.4508 45.6593 16.6012 44.742 14.9364 43.6415C13.0867 42.3575 11.4219 40.8901 10.2196 38.9642C8.92476 37.0383 8 34.8374 8 32.5447C8 30.7105 8.73991 28.5095 9.75725 26.8588C11.237 24.4743 13.2715 22.6401 15.6762 21.081C17.5259 19.8888 19.6531 18.8798 21.5028 18.3296C22.9826 17.871 24.3699 17.596 25.8496 17.3209C26.7745 17.1375 27.6992 17.1375 28.6241 17.3209C28.9015 17.4126 29.3641 17.7793 29.3641 18.0544C29.3641 18.4213 29.1792 18.7884 28.8092 18.8801C25.9422 19.6137 23.8149 20.7142 21.4102 21.9982C19.653 23.007 16.3236 25.9415 16.6011 28.1425C16.6936 28.7845 17.2486 29.8852 19.2832 30.0686C23.2601 30.4355 27.5143 30.3438 31.5837 30.3438C31.7687 30.252 32.0461 30.252 32.416 30.252Z" fill="white"/>
</svg>
