<svg width="24" height="24" viewBox="0 0 24 24" fill="none" xmlns="http://www.w3.org/2000/svg">
<path d="M1.37817 24H22.6218C23.383 24 24 23.383 24 22.6218C24 21.6208 23.4573 20.6985 22.5823 20.2124L16.8121 17.0067C15.6237 16.3465 14.2865 16 12.927 16H11.073C9.71345 16 8.37633 16.3465 7.18786 17.0067L1.41774 20.2124C0.542699 20.6985 0 21.6208 0 22.6218C0 23.383 0.617026 24 1.37817 24Z" fill="currentColor"/>
<path d="M6 6C6 2.68629 8.68629 0 12 0V0C15.3137 0 18 2.68629 18 6V8C18 11.3137 15.3137 14 12 14V14C8.68629 14 6 11.3137 6 8V6Z" fill="currentColor"/>
</svg>
