<svg width="16" height="11" viewBox="0 0 16 11" fill="none" xmlns="http://www.w3.org/2000/svg">
<path fill-rule="evenodd" clip-rule="evenodd" d="M8.13868 5.08986C9.06353 5.08986 9.9576 5.08983 10.8825 5.05926C11.2216 5.05926 11.5606 5.05926 11.8998 5.05926C12.2389 5.05926 12.5472 5.05926 12.8863 5.05926C13.3487 5.08983 13.8728 5.02875 14.2736 5.21217C14.4894 5.30387 14.551 5.45671 14.5818 5.67069C14.5818 5.70126 14.5818 5.7012 14.5818 5.7012C14.5818 6.03747 14.3661 6.40436 14.2428 6.71006C14.027 7.13804 13.6879 7.5354 13.3179 7.90223C12.7014 8.51363 11.4374 9.21676 10.1426 9.55303C9.95763 9.61417 9.74183 9.6753 9.55685 9.73644C9.40271 9.76701 9.46437 9.85872 9.55685 9.82815C9.77265 9.79758 9.9884 9.76708 10.1734 9.70594C11.684 9.3391 12.7321 8.72767 13.4412 8.14684C13.8728 7.81058 14.3352 7.32145 14.6127 6.80176C14.7977 6.4655 15.0135 5.88468 15.0443 5.67069C15.0752 5.39557 15.1059 5.27323 15.1059 4.84525C15.0751 4.11157 14.8285 3.53079 14.3969 2.88883C14.366 2.82769 14.3352 2.79709 14.3044 2.76652C14.3044 2.73595 14.2735 2.70539 14.3044 2.67482C14.3352 2.67482 14.3969 2.70535 14.4277 2.73592C14.7977 3.13333 14.9826 3.43908 15.1676 3.83649C15.4142 4.35617 15.4759 4.75362 15.5376 5.21217C15.5376 5.30387 15.63 5.33441 15.6608 5.18157C15.6917 4.69245 15.5683 4.17279 15.3525 3.68367C15.1059 3.13342 14.8593 2.85821 14.5202 2.4608C14.1194 2.0634 13.657 1.66603 13.1637 1.36034C12.4239 0.901788 11.6531 0.596037 10.8516 0.351479C10.5125 0.259769 10.1734 0.1987 9.80344 0.137561C9.71096 0.137561 9.58769 0.137561 9.46437 0.137561C9.37189 0.137561 9.31023 0.229203 9.46437 0.259773C9.68017 0.320912 9.89595 0.351538 10.1117 0.412678C10.9133 0.626667 11.7148 0.932388 12.4239 1.39094C13.0096 1.75777 13.3179 1.9412 13.9962 2.82772C14.0887 2.95 14.2736 3.25567 14.3661 3.46966C14.4278 3.62251 14.5511 3.89758 14.5511 4.081C14.5202 4.26442 14.4894 4.38672 14.3352 4.47843C14.0269 4.66184 13.7495 4.69244 13.3179 4.69244C13.0097 4.69244 12.7013 4.72304 12.393 4.72304C11.9306 4.72304 11.499 4.75354 11.0366 4.75354C10.0809 4.78411 9.09442 4.78414 8.10791 4.78414C8.01543 4.78414 7.89209 4.78414 7.79961 4.78414C6.8131 4.78414 5.79575 4.78414 4.80924 4.78414C4.34681 4.78414 3.9152 4.78414 3.45278 4.78414C3.14449 4.78414 2.83624 4.78414 2.52796 4.78414C2.09636 4.78414 1.81885 4.75355 1.51057 4.57013C1.35642 4.47842 1.32557 4.35613 1.29474 4.17271C1.29474 3.98929 1.38729 3.71422 1.44894 3.56137C1.54143 3.31681 1.72638 3.04168 1.81887 2.88883C2.4971 2.0023 2.80538 1.81885 3.3603 1.42144C4.06935 0.962894 4.84003 0.626667 5.64157 0.412678C5.85737 0.351538 6.07324 0.290406 6.28904 0.229266C6.44318 0.198697 6.3507 0.106961 6.28904 0.106961C6.19656 0.106961 6.07319 0.106991 5.94988 0.137561C5.61076 0.16813 5.24086 0.259769 4.93258 0.351479C4.13104 0.596037 3.36033 0.901818 2.62044 1.39094C2.15801 1.69663 1.66469 2.094 1.29474 2.4914C0.955631 2.88881 0.709067 3.19452 0.493267 3.74478C0.308296 4.20333 0.184994 4.75355 0.215822 5.24267C0.215822 5.39552 0.30824 5.33438 0.339068 5.24267C0.369897 4.78412 0.431603 4.38677 0.678231 3.86708C0.863202 3.46968 1.04811 3.13333 1.38723 2.73592C1.41805 2.70535 1.47974 2.64425 1.51057 2.67482C1.54139 2.70539 1.51057 2.73595 1.51057 2.76652C1.47974 2.82766 1.44891 2.85829 1.41808 2.91943C0.986486 3.59196 0.770682 4.17277 0.739854 4.90645C0.739854 5.33443 0.770649 5.48724 0.801477 5.7318C0.832306 5.94579 1.04818 6.4961 1.26398 6.83236C1.57226 7.35205 2.03464 7.81058 2.46624 8.14684C3.20613 8.72767 4.25432 9.30847 5.76491 9.64474C5.94989 9.67531 6.19655 9.73647 6.38152 9.76704C6.47401 9.76704 6.53567 9.70591 6.38152 9.67534C6.19655 9.64477 5.98074 9.553 5.79577 9.52243C4.50098 9.18616 3.23698 8.51366 2.58958 7.93283C2.21964 7.59656 1.84971 7.19914 1.63391 6.77116C1.47976 6.46547 1.26398 6.09867 1.26398 5.7624V5.7318C1.29481 5.51781 1.35639 5.36495 1.57219 5.24267C1.94213 5.05925 2.49705 5.08983 2.92865 5.05926C3.26776 5.05926 3.57607 5.05926 3.91519 5.05926C4.2543 5.05926 4.59347 5.05926 4.93258 5.05926C5.85743 5.05926 6.81304 5.02866 7.73789 5.02866C7.95369 5.0898 8.04619 5.08986 8.13868 5.08986ZM8.13868 4.75354C8.04619 4.75354 7.92295 4.75354 7.83047 4.75354C7.15224 4.75354 6.5048 4.75354 5.8574 4.75354C5.39497 4.75354 4.9325 4.75354 4.47008 4.75354C4.03848 4.75354 3.63779 4.72304 3.20619 4.72304C2.80542 4.69247 2.28128 4.63127 2.1888 4.57013C2.12714 4.53956 2.15797 4.44789 2.1888 4.41732C2.28128 4.35618 2.37379 4.29505 2.4971 4.23391C2.52793 4.20334 2.62038 4.23384 2.65121 4.26441C2.74369 4.32555 2.77454 4.35621 2.86703 4.35621C3.2678 4.44792 3.54527 4.50906 4.03853 4.53963C4.40847 4.5702 4.80922 4.57016 5.17917 4.60073C6.04236 4.6313 6.59733 4.6313 7.83047 4.60073C7.92295 4.60073 8.04622 4.60073 8.16953 4.60073C9.37185 4.60073 9.92678 4.5702 10.79 4.53963C11.1599 4.50906 11.5607 4.509 11.9306 4.47843C12.4547 4.44786 12.7322 4.38672 13.1021 4.29501C13.1946 4.26444 13.2563 4.26442 13.3179 4.17271C13.3488 4.14214 13.4104 4.1422 13.472 4.1422C13.5645 4.17277 13.6879 4.23387 13.7803 4.29501C13.842 4.32558 13.8728 4.38678 13.7803 4.44792C13.6879 4.50906 13.1637 4.57016 12.763 4.60073C12.3314 4.6313 11.9306 4.66184 11.499 4.66184C11.0365 4.69241 10.5742 4.69244 10.1117 4.69244C9.43352 4.75358 8.78607 4.75354 8.13868 4.75354ZM8.13868 4.41732C9.4643 4.41732 10.8824 4.41726 12.1772 4.26441C12.8246 4.20327 13.0096 3.83646 13.0404 3.62247C13.1329 2.8888 11.9922 1.91062 11.4065 1.57435C10.6049 1.14637 9.89593 0.810049 8.94025 0.56549C8.81693 0.53492 8.72442 0.382082 8.72442 0.290372C8.72442 0.198663 8.87862 0.0764246 8.97111 0.0458548C9.27939 -0.0152849 9.58764 -0.0152849 9.89592 0.0458548C10.3892 0.106994 10.8825 0.198629 11.3757 0.351479C12.0231 0.534898 12.7321 0.871192 13.3487 1.23803C14.1502 1.72715 14.8593 2.33853 15.3525 3.13335C15.7225 3.6836 15.9692 4.41726 16 5.02866C16 5.79291 15.7225 6.52662 15.2909 7.16859C14.8901 7.77998 14.3352 8.2997 13.7186 8.72768C13.1637 9.12509 12.5472 9.43081 11.8998 9.70594C11.3448 9.91992 10.7591 10.0728 10.1734 10.1645C9.80343 10.2256 9.43353 10.2561 9.06359 10.195C8.9711 10.1644 8.81697 10.0728 8.78614 9.98105C8.78614 9.85877 8.84779 9.73651 8.97111 9.70594C9.27939 9.61423 9.80343 9.43076 10.1734 9.27791C10.6358 9.06392 11.1291 8.8499 11.5607 8.57477C11.9923 8.29965 12.4239 7.96339 12.7013 7.53541C12.8555 7.32142 13.0096 7.01572 13.0404 6.77116C13.0404 6.61832 13.0404 6.46551 12.9788 6.34324C12.7013 5.88469 11.8997 5.91528 11.314 5.88471C10.7591 5.85414 10.235 5.85411 9.71096 5.85411C9.15605 5.85411 8.50866 5.85411 7.98457 5.85411C7.42966 5.85411 6.78227 5.88471 6.25818 5.88471C5.70327 5.91528 5.17912 5.91524 4.65504 5.94581C4.0693 5.97638 3.26782 5.97639 2.99037 6.43494C2.92871 6.55722 2.92865 6.74059 2.92865 6.86287C2.95948 7.07686 3.11367 7.38256 3.26781 7.62712C3.54527 8.02452 3.97688 8.36084 4.43931 8.63597C4.87091 8.9111 5.36414 9.12503 5.8574 9.33902C6.22734 9.49187 6.75147 9.64473 7.05975 9.73644C7.15224 9.76701 7.24472 9.88928 7.24472 10.0116C7.24472 10.1033 7.09049 10.2256 6.96718 10.2256C6.59724 10.2867 6.22734 10.2561 5.8574 10.2256C5.27166 10.1339 4.68592 10.0116 4.13101 9.79764C3.48361 9.55308 2.86705 9.24733 2.31214 8.88049C1.69557 8.45251 1.14062 7.96337 0.739854 7.3214C0.308255 6.67943 0 5.94581 0 5.18157C0 4.57017 0.246636 3.83651 0.585749 3.28625C1.07901 2.49143 1.75718 1.88002 2.55872 1.36034C3.17529 0.962928 3.88436 0.626603 4.50094 0.443184C4.99419 0.290335 5.45662 0.19867 5.94988 0.106961C6.25816 0.0458212 6.56641 0.0458212 6.8747 0.106961C6.96718 0.137531 7.12138 0.259769 7.12138 0.351479C7.12138 0.473758 7.05973 0.596119 6.93641 0.626689C5.98073 0.871248 5.27162 1.23807 4.47008 1.66605C3.88433 2.00232 2.77454 2.9805 2.86703 3.71418C2.89786 3.92817 3.08285 4.29507 3.76108 4.35621C5.08671 4.47849 6.50478 4.44792 7.86123 4.44792C7.92289 4.41735 8.01536 4.41732 8.13868 4.41732Z" fill="white"/>
</svg>
