<svg width="48" height="64" viewBox="0 0 48 64" fill="none" xmlns="http://www.w3.org/2000/svg">
<rect width="48" height="64" rx="4" fill="url(#paint0_linear_529_1863)"/>
<rect x="8" y="8" width="32" height="8" rx="2" fill="white"/>
<rect x="8" y="48" width="20" height="8" rx="4" fill="url(#paint1_linear_529_1863)"/>
<circle cx="12" cy="40" r="4" fill="url(#paint2_linear_529_1863)"/>
<circle cx="24" cy="40" r="4" fill="url(#paint3_linear_529_1863)"/>
<circle cx="36" cy="40" r="4" fill="url(#paint4_linear_529_1863)"/>
<circle cx="12" cy="28" r="4" fill="url(#paint5_linear_529_1863)"/>
<circle cx="24" cy="28" r="4" fill="url(#paint6_linear_529_1863)"/>
<circle cx="36" cy="28" r="4" fill="url(#paint7_linear_529_1863)"/>
<circle cx="36" cy="52" r="4" fill="url(#paint8_linear_529_1863)"/>
<defs>
<linearGradient id="paint0_linear_529_1863" x1="24" y1="0" x2="24" y2="64" gradientUnits="userSpaceOnUse">
<stop stop-color="#888888"/>
<stop offset="1" stop-color="#888888" stop-opacity="0.4"/>
</linearGradient>
<linearGradient id="paint1_linear_529_1863" x1="18" y1="48" x2="18" y2="56" gradientUnits="userSpaceOnUse">
<stop stop-color="#444444"/>
<stop offset="1" stop-color="#444444" stop-opacity="0"/>
</linearGradient>
<linearGradient id="paint2_linear_529_1863" x1="12" y1="36" x2="12" y2="44" gradientUnits="userSpaceOnUse">
<stop stop-color="#444444"/>
<stop offset="1" stop-color="#444444" stop-opacity="0"/>
</linearGradient>
<linearGradient id="paint3_linear_529_1863" x1="24" y1="36" x2="24" y2="44" gradientUnits="userSpaceOnUse">
<stop stop-color="#444444"/>
<stop offset="1" stop-color="#444444" stop-opacity="0"/>
</linearGradient>
<linearGradient id="paint4_linear_529_1863" x1="36" y1="36" x2="36" y2="44" gradientUnits="userSpaceOnUse">
<stop stop-color="#444444"/>
<stop offset="1" stop-color="#444444" stop-opacity="0"/>
</linearGradient>
<linearGradient id="paint5_linear_529_1863" x1="12" y1="24" x2="12" y2="32" gradientUnits="userSpaceOnUse">
<stop stop-color="#444444"/>
<stop offset="1" stop-color="#444444" stop-opacity="0"/>
</linearGradient>
<linearGradient id="paint6_linear_529_1863" x1="24" y1="24" x2="24" y2="32" gradientUnits="userSpaceOnUse">
<stop stop-color="#444444"/>
<stop offset="1" stop-color="#444444" stop-opacity="0"/>
</linearGradient>
<linearGradient id="paint7_linear_529_1863" x1="36" y1="24" x2="36" y2="32" gradientUnits="userSpaceOnUse">
<stop stop-color="#444444"/>
<stop offset="1" stop-color="#444444" stop-opacity="0"/>
</linearGradient>
<linearGradient id="paint8_linear_529_1863" x1="36" y1="48" x2="36" y2="56" gradientUnits="userSpaceOnUse">
<stop stop-color="#444444"/>
<stop offset="1" stop-color="#444444" stop-opacity="0"/>
</linearGradient>
</defs>
</svg>
