<svg width="24" height="12" viewBox="0 0 24 12" fill="none" xmlns="http://www.w3.org/2000/svg">
<path d="M1.24808 5.16795L7.4453 1.03647C8.10985 0.59343 9 1.06982 9 1.86852V10.1315C9 10.9302 8.10985 11.4066 7.4453 10.9635L1.24808 6.83205C0.654342 6.43623 0.654343 5.56377 1.24808 5.16795Z" fill="#888888"/>
<path d="M22.7519 5.16795L16.5547 1.03647C15.8901 0.59343 15 1.06982 15 1.86852V10.1315C15 10.9302 15.8901 11.4066 16.5547 10.9635L22.7519 6.83205C23.3457 6.43623 23.3457 5.56377 22.7519 5.16795Z" fill="#444444"/>
<path d="M9 3.75H11.25L10.5 8.25H9V3.75Z" fill="#888888"/>
<path d="M15 3.75H13.5L12.75 8.25H15V3.75Z" fill="#444444"/>
</svg>
