<svg width="23" height="24" viewBox="0 0 23 24" fill="none" xmlns="http://www.w3.org/2000/svg">
<path d="M23 22.7188C23 23.0586 22.8654 23.3845 22.6257 23.6248C22.3861 23.865 22.0611 24 21.7222 24H1.27778C0.93889 24 0.613883 23.865 0.374253 23.6248C0.134623 23.3845 3.07574e-07 23.0586 3.07574e-07 22.7188V9.25359C-0.000134785 9.05835 0.0442331 8.86567 0.129715 8.69025C0.215197 8.51484 0.339531 8.36133 0.493222 8.24145L10.7154 0.269937C10.9397 0.0949859 11.2158 0 11.5 0C11.7842 0 12.0603 0.0949859 12.2846 0.269937L22.5068 8.24145C22.6605 8.36133 22.7848 8.51484 22.8703 8.69025C22.9558 8.86567 23.0001 9.05835 23 9.25359V22.7188V22.7188ZM10.2222 13.7505V21.4376H12.7778V13.7505H10.2222Z" fill="white"/>
</svg>
