<svg width="21" height="19" viewBox="0 0 21 19" fill="none" xmlns="http://www.w3.org/2000/svg">
<path d="M6.24758 8.87054C6.31229 8.8018 6.38991 8.74649 6.476 8.70775C6.56209 8.66902 6.65496 8.64762 6.74932 8.64478C6.84368 8.64195 6.93768 8.65773 7.02594 8.69122C7.1142 8.72471 7.195 8.77527 7.26372 8.83999C10.5713 11.9558 13.8901 13.8515 17.7957 14.8177C18.3226 13.3802 18.3693 11.7981 17.9142 10.2546C17.3105 8.2066 15.9044 6.4223 13.8493 5.09486C12.0147 3.90982 10.1809 3.6012 8.40698 3.30292C6.16897 2.92648 4.05495 2.5707 2.03751 0.434662C1.8129 0.198373 1.50698 0.103588 1.21454 0.180404C0.88032 0.270248 0.65616 0.534388 0.548796 0.971029C0.297234 1.993 0.458953 4.85722 1.16647 7.88091C2.30255 12.7388 4.11559 15.1969 5.43675 16.4039C7.14378 17.9623 9.3728 18.8252 11.5879 18.8252C12.0054 18.8259 12.4224 18.7953 12.8354 18.7336C14.7091 18.4497 16.2688 17.5086 17.1479 16.1393C13.1278 15.0936 9.69354 13.1049 6.27678 9.88802C6.20794 9.8232 6.15256 9.74543 6.11382 9.65917C6.07509 9.57291 6.05375 9.47986 6.05104 9.38534C6.04832 9.29082 6.06429 9.1967 6.09802 9.10836C6.13174 9.02002 6.18257 8.9392 6.24758 8.87054V8.87054ZM19.9973 15.258C19.2412 15.1416 18.509 14.9956 17.7961 14.8191C17.6495 15.2192 17.4672 15.6053 17.2512 15.9727C17.2184 16.0288 17.1838 16.0845 17.1483 16.1393C18.0154 16.3638 18.8935 16.5437 19.779 16.6784C19.8732 16.695 19.9698 16.6926 20.063 16.6713C20.1563 16.6501 20.2444 16.6104 20.3222 16.5547C20.3999 16.4989 20.4657 16.4282 20.5158 16.3467C20.5659 16.2652 20.5992 16.1745 20.6137 16.0799C20.6283 15.9854 20.6238 15.8889 20.6006 15.7961C20.5774 15.7032 20.5359 15.616 20.4785 15.5395C20.4211 15.4629 20.3491 15.3986 20.2665 15.3502C20.1839 15.3019 20.0926 15.2705 19.9977 15.258H19.9973Z" fill="white"/>
</svg>
