<svg width="60" height="64" viewBox="0 0 60 64" fill="none" xmlns="http://www.w3.org/2000/svg">
<path d="M14 24C14 22.8954 14.8954 22 16 22H30.0006C31.1052 22 32.0006 22.8954 32.0006 24V38.0005H16C14.8954 38.0005 14 37.1051 14 36.0005V24Z" fill="url(#paint0_linear_529_1876)"/>
<path d="M32 38.0005H44.0005C45.105 38.0005 46.0005 37.1051 46.0005 36.0005V33.2986C46.0005 32.4387 45.8618 31.5845 45.5899 30.7687L44.7742 28.3216C44.2699 26.8086 43.3356 25.4639 41.9952 24.5994C41.0668 24.0006 39.9594 23.3581 39.0002 23C37.4961 22.4385 35.167 22.1324 34.321 22.0348C34.1066 22.0101 33.892 22 33.6762 22C32.7505 22 32 22.7505 32 23.6762V38.0005Z" fill="url(#paint1_linear_529_1876)"/>
<circle cx="22.0001" cy="38.0001" r="4.00013" fill="#888888"/>
<circle cx="38.0001" cy="38.0001" r="4.00013" fill="#888888"/>
<circle cx="22.0001" cy="38.002" r="2.00007" fill="white"/>
<circle cx="38.002" cy="38.002" r="2.00007" fill="white"/>
<path fill-rule="evenodd" clip-rule="evenodd" d="M49.987 13.5395L35.9751 5.44973C35.6973 2.39394 33.1282 0 30 0C26.8718 0 24.3027 2.39394 24.0249 5.44973L10.013 13.5395C8.94997 12.5825 7.543 12 6 12C2.68629 12 0 14.6863 0 18C0 20.6196 1.67881 22.8471 4.01924 23.6654V40.3346C1.67881 41.1529 0 43.3804 0 46C0 49.3137 2.68629 52 6 52C7.543 52 8.94997 51.4175 10.013 50.4605L24.0249 58.5503C24.3027 61.6061 26.8718 64 30 64C33.1282 64 35.6973 61.6061 35.9751 58.5503L49.987 50.4605C51.05 51.4175 52.457 52 54 52C57.3137 52 60 49.3137 60 46C60 43.3804 58.3212 41.1529 55.9808 40.3346V23.6654C58.3212 22.8471 60 20.6196 60 18C60 14.6863 57.3137 12 54 12C52.457 12 51.05 12.5824 49.987 13.5395ZM8.01924 23.6518V40.3482C10.3396 41.1773 12 43.3948 12 46C12 46.3219 11.9746 46.6379 11.9258 46.9461L25.0921 54.5476C26.1781 53.0066 27.9715 52 30 52C32.0285 52 33.8219 53.0066 34.9079 54.5476L48.0742 46.9461C48.0254 46.6379 48 46.3219 48 46C48 43.3948 49.6604 41.1773 51.9808 40.3482V23.6518C49.6604 22.8227 48 20.6052 48 18C48 17.6781 48.0254 17.3621 48.0742 17.0539L34.9079 9.45236C33.8219 10.9934 32.0285 12 30 12C27.9715 12 26.1781 10.9934 25.0921 9.45236L11.9258 17.0539C11.9746 17.3621 12 17.6781 12 18C12 20.6052 10.3396 22.8227 8.01924 23.6518Z" fill="url(#paint2_linear_529_1876)"/>
<defs>
<linearGradient id="paint0_linear_529_1876" x1="23.0003" y1="22" x2="23.0003" y2="38.0005" gradientUnits="userSpaceOnUse">
<stop stop-color="#444444"/>
<stop offset="1" stop-color="#444444" stop-opacity="0.4"/>
</linearGradient>
<linearGradient id="paint1_linear_529_1876" x1="39.0002" y1="22" x2="39.0002" y2="38.0005" gradientUnits="userSpaceOnUse">
<stop stop-color="#444444"/>
<stop offset="1" stop-color="#444444" stop-opacity="0.4"/>
</linearGradient>
<linearGradient id="paint2_linear_529_1876" x1="30" y1="0" x2="30" y2="64" gradientUnits="userSpaceOnUse">
<stop stop-color="#888888"/>
<stop offset="1" stop-color="#888888" stop-opacity="0.4"/>
</linearGradient>
</defs>
</svg>
