<svg width="24" height="24" viewBox="0 0 24 24" fill="none" xmlns="http://www.w3.org/2000/svg">
<path fill-rule="evenodd" clip-rule="evenodd" d="M7 0C4.79086 0 3 1.79086 3 4V20H21V4C21 1.79086 19.2091 0 17 0H7ZM6 4C5.44772 4 5 4.44772 5 5V9C5 9.55228 5.44772 10 6 10H18C18.5523 10 19 9.55228 19 9V5C19 4.44772 18.5523 4 18 4H6ZM7 15C7 14.4477 6.55228 14 6 14C5.44772 14 5 14.4477 5 15C5 15.5523 5.44772 16 6 16C6.55228 16 7 15.5523 7 15ZM18 14C18.5523 14 19 14.4477 19 15C19 15.5523 18.5523 16 18 16C17.4477 16 17 15.5523 17 15C17 14.4477 17.4477 14 18 14Z" fill="currentColor"/>
<path d="M21 4H22C23.1046 4 24 4.89543 24 6V8C24 9.10457 23.1046 10 22 10H21V4Z" fill="currentColor"/>
<path d="M0 6C0 4.89543 0.895431 4 2 4H3V10H2C0.895431 10 0 9.10457 0 8V6Z" fill="currentColor"/>
<path d="M3 20H7V22C7 23.1046 6.10457 24 5 24V24C3.89543 24 3 23.1046 3 22V20Z" fill="currentColor"/>
<path d="M17 20H21V22C21 23.1046 20.1046 24 19 24V24C17.8954 24 17 23.1046 17 22V20Z" fill="currentColor"/>
</svg>
