<svg width="50" height="50" viewBox="0 0 50 50" fill="none" xmlns="http://www.w3.org/2000/svg">
<circle cx="25" cy="25" r="25" fill="#FF0000"/>
<path d="M37.3567 19.2151C37.2166 18.7153 36.9437 18.2627 36.5669 17.9056C36.1795 17.5375 35.7047 17.2742 35.1873 17.1405C33.2509 16.6301 25.4928 16.6301 25.4928 16.6301C22.2585 16.5933 19.0251 16.7552 15.8106 17.1147C15.2932 17.2583 14.8193 17.5275 14.431 17.8984C14.0495 18.2655 13.7732 18.7181 13.6288 19.2141C13.282 21.0822 13.1136 22.979 13.1256 24.879C13.1133 26.7773 13.2813 28.6735 13.6288 30.5439C13.7701 31.0378 14.0454 31.4884 14.4279 31.8524C14.8105 32.2164 15.2868 32.4793 15.8106 32.6185C17.7729 33.1279 25.4928 33.1279 25.4928 33.1279C28.7312 33.1647 31.9687 33.0029 35.1873 32.6433C35.7047 32.5096 36.1795 32.2463 36.5669 31.8782C36.9435 31.5211 37.2162 31.0685 37.3557 30.5687C37.7115 28.7013 37.8846 26.8037 37.8723 24.9027C37.8991 22.9937 37.7263 21.0872 37.3567 19.2141V19.2151ZM23.0264 28.4095V21.3495L29.4811 24.88L23.0264 28.4095Z" fill="white"/>
</svg>
