<svg width="20" height="20" viewBox="0 0 20 20" fill="none" xmlns="http://www.w3.org/2000/svg">
<path fill-rule="evenodd" clip-rule="evenodd" d="M3.75 3.75C4.78553 3.75 5.625 2.91053 5.625 1.875C5.625 0.839466 4.78553 0 3.75 0C2.71447 0 1.875 0.839466 1.875 1.875C1.875 2.91053 2.71447 3.75 3.75 3.75ZM1.25 5C0.559644 5 0 5.55964 0 6.25V11.25C0 11.9404 0.559644 12.5 1.25 12.5H1.875V19.375C1.875 19.7202 2.15482 20 2.5 20H5C5.34518 20 5.625 19.7202 5.625 19.375V12.3328C5.99863 12.1166 6.25 11.7127 6.25 11.25V6.875H10.3125C10.8303 6.875 11.25 6.45527 11.25 5.9375C11.25 5.41973 10.8303 5 10.3125 5H5H4.6875H1.25Z" fill="white"/>
<path fill-rule="evenodd" clip-rule="evenodd" d="M8.75 2.5C8.75 2.15482 9.02982 1.875 9.375 1.875H19.375C19.7202 1.875 20 2.15482 20 2.5V3.125V10V10.625C20 10.9702 19.7202 11.25 19.375 11.25H16.2983L18.9369 15.8203C19.1095 16.1192 19.0071 16.5014 18.7082 16.674L18.1669 16.9865C17.868 17.1591 17.4857 17.0567 17.3131 16.7578L14.375 11.6688L11.437 16.7578C11.2644 17.0567 10.8821 17.1591 10.5832 16.9865L10.0419 16.674C9.74299 16.5014 9.64057 16.1192 9.81316 15.8203L12.4518 11.25H9.375C9.02982 11.25 8.75 10.9702 8.75 10.625V10V8.75C8.75 8.40482 9.02982 8.125 9.375 8.125H10C10.3452 8.125 10.625 8.40482 10.625 8.75V9.375H18.125V3.75H9.375C9.02982 3.75 8.75 3.47018 8.75 3.125V2.5Z" fill="white"/>
</svg>
