<?xml version="1.0" encoding="UTF-8"?>
<svg xmlns="http://www.w3.org/2000/svg" xmlns:xlink="http://www.w3.org/1999/xlink" width="25pt" height="26pt" viewBox="0 0 25 26" version="1.1">
<g id="surface1">
<path style="fill-rule:evenodd;fill:rgb(0%,0%,0%);fill-opacity:1;stroke-width:0.5;stroke-linecap:butt;stroke-linejoin:miter;stroke:rgb(0%,0%,0%);stroke-opacity:1;stroke-miterlimit:2.6131;" d="M 93.138847 79.503729 C 105.179055 79.503729 114.948206 89.272548 114.948206 101.321376 C 114.948206 113.370204 105.179055 123.139023 93.138847 123.139023 C 81.080615 123.139023 71.311464 113.370204 71.311464 101.321376 C 71.311464 89.272548 81.080615 79.503729 93.138847 79.503729 Z M 8.082349 0.240977 L 103.358604 0.240977 C 105.521516 0.240977 107.468136 1.130736 108.892053 2.558059 C 110.31597 3.966845 111.181135 5.931731 111.181135 8.081983 L 111.181135 78.094943 C 108.729835 76.185667 105.954098 74.647124 102.944046 73.609072 L 102.944046 9.972722 C 102.944046 9.546379 102.781828 9.194183 102.475415 8.934669 C 102.223076 8.675156 101.826542 8.471253 101.430008 8.471253 L 9.938848 8.471253 C 9.506266 8.471253 9.14578 8.638083 8.893441 8.934669 C 8.623077 9.194183 8.42481 9.583453 8.42481 9.972722 L 8.42481 80.004219 L 8.460858 80.004219 L 40.435901 49.381659 C 41.715624 48.213849 43.716317 48.343606 44.86987 49.622635 C 44.905919 49.641172 44.905919 49.696782 44.941967 49.696782 L 71.816144 81.487151 C 67.093787 86.677416 64.19188 93.573053 64.19188 101.13601 C 64.19188 104.435535 64.750632 107.586767 65.741967 110.534096 L 8.082349 110.534096 C 5.901413 110.534096 3.972817 109.644336 2.5489 108.23555 C 1.124983 106.826764 0.241794 104.843341 0.241794 102.711626 L 0.241794 8.081983 C 0.241794 5.913194 1.143008 3.966845 2.5489 2.558059 C 3.954793 1.130736 5.937462 0.240977 8.082349 0.240977 Z M 73.979055 79.355436 L 77.692053 56.555346 C 77.998466 54.849973 79.602625 53.663627 81.31493 53.960213 C 81.963804 54.052897 82.558605 54.386556 83.027235 54.8129 L 100.114237 72.793459 C 97.933301 72.274432 95.680268 71.996382 93.337114 71.996382 C 85.911118 71.996382 79.133995 74.776881 73.979055 79.355436 Z M 81.981828 18.184462 C 85.11805 18.184462 87.965884 19.463492 90.002625 21.502524 C 92.075416 23.57863 93.337114 26.414739 93.337114 29.547434 C 93.337114 32.661593 92.057391 35.534775 90.002625 37.573807 C 87.947859 39.631376 85.11805 40.891869 81.981828 40.891869 C 78.845606 40.891869 75.997773 39.61284 73.943007 37.573807 C 71.888241 35.497701 70.626542 32.661593 70.626542 29.547434 C 70.626542 26.414739 71.906265 23.541556 73.943007 21.502524 C 76.015797 19.444955 78.863631 18.184462 81.981828 18.184462 Z M 85.820996 88.049129 L 105.773856 109.644336 C 107.359991 107.253107 108.279228 104.398462 108.279228 101.321376 C 108.279228 92.961343 101.502105 86.176926 93.138847 86.176926 C 90.471256 86.176926 87.983908 86.844246 85.820996 88.049129 Z M 100.438674 114.575087 L 80.485814 92.97988 C 78.899679 95.371109 77.980442 98.225754 77.980442 101.30284 C 77.980442 109.662873 84.757565 116.44729 93.120823 116.44729 C 95.788414 116.465826 98.275762 115.77997 100.438674 114.575087 Z M 100.438674 114.575087 " transform="matrix(0.216722,0,0,0.210731,0.0179104,0)"/>
</g>
</svg>
