<svg width="32" height="16" viewBox="0 0 32 16" fill="none" xmlns="http://www.w3.org/2000/svg">
<path d="M0.272461 11.0632H4.85731C7.96699 11.0632 10.1065 9.00822 10.1065 5.65532C10.1065 2.30242 7.96699 0.247559 4.85731 0.247559H0.272461V11.0632ZM3.40869 8.22016V3.09048H4.72439C6.03993 3.09048 6.94356 4.00211 6.94356 5.65532C6.94356 7.30853 6.03993 8.22016 4.72439 8.22016H3.40869Z" fill="#292827"/>
<path d="M22.412 11.0629L22.3853 0.24707H19.8072L16.857 6.01031L13.8271 0.24707H11.249V11.0629H14.1061V6.30393L16.1261 10.0894H17.5082L19.5282 6.13388L19.5548 11.0629H22.412Z" fill="#292827"/>
<path d="M27.3956 11.3101C30.2792 11.3101 31.7279 9.64136 31.7279 7.6636C31.7279 3.67473 26.5849 4.75625 26.5849 3.46093C26.5849 3.09021 26.8773 2.78121 27.7942 2.78121C28.6047 2.78121 29.4685 3.04389 30.3855 3.58465L31.3291 0.94256C30.3589 0.309006 29.0699 0 27.8208 0C24.937 0 23.4885 1.63782 23.4885 3.64637C23.4885 7.67914 28.6315 6.57951 28.6315 7.94182C28.6315 8.31269 28.3125 8.52891 27.4221 8.52891C26.3989 8.52891 25.2294 8.14265 24.3523 7.54003L23.3423 10.1977C24.2725 10.862 25.8407 11.3101 27.3956 11.3101Z" fill="#292827"/>
<path d="M0 14.9228H0.691643C1.1897 14.9228 1.53115 14.5944 1.53115 14.0897C1.53115 13.585 1.1897 13.2563 0.691643 13.2563H0V14.9228ZM0.35231 14.6061V13.5729H0.674292C0.976508 13.5729 1.17447 13.7706 1.17447 14.0895C1.17447 14.4085 0.976508 14.6061 0.674292 14.6061H0.35231Z" fill="#292827"/>
<path d="M2.91871 14.2877C2.91871 13.8758 2.6533 13.6235 2.30975 13.6235C1.95306 13.6235 1.68555 13.8996 1.68555 14.2829C1.68555 14.6639 1.94869 14.9424 2.3532 14.9424C2.56413 14.9424 2.72724 14.8709 2.83602 14.7352L2.65542 14.521C2.575 14.6043 2.48582 14.6447 2.3618 14.6447C2.18346 14.6447 2.05943 14.5471 2.02684 14.3876H2.91192C2.91418 14.3567 2.91855 14.3161 2.91855 14.2876L2.91871 14.2877ZM2.31186 13.9045C2.4641 13.9045 2.575 14.0092 2.59899 14.1711H2.02262C2.04661 14.0068 2.15751 13.9045 2.31186 13.9045Z" fill="#292827"/>
<path d="M3.58429 13.6235C3.39734 13.6235 3.20799 13.6783 3.07974 13.7783L3.2015 14.0379C3.2863 13.9641 3.41454 13.9188 3.53857 13.9188C3.72114 13.9188 3.8082 14.0116 3.8082 14.1711H3.53857C3.18173 14.1711 3.03613 14.3282 3.03613 14.5543C3.03613 14.7758 3.19924 14.9424 3.47324 14.9424C3.64509 14.9424 3.76685 14.8805 3.82992 14.7639V14.9234H4.14738V14.1925C4.14738 13.8044 3.94082 13.6235 3.58399 13.6235H3.58429ZM3.55834 14.6924C3.43869 14.6924 3.36687 14.6305 3.36687 14.5376C3.36687 14.4519 3.41696 14.3876 3.57569 14.3876H3.8085V14.5186C3.76927 14.6352 3.6715 14.6924 3.55834 14.6924Z" fill="#292827"/>
<path d="M4.4541 14.9231H4.79328V13.1567H4.4541V14.9231Z" fill="#292827"/>
<path d="M6.25513 14.2877C6.25513 13.8758 5.98973 13.6235 5.64617 13.6235C5.28949 13.6235 5.02197 13.8996 5.02197 14.2829C5.02197 14.6639 5.28511 14.9424 5.68978 14.9424C5.90071 14.9424 6.06381 14.8709 6.1726 14.7352L5.99199 14.521C5.91157 14.6043 5.8224 14.6447 5.69838 14.6447C5.52003 14.6447 5.39616 14.5471 5.36342 14.3876H6.24864C6.25076 14.3567 6.25513 14.3161 6.25513 14.2876V14.2877ZM5.64828 13.9045C5.80052 13.9045 5.91142 14.0092 5.93541 14.1711H5.35904C5.38303 14.0068 5.49393 13.9045 5.64828 13.9045Z" fill="#292827"/>
<path d="M6.80539 13.8117V13.6427H6.48145V14.9234H6.82063V14.3186C6.82063 14.0735 6.94465 13.9615 7.13175 13.9615C7.15785 13.9615 7.17958 13.9639 7.20794 13.9663V13.6235C7.02734 13.6235 6.88822 13.6878 6.80554 13.8115L6.80539 13.8117Z" fill="#292827"/>
<path d="M9.77379 14.9232L9.76941 13.2568H9.47972L8.91904 14.2923L8.34946 13.2568H8.05811V14.9232H8.38869V13.9449L8.83409 14.7471H8.99297L9.44064 13.9234L9.44275 14.9232H9.77379Z" fill="#292827"/>
<path d="M10.5833 13.6235C10.3962 13.6235 10.207 13.6783 10.0788 13.7783L10.2005 14.0379C10.2853 13.9641 10.4137 13.9188 10.5376 13.9188C10.7203 13.9188 10.8072 14.0116 10.8072 14.1711H10.5376C10.1809 14.1711 10.0352 14.3282 10.0352 14.5543C10.0352 14.7758 10.1983 14.9424 10.4723 14.9424C10.6441 14.9424 10.7659 14.8805 10.8289 14.7639V14.9234H11.1466V14.1925C11.1466 13.8044 10.94 13.6235 10.5832 13.6235H10.5833ZM10.5572 14.6924C10.4376 14.6924 10.3657 14.6305 10.3657 14.5376C10.3657 14.4519 10.4157 14.3876 10.5746 14.3876H10.8074V14.5186C10.7683 14.6352 10.6704 14.6924 10.5572 14.6924Z" fill="#292827"/>
<path d="M12.1644 13.6237C12.0057 13.6237 11.8687 13.6831 11.7772 13.7927V13.6427H11.4531V14.9234H11.7925V14.2901C11.7925 14.0545 11.9098 13.9449 12.0729 13.9449C12.2231 13.9449 12.31 14.0401 12.31 14.2473V14.9234H12.6493V14.1901C12.6493 13.7998 12.4405 13.6235 12.1642 13.6235L12.1644 13.6237Z" fill="#292827"/>
<path d="M13.428 13.6235C13.2411 13.6235 13.0517 13.6783 12.9235 13.7783L13.0452 14.0379C13.13 13.9641 13.2584 13.9188 13.3823 13.9188C13.565 13.9188 13.6519 14.0116 13.6519 14.1711H13.3823C13.0256 14.1711 12.8799 14.3282 12.8799 14.5543C12.8799 14.7758 13.043 14.9424 13.3171 14.9424C13.489 14.9424 13.6108 14.8805 13.6738 14.7639V14.9234H13.9913V14.1925C13.9913 13.8044 13.7847 13.6235 13.4279 13.6235H13.428ZM13.4021 14.6924C13.2824 14.6924 13.2106 14.6305 13.2106 14.5376C13.2106 14.4519 13.2607 14.3876 13.4194 14.3876H13.6522V14.5186C13.6132 14.6352 13.5152 14.6924 13.4022 14.6924H13.4021Z" fill="#292827"/>
<path d="M15.1964 13.6425V13.8069C15.1072 13.683 14.9725 13.6235 14.8092 13.6235C14.4851 13.6235 14.2241 13.8687 14.2241 14.2425C14.2241 14.6162 14.4851 14.8614 14.8092 14.8614C14.9615 14.8614 15.0897 14.809 15.1789 14.7019V14.7567C15.1789 14.9877 15.0745 15.1067 14.8352 15.1067C14.6852 15.1067 14.522 15.0495 14.4219 14.9616L14.287 15.2282C14.424 15.3448 14.6393 15.4044 14.8613 15.4044C15.2833 15.4044 15.5181 15.1853 15.5181 14.7093V13.6428H15.1961L15.1964 13.6425ZM14.8767 14.5566C14.6983 14.5566 14.5678 14.4305 14.5678 14.2425C14.5678 14.0543 14.6983 13.9282 14.8767 13.9282C15.055 13.9282 15.1833 14.0543 15.1833 14.2425C15.1833 14.4305 15.055 14.5566 14.8767 14.5566Z" fill="#292827"/>
<path d="M16.9797 14.2877C16.9797 13.8758 16.7143 13.6235 16.3708 13.6235C16.0141 13.6235 15.7466 13.8996 15.7466 14.2829C15.7466 14.6639 16.0097 14.9424 16.4142 14.9424C16.6252 14.9424 16.7883 14.8709 16.8971 14.7352L16.7165 14.521C16.636 14.6043 16.5469 14.6447 16.4228 14.6447C16.2445 14.6447 16.1205 14.5471 16.0879 14.3876H16.973C16.9752 14.3567 16.9796 14.3161 16.9796 14.2876L16.9797 14.2877ZM16.3729 13.9045C16.5251 13.9045 16.636 14.0092 16.66 14.1711H16.0837C16.1076 14.0068 16.2185 13.9045 16.3729 13.9045Z" fill="#292827"/>
<path d="M18.7046 13.6235C18.5284 13.6235 18.3761 13.702 18.2826 13.833C18.1999 13.6925 18.0608 13.6235 17.8977 13.6235C17.7476 13.6235 17.6171 13.6806 17.53 13.7903V13.6427H17.2061V14.9234H17.5452V14.2806C17.5452 14.052 17.6519 13.9451 17.8019 13.9451C17.9433 13.9451 18.0238 14.0403 18.0238 14.2474V14.9235H18.3632V14.2808C18.3632 14.0522 18.4697 13.9452 18.6219 13.9452C18.7589 13.9452 18.8439 14.0404 18.8439 14.2476V14.9237H19.1832V14.1904C19.1832 13.8001 18.9831 13.6238 18.7048 13.6238L18.7046 13.6235Z" fill="#292827"/>
<path d="M20.6467 14.2877C20.6467 13.8758 20.3813 13.6235 20.0378 13.6235C19.6811 13.6235 19.4136 13.8996 19.4136 14.2829C19.4136 14.6639 19.6767 14.9424 20.0812 14.9424C20.2922 14.9424 20.4553 14.8709 20.564 14.7352L20.3834 14.521C20.303 14.6043 20.2139 14.6447 20.0898 14.6447C19.9115 14.6447 19.7875 14.5471 19.7549 14.3876H20.6399C20.6422 14.3567 20.6466 14.3161 20.6466 14.2876L20.6467 14.2877ZM20.0399 13.9045C20.1921 13.9045 20.303 14.0092 20.327 14.1711H19.7506C19.7746 14.0068 19.8855 13.9045 20.0399 13.9045Z" fill="#292827"/>
<path d="M21.5842 13.6237C21.4253 13.6237 21.2883 13.6831 21.197 13.7927V13.6427H20.873V14.9234H21.2122V14.2901C21.2122 14.0545 21.3296 13.9449 21.4927 13.9449C21.6428 13.9449 21.7298 14.0401 21.7298 14.2473V14.9234H22.0691V14.1901C22.0691 13.7998 21.8603 13.6235 21.5842 13.6235V13.6237Z" fill="#292827"/>
<path d="M23.039 14.5996C23.0021 14.6306 22.952 14.6473 22.902 14.6473C22.8107 14.6473 22.7563 14.5877 22.7563 14.4783V13.9569H23.0478V13.6712H22.7563V13.3594H22.4169V13.6712H22.2363V13.9569H22.4169V14.483C22.4169 14.7878 22.5779 14.9424 22.854 14.9424C22.9584 14.9424 23.0606 14.9162 23.1303 14.8614L23.039 14.5996Z" fill="#292827"/>
<path d="M24.4616 14.9516C24.8966 14.9516 25.1075 14.7135 25.1075 14.4354C25.1075 13.8236 24.2225 14.0359 24.2225 13.7284C24.2225 13.6232 24.3029 13.5375 24.5117 13.5375C24.6466 13.5375 24.7922 13.5803 24.9337 13.6685L25.0425 13.3756C24.9011 13.278 24.7054 13.228 24.514 13.228C24.0812 13.228 23.8723 13.4637 23.8723 13.7475C23.8723 14.3664 24.7575 14.1522 24.7575 14.4641C24.7575 14.566 24.6727 14.6422 24.4639 14.6422C24.2812 14.6422 24.0898 14.5707 23.9614 14.4689L23.8418 14.7589C23.9767 14.8731 24.2202 14.9517 24.4616 14.9517V14.9516Z" fill="#292827"/>
<path d="M26.1385 13.6421L25.8079 14.511L25.4796 13.6421H25.1294L25.6362 14.9324L25.6318 14.9444C25.5861 15.0586 25.5339 15.1038 25.4405 15.1038C25.3731 15.1038 25.3012 15.0729 25.249 15.0228L25.125 15.2872C25.2012 15.3609 25.3317 15.4038 25.4512 15.4038C25.6621 15.4038 25.8231 15.3108 25.9361 15.0014L26.4647 13.6421H26.1385Z" fill="#292827"/>
<path d="M26.9804 14.9422C27.3306 14.9422 27.5328 14.7733 27.5328 14.5352C27.5328 14.0305 26.8259 14.2423 26.8259 14.0234C26.8259 13.9567 26.8913 13.9043 27.0434 13.9043C27.1499 13.9043 27.2653 13.9282 27.3804 13.9995L27.4936 13.7353C27.3827 13.6638 27.2044 13.6235 27.0434 13.6235C26.7019 13.6235 26.5018 13.7949 26.5018 14.0377C26.5018 14.5495 27.2087 14.3349 27.2087 14.5448C27.2087 14.6162 27.15 14.6615 26.9934 14.6615C26.8499 14.6615 26.6912 14.6115 26.5868 14.5377L26.4736 14.8043C26.5824 14.8828 26.7825 14.9424 26.9804 14.9424V14.9422Z" fill="#292827"/>
<path d="M28.4047 14.5996C28.3678 14.6306 28.3178 14.6473 28.2677 14.6473C28.1765 14.6473 28.122 14.5877 28.122 14.4783V13.9569H28.4133V13.6712H28.122V13.3594H27.7827V13.6712H27.6021V13.9569H27.7827V14.483C27.7827 14.7878 27.9435 14.9424 28.2198 14.9424C28.3242 14.9424 28.4265 14.9162 28.496 14.8614L28.4046 14.5996H28.4047Z" fill="#292827"/>
<path d="M29.7966 14.2877C29.7966 13.8758 29.5312 13.6235 29.1877 13.6235C28.831 13.6235 28.5635 13.8996 28.5635 14.2829C28.5635 14.6639 28.8266 14.9424 29.2313 14.9424C29.4422 14.9424 29.6053 14.8709 29.7141 14.7352L29.5335 14.521C29.4531 14.6043 29.3639 14.6447 29.2399 14.6447C29.0615 14.6447 28.9375 14.5471 28.9049 14.3876H29.7901C29.7923 14.3567 29.7966 14.3161 29.7966 14.2876V14.2877ZM29.1898 13.9045C29.342 13.9045 29.4529 14.0092 29.4769 14.1711H28.9005C28.9245 14.0068 29.0354 13.9045 29.1898 13.9045Z" fill="#292827"/>
<path d="M31.5215 13.6235C31.3453 13.6235 31.193 13.702 31.0995 13.833C31.017 13.6925 30.8777 13.6235 30.7146 13.6235C30.5645 13.6235 30.4341 13.6806 30.3469 13.7903V13.6427H30.0229V14.9234H30.3623V14.2806C30.3623 14.052 30.4688 13.9451 30.6189 13.9451C30.7603 13.9451 30.8409 14.0403 30.8409 14.2474V14.9235H31.1801V14.2808C31.1801 14.0522 31.2867 13.9452 31.4388 13.9452C31.5758 13.9452 31.6608 14.0404 31.6608 14.2476V14.9237H32V14.1904C32 13.8001 31.7999 13.6238 31.5215 13.6238V13.6235Z" fill="#292827"/>
</svg>
