<svg width="64" height="27" viewBox="0 0 64 27" fill="none" xmlns="http://www.w3.org/2000/svg">
<path fill-rule="evenodd" clip-rule="evenodd" d="M8.55843 12.8164C7.51436 14.7181 6.85498 16.8071 6.61705 18.9638C8.91812 20.2084 11.5018 20.8366 14.1173 20.7872C14.157 22.6304 14.157 24.4744 14.1173 26.3173C9.18693 25.6426 4.41097 24.1203 0 21.8169C0.354984 17.638 1.41935 13.5505 3.1478 9.72949L8.55843 12.8161V12.8164Z" fill="#E51F24"/>
<path fill-rule="evenodd" clip-rule="evenodd" d="M15.1195 6.2003C13.079 7.63436 11.2132 9.30251 9.56029 11.1704C5.8937 9.13135 4.06055 8.11169 4.06055 8.11169C7.63156 4.3895 11.447 1.65051 15.1118 0L15.1195 6.2003Z" fill="#BFC0C0"/>
<path fill-rule="evenodd" clip-rule="evenodd" d="M21.6799 12.8164C22.724 14.7181 23.3834 16.8071 23.6213 18.9638C21.3203 20.2084 18.7366 20.8366 16.1211 20.7872C16.0814 22.6304 16.0814 24.4744 16.1211 26.3173C21.0514 25.6426 25.8274 24.1203 30.2384 21.8169C29.8834 17.638 28.819 13.5505 27.0906 9.72949L21.6799 12.8161V12.8164Z" fill="#D93027"/>
<path fill-rule="evenodd" clip-rule="evenodd" d="M15.1192 6.2003C17.1597 7.63436 19.0255 9.30251 20.6783 11.1704C24.3449 9.13135 26.1781 8.11169 26.1781 8.11169C22.6071 4.3895 18.7764 1.65051 15.1118 0L15.1195 6.2003H15.1192Z" fill="#BFC0C0"/>
<path fill-rule="evenodd" clip-rule="evenodd" d="M20.5792 11.0589C18.9507 9.23575 17.119 7.60553 15.1194 6.20001C13.1198 7.60553 11.2878 9.23575 9.65967 11.0589C10.3767 9.39457 14.038 0.845549 15.1118 0C16.1735 0.795552 19.8745 9.42339 20.5792 11.0589Z" fill="#979898"/>
<path d="M38.5496 5.4751V8.19762H35.8841V5.4751H33.9292V12.7215H35.8841V9.89519H38.5496V12.7215H40.5045V5.4751H38.5496Z" fill="#292827"/>
<path d="M45.3717 12.8662C47.5833 12.8662 49.2121 11.2719 49.2121 9.09814C49.2121 6.92412 47.5833 5.33008 45.3717 5.33008C43.1603 5.33008 41.5312 6.92442 41.5312 9.09814C41.5312 11.2722 43.16 12.8662 45.3717 12.8662ZM45.3717 11.1683C44.3252 11.1683 43.5059 10.3507 43.5059 9.09814C43.5059 7.84555 44.3252 7.02794 45.3717 7.02794C46.4181 7.02794 47.2378 7.84555 47.2378 9.09814C47.2378 10.3507 46.4184 11.1683 45.3717 11.1683Z" fill="#292827"/>
<path d="M56.2914 5.4751H54.3959L52.7569 8.35291L51.1181 5.4751H49.0547L51.6907 10.0919V12.7215H53.6454V10.1231L56.2914 5.4751Z" fill="#292827"/>
<path d="M60.56 12.866C62.6037 12.866 63.8081 11.6549 63.8081 9.49119V5.47461H61.8832V9.42884C61.8832 10.6711 61.3894 11.1679 60.58 11.1679C59.7606 11.1679 59.2671 10.6711 59.2671 9.42884V5.47461H57.3125V9.49119C57.3125 11.6546 58.5169 12.866 60.5606 12.866H60.56Z" fill="#292827"/>
<path d="M36.257 20.8806C37.9384 20.8806 38.763 19.9991 38.763 18.9677C38.763 16.781 35.5538 17.4604 35.5538 16.5508C35.5538 16.2528 35.7964 16.0152 36.4672 16.0152C36.9602 16.0152 37.4937 16.1678 38.0354 16.4743L38.5286 15.227C37.9707 14.8879 37.211 14.71 36.4752 14.71C34.7938 14.71 33.9694 15.5746 33.9694 16.6355C33.9694 18.8407 37.1866 18.1554 37.1866 19.0936C37.1866 19.3818 36.9278 19.5753 36.2649 19.5753C35.6102 19.5753 34.8988 19.3395 34.3976 18.9933L33.8721 20.2279C34.4056 20.6179 35.3273 20.8806 36.2567 20.8806H36.257ZM46.0786 20.7617L46.0624 14.8285H44.7448L42.8049 18.2527L40.8165 14.8285H39.4989V20.7617H40.9779V17.7019L42.4249 20.1768H43.1364L44.5913 17.6169L44.6075 20.7614H46.0786V20.7617ZM51.4463 20.7617H53.1115L50.6054 14.8285H49.029L46.5312 20.7617H48.1641L48.6087 19.6091H51.0016L51.446 20.7617H51.4463ZM49.0778 18.3716L49.8055 16.4728L50.5331 18.3716H49.0778ZM57.0642 20.7617H58.778L57.5575 18.8968C58.2607 18.541 58.6648 17.8966 58.6648 17.0237C58.6648 15.6676 57.6948 14.8285 56.1508 14.8285H53.5641V20.7617H55.1646V19.1853H56.0375L57.0642 20.7617ZM57.0481 17.0237C57.0481 17.566 56.7166 17.8883 56.0537 17.8883H55.1646V16.1508H56.0537C56.7166 16.1508 57.0481 16.4728 57.0481 17.0237ZM60.6694 20.7617H62.2699V16.1593H63.9998V14.8285H58.9312V16.1593H60.6691V20.7617H60.6694Z" fill="#292827"/>
</svg>
