<svg width="26" height="25" viewBox="0 0 26 25" fill="none" xmlns="http://www.w3.org/2000/svg">
<circle cx="13.2113" cy="12.366" r="12.366" fill="#DC0921"/>
<circle cx="13.2113" cy="12.3658" r="8.95472" fill="white"/>
<path d="M5.10944 11.7392V12.9903C5.10944 13.1033 5.19069 13.201 5.30396 13.2186L6.69353 13.44C6.76894 13.8745 6.87911 14.2938 7.03301 14.6932L5.93643 15.5825C5.84932 15.6504 5.82626 15.776 5.88134 15.8741L6.50796 16.959C6.56615 17.0571 6.68217 17.0998 6.78649 17.0595L8.10652 16.5521C8.3823 16.8884 8.68975 17.1949 9.02338 17.4713L8.51864 18.7879C8.47801 18.8933 8.52139 19.0114 8.62021 19.0692L9.70542 19.6948C9.80114 19.7502 9.92577 19.7299 9.99566 19.6393L10.8833 18.5469C11.2837 18.6974 11.7044 18.811 12.1365 18.8812L12.3599 20.2725C12.3744 20.3858 12.4732 20.4688 12.5861 20.4688H13.8397C13.953 20.4688 14.0487 20.3858 14.0632 20.2725L14.2866 18.8812C14.719 18.811 15.1367 18.6974 15.5398 18.5469L16.4247 19.6393C16.5001 19.7299 16.622 19.7502 16.7177 19.6948L17.8056 19.0692C17.9014 19.0114 17.942 18.8933 17.9044 18.7879L17.3997 17.4713C17.7333 17.1952 18.0408 16.8888 18.3166 16.5521L19.6338 17.0595C19.7413 17.0995 19.8573 17.0568 19.9124 16.959L20.5417 15.8741C20.5968 15.776 20.5738 15.6504 20.4867 15.5825L19.3901 14.6932C19.5409 14.2938 19.6542 13.8745 19.7265 13.44L21.1219 13.2186C21.2321 13.201 21.3133 13.1033 21.3133 12.9903V11.7392C21.3133 11.6259 21.2321 11.5305 21.1219 11.513L19.7265 11.2919C19.6538 10.8602 19.5409 10.4405 19.3901 10.0384L20.4867 9.15214C20.5738 9.07915 20.5968 8.95382 20.5417 8.8557L19.9124 7.77324C19.8573 7.67753 19.7413 7.63208 19.6338 7.67512L18.3166 8.17744C18.0411 7.84313 17.7333 7.5343 17.3997 7.26024L17.9044 5.94435C17.942 5.83865 17.9017 5.71815 17.8056 5.66306L16.7177 5.03748C16.622 4.97964 16.5001 5.00477 16.4247 5.0905L15.5398 6.18811C15.1367 6.0349 14.7187 5.92438 14.2866 5.85173L14.0632 4.45768C14.0487 4.34717 13.953 4.2666 13.8397 4.2666H12.5861C12.4729 4.2666 12.3744 4.34682 12.3599 4.45768L12.1365 5.85173C11.7044 5.92438 11.2837 6.03524 10.8833 6.18811L9.99566 5.0905C9.92612 5.00477 9.80114 4.97998 9.70542 5.03748L8.62021 5.66306C8.52139 5.71815 8.47801 5.83899 8.51864 5.94435L9.02338 7.26024C8.68975 7.5343 8.3823 7.84313 8.10652 8.17744L6.78649 7.67512C6.68217 7.63208 6.5658 7.67753 6.50796 7.77324L5.88134 8.8557C5.82626 8.95382 5.84932 9.07915 5.93643 9.15214L7.03301 10.0384C6.87911 10.4405 6.76894 10.8602 6.69353 11.2919L5.30396 11.513C5.19069 11.5305 5.10944 11.6262 5.10944 11.7392Z" fill="black"/>
<path d="M7.59277 12.3649C7.59277 15.4674 10.1082 17.9828 13.2123 17.9828C16.3138 17.9828 18.8264 15.4677 18.8264 12.3649C18.8264 9.26249 16.3138 6.74707 13.2123 6.74707C10.1078 6.74707 7.59277 9.26214 7.59277 12.3649Z" fill="white"/>
<path d="M13.2127 20.4668H12.5861C12.4728 20.4668 12.3743 20.3838 12.3599 20.2705L12.1364 18.8793C11.7043 18.809 11.2836 18.6954 10.8832 18.5449L9.9956 19.6374C9.95222 19.6942 9.88818 19.7235 9.81863 19.7235C9.78076 19.7235 9.74048 19.7131 9.70536 19.6928L8.62015 19.0672C8.54474 19.0239 8.50412 18.9464 8.50412 18.8662C8.50412 18.8397 8.50997 18.8121 8.51858 18.786L9.02331 17.4694C8.68969 17.1932 8.38224 16.8868 8.10646 16.5501L6.78643 17.0576C6.76027 17.0679 6.7341 17.0724 6.70828 17.0724C6.63012 17.0724 6.55162 17.0304 6.5079 16.9571L5.88128 15.8722C5.86097 15.836 5.84926 15.7964 5.84926 15.7569C5.85202 15.6897 5.88128 15.6236 5.93637 15.5806L7.03295 14.6913C6.87905 14.2919 6.76887 13.8725 6.69347 13.438L5.3039 13.2166C5.19063 13.1991 5.10938 13.1013 5.10938 12.9884V11.7372C5.10938 11.6239 5.19063 11.5286 5.3039 11.511L6.69347 11.29C6.76887 10.8582 6.87905 10.4385 7.03295 10.0364L5.93637 9.15019C5.88128 9.10371 5.85236 9.03691 5.84926 8.96909C5.84926 8.92949 5.86097 8.8899 5.88128 8.85375L6.5079 7.77129C6.55162 7.70002 6.62702 7.65698 6.70518 7.65698C6.73444 7.65698 6.76027 7.66215 6.78643 7.67316L8.10646 8.17549C8.38224 7.84118 8.68969 7.53235 9.02331 7.25829L8.51858 5.94239C8.50997 5.91588 8.50412 5.88868 8.50412 5.86149C8.50412 5.78058 8.54474 5.70242 8.62015 5.66111L9.70536 5.03552C9.74014 5.01452 9.78076 5.00454 9.81863 5.00454C9.88543 5.00454 9.95222 5.03449 9.9956 5.08854L10.8832 6.18616C11.2836 6.03294 11.7043 5.92243 12.1364 5.84978L12.3599 4.45573C12.3743 4.34521 12.4731 4.26465 12.5861 4.26465H13.2127V6.74701C10.1082 6.74701 7.59312 9.26208 7.59312 12.3649C7.59312 15.4673 10.1085 17.9827 13.2127 17.9827V20.4665V20.4668Z" fill="black"/>
<path d="M13.2127 17.9828C10.1081 17.9828 7.59308 15.4677 7.59308 12.3649C7.59308 9.26249 10.1085 6.74707 13.2127 6.74707V7.12235C10.3144 7.12235 7.96698 9.46941 7.96698 12.3646C7.96698 15.2601 10.314 17.6068 13.2127 17.6068V17.9821V17.9828Z" fill="white"/>
<path d="M13.2112 8.44969C11.0484 8.44969 9.29521 10.2028 9.29521 12.3657C9.29521 14.5286 11.0484 16.2817 13.2112 16.2817C15.3741 16.2817 17.1272 14.5286 17.1272 12.3657C17.1272 10.2028 15.3741 8.44969 13.2112 8.44969ZM17.8523 12.3657C17.8523 14.929 15.7745 17.0068 13.2112 17.0068C10.6479 17.0068 8.57013 14.929 8.57013 12.3657C8.57013 9.80243 10.6479 7.72461 13.2112 7.72461C15.7745 7.72461 17.8523 9.80243 17.8523 12.3657Z" fill="#292827"/>
<path d="M13.2113 14.9905C13.5914 14.9905 13.9512 14.8989 14.2724 14.7354C14.0249 15.3716 13.9646 16.0368 13.9529 16.211C13.7126 16.2571 13.4651 16.2819 13.2113 16.2819C12.9576 16.2819 12.71 16.2568 12.4697 16.211C12.4577 16.0368 12.3978 15.3716 12.1502 14.7354C12.4714 14.8985 12.8316 14.9905 13.2113 14.9905Z" fill="#B3B3B3"/>
<path d="M15.4278 11.2164C14.8029 11.088 14.0417 10.9844 13.2112 10.9844C12.3808 10.9844 11.6196 11.088 10.9947 11.2164C10.8356 11.5635 10.7461 11.9536 10.7461 12.3657C10.7461 12.7623 10.8291 13.1386 10.9771 13.476C11.0253 13.4929 11.0742 13.5108 11.1241 13.5311C11.6337 13.7356 11.9518 14.2259 12.1498 14.7351C12.471 14.8983 12.8311 14.9902 13.2109 14.9902C13.591 14.9902 13.9508 14.8987 14.272 14.7351C14.47 14.2259 14.7881 13.7356 15.2977 13.5311C15.3479 13.5108 15.3968 13.4929 15.445 13.476C15.5931 13.1386 15.676 12.7627 15.676 12.3657C15.676 11.9536 15.5865 11.5635 15.4275 11.2164H15.4278ZM14.0957 12.3461C14.0957 12.8346 13.6998 13.2306 13.2112 13.2306C12.7227 13.2306 12.3267 12.8346 12.3267 12.3461C12.3267 11.8575 12.7227 11.4616 13.2112 11.4616C13.6998 11.4616 14.0957 11.8575 14.0957 12.3461Z" fill="black"/>
<path d="M15.4451 13.4764C15.5932 13.139 15.6761 12.763 15.6761 12.3661C15.6761 11.9539 15.5866 11.5638 15.4276 11.2168C16.2308 11.3821 16.8071 11.5876 17.0175 11.6682C17.0588 11.8947 17.0809 12.1278 17.0809 12.3664C17.0809 12.7193 17.033 13.0612 16.9438 13.3865C16.7951 13.3328 16.2645 13.1872 15.4451 13.4764Z" fill="#B3B3B3"/>
<path d="M9.47846 13.3865C9.38929 13.0612 9.34143 12.7193 9.34143 12.3664C9.34143 12.1281 9.36347 11.8951 9.40512 11.6682C9.61514 11.5876 10.1915 11.3821 10.9951 11.2168C10.836 11.5638 10.7465 11.9539 10.7465 12.3661C10.7465 12.7627 10.8295 13.139 10.9775 13.4764C10.1581 13.1872 9.62719 13.3325 9.47846 13.3865Z" fill="#B3B3B3"/>
</svg>
