<svg width="25" height="25" viewBox="0 0 25 25" fill="none" xmlns="http://www.w3.org/2000/svg">
<circle cx="12.366" cy="12.366" r="12.366" fill="#DC0921"/>
<circle cx="12.366" cy="12.3658" r="8.95472" fill="white"/>
<path fill-rule="evenodd" clip-rule="evenodd" d="M16.1575 13.9941C17.3046 14.0085 17.9658 14.0239 18.141 14.0404C18.1597 15.0091 18.1696 15.4939 18.1696 15.4939C16.8671 15.5589 16.25 15.5909 16.3194 15.5887C16.0935 14.7093 16.0395 14.1782 16.1575 13.9941Z" fill="#E8E9E9"/>
<path fill-rule="evenodd" clip-rule="evenodd" d="M8.83049 13.9941C7.68334 14.0085 7.02216 14.0239 6.84695 14.0404C6.82822 15.0091 6.8183 15.4939 6.8183 15.4939C8.12082 15.5589 8.73792 15.5909 8.6685 15.5887C8.8944 14.7093 8.9484 14.1782 8.83049 13.9941Z" fill="#E8E9E9"/>
<path fill-rule="evenodd" clip-rule="evenodd" d="M18.1464 14.3694C18.1145 12.3286 18.1002 11.3027 18.1013 11.2927C18.0958 10.9434 18.0936 10.7682 18.0936 10.7682C18.0925 10.6855 18.0913 10.6437 18.0913 10.6437C18.12 10.5214 18.1376 10.388 18.142 10.2437C18.1641 9.85356 18.1299 9.63427 18.0418 9.58689C17.9294 7.53282 17.7663 6.26336 17.5525 5.77849C17.072 5.53716 16.7646 5.41595 16.6301 5.41595C16.4395 5.276 16.2797 5.20547 16.1497 5.20327C13.7132 5.14596 12.4945 5.11621 12.4945 5.11621C12.4945 5.11621 11.2735 5.14486 8.83593 5.20327C8.7059 5.20547 8.54501 5.276 8.35548 5.41595C8.22104 5.41595 7.91359 5.53716 7.43313 5.77849C7.21935 6.26336 7.05626 7.53282 6.94386 9.58689C6.8546 9.63427 6.82154 9.85356 6.84358 10.2437C6.84909 10.388 6.86562 10.5214 6.89427 10.6437C6.89427 10.6437 6.89317 10.6855 6.89206 10.7682C6.89206 10.7682 6.88986 10.9434 6.88435 11.2927C6.88545 11.3038 6.87003 12.3286 6.83917 14.3694H18.1464Z" fill="#E8E9E9"/>
<path d="M8.40949 17.4062H7.0155V19.4394H8.40949V17.4062Z" fill="#404040"/>
<path fill-rule="evenodd" clip-rule="evenodd" d="M6.87341 17.293C6.87782 17.5266 6.88002 17.7602 6.88002 17.9927C7.97538 17.9993 8.52306 18.0026 8.52306 18.0026C8.52306 17.5905 8.52306 17.3844 8.52306 17.3844L6.87341 17.293Z" fill="#292827"/>
<path d="M17.9691 17.4062H16.5751V19.4394H17.9691V17.4062Z" fill="#404040"/>
<path fill-rule="evenodd" clip-rule="evenodd" d="M18.1113 17.293C18.1069 17.5266 18.1047 17.7602 18.1047 17.9927C17.0093 17.9993 16.4617 18.0026 16.4617 18.0026C16.4617 17.5905 16.4617 17.3844 16.4617 17.3844L18.1113 17.293Z" fill="#292827"/>
<path fill-rule="evenodd" clip-rule="evenodd" d="M6.83814 14.3691H18.1454C18.1443 14.2677 18.1421 14.1697 18.141 14.0738C18.0264 14.076 17.9173 14.0782 17.8137 14.0804C17.5162 14.0859 17.2683 14.0903 17.0688 14.0947C16.6622 14.1024 16.4594 14.1057 16.4594 14.1057C16.4704 12.8098 16.4748 12.1619 16.4748 12.1619C16.4715 11.925 16.3834 11.8026 16.2104 11.7949C15.2715 11.8181 14.3128 11.8324 13.3508 11.8368C13.4114 11.9283 13.4643 12.0274 13.5083 12.1332C14.1508 12.1222 15.0974 12.1068 16.3492 12.0869C16.3569 12.5564 16.2445 12.7867 16.012 12.7779C15.5977 12.7944 15.3905 12.8032 15.3905 12.8032C15.3828 12.6677 15.2913 12.6027 15.1161 12.6082C14.4075 12.6214 13.8422 12.6313 13.4213 12.639C13.353 12.7492 13.2648 12.8484 13.1568 12.9388C12.9353 12.9531 12.7138 12.9608 12.4923 12.9619C12.2708 12.9608 12.046 12.952 11.8245 12.9388C11.7165 12.8484 11.6284 12.7481 11.5601 12.639C11.138 12.6313 10.5727 12.6214 9.86524 12.6082C9.69003 12.6027 9.59857 12.6677 9.59085 12.8032C9.59085 12.8032 9.38368 12.7944 8.96934 12.7779C8.73683 12.7878 8.62443 12.5575 8.63214 12.0869C9.88287 12.1079 10.8295 12.1233 11.473 12.1332C11.5171 12.0274 11.57 11.9283 11.6306 11.8368C10.6686 11.8313 9.70987 11.817 8.77099 11.7949C8.59798 11.8015 8.50982 11.9239 8.50652 12.1619C8.50652 12.1619 8.51203 12.8098 8.52195 14.1057C8.52195 14.1057 8.31918 14.1024 7.91256 14.0947C7.7131 14.0914 7.46516 14.0859 7.16763 14.0804C7.06515 14.0782 6.95605 14.076 6.84035 14.0738C6.83924 14.1697 6.83704 14.2688 6.83594 14.3691H6.83814Z" fill="#6D6E6E"/>
<path fill-rule="evenodd" clip-rule="evenodd" d="M16.5035 14.9742C16.5035 14.9742 16.5046 14.8354 16.5068 14.5577C17.179 14.5346 17.7256 14.4706 18.1465 14.3682H6.83923C7.26018 14.4706 7.80676 14.5335 8.47896 14.5577C8.48116 14.8354 8.48227 14.9742 8.48227 14.9742C8.55279 15.0933 8.58034 15.2508 8.56271 15.4459C9.23601 15.4712 9.87184 15.4778 10.4691 15.4657C11.8014 15.5065 13.1844 15.5065 14.5166 15.4657C15.1139 15.4778 15.7497 15.4712 16.423 15.4459C16.4054 15.2497 16.433 15.0933 16.5035 14.9742Z" fill="#6D6E6E"/>
<path fill-rule="evenodd" clip-rule="evenodd" d="M15.9669 17.5202C17.0733 17.5797 17.7884 17.5036 18.1113 17.2932C18.1444 17.1763 18.1532 17.0628 18.1366 16.9526C18.443 16.816 18.3262 15.6248 18.3262 15.335C16.919 15.4463 15.6484 15.4903 14.5167 15.4672C13.1844 15.508 11.8014 15.508 10.4692 15.4672C9.33745 15.4903 8.06688 15.4452 6.65967 15.335C6.65967 15.6259 6.54176 16.816 6.84921 16.9526C6.83268 17.0628 6.84149 17.1763 6.87455 17.2932C7.19853 17.5036 7.9126 17.5797 9.01898 17.5202C11.2593 17.6061 13.7266 17.6061 15.968 17.5202H15.9669Z" fill="#7C8785"/>
<path fill-rule="evenodd" clip-rule="evenodd" d="M12.4934 9.87082C11.3022 9.87964 9.66577 9.83997 7.58966 9.75291C7.45963 9.7441 7.3858 9.65153 7.36927 9.47742C7.20398 8.28399 7.30977 7.06852 7.67672 5.92138C7.74614 5.85526 7.84863 5.82 7.98417 5.81449C10.9892 5.78033 12.4934 5.7627 12.4934 5.7627C12.4934 5.7627 13.9954 5.78033 17.0005 5.81449C17.136 5.8189 17.2385 5.85526 17.3079 5.92138C17.6749 7.06852 17.7806 8.28399 17.6154 9.47742C17.5977 9.65264 17.525 9.7441 17.395 9.75291C15.3189 9.83997 13.6857 9.87964 12.4945 9.87082H12.4934Z" fill="#353043"/>
<path fill-rule="evenodd" clip-rule="evenodd" d="M7.91473 14.0939C7.91032 13.8503 7.59296 13.3004 6.96484 12.4453C6.89982 13.1891 6.92627 13.6982 7.04418 13.9715C7.10699 14.0277 7.14887 14.0641 7.17091 14.0806L7.91583 14.095L7.91473 14.0939Z" fill="#FEC900"/>
<path fill-rule="evenodd" clip-rule="evenodd" d="M9.11035 17.5234C9.29328 18.0083 9.8652 18.221 10.8283 18.1615C11.906 18.1615 12.4636 18.1615 12.4934 18.1615C12.5242 18.1615 13.0785 18.1615 14.1563 18.1615C15.1183 18.221 15.6913 18.0083 15.8742 17.5234H9.11145H9.11035Z" fill="#404040"/>
<path fill-rule="evenodd" clip-rule="evenodd" d="M10.7546 17.5527H12.402H12.4913H14.3227V18.2558H12.4913H12.402H10.7546V17.5527Z" fill="#292827"/>
<path fill-rule="evenodd" clip-rule="evenodd" d="M8.3015 12.3947C8.3015 12.3947 8.30591 12.9082 8.31362 13.9363C8.31362 13.9363 8.2475 13.8713 8.11637 13.7435C8.11637 13.7435 8.09653 13.079 8.05686 11.7489C8.05686 11.209 7.61497 11.0679 7.21716 10.8145C7.56538 10.9202 7.88275 11.0492 8.17147 11.2012C8.27836 11.3665 8.33015 11.5627 8.31693 11.7588L8.3015 12.3958V12.3947Z" fill="#D3D5D5"/>
<path d="M6.32794 6.50293H5.54333V8.4501H6.32794V6.50293Z" fill="black"/>
<path d="M6.32794 8.57227H5.54333V9.21912H6.32794V8.57227Z" fill="black"/>
<path d="M7.21392 6.40378C7.16653 6.32775 7.08939 6.26494 6.98471 6.21535C6.87561 6.16356 6.73676 6.12719 6.56706 6.10515C6.47339 6.10185 6.38083 6.09964 6.28826 6.10074C6.20011 6.10185 6.11195 6.10405 6.02159 6.10846C5.99183 6.12829 5.97861 6.16025 5.98081 6.20543L5.90588 9.36367C5.918 9.39232 5.94335 9.41766 5.98192 9.4375C6.0304 9.46284 6.09873 9.48158 6.18578 9.49149L7.19408 9.48378V9.60279L6.17586 9.61051H6.17366C6.07118 9.59838 5.98853 9.57524 5.92572 9.54218C5.85629 9.50472 5.81001 9.45513 5.78907 9.39232L5.78577 9.3824L5.8607 6.20874C5.85629 6.10956 5.89486 6.03903 5.9753 5.99716L5.98632 5.99165L5.99955 5.99055C6.09432 5.98504 6.18909 5.98283 6.28606 5.98173C6.38193 5.98063 6.4778 5.98283 6.57257 5.98614H6.57808C6.76101 6.00928 6.91308 6.05005 7.03429 6.10736C7.15992 6.16686 7.25248 6.244 7.31309 6.34097L7.21281 6.40378H7.21392Z" fill="black"/>
<path fill-rule="evenodd" clip-rule="evenodd" d="M12.4935 16.3443C12.4935 16.3443 13.6659 16.33 16.0109 16.3002C16.9322 16.3123 17.3443 16.093 17.2473 15.6445C15.5657 15.7217 13.9778 15.7602 12.4912 15.758C11.0036 15.7602 9.42007 15.7217 7.73736 15.6445C7.64039 16.0941 8.05253 16.3123 8.97377 16.3002C11.3188 16.33 12.4935 16.3443 12.4935 16.3443Z" fill="#353043"/>
<path fill-rule="evenodd" clip-rule="evenodd" d="M12.4934 12.6546C12.4934 12.6546 13.3683 12.6391 15.1183 12.6072C15.2935 12.6017 15.3849 12.6667 15.3926 12.8022C15.3926 12.8022 15.5998 12.7934 16.0142 12.7769C16.2467 12.7868 16.3591 12.5565 16.3514 12.0859C13.7794 12.1278 12.4934 12.1487 12.4934 12.1487C12.4934 12.1487 11.2041 12.1278 8.63318 12.0859C8.62547 12.5554 8.73787 12.7857 8.97039 12.7769C9.38473 12.7934 9.59189 12.8022 9.59189 12.8022C9.59961 12.6667 9.69107 12.6017 9.86628 12.6072C11.6162 12.6391 12.4934 12.6546 12.4934 12.6546Z" fill="#E8E9E9"/>
<path fill-rule="evenodd" clip-rule="evenodd" d="M17.0699 14.0939C17.0743 13.8503 17.3906 13.3004 18.0198 12.4453C18.0848 13.1891 18.0583 13.6982 17.9415 13.9715C17.8787 14.0277 17.8369 14.0641 17.8148 14.0806L17.0699 14.095V14.0939Z" fill="#FEC900"/>
<path fill-rule="evenodd" clip-rule="evenodd" d="M16.683 12.3947C16.683 12.3947 16.6786 12.9082 16.6709 13.9363C16.6709 13.9363 16.737 13.8713 16.8682 13.7435C16.8682 13.7435 16.888 13.079 16.9277 11.7489C16.9277 11.209 17.3696 11.0679 17.7674 10.8145C17.4192 10.9202 17.1018 11.0492 16.8131 11.2012C16.7062 11.3665 16.6544 11.5627 16.6676 11.7588L16.683 12.3958V12.3947Z" fill="#D3D5D5"/>
<path d="M19.4413 6.50293H18.6567V8.4501H19.4413V6.50293Z" fill="black"/>
<path d="M19.4413 8.57227H18.6567V9.21912H19.4413V8.57227Z" fill="black"/>
<path d="M17.7707 6.40378C17.8181 6.32775 17.8953 6.26494 18 6.21535C18.1091 6.16356 18.2479 6.12719 18.4176 6.10515C18.5113 6.10185 18.6038 6.09964 18.6964 6.10074C18.7846 6.10185 18.8727 6.10405 18.9631 6.10846C18.9928 6.12829 19.0061 6.16025 19.0038 6.20543L19.0788 9.36367C19.0667 9.39232 19.0413 9.41766 19.0027 9.4375C18.9543 9.46284 18.8859 9.48158 18.7989 9.49149L17.7906 9.48378V9.60279L18.8088 9.61051H18.811C18.9135 9.59838 18.9961 9.57524 19.0589 9.54218C19.1284 9.50472 19.1747 9.45513 19.1956 9.39232L19.1989 9.3824L19.124 6.20874C19.1284 6.10956 19.0898 6.03903 19.0094 5.99716L18.9983 5.99165L18.9851 5.99055C18.8914 5.98504 18.7956 5.98283 18.6986 5.98173C18.6027 5.98063 18.5069 5.98283 18.4121 5.98614H18.4066C18.2237 6.00928 18.0716 6.05005 17.9504 6.10736C17.8247 6.16686 17.7322 6.244 17.6716 6.34097L17.7718 6.40378H17.7707Z" fill="black"/>
<path fill-rule="evenodd" clip-rule="evenodd" d="M12.4934 13.9036C12.4934 13.9036 13.3683 13.8881 15.1183 13.8562C15.2935 13.8507 15.3849 13.9157 15.3926 14.0512C15.3926 14.0512 15.5998 14.0424 16.0142 14.0259C16.2467 14.0358 16.3591 13.8055 16.3514 13.335C13.7794 13.3768 12.4934 13.3978 12.4934 13.3978C12.4934 13.3978 11.2041 13.3768 8.63318 13.335C8.62547 13.8044 8.73787 14.0347 8.97039 14.0259C9.38473 14.0424 9.59189 14.0512 9.59189 14.0512C9.59961 13.9157 9.69107 13.8507 9.86628 13.8562C11.6162 13.8881 12.4934 13.9036 12.4934 13.9036Z" fill="#E8E9E9"/>
<path fill-rule="evenodd" clip-rule="evenodd" d="M12.4934 15.0919C12.4934 15.0919 13.3683 15.0765 15.1183 15.0445C15.2935 15.039 15.3849 15.104 15.3926 15.2407C15.3926 15.2407 15.5998 15.2319 16.0142 15.2153C16.2467 15.2253 16.3591 14.995 16.3514 14.5244C13.7794 14.5663 12.4934 14.5872 12.4934 14.5872C12.4934 14.5872 11.2041 14.5663 8.63318 14.5244C8.62547 14.9939 8.73787 15.2242 8.97039 15.2153C9.38473 15.2319 9.59189 15.2407 9.59189 15.2407C9.59961 15.1052 9.69107 15.0401 9.86628 15.0445C11.6162 15.0765 12.4934 15.0919 12.4934 15.0919Z" fill="#E8E9E9"/>
<path fill-rule="evenodd" clip-rule="evenodd" d="M12.4935 12.9625C12.272 12.9614 12.0472 12.9525 11.8257 12.9393C11.6141 12.7619 11.4775 12.5459 11.4158 12.2925C11.5205 11.9685 11.6935 11.7018 11.9359 11.4946C11.9359 11.4946 12.1232 11.4935 12.4935 11.4902C12.8627 11.4924 13.0478 11.4946 13.0478 11.4946C13.2902 11.7029 13.4632 11.9685 13.5679 12.2925C13.5062 12.5459 13.3696 12.7608 13.158 12.9393C12.9365 12.9536 12.715 12.9614 12.4935 12.9625Z" fill="#353043"/>
<path fill-rule="evenodd" clip-rule="evenodd" d="M8.49218 16.5421C7.50262 16.6203 6.67394 16.7151 6.84915 15.5459C7.03979 15.569 7.23043 15.5966 7.41997 15.6274C8.85473 15.8313 8.73241 16.5685 8.49218 16.5421Z" fill="#FEFEFE"/>
<path fill-rule="evenodd" clip-rule="evenodd" d="M16.4936 16.5421C17.4831 16.6203 18.3118 16.7151 18.1366 15.5459C17.946 15.569 17.7553 15.5966 17.5658 15.6274C16.131 15.8313 16.2533 16.5685 16.4936 16.5421Z" fill="#FEFEFE"/>
<path fill-rule="evenodd" clip-rule="evenodd" d="M12.5209 12.2288C12.6179 12.2277 12.7149 12.2277 12.8119 12.2266C12.8482 12.2266 12.8846 12.2255 12.9199 12.2255C12.9551 12.2255 12.9893 12.2255 13.0234 12.2255C13.0719 12.2277 13.1292 12.2233 13.1689 12.2431C13.1909 12.2542 13.1986 12.2696 13.2031 12.2938C13.2031 12.296 13.2031 12.2971 13.2042 12.2982C13.2031 12.3324 13.1821 12.3732 13.1667 12.4051C13.1447 12.4514 13.1061 12.4933 13.0675 12.5308C13.0003 12.5958 12.8703 12.6707 12.7314 12.7082C12.7127 12.7137 12.6895 12.7214 12.6697 12.7258C12.6543 12.7302 12.6598 12.7368 12.6697 12.7368C12.6917 12.7346 12.7171 12.7291 12.7358 12.7247C12.8956 12.6839 13.0069 12.62 13.0829 12.5583C13.1281 12.5208 13.1766 12.469 13.2075 12.4139C13.2284 12.3765 13.2504 12.317 13.2526 12.2938C13.256 12.2652 13.2604 12.2498 13.2582 12.2035C13.2537 12.1252 13.2295 12.0635 13.1843 11.993C13.181 11.9875 13.1766 11.9831 13.1733 11.9787C13.1722 11.9765 13.17 11.9721 13.1722 11.9688L13.1733 11.9677C13.1777 11.9665 13.1832 11.971 13.1865 11.9754C13.224 12.0172 13.2449 12.0514 13.2648 12.0933C13.2912 12.1495 13.2978 12.1902 13.3022 12.2398C13.3033 12.2487 13.3133 12.2542 13.3144 12.2376C13.3166 12.1847 13.3044 12.1285 13.2824 12.0789C13.2571 12.0216 13.2295 11.9897 13.1942 11.9467C13.1942 11.9467 13.1942 11.9467 13.1931 11.9456C13.1513 11.9026 13.1006 11.8619 13.0499 11.8299C12.9716 11.7803 12.8912 11.7473 12.8041 11.7241C12.7689 11.7142 12.7314 11.7065 12.6951 11.7032C12.684 11.7021 12.6708 11.7021 12.6598 11.7021C12.6521 11.7021 12.6433 11.7109 12.6598 11.7142C12.6829 11.7197 12.705 11.7252 12.7281 11.7318C12.813 11.7561 12.8978 11.7891 12.9727 11.8365C13.0356 11.8762 13.0664 11.8971 13.1402 11.9897C13.1491 12.0029 13.1689 12.0338 13.1799 12.0591C13.1876 12.0767 13.1987 12.1043 13.1987 12.1252V12.1263C13.1964 12.1462 13.192 12.1605 13.1755 12.1704C13.1424 12.1902 13.1127 12.1913 13.0664 12.1936C13.0345 12.1947 13.0014 12.1958 12.9694 12.1969C12.9221 12.198 12.8747 12.1991 12.8262 12.2002C12.7237 12.2024 12.6201 12.2035 12.5165 12.2046C12.5055 12.2046 12.4945 12.2046 12.4835 12.2046C12.3788 12.2057 12.273 12.2057 12.1672 12.2057C12.1187 12.2057 12.0724 12.2057 12.024 12.2057C11.992 12.2057 11.9589 12.2057 11.927 12.2046C11.8807 12.2035 11.8509 12.2024 11.8179 12.1825C11.8014 12.1737 11.7969 12.1594 11.7947 12.1396V12.1385C11.7947 12.1175 11.8047 12.09 11.8124 12.0723C11.8234 12.047 11.8432 12.015 11.8509 12.0018C11.9237 11.9081 11.9545 11.8872 12.0162 11.8453C12.0901 11.7957 12.1738 11.7616 12.2587 11.7362C12.2818 11.7296 12.3039 11.723 12.3259 11.7175C12.3424 11.7131 12.3336 11.7043 12.3259 11.7054C12.3149 11.7054 12.3016 11.7054 12.2906 11.7076C12.2532 11.712 12.2168 11.7208 12.1815 11.7307C12.0956 11.7561 12.0151 11.7902 11.938 11.8409C11.8873 11.874 11.8377 11.9159 11.7969 11.9599C11.7969 11.9599 11.7969 11.9599 11.7958 11.961C11.7617 12.004 11.7352 12.036 11.711 12.0944C11.6901 12.144 11.679 12.2013 11.6823 12.2542C11.6834 12.2696 11.6934 12.2652 11.6945 12.2553C11.6978 12.2057 11.7044 12.1649 11.7297 12.1076C11.7496 12.0646 11.7694 12.0305 11.8058 11.9886C11.8091 11.9853 11.8157 11.9798 11.819 11.9809L11.8201 11.982C11.8223 11.9864 11.8201 11.9897 11.819 11.9919C11.8157 11.9974 11.8113 12.0018 11.808 12.0062C11.7639 12.0778 11.7396 12.1396 11.7374 12.2178C11.7363 12.2641 11.7407 12.2784 11.7452 12.3071C11.7485 12.3291 11.7705 12.3886 11.7925 12.4261C11.8245 12.4801 11.873 12.5319 11.9193 12.5682C11.9964 12.6288 12.1088 12.6905 12.2697 12.728C12.2895 12.7324 12.3138 12.7379 12.3369 12.739C12.3468 12.7401 12.3523 12.7324 12.3369 12.728C12.316 12.7236 12.2939 12.7159 12.2752 12.7115C12.1364 12.6762 12.0041 12.6035 11.9358 12.5396C11.8961 12.5021 11.8576 12.4613 11.8344 12.415C11.8179 12.3831 11.7969 12.3434 11.7947 12.3093C11.7947 12.3082 11.7947 12.3071 11.7947 12.3049C11.7981 12.2806 11.8058 12.2652 11.8278 12.2542C11.8675 12.2332 11.9237 12.2365 11.9733 12.2343C12.0085 12.2343 12.0427 12.2332 12.0768 12.2332C12.1132 12.2332 12.1496 12.2332 12.1848 12.2321C12.284 12.231 12.3843 12.2299 12.4835 12.2288C12.4945 12.2288 12.5055 12.2288 12.5165 12.2288H12.5209ZM12.5198 12.1936C12.5893 12.1925 12.6576 12.1925 12.7259 12.1913C12.7755 12.1902 12.8251 12.1891 12.8736 12.1869C12.9176 12.1858 12.9617 12.1836 13.0069 12.1803C13.0488 12.177 13.1061 12.1693 13.116 12.1627C13.1226 12.1583 13.1204 12.1517 13.1149 12.1462C13.1061 12.1385 13.094 12.1329 13.0829 12.1285C13.0785 12.1263 13.0708 12.1274 13.0675 12.1307C13.0587 12.1374 13.0543 12.1396 13.0444 12.1429C13.0036 12.1539 12.9738 12.1594 12.9188 12.1638C12.878 12.1671 12.8372 12.1704 12.7964 12.1715C12.705 12.1748 12.6488 12.1759 12.5198 12.1781C12.5088 12.1781 12.4967 12.1781 12.4857 12.1781C12.3545 12.1792 12.2972 12.1792 12.2047 12.177C12.1639 12.1759 12.1231 12.1737 12.0824 12.1715C12.0284 12.1682 11.9986 12.1638 11.9567 12.1528C11.9468 12.1506 11.9413 12.1484 11.9336 12.1418C11.9292 12.1385 11.9226 12.1374 11.9182 12.1396C11.9071 12.144 11.895 12.1506 11.8862 12.1572C11.8807 12.1616 11.8774 12.1682 11.8851 12.1737C11.895 12.1803 11.9523 12.1869 11.9942 12.1891C12.0394 12.1913 12.0824 12.1936 12.1275 12.1936C12.1771 12.1947 12.2267 12.1947 12.2763 12.1947C12.3457 12.1947 12.4163 12.1936 12.4868 12.1936C12.4978 12.1936 12.5099 12.1936 12.5209 12.1936H12.5198ZM12.5187 12.1561C12.6598 12.155 12.8097 12.155 12.9485 12.1396C13.0179 12.1318 13.0378 12.0944 13.0411 12.0701C13.0499 11.9897 12.9298 11.8861 12.867 11.853C12.7821 11.8079 12.7061 11.7726 12.6047 11.7462C12.5915 11.7428 12.5838 11.7285 12.5827 11.7164C12.5827 11.7054 12.5981 11.6933 12.608 11.6911C12.64 11.6833 12.673 11.6844 12.7061 11.69C12.759 11.6977 12.8097 11.7065 12.8614 11.7219C12.9298 11.7417 13.0047 11.7759 13.0708 11.8167C13.1557 11.8685 13.2295 11.9346 13.2835 12.0183C13.321 12.0767 13.3496 12.1539 13.3507 12.22C13.3518 12.3004 13.321 12.3798 13.2769 12.4492C13.235 12.5153 13.1755 12.5704 13.1116 12.6178C13.0532 12.6608 12.9871 12.6938 12.9199 12.7203C12.8614 12.7434 12.7997 12.7578 12.738 12.7688C12.6984 12.7754 12.6598 12.7787 12.6201 12.7721C12.6102 12.771 12.5926 12.7589 12.5915 12.7478C12.5904 12.7357 12.5992 12.7225 12.6102 12.7192C12.6433 12.7093 12.6984 12.6916 12.738 12.674C12.7887 12.652 12.8405 12.6288 12.8868 12.598C12.932 12.5671 12.9772 12.5319 13.0069 12.4878C13.0234 12.4635 13.0411 12.4316 13.0422 12.4062C13.0433 12.3908 13.0433 12.3721 13.0356 12.36C13.0047 12.3104 12.921 12.3137 12.8581 12.3115C12.8008 12.3093 12.7446 12.3093 12.6873 12.3082C12.63 12.3071 12.5617 12.3071 12.5033 12.3071C12.4449 12.3082 12.3766 12.3093 12.3193 12.3115C12.262 12.3137 12.2058 12.3148 12.1485 12.3181C12.0857 12.3214 12.0008 12.3203 11.9711 12.3699C11.9633 12.3831 11.9633 12.4007 11.9655 12.4162C11.9678 12.4404 11.9854 12.4735 12.0019 12.4966C12.0328 12.5396 12.078 12.5748 12.1242 12.6046C12.1705 12.6343 12.2234 12.6575 12.2741 12.6784C12.3138 12.6949 12.37 12.7126 12.403 12.7214C12.4141 12.7247 12.4229 12.7379 12.4218 12.75C12.4207 12.7611 12.4041 12.7732 12.3931 12.7743C12.3534 12.7809 12.3149 12.7787 12.2752 12.7732C12.2124 12.7644 12.1507 12.7511 12.0923 12.728C12.024 12.7027 11.9578 12.6707 11.8983 12.6288C11.8333 12.5825 11.7738 12.5297 11.7297 12.4635C11.6845 12.3952 11.6526 12.3159 11.6515 12.2354C11.6515 12.1704 11.6779 12.0922 11.7154 12.0327C11.7672 11.9478 11.8399 11.8806 11.9237 11.8266C11.9887 11.7847 12.0625 11.7495 12.1308 11.7285C12.1826 11.712 12.2333 11.7021 12.2862 11.6933C12.3193 11.6878 12.3523 11.6855 12.3843 11.6933C12.3942 11.6955 12.4107 11.7076 12.4107 11.7186C12.4107 11.7307 12.403 11.7451 12.3898 11.7484C12.2895 11.7759 12.2135 11.8134 12.1297 11.8597C12.068 11.8938 11.9501 12.0007 11.96 12.0801C11.9633 12.1043 11.9832 12.1407 12.0537 12.1473C12.1937 12.1605 12.3457 12.1572 12.4879 12.1561C12.4989 12.1561 12.5099 12.1561 12.5209 12.1561H12.5187Z" fill="#D3D5D5"/>
</svg>
