<svg width="26" height="25" viewBox="0 0 26 25" fill="none" xmlns="http://www.w3.org/2000/svg">
<circle cx="12.7886" cy="12.366" r="12.366" fill="#DC0921"/>
<circle cx="12.7886" cy="12.3658" r="8.95472" fill="white"/>
<path d="M8.44849 7.64062L14.4421 13.6331L14.0553 14.0199L8.06281 8.02742L8.44849 7.64062Z" fill="#999999"/>
<path d="M8.47503 7.66625L8.13342 7.16375L7.53616 6.82324L7.3907 6.9687L7.24524 7.11306L7.58465 7.71143L8.08714 8.05304C8.08714 8.05304 8.78469 8.55113 8.87835 8.45746C8.97202 8.36379 8.47393 7.66625 8.47393 7.66625H8.47503Z" fill="#5E9EA7"/>
<path d="M7.53616 6.82324L7.3907 6.9687L7.24524 7.11306L7.58575 7.71143L8.13342 7.16375L7.53616 6.82324Z" fill="#1A1A1A"/>
<path d="M18.1833 16.0796C17.9078 15.8041 17.0042 14.9005 16.5832 14.4796C16.1623 14.0597 15.7292 14.0575 14.9303 13.4404C14.138 12.8288 13.8691 12.1963 13.8691 12.1963L13.2443 12.8211L12.6194 13.4459C12.6194 13.4459 13.252 13.7159 13.8636 14.5082C14.4807 15.3071 14.4818 15.7402 14.9027 16.1612C15.3237 16.5821 16.2273 17.4857 16.5028 17.7612C16.7783 18.0367 17.4405 18.4764 18.1701 17.7469C18.8996 17.0174 18.4599 16.3551 18.1844 16.0796H18.1833Z" fill="#1A1A1A"/>
<path d="M17.9949 16.5179C17.7404 16.162 15.1254 13.936 14.7419 14.3184C14.3584 14.7019 16.5855 17.3169 16.9403 17.5714C17.3018 17.8293 17.6478 17.5593 17.8153 17.3918C17.9828 17.2243 18.2517 16.8772 17.9938 16.5168L17.9949 16.5179Z" fill="#CCCCCC"/>
<path d="M13.869 12.1953L13.7335 12.0598L13.166 11.9694L12.972 12.1634L12.5588 11.749L12.172 12.1358L12.5863 12.5502L12.3924 12.743L12.4828 13.3105L12.6183 13.4461C12.6183 13.4461 12.7869 13.5188 13.0337 13.6973L14.1192 12.6119C13.9407 12.365 13.8679 12.1964 13.8679 12.1964L13.869 12.1953Z" fill="#CCCCCC"/>
<path d="M7.99006 16.1163C8.38125 15.7251 9.01488 15.7251 9.40498 16.1163C9.79618 16.5075 9.79618 17.1401 9.40498 17.5313C9.01378 17.9225 8.38015 17.9225 7.99006 17.5313C7.59886 17.1401 7.59886 16.5064 7.99006 16.1163ZM7.76856 17.7527C8.28208 18.2663 9.11296 18.2663 9.62648 17.7527C10.2149 17.1643 10.1102 16.2078 11.1152 15.2039L15.0889 11.2302C16.0939 10.2252 16.9931 10.2098 17.7568 9.86047C18.3926 9.38662 18.6042 8.06867 18.2229 7.65874L17.4758 8.97779C16.8664 8.94363 16.4796 8.69128 16.0928 8.20862L16.8234 6.84989C16.4278 6.78488 15.7964 6.99205 15.2531 7.88354C14.9512 8.72654 15.2961 9.42739 14.2911 10.4324L10.3174 14.4061C9.31241 15.4111 8.35701 15.3053 7.76856 15.8948C7.25504 16.4083 7.25504 17.2392 7.76856 17.7527Z" fill="#999999"/>
<path d="M10.3538 14.8548C10.2899 14.7909 10.2899 14.6873 10.3538 14.6234L14.5093 10.4679C14.5732 10.4039 14.6768 10.4039 14.7407 10.4679L15.0526 10.7797C15.1165 10.8436 15.1165 10.9472 15.0526 11.0111L10.8971 15.1666C10.8331 15.2306 10.7296 15.2306 10.6656 15.1666L10.3538 14.8548Z" fill="#CCCCCC"/>
<path d="M7.79831 16.8583C7.79721 16.8351 7.79721 16.812 7.79831 16.7888L7.97463 16.6302L7.90079 16.4032C7.91181 16.3833 7.92394 16.3635 7.93606 16.3447L8.16857 16.2952L8.21816 16.0626C8.238 16.0505 8.25673 16.0384 8.27656 16.0274L8.50357 16.1012L8.66225 15.9249C8.68539 15.9238 8.70854 15.9238 8.73168 15.9249L8.89036 16.1012L9.11737 16.0274C9.1372 16.0384 9.15704 16.0505 9.17577 16.0626L9.22536 16.2952L9.45787 16.3447C9.46999 16.3635 9.48212 16.3833 9.49314 16.4032L9.4193 16.6302L9.59562 16.7888C9.59672 16.812 9.59672 16.8351 9.59562 16.8583L9.4193 17.0169L9.49314 17.244C9.48212 17.2638 9.46999 17.2836 9.45787 17.3024L9.22536 17.3519L9.17577 17.5845C9.15593 17.5966 9.1372 17.6087 9.11737 17.6186L8.89036 17.5448L8.73168 17.7211C8.70854 17.7222 8.68539 17.7222 8.66225 17.7211L8.50357 17.5448L8.27656 17.6186C8.25673 17.6076 8.23689 17.5966 8.21816 17.5845L8.16857 17.3519L7.93606 17.3024C7.92394 17.2825 7.91181 17.2638 7.90079 17.244L7.97463 17.0169L7.79831 16.8583ZM9.40498 17.5316C9.79618 17.1404 9.79618 16.5067 9.40498 16.1166C9.01378 15.7254 8.38015 15.7254 7.99005 16.1166C7.59886 16.5078 7.59886 17.1404 7.99005 17.5316C8.38125 17.9228 9.01488 17.9228 9.40498 17.5316Z" fill="#353F48"/>
</svg>
