<svg width="48" height="48" viewBox="0 0 48 48" fill="none" xmlns="http://www.w3.org/2000/svg">
<path d="M24 48C37.2548 48 48 37.2548 48 24C48 10.7452 37.2548 0 24 0C10.7452 0 0 10.7452 0 24C0 37.2548 10.7452 48 24 48Z" fill="#C80000"/>
<path d="M17.3838 44.3391H44.5991V7.28467H17.3838V44.3391Z" fill="black"/>
<path d="M42.0893 5.68066V36.1039L35.4581 42.7351H14.8813V5.68066H42.0893Z" fill="white"/>
<path d="M35.458 42.7352V36.104H42.0892L35.458 42.7352Z" fill="#B3B3B3"/>
<path d="M5.23502 27.46L2.19046 30.5045C1.60383 31.0912 1.60383 32.0491 2.19046 32.6357C2.7771 33.2223 3.72759 33.2223 4.32165 32.6357L7.36621 29.5911L5.23502 27.46Z" fill="#666666"/>
<path d="M6.84668 26.9619L7.86401 27.9792L9.64618 26.2044L8.62886 25.1797L6.84668 26.9619Z" fill="black"/>
<path d="M5.10894 25.9309C4.91587 26.124 4.81934 26.3839 4.81934 26.6364C4.81934 26.8963 4.91587 27.1487 5.11637 27.3418L7.48518 29.7106C7.87874 30.1042 8.5025 30.1042 8.89607 29.7106C9.08914 29.5175 9.1931 29.2576 9.1931 29.0052C9.1931 28.7527 9.09656 28.4928 8.89607 28.2997L6.52726 25.9309C6.13369 25.5374 5.50993 25.5374 5.11637 25.9309H5.10894Z" fill="black"/>
<path fill-rule="evenodd" clip-rule="evenodd" d="M14.3392 12.6753C10.0026 12.6753 6.49023 16.1877 6.49023 20.5243C6.49023 24.8609 10.0026 28.3733 14.3392 28.3733C18.6759 28.3733 22.1883 24.8609 22.1883 20.5243C22.1883 16.1877 18.6759 12.6753 14.3392 12.6753ZM14.3392 14.1382C10.812 14.1382 7.95311 16.9971 7.95311 20.5243C7.95311 24.0515 10.812 26.9104 14.3392 26.9104C17.8665 26.9104 20.7254 24.0515 20.7254 20.5243C20.7254 16.9971 17.8665 14.1382 14.3392 14.1382Z" fill="black"/>
<path fill-rule="evenodd" clip-rule="evenodd" d="M14.3388 26.911C10.8115 26.911 7.95264 24.052 7.95264 20.5248C7.95264 16.9976 10.8115 14.1387 14.3388 14.1387C17.866 14.1387 20.7249 16.9976 20.7249 20.5248C20.7249 24.052 17.866 26.911 14.3388 26.911Z" fill="white" stroke="#292827" stroke-width="0.20066" stroke-miterlimit="22.9256"/>
<path d="M30.7871 14.0273H26.5767V18.2377H30.7871V14.0273Z" fill="#CCCCCC"/>
<path d="M24.0891 13.277C23.7698 12.9577 23.7698 12.4453 24.0891 12.126C24.4084 11.8067 24.9208 11.8067 25.2401 12.126L28.4629 15.3488L33.995 9.81663C34.3143 9.49732 34.8267 9.49732 35.146 9.81663C35.4653 10.1359 35.4653 10.6483 35.146 10.9676L29.0421 17.0716C28.7228 17.3909 28.2104 17.3909 27.8911 17.0716L24.0965 13.277H24.0891Z" fill="#FF0000"/>
<path d="M30.7871 23.1313H26.5767V27.3417H30.7871V23.1313Z" fill="#CCCCCC"/>
<path d="M24.0891 22.381C23.7698 22.0617 23.7698 21.5493 24.0891 21.23C24.4084 20.9107 24.9208 20.9107 25.2401 21.23L28.4629 24.4528L33.995 18.9206C34.3143 18.6013 34.8267 18.6013 35.146 18.9206C35.4653 19.2399 35.4653 19.7523 35.146 20.0716L29.0421 26.1756C28.7228 26.4949 28.2104 26.4949 27.8911 26.1756L24.0965 22.381H24.0891Z" fill="black"/>
<path d="M30.7871 32.2354H26.5767V36.4457H30.7871V32.2354Z" fill="#CCCCCC"/>
<path d="M24.0891 31.4924C23.7698 31.173 23.7698 30.6607 24.0891 30.3414C24.4084 30.0221 24.9208 30.0221 25.2401 30.3414L28.4629 33.5641L33.995 28.032C34.3143 27.7127 34.8267 27.7127 35.146 28.032C35.4653 28.3513 35.4653 28.8636 35.146 29.1829L29.0421 35.2869C28.7228 35.6062 28.2104 35.6062 27.8911 35.2869L24.0965 31.4924H24.0891Z" fill="black"/>
</svg>
