<svg width="26" height="25" viewBox="0 0 26 25" fill="none" xmlns="http://www.w3.org/2000/svg">
<circle cx="12.8507" cy="12.365" r="12.365" fill="#DC0921"/>
<path d="M13.157 8.24697C14.5983 8.24697 14.769 8.25248 15.3381 8.27845C15.8644 8.30244 16.1502 8.39038 16.3404 8.4643C16.5924 8.56222 16.7722 8.67918 16.9611 8.86805C17.15 9.05695 17.2669 9.23676 17.3648 9.48871C17.4388 9.67891 17.5267 9.96471 17.5507 10.491C17.5767 11.0601 17.5822 11.2309 17.5822 12.6721C17.5822 14.1134 17.5767 14.2841 17.5507 14.8533C17.5267 15.3795 17.4388 15.6653 17.3648 15.8555C17.2669 16.1075 17.15 16.2873 16.9611 16.4762C16.7722 16.6651 16.5924 16.782 16.3404 16.8799C16.1502 16.9539 15.8644 17.0418 15.3381 17.0658C14.7691 17.0918 14.5984 17.0973 13.157 17.0973C11.7156 17.0973 11.545 17.0918 10.9759 17.0658C10.4496 17.0418 10.1638 16.9539 9.97358 16.8799C9.72163 16.782 9.54182 16.6651 9.35294 16.4762C9.16407 16.2873 9.04708 16.1075 8.94917 15.8555C8.87524 15.6653 8.78731 15.3795 8.76331 14.8533C8.73735 14.2841 8.73184 14.1134 8.73184 12.6721C8.73184 11.2309 8.73735 11.0601 8.76331 10.491C8.78731 9.96471 8.87524 9.67891 8.94917 9.48871C9.04708 9.23676 9.16405 9.05695 9.35294 8.86808C9.54182 8.67918 9.72163 8.56222 9.97358 8.4643C10.1638 8.39038 10.4496 8.30244 10.9759 8.27845C11.545 8.25248 11.7158 8.24697 13.157 8.24697ZM13.157 7.27441C11.6911 7.27441 11.5073 7.28063 10.9315 7.3069C10.357 7.3331 9.96462 7.42435 9.62129 7.55778C9.26634 7.69572 8.96532 7.88028 8.66522 8.18036C8.36515 8.48045 8.18058 8.78147 8.04266 9.13642C7.90922 9.47975 7.81796 9.87213 7.79176 10.4467C7.76549 11.0224 7.75928 11.2062 7.75928 12.6721C7.75928 14.138 7.76549 14.3219 7.79176 14.8976C7.81796 15.4721 7.90922 15.8645 8.04266 16.2078C8.18058 16.5628 8.36515 16.8638 8.66522 17.1639C8.96532 17.464 9.26634 17.6485 9.62129 17.7864C9.96462 17.9199 10.357 18.0111 10.9315 18.0373C11.5073 18.0636 11.6911 18.0698 13.157 18.0698C14.6229 18.0698 14.8068 18.0636 15.3825 18.0373C15.957 18.0111 16.3494 17.9199 16.6927 17.7864C17.0477 17.6485 17.3487 17.464 17.6488 17.1639C17.9489 16.8638 18.1334 16.5628 18.2714 16.2078C18.4048 15.8645 18.496 15.4721 18.5222 14.8976C18.5485 14.3219 18.5547 14.138 18.5547 12.6721C18.5547 11.2062 18.5485 11.0224 18.5222 10.4467C18.496 9.87213 18.4048 9.47975 18.2714 9.13642C18.1334 8.78147 17.9489 8.48045 17.6488 8.18036C17.3487 7.88028 17.0477 7.69572 16.6927 7.55778C16.3494 7.42435 15.957 7.3331 15.3825 7.3069C14.8068 7.28063 14.6229 7.27441 13.157 7.27441Z" fill="white"/>
<path d="M13.1595 9.90332C11.6287 9.90332 10.3877 11.1443 10.3877 12.6751C10.3877 14.2059 11.6287 15.4469 13.1595 15.4469C14.6903 15.4469 15.9313 14.2059 15.9313 12.6751C15.9313 11.1443 14.6903 9.90332 13.1595 9.90332ZM13.1595 14.4744C12.1658 14.4744 11.3603 13.6688 11.3603 12.6751C11.3603 11.6814 12.1658 10.8759 13.1595 10.8759C14.1532 10.8759 14.9587 11.6814 14.9587 12.6751C14.9587 13.6688 14.1532 14.4744 13.1595 14.4744Z" fill="white"/>
<path d="M16.6883 9.79129C16.6883 10.149 16.3983 10.439 16.0406 10.439C15.6829 10.439 15.3929 10.149 15.3929 9.79129C15.3929 9.43356 15.6829 9.14355 16.0406 9.14355C16.3983 9.14355 16.6883 9.43356 16.6883 9.79129Z" fill="white"/>
</svg>
