<svg width="25" height="25" viewBox="0 0 25 25" fill="none" xmlns="http://www.w3.org/2000/svg">
<circle cx="12.365" cy="12.365" r="12.365" fill="#DC0921"/>
<path d="M12.365 5.81934C8.75546 5.81934 5.81885 8.75595 5.81885 12.3655C5.81885 15.9751 8.75546 18.9117 12.365 18.9117C15.9746 18.9117 18.9112 15.9751 18.9112 12.3655C18.9112 8.75595 15.9746 5.81934 12.365 5.81934ZM7.12808 12.3655C7.12808 11.777 7.2302 11.2121 7.41022 10.6838L8.43732 11.7109L9.74655 13.0201V14.3294L11.0558 15.6386L11.7104 16.2932V17.5573C9.13187 17.2332 7.12808 15.0311 7.12808 12.3655ZM16.5088 15.5555C16.0813 15.2111 15.4332 14.984 14.9835 14.984V14.3294C14.9835 13.6067 14.397 13.0201 13.6743 13.0201H11.0558V11.7109V11.0563C11.7785 11.0563 12.365 10.4697 12.365 9.74704V9.09242H13.0196C13.7423 9.09242 14.3289 8.50589 14.3289 7.78319V7.51414C16.2456 8.29248 17.602 10.1725 17.602 12.3655C17.602 13.5667 17.1915 14.6711 16.5088 15.5555Z" fill="white"/>
</svg>
