<svg width="26" height="25" viewBox="0 0 26 25" fill="none" xmlns="http://www.w3.org/2000/svg">
<circle cx="13.3555" cy="12.365" r="12.365" fill="#DC0921"/>
<path fill-rule="evenodd" clip-rule="evenodd" d="M18.5398 9.34106C18.7205 9.51846 18.8507 9.73923 18.9174 9.9814C19.3018 11.5003 19.213 13.899 18.9249 15.4765C18.8582 15.7187 18.7279 15.9395 18.5472 16.1169C18.3665 16.2943 18.1416 16.4221 17.8949 16.4876C16.9918 16.7294 13.357 16.7294 13.357 16.7294C13.357 16.7294 9.72222 16.7294 8.81912 16.4876C8.57243 16.4221 8.34753 16.2943 8.16682 16.1169C7.98611 15.9395 7.85589 15.7187 7.78914 15.4765C7.40252 13.9643 7.5085 11.564 7.78167 9.98873C7.84843 9.74656 7.97864 9.52578 8.15935 9.34838C8.34006 9.17099 8.56496 9.04316 8.81166 8.97763C9.71476 8.73584 13.3496 8.72852 13.3496 8.72852C13.3496 8.72852 16.9844 8.72852 17.8875 8.9703C18.1342 9.03583 18.3591 9.16366 18.5398 9.34106ZM15.208 12.729L12.1927 14.4434V11.0145L15.208 12.729Z" fill="white"/>
</svg>
