<svg width="26" height="25" viewBox="0 0 26 25" fill="none" xmlns="http://www.w3.org/2000/svg">
<circle cx="12.8602" cy="12.365" r="12.365" fill="#DC0921"/>
<path fill-rule="evenodd" clip-rule="evenodd" d="M18.5642 9.03943C18.1674 9.21574 17.7402 9.33448 17.2923 9.3881C17.7496 9.11391 18.1008 8.67996 18.266 8.1629C17.8385 8.41693 17.3639 8.6008 16.8598 8.70048C16.4557 8.27013 15.8796 8.00098 15.2431 8.00098C14.02 8.00098 13.0283 8.99265 13.0283 10.2157C13.0283 10.3891 13.0481 10.5582 13.0859 10.7205C11.2451 10.6284 9.61326 9.74648 8.52083 8.4065C8.33012 8.73358 8.2211 9.11392 8.2211 9.5198C8.2211 10.288 8.61151 10.9659 9.2063 11.3632C8.84287 11.3517 8.50176 11.252 8.20275 11.0861V11.1138C8.20275 12.1872 8.96665 13.0821 9.9792 13.2861C9.79353 13.3365 9.59779 13.3638 9.39592 13.3638C9.25307 13.3638 9.11418 13.3498 8.97889 13.3239C9.26063 14.2036 10.0789 14.8441 11.0479 14.8621C10.2901 15.4558 9.33511 15.8102 8.29738 15.8102C8.11819 15.8102 7.94187 15.7998 7.7688 15.7789C8.74896 16.4072 9.91299 16.7742 11.1637 16.7742C15.2373 16.7742 17.465 13.3994 17.465 10.473C17.465 10.3769 17.4632 10.2812 17.4585 10.1866C17.8917 9.8735 18.2674 9.48345 18.5642 9.03943Z" fill="white"/>
</svg>
